<?xml version="1.0" encoding="utf-8"?>
<!-- Generator: Adobe Illustrator 16.0.0, SVG Export Plug-In . SVG Version: 6.00 Build 0)  -->
<!DOCTYPE svg PUBLIC "-//W3C//DTD SVG 1.1//EN" "http://www.w3.org/Graphics/SVG/1.1/DTD/svg11.dtd" [
	<!ENTITY ns_flows "http://ns.adobe.com/Flows/1.0/">
	<!ENTITY ns_extend "http://ns.adobe.com/Extensibility/1.0/">
	<!ENTITY ns_ai "http://ns.adobe.com/AdobeIllustrator/10.0/">
	<!ENTITY ns_graphs "http://ns.adobe.com/Graphs/1.0/">
]>
<svg version="1.1" id="Capa_1" xmlns:x="&ns_extend;" xmlns:i="&ns_ai;" xmlns:graph="&ns_graphs;"
	 xmlns="http://www.w3.org/2000/svg" xmlns:xlink="http://www.w3.org/1999/xlink" xmlns:a="http://ns.adobe.com/AdobeSVGViewerExtensions/3.0/"
	 x="0px" y="0px" width="1592.921px" height="603.084px" viewBox="0 0 1592.921 603.084"
	 style="enable-background:new 0 0 1592.921 603.084;" xml:space="preserve">
<style type="text/css">
<![CDATA[
	.st0{fill:#10253F;}
	.st1{fill:#166F31;}
	.st2{fill-rule:evenodd;clip-rule:evenodd;fill:none;stroke:#632523;stroke-width:4;stroke-miterlimit:10;stroke-dasharray:10;}
	.st3{fill-rule:evenodd;clip-rule:evenodd;fill:none;stroke:#2A3174;stroke-width:4;stroke-miterlimit:10;stroke-dasharray:10;}
	.st4{fill:#8CBF44;}
	.st5{fill:#5AAF33;}
	.st6{fill-rule:evenodd;clip-rule:evenodd;fill:#1D1D1B;}
	.st7{display:none;fill:#444443;}
	.st8{clip-path:url(#SVGID_2_);fill:#8CBF44;}
	.st9{fill:#2A3174;}
	.st10{fill-rule:evenodd;clip-rule:evenodd;fill:#8CBF44;}
	.st11{fill:#999898;}
	.st12{fill-rule:evenodd;clip-rule:evenodd;}
	.st13{fill:#FFFFFF;}
	.st14{fill:#632523;}
	.st15{fill-rule:evenodd;clip-rule:evenodd;fill:#5AAF33;}
	.st16{fill:#6D7393;}
	.st17{fill-rule:evenodd;clip-rule:evenodd;fill:#999898;}
	.st18{fill:#000100;}
	.st19{fill-rule:evenodd;clip-rule:evenodd;fill:none;stroke:#166F31;stroke-width:4;stroke-miterlimit:10;stroke-dasharray:10;}
	.st20{fill-rule:evenodd;clip-rule:evenodd;fill:#FFFFFF;}
	.st21{fill-rule:evenodd;clip-rule:evenodd;fill:#DCE5DE;stroke:#6D7393;stroke-width:4;stroke-miterlimit:10;stroke-dasharray:10;}
	.st22{fill-rule:evenodd;clip-rule:evenodd;fill:none;stroke:#6D7393;stroke-width:4;stroke-miterlimit:10;stroke-dasharray:10;}
	.st23{fill-rule:evenodd;clip-rule:evenodd;fill:#000100;}
	.st24{fill:none;stroke:#6D7393;stroke-width:4;stroke-miterlimit:10;stroke-dasharray:10;}
]]>
</style>
<rect x="-195.623" y="-34.379" class="st7" width="2083.396" height="1114.379"/>
<g>
	<path class="st2" d="M288.81,137.146h876.251c6.589,0,11.932,2.974,11.932,6.644v20.455"/>
	<path class="st3" d="M1165.414,343.205H277.816c-6.676,0-12.087-5.372-12.087-12v-36.945"/>
	<g>
		<g>
			<path class="st12" d="M744.873,548.911c-4.492,0-8.803,0-13.292,0c-0.511-10.984-4.593-19.986-12.856-26.919
				c-6.401-5.375-13.932-8.066-22.156-8c-17.498,0.145-33.997,13.035-35.045,34.529c-0.593,0.113-1.233,0.338-1.874,0.338
				c-10.55,0.023-21.101,0.109-31.646-0.082c-1.587-0.029-4.015-1.008-4.549-2.212c-1.197-2.716-3.108-2.448-5.276-2.544
				c-2.208-0.098-5.662,1.036-5.612-2.579c0.046-3.459,3.464-2.42,5.702-2.618c1.116-0.102,2.253-0.02,3.791-0.02
				c0-2.793-0.007-5.283,0.004-7.773c0.021-6.154,1.729-7.867,7.983-8.059c0.892-0.025,1.785-0.127,3.024-0.219
				c0-1.477,0-2.826,0-4.178c0-32.795-0.002-65.6,0.008-98.41c0-1.371-0.01-2.764,0.182-4.117c0.858-6.002,4.893-9.75,10.943-9.758
				c41.396-0.051,82.792-0.055,124.186,0.004c6.012,0.012,10.061,3.895,10.788,9.885c0.163,1.359,0.135,2.746,0.135,4.119
				c0.01,32.582,0.003,65.158,0.012,97.723c0.003,4.473,0.516,4.855,4.506,4.998c3.213,0.115,4.126-1.273,4.113-4.318
				c-0.085-21.559-0.051-43.119-0.043-64.682c0.004-11.92,6.57-18.445,18.537-18.449c5.963-0.002,11.931,0.156,17.889-0.043
				c6.007-0.201,10.815,1.857,15.029,6.156c10.999,11.221,22.135,22.309,33.343,33.314c1.341,1.318,3.354,2.271,5.209,2.67
				c5.575,1.186,8.417,4.67,9.376,10.195c1.441,0.234,2.935,0.313,4.321,0.736c4.515,1.393,7.387,5.557,7.43,10.818
				c0.062,7.664,0.018,15.326,0.018,22.785c0.465,0.346,0.626,0.568,0.815,0.588c7.766,0.92,8.41,1.639,8.41,9.379
				c0,3.672,0.062,7.342-0.021,11.011c-0.078,3.427-1.957,5.596-5.155,5.656c-6.401,0.119-12.805,0.033-19.454,0.033
				c-0.515-10.734-4.457-19.699-12.552-26.615c-6.342-5.416-13.823-8.184-22.077-8.24c-9.537-0.066-17.955,3.244-24.831,9.992
				c-6.845,6.723-10.151,15.061-10.541,24.837c-4.612,0-8.927,0-13.076,0c-0.276,0.483-0.473,0.669-0.476,0.858
				c-0.155,7.318-0.694,6.759-7.441,6.753c-13.418-0.014-26.832-0.074-40.247,0.018
				C743.604,556.538,745.315,555.706,744.873,548.911z M795.95,472.884c20.325,0,40.701,0,61.303,0
				c-9.029-9.111-17.744-18.037-26.655-26.762c-1.359-1.33-3.597-2.365-5.48-2.459c-6.391-0.311-12.818-0.406-19.205-0.063
				c-5.243,0.281-9.471,4.164-9.849,9.361C795.589,459.533,795.95,466.162,795.95,472.884z"/>
			<path class="st12" d="M696.663,574.466c-14.143,0.055-25.699-11.359-25.746-25.433c-0.046-13.92,11.401-25.571,25.195-25.647
				c14.426-0.08,25.944,11.16,26.078,25.443C722.323,562.824,710.782,574.411,696.663,574.466z M696.536,563.356
				c7.987,0.012,14.397-6.344,14.454-14.333c0.06-7.904-6.385-14.508-14.247-14.596c-7.917-0.09-14.847,6.756-14.729,14.564
				C682.13,556.923,688.619,563.343,696.536,563.356z"/>
			<path class="st12" d="M848.663,574.466c-14.145,0.014-25.637-11.352-25.672-25.403c-0.034-14.09,11.39-25.641,25.396-25.676
				c14.309-0.039,25.871,11.396,25.852,25.576C874.224,562.998,862.736,574.448,848.663,574.466z M862.968,549.033
				c0.055-7.979-6.305-14.53-14.177-14.606c-7.951-0.08-14.741,6.643-14.706,14.558c0.034,7.885,6.555,14.348,14.489,14.369
				C856.58,563.376,862.913,557.078,862.968,549.033z"/>
		</g>
		<g>
			<path class="st15" d="M744.417,435.951c-0.498,0.244-0.865,0.42-1.235,0.6c-3.998,1.928-7.998,3.848-11.989,5.789
				c-2.973,1.441-3.854,4.014-2.42,7.018c0.697,1.465,1.398,2.924,2.114,4.379c1.431,2.916,4.01,3.816,6.921,2.418
				c4-1.924,7.994-3.855,11.992-5.783c0.376-0.184,0.75-0.365,1.521-0.734c-0.255,2.168-0.293,4.096-0.724,5.928
				c-3.119,13.295-18.031,19.709-29.814,12.848c-0.773-0.449-1.33-0.457-2.107-0.08c-15.072,7.297-30.155,14.563-45.232,21.844
				c-2.79,1.352-5.65,1.82-8.607,0.693c-4.053-1.541-6.399-4.521-6.753-8.828c-0.356-4.307,1.454-7.619,5.223-9.799
				c0.967-0.561,1.966-1.059,2.971-1.547c14.347-6.93,28.696-13.861,43.063-20.756c1.036-0.496,1.523-1.068,1.716-2.262
				c2.38-15.105,20.308-22.096,32.328-12.645C743.705,435.285,743.996,435.574,744.417,435.951z M663.246,483.65
				c1.403,2.889,4.85,4.07,7.739,2.66c2.854-1.396,4.048-4.912,2.631-7.766c-1.392-2.791-4.876-3.99-7.687-2.635
				C663.055,477.291,661.847,480.773,663.246,483.65z"/>
		</g>
	</g>
	<g>
		<path class="st9" d="M949.844,357.127c0,9.234-9.162,16.721-20.461,16.721H520.306c-11.302,0-20.462-7.486-20.462-16.721v-30.139
			c0-9.238,9.16-16.729,20.462-16.729h409.077c11.299,0,20.461,7.49,20.461,16.729V357.127z"/>
		<g>
			<path class="st13" d="M628.189,354.236h-3.5l-2.31-18.515l-6.65,12.705l-6.79-12.705l-2.31,18.515h-3.5l3.29-24.5h2.835
				l6.44,12.145l6.37-12.145h2.87L628.189,354.236z"/>
			<path class="st13" d="M646.179,352.066l-0.49,2.52h-0.245c-0.7,0-1.284-0.041-1.75-0.122c-0.467-0.082-0.864-0.222-1.19-0.42
				c-0.327-0.198-0.601-0.461-0.823-0.788c-0.222-0.326-0.438-0.723-0.647-1.189c-1.447,1.68-3.197,2.52-5.25,2.52
				c-1.61,0-2.894-0.46-3.85-1.382c-0.957-0.922-1.435-2.118-1.435-3.588c0-1.189,0.321-2.17,0.963-2.939
				c0.641-0.771,1.458-1.389,2.45-1.855c0.992-0.467,2.094-0.799,3.308-0.997c1.213-0.198,2.392-0.31,3.535-0.333
				c0-1.54-0.298-2.584-0.893-3.133c-0.595-0.548-1.546-0.822-2.853-0.822c-1.494,0-2.999,0.514-4.515,1.54l-0.455-2.555
				c1.54-1.19,3.477-1.785,5.81-1.785c1.097,0,2.03,0.146,2.8,0.438c0.77,0.292,1.394,0.759,1.872,1.4
				c0.478,0.642,0.828,1.487,1.05,2.537c0.221,1.05,0.333,2.334,0.333,3.85v3.5c0,1.354,0.116,2.293,0.35,2.818
				c0.233,0.524,0.77,0.787,1.61,0.787H646.179z M640.754,349.756v-4.095c-2.52,0.094-4.323,0.426-5.408,0.998
				c-1.085,0.571-1.627,1.499-1.627,2.782c0,1.75,0.886,2.625,2.66,2.625c0.84,0,1.65-0.21,2.432-0.63
				S640.241,350.456,640.754,349.756z"/>
			<path class="st13" d="M651.744,333.236h-3.15v-3.5h3.15V333.236z M651.744,354.236h-3.15v-17.15h3.15V354.236z"/>
			<path class="st13" d="M671.483,354.236h-3.15v-9.45c0-1.843-0.345-3.179-1.033-4.007c-0.688-0.828-1.837-1.243-3.447-1.243
				c-2.287,0-3.85,0.747-4.69,2.24v12.46h-3.15v-17.15h2.45l0.35,1.82c1.633-1.446,3.523-2.17,5.67-2.17c4.667,0,7,2.684,7,8.05
				V354.236z"/>
			<path class="st13" d="M684.293,352.066l-0.245,2.52h-2.835c-1.517,0-2.642-0.396-3.377-1.189
				c-0.735-0.793-1.103-1.762-1.103-2.905v-10.955h-2.94l0.28-2.45h2.66v-4.234l3.15-0.315v4.55h4.515v2.45h-4.515v9.03
				c0,0.817,0.023,1.458,0.07,1.925c0.046,0.467,0.181,0.817,0.402,1.05c0.222,0.233,0.578,0.38,1.067,0.438
				c0.49,0.059,1.178,0.088,2.065,0.088H684.293z"/>
			<path class="st13" d="M701.547,345.661h-12.425c0.373,4.084,2.52,6.125,6.44,6.125c1.75,0,3.395-0.338,4.935-1.015l0.42,2.484
				c-2.03,0.888-3.944,1.33-5.74,1.33c-1.447,0-2.748-0.233-3.902-0.699c-1.155-0.467-2.129-1.103-2.922-1.908
				c-0.793-0.805-1.4-1.761-1.82-2.87c-0.42-1.107-0.63-2.304-0.63-3.587c0-1.236,0.198-2.392,0.595-3.465
				c0.396-1.073,0.957-2.001,1.68-2.783c0.723-0.781,1.604-1.399,2.643-1.854c1.038-0.455,2.199-0.683,3.482-0.683
				c1.097,0,2.1,0.163,3.01,0.49c0.91,0.327,1.686,0.805,2.327,1.435s1.143,1.395,1.505,2.293c0.361,0.898,0.542,1.907,0.542,3.027
				C701.688,344.635,701.64,345.195,701.547,345.661z M694.232,339.536c-2.543,0-4.153,1.318-4.83,3.955h9.03
				c0-1.26-0.35-2.233-1.05-2.923C696.683,339.881,695.632,339.536,694.232,339.536z"/>
			<path class="st13" d="M720.342,354.236h-3.15v-9.45c0-1.843-0.345-3.179-1.033-4.007c-0.688-0.828-1.837-1.243-3.447-1.243
				c-2.287,0-3.85,0.747-4.69,2.24v12.46h-3.15v-17.15h2.45l0.35,1.82c1.633-1.446,3.523-2.17,5.67-2.17c4.667,0,7,2.684,7,8.05
				V354.236z"/>
			<path class="st13" d="M738.822,352.066l-0.49,2.52h-0.245c-0.7,0-1.284-0.041-1.75-0.122c-0.467-0.082-0.864-0.222-1.19-0.42
				c-0.327-0.198-0.601-0.461-0.823-0.788c-0.222-0.326-0.438-0.723-0.647-1.189c-1.447,1.68-3.197,2.52-5.25,2.52
				c-1.61,0-2.894-0.46-3.85-1.382c-0.957-0.922-1.435-2.118-1.435-3.588c0-1.189,0.321-2.17,0.963-2.939
				c0.641-0.771,1.458-1.389,2.45-1.855c0.992-0.467,2.094-0.799,3.308-0.997c1.213-0.198,2.392-0.31,3.535-0.333
				c0-1.54-0.298-2.584-0.893-3.133c-0.595-0.548-1.546-0.822-2.853-0.822c-1.494,0-2.999,0.514-4.515,1.54l-0.455-2.555
				c1.54-1.19,3.477-1.785,5.81-1.785c1.097,0,2.03,0.146,2.8,0.438c0.77,0.292,1.394,0.759,1.872,1.4
				c0.478,0.642,0.828,1.487,1.05,2.537c0.221,1.05,0.333,2.334,0.333,3.85v3.5c0,1.354,0.116,2.293,0.35,2.818
				c0.233,0.524,0.77,0.787,1.61,0.787H738.822z M733.397,349.756v-4.095c-2.52,0.094-4.323,0.426-5.408,0.998
				c-1.085,0.571-1.627,1.499-1.627,2.782c0,1.75,0.886,2.625,2.66,2.625c0.84,0,1.65-0.21,2.432-0.63
				S732.883,350.456,733.397,349.756z"/>
			<path class="st13" d="M756.707,354.236h-3.15v-9.45c0-1.843-0.345-3.179-1.033-4.007c-0.688-0.828-1.837-1.243-3.447-1.243
				c-2.287,0-3.85,0.747-4.69,2.24v12.46h-3.15v-17.15h2.45l0.35,1.82c1.633-1.446,3.523-2.17,5.67-2.17c4.667,0,7,2.684,7,8.05
				V354.236z"/>
			<path class="st13" d="M768.361,354.586c-1.377,0-2.59-0.228-3.64-0.682c-1.05-0.455-1.943-1.086-2.678-1.891
				s-1.29-1.75-1.663-2.835c-0.374-1.085-0.56-2.269-0.56-3.553c0-1.306,0.187-2.502,0.56-3.587
				c0.373-1.085,0.916-2.024,1.627-2.817s1.598-1.406,2.66-1.838c1.062-0.432,2.281-0.647,3.658-0.647
				c2.286,0,4.048,0.339,5.285,1.015l-0.49,2.835c-1.447-0.699-2.929-1.05-4.445-1.05c-1.89,0-3.302,0.525-4.235,1.575
				c-0.934,1.05-1.4,2.555-1.4,4.515s0.466,3.482,1.4,4.567c0.933,1.086,2.345,1.628,4.235,1.628c1.54,0,3.033-0.35,4.48-1.05
				l0.42,2.52C772.292,354.155,770.554,354.586,768.361,354.586z"/>
			<path class="st13" d="M791.042,345.661h-12.425c0.373,4.084,2.52,6.125,6.44,6.125c1.75,0,3.395-0.338,4.935-1.015l0.42,2.484
				c-2.03,0.888-3.944,1.33-5.74,1.33c-1.447,0-2.748-0.233-3.902-0.699c-1.155-0.467-2.129-1.103-2.922-1.908
				c-0.793-0.805-1.4-1.761-1.82-2.87c-0.42-1.107-0.63-2.304-0.63-3.587c0-1.236,0.198-2.392,0.595-3.465
				c0.396-1.073,0.957-2.001,1.68-2.783c0.723-0.781,1.604-1.399,2.643-1.854c1.038-0.455,2.199-0.683,3.482-0.683
				c1.097,0,2.1,0.163,3.01,0.49c0.91,0.327,1.686,0.805,2.327,1.435s1.143,1.395,1.505,2.293c0.361,0.898,0.542,1.907,0.542,3.027
				C791.182,344.635,791.134,345.195,791.042,345.661z M783.727,339.536c-2.543,0-4.153,1.318-4.83,3.955h9.03
				c0-1.26-0.35-2.233-1.05-2.923C786.177,339.881,785.126,339.536,783.727,339.536z"/>
			<path class="st13" d="M809.906,354.727c-3.383,0-6.055-0.525-8.015-1.575l0.455-3.885c2.193,1.633,4.736,2.45,7.63,2.45
				c0.84,0,1.615-0.076,2.327-0.228c0.712-0.152,1.33-0.386,1.855-0.7c0.525-0.315,0.933-0.712,1.225-1.19
				c0.292-0.478,0.438-1.032,0.438-1.662c0-0.653-0.152-1.219-0.455-1.697s-0.729-0.904-1.277-1.278
				c-0.548-0.373-1.213-0.711-1.995-1.015c-0.782-0.303-1.651-0.618-2.607-0.945l-2.45-0.805c-1.984-0.653-3.401-1.464-4.252-2.433
				c-0.852-0.968-1.278-2.117-1.278-3.447c0-0.7,0.14-1.464,0.42-2.293c0.28-0.827,0.752-1.598,1.417-2.31s1.563-1.301,2.695-1.768
				c1.131-0.467,2.561-0.7,4.288-0.7c0.7,0,1.423,0.047,2.17,0.141c0.747,0.093,1.464,0.216,2.152,0.367
				c0.688,0.152,1.324,0.332,1.908,0.542c0.583,0.21,1.073,0.421,1.47,0.631l-0.35,3.534c-2.94-1.47-5.285-2.205-7.035-2.205
				c-0.677,0-1.348,0.07-2.013,0.211c-0.665,0.14-1.254,0.361-1.768,0.664c-0.513,0.304-0.927,0.678-1.242,1.12
				c-0.315,0.444-0.473,0.98-0.473,1.61c0,1.027,0.438,1.826,1.313,2.397c0.875,0.572,2.199,1.138,3.973,1.697
				c0.49,0.164,0.845,0.269,1.067,0.315c0.221,0.047,0.438,0.1,0.647,0.157c0.21,0.059,0.496,0.152,0.857,0.28
				c0.361,0.128,0.939,0.367,1.732,0.718l1.19,0.63c0.303,0.163,0.554,0.303,0.752,0.42s0.355,0.233,0.473,0.35l0.875,0.91
				c0.537,0.56,0.893,1.167,1.067,1.82c0.175,0.653,0.298,1.435,0.368,2.345c0,0.7-0.105,1.441-0.315,2.223
				c-0.21,0.782-0.653,1.511-1.33,2.188s-1.64,1.242-2.888,1.697S812.006,354.703,809.906,354.727z"/>
			<path class="st13" d="M837.276,345.661h-12.426c0.373,4.084,2.521,6.125,6.44,6.125c1.75,0,3.396-0.338,4.935-1.015l0.42,2.484
				c-2.029,0.888-3.943,1.33-5.74,1.33c-1.446,0-2.747-0.233-3.902-0.699c-1.154-0.467-2.129-1.103-2.922-1.908
				c-0.793-0.805-1.4-1.761-1.82-2.87c-0.42-1.107-0.63-2.304-0.63-3.587c0-1.236,0.198-2.392,0.595-3.465
				c0.396-1.073,0.957-2.001,1.679-2.783c0.724-0.781,1.604-1.399,2.643-1.854c1.039-0.455,2.199-0.683,3.482-0.683
				c1.098,0,2.101,0.163,3.011,0.49c0.909,0.327,1.686,0.805,2.327,1.435s1.143,1.395,1.506,2.293
				c0.361,0.898,0.542,1.907,0.542,3.027C837.416,344.635,837.368,345.195,837.276,345.661z M829.961,339.536
				c-2.544,0-4.153,1.318-4.83,3.955h9.03c0-1.26-0.35-2.233-1.051-2.923C832.411,339.881,831.36,339.536,829.961,339.536z"/>
			<path class="st13" d="M849.666,336.456l-0.7,3.465h-1.085c-0.351,0-0.724,0.065-1.12,0.193s-0.775,0.297-1.137,0.507
				c-0.363,0.21-0.695,0.443-0.998,0.7c-0.304,0.257-0.525,0.525-0.665,0.805v12.11h-3.36v-17.15h2.59l0.385,2.835
				c1.074-1.213,2.049-2.094,2.924-2.642c0.875-0.549,1.837-0.823,2.887-0.823H849.666z"/>
			<path class="st13" d="M866.605,337.086l-6.51,17.15h-3.535l-6.545-17.15h3.5l4.795,13.686l4.761-13.686H866.605z"/>
			<path class="st13" d="M872.206,333.236h-3.15v-3.5h3.15V333.236z M872.206,354.236h-3.15v-17.15h3.15V354.236z"/>
			<path class="st13" d="M884.034,354.586c-1.377,0-2.59-0.228-3.639-0.682c-1.051-0.455-1.943-1.086-2.678-1.891
				c-0.735-0.805-1.29-1.75-1.663-2.835c-0.374-1.085-0.56-2.269-0.56-3.553c0-1.306,0.186-2.502,0.56-3.587
				c0.373-1.085,0.915-2.024,1.628-2.817c0.711-0.793,1.598-1.406,2.66-1.838c1.061-0.432,2.28-0.647,3.657-0.647
				c2.286,0,4.048,0.339,5.284,1.015l-0.489,2.835c-1.447-0.699-2.929-1.05-4.445-1.05c-1.89,0-3.302,0.525-4.235,1.575
				s-1.399,2.555-1.399,4.515s0.466,3.482,1.399,4.567c0.934,1.086,2.346,1.628,4.235,1.628c1.54,0,3.033-0.35,4.48-1.05l0.42,2.52
				C887.966,354.155,886.228,354.586,884.034,354.586z"/>
			<path class="st13" d="M906.715,345.661H894.29c0.373,4.084,2.52,6.125,6.439,6.125c1.75,0,3.396-0.338,4.936-1.015l0.42,2.484
				c-2.03,0.888-3.943,1.33-5.74,1.33c-1.447,0-2.748-0.233-3.902-0.699c-1.154-0.467-2.129-1.103-2.922-1.908
				c-0.794-0.805-1.4-1.761-1.82-2.87c-0.42-1.107-0.631-2.304-0.631-3.587c0-1.236,0.199-2.392,0.596-3.465s0.957-2.001,1.68-2.783
				c0.723-0.781,1.604-1.399,2.643-1.854c1.038-0.455,2.199-0.683,3.482-0.683c1.097,0,2.1,0.163,3.01,0.49s1.686,0.805,2.328,1.435
				c0.641,0.63,1.143,1.395,1.505,2.293c0.361,0.898,0.542,1.907,0.542,3.027C906.854,344.635,906.808,345.195,906.715,345.661z
				 M899.399,339.536c-2.543,0-4.152,1.318-4.83,3.955h9.031c0-1.26-0.351-2.233-1.051-2.923
				C901.851,339.881,900.8,339.536,899.399,339.536z"/>
		</g>
		<g>
			<path class="st20" d="M543.624,346.148c-2.823-2.641-5.553-5.219-8.31-7.765c-1.483-1.37-3.109-1.763-5.174-1.192
				c-3.521,0.973-6.397-0.459-8.693-3.108c-1.796-2.073-2.557-4.589-2.709-7.293c-0.023-0.402,0.162-0.817,0.285-1.375
				c0.928,0.595,1.691,1.082,2.449,1.574c0.933,0.604,1.856,1.221,2.791,1.822c1.869,1.205,3.986,0.945,5.49-0.714
				c1.013-1.118,1.714-2.413,1.924-3.93c0.21-1.535-0.292-2.779-1.604-3.632c-1.736-1.131-3.492-2.231-5.354-3.419
				c0.304-0.307,0.52-0.661,0.835-0.827c5.799-3.051,13.54-0.149,15.061,6.483c0.385,1.681,0.234,3.34-0.106,4.994
				c-0.29,1.397,0.094,2.617,1.025,3.631c1.355,1.472,2.785,2.876,4.171,4.318c1.316,1.374,2.619,2.762,3.743,3.948
				c1.646-1.52,3.133-2.887,4.614-4.26c1.463-1.358,2.922-2.722,4.337-4.04c1.926,1.928,4.02,4.022,6.07,6.076
				c-2.696,2.773-5.43,5.584-8.206,8.438c1.726,1.541,3.473,3.101,5.222,4.659c3.28,2.928,6.588,5.825,9.83,8.798
				c1.61,1.474,2.12,3.391,1.491,5.481c-0.64,2.12-2.079,3.504-4.29,3.953c-2.114,0.428-3.908-0.231-5.364-1.784
				c-4.315-4.589-8.612-9.196-12.916-13.796c-0.184-0.197-0.35-0.41-0.563-0.663c-1.454,1.753-2.839,3.424-4.225,5.097
				c-2.871,3.461-5.733,6.931-8.615,10.382c-1.22,1.462-3.37,1.521-4.713,0.162c-1.078-1.09-2.146-2.188-3.223-3.278
				c-1.586-1.61-1.566-3.561,0.117-5.142c3.46-3.244,6.945-6.462,10.417-9.694C540.806,348.779,542.175,347.5,543.624,346.148z
				 M570.366,363.349c0.01-1.679-1.202-2.93-2.857-2.943c-1.645-0.016-2.929,1.235-2.946,2.869c-0.015,1.63,1.256,2.944,2.874,2.967
				C569.049,366.266,570.355,364.973,570.366,363.349z"/>
			<path class="st20" d="M565.946,336.036c-2.069-2.128-4.119-4.232-6.235-6.405c0.476-0.455,0.904-0.887,1.356-1.294
				c1.672-1.512,1.698-3.211,0.054-4.788c-2.874-2.759-6.35-4.286-10.239-4.931c-0.942-0.155-1.897-0.23-2.892-0.348
				c0-0.652,0-1.287,0-2.053c1.269-0.264,2.578-0.577,3.903-0.799c3.286-0.549,6.577-0.655,9.867-0.004
				c3.884,0.771,7.123,2.675,9.859,5.505c1.373,1.423,2.767,2.829,4.2,4.189c0.736,0.699,1.05,1.496,1.08,2.49
				c0.027,0.958,0.106,1.925,0.285,2.866c0.207,1.091,0.93,1.824,1.95,2.259c0.52,0.22,0.952,0.231,1.513-0.072
				c0.517-0.278,1.254-0.38,1.831-0.257c1.368,0.29,2.253,1.305,2.838,2.505c0.46,0.938,0.129,1.874-0.563,2.589
				c-1.737,1.795-3.489,3.576-5.298,5.295c-1.179,1.119-2.521,1.026-3.687-0.104c-0.283-0.276-0.567-0.553-0.832-0.848
				c-0.91-1.008-0.969-2.176-0.275-3.337c0.189-0.316,0.293-0.81,0.193-1.15c-0.535-1.858-3.065-3.709-5.005-3.754
				c-0.999-0.022-1.814,0.32-2.482,1.082C566.947,335.15,566.449,335.559,565.946,336.036z"/>
		</g>
	</g>
	<g>
		<path class="st14" d="M949.844,146.295c0,9.229-9.161,16.713-20.46,16.713H520.305c-11.3,0-20.461-7.483-20.461-16.713v-30.124
			c0-9.234,9.161-16.721,20.461-16.721h409.079c11.299,0,20.46,7.486,20.46,16.721V146.295z"/>
		<g>
			<path class="st13" d="M604.526,144.148c-3.383,0-6.055-0.525-8.015-1.575l0.455-3.885c2.193,1.633,4.736,2.45,7.63,2.45
				c0.84,0,1.615-0.076,2.327-0.228c0.712-0.152,1.33-0.386,1.855-0.7c0.525-0.315,0.933-0.712,1.225-1.19
				c0.292-0.478,0.438-1.032,0.438-1.662c0-0.653-0.152-1.219-0.455-1.697s-0.729-0.904-1.277-1.278
				c-0.548-0.373-1.213-0.711-1.995-1.015c-0.782-0.303-1.651-0.618-2.607-0.945l-2.45-0.805c-1.984-0.653-3.401-1.464-4.252-2.433
				c-0.852-0.968-1.278-2.117-1.278-3.447c0-0.7,0.14-1.464,0.42-2.293c0.28-0.827,0.752-1.598,1.417-2.31s1.563-1.301,2.695-1.768
				c1.131-0.467,2.561-0.7,4.288-0.7c0.7,0,1.423,0.047,2.17,0.141c0.747,0.093,1.464,0.216,2.152,0.367
				c0.688,0.152,1.324,0.332,1.908,0.542c0.583,0.21,1.073,0.421,1.47,0.631l-0.35,3.534c-2.94-1.47-5.285-2.205-7.035-2.205
				c-0.677,0-1.348,0.07-2.013,0.211c-0.665,0.14-1.254,0.361-1.768,0.664c-0.513,0.304-0.927,0.678-1.242,1.12
				c-0.315,0.444-0.473,0.98-0.473,1.61c0,1.027,0.438,1.826,1.313,2.397c0.875,0.572,2.199,1.138,3.973,1.697
				c0.49,0.164,0.845,0.269,1.067,0.315c0.221,0.047,0.438,0.1,0.647,0.157c0.21,0.059,0.496,0.152,0.857,0.28
				c0.361,0.128,0.939,0.367,1.732,0.718l1.19,0.63c0.303,0.163,0.554,0.303,0.752,0.42s0.355,0.233,0.473,0.35l0.875,0.91
				c0.537,0.56,0.893,1.167,1.067,1.82c0.175,0.653,0.298,1.435,0.368,2.345c0,0.7-0.105,1.441-0.315,2.223
				c-0.21,0.782-0.653,1.511-1.33,2.188s-1.64,1.242-2.888,1.697S606.626,144.125,604.526,144.148z"/>
			<path class="st13" d="M631.896,135.083h-12.425c0.373,4.084,2.52,6.125,6.44,6.125c1.75,0,3.395-0.338,4.935-1.015l0.42,2.484
				c-2.03,0.888-3.944,1.33-5.74,1.33c-1.447,0-2.748-0.233-3.902-0.699c-1.155-0.467-2.129-1.103-2.922-1.908
				c-0.793-0.805-1.4-1.761-1.82-2.87c-0.42-1.107-0.63-2.304-0.63-3.587c0-1.236,0.198-2.392,0.595-3.465
				c0.396-1.073,0.957-2.001,1.68-2.783c0.723-0.781,1.604-1.399,2.643-1.854c1.038-0.455,2.199-0.683,3.482-0.683
				c1.097,0,2.1,0.163,3.01,0.49c0.91,0.327,1.686,0.805,2.327,1.435s1.143,1.395,1.505,2.293c0.361,0.898,0.542,1.907,0.542,3.027
				C632.037,134.057,631.989,134.617,631.896,135.083z M624.582,128.958c-2.543,0-4.153,1.318-4.83,3.955h9.03
				c0-1.26-0.35-2.233-1.05-2.923C627.032,129.303,625.981,128.958,624.582,128.958z"/>
			<path class="st13" d="M650.691,143.658h-3.15v-9.45c0-1.843-0.345-3.179-1.033-4.007c-0.688-0.828-1.837-1.243-3.447-1.243
				c-2.287,0-3.85,0.747-4.69,2.24v12.46h-3.15v-17.15h2.45l0.35,1.82c1.633-1.446,3.523-2.17,5.67-2.17c4.667,0,7,2.684,7,8.05
				V143.658z"/>
			<path class="st13" d="M659.651,144.008c-2.497,0-4.457-0.501-5.88-1.505l0.385-3.045c0.467,0.42,1.184,0.817,2.153,1.19
				c0.968,0.373,2.035,0.56,3.202,0.56c2.287,0,3.43-0.711,3.43-2.135c0-1.283-1.144-2.228-3.43-2.835
				c-0.7-0.163-1.359-0.355-1.978-0.577s-1.172-0.514-1.662-0.875c-0.49-0.362-0.893-0.823-1.208-1.383
				c-0.315-0.561-0.496-1.26-0.542-2.101c0-1.47,0.525-2.694,1.575-3.675c1.05-0.979,2.671-1.47,4.865-1.47
				c1.563,0,3.115,0.373,4.655,1.12l-0.385,2.87c-1.214-1.026-2.614-1.54-4.2-1.54c-2.217,0-3.325,0.775-3.325,2.327
				c0,0.376,0.058,0.693,0.175,0.952c0.116,0.258,0.326,0.487,0.63,0.687c0.303,0.2,0.711,0.395,1.225,0.582
				c0.513,0.188,1.167,0.399,1.96,0.632c0.49,0.14,1.021,0.333,1.592,0.577c0.572,0.245,1.103,0.566,1.593,0.963
				c0.49,0.397,0.898,0.887,1.225,1.47c0.326,0.584,0.49,1.284,0.49,2.101c0,0.56-0.093,1.144-0.28,1.75
				c-0.187,0.606-0.525,1.154-1.015,1.645s-1.161,0.898-2.013,1.226C662.036,143.845,660.958,144.008,659.651,144.008z"/>
			<path class="st13" d="M682.96,141.488c-1.517,1.68-3.582,2.52-6.195,2.52c-1.33,0-2.52-0.228-3.57-0.682
				c-1.05-0.455-1.943-1.079-2.678-1.873c-0.735-0.793-1.295-1.738-1.68-2.835c-0.385-1.097-0.577-2.275-0.577-3.535
				c0-1.283,0.198-2.468,0.595-3.553c0.396-1.085,0.963-2.023,1.698-2.817c0.735-0.793,1.627-1.417,2.677-1.872
				c1.05-0.455,2.228-0.683,3.535-0.683c1.307,0,2.485,0.228,3.535,0.683c1.05,0.455,1.942,1.085,2.677,1.89
				c0.735,0.806,1.301,1.75,1.698,2.835c0.396,1.085,0.595,2.258,0.595,3.518C685.271,137.65,684.5,139.785,682.96,141.488z
				 M680.65,130.568c-0.91-1.073-2.205-1.61-3.885-1.61s-2.981,0.531-3.902,1.593c-0.922,1.062-1.383,2.572-1.383,4.532
				s0.46,3.472,1.383,4.532c0.921,1.063,2.222,1.593,3.902,1.593c1.703,0,3.01-0.548,3.92-1.645s1.365-2.59,1.365-4.48
				C682.051,133.146,681.583,131.642,680.65,130.568z"/>
			<path class="st13" d="M697.59,125.878l-0.7,3.465h-1.085c-0.35,0-0.724,0.065-1.12,0.193c-0.397,0.128-0.776,0.297-1.137,0.507
				c-0.362,0.21-0.695,0.443-0.998,0.7c-0.304,0.257-0.525,0.525-0.665,0.805v12.11h-3.36v-17.15h2.59l0.385,2.835
				c1.073-1.213,2.048-2.094,2.923-2.642c0.875-0.549,1.837-0.823,2.887-0.823H697.59z"/>
			<path class="st13" d="M717.365,143.658h-9.065v-24.5h9.065c1.773,0,3.406,0.28,4.9,0.84c1.493,0.561,2.782,1.371,3.867,2.433
				c1.085,1.063,1.925,2.351,2.52,3.867c0.595,1.518,0.893,3.221,0.893,5.11s-0.297,3.594-0.893,5.11
				c-0.595,1.517-1.423,2.8-2.485,3.85c-1.062,1.05-2.339,1.861-3.833,2.433C720.841,143.373,719.185,143.658,717.365,143.658z
				 M717.385,122.168h-5.726v18.48h5.726c1.35,0,2.555-0.216,3.614-0.647c1.059-0.432,1.955-1.05,2.688-1.855
				c0.733-0.805,1.286-1.778,1.658-2.922s0.559-2.415,0.559-3.815s-0.186-2.672-0.559-3.815c-0.373-1.143-0.925-2.117-1.658-2.922
				c-0.733-0.806-1.63-1.423-2.688-1.855C719.94,122.384,718.735,122.168,717.385,122.168z"/>
			<path class="st13" d="M747.185,141.488l-0.49,2.52h-0.245c-0.7,0-1.284-0.041-1.75-0.122c-0.467-0.082-0.864-0.222-1.19-0.42
				c-0.327-0.198-0.601-0.461-0.823-0.788c-0.222-0.326-0.438-0.723-0.647-1.189c-1.447,1.68-3.197,2.52-5.25,2.52
				c-1.61,0-2.894-0.46-3.85-1.382c-0.957-0.922-1.435-2.118-1.435-3.588c0-1.189,0.321-2.17,0.963-2.939
				c0.641-0.771,1.458-1.389,2.45-1.855c0.992-0.467,2.094-0.799,3.308-0.997c1.213-0.198,2.392-0.31,3.535-0.333
				c0-1.54-0.298-2.584-0.893-3.133c-0.595-0.548-1.546-0.822-2.853-0.822c-1.494,0-2.999,0.514-4.515,1.54l-0.455-2.555
				c1.54-1.19,3.477-1.785,5.81-1.785c1.097,0,2.03,0.146,2.8,0.438c0.77,0.292,1.394,0.759,1.872,1.4
				c0.478,0.642,0.828,1.487,1.05,2.537c0.221,1.05,0.333,2.334,0.333,3.85v3.5c0,1.354,0.116,2.293,0.35,2.818
				c0.233,0.524,0.77,0.787,1.61,0.787H747.185z M741.76,139.178v-4.095c-2.52,0.094-4.323,0.426-5.408,0.998
				c-1.085,0.571-1.627,1.499-1.627,2.782c0,1.75,0.886,2.625,2.66,2.625c0.84,0,1.65-0.21,2.432-0.63
				S741.246,139.878,741.76,139.178z"/>
			<path class="st13" d="M758.244,141.488l-0.245,2.52h-2.835c-1.517,0-2.642-0.396-3.377-1.189
				c-0.735-0.793-1.103-1.762-1.103-2.905v-10.955h-2.94l0.28-2.45h2.66v-4.234l3.15-0.315v4.55h4.515v2.45h-4.515v9.03
				c0,0.817,0.023,1.458,0.07,1.925c0.046,0.467,0.181,0.817,0.402,1.05c0.222,0.233,0.578,0.38,1.067,0.438
				c0.49,0.059,1.178,0.088,2.065,0.088H758.244z"/>
			<path class="st13" d="M775.429,141.488l-0.49,2.52h-0.245c-0.7,0-1.284-0.041-1.75-0.122c-0.467-0.082-0.864-0.222-1.19-0.42
				c-0.327-0.198-0.601-0.461-0.823-0.788c-0.222-0.326-0.438-0.723-0.647-1.189c-1.447,1.68-3.197,2.52-5.25,2.52
				c-1.61,0-2.894-0.46-3.85-1.382c-0.957-0.922-1.435-2.118-1.435-3.588c0-1.189,0.321-2.17,0.963-2.939
				c0.641-0.771,1.458-1.389,2.45-1.855c0.992-0.467,2.094-0.799,3.308-0.997c1.213-0.198,2.392-0.31,3.535-0.333
				c0-1.54-0.298-2.584-0.893-3.133c-0.595-0.548-1.546-0.822-2.853-0.822c-1.494,0-2.999,0.514-4.515,1.54l-0.455-2.555
				c1.54-1.19,3.477-1.785,5.81-1.785c1.097,0,2.03,0.146,2.8,0.438c0.77,0.292,1.394,0.759,1.872,1.4
				c0.478,0.642,0.828,1.487,1.05,2.537c0.221,1.05,0.333,2.334,0.333,3.85v3.5c0,1.354,0.116,2.293,0.35,2.818
				c0.233,0.524,0.77,0.787,1.61,0.787H775.429z M770.004,139.178v-4.095c-2.52,0.094-4.323,0.426-5.408,0.998
				c-1.085,0.571-1.627,1.499-1.627,2.782c0,1.75,0.886,2.625,2.66,2.625c0.84,0,1.65-0.21,2.432-0.63
				S769.49,139.878,770.004,139.178z"/>
			<path class="st13" d="M793.383,144.148c-3.383,0-6.055-0.525-8.015-1.575l0.455-3.885c2.193,1.633,4.736,2.45,7.63,2.45
				c0.84,0,1.615-0.076,2.327-0.228c0.712-0.152,1.33-0.386,1.855-0.7c0.525-0.315,0.933-0.712,1.225-1.19
				c0.292-0.478,0.438-1.032,0.438-1.662c0-0.653-0.152-1.219-0.455-1.697s-0.729-0.904-1.277-1.278
				c-0.548-0.373-1.213-0.711-1.995-1.015c-0.782-0.303-1.651-0.618-2.607-0.945l-2.45-0.805c-1.984-0.653-3.401-1.464-4.252-2.433
				c-0.852-0.968-1.278-2.117-1.278-3.447c0-0.7,0.14-1.464,0.42-2.293c0.28-0.827,0.752-1.598,1.417-2.31s1.563-1.301,2.695-1.768
				c1.131-0.467,2.561-0.7,4.288-0.7c0.7,0,1.423,0.047,2.17,0.141c0.747,0.093,1.464,0.216,2.152,0.367
				c0.688,0.152,1.324,0.332,1.908,0.542c0.583,0.21,1.073,0.421,1.47,0.631l-0.35,3.534c-2.94-1.47-5.285-2.205-7.035-2.205
				c-0.677,0-1.348,0.07-2.013,0.211c-0.665,0.14-1.254,0.361-1.768,0.664c-0.513,0.304-0.927,0.678-1.242,1.12
				c-0.315,0.444-0.473,0.98-0.473,1.61c0,1.027,0.438,1.826,1.313,2.397c0.875,0.572,2.199,1.138,3.973,1.697
				c0.49,0.164,0.845,0.269,1.067,0.315c0.221,0.047,0.438,0.1,0.647,0.157c0.21,0.059,0.496,0.152,0.857,0.28
				c0.361,0.128,0.939,0.367,1.732,0.718l1.19,0.63c0.303,0.163,0.554,0.303,0.752,0.42s0.355,0.233,0.473,0.35l0.875,0.91
				c0.537,0.56,0.893,1.167,1.067,1.82c0.175,0.653,0.298,1.435,0.368,2.345c0,0.7-0.105,1.441-0.315,2.223
				c-0.21,0.782-0.653,1.511-1.33,2.188s-1.64,1.242-2.888,1.697S795.483,144.125,793.383,144.148z"/>
			<path class="st13" d="M814.628,141.488l-0.245,2.52h-2.835c-1.517,0-2.642-0.396-3.377-1.189
				c-0.735-0.793-1.103-1.762-1.103-2.905v-10.955h-2.94l0.28-2.45h2.66v-4.234l3.15-0.315v4.55h4.515v2.45h-4.515v9.03
				c0,0.817,0.023,1.458,0.07,1.925c0.046,0.467,0.181,0.817,0.402,1.05c0.222,0.233,0.578,0.38,1.067,0.438
				c0.49,0.059,1.178,0.088,2.065,0.088H814.628z"/>
			<path class="st13" d="M826.493,125.878l-0.701,3.465h-1.084c-0.351,0-0.725,0.065-1.121,0.193s-0.775,0.297-1.137,0.507
				c-0.362,0.21-0.695,0.443-0.998,0.7c-0.304,0.257-0.525,0.525-0.665,0.805v12.11h-3.36v-17.15h2.59l0.385,2.835
				c1.073-1.213,2.048-2.094,2.923-2.642c0.875-0.549,1.838-0.823,2.887-0.823H826.493z"/>
			<path class="st13" d="M842.804,135.083h-12.426c0.373,4.084,2.521,6.125,6.44,6.125c1.75,0,3.396-0.338,4.935-1.015l0.42,2.484
				c-2.029,0.888-3.943,1.33-5.74,1.33c-1.446,0-2.747-0.233-3.902-0.699c-1.154-0.467-2.129-1.103-2.922-1.908
				c-0.793-0.805-1.4-1.761-1.82-2.87c-0.42-1.107-0.63-2.304-0.63-3.587c0-1.236,0.198-2.392,0.595-3.465s0.957-2.001,1.68-2.783
				c0.724-0.781,1.604-1.399,2.643-1.854c1.039-0.455,2.199-0.683,3.482-0.683c1.098,0,2.101,0.163,3.011,0.49
				c0.909,0.327,1.686,0.805,2.327,1.435s1.143,1.395,1.506,2.293c0.361,0.898,0.542,1.907,0.542,3.027
				C842.943,134.057,842.896,134.617,842.804,135.083z M835.488,128.958c-2.544,0-4.153,1.318-4.83,3.955h9.03
				c0-1.26-0.35-2.233-1.051-2.923C837.938,129.303,836.888,128.958,835.488,128.958z"/>
			<path class="st13" d="M860.513,141.488l-0.49,2.52h-0.244c-0.7,0-1.283-0.041-1.75-0.122c-0.467-0.082-0.863-0.222-1.189-0.42
				c-0.328-0.198-0.602-0.461-0.823-0.788c-0.222-0.326-0.438-0.723-0.647-1.189c-1.447,1.68-3.197,2.52-5.25,2.52
				c-1.609,0-2.894-0.46-3.85-1.382c-0.957-0.922-1.436-2.118-1.436-3.588c0-1.189,0.32-2.17,0.963-2.939
				c0.641-0.771,1.457-1.389,2.449-1.855s2.095-0.799,3.309-0.997c1.213-0.198,2.391-0.31,3.535-0.333
				c0-1.54-0.299-2.584-0.893-3.133c-0.596-0.548-1.547-0.822-2.854-0.822c-1.493,0-2.998,0.514-4.515,1.54l-0.455-2.555
				c1.54-1.19,3.477-1.785,5.81-1.785c1.098,0,2.031,0.146,2.801,0.438c0.77,0.292,1.394,0.759,1.872,1.4
				c0.478,0.642,0.828,1.487,1.05,2.537s0.333,2.334,0.333,3.85v3.5c0,1.354,0.116,2.293,0.351,2.818
				c0.232,0.524,0.77,0.787,1.609,0.787H860.513z M855.089,139.178v-4.095c-2.521,0.094-4.323,0.426-5.408,0.998
				c-1.085,0.571-1.627,1.499-1.627,2.782c0,1.75,0.886,2.625,2.66,2.625c0.84,0,1.65-0.21,2.432-0.63
				S854.575,139.878,855.089,139.178z"/>
			<path class="st13" d="M889.528,143.658h-3.15v-10.08c0-1.61-0.314-2.782-0.945-3.518c-0.63-0.734-1.656-1.103-3.08-1.103
				c-3.033,0-4.55,1.587-4.55,4.76v9.94h-3.149v-9.45c0-1.96-0.345-3.325-1.033-4.095c-0.688-0.771-1.686-1.155-2.992-1.155
				c-2.193,0-3.71,0.747-4.55,2.24v12.46h-3.15v-17.15h2.45l0.35,1.82c0.934-0.84,1.785-1.411,2.556-1.715
				c0.77-0.303,1.633-0.455,2.59-0.455c2.612,0,4.55,1.144,5.81,3.43c1.19-2.286,3.278-3.43,6.266-3.43
				c4.387,0,6.58,2.462,6.58,7.385V143.658z"/>
			<path class="st13" d="M896.772,122.658h-3.15v-3.5h3.15V122.658z M896.772,143.658h-3.15v-17.15h3.15V143.658z"/>
			<path class="st13" d="M916.513,143.658h-3.15v-9.45c0-1.843-0.345-3.179-1.033-4.007c-0.688-0.828-1.837-1.243-3.447-1.243
				c-2.287,0-3.85,0.747-4.689,2.24v12.46h-3.15v-17.15h2.45l0.351,1.82c1.633-1.446,3.522-2.17,5.67-2.17c4.666,0,7,2.684,7,8.05
				V143.658z"/>
			<path class="st13" d="M927.396,152.408c-1.354,0-2.532-0.14-3.534-0.42c-1.004-0.28-1.838-0.659-2.503-1.138
				s-1.161-1.032-1.487-1.662c-0.328-0.63-0.49-1.284-0.49-1.96c0-1.82,1.015-3.104,3.045-3.851c-1.167-0.56-1.75-1.282-1.75-2.17
				c0-0.396,0.157-0.834,0.473-1.313c0.314-0.478,0.834-0.893,1.557-1.242c-1.982-1.423-2.975-3.29-2.975-5.601
				c0-0.979,0.158-1.89,0.473-2.729s0.77-1.569,1.365-2.188c0.595-0.618,1.33-1.103,2.205-1.452c0.875-0.351,1.86-0.525,2.957-0.525
				c1.54,0,2.998,0.42,4.375,1.26c1.213-0.652,2.602-0.979,4.165-0.979h0.28l-0.385,2.1h-0.805c-0.725,0-1.4,0.082-2.031,0.245
				c1.051,1.26,1.576,2.625,1.576,4.095c0,0.91-0.164,1.773-0.49,2.59c-0.327,0.817-0.787,1.54-1.383,2.171
				c-0.596,0.63-1.318,1.132-2.17,1.505s-1.814,0.56-2.888,0.56c-0.909,0-1.728-0.104-2.45-0.314c-0.56,0.326-0.84,0.677-0.84,1.05
				c0,0.21,0.064,0.391,0.193,0.542c0.127,0.152,0.385,0.286,0.77,0.402c0.385,0.117,0.922,0.24,1.609,0.368
				c0.688,0.128,1.604,0.297,2.748,0.507c0.77,0.141,1.563,0.315,2.38,0.525c0.816,0.21,1.558,0.49,2.223,0.84
				c0.665,0.351,1.219,0.799,1.662,1.348c0.443,0.548,0.688,1.23,0.735,2.048c0,0.723-0.199,1.411-0.596,2.064
				s-0.962,1.226-1.697,1.715c-0.734,0.49-1.639,0.881-2.713,1.173C929.929,152.262,928.727,152.408,927.396,152.408z
				 M928.237,144.568c-0.397,0-1.436-0.141-3.115-0.42c-0.794,0.232-1.447,0.642-1.961,1.225s-0.77,1.178-0.77,1.785
				c0,0.816,0.455,1.487,1.365,2.013c0.91,0.524,2.17,0.787,3.779,0.787c1.681,0,2.98-0.274,3.902-0.822
				c0.922-0.549,1.383-1.185,1.383-1.907C932.821,146.015,931.293,145.128,928.237,144.568z M926.767,128.678
				c-1.283,0-2.275,0.39-2.975,1.169c-0.7,0.778-1.051,1.807-1.051,3.084c0,1.324,0.379,2.376,1.139,3.155
				c0.758,0.778,1.743,1.167,2.957,1.167c1.26,0,2.252-0.418,2.975-1.254c0.723-0.837,1.085-1.895,1.085-3.173
				c0-1.324-0.374-2.347-1.12-3.067C929.03,129.039,928.026,128.678,926.767,128.678z"/>
		</g>
		<g>
			<path class="st20" d="M516.716,135.259c0.521-1.236,1.355-2.037,2.775-2.166c0.244-0.023,0.565-0.457,0.653-0.758
				c1.425-4.893,2.814-9.793,4.218-14.691c0.496-1.73,1.45-2.576,2.775-2.484c1.381,0.096,2.168,0.807,2.439,2.416
				c0.557,3.307,1.053,6.621,1.563,9.936c0.458,2.967,0.9,5.938,1.356,8.903c0.024,0.161,0.109,0.314,0.363,0.486
				c0.393-1.671,0.789-3.339,1.178-5.011c1.122-4.826,2.229-9.658,3.37-14.48c0.37-1.559,1.229-2.254,2.596-2.244
				c1.276,0.01,2.126,0.787,2.601,2.436c0.889,3.086,1.754,6.178,2.635,9.264c0.525,1.846,1.033,3.699,1.625,5.523
				c0.102,0.311,0.58,0.693,0.898,0.705c1.71,0.07,3.426,0.076,5.135,0.002c0.4-0.018,0.876-0.35,1.162-0.674
				c1.475-1.668,3.689-2.293,5.697-1.537c2.092,0.787,3.348,2.609,3.336,4.838c-0.012,2.205-1.315,4.029-3.418,4.781
				c-1.979,0.707-4.201,0.11-5.575-1.58c-0.419-0.517-0.841-0.719-1.499-0.708c-2.236,0.037-4.473,0.017-6.71,0.014
				c-2.068-0.002-2.866-0.606-3.451-2.624c-0.611-2.111-1.214-4.227-1.823-6.338c-0.093-0.322-0.205-0.639-0.516-0.953
				c-0.447,1.906-0.902,3.811-1.343,5.719c-1.342,5.813-2.676,11.627-4.019,17.439c-0.27,1.162-1.261,2.1-2.27,2.186
				c-1.208,0.104-2.323-0.553-2.646-1.906c-0.458-1.928-0.697-3.91-1.004-5.873c-0.8-5.103-1.584-10.207-2.377-15.314
				c-0.025-0.166-0.068-0.328-0.29-0.523c-0.446,1.564-0.936,3.117-1.331,4.693c-0.885,3.53-1.844,3.653-5.638,3.442
				c-1.303-0.072-1.991-0.974-2.468-2.078C516.716,135.817,516.716,135.538,516.716,135.259z"/>
			<path class="st20" d="M583.827,135.591c-0.419,9.674-4.518,17.096-12.662,22.211c-2.148,1.35-3.961,0.012-4.176-1.493
				c-0.198-1.377,0.525-2.243,1.595-2.905c2.746-1.695,4.993-3.887,6.794-6.569c4.321-6.444,4.328-15.823,0.02-22.286
				c-1.793-2.689-4.038-4.881-6.779-6.586c-0.847-0.525-1.531-1.172-1.641-2.275c-0.17-1.695,1.518-3.178,3.107-2.576
				c2.501,0.947,4.472,2.701,6.311,4.568c3.863,3.924,6.187,8.654,7.066,14.082C583.673,133.065,583.718,134.398,583.827,135.591z"
				/>
			<path class="st20" d="M573.444,136.249c-0.169,5.104-2.6,9.525-7.409,12.598c-1.146,0.732-2.376,0.705-3.203,0
				c-0.937-0.801-1.313-1.856-0.739-2.879c0.388-0.689,1.067-1.277,1.735-1.738c3.963-2.736,5.577-7.863,3.804-12.324
				c-0.838-2.107-2.242-3.75-4.146-4.992c-1.391-0.904-1.856-1.957-1.498-3.115c0.465-1.496,1.862-2.313,3.264-1.617
				c1.289,0.643,2.53,1.508,3.562,2.512C571.878,127.679,573.397,131.382,573.444,136.249z"/>
		</g>
	</g>
	<g>
		<g>
			<path class="st12" d="M51.482,253.593v-73.146l-8.246,5.311v7.643l1.867-1.145v14.709c-0.629,0.346-1.248,0.684-1.867,1.02v6.342
				l1.867-0.945v14.687l-1.867,0.832v6.342c0.619-0.248,1.238-0.51,1.867-0.764v14.699l-1.867,0.629v27.256
				c0.619-0.137,1.238-0.262,1.867-0.398v14.699l-1.867,0.262v30.078h8.246v-9.516c-0.619,0.021-1.238,0.053-1.868,0.074v-15.014
				c0.63-0.072,1.249-0.137,1.868-0.209v-6.578l-1.868,0.262V275.71c0.63-0.125,1.249-0.264,1.868-0.389v-6.578
				c-0.619,0.146-1.238,0.293-1.868,0.451v-15.023C50.244,253.972,50.863,253.785,51.482,253.593z M59.739,183.375v-8.25
				l-8.257,5.322v73.146c0.63-0.189,1.249-0.389,1.878-0.588v15.275c-0.629,0.158-1.248,0.305-1.878,0.463v6.578
				c0.63-0.139,1.249-0.273,1.878-0.41v15.285l-1.878,0.264v6.578c0.63-0.074,1.249-0.137,1.878-0.209v15.273
				c-0.629,0.021-1.248,0.053-1.878,0.084v9.516h8.257V266.74c-0.619,0.146-1.237,0.305-1.868,0.451v-15.58l1.868-0.576v-6.852
				c-0.619,0.211-1.237,0.42-1.868,0.643v-15.57c0.631-0.262,1.249-0.514,1.868-0.768v-29.4l-1.868,1v-15.578
				C58.502,184.132,59.12,183.753,59.739,183.375z M67.996,201.722v-31.908l-8.257,5.311v8.25c0.629-0.375,1.249-0.756,1.878-1.135
				v15.861l-1.878,0.986v29.4c0.629-0.252,1.249-0.504,1.878-0.754v15.809c-0.629,0.213-1.249,0.42-1.878,0.641v6.852l1.878-0.588
				v15.852c-0.629,0.146-1.249,0.295-1.878,0.441v54.963h8.257v-10.24c-0.619,0.02-1.238,0.053-1.869,0.074v-16.158
				c0.631-0.063,1.25-0.125,1.869-0.197v-7.08l-1.869,0.262v-16.146l1.869-0.389v-7.08c-0.619,0.156-1.238,0.303-1.869,0.449
				v-16.156c0.631-0.189,1.25-0.387,1.869-0.578v-30.443c-0.619,0.271-1.238,0.533-1.869,0.807V202.66
				C66.758,202.355,67.377,202.041,67.996,201.722z M76.252,173.33v-8.826l-8.256,5.311v31.908c0.629-0.313,1.248-0.627,1.877-0.943
				v16.412c-0.629,0.271-1.248,0.553-1.877,0.828v30.443c0.629-0.186,1.248-0.379,1.877-0.566v16.398
				c-0.629,0.148-1.248,0.305-1.877,0.453v7.08l1.877-0.389v16.398l-1.877,0.264v7.08c0.629-0.064,1.248-0.137,1.877-0.197v16.395
				c-0.629,0.033-1.248,0.055-1.877,0.084v10.24h8.256v-10.596c-0.619,0.02-1.248,0.053-1.867,0.072v-16.713
				c0.619-0.072,1.248-0.146,1.867-0.221v-7.313l-1.867,0.273v-16.744l1.867-0.385v-7.324c-0.619,0.146-1.248,0.303-1.867,0.449
				v-16.711l1.867-0.59v-7.342c-0.619,0.221-1.248,0.43-1.867,0.639V222.5c0.619-0.264,1.248-0.516,1.867-0.777v-7.334
				c-0.619,0.273-1.248,0.547-1.867,0.83v-16.75l1.867-0.945v-7.326c-0.619,0.338-1.248,0.674-1.867,1.008v-16.73
				C75.004,174.095,75.633,173.71,76.252,173.33z M116.213,149.105V138.83l-9.432,6.066v26.607L83.27,159.99l-7.018,4.514v8.826
				c0.629-0.377,1.248-0.754,1.868-1.133v16.982c-0.62,0.346-1.239,0.684-1.868,1.018v7.326l1.868-0.945v16.993
				c-0.62,0.273-1.239,0.546-1.868,0.818v7.334c0.629-0.25,1.248-0.504,1.868-0.768v16.967c-0.62,0.219-1.239,0.43-1.868,0.639
				v7.342l1.868-0.574v16.975c-0.62,0.158-1.239,0.303-1.868,0.451v7.324l1.868-0.393v16.986l-1.868,0.262v7.313
				c0.629-0.061,1.248-0.135,1.868-0.209v16.986c-0.62,0.031-1.239,0.053-1.868,0.084v10.596h39.961v-12.328
				c-0.839,0.043-1.678,0.074-2.519,0.104V290.06c0.841-0.096,1.68-0.199,2.519-0.293v-8.52l-2.519,0.359v-19.422
				c0.841-0.178,1.68-0.355,2.519-0.533v-8.52c-0.839,0.197-1.678,0.41-2.519,0.609V234.3c0.841-0.264,1.68-0.514,2.519-0.775
				v-8.531l-2.519,0.842v-19.406c0.841-0.346,1.68-0.684,2.519-1.029v-8.547l-2.519,1.111v-19.449l2.519-1.281v-8.521
				c-0.839,0.451-1.678,0.902-2.519,1.352v-19.426L116.213,149.105z M127.313,200.843v-69.164l-11.1,7.15v10.275l2.507-1.531v19.773
				c-0.829,0.463-1.668,0.912-2.507,1.365v8.521l2.507-1.27v19.777l-2.507,1.111v8.547c0.839-0.346,1.678-0.693,2.507-1.039v19.783
				l-2.507,0.85v8.531c0.839-0.252,1.678-0.506,2.507-0.768v19.768c-0.829,0.209-1.668,0.408-2.507,0.607v8.52
				c0.839-0.168,1.678-0.346,2.507-0.535v19.764l-2.507,0.367v8.52c0.839-0.094,1.678-0.189,2.507-0.271v19.775
				c-0.829,0.029-1.668,0.063-2.507,0.104v12.328h11.1v-42.027l-2.519,0.367v-20.205c0.841-0.18,1.681-0.357,2.519-0.523V221.21
				c-0.838,0.281-1.678,0.574-2.519,0.867v-20.195C125.635,201.537,126.475,201.189,127.313,200.843z M138.422,135.617v-11.094
				l-11.109,7.156v69.164c0.84-0.336,1.679-0.684,2.519-1.029v20.545c-0.84,0.281-1.679,0.564-2.519,0.852v38.104
				c0.84-0.18,1.679-0.359,2.519-0.549v20.553l-2.519,0.357v42.027h11.109V308.41c-0.839,0.033-1.678,0.074-2.518,0.117v-20.963
				c0.84-0.105,1.679-0.188,2.518-0.285V187.091c-0.839,0.367-1.678,0.734-2.518,1.102v-20.971l2.518-1.283v-9.17l-2.518,1.332
				V137.15C136.744,136.634,137.583,136.123,138.422,135.617z M149.521,160.294v-42.92l-11.1,7.148v11.094
				c0.829-0.516,1.668-1.018,2.508-1.512v21.318l-2.508,1.346v9.17l2.508-1.268v21.326c-0.84,0.371-1.679,0.738-2.508,1.094v100.188
				c0.829-0.092,1.668-0.186,2.508-0.281v21.309c-0.84,0.041-1.679,0.072-2.508,0.104v13.293h11.1v-45.197l-2.518,0.357v-21.727
				l2.518-0.523v-9.518c-0.838,0.199-1.678,0.41-2.518,0.6v-21.729c0.84-0.262,1.68-0.523,2.518-0.777v-40.98
				c-0.838,0.369-1.678,0.727-2.518,1.094v-21.738C147.844,161.144,148.684,160.724,149.521,160.294z M160.621,187.207v-76.98
				l-11.1,7.148v42.92c0.84-0.42,1.679-0.85,2.52-1.262v22.064c-0.841,0.369-1.68,0.746-2.52,1.111v40.98
				c0.84-0.262,1.679-0.512,2.52-0.764v22.053c-0.841,0.207-1.68,0.408-2.52,0.617v9.518l2.52-0.525v22.053l-2.52,0.365v45.197h11.1
				v-14.26c-0.828,0.045-1.668,0.076-2.506,0.107v-22.494c0.838-0.096,1.678-0.189,2.506-0.281v-42.367
				c-0.828,0.203-1.668,0.402-2.506,0.611v-22.482l2.506-0.787v-9.877c-0.828,0.283-1.668,0.568-2.506,0.852v-22.488
				C158.953,187.888,159.793,187.542,160.621,187.207z M179.483,154.646v-44.42l-9.429-6.066l-9.433,6.066v76.98
				c0.84-0.348,1.68-0.693,2.52-1.041v22.836c-0.84,0.295-1.68,0.578-2.52,0.871v9.877l2.52-0.787v22.84
				c-0.84,0.211-1.68,0.408-2.52,0.605v42.367c0.84-0.096,1.68-0.18,2.52-0.273v22.828c-0.84,0.041-1.68,0.086-2.52,0.113v14.26
				h18.862v-14.26c-0.84-0.027-1.68-0.072-2.508-0.113v-22.828c0.828,0.094,1.668,0.178,2.508,0.273v-42.367
				c-0.84-0.197-1.68-0.395-2.508-0.605v-22.84l2.508,0.787v-42.422c-0.84-0.367-1.68-0.732-2.508-1.1v-22.852L179.483,154.646z
				 M190.59,128.867v-11.492l-11.107-7.148v44.42l2.518,1.281v22.514c-0.84-0.377-1.678-0.744-2.518-1.113v42.422l2.518,0.787
				v22.482c-0.84-0.209-1.678-0.408-2.518-0.611v42.367c0.84,0.092,1.678,0.186,2.518,0.281v22.494
				c-0.84-0.031-1.678-0.063-2.518-0.107v14.26h11.107v-76.607c-0.84-0.209-1.678-0.41-2.516-0.617v-22.053
				c0.838,0.252,1.676,0.502,2.516,0.764v-9.533c-0.84-0.295-1.678-0.578-2.516-0.864v-22.049c0.838,0.336,1.676,0.67,2.516,1.018
				v-40.996c-0.84-0.455-1.678-0.904-2.516-1.346v-22.061C188.913,127.861,189.75,128.363,190.59,128.867z M201.686,165.939v-41.416
				l-11.096-7.148v11.492l2.518,1.514v21.736c-0.84-0.449-1.68-0.902-2.518-1.352v40.996c0.838,0.346,1.678,0.682,2.518,1.018
				v21.725l-2.518-0.847v9.533c0.838,0.254,1.678,0.516,2.518,0.777v21.729c-0.84-0.189-1.68-0.4-2.518-0.6v76.607h11.096V308.41
				c-0.84-0.031-1.678-0.063-2.508-0.104v-21.309c0.83,0.096,1.668,0.189,2.508,0.281v-9.188l-2.508-0.359v-21.295l2.508,0.525
				v-9.189c-0.84-0.201-1.678-0.4-2.508-0.602v-21.316l2.508,0.785v-39.549c-0.84-0.355-1.678-0.723-2.508-1.094v-21.326
				L201.686,165.939z M212.795,171.599v-39.92l-11.109-7.156v41.416l2.518,1.283v20.971l-2.518-1.102v39.549l2.518,0.787v20.943
				l-2.518-0.598v9.189l2.518,0.523v20.963l-2.518-0.357v9.188c0.84,0.098,1.678,0.18,2.518,0.285v20.963
				c-0.84-0.043-1.678-0.084-2.518-0.117v13.293h11.109v-42.027l-2.52-0.357v-20.553c0.84,0.189,1.68,0.369,2.52,0.549v-67.33
				l-2.52-1.113v-20.543L212.795,171.599z M223.895,149.105V138.83l-11.1-7.15v39.92l2.506,1.279v20.203l-2.506-1.098v67.33
				c0.838,0.166,1.676,0.344,2.506,0.523v20.205l-2.506-0.367v42.027h11.1v-12.328c-0.84-0.041-1.68-0.074-2.52-0.104v-19.775
				c0.84,0.082,1.68,0.178,2.52,0.271v-8.52l-2.52-0.367v-19.764c0.84,0.189,1.68,0.367,2.52,0.535v-8.52
				c-0.84-0.199-1.68-0.398-2.52-0.607v-19.768c0.84,0.262,1.68,0.516,2.52,0.768v-8.531l-2.52-0.85v-19.783
				c0.84,0.346,1.68,0.693,2.52,1.039v-36.688c-0.84-0.453-1.68-0.902-2.52-1.365v-19.773L223.895,149.105z M263.862,197.523v-33.02
				l-7.021-4.514l-23.514,29.127v-44.221l-9.432-6.066v10.275l2.516,1.533v19.426c-0.838-0.449-1.676-0.9-2.516-1.352V205.4
				c0.84,0.346,1.678,0.684,2.516,1.029v19.406l-2.516-0.842v8.531c0.84,0.262,1.678,0.512,2.516,0.775v19.441
				c-0.838-0.199-1.676-0.412-2.516-0.609v8.52l2.516,0.533v19.422l-2.516-0.359v8.52c0.84,0.094,1.678,0.197,2.516,0.293v19.418
				c-0.838-0.029-1.676-0.061-2.516-0.104v12.328h39.967v-10.596c-0.629-0.031-1.248-0.053-1.869-0.084v-16.986
				c0.621,0.074,1.24,0.148,1.869,0.209v-7.313l-1.869-0.262v-16.986l1.869,0.393v-7.324c-0.629-0.148-1.248-0.293-1.869-0.451
				v-16.975l1.869,0.574v-31.514c-0.629-0.271-1.248-0.544-1.869-0.818v-16.993L263.862,197.523z M272.118,178.357v-8.543
				l-8.256-5.311v33.02l1.867,0.945v16.75c-0.619-0.283-1.248-0.557-1.867-0.83v31.514l1.867,0.59v16.711
				c-0.619-0.146-1.248-0.303-1.867-0.449v7.324l1.867,0.385v16.744l-1.867-0.273v7.313c0.619,0.074,1.248,0.148,1.867,0.221v16.713
				c-0.619-0.02-1.248-0.053-1.867-0.072v10.596h8.256v-33.602l-1.877-0.264v-16.398l1.877,0.389v-30.455
				c-0.629-0.211-1.248-0.432-1.877-0.641v-16.377c0.629,0.252,1.248,0.504,1.877,0.754v-7.09c-0.629-0.275-1.248-0.557-1.877-0.828
				v-16.412c0.629,0.316,1.248,0.631,1.877,0.943v-7.086c-0.629-0.334-1.248-0.67-1.877-1.006v-16.404
				C270.87,177.601,271.489,177.982,272.118,178.357z M280.364,205.925v-30.801l-8.246-5.311v8.543
				c0.621,0.369,1.238,0.746,1.867,1.127v16.15c-0.629-0.324-1.246-0.662-1.867-0.998v7.086c0.621,0.318,1.238,0.633,1.867,0.938
				v16.166c-0.629-0.273-1.246-0.535-1.867-0.807v7.09c0.621,0.262,1.238,0.516,1.867,0.768v16.137
				c-0.629-0.211-1.246-0.422-1.867-0.641v30.455l1.867,0.389v16.146l-1.867-0.262v33.602h8.246v-32.418l-1.867-0.273v-15.83
				l1.867,0.389v-29.387c-0.619-0.221-1.238-0.428-1.867-0.641v-15.809c0.629,0.25,1.248,0.502,1.867,0.754v-6.838
				c-0.619-0.273-1.238-0.549-1.867-0.82v-15.852L280.364,205.925z M288.622,210.125v-29.678l-8.258-5.322v30.801l1.879,0.943
				v15.598c-0.629-0.285-1.248-0.547-1.879-0.816v6.838c0.631,0.254,1.25,0.506,1.879,0.768v15.57
				c-0.629-0.223-1.248-0.432-1.879-0.643v29.387l1.879,0.389v15.588l-1.879-0.262v32.418h8.258v-9.516
				c-0.619-0.031-1.236-0.063-1.869-0.084V296.83c0.633,0.072,1.25,0.135,1.869,0.209v-28.295c-0.619-0.158-1.236-0.305-1.869-0.463
				v-15.275c0.633,0.199,1.25,0.398,1.869,0.588v-6.6c-0.619-0.209-1.236-0.43-1.869-0.629v-15.262
				c0.633,0.25,1.25,0.512,1.869,0.766v-6.59l-1.869-0.828v-15.271L288.622,210.125z M296.877,193.4v-7.643l-8.256-5.311v29.678
				l1.877,0.957v15.016l-1.877-0.818v6.59c0.631,0.25,1.248,0.502,1.877,0.764v15.002c-0.629-0.207-1.246-0.428-1.877-0.641v6.6
				c0.631,0.191,1.248,0.379,1.877,0.578v15.023c-0.629-0.158-1.246-0.305-1.877-0.451v28.295c0.631,0.072,1.248,0.137,1.877,0.209
				v15.014c-0.629-0.021-1.246-0.053-1.877-0.074v9.516h8.256v-9.158c-0.619-0.033-1.238-0.063-1.867-0.084v-14.701
				c0.629,0.064,1.248,0.137,1.867,0.201v-6.336l-1.867-0.262v-14.699c0.629,0.137,1.248,0.262,1.867,0.398v-6.338
				c-0.619-0.145-1.238-0.303-1.867-0.449v-14.697c0.629,0.188,1.248,0.387,1.867,0.576v-6.348l-1.867-0.629v-14.699
				c0.629,0.254,1.248,0.516,1.867,0.764v-27.268c-0.619-0.326-1.238-0.664-1.867-1.01v-14.709L296.877,193.4z"/>
			<path class="st15" d="M53.36,274.912v15.285l-1.878,0.264l-1.868,0.262V275.71c0.63-0.125,1.249-0.264,1.868-0.389
				C52.112,275.183,52.731,275.048,53.36,274.912z"/>
			<path class="st15" d="M53.36,296.83v15.273c-0.629,0.021-1.248,0.053-1.878,0.084c-0.619,0.021-1.238,0.053-1.868,0.074v-15.014
				c0.63-0.072,1.249-0.137,1.868-0.209C52.112,296.964,52.731,296.902,53.36,296.83z"/>
			<path class="st15" d="M78.12,294.037v16.986c-0.62,0.031-1.239,0.053-1.868,0.084c-0.619,0.02-1.248,0.053-1.867,0.072v-16.713
				c0.619-0.072,1.248-0.146,1.867-0.221C76.881,294.185,77.5,294.111,78.12,294.037z"/>
			<path class="st15" d="M69.873,294.984v16.395c-0.629,0.033-1.248,0.055-1.877,0.084c-0.619,0.02-1.238,0.053-1.869,0.074v-16.158
				c0.631-0.063,1.25-0.125,1.869-0.197C68.625,295.117,69.244,295.044,69.873,294.984z"/>
			<polygon class="st15" points="69.873,271.439 69.873,287.837 67.996,288.101 66.127,288.363 66.127,272.216 67.996,271.828 			
				"/>
			<polygon class="st15" points="78.12,269.685 78.12,286.671 76.252,286.933 74.385,287.207 74.385,270.462 			"/>
			<path class="st15" d="M78.12,245.328v16.975c-0.62,0.158-1.239,0.303-1.868,0.451c-0.619,0.146-1.248,0.303-1.867,0.449v-16.711
				l1.867-0.59L78.12,245.328z"/>
			<path class="st15" d="M69.873,247.896v16.398c-0.629,0.148-1.248,0.305-1.877,0.453c-0.619,0.156-1.238,0.303-1.869,0.449
				v-16.156c0.631-0.189,1.25-0.387,1.869-0.578C68.625,248.277,69.244,248.083,69.873,247.896z"/>
			<path class="st15" d="M53.36,253.005v15.275c-0.629,0.158-1.248,0.305-1.878,0.463c-0.619,0.146-1.238,0.293-1.868,0.451v-15.023
				c0.63-0.199,1.249-0.387,1.868-0.578C52.112,253.404,52.731,253.205,53.36,253.005z"/>
			<path class="st15" d="M61.617,250.447v15.852c-0.629,0.146-1.249,0.295-1.878,0.441c-0.619,0.146-1.237,0.305-1.868,0.451v-15.58
				l1.868-0.576L61.617,250.447z"/>
			<path class="st15" d="M61.617,227.734v15.809c-0.629,0.213-1.249,0.42-1.878,0.641c-0.619,0.211-1.237,0.42-1.868,0.643v-15.57
				c0.631-0.262,1.249-0.514,1.868-0.768C60.368,228.236,60.988,227.984,61.617,227.734z"/>
			<path class="st15" d="M78.12,220.955v16.967c-0.62,0.219-1.239,0.43-1.868,0.639c-0.619,0.221-1.248,0.43-1.867,0.639V222.5
				c0.619-0.264,1.248-0.516,1.867-0.777C76.881,221.472,77.5,221.218,78.12,220.955z"/>
			<path class="st15" d="M78.12,196.578v16.993c-0.62,0.273-1.239,0.546-1.868,0.818c-0.619,0.273-1.248,0.547-1.867,0.83v-16.75
				l1.867-0.945L78.12,196.578z"/>
			<path class="st15" d="M69.873,200.779v16.412c-0.629,0.271-1.248,0.553-1.877,0.828c-0.619,0.271-1.238,0.533-1.869,0.807V202.66
				c0.631-0.305,1.25-0.619,1.869-0.938C68.625,201.41,69.244,201.095,69.873,200.779z"/>
			<path class="st15" d="M61.617,182.24v15.861l-1.878,0.986l-1.868,1v-15.578c0.631-0.377,1.249-0.756,1.868-1.135
				C60.368,183,60.988,182.619,61.617,182.24z"/>
			<path class="st15" d="M78.12,172.197v16.982c-0.62,0.346-1.239,0.684-1.868,1.018c-0.619,0.338-1.248,0.674-1.867,1.008v-16.73
				c0.619-0.379,1.248-0.764,1.867-1.145C76.881,172.953,77.5,172.576,78.12,172.197z"/>
			<path class="st15" d="M129.831,199.814v20.545c-0.84,0.281-1.679,0.564-2.519,0.852c-0.838,0.281-1.678,0.574-2.519,0.867
				v-20.195c0.841-0.346,1.681-0.693,2.519-1.039C128.152,200.507,128.991,200.16,129.831,199.814z"/>
			<polygon class="st15" points="152.041,254.087 152.041,276.14 149.521,276.505 147.004,276.863 147.004,255.136 			"/>
			<path class="st15" d="M129.831,258.765v20.553l-2.519,0.357l-2.519,0.367v-20.205c0.841-0.18,1.681-0.357,2.519-0.523
				C128.152,259.134,128.991,258.955,129.831,258.765z"/>
			<path class="st15" d="M152.041,222.425v22.053c-0.841,0.207-1.68,0.408-2.52,0.617c-0.838,0.199-1.678,0.41-2.518,0.6v-21.729
				c0.84-0.262,1.68-0.523,2.518-0.777C150.361,222.927,151.2,222.677,152.041,222.425z"/>
			<path class="st15" d="M163.141,218.962v22.84c-0.84,0.211-1.68,0.408-2.52,0.605c-0.828,0.203-1.668,0.402-2.506,0.611v-22.482
				l2.506-0.787L163.141,218.962z"/>
			<path class="st15" d="M163.141,186.166v22.836c-0.84,0.295-1.68,0.578-2.52,0.871c-0.828,0.283-1.668,0.568-2.506,0.852v-22.488
				c0.838-0.348,1.678-0.693,2.506-1.029C161.461,186.859,162.301,186.513,163.141,186.166z"/>
			<path class="st15" d="M152.041,159.033v22.064c-0.841,0.369-1.68,0.746-2.52,1.111c-0.838,0.369-1.678,0.727-2.518,1.094v-21.738
				c0.84-0.42,1.68-0.84,2.518-1.27C150.361,159.875,151.2,159.445,152.041,159.033z"/>
			<path class="st15" d="M140.93,164.671v21.326c-0.84,0.371-1.679,0.738-2.508,1.094c-0.839,0.367-1.678,0.734-2.518,1.102v-20.971
				l2.518-1.283L140.93,164.671z"/>
			<path class="st15" d="M140.93,134.105v21.318l-2.508,1.346l-2.518,1.332V137.15c0.84-0.516,1.679-1.027,2.518-1.533
				C139.251,135.101,140.09,134.599,140.93,134.105z"/>
			<path class="st15" d="M118.72,147.574v19.773c-0.829,0.463-1.668,0.912-2.507,1.365c-0.839,0.451-1.678,0.902-2.519,1.352
				v-19.426l2.519-1.533L118.72,147.574z"/>
			<polygon class="st15" points="118.72,175.964 118.72,195.742 116.213,196.853 113.694,197.964 113.694,178.515 116.213,177.234 
							"/>
			<path class="st15" d="M118.72,204.361v19.783l-2.507,0.85l-2.519,0.842v-19.406c0.841-0.346,1.68-0.684,2.519-1.029
				S117.891,204.707,118.72,204.361z"/>
			<path class="st15" d="M118.72,232.757v19.768c-0.829,0.209-1.668,0.408-2.507,0.607c-0.839,0.197-1.678,0.41-2.519,0.609V234.3
				c0.841-0.264,1.68-0.514,2.519-0.775C117.052,233.273,117.891,233.019,118.72,232.757z"/>
			<path class="st15" d="M118.72,261.117v19.764l-2.507,0.367l-2.519,0.359v-19.422c0.841-0.178,1.68-0.355,2.519-0.533
				C117.052,261.484,117.891,261.306,118.72,261.117z"/>
			<path class="st15" d="M118.72,289.496v19.775c-0.829,0.029-1.668,0.063-2.507,0.104c-0.839,0.043-1.678,0.074-2.519,0.104V290.06
				c0.841-0.096,1.68-0.199,2.519-0.293S117.891,289.578,118.72,289.496z"/>
			<path class="st15" d="M140.93,286.998v21.309c-0.84,0.041-1.679,0.072-2.508,0.104c-0.839,0.033-1.678,0.074-2.518,0.117v-20.963
				c0.84-0.105,1.679-0.188,2.518-0.285C139.251,287.187,140.09,287.093,140.93,286.998z"/>
			<path class="st15" d="M163.141,284.501v22.828c-0.84,0.041-1.68,0.086-2.52,0.113c-0.828,0.045-1.668,0.076-2.506,0.107v-22.494
				c0.838-0.096,1.678-0.189,2.506-0.281C161.461,284.679,162.301,284.595,163.141,284.501z"/>
			<path class="st15" d="M182,285.056v22.494c-0.84-0.031-1.678-0.063-2.518-0.107c-0.84-0.027-1.68-0.072-2.508-0.113v-22.828
				c0.828,0.094,1.668,0.178,2.508,0.273C180.323,284.867,181.161,284.96,182,285.056z"/>
			<path class="st15" d="M193.108,192.779v21.725l-2.518-0.847c-0.84-0.295-1.678-0.578-2.516-0.864v-22.049
				c0.838,0.336,1.676,0.67,2.516,1.018C191.428,192.107,192.268,192.443,193.108,192.779z"/>
			<path class="st15" d="M182,220.537v22.482c-0.84-0.209-1.678-0.408-2.518-0.611c-0.84-0.197-1.68-0.395-2.508-0.605v-22.84
				l2.508,0.787L182,220.537z"/>
			<path class="st15" d="M193.108,223.966v21.729c-0.84-0.189-1.68-0.4-2.518-0.6c-0.84-0.209-1.678-0.41-2.516-0.617v-22.053
				c0.838,0.252,1.676,0.502,2.516,0.764C191.428,223.443,192.268,223.705,193.108,223.966z"/>
			<path class="st15" d="M204.204,227.427v20.943l-2.518-0.598c-0.84-0.201-1.678-0.4-2.508-0.602v-21.316l2.508,0.785
				L204.204,227.427z"/>
			<path class="st15" d="M215.301,259.837v20.205l-2.506-0.367l-2.52-0.357v-20.553c0.84,0.189,1.68,0.369,2.52,0.549
				C213.633,259.48,214.471,259.658,215.301,259.837z"/>
			<polygon class="st15" points="204.204,257.486 204.204,278.449 201.686,278.091 199.178,277.732 199.178,256.437 
				201.686,256.962 			"/>
			<path class="st15" d="M204.204,287.564v20.963c-0.84-0.043-1.678-0.084-2.518-0.117c-0.84-0.031-1.678-0.063-2.508-0.104v-21.309
				c0.83,0.096,1.668,0.189,2.508,0.281C202.526,287.376,203.364,287.458,204.204,287.564z"/>
			<path class="st15" d="M226.411,290.06v19.418c-0.838-0.029-1.676-0.061-2.516-0.104c-0.84-0.041-1.68-0.074-2.52-0.104v-19.775
				c0.84,0.082,1.68,0.178,2.52,0.271S225.573,289.964,226.411,290.06z"/>
			<path class="st15" d="M226.411,262.185v19.422l-2.516-0.359l-2.52-0.367v-19.764c0.84,0.189,1.68,0.367,2.52,0.535
				L226.411,262.185z"/>
			<path class="st15" d="M226.411,234.3v19.441c-0.838-0.199-1.676-0.412-2.516-0.609c-0.84-0.199-1.68-0.398-2.52-0.607v-19.768
				c0.84,0.262,1.68,0.516,2.52,0.768C224.735,233.787,225.573,234.037,226.411,234.3z"/>
			<path class="st15" d="M226.411,206.429v19.406l-2.516-0.842l-2.52-0.85v-19.783c0.84,0.346,1.68,0.693,2.52,1.039
				S225.573,206.083,226.411,206.429z"/>
			<polygon class="st15" points="215.301,172.878 215.301,193.082 212.795,191.984 210.276,190.871 210.276,170.328 
				212.795,171.599 			"/>
			<path class="st15" d="M204.204,167.222v20.971l-2.518-1.102c-0.84-0.355-1.678-0.723-2.508-1.094v-21.326l2.508,1.268
				L204.204,167.222z"/>
			<path class="st15" d="M182,155.927v22.514c-0.84-0.377-1.678-0.744-2.518-1.113c-0.84-0.367-1.68-0.732-2.508-1.1v-22.852
				l2.508,1.27L182,155.927z"/>
			<path class="st15" d="M193.108,130.38v21.736c-0.84-0.449-1.68-0.902-2.518-1.352c-0.84-0.455-1.678-0.904-2.516-1.346v-22.061
				c0.838,0.502,1.676,1.004,2.516,1.508L193.108,130.38z"/>
			<path class="st15" d="M226.411,150.638v19.426c-0.838-0.449-1.676-0.9-2.516-1.352c-0.84-0.453-1.68-0.902-2.52-1.365v-19.773
				l2.52,1.531L226.411,150.638z"/>
			<path class="st15" d="M265.729,294.466v16.713c-0.619-0.02-1.248-0.053-1.867-0.072c-0.629-0.031-1.248-0.053-1.869-0.084
				v-16.986c0.621,0.074,1.24,0.148,1.869,0.209C264.481,294.32,265.11,294.394,265.729,294.466z"/>
			<path class="st15" d="M290.499,297.248v15.014c-0.629-0.021-1.246-0.053-1.877-0.074c-0.619-0.031-1.236-0.063-1.869-0.084
				V296.83c0.633,0.072,1.25,0.135,1.869,0.209C289.252,297.111,289.87,297.175,290.499,297.248z"/>
			<path class="st15" d="M290.499,254.171v15.023c-0.629-0.158-1.246-0.305-1.877-0.451c-0.619-0.158-1.236-0.305-1.869-0.463
				v-15.275c0.633,0.199,1.25,0.398,1.869,0.588C289.252,253.785,289.87,253.972,290.499,254.171z"/>
			<polygon class="st15" points="273.985,272.216 273.985,288.363 272.118,288.101 270.241,287.837 270.241,271.439 
				272.118,271.828 			"/>
			<polygon class="st15" points="282.243,273.958 282.243,289.546 280.364,289.285 278.497,289.011 278.497,273.181 280.364,273.57 
							"/>
			<polygon class="st15" points="265.729,270.462 265.729,287.207 263.862,286.933 261.993,286.671 261.993,269.685 
				263.862,270.078 			"/>
			<path class="st15" d="M265.729,246.492v16.711c-0.619-0.146-1.248-0.303-1.867-0.449c-0.629-0.148-1.248-0.293-1.869-0.451
				v-16.975l1.869,0.574L265.729,246.492z"/>
			<path class="st15" d="M273.985,225.876v16.137c-0.629-0.211-1.246-0.422-1.867-0.641c-0.629-0.211-1.248-0.432-1.877-0.641
				v-16.377c0.629,0.252,1.248,0.504,1.877,0.754C272.739,225.371,273.356,225.625,273.985,225.876z"/>
			<path class="st15" d="M282.243,229.255v15.57c-0.629-0.223-1.248-0.432-1.879-0.643c-0.619-0.221-1.238-0.428-1.867-0.641
				v-15.809c0.629,0.25,1.248,0.502,1.867,0.754C280.995,228.742,281.614,228.994,282.243,229.255z"/>
			<path class="st15" d="M290.499,232.632v15.002c-0.629-0.207-1.246-0.428-1.877-0.641c-0.619-0.209-1.236-0.43-1.869-0.629
				v-15.262c0.633,0.25,1.25,0.512,1.869,0.766C289.252,232.119,289.87,232.371,290.499,232.632z"/>
			<polygon class="st15" points="290.499,211.082 290.499,226.097 288.622,225.279 286.752,224.451 286.752,209.179 
				288.622,210.125 			"/>
			<path class="st15" d="M282.243,206.869v15.598c-0.629-0.285-1.248-0.547-1.879-0.816c-0.619-0.273-1.238-0.549-1.867-0.82
				v-15.852l1.867,0.947L282.243,206.869z"/>
			<path class="st15" d="M273.985,202.66v16.166c-0.629-0.273-1.246-0.535-1.867-0.807c-0.629-0.275-1.248-0.557-1.877-0.828
				v-16.412c0.629,0.316,1.248,0.631,1.877,0.943C272.739,202.041,273.356,202.355,273.985,202.66z"/>
			<path class="st15" d="M265.729,198.468v16.75c-0.619-0.283-1.248-0.557-1.867-0.83c-0.629-0.271-1.248-0.544-1.869-0.818v-16.993
				l1.869,0.945L265.729,198.468z"/>
			<path class="st15" d="M273.985,179.484v16.15c-0.629-0.324-1.246-0.662-1.867-0.998c-0.629-0.334-1.248-0.67-1.877-1.006v-16.404
				c0.629,0.375,1.248,0.756,1.877,1.131C272.739,178.726,273.356,179.103,273.985,179.484z"/>
			<path d="M45.104,192.255v14.709c-0.629,0.346-1.248,0.684-1.867,1.02V193.4L45.104,192.255z"/>
			<polygon points="45.104,213.381 45.104,228.068 43.236,228.9 43.236,214.326 			"/>
			<line x1="43.236" y1="214.326" x2="43.236" y2="207.984"/>
			<path d="M45.104,234.478v14.699l-1.867,0.629v-14.564C43.855,234.994,44.475,234.732,45.104,234.478z"/>
			<path d="M45.104,276.664v14.699l-1.867,0.262v-14.563C43.855,276.925,44.475,276.8,45.104,276.664z"/>
			<line x1="43.236" y1="277.062" x2="43.236" y2="249.806"/>
			<line x1="43.236" y1="321.703" x2="43.236" y2="291.625"/>
			<line x1="43.236" y1="235.242" x2="43.236" y2="228.9"/>
			<line x1="43.236" y1="193.4" x2="43.236" y2="185.757"/>
			<path d="M296.877,193.4v14.574c-0.619-0.326-1.238-0.664-1.867-1.01v-14.709L296.877,193.4z"/>
			<path d="M296.877,235.242v14.564l-1.867-0.629v-14.699C295.639,234.732,296.258,234.994,296.877,235.242z"/>
			<line x1="296.877" y1="235.242" x2="296.877" y2="207.974"/>
			<path d="M296.877,256.154v14.57c-0.619-0.145-1.238-0.303-1.867-0.449v-14.697C295.639,255.765,296.258,255.964,296.877,256.154z
				"/>
			<path d="M296.877,297.96v14.584c-0.619-0.033-1.238-0.063-1.867-0.084v-14.701C295.639,297.824,296.258,297.896,296.877,297.96z"
				/>
			<path d="M296.877,277.062v14.563l-1.867-0.262v-14.699C295.639,276.8,296.258,276.925,296.877,277.062z"/>
			<line x1="296.877" y1="297.96" x2="296.877" y2="291.625"/>
			<line x1="296.877" y1="277.062" x2="296.877" y2="270.724"/>
			<line x1="296.877" y1="321.703" x2="296.877" y2="312.544"/>
			<line x1="296.877" y1="256.154" x2="296.877" y2="249.806"/>
			<line x1="296.877" y1="193.4" x2="296.877" y2="185.757"/>
		</g>
		<g>
			<polygon class="st13" points="1233.053,182.208 1233.053,183.993 1231.359,183.993 			"/>
			<path class="st13" d="M1233.077,182.187l-0.024,0.021l-1.693,1.785h-0.008v0.008c-0.008-0.008-0.016-0.008-0.032-0.016
				c-0.022-0.184,0.151-0.369,0.24-0.521c0.111-0.207,0.28-0.381,0.464-0.527c0.327-0.248,0.662-0.52,1.029-0.736
				C1233.063,182.192,1233.07,182.192,1233.077,182.187z"/>
			<g>
				<rect x="1422.301" y="208.093" class="st13" width="3.061" height="2.822"/>
				<rect x="1410.061" y="208.093" class="st13" width="3.061" height="2.822"/>
				<rect x="1350.391" y="208.093" class="st13" width="4.594" height="2.822"/>
				<rect x="1354.984" y="208.093" class="st11" width="55.076" height="2.822"/>
				<rect x="1413.121" y="208.093" class="st11" width="9.18" height="2.822"/>
				<rect x="1425.361" y="208.093" class="st11" width="124.318" height="2.822"/>
				<g>
					<rect x="1518.195" y="164.11" class="st5" width="31.482" height="33.615"/>
					<rect x="1530.787" y="174.614" class="st18" width="18.891" height="2.102"/>
					<rect x="1530.787" y="178.817" class="st18" width="18.891" height="2.1"/>
					<rect x="1530.787" y="183.019" class="st18" width="18.891" height="2.104"/>
					<path class="st11" d="M1460.273,198.712l30.053-64.16c1.676-3.576,0.137-7.836-3.436-9.51c-3.572-1.678-7.822-0.137-9.5,3.439
						l-30.053,64.162c-1.676,3.574-0.139,7.832,3.436,9.508C1454.342,203.831,1458.598,202.29,1460.273,198.712L1460.273,198.712z"
						/>
					<path class="st11" d="M1475.551,135.505l27.477,65.809c1.521,3.645,5.705,5.363,9.346,3.84s5.355-5.711,3.836-9.354
						l-27.479-65.809c-1.521-3.641-5.703-5.363-9.344-3.838C1475.744,127.675,1474.027,131.86,1475.551,135.505L1475.551,135.505z"
						/>
					<path class="st11" d="M1428.951,144.812l107.744-21.01c4.836-0.941,7.992-5.631,7.053-10.475
						c-0.943-4.844-5.629-8.006-10.467-7.059l-107.744,21.008c-4.838,0.945-7.992,5.633-7.053,10.473
						C1419.428,142.595,1424.113,145.755,1428.951,144.812L1428.951,144.812z"/>
					<path class="st11" d="M1435.99,141.997c0,0-3.148,13.656-11.543,11.205c-8.396-2.451-1.4,0-1.4,0s-0.348,3.502,4.898,5.602
						c0,0-14.691,5.256-18.191-13.652c0,0-5.598-19.963,13.293-21.715c0,0,6.295-2.451,7.697,4.203L1435.99,141.997z"/>
					<rect x="1419.547" y="158.103" class="st11" width="2.104" height="27.154"/>
					<rect x="1419.547" y="204.257" class="st11" width="2.104" height="1.873"/>
					<circle class="st13" cx="1481.927" cy="140.325" r="5.796"/>
					<path class="st13" d="M1539.184,115.562c0,2.611-2.111,4.727-4.721,4.727c-2.611,0-4.723-2.115-4.723-4.727
						s2.111-4.729,4.723-4.729C1537.072,110.833,1539.184,112.95,1539.184,115.562z"/>
					<path class="st13" d="M1425.848,136.569c0,2.609-2.113,4.727-4.725,4.727c-2.609,0-4.721-2.117-4.721-4.727
						s2.111-4.729,4.721-4.729C1423.734,131.841,1425.848,133.96,1425.848,136.569z"/>
					<rect x="1440.535" y="194.251" class="st11" width="109.143" height="11.879"/>
				</g>
				<g>
					<path class="st17" d="M1326.026,105.288c-2.234-12.852-13.405-22.631-26.882-22.631s-24.647,9.779-26.883,22.631H1326.026z"/>
					<path class="st15" d="M1272.262,112.833c2.235,12.848,13.406,22.627,26.883,22.627s24.647-9.779,26.882-22.627H1272.262z"/>
					<rect x="1265.234" y="107.173" class="st11" width="67.82" height="1.887"/>
					<rect x="1269.003" y="109.06" class="st11" width="1.883" height="35.83"/>
					<rect x="1327.404" y="109.06" class="st11" width="1.883" height="37.715"/>
					<rect x="1261.467" y="144.89" class="st11" width="73.471" height="1.885"/>
					<polygon class="st11" points="1269.003,146.774 1269.003,210.892 1280.306,210.915 1280.306,146.796 					"/>
					<rect x="1316.1" y="146.796" class="st11" width="11.305" height="64.119"/>
					<rect x="1163.292" y="201.483" class="st11" width="99.017" height="9.432"/>
					<rect x="1215.721" y="124.146" class="st11" width="18.84" height="73.545"/>
					<path class="st11" d="M1260.365,197.712V105.31c0-5.205-4.217-9.428-9.42-9.428s-9.42,4.223-9.42,9.428v92.402H1260.365z"/>
					<polygon class="st11" points="1178.749,162.685 1163.311,172.448 1163.324,164.95 1178.76,152.339 					"/>
					<polygon class="st5" points="1196.996,151.147 1181.556,160.911 1181.566,150.044 1197,137.433 					"/>
					<polygon class="st11" points="1213.836,140.493 1198.397,150.259 1198.403,136.288 1213.836,123.675 					"/>
					<polygon class="st5" points="1178.736,174.511 1163.292,181.022 1163.309,173.519 1178.748,164.163 					"/>
					<polygon class="st11" points="1196.988,166.817 1181.544,173.325 1181.553,162.462 1196.996,153.106 					"/>
					<polygon class="st11" points="1213.836,159.716 1198.392,166.226 1198.397,152.255 1213.836,142.896 					"/>
					<polygon class="st11" points="1178.724,186.339 1163.272,189.589 1163.29,182.093 1178.734,175.987 					"/>
					<polygon class="st11" points="1196.983,182.489 1181.531,185.745 1181.541,174.878 1196.988,168.776 					"/>
					<polygon class="st11" points="1213.836,178.942 1198.388,182.192 1198.392,168.222 1213.836,162.122 					"/>
					<polygon class="st11" points="1178.711,198.163 1163.254,198.163 1163.27,190.663 1178.721,187.813 					"/>
					<polygon class="st11" points="1196.977,198.163 1181.52,198.163 1181.531,187.296 1196.983,184.452 					"/>
					<polygon class="st5" points="1213.836,198.163 1198.381,198.163 1198.387,184.19 1213.836,181.343 					"/>
					<polygon class="st11" points="1283.898,198.563 1289.551,198.563 1289.551,207.993 1291.434,207.993 1291.434,196.679 
						1283.898,196.679 					"/>
				</g>
				<g>
					<g>
						<rect x="1306.021" y="159.024" width="44.37" height="79.609"/>
						<rect x="1354.984" y="165.149" width="18.354" height="58.183"/>
						<rect x="1298.372" y="241.696" width="148.407" height="13.77"/>
						<rect x="1298.372" y="256.997" width="4.591" height="7.648"/>
						<rect x="1307.551" y="256.997" width="4.592" height="7.648"/>
						<rect x="1365.691" y="256.997" width="4.59" height="7.648"/>
						<rect x="1374.871" y="256.997" width="4.59" height="7.648"/>
						<rect x="1433.01" y="256.997" width="4.59" height="7.648"/>
						<rect x="1442.188" y="256.997" width="4.592" height="7.648"/>
						<path d="M1434.543,171.274v56.654c0,2.531-2.063,4.584-4.594,4.584c-2.533,0-4.588-2.053-4.588-4.584v-47.462h-45.902
							c-2.533,0-4.586-2.057-4.586-4.594c0-2.541,2.053-4.598,4.586-4.598H1434.543z"/>
						<path class="st5" d="M1422.301,185.058v42.871c0,2.531-2.061,4.584-4.594,4.584s-4.586-2.053-4.586-4.584v-33.681h-33.662
							c-2.533,0-4.586-2.055-4.586-4.592c0-2.533,2.053-4.598,4.586-4.598H1422.301z"/>
						<path d="M1410.061,197.308v30.621c0,2.531-2.055,4.584-4.594,4.584c-2.533,0-4.586-2.053-4.586-4.584v-21.427h-21.422
							c-2.533,0-4.586-2.059-4.586-4.594c0-2.541,2.053-4.6,4.586-4.6H1410.061z"/>
						<path d="M1405.471,164.577h-2.168c-0.004,1.02-0.83,1.846-1.85,1.85c-1.018-0.004-1.846-0.83-1.848-1.85
							c0.002-1.021,0.83-1.85,1.848-1.85c1.02,0,1.846,0.828,1.85,1.85H1405.471h2.166c-0.002-3.42-2.768-6.189-6.184-6.191
							c-3.414,0.002-6.182,2.771-6.184,6.191c0.002,3.422,2.77,6.188,6.184,6.191c3.416-0.004,6.182-2.77,6.184-6.191H1405.471z"/>
						<rect x="1403.939" y="162.089" width="15.301" height="4.594"/>
						<rect x="1382.52" y="162.089" width="15.301" height="4.594"/>
						<ellipse class="st13" cx="1329.928" cy="195.589" rx="17.021" ry="17.039"/>
						<path d="M1322.086,230.032c0,2.428-1.968,4.398-4.398,4.398c-2.428,0-4.397-1.971-4.397-4.398c0-2.434,1.97-4.398,4.397-4.398
							C1320.118,225.633,1322.086,227.598,1322.086,230.032z"/>
						<path class="st13" d="M1322.086,230.032h-0.765c-0.003,2.006-1.627,3.629-3.634,3.633c-2.006-0.004-3.63-1.627-3.633-3.633
							c0.003-2.008,1.627-3.633,3.633-3.637c2.007,0.004,3.631,1.629,3.634,3.637H1322.086h0.766c0-2.854-2.312-5.164-5.164-5.164
							c-2.852,0-5.162,2.311-5.162,5.164c0,2.85,2.311,5.16,5.162,5.16c2.853,0,5.164-2.311,5.164-5.16H1322.086z"/>
						<path d="M1337.386,230.032c0,2.428-1.968,4.398-4.398,4.398c-2.429,0-4.398-1.971-4.398-4.398c0-2.434,1.97-4.398,4.398-4.398
							C1335.418,225.633,1337.386,227.598,1337.386,230.032z"/>
						<path class="st13" d="M1337.386,230.032h-0.765c-0.002,2.006-1.627,3.629-3.634,3.633c-2.006-0.004-3.63-1.627-3.634-3.633
							c0.004-2.008,1.628-3.633,3.634-3.637c2.007,0.004,3.632,1.629,3.634,3.637H1337.386h0.765c0-2.854-2.311-5.164-5.163-5.164
							c-2.852,0-5.163,2.311-5.163,5.164c0,2.85,2.312,5.16,5.163,5.16c2.853,0,5.163-2.311,5.163-5.16H1337.386z"/>
						<circle cx="1317.859" cy="198.923" r="1.905"/>
						<path d="M1322.051,191.292c0,1.055-0.854,1.91-1.906,1.91s-1.906-0.855-1.906-1.91c0-1.051,0.854-1.904,1.906-1.904
							S1322.051,190.241,1322.051,191.292z"/>
						<path d="M1326.625,186.714c0,1.053-0.854,1.908-1.906,1.908c-1.052,0-1.906-0.855-1.906-1.908
							c0-1.051,0.854-1.906,1.906-1.906C1325.771,184.808,1326.625,185.663,1326.625,186.714z"/>
						<path d="M1331.96,184.429c0,1.051-0.853,1.906-1.905,1.906s-1.906-0.855-1.906-1.906c0-1.057,0.854-1.91,1.906-1.91
							S1331.96,183.372,1331.96,184.429z"/>
						<path d="M1341.869,191.292c0,1.055-0.854,1.91-1.905,1.91c-1.054,0-1.907-0.855-1.907-1.91c0-1.051,0.854-1.904,1.907-1.904
							C1341.016,189.388,1341.869,190.241,1341.869,191.292z"/>
						<circle cx="1342.25" cy="197.397" r="1.906"/>
						<path d="M1332.149,198.351c0,0.738-0.597,1.336-1.332,1.336c-0.739,0-1.335-0.598-1.335-1.336s0.596-1.334,1.335-1.334
							C1331.553,197.017,1332.149,197.612,1332.149,198.351z"/>
						<path class="st5" d="M1337.295,184.712l-9.338,10.396c0,0-3.631,4.195-0.095,6.484c3.24,2.1,5.145-0.477,6.194-2.576
							L1337.295,184.712z"/>
					</g>
					<g>
						<g>
							<g>
								<path class="st12" d="M1276.992,238.829c-0.007,0.26-0.284,0.525-0.433,0.793c-0.153-0.268-0.427-0.523-0.431-0.789
									c-0.044-1.527-0.02-3.055-0.02-4.584c0-1.527-0.024-3.051,0.02-4.58c0.004-0.27,0.277-0.533,0.424-0.801
									c0.155,0.268,0.433,0.531,0.439,0.795C1277.021,232.715,1277.021,235.77,1276.992,238.829z"/>
								<rect x="1239.24" y="193.757" class="st12" width="25.347" height="17.156"/>
								<path class="st12" d="M1266.252,182.187h-28.398c2.299-3.139,5.154-5.207,8.785-5.682c4.094-0.531,8.257-0.844,12.328,0.408
									C1261.929,177.819,1264.34,179.462,1266.252,182.187z"/>
								<path class="st12" d="M1268.533,185.534c-0.131,1.697-0.083,3.41-0.013,5.111c0.047,1.049-0.372,1.395-1.351,1.387
									c-5.023-0.01-10.039-0.006-15.059-0.006v-0.039c-4.976,0-9.951,0-14.927-0.008c-1.624,0-1.724-0.107-1.729-1.678
									c-0.006-1.621,0.076-3.238-0.029-4.85c-0.084-1.264,0.479-1.602,1.598-1.598c3.579,0.023,7.156,0.008,10.735,0.008
									c6.372,0,12.747,0.035,19.122-0.025C1268.184,183.827,1268.64,184.188,1268.533,185.534z"/>
								<path class="st12" d="M1263.717,213.884c-7.849-0.018-15.703-0.018-23.553,0.006c-0.912,0-1.184-0.322-0.871-1.229h25.277
									C1264.818,213.558,1264.576,213.89,1263.717,213.884z"/>
								<rect x="1241.225" y="215.553" class="st12" width="21.627" height="2.166"/>
								<path class="st12" d="M1268.699,219.641c0,0.467-0.386,0.852-0.854,0.852h-31.999c-0.47,0-0.854-0.385-0.854-0.852
									c0-0.23,0.101-0.451,0.248-0.605c0.154-0.152,0.368-0.246,0.605-0.246h31.999
									C1268.313,218.79,1268.699,219.17,1268.699,219.641z"/>
								<rect x="1267.752" y="230.213" class="st12" width="6.74" height="8.293"/>
								<path class="st12" d="M1266.021,222.68c-0.041,9.832-0.023,19.668-0.029,29.5c0,0.215-0.036,0.434-0.072,0.771h-27.71
									v-31.328c0.415-0.016,0.835-0.059,1.255-0.059c8.388-0.006,16.783,0,25.176-0.01
									C1265.459,221.547,1266.027,221.542,1266.021,222.68z"/>
								<path class="st12" d="M1265.92,259.961c-0.539,0.113-1.085,0.324-1.623,0.324c-6.593,0.025-13.185,0.02-19.785,0.02
									c-1.699,0-3.406,0.018-5.105-0.02c-0.45-0.004-0.895-0.189-1.34-0.297c0.03-0.15,0.061-0.307,0.09-0.461h27.676
									C1265.861,259.67,1265.891,259.819,1265.92,259.961z"/>
								<path class="st12" d="M1275.084,256.477c0.043,1.506-0.875,1.381-1.895,1.381c-13.316,0.02-26.633,0.053-39.949,0.082
									h-3.793c-0.225-0.355-0.26-0.391-0.266-0.432c-0.332-2.938-0.332-2.938,2.624-2.938h41.531
									C1275.061,254.571,1275.025,254.61,1275.084,256.477z"/>
								<path class="st12" d="M1259.783,261.454v6.73c-1.285,1.783-3.322,2.689-6.031,2.66c-3.41-0.041-5.852-2.221-6.426-5.725
									c-0.119-0.723,0.207-1.834-0.883-1.906c-1.196-0.076-0.982,1.127-1.125,1.861c-0.196,0.988-0.527,1.871-0.99,2.623v-6.244
									H1259.783z"/>
								<path class="st12" d="M1259.783,270.442v3.223h-15.455v-3.531c0.657-0.592,1.309-1.291,1.955-2.086
									C1250.295,273.428,1255.4,274.241,1259.783,270.442z"/>
								<path class="st12" d="M1264.34,276.846c0.022,0.852-0.131,1.404-1.21,1.387c-3.708-0.053-7.421-0.018-11.13-0.018
									c-3.625,0-7.251-0.035-10.875,0.018c-1.057,0.018-1.382-0.371-1.346-1.359c0.035-0.91,0.088-1.568,1.326-1.561
									c7.334,0.045,14.674,0.035,22.008,0C1264.314,275.305,1264.314,276.022,1264.34,276.846z"/>
								<rect x="1244.352" y="279.821" class="st12" width="15.461" height="21.873"/>
								<path class="st12" d="M1264.362,304.948c0,2.838,0.054,2.838-2.837,2.838c-6.683,0-13.364-0.037-20.041,0.031
									c-1.35,0.01-1.734-0.469-1.711-1.744c0.036-2.721-0.018-2.732,2.684-2.738c3.188-0.012,6.373,0,9.566,0v0.031
									c3.537,0,7.072,0.041,10.609-0.025C1263.848,303.319,1264.356,303.663,1264.362,304.948z"/>
								<path class="st12" d="M1264.362,322.51c-0.124,1.512-0.022,3.045-0.022,4.65c-0.729,0.041-1.363,0.084-1.861,0.113
									c-0.344,1.809-0.733,3.525-0.978,5.26c-0.054,0.408,0.374,0.914,0.64,1.332c0.297,0.471,0.664,0.896,1.126,1.5h-22.303
									c0.147-0.279,0.237-0.557,0.415-0.766c0.871-1.029,1.451-1.947,0.752-3.5c-0.469-1.047-0.088-2.477-0.088-3.842h-2.246
									v-2.805c0-0.17,0.07-0.35,0.053-0.516c-0.669-5.953,0.504-5.277,3.697-9.496c0.58-0.762,0.794-1.301,0.171-2.131
									c-0.621-0.828-1.077-1.787-1.687-2.824h20.016c-0.516,0.852-0.912,1.621-1.411,2.32c-0.728,1.025-0.604,1.932,0.166,2.85
									c0.534,0.635,0.954,1.379,1.547,1.943C1264.072,318.233,1264.547,320.219,1264.362,322.51z"/>
								<path class="st12" d="M1264.416,337.202c-0.124,1.689-0.207,3.289-0.361,4.883c-0.107,1.064-0.936,1.105-1.759,1.105
									h-15.722c-1.617,0-3.235-0.029-4.852,0.014c-1.197,0.029-1.813-0.516-1.83-1.695c-0.025-1.393-0.008-2.783-0.008-4.307
									H1264.416z"/>
							</g>
							<g>
								<path class="st15" d="M1285.054,270.836c-3.087-0.156-5.153-1.852-5.954-4.863c-0.135-0.514-0.094-1.094-0.301-1.568
									c-0.197-0.463-0.611-0.836-0.924-1.246c-0.309,0.387-0.723,0.725-0.89,1.164c-0.302,0.803-0.36,1.697-0.687,2.492
									c-1.132,2.809-3.654,4.195-7.139,4.029c-2.826-0.135-4.922-1.801-5.769-4.633c-0.208-0.711-0.208-1.486-0.444-2.182
									c-0.119-0.348-0.529-0.744-0.871-0.811c-0.112-0.023-0.262,0.09-0.415,0.244c-0.147,0.154-0.29,0.35-0.397,0.502
									c-0.123,0.178-0.047,0.486-0.095,0.729c-0.253,1.393-0.716,2.563-1.386,3.49c-1.285,1.783-3.322,2.689-6.031,2.66
									c-3.41-0.041-5.852-2.221-6.426-5.725c-0.119-0.723,0.207-1.834-0.883-1.906c-1.196-0.076-0.982,1.127-1.125,1.861
									c-0.196,0.988-0.527,1.871-0.99,2.623c-0.461,0.771-1.054,1.406-1.765,1.902c-1.274,0.9-2.926,1.34-4.858,1.244
									c-3.388-0.172-5.704-2.611-6.119-6.352c-0.053-0.469-0.533-0.887-0.816-1.334c-0.332,0.398-0.705,0.771-0.978,1.203
									c-0.142,0.227-0.106,0.563-0.165,0.85c-0.623,3.039-2.627,5.035-5.605,5.555c-0.408,0.07-0.871-0.045-1.227,0.115
									c-0.391,0.178-0.682,0.566-1.013,0.869c0.339,0.277,0.64,0.725,1.019,0.807c0.547,0.111,1.156,0.012,1.725-0.082
									c2.755-0.463,4.716-2.033,6.007-4.51c3.833,4.869,8.003,6.033,12.031,3.514c0.592-0.369,1.179-0.818,1.765-1.346
									c0.657-0.592,1.309-1.291,1.955-2.086c4.012,5.381,9.117,6.193,13.5,2.395c0.646-0.557,1.274-1.209,1.878-1.959
									c0.149-0.188,0.296-0.383,0.444-0.578c1.575,3.271,4.206,4.713,7.771,4.713c3.578-0.008,6.208-1.525,7.921-4.717
									c2.173,3.406,4.181,4.686,7.215,4.699c0.628,0,1.374,0.086,1.427-0.779C1286.498,270.903,1285.758,270.874,1285.054,270.836
									z"/>
							</g>
						</g>
						<rect x="1278.686" y="229.895" class="st12" width="9.945" height="8.611"/>
					</g>
					<rect x="1277.891" y="229.899" class="st12" width="25.072" height="8.605"/>
				</g>
				<rect x="1280.306" y="208.087" class="st11" width="25.233" height="2.826"/>
			</g>
			<rect x="1237.854" y="182.187" class="st13" width="28.398" height="1.658"/>
			<rect x="1239.17" y="192.032" class="st13" width="25.991" height="1.725"/>
		</g>
		<g>
			<path class="st9" d="M250.922,386.903c0,6.627-3.293,12-7.352,12H96.584c-4.061,0-7.352-5.373-7.352-12v-21.631
				c0-6.63,3.291-12.006,7.352-12.006h146.986c4.059,0,7.352,5.376,7.352,12.006V386.903z"/>
			<g>
				<path class="st13" d="M151.535,384.855c-2.24,2.31-5.134,3.465-8.68,3.465c-1.773,0-3.401-0.304-4.882-0.91
					c-1.482-0.606-2.753-1.464-3.815-2.572c-1.062-1.108-1.89-2.444-2.485-4.008c-0.595-1.563-0.892-3.313-0.892-5.25
					c0-1.937,0.303-3.687,0.91-5.25c0.606-1.563,1.44-2.899,2.502-4.008c1.062-1.107,2.333-1.965,3.815-2.572
					c1.482-0.606,3.098-0.91,4.848-0.91s3.366,0.304,4.848,0.91c1.481,0.607,2.759,1.47,3.833,2.59
					c1.073,1.12,1.907,2.462,2.502,4.025c0.595,1.563,0.893,3.302,0.893,5.215C154.93,379.43,153.798,382.522,151.535,384.855z
					 M149.085,368.58c-1.447-1.82-3.523-2.73-6.23-2.73c-1.354,0-2.555,0.245-3.605,0.735s-1.931,1.167-2.643,2.03
					c-0.712,0.863-1.254,1.89-1.627,3.08c-0.374,1.189-0.56,2.484-0.56,3.885s0.187,2.695,0.56,3.885
					c0.373,1.19,0.916,2.217,1.627,3.08c0.711,0.863,1.593,1.54,2.643,2.03s2.251,0.735,3.605,0.735
					c1.353,0,2.555-0.245,3.605-0.735c1.05-0.49,1.937-1.173,2.66-2.048c0.723-0.875,1.266-1.901,1.627-3.08
					c0.361-1.178,0.542-2.467,0.542-3.867C151.29,372.733,150.555,370.4,149.085,368.58z"/>
				<path class="st13" d="M174.355,387.83h-15.26v-24.5h14.945v3.01h-11.585v7.175h9.205v3.011h-9.205v8.295h11.9V387.83z"/>
				<path class="st13" d="M202.425,387.83h-3.5l-2.31-18.515l-6.65,12.705l-6.79-12.705l-2.31,18.515h-3.5l3.29-24.5h2.835
					l6.44,12.145l6.37-12.145h2.87L202.425,387.83z"/>
			</g>
		</g>
		<g>
			<path class="st14" d="M1450.082,386.903c0,6.627-3.813,12-8.512,12h-170.175c-4.701,0-8.512-5.373-8.512-12v-21.63
				c0-6.631,3.811-12.006,8.512-12.006h170.175c4.699,0,8.512,5.375,8.512,12.006V386.903z"/>
			<g>
				<path class="st13" d="M1322.289,388.369c-1.797,0-3.447-0.304-4.952-0.91c-1.506-0.606-2.801-1.47-3.885-2.59
					c-1.086-1.12-1.932-2.462-2.538-4.025c-0.606-1.563-0.909-3.302-0.909-5.215c0-1.89,0.303-3.616,0.909-5.18
					s1.452-2.905,2.538-4.025c1.084-1.12,2.373-1.989,3.867-2.607c1.492-0.618,3.138-0.928,4.936-0.928
					c2.496,0,4.76,0.479,6.789,1.436l-0.35,3.08l-1.995-0.7c-1.33-0.537-2.812-0.806-4.444-0.806c-1.378,0-2.597,0.245-3.658,0.735
					c-1.063,0.49-1.96,1.167-2.695,2.03c-0.734,0.863-1.295,1.89-1.68,3.08c-0.385,1.189-0.578,2.484-0.578,3.885
					c0,1.377,0.188,2.66,0.561,3.85c0.373,1.19,0.928,2.223,1.662,3.098c0.735,0.875,1.646,1.558,2.73,2.048
					s2.328,0.735,3.728,0.735c0.351,0,0.688-0.012,1.015-0.035s0.666-0.07,1.016-0.141l0.875-0.175
					c0.186-0.022,0.501-0.116,0.945-0.28l0.805-0.244c0.116-0.023,0.42-0.129,0.91-0.315l0.805-0.28l0.35,3.08
					C1327.015,387.902,1324.763,388.369,1322.289,388.369z"/>
				<path class="st13" d="M1338.214,385.709l-0.455,2.52h-1.015c-1.54,0-2.666-0.39-3.378-1.172
					c-0.711-0.781-1.066-1.768-1.066-2.958v-22.47h3.149v20.65c0,0.723,0.028,1.313,0.087,1.768c0.059,0.454,0.182,0.805,0.368,1.05
					s0.46,0.408,0.822,0.489C1337.089,385.668,1337.584,385.709,1338.214,385.709z"/>
				<path class="st13" d="M1343.744,366.879h-3.15v-3.5h3.15V366.879z M1343.744,387.879h-3.15v-17.15h3.15V387.879z"/>
				<path class="st13" d="M1362.608,379.304h-12.425c0.372,4.084,2.521,6.125,6.44,6.125c1.75,0,3.395-0.338,4.935-1.015l0.42,2.484
					c-2.03,0.888-3.944,1.33-5.74,1.33c-1.446,0-2.747-0.233-3.902-0.699c-1.155-0.467-2.13-1.103-2.923-1.908
					c-0.793-0.805-1.4-1.761-1.82-2.87c-0.42-1.107-0.629-2.304-0.629-3.587c0-1.236,0.197-2.392,0.595-3.465
					c0.396-1.073,0.956-2.001,1.68-2.783c0.724-0.781,1.604-1.399,2.643-1.854s2.199-0.683,3.482-0.683
					c1.097,0,2.101,0.163,3.011,0.49c0.909,0.327,1.686,0.805,2.326,1.435c0.643,0.63,1.144,1.395,1.506,2.293
					c0.361,0.898,0.543,1.907,0.543,3.027C1362.749,378.277,1362.701,378.838,1362.608,379.304z M1355.294,373.179
					c-2.544,0-4.154,1.318-4.83,3.955h9.029c0-1.26-0.35-2.233-1.05-2.923C1357.743,373.523,1356.693,373.179,1355.294,373.179z"/>
				<path class="st13" d="M1381.403,387.879h-3.15v-9.45c0-1.843-0.344-3.179-1.032-4.007s-1.837-1.243-3.447-1.243
					c-2.287,0-3.851,0.747-4.69,2.24v12.46h-3.15v-17.15h2.451l0.35,1.82c1.633-1.446,3.523-2.17,5.67-2.17c4.666,0,7,2.684,7,8.05
					V387.879z"/>
				<path class="st13" d="M1394.213,385.709l-0.245,2.52h-2.835c-1.517,0-2.642-0.396-3.378-1.189
					c-0.734-0.793-1.102-1.762-1.102-2.905v-10.955h-2.94l0.28-2.45h2.66v-4.234l3.15-0.315v4.55h4.514v2.45h-4.514v9.03
					c0,0.817,0.022,1.458,0.069,1.925c0.046,0.467,0.181,0.817,0.402,1.05c0.222,0.233,0.577,0.38,1.067,0.438
					c0.49,0.059,1.178,0.088,2.065,0.088H1394.213z"/>
			</g>
		</g>
	</g>
	<polygon class="st9" points="1194.881,343.255 1173.984,354.015 1173.984,332.395 	"/>
	<polygon class="st14" points="259.797,136.619 280.694,147.378 280.694,125.758 	"/>
</g>
<g>
	<path d="M38.456,37.695v-2.49c2.197,0.781,4.57,1.172,7.119,1.172c3.604,0,5.405-1.318,5.405-3.955
		c0-2.246-1.328-3.369-3.984-3.369h-2.695c-4.385,0-6.577-1.904-6.577-5.713c0-4.004,2.808-6.006,8.423-6.006
		c2.441,0,4.712,0.293,6.812,0.879v2.49c-2.1-0.781-4.37-1.172-6.812-1.172c-3.809,0-5.713,1.27-5.713,3.809
		c0,2.246,1.289,3.369,3.867,3.369h2.695c4.463,0,6.694,1.904,6.694,5.713c0,4.102-2.705,6.152-8.115,6.152
		C43.026,38.574,40.653,38.281,38.456,37.695z"/>
	<path d="M68.925,37.988c-1.27,0.293-2.637,0.439-4.102,0.439c-5.469,0-8.203-2.661-8.203-7.983c0-4.932,2.734-7.397,8.203-7.397
		c1.465,0,2.832,0.146,4.102,0.439v2.197c-1.27-0.293-2.686-0.439-4.248-0.439c-3.564,0-5.347,1.733-5.347,5.2
		c0,3.857,1.782,5.786,5.347,5.786c1.563,0,2.979-0.146,4.248-0.439V37.988z"/>
	<path d="M78.71,23.047c4.375,0,6.563,2.163,6.563,6.489c0,0.615-0.044,1.274-0.132,1.978H74.345c0,3.145,1.836,4.717,5.508,4.717
		c1.748,0,3.301-0.195,4.658-0.586v2.197c-1.357,0.391-3.008,0.586-4.951,0.586c-5.283,0-7.925-2.622-7.925-7.866
		C71.635,25.552,73.993,23.047,78.71,23.047z M74.345,29.258h8.32c-0.059-2.695-1.377-4.043-3.955-4.043
		C75.976,25.215,74.521,26.563,74.345,29.258z"/>
	<path d="M88.92,38.428V23.047h1.831l0.483,1.963c1.572-1.309,3.301-1.963,5.186-1.963c3.838,0,5.757,1.909,5.757,5.728v9.653h-2.71
		V28.73c0-2.285-1.138-3.428-3.413-3.428c-1.553,0-3.027,0.649-4.424,1.948v11.177H88.92z"/>
	<path d="M106.571,38.428V23.047h1.831l0.483,1.963c1.348-1.309,2.969-1.963,4.863-1.963v2.256c-1.836,0-3.325,0.649-4.468,1.948
		v11.177H106.571z"/>
	<path d="M115.727,33.784c0-3.154,2.08-4.731,6.24-4.731c1.338,0,2.676,0.098,4.014,0.293v-1.45c0-1.768-1.382-2.651-4.146-2.651
		c-1.582,0-3.203,0.244-4.863,0.732v-2.197c1.66-0.488,3.281-0.732,4.863-0.732c4.57,0,6.855,1.592,6.855,4.775v10.605h-1.523
		l-0.938-1.523c-1.533,1.016-3.203,1.523-5.01,1.523C117.558,38.428,115.727,36.88,115.727,33.784z M121.967,31.25
		c-2.354,0-3.53,0.83-3.53,2.49s0.928,2.49,2.783,2.49c1.875,0,3.462-0.498,4.761-1.494v-3.193
		C124.643,31.348,123.305,31.25,121.967,31.25z"/>
	<path d="M133.085,38.428V23.047h1.831l0.483,1.963c1.348-1.309,2.969-1.963,4.863-1.963v2.256c-1.836,0-3.325,0.649-4.468,1.948
		v11.177H133.085z"/>
	<path d="M145.976,17.48v2.563h-2.71V17.48H145.976z M145.976,23.047v15.381h-2.71V23.047H145.976z"/>
	<path d="M149.931,30.737c0-5.127,2.441-7.69,7.324-7.69s7.324,2.563,7.324,7.69c0,5.117-2.441,7.676-7.324,7.676
		C152.392,38.413,149.95,35.854,149.931,30.737z M157.255,36.23c3.076,0,4.614-1.851,4.614-5.552c0-3.623-1.538-5.435-4.614-5.435
		s-4.614,1.812-4.614,5.435C152.641,34.38,154.179,36.23,157.255,36.23z"/>
	<path d="M177.03,38.428V20.103h-2.197v-1.304l4.907-1.465v21.094H177.03z"/>
	<path d="M187.724,23.047v2.71h-2.71v-2.71H187.724z M187.724,35.718v2.71h-2.71v-2.71H187.724z"/>
	<path d="M199.003,38.428V17.48h7.617c6.934,0,10.4,3.301,10.4,9.902c0,7.363-3.467,11.045-10.4,11.045H199.003z M206.62,36.23
		c5.127,0,7.69-2.949,7.69-8.848c0-5.137-2.563-7.705-7.69-7.705h-4.907V36.23H206.62z"/>
	<path d="M223.686,17.48v2.563h-2.71V17.48H223.686z M223.686,23.047v15.381h-2.71V23.047H223.686z"/>
	<path d="M228.373,38.428V23.047h1.831l0.483,1.963c1.348-1.309,2.969-1.963,4.863-1.963v2.256c-1.836,0-3.325,0.649-4.468,1.948
		v11.177H228.373z"/>
	<path d="M244.604,23.047c4.375,0,6.563,2.163,6.563,6.489c0,0.615-0.044,1.274-0.132,1.978h-10.796
		c0,3.145,1.836,4.717,5.508,4.717c1.748,0,3.301-0.195,4.658-0.586v2.197c-1.357,0.391-3.008,0.586-4.951,0.586
		c-5.283,0-7.925-2.622-7.925-7.866C237.528,25.552,239.887,23.047,244.604,23.047z M240.238,29.258h8.32
		c-0.059-2.695-1.377-4.043-3.955-4.043C241.869,25.215,240.414,26.563,240.238,29.258z"/>
	<path d="M266.386,37.988c-1.27,0.293-2.637,0.439-4.102,0.439c-5.469,0-8.203-2.661-8.203-7.983c0-4.932,2.734-7.397,8.203-7.397
		c1.465,0,2.832,0.146,4.102,0.439v2.197c-1.27-0.293-2.686-0.439-4.248-0.439c-3.564,0-5.347,1.733-5.347,5.2
		c0,3.857,1.782,5.786,5.347,5.786c1.563,0,2.979-0.146,4.248-0.439V37.988z"/>
	<path d="M269.828,20.557h1.699l0.586,2.49h4.16v2.197h-3.735v8.833c0,1.436,0.62,2.153,1.86,2.153h1.875v2.197h-2.578
		c-2.578,0-3.867-1.382-3.867-4.146V20.557z"/>
	<path d="M303.153,37.695c-1.807,0.586-3.76,0.879-5.859,0.879c-7.324,0-10.986-3.638-10.986-10.913
		c0-6.885,3.662-10.327,10.986-10.327c2.1,0,4.053,0.293,5.859,0.879v2.344c-1.807-0.684-3.662-1.025-5.566-1.025
		c-5.713,0-8.569,2.71-8.569,8.13c0,5.811,2.856,8.716,8.569,8.716c1.904,0,3.76-0.342,5.566-1.025V37.695z"/>
	<path d="M306.596,30.737c0-5.127,2.441-7.69,7.324-7.69s7.324,2.563,7.324,7.69c0,5.117-2.441,7.676-7.324,7.676
		C309.057,38.413,306.615,35.854,306.596,30.737z M313.92,36.23c3.076,0,4.614-1.851,4.614-5.552c0-3.623-1.538-5.435-4.614-5.435
		s-4.614,1.812-4.614,5.435C309.306,34.38,310.844,36.23,313.92,36.23z"/>
	<path d="M324.906,38.428V23.047h1.831l0.454,1.934c1.475-1.289,3.081-1.934,4.819-1.934c2.227,0,3.745,0.703,4.556,2.109
		c1.67-1.406,3.364-2.109,5.083-2.109c3.535,0,5.303,1.948,5.303,5.845v9.536h-2.71v-9.683c0-2.295-0.967-3.442-2.9-3.442
		c-1.445,0-2.798,0.664-4.058,1.992v11.133h-2.71v-9.639c0-2.324-0.957-3.486-2.871-3.486c-1.523,0-2.886,0.664-4.087,1.992v11.133
		H324.906z"/>
	<path d="M351.347,38.428V23.047h1.831l0.454,1.934c1.475-1.289,3.081-1.934,4.819-1.934c2.227,0,3.745,0.703,4.556,2.109
		c1.67-1.406,3.364-2.109,5.083-2.109c3.535,0,5.303,1.948,5.303,5.845v9.536h-2.71v-9.683c0-2.295-0.967-3.442-2.9-3.442
		c-1.445,0-2.798,0.664-4.058,1.992v11.133h-2.71v-9.639c0-2.324-0.957-3.486-2.871-3.486c-1.523,0-2.886,0.664-4.087,1.992v11.133
		H351.347z"/>
	<path d="M391.044,23.047v15.381h-1.86l-0.469-1.963c-1.865,1.309-3.74,1.963-5.625,1.963c-3.535,0-5.303-1.909-5.303-5.728v-9.653
		h2.71v9.697c0,2.285,1.133,3.428,3.398,3.428c1.553,0,3.032-0.649,4.438-1.948V23.047H391.044z"/>
	<path d="M395.438,38.428V23.047h1.831l0.483,1.963c1.572-1.309,3.301-1.963,5.186-1.963c3.838,0,5.757,1.909,5.757,5.728v9.653
		h-2.71V28.73c0-2.285-1.138-3.428-3.413-3.428c-1.553,0-3.027,0.649-4.424,1.948v11.177H395.438z"/>
	<path d="M416.093,17.48v2.563h-2.71V17.48H416.093z M416.093,23.047v15.381h-2.71V23.047H416.093z"/>
	<path d="M432.353,37.988c-1.27,0.293-2.637,0.439-4.102,0.439c-5.469,0-8.203-2.661-8.203-7.983c0-4.932,2.734-7.397,8.203-7.397
		c1.465,0,2.832,0.146,4.102,0.439v2.197c-1.27-0.293-2.686-0.439-4.248-0.439c-3.564,0-5.347,1.733-5.347,5.2
		c0,3.857,1.782,5.786,5.347,5.786c1.563,0,2.979-0.146,4.248-0.439V37.988z"/>
	<path d="M435.063,33.784c0-3.154,2.08-4.731,6.24-4.731c1.338,0,2.676,0.098,4.014,0.293v-1.45c0-1.768-1.382-2.651-4.146-2.651
		c-1.582,0-3.203,0.244-4.863,0.732v-2.197c1.66-0.488,3.281-0.732,4.863-0.732c4.57,0,6.855,1.592,6.855,4.775v10.605h-1.523
		l-0.938-1.523c-1.533,1.016-3.203,1.523-5.01,1.523C436.894,38.428,435.063,36.88,435.063,33.784z M441.303,31.25
		c-2.354,0-3.53,0.83-3.53,2.49s0.928,2.49,2.783,2.49c1.875,0,3.462-0.498,4.761-1.494v-3.193
		C443.979,31.348,442.641,31.25,441.303,31.25z"/>
	<path d="M452.421,20.557h1.699l0.586,2.49h4.16v2.197h-3.735v8.833c0,1.436,0.62,2.153,1.86,2.153h1.875v2.197h-2.578
		c-2.578,0-3.867-1.382-3.867-4.146V20.557z"/>
	<path d="M465.312,17.48v2.563h-2.71V17.48H465.312z M465.312,23.047v15.381h-2.71V23.047H465.312z"/>
	<path d="M469.267,30.737c0-5.127,2.441-7.69,7.324-7.69s7.324,2.563,7.324,7.69c0,5.117-2.441,7.676-7.324,7.676
		C471.728,38.413,469.286,35.854,469.267,30.737z M476.591,36.23c3.076,0,4.614-1.851,4.614-5.552c0-3.623-1.538-5.435-4.614-5.435
		s-4.614,1.812-4.614,5.435C471.977,34.38,473.515,36.23,476.591,36.23z"/>
	<path d="M487.577,38.428V23.047h1.831l0.483,1.963c1.572-1.309,3.301-1.963,5.186-1.963c3.838,0,5.757,1.909,5.757,5.728v9.653
		h-2.71V28.73c0-2.285-1.138-3.428-3.413-3.428c-1.553,0-3.027,0.649-4.424,1.948v11.177H487.577z"/>
</g>
</svg>
