<?xml version="1.0" encoding="utf-8"?>
<!-- Generator: Adobe Illustrator 16.0.0, SVG Export Plug-In . SVG Version: 6.00 Build 0)  -->
<!DOCTYPE svg PUBLIC "-//W3C//DTD SVG 1.1//EN" "http://www.w3.org/Graphics/SVG/1.1/DTD/svg11.dtd">
<svg version="1.1"
	 id="svg2" inkscape:version="0.48.1 " sodipodi:docname="AJAX.svg" xmlns:svg="http://www.w3.org/2000/svg" xmlns:sodipodi="http://sodipodi.sourceforge.net/DTD/sodipodi-0.dtd" xmlns:inkscape="http://www.inkscape.org/namespaces/inkscape" xmlns:dc="http://purl.org/dc/elements/1.1/" xmlns:cc="http://creativecommons.org/ns#" xmlns:rdf="http://www.w3.org/1999/02/22-rdf-syntax-ns#"
	 xmlns="http://www.w3.org/2000/svg" xmlns:xlink="http://www.w3.org/1999/xlink" x="0px" y="0px" width="774.156px"
	 height="189.244px" viewBox="0 0 774.156 189.244" enable-background="new 0 0 774.156 189.244" xml:space="preserve">
<sodipodi:namedview  id="namedview21" inkscape:current-layer="#005f9fff" inkscape:window-maximized="1" inkscape:window-y="-8" fit-margin-right="0" inkscape:window-width="1280" inkscape:window-height="1004" inkscape:pageopacity="0" inkscape:window-x="-8" fit-margin-bottom="0" inkscape:pageshadow="2" inkscape:cy="94.633442" gridtolerance="10" guidetolerance="10" showgrid="false" objecttolerance="10" bordercolor="#666666" borderopacity="1" inkscape:zoom="0.58285714" fit-margin-left="0" inkscape:cx="387.01564" pagecolor="#ffffff" fit-margin-top="0">
	</sodipodi:namedview>
<g id="_x23_ffffffff" transform="translate(-40.387485,-24.31156)">
</g>
<g id="_x23_005f9fff" transform="translate(-40.387485,-24.31156)">
	<path id="path6" inkscape:connector-curvature="0" fill="#727271" d="M101.015,27.222c20.188-4.837,42.125-3.812,61.35,4.337
		c18.5,7.763,33.113,23.575,40.288,42.225c6.812,16.663,7.612,34.987,6.938,52.762c-0.2,4.162-4.425,7.088-8.413,6.801
		c-32.1,0.037-64.212,0-96.312,0.012c-5.362,0.062-10.788-0.412-16.075,0.713c-1.55,10.963,2.925,22.487,11.188,29.8
		c7.712,7.062,18.362,10.149,28.662,10.425c9.188,0.176,18.675-0.55,27.1-4.512c5.587-2.488,10.388-6.312,15.375-9.764
		c1.863-1.438,4.875-2.412,6.562-0.188c7.438,7.201,15.5,13.764,22.613,21.264c2.3,2.837-0.9,5.912-3.1,7.574
		c-21.725,16.075-48.675,27.037-76.1,24.525c-20.275-1.125-41.312-7.263-56.075-21.85c-14.562-13.913-21.325-33.963-23.587-53.551
		c-2.663-25.125-0.725-51.862,11.812-74.312C63.178,45.397,80.953,31.997,101.015,27.222 M95.953,76.41
		c-5.237,7.275-7.387,16.337-7.75,25.188c24.6-0.025,49.188-0.013,73.775-0.013c-0.675-8.925-2.575-18.15-8.088-25.425
		C140.453,58.06,109.241,58.21,95.953,76.41z"/>
	<path id="path8" inkscape:connector-curvature="0" fill="#727271" d="M591.69,52.56c-0.112-2.325,0.25-5.663,3.2-5.9
		c6.688-0.312,13.388-0.138,20.075-0.087c1.825-0.075,3.8,1.537,3.713,3.438c0.287,6.262,0,12.537,0.087,18.812
		c5.8,0.087,11.612-0.163,17.413,0.075c2.024-0.188,3.675,1.75,3.587,3.7c0.15,5.462,0.088,10.925,0.038,16.387
		c0.25,1.95-0.938,3.838-2.726,4.588c-5.274,0.75-10.662-0.325-15.925,0.6c-1.987,0.45-2.375,2.9-2.3,4.613
		c-0.013,13.375,0.037,26.762-0.013,40.137c0.1,4.588,0.388,9.975,4.225,13.113c3.875,3.375,9.363,1.438,13.988,2.25
		c1.225,0.688,2.675,1.787,2.649,3.35c0.25,5.475,0.175,10.975,0.05,16.449c0.062,1.851-1.475,3.976-3.487,3.75
		c-10.688-0.012-22.475,1.538-31.888-4.699c-8.925-5.562-12.6-16.575-12.637-26.662C591.64,115.172,591.753,83.859,591.69,52.56
		L591.69,52.56z"/>
	<path id="path10" inkscape:connector-curvature="0" fill="#727271" d="M767.94,46.847c6.9-0.688,13.9-0.25,20.851-0.25
		c2.55-0.15,4.125,2.413,3.737,4.737c0.037,29.2,0,58.4,0.013,87.6c0.175,4.8,0.362,10.7,4.85,13.601
		c4.75,3.449,11.413-0.351,16.112,2.875c1.851,3.774,0.588,8.262,0.976,12.324c-0.338,3.275,1.062,7.613-2.075,9.9
		c-11.438,0.275-24.1,1.987-34.25-4.537c-8.925-5.576-12.737-16.576-12.625-26.701c-0.025-31.25,0.025-62.5-0.025-93.75
		C765.553,50.535,765.341,47.547,767.94,46.847L767.94,46.847z"/>
	<path id="path12" inkscape:connector-curvature="0" fill="#727271" d="M375.166,78.022c12.087-12.312,30.75-15.987,47.3-12.987
		c12.612,1.987,24.6,9.1,31.525,19.95c8.337,12.375,10.037,28.013,8.762,42.537c-0.587,2.326-3.212,3.176-5.35,2.938
		c-21.275,0-42.55,0-63.825-0.012c-1.587,0.112-3.612-0.275-4.375,1.525c-0.312,7.5,3.338,15.236,9.838,19.199
		c7.575,4.95,17.225,4.85,25.812,3.301c6.562-1.25,11.55-5.951,17.225-9.101c5.275,4.962,11.101,9.425,15.825,14.95
		c-0.075,2.463-2.3,3.787-4.025,5.125c-12.412,8.588-27.262,14.675-42.6,13.8c-14.125-0.288-29.088-4.737-38.6-15.726
		c-9.976-11.449-12.788-27.299-12.713-42.049C359.828,105.885,364.041,89.447,375.166,78.022 M394.578,94.935
		c-3.875,4.513-4.975,10.562-5.638,16.288c15,0.012,29.988,0,44.988,0.012c-0.213-8.562-3.988-17.938-12.288-21.562
		C412.791,85.81,400.916,87.097,394.578,94.935z"/>
	<path id="path14" inkscape:connector-curvature="0" fill="#727271" d="M505.541,74.685c9.612-7.712,22.162-12.275,34.537-10.175
		c11.062,1.15,21.538,7.287,27.362,16.85c6.226,9.625,6.213,21.538,6.075,32.575c-0.024,19.601,0,39.2,0,58.8
		c0.275,2.213-0.95,5.338-3.612,5.113c-7.525,0.149-15.062,0.149-22.575,0c-2.087,0.236-3.7-1.851-3.5-3.788
		c-0.112-20.476,0.062-40.95-0.062-61.413c-0.037-7.725-2.2-16.663-9.388-20.788c-6.438-3.325-14.699-3.087-20.975,0.525
		c-5.763,3.3-8.75,10.062-8.625,16.537c-0.075,21.287,0.013,42.562-0.025,63.838c0.25,2.213-0.862,5.262-3.55,5.074
		c-7.524,0.163-15.075,0.113-22.6,0.025c-2.763,0.263-3.9-2.912-3.601-5.162c0.025-34.2-0.024-68.413,0.025-102.625
		c-0.325-2.213,1.35-4.513,3.625-4.65c5-0.262,10.025,0.013,15.05-0.1c3.438,0.037,7.237-0.538,10.125,1.787
		C503.966,69.722,503.353,72.71,505.541,74.685L505.541,74.685z"/>
	<path id="path16" inkscape:connector-curvature="0" fill="#727271" d="M692.203,64.897c13.413-2.175,27.9-0.225,39.5,7.15
		c10.675,6.8,17.825,18.288,20.476,30.55c1.912,7.85,1.712,16,1.475,24c0.037,2.512-2.6,4.074-4.888,3.824
		c-18.35,0.1-36.7,0-55.062,0.037c-4.662,0.088-9.438-0.5-14,0.775c0.213,6.35,1.976,13.013,6.851,17.412
		c7.637,7.312,19.225,7.663,29.05,5.851c6.45-1.2,11.287-5.862,16.888-8.851c1.925,0.525,3.188,2.288,4.675,3.525
		c3.987,4.125,8.8,7.45,12.188,12.138c-13.588,12.25-32.312,19.562-50.726,17.763c-12.837-0.838-26.087-5.338-34.812-15.176
		c-10.012-11.125-13.037-26.688-13.05-41.236c-0.312-14.963,3.138-30.763,13.112-42.351
		C670.978,71.859,681.378,66.585,692.203,64.897 M683.94,96.885c-2.787,4.25-3.762,9.35-4.175,14.325
		c15.05,0.038,30.101,0.025,45.163,0.013c-0.75-5.212-1.588-10.675-4.763-15.038C712.003,84.41,691.565,84.647,683.94,96.885z"/>
</g>
<g id="_x23_f57917ff" transform="translate(-40.387485,-24.31156)">
	<path id="path19" inkscape:connector-curvature="0" fill="#F57917" d="M246.716,35.897c3.487-1.35,7.475-0.325,10.163,2.2
		c16.587,14.05,27.775,33.9,32.65,54.975c7.025,31.037,2.1,65.387-16.45,91.637c-5.25,7.463-11.412,14.389-18.65,19.988
		c-3.2,2.612-8.312,2.699-11.35-0.25c-5.512-4.9-11.012-9.812-16.4-14.85c-2.775-2.188-2.7-6.562,0.188-8.613
		c16.688-15.062,26.863-37.088,27.288-59.588c0.275-22.012-7.913-44.762-24.7-59.487c-1.875-1.75-4.8-4-3.287-6.913
		c2.112-3.925,6.1-6.312,9.2-9.388C239.191,42.447,242.403,38.435,246.716,35.897L246.716,35.897z"/>
</g>
</svg>
