<?xml version="1.0" encoding="utf-8"?>
<!-- Generator: Adobe Illustrator 19.0.0, SVG Export Plug-In . SVG Version: 6.00 Build 0)  -->
<svg version="1.1" id="Layer_1" xmlns="http://www.w3.org/2000/svg" xmlns:xlink="http://www.w3.org/1999/xlink" x="0px" y="0px"
	 viewBox="-239.7 489.6 45.3 70" style="enable-background:new -239.7 489.6 45.3 70;" xml:space="preserve">
<style type="text/css">
	.st0{fill:#FFFFFF;}
</style>
<g>
	<path class="st0" d="M-194.3,535c0-0.9-0.7-1.6-1.6-1.6h-6.9l-4.9-13.3c2-2.2,3.2-5.1,3.2-8.3c0-6-4.3-11-10.1-12.2v-7.3
		c0-1.4-1.2-2.6-2.7-2.6c-1.5,0-2.7,1.2-2.7,2.6v7.3c-5.8,1.2-10.1,6.2-10.1,12.2c0,3.2,1.2,6.1,3.2,8.3l-4.9,13.3h-6.4
		c-0.9,0-1.6,0.7-1.6,1.6s0.7,1.6,1.6,1.6h5.2l-6.3,16.9c-0.4,1-0.1,2,0.6,2.7l-0.8,2c-0.2,0.5,0,1.1,0.6,1.4
		c0.1,0.1,0.3,0.1,0.4,0.1c0.4,0,0.8-0.2,1-0.7l0.8-2c1.1,0,2-0.7,2.4-1.7l6.9-18.7h8.3v2.9c0,0.9,0.7,1.6,1.6,1.6
		c0.9,0,1.6-0.7,1.6-1.6v-2.9h8.3l6.9,18.7c0.4,1,1.4,1.7,2.4,1.7l0.8,2c0.2,0.4,0.6,0.7,1,0.7c0.1,0,0.3,0,0.4-0.1
		c0.5-0.2,0.8-0.8,0.6-1.4l-0.8-2c0.7-0.7,1-1.7,0.6-2.7l-6.3-16.9h5.7C-195.1,536.6-194.3,535.8-194.3,535z M-217.2,504.5
		c4.1,0,7.4,3.3,7.4,7.3c0,4-3.3,7.3-7.4,7.3s-7.4-3.3-7.4-7.3C-224.7,507.7-221.3,504.5-217.2,504.5z M-215.6,533.4v-2.9
		c0-0.9-0.7-1.6-1.6-1.6c-0.9,0-1.6,0.7-1.6,1.6v2.9h-7.2l3.8-10.1c1.5,0.7,3.2,1,5,1c1.8,0,3.5-0.4,5-1l3.8,10.1
		C-208.5,533.4-215.6,533.4-215.6,533.4z"/>
</g>
</svg>
