<?xml version="1.0" encoding="utf-8"?>
<!-- Generator: Adobe Illustrator 16.0.0, SVG Export Plug-In . SVG Version: 6.00 Build 0)  -->
<!DOCTYPE svg PUBLIC "-//W3C//DTD SVG 1.1//EN" "http://www.w3.org/Graphics/SVG/1.1/DTD/svg11.dtd">
<svg version="1.1" id="Layer_1" xmlns="http://www.w3.org/2000/svg" xmlns:xlink="http://www.w3.org/1999/xlink" x="0px" y="0px"
	 width="80px" height="261.933px" viewBox="0 0 80 261.933" enable-background="new 0 0 80 261.933" xml:space="preserve">
<g>
	<g>
		<rect fill="#5AB032" width="80" height="261.933"/>
		<path fill="#FFFFFF" d="M62.66,51.744c0-0.865-0.713-1.567-1.592-1.567h-6.879l-4.936-13.335c2.008-2.213,3.232-5.119,3.232-8.309
			c0-6.008-4.325-11.038-10.071-12.244V9.02c0-1.442-1.188-2.611-2.655-2.611s-2.654,1.169-2.654,2.611v7.269
			c-5.75,1.205-10.075,6.235-10.075,12.244c0,3.191,1.229,6.098,3.235,8.312l-4.934,13.332H18.93c-0.88,0-1.592,0.702-1.592,1.567
			c0,0.865,0.712,1.567,1.592,1.567h5.243l-6.266,16.935c-0.361,0.98-0.086,2.026,0.61,2.722l-0.815,2.012
			c-0.218,0.536,0.047,1.142,0.592,1.356c0.129,0.051,0.262,0.075,0.393,0.075c0.421,0,0.82-0.249,0.986-0.657l0.813-2.007
			c1.052-0.034,2.028-0.681,2.41-1.713l6.928-18.725h8.344v2.875c0,0.865,0.711,1.566,1.592,1.566c0.877,0,1.592-0.701,1.592-1.566
			v-2.875h8.344l6.927,18.725c0.382,1.03,1.356,1.677,2.407,1.713l0.816,2.007c0.164,0.409,0.564,0.657,0.985,0.657
			c0.132,0,0.267-0.024,0.394-0.075c0.545-0.214,0.812-0.82,0.594-1.356l-0.816-2.012c0.697-0.696,0.975-1.742,0.611-2.722
			L55.35,53.311h5.721C61.947,53.311,62.66,52.609,62.66,51.744z M39.76,21.235c4.092,0,7.417,3.273,7.417,7.298
			c0,4.024-3.327,7.297-7.417,7.297s-7.418-3.273-7.418-7.297C32.341,24.508,35.669,21.235,39.76,21.235z M41.352,50.177v-2.875
			c0-0.865-0.713-1.566-1.592-1.566c-0.88,0-1.592,0.701-1.592,1.566v2.875h-7.186l3.754-10.144c1.542,0.656,3.24,1.021,5.024,1.021
			c1.785,0,3.481-0.365,5.024-1.021l3.752,10.144H41.352z"/>
	</g>
</g>
</svg>
