<?xml version="1.0" encoding="utf-8"?>
<!-- Generator: Adobe Illustrator 16.0.0, SVG Export Plug-In . SVG Version: 6.00 Build 0)  -->
<!DOCTYPE svg PUBLIC "-//W3C//DTD SVG 1.1//EN" "http://www.w3.org/Graphics/SVG/1.1/DTD/svg11.dtd">
<svg version="1.1" id="Layer_1" xmlns="http://www.w3.org/2000/svg" xmlns:xlink="http://www.w3.org/1999/xlink" x="0px" y="0px"
	 width="295.352px" height="61.867px" viewBox="0 0 295.352 61.867" enable-background="new 0 0 295.352 61.867"
	 xml:space="preserve">
<g>
	<path fill="#5BB033" d="M19.243,24.438L0,0h11.45l13.501,17.842L38.452,0h11.45L30.693,24.438l19.209,24.438h-11.45l-13.501-17.84
		L11.45,48.876H0L19.243,24.438z"/>
	<path fill="#5BB033" d="M52.347,30.932c0-12.031,5.924-18.046,17.772-18.046c11.85,0,17.774,6.016,17.774,18.046
		c0,12.01-5.927,18.014-17.774,18.014C58.316,48.946,52.392,42.942,52.347,30.932z M70.12,42.042c5.812,0,8.716-3.748,8.716-11.247
		c0-7.314-2.903-10.971-8.716-10.971c-5.811,0-8.716,3.657-8.716,10.971C61.404,38.292,64.31,42.042,70.12,42.042z"/>
	<path fill="#5BB033" d="M94.029,48.876V12.988h7.008l1.061,5.195c3.214-3.463,7.074-5.195,11.587-5.195
		c4.512,0,7.601,1.641,9.264,4.922c3.669-3.281,7.508-4.922,11.519-4.922c8.249,0,12.373,4.546,12.373,13.638v22.25h-9.058V26.284
		c0-3.987-1.801-5.981-5.4-5.981c-2.688,0-5.274,1.208-7.759,3.623v24.951h-9.058V26.387c0-4.056-1.664-6.084-4.99-6.084
		c-2.645,0-5.139,1.208-7.485,3.623v24.953L94.029,48.876L94.029,48.876z"/>
	<path fill="#FFFFFF" d="M154.682,14.458c4.764-0.979,9.798-1.47,15.106-1.47c12.189,0,18.286,5.686,18.286,17.055
		c0,12.557-5.674,18.833-17.021,18.833c-2.415,0-4.854-0.569-7.313-1.709v14.697h-9.059V14.458L154.682,14.458z M163.74,39.512
		c2.256,1.229,4.683,1.846,7.279,1.846c5.399,0,8.102-3.795,8.102-11.382c0-6.448-2.984-9.673-8.955-9.673
		c-2.575,0-4.717,0.16-6.426,0.479V39.512L163.74,39.512z"/>
	<path fill="#FFFFFF" d="M192.503,37.701c0-7.132,5.195-10.699,15.586-10.699c2.438,0,4.876,0.228,7.314,0.684v-2.7
		c0-3.213-2.313-4.819-6.938-4.819c-3.92,0-8.271,0.57-13.057,1.709v-7.178c4.785-1.139,9.137-1.709,13.057-1.709
		c10.664,0,15.996,3.942,15.996,11.826v24.063h-5.264l-3.213-3.215c-3.122,2.144-6.563,3.215-10.322,3.215
		C196.889,48.876,192.503,45.151,192.503,37.701z M208.089,33.156c-4.353,0-6.527,1.479-6.527,4.442c0,3.188,1.821,4.784,5.47,4.784
		c3.008,0,5.799-0.936,8.374-2.803v-5.742C213.125,33.382,210.687,33.156,208.089,33.156z"/>
	<path fill="#FFFFFF" d="M232.306,47.167v-7.521c3.986,1.595,8.59,2.394,13.81,2.394c3.896,0,5.845-1.254,5.845-3.76
		c0-2.394-1.311-3.591-3.931-3.591h-6.494c-7.292,0-10.938-3.588-10.938-10.766c0-7.52,5.319-11.279,15.962-11.279
		c4.513,0,8.762,0.684,12.749,2.051v7.52c-3.987-1.595-8.316-2.393-12.987-2.393c-4.899,0-7.35,1.253-7.35,3.76
		c0,2.393,1.424,3.589,4.271,3.589h5.812c7.976,0,11.963,3.589,11.963,10.767c0,7.52-5.082,11.279-15.243,11.279
		C240.783,49.218,236.294,48.537,232.306,47.167z"/>
	<path fill="#FFFFFF" d="M266.64,47.167v-7.521c3.986,1.595,8.59,2.394,13.81,2.394c3.896,0,5.845-1.254,5.845-3.76
		c0-2.394-1.311-3.591-3.931-3.591h-6.494c-7.292,0-10.938-3.588-10.938-10.766c0-7.52,5.319-11.279,15.962-11.279
		c4.513,0,8.762,0.684,12.749,2.051v7.52c-3.987-1.595-8.316-2.393-12.987-2.393c-4.899,0-7.35,1.253-7.35,3.76
		c0,2.393,1.424,3.589,4.271,3.589h5.812c7.976,0,11.963,3.589,11.963,10.767c0,7.52-5.082,11.279-15.243,11.279
		C275.117,49.218,270.627,48.537,266.64,47.167z"/>
</g>
</svg>
