<?xml version="1.0" encoding="utf-8"?>
<!-- Generator: Adobe Illustrator 16.0.0, SVG Export Plug-In . SVG Version: 6.00 Build 0)  -->
<!DOCTYPE svg PUBLIC "-//W3C//DTD SVG 1.1//EN" "http://www.w3.org/Graphics/SVG/1.1/DTD/svg11.dtd">
<svg version="1.1" id="Capa_1" xmlns="http://www.w3.org/2000/svg" xmlns:xlink="http://www.w3.org/1999/xlink" x="0px" y="0px"
	 width="197.719px" height="227.771px" viewBox="51.141 36.113 197.719 227.771"
	 enable-background="new 51.141 36.113 197.719 227.771" xml:space="preserve">
<g>
	<path d="M150.618,157.008c-19.253,0-38.522,0.439-57.757-0.141c-15.357-0.461-27.657-7.657-35.756-20.805
		c-5.424-8.799-6.83-18.661-5.492-29.046c1.449-11.21,6.41-20.373,15.044-27.374c9.799-7.943,21.206-11.086,33.762-9.626
		c2.476,0.288,3.719-0.269,4.691-2.744c5.6-14.24,15.853-23.859,30.279-28.682c8.324-2.781,17.009-3.086,25.753-1.583
		c12.073,2.079,22.205,7.433,29.717,17.228c4.318,5.627,7.092,12.004,8.16,19.074c0.271,1.774,0.479,3.647,1.246,5.224
		c0.418,0.855,2.072,1.837,2.93,1.648c12.05-2.604,22.695,0.763,31.801,8.337c11.299,9.393,15.306,21.844,13.062,36.367
		c-1.908,12.318-8.701,21.201-19.238,27.321c-6.082,3.522-12.877,4.994-19.864,5.028c-19.446,0.113-38.89,0.043-58.338,0.043
		C150.618,157.189,150.618,157.1,150.618,157.008z M128.802,94.389c-0.25,0.111-0.502,0.22-0.748,0.335
		c-0.409-0.35-0.918-0.629-1.207-1.058c-6.76-9.981-16.741-14.245-28.215-15.152c-7.756-0.618-14.963,1.801-21.336,6.416
		c-9.133,6.605-14.213,15.497-14.964,26.776c-0.569,8.55,2.235,16.109,7.422,22.726c5.545,7.058,12.536,12.195,21.758,12.985
		c6.867,0.591,13.799,0.517,20.702,0.602c12.219,0.152,24.443,0.236,36.665,0.278c18.585,0.052,37.171,0.072,55.76,0.052
		c8.617-0.007,16.404-2.274,22.896-8.349c6.948-6.497,10.524-14.525,9.839-23.863c-0.74-10.056-5.646-18.128-14.307-23.612
		c-5.916-3.752-12.396-5.702-19.441-4.858c-3.338,0.394-6.123,1.499-7.343,5.513c-1.368,4.479-3.755,8.659-5.759,12.939
		c-0.307,0.653-0.938,1.152-1.414,1.724c-0.226-0.107-0.449-0.215-0.672-0.321c0.047-0.801-0.131-1.705,0.186-2.381
		c2.631-5.712,2.386-11.8,2.561-17.861c0.295-10.61-2.959-19.858-10.057-27.805c-7.188-8.047-16.201-12.257-26.854-12.992
		c-9.392-0.646-18.241,1.114-26.281,6.32c-7.293,4.718-12.114,11.268-14.786,19.451c-0.575,1.756-0.197,3.204,1.61,4.354
		c5.817,3.7,9.663,9.202,13.1,15.009C128.394,92.432,128.513,93.456,128.802,94.389z"/>
	<path d="M248.848,259.359c-0.146-11.953-0.187-23.905-0.086-35.836c0.023-2.202-0.613-2.9-2.672-2.862
		c-5.042,0.063-10.061,0.044-15.078,0.044c-57.521-0.02-114.998-0.02-172.497-0.044c-3.498,0-3.579,0.127-3.559,3.747
		c0.021,11.848,0.04,23.719,0,35.568c-0.021,3.641,0.061,3.826,3.785,3.826h93.089v0.082h92.799
		C248.906,263.886,248.906,263.659,248.848,259.359z M237.697,254.441c-2.656,0.062-5.288,0.328-7.941,0.328
		c-26.087,0.021-52.152,0.043-78.234,0.021c-27.403-0.021-54.808-0.04-82.185-0.061c-1.153,0-2.285-0.022-3.417-0.166
		c-1.686-0.227-2.306-1.213-2.284-2.961c0.104-5.965,0.104-11.912,0.021-17.856c-0.043-2.94,0.886-4.095,3.722-4.095h47.216v0.084
		h37.275c27.877-0.021,55.729-0.041,83.604-0.063c4.422,0,5.037,0.7,5.019,5.103c-0.04,5.494-0.04,10.966,0.125,16.457
		C240.678,253.455,239.835,254.381,237.697,254.441z"/>
	<path d="M240.493,234.775c0.021-4.401-0.597-5.103-5.019-5.103c-27.877,0.021-55.729,0.041-83.604,0.063h-37.275v-0.084H67.379
		c-2.836,0-3.765,1.152-3.722,4.095c0.082,5.944,0.082,11.892-0.021,17.856c-0.021,1.748,0.599,2.734,2.284,2.961
		c1.132,0.144,2.264,0.166,3.417,0.166c27.377,0.021,54.78,0.039,82.185,0.061c26.082,0.021,52.147,0,78.234-0.021
		c2.653,0,5.285-0.268,7.941-0.328c2.138-0.062,2.979-0.986,2.921-3.209C240.453,245.741,240.453,240.27,240.493,234.775z
		 M130.805,248.436c-3.088,0-5.903-2.756-5.844-5.696c0.105-4.567,2.242-6.771,6.521-6.707c3.19,0.04,6.027,3.086,5.927,6.334
		C137.305,245.721,134.344,248.456,130.805,248.436z M151.87,248.395c-3.661-0.082-5.944-2.449-5.903-6.131
		c0.04-4.154,2.242-6.356,6.314-6.255c3.353,0.063,5.863,2.839,5.801,6.399C158.021,245.905,155.367,248.456,151.87,248.395z
		 M172.792,248.292c-3.272,0.123-6.315-2.653-6.438-5.884c-0.145-3.291,2.797-6.234,6.313-6.357
		c3.806-0.124,5.781,1.955,5.926,6.213C178.718,246.152,176.803,248.127,172.792,248.292z"/>
	<path fill="#5BB033" d="M185.855,182.643c-2.084,0-4.063-0.074-6.041,0.013c-4.248,0.188-4.813,0.849-4.803,5.12
		c0.025,7.108-0.023,14.222,0.081,21.326c0.031,2.209-0.76,3.112-2.981,3.024c-2.557-0.101-5.114-0.01-7.67,0.019
		c-1.657,0.02-2.392-0.688-2.346-2.414c0.164-6.717,0.129-13.444,0.412-20.15c0.262-6.062-1.014-7.438-7.113-6.977
		c-1.059,0.084-2.135,0.013-3.972,0.013c2.201-2.294,3.87-4.111,5.625-5.853c3.419-3.404,6.927-6.727,10.306-10.178
		c1.024-1.039,1.717-1.207,2.806-0.141c5.118,5.047,10.294,10.047,15.431,15.086C185.755,181.689,185.723,182.057,185.855,182.643z"
		/>
	<path fill="#5BB033" d="M147.815,194.482c-0.529,0.867-0.762,1.488-1.188,1.91c-4.599,4.498-9.275,8.924-13.827,13.473
		c-1.506,1.51-2.374,1.779-4.063,0.012c-4.371-4.583-9.052-8.872-13.599-13.29c-0.516-0.497-0.954-1.063-1.895-2.114
		c2.44,0,4.228-0.048,6.012,0.012c4.777,0.156,5.497-0.541,5.447-5.235c-0.076-7.201-0.104-14.404-0.185-21.604
		c-0.017-1.525,0.312-2.65,2.134-2.636c2.746,0.032,5.487,0.077,8.232,0.072c1.782,0,2.468,0.731,2.436,2.61
		c-0.133,7.855-0.139,15.72-0.149,23.578c-0.002,2.174,1.068,3.313,3.367,3.233C142.777,194.425,145.022,194.482,147.815,194.482z"
		/>
	<path fill="#5BB033" d="M137.408,242.365c-0.104,3.354-3.064,6.091-6.604,6.068c-3.088,0-5.903-2.756-5.844-5.695
		c0.105-4.567,2.242-6.771,6.521-6.707C134.672,236.07,137.509,239.117,137.408,242.365z"/>
	<path fill="#5BB033" d="M178.593,242.264c0.125,3.889-1.79,5.863-5.801,6.028c-3.272,0.123-6.315-2.653-6.438-5.884
		c-0.145-3.291,2.797-6.234,6.313-6.357C176.473,235.927,178.448,238.006,178.593,242.264z"/>
</g>
</svg>
