<?xml version="1.0" encoding="utf-8"?>
<!-- Generator: Adobe Illustrator 16.0.0, SVG Export Plug-In . SVG Version: 6.00 Build 0)  -->
<!DOCTYPE svg PUBLIC "-//W3C//DTD SVG 1.1//EN" "http://www.w3.org/Graphics/SVG/1.1/DTD/svg11.dtd">
<svg version="1.1" id="Capa_1" xmlns="http://www.w3.org/2000/svg" xmlns:xlink="http://www.w3.org/1999/xlink" x="0px" y="0px"
	 width="232.672px" height="218.798px" viewBox="33.664 40.6 232.672 218.798" enable-background="new 33.664 40.6 232.672 218.798"
	 xml:space="preserve">
<g>
	<path d="M153.234,216.375c-8.218,0.171-15.641-0.393-22.905-2.273c-2.515-0.648-5.025-1.451-7.389-2.516
		c-10.676-4.803-13.174-8.841-12.755-20.445c0.207-5.714,0.935-11.416,0.52-17.136c-0.501-6.926,3.032-11.59,8.348-15.206
		c5.713-3.887,12.313-5.134,19.024-5.93c1.32-0.157,2.302,0.341,3.363,1.167c7.138,5.554,15.135,5.776,22.385,0.68
		c0.94-0.663,1.778-1.327,3.014-1.055c7.334,1.637,14.479,3.627,19.841,9.451c2.732,2.969,4.321,6.288,4.186,10.409
		c-0.264,7.949-0.564,15.9-0.604,23.854c-0.036,7.413-3.604,12.207-10.34,14.764c-2.89,1.1-5.873,2.033-8.89,2.696
		C164.938,216.174,158.747,216.686,153.234,216.375z"/>
	<path d="M213.078,69.612c-5.332-10.043-10.373-19.539-15.295-28.811c8.615,0,17.018-0.1,25.416,0.064
		c2.298,0.046,5.686-1.025,6.664,0.839c0.908,1.725-1.831,3.968-3.043,5.93c-3.03,4.919-3.043,4.87,1.212,8.77
		c21.911,20.083,34.776,44.854,37.659,74.46c3.57,36.646-7.697,68.454-33.633,94.43c-45.031,45.097-117.482,45.481-163.198,1.082
		c-21.776-21.149-33.931-47.116-35.091-77.62c-1.69-44.43,16.732-78.852,53.072-103.988c3.406-2.357,5.298-1.463,6.428,2.709
		c0.523,1.929-1.181,1.951-2.053,2.516c-11.96,7.713-22.115,17.305-30.479,28.825c-46.217,63.682-10.5,155.588,66.589,171.307
		c56.79,11.577,111.974-20.834,127.769-76.845c12.338-43.758,0.561-81.736-32.711-112.93c-2.089-1.96-2.82-1.308-3.96,0.721
		C216.866,63.851,215.053,66.488,213.078,69.612z"/>
	<path fill="#5BB033" d="M215.782,146.658c4.331,1.172,8.483,2.009,12.239,4.044c6.465,3.5,10.099,8.478,9.487,16.247
		c-0.437,5.566-0.29,11.187-0.294,16.783c-0.003,6.687-2.802,11.437-9.189,13.863c-10.613,4.032-21.592,4.221-32.705,3.165
		c-1.879-0.179-1.66-1.343-1.639-2.638c0.114-6.84,0.117-13.682,0.271-20.521c0.284-12.748-3.901-19.125-15.88-24
		c-0.995-0.403-1.969-0.854-3.264-1.418c2.664-2.56,5.783-3.396,8.82-4.215c2.964-0.797,6.036-1.191,9.471-1.84
		c-6.062-7.886-8.021-16.669-7.466-26.081c0.404-6.849,2.002-13.453,9.037-16.314c7.942-3.233,15.952-2.439,23.052,2.618
		c3.955,2.817,4.771,7.501,5.106,11.993C223.584,128.444,222.812,138.261,215.782,146.658z"/>
	<path fill="#5BB033" d="M121.703,154.332c-12.186,4.68-15.218,13.998-14.445,25.648c0.407,6.162-1.584,12.347-0.435,18.578
		c0.285,1.545-0.587,1.953-1.875,2.086c-11.587,1.2-23.079,0.97-34.347-2.357c-1.653-0.486-3.236-1.273-4.775-2.073
		c-8.051-4.175-10.299-8.1-9.362-17.043c0.392-3.729,0.496-7.444,0.438-11.17c-0.179-11.571,3.273-16.396,14.419-19.74
		c2.246-0.673,4.607-0.955,6.899-1.486c2.437-0.566,4.386-0.02,6.509,1.501c5.525,3.955,12.091,3.792,17.729-0.17
		c1.349-0.949,2.487-1.234,4.108-0.862C111.919,148.472,117.011,150.155,121.703,154.332z"/>
	<path fill="#5BB033" d="M119.813,109.762c0-2.862,0.135-5.733-0.028-8.588c-0.303-5.326,2.229-9.021,6.473-11.77
		c4.51-2.918,9.675-3.736,14.856-4.49c1.325-0.193,2.035,0.726,2.929,1.351c5.404,3.769,10.77,3.898,16.34,0.311
		c0.854-0.551,1.61-1.226,2.688-1.018c6.344,1.211,12.281,3.219,16.418,8.626c1.16,1.517,1.75,3.192,1.72,5.18
		c-0.097,6.723-0.048,13.445-0.089,20.169c-0.021,3.553-1.32,6.542-4.139,8.788c-0.658,0.524-1.317,1.403-2.229,1.053
		c-1.035-0.399-0.521-1.508-0.587-2.305c-0.203-2.477-0.296-4.96-0.499-7.436c-0.872-10.657-6.578-16.468-17.229-17.568
		c-0.369-0.038-0.744-0.039-1.117-0.077c-20.147-2.05-24.876,9.807-24.637,25.469c0.017,0.938,0.758,2.07-0.282,2.722
		c-0.827,0.52-1.641-0.37-2.374-0.741c-5.29-2.678-9.368-6.1-8.31-12.959c0.34-2.188,0.055-4.473,0.055-6.716
		C119.786,109.762,119.801,109.762,119.813,109.762z"/>
	<path d="M135.36,125.021c0.286-2.717,0.514-5.442,0.873-8.149c0.75-5.642,2.64-7.924,8.162-9.196
		c4.612-1.064,9.298-1.551,14.052-0.538c6.529,1.392,10.336,4.878,10.809,11.489c0.604,8.435,0.402,16.906-2.926,24.932
		c-2.783,6.718-7.826,10.255-14.212,10.034c-5.306-0.183-8.725-3.362-11.298-7.52C136.85,139.655,135.415,132.522,135.36,125.021z"
		/>
	<path fill="#5BB033" d="M78.472,121.788c0.196-2.576,0.112-5.681,0.853-8.742c0.582-2.402,1.92-4.099,4.123-4.925
		c5.631-2.112,11.441-2.552,17.164-0.604c4.787,1.629,6.998,5.543,7.062,10.394c0.071,5.454-0.2,10.928-1.365,16.3
		c-0.532,2.452-1.509,4.745-2.86,6.845c-4.963,7.698-14.607,7.878-19.83,0.352C79.636,135.669,78.321,129.172,78.472,121.788z"/>
	<path fill="#5BB033" d="M139.161,63.898c0.019-12.266,2.449-14.653,14.038-14.477c8.83,0.134,12.758,4.719,11.836,13.599
		c-0.458,4.422-0.195,8.906-1.787,13.207c-1.859,5.032-4.848,8.819-10.507,9.165c-5.679,0.349-8.741-3.508-10.93-8.07
		C139.683,72.889,138.79,68.151,139.161,63.898z"/>
	<path d="M117.55,84.83c-0.002,2.328-0.276,5.432-1.555,8.323c-1.286,2.908-3.339,4.971-6.743,5.096
		c-3.179,0.119-5.098-1.885-6.423-4.373c-2.494-4.68-2.938-9.684-1.831-14.862c0.694-3.249,3.192-3.745,5.879-4.156
		C114.43,73.704,117.759,76.536,117.55,84.83z"/>
	<path d="M181.129,84.288c0.003-7.869,2.555-10.327,9.789-9.645c5.114,0.483,7.298,2.846,7.293,8.016
		c-0.001,3.365-0.223,6.73-1.404,9.919c-1.154,3.119-3.205,5.401-6.729,5.647c-3.487,0.242-5.402-2.039-6.879-4.81
		C181.639,90.493,180.954,87.375,181.129,84.288z"/>
</g>
</svg>
