<?xml version="1.0" encoding="utf-8"?>
<!-- Generator: Adobe Illustrator 16.0.0, SVG Export Plug-In . SVG Version: 6.00 Build 0)  -->
<!DOCTYPE svg PUBLIC "-//W3C//DTD SVG 1.1//EN" "http://www.w3.org/Graphics/SVG/1.1/DTD/svg11.dtd">
<svg version="1.1" id="Capa_1" xmlns="http://www.w3.org/2000/svg" xmlns:xlink="http://www.w3.org/1999/xlink" x="0px" y="0px"
	 width="152.965px" height="252.84px" viewBox="73.517 23.58 152.965 252.84" enable-background="new 73.517 23.58 152.965 252.84"
	 xml:space="preserve">
<g>
	<g>
		<path fill="#5BB033" d="M143.114,63.333c-15.057,0-27.265,12.204-27.265,27.262c0,15.056,12.208,27.262,27.265,27.262
			c15.058,0,27.263-12.206,27.263-27.262C170.377,75.537,158.172,63.333,143.114,63.333z M154.926,103.272
			c-1.059,1.332-2.785,1.432-4.31,0.172c-3.211-2.66-6.348-5.411-9.601-8.014c-1.754-1.405-1.442-3.322-1.474-5.08
			c-0.075-4.921,0.02-9.845,0.074-14.768c0.019-1.35,0.544-2.61,1.901-2.887c0.914-0.186,2.161,0.073,2.916,0.613
			c0.599,0.43,0.896,1.58,0.934,2.434c0.117,2.482,0.042,4.977,0.042,7.469h0.013c0,2.056,0.127,4.123-0.036,6.168
			c-0.136,1.713,0.479,2.788,1.811,3.805c2.406,1.842,4.675,3.862,6.988,5.817C155.702,100.287,155.979,101.94,154.926,103.272z"/>
		<g>
			<path d="M193.023,80.44c1.815,4.272,3.576,8.392,5.32,12.518c2.887,6.818,5.736,13.653,8.65,20.456
				c6.177,14.421,12.051,28.96,16.148,44.132c1.307,4.843,2.174,9.81,3.07,14.752c0.872,4.817-0.574,9.448-1.506,14.108
				c-2.824,14.127-4.727,28.373-5.916,42.732c-1.15,13.909-0.604,27.809-0.3,41.715c0.038,1.824,0.003,3.653,0.003,5.566
				c-28.373,0-56.676,0-85.135,0c-0.525-3.287-1.056-6.587-1.569-9.883c-0.693-4.438-1.315-8.885-2.105-13.303
				c-0.156-0.873-0.836-1.729-1.462-2.43c-9.386-10.5-18.272-21.402-26.23-33.037c-2.685-3.924-5.107-8.028-7.639-12.063
				c-0.302-0.478-0.529-1.009-0.898-1.715c2.332,0.612,4.343,0.968,6.121,2.636c3.875,3.628,8.722,5.038,14.013,5.035
				c19.656-0.023,39.311-0.021,58.965-0.031c8.909-0.005,15.424-4.004,19.532-11.875c1.422-2.723,2.065-5.684,2.065-8.762
				c0.004-18.521,0.007-37.039-0.021-55.56c-0.002-0.728-0.228-1.486-0.487-2.178c-3.647-9.712-7.357-19.402-10.976-29.128
				c-1.541-4.155-1.78-8.401-0.672-12.756C183.479,85.559,187.51,82.444,193.023,80.44z"/>
			<path d="M106.61,121.94c-2.212-2.438-4.444-4.857-6.607-7.336c-0.303-0.348-0.356-1.004-0.356-1.515
				c-0.017-25.404-0.045-50.807,0.003-76.21c0.014-7.336,5.797-13.225,13.045-13.249c20.149-0.063,40.299-0.069,60.45-0.004
				c7.666,0.026,13.351,5.66,13.424,13.355c0.117,12.222,0.045,24.449,0.004,36.675c-0.004,0.538-0.336,1.257-0.758,1.582
				c-2.092,1.605-4.267,3.11-6.506,4.718c0-11.622,0-23.323,0-35.145c-24.16,0-48.123,0-72.266,0c0,25.676,0,51.313,0,76.947
				C106.896,121.819,106.754,121.878,106.61,121.94z M143.077,34.368c0-0.003,0-0.01,0-0.016c-3.191,0-6.382,0.008-9.574-0.003
				c-1.453-0.004-2.272,0.666-2.268,1.902c0.004,1.093,1.029,2.017,2.321,2.012c6.329-0.026,12.657-0.075,18.986-0.107
				c1.276-0.006,2.278-0.366,2.375-1.839c0.083-1.237-0.793-1.934-2.419-1.942C149.359,34.357,146.218,34.368,143.077,34.368z"/>
			<path d="M179.252,174.084c0-18.743,0-37.234,0-55.726c0.087-0.022,0.175-0.042,0.262-0.064c0.944,2.438,1.887,4.877,2.834,7.313
				c0.371,0.958,0.647,1.965,1.129,2.863c2.724,5.052,3.418,10.418,3.189,16.112c-0.277,7.027-0.062,14.075-0.062,21.113
				c0,7.998,0,15.996,0,23.994c0,8.709-5.615,14.356-14.279,14.36c-19.602,0-39.201,0.021-58.804-0.034
				c-1.909-0.006-3.815-0.464-5.806-0.941c4.297-3.276,6.292-7.504,6.174-12.696c-0.115-5.011-2.071-9.338-5.236-13.228
				c0.785-0.911,1.475-1.893,2.35-2.654c0.406-0.352,1.179-0.396,1.783-0.396c21.442-0.016,42.885-0.016,64.326-0.016
				C177.751,174.084,178.389,174.084,179.252,174.084z M143.193,180.939c-4.928-0.004-8.571,3.66-8.583,8.631
				c-0.01,4.644,3.845,8.457,8.504,8.418c4.799-0.045,8.556-3.821,8.527-8.588C151.618,184.688,147.88,180.939,143.193,180.939z"/>
			<path d="M73.517,122.034c0.063-3.335,1.802-6.413,5.46-8.164c4.083-1.954,8.003-1.229,11.319,1.667
				c2.352,2.053,4.33,4.529,6.456,6.834c1.941,2.11,3.873,4.227,5.772,6.376c2.262,2.559,3.59,5.521,3.563,8.986
				c-0.039,4.937-3.888,8.289-8.791,7.697c-2.926-0.355-5.54-1.457-7.737-3.429c-4.107-3.683-8.201-7.38-12.261-11.118
				C74.728,128.516,73.596,125.943,73.517,122.034z"/>
			<path d="M79.653,143.289c1.399,1.271,2.729,2.467,4.042,3.674c4.189,3.846,9.038,6.059,14.804,6.072
				c0.396,0,0.926,0.078,1.168,0.336c2.678,2.828,5.424,5.604,6.283,9.648c1.409,6.644-3.145,11.133-9.686,9.256
				c-2.12-0.608-4.25-1.73-5.953-3.135c-3.885-3.191-7.579-6.631-11.213-10.111c-3.1-2.973-4.435-6.627-3.219-10.917
				C76.492,145.953,77.52,144.725,79.653,143.289z"/>
			<path d="M79.83,170.021c1.864,1.684,3.337,3.019,4.822,4.348c4.459,3.982,9.599,6.164,15.665,5.88
				c0.354-0.017,0.846-0.005,1.051,0.209c3.13,3.192,5.458,6.806,4.841,11.517c-0.483,3.705-3.456,5.809-7.195,5.426
				c-3.178-0.328-5.937-1.605-8.302-3.717c-3.149-2.809-6.301-5.619-9.377-8.508c-3.096-2.912-4.843-6.425-3.738-10.756
				C77.975,172.941,78.992,171.626,79.83,170.021z"/>
			<path d="M92.081,106.356c-1.77-0.804-3.326-1.507-4.88-2.218c-2.063-0.949-4.153-1.85-6.177-2.873
				c-3.656-1.848-6.303-4.606-7.094-8.747c-0.872-4.562,2.212-8.615,7.066-9.657c3.689-0.792,7.078,0.14,10.409,1.543
				c0.302,0.132,0.648,0.613,0.648,0.934C92.094,92.252,92.081,99.166,92.081,106.356z"/>
		</g>
	</g>
	<g>
		<path fill="#5BB033" d="M108.217,153.247v-3.117c7.43-5.164,11.144-9.319,11.144-12.469c0-2.181-1.349-3.274-4.053-3.274
			c-2.284,0-4.439,0.57-6.465,1.715v-3.74c2.025-1.04,4.181-1.559,6.465-1.559c5.455,0,8.183,2.181,8.183,6.545
			c0,3.845-2.977,7.949-8.929,12.313h8.929v3.585L108.217,153.247L108.217,153.247z"/>
		<path fill="#5BB033" d="M141.367,153.247h-4.13v-4.833h-11.254v-3.116l9.119-14.338h4.428l-8.822,14.182h6.529v-7.449h4.13v7.449
			l2.306,2.118v1.154h-2.306V153.247z"/>
		<path d="M148.896,153.247h-4.439l11.296-22.287h4.44L148.896,153.247z"/>
		<path fill="#5BB033" d="M162.145,130.96h15.896v3.271l-10.006,19.016h-4.536l10.162-18.703h-11.516V130.96z"/>
	</g>
</g>
</svg>
