<?xml version="1.0" encoding="utf-8"?>
<!-- Generator: Adobe Illustrator 16.0.0, SVG Export Plug-In . SVG Version: 6.00 Build 0)  -->
<!DOCTYPE svg PUBLIC "-//W3C//DTD SVG 1.1//EN" "http://www.w3.org/Graphics/SVG/1.1/DTD/svg11.dtd">
<svg version="1.1" id="Capa_1" xmlns="http://www.w3.org/2000/svg" xmlns:xlink="http://www.w3.org/1999/xlink" x="0px" y="0px"
	 width="237.589px" height="238.234px" viewBox="31.205 30.883 237.589 238.234"
	 enable-background="new 31.205 30.883 237.589 238.234" xml:space="preserve">
<g>
	<path fill="#5AB035" d="M268.73,188.441c0,25.841-0.035,51.682,0.06,77.521c0.01,2.499-0.625,3.178-3.142,3.153
		c-13.828-0.128-27.652-0.108-41.476-0.015c-2.187,0.015-2.879-0.537-2.879-2.81c0.063-51.997,0.063-103.999,0-155.997
		c-0.006-2.278,0.67-2.818,2.86-2.801c13.826,0.096,27.648,0.111,41.473-0.007c2.457-0.02,3.177,0.566,3.167,3.113
		C268.691,136.55,268.73,162.496,268.73,188.441z"/>
	<path fill="#010203" d="M157.697,205.352c0-20.3,0.049-40.599-0.061-60.897c-0.015-2.512,0.641-3.113,3.11-3.093
		c14.028,0.127,28.058,0.099,42.087,0.019c1.98-0.009,2.714,0.36,2.709,2.572c-0.074,40.812-0.07,81.627-0.005,122.437
		c0.003,2.139-0.626,2.666-2.688,2.655c-14.135-0.079-28.271-0.094-42.406,0.011c-2.238,0.02-2.807-0.576-2.797-2.804
		C157.734,245.95,157.697,225.65,157.697,205.352z"/>
	<path fill="#010203" d="M201.225,62.768c-5.062-4.731-9.922-9.328-14.847-13.852c-1.828-1.677-1.458-2.524,0.802-3.113
		c18.943-4.901,37.877-9.827,56.813-14.743c0.276-0.074,0.575-0.082,1.317-0.177c-5.432,19.747-10.799,39.254-16.238,59.027
		c-5.123-4.904-10.075-9.542-14.883-14.324c-1.283-1.276-2.078-1.237-3.397-0.146c-35.778,29.603-75.021,53.762-116.696,74.074
		c-17.866,8.708-36.104,16.569-54.565,23.925c-1.711,0.679-2.503,0.635-3.139-1.33c-1.138-3.515-2.507-6.961-3.997-10.34
		c-0.785-1.789-0.396-2.42,1.381-3.125c20.339-8.058,40.359-16.851,59.929-26.645c37.27-18.657,72.432-40.611,104.781-66.965
		C199.309,64.363,200.121,63.684,201.225,62.768z"/>
	<path fill="#5AB035" d="M94.357,222.03c0-14.456,0.062-28.909-0.062-43.362c-0.018-2.527,0.424-3.424,3.224-3.389
		c13.92,0.166,27.844,0.143,41.764,0.014c2.449-0.023,2.969,0.686,2.961,3.025c-0.079,29.226-0.074,58.449-0.005,87.676
		c0.005,2.24-0.379,3.146-2.922,3.123c-14.027-0.128-28.058-0.135-42.084,0c-2.523,0.023-2.938-0.828-2.923-3.09
		C94.403,251.359,94.357,236.695,94.357,222.03z"/>
	<path fill="#010203" d="M78.503,239.068c0,9.134-0.047,18.271,0.04,27.402c0.015,1.877-0.409,2.586-2.446,2.571
		c-14.233-0.084-28.469-0.063-42.705-0.009c-1.645,0.004-2.192-0.454-2.187-2.139c0.055-18.59,0.049-37.181,0-55.771
		c-0.003-1.498,0.359-1.99,1.931-1.986c14.445,0.062,28.896,0.084,43.34-0.014c2.16-0.016,2.053,1.048,2.045,2.532
		C78.485,220.794,78.503,229.932,78.503,239.068z"/>
</g>
</svg>
