<?xml version="1.0" encoding="utf-8"?>
<!-- Generator: Adobe Illustrator 16.0.0, SVG Export Plug-In . SVG Version: 6.00 Build 0)  -->
<!DOCTYPE svg PUBLIC "-//W3C//DTD SVG 1.1//EN" "http://www.w3.org/Graphics/SVG/1.1/DTD/svg11.dtd">
<svg version="1.1" id="Capa_1" xmlns="http://www.w3.org/2000/svg" xmlns:xlink="http://www.w3.org/1999/xlink" x="0px" y="0px"
	 width="280.7px" height="190.866px" viewBox="11.651 54.567 280.7 190.866" enable-background="new 11.651 54.567 280.7 190.866"
	 xml:space="preserve">
<g>
	<path d="M226.116,115.963c9.057,0,17.698-0.006,26.333,0c4.648,0.004,5.789,1.274,5.789,6.449c0,38.32,0,76.642,0,114.965
		c0,6.188-0.982,7.298-6.379,7.298c-25.44,0-50.877,0.004-76.318,0.004c-5.038,0-6.163-1.276-6.167-7.017
		c-0.009-5.725-0.035-11.448,0.017-17.173c0.021-1.702-0.229-2.689-2.08-2.665c-7.869,0.092-15.744,0.04-24.089,0.04
		c0.296,3.544,0.552,6.956,0.87,10.36c0.304,3.264,0.561,6.551,1.094,9.771c0.155,0.937,1.06,2.136,1.852,2.437
		c2.169,0.823,4.455,1.254,6.706,1.799c1.499,0.357,1.989,1.248,1.253,3.147c-1.364,0-2.807,0-4.249,0
		c-21.586,0.004-43.168,0.013-64.753,0.013c-0.514,0-1.072,0.129-1.529-0.058c-0.546-0.222-1.442-0.786-1.407-1.087
		c0.087-0.699,0.503-1.706,1.01-1.928c1.978-0.866,4.099-1.316,6.046-2.252c0.828-0.401,1.802-1.518,1.956-2.465
		c1.044-6.354,1.884-12.758,2.846-19.541c-1.162-0.076-2.135-0.192-3.106-0.192c-23.81-0.009-47.62-0.005-71.428-0.009
		c-6.666,0-8.716-2.332-8.722-9.906c-0.005-48.123-0.009-96.245-0.009-144.364c0-6.45,2.231-9.012,7.906-9.012
		c66.293-0.01,132.587-0.014,198.884-0.004c5.389,0,7.668,2.617,7.675,8.683c0.003,16.396,0,32.792,0,49.188
		C226.116,113.494,226.116,114.546,226.116,115.963z M22.655,66.359c0,1.159,0,2.107,0,3.059c0,38.517,0.026,77.033-0.053,115.55
		c-0.003,2.665,0.757,3.188,2.94,3.183c46.936-0.062,93.875-0.047,140.81-0.051c0.91,0,1.812-0.094,2.916-0.148
		c0-1.489,0-2.643,0-3.794c0.004-20.568,0.004-41.138,0.004-61.706c0-4.94,1.332-6.493,5.594-6.493
		c12.253-0.006,24.502-0.006,36.752-0.006c0.908,0,1.816,0,2.777,0c0-16.735,0-33.088,0-49.592
		C150.474,66.359,86.71,66.359,22.655,66.359z M178.445,230.729c0.812,0.068,1.32,0.148,1.824,0.148
		c22.771,0.004,45.539-0.036,68.313,0.068c2.468,0.013,2.478-1.328,2.478-3.385c-0.026-32.775-0.021-65.549-0.022-98.321
		c0-1.014-0.104-2.027-0.165-3.015c-24.314,0-48.327,0-72.426,0C178.445,161.109,178.445,195.79,178.445,230.729z M125.215,203.32
		c0.053-3.408-2.464-6.33-5.492-6.383c-2.97-0.049-5.644,2.847-5.712,6.189c-0.067,3.355,2.429,6.206,5.548,6.33
		C122.59,209.579,125.159,206.789,125.215,203.32z M213.677,241.199c1.82-0.049,3.313-1.751,3.111-3.737
		c-0.216-2.112-1.399-3.315-3.253-3.284c-1.881,0.036-2.969,1.325-3.078,3.452C210.35,239.701,211.811,241.247,213.677,241.199z"/>
	<path d="M264.691,214.938c0-8.236-0.019-16.481,0.004-24.724c0.011-3.793,1.129-5.062,4.423-5.078
		c6.333-0.026,12.666-0.036,19.002,0c2.938,0.017,4.2,1.395,4.209,4.773c0.028,16.679,0.028,33.354,0,50.032
		c-0.004,3.381-1.259,4.789-4.19,4.806c-6.422,0.036-12.839,0.032-19.258,0c-2.928-0.017-4.164-1.429-4.181-4.793
		C264.674,231.617,264.691,223.279,264.691,214.938z M289.636,235.872c0-14.508,0-28.679,0-42.824c-7.375,0-14.518,0-21.633,0
		c0,14.399,0,28.577,0,42.824C275.3,235.872,282.383,235.872,289.636,235.872z M281.844,240.376c-1.504-1.2-2.35-2.399-3.057-2.3
		c-0.781,0.107-1.797,1.309-1.991,2.229c-0.119,0.545,1.104,2.022,1.791,2.082C279.381,242.455,280.249,241.428,281.844,240.376z"/>
	<path fill="#5BB033" d="M162.499,116.28c0,4.689,0,9.225,0,13.983c-42.723,0-85.4,0-128.284,0c0-4.528,0-9.127,0-13.983
		C76.845,116.28,119.513,116.28,162.499,116.28z"/>
	<path d="M162.932,140.108c0,4.769,0,9.289,0,14.15c-1.402,0-2.658,0-3.918,0c-40.508-0.004-81.02-0.027-121.527,0.057
		c-2.474,0.004-3.274-0.754-3.101-3.56c0.216-3.458,0.053-6.948,0.053-10.647C77.34,140.108,120.019,140.108,162.932,140.108z"/>
	<path d="M34.667,92.64c0-4.608,0-9.042,0-13.732c0.928-0.056,1.754-0.152,2.578-0.152c13.188-0.008,26.375,0.046,39.564-0.061
		c2.174-0.016,3.114,0.494,2.926,3.18c-0.208,2.99-0.085,6.009-0.039,9.016c0.02,1.417-0.361,2.156-1.742,2.151
		c-14.131-0.038-28.257-0.038-42.389-0.063C35.328,92.978,35.091,92.805,34.667,92.64z"/>
	<path fill="#5BB033" d="M80.341,176.887c0-4.761,0-9.293,0-14.064c12.292,0,24.529,0,36.91,0c0,4.691,0,9.287,0,14.064
		C104.984,176.887,92.802,176.887,80.341,176.887z"/>
	<path d="M162.979,163.371c0,4.686,0,9.12,0,13.824c-12.309,0-24.554,0-36.927,0c0-4.575,0-9.088,0-13.824
		C138.325,163.371,150.502,163.371,162.979,163.371z"/>
	<path d="M71.684,176.369c-12.436,0-24.63,0-37.123,0c0-4.301-0.062-8.442,0.074-12.577c0.016-0.519,1.074-1.413,1.652-1.417
		c11.22-0.084,22.437-0.08,33.66,0.004c0.583,0.005,1.643,0.893,1.662,1.401C71.748,167.919,71.684,172.068,71.684,176.369z"/>
	<path d="M189.585,78.211c4.308,0,8.315,0,12.558,0c0,4.749,0,9.411,0,14.221c-4.24,0-8.307,0-12.558,0
		C189.585,87.694,189.585,83.094,189.585,78.211z"/>
	<path fill="#5BB033" d="M185.327,153.299c18.928,0,37.663,0,56.79,0c0,2.301,0.115,4.504-0.075,6.676
		c-0.053,0.59-0.974,1.445-1.569,1.543c-1.429,0.231-2.904,0.084-4.363,0.084c-15.588,0.004-31.176,0-46.771,0
		c-1.271,0-2.546,0-4.012,0C185.327,158.75,185.327,156.193,185.327,153.299z"/>
	<path d="M185.262,173.939c0-2.381,0-4.651,0-7.125c18.749,0,37.363,0,56.168,0c0,2.349,0,4.621,0,7.125
		C222.756,173.939,204.082,173.939,185.262,173.939z"/>
	<path d="M241.512,200.312c0,2.519,0,4.727,0,7.174c-18.587,0-37.088,0-55.742,0c0-2.403,0-4.68,0-7.174
		C204.291,200.312,222.788,200.312,241.512,200.312z"/>
	<path d="M185.732,220.542c0-2.444,0-4.646,0-7.058c18.543,0,36.98,0,55.642,0c0,2.256,0,4.517,0,7.058
		C222.957,220.542,204.463,220.542,185.732,220.542z"/>
	<path d="M185.327,179.456c5.224,0,10.313,0,15.562,0c0,5.021,0,9.896,0,14.944c-5.174,0-10.264,0-15.562,0
		C185.327,189.562,185.327,184.693,185.327,179.456z"/>
	<path d="M241.42,194.453c-5.3,0-10.335,0-15.525,0c0-4.998,0-9.875,0-14.969c5.168,0,10.254,0,15.525,0
		C241.42,184.43,241.42,189.314,241.42,194.453z"/>
	<path fill="#5BB033" d="M206.424,194.373c0-5.114,0-9.911,0-14.885c4.903,0,9.639,0,14.555,0c0,4.934,0,9.807,0,14.885
		C216.174,194.373,211.366,194.373,206.424,194.373z"/>
	<path d="M211.134,142.32c-8.522,0-16.809,0-25.3,0c0-2.313,0-4.557,0-7.019c8.396,0,16.738,0,25.3,0
		C211.134,137.551,211.134,139.797,211.134,142.32z"/>
	<path d="M228.255,141.955c0-2.22,0-4.369,0-6.676c4.46,0,8.748,0,13.188,0c0,2.258,0,4.34,0,6.676
		C237.086,141.955,232.734,141.955,228.255,141.955z"/>
	<path fill="#5BB033" d="M285.253,207.046c0,1.421,0,2.569,0,3.974c-5.058,0-10.03,0-15.116,0c0-1.353,0-2.567,0-3.974
		C275.171,207.046,280.094,207.046,285.253,207.046z"/>
	<path d="M287.891,227.859c-0.056,1.305-0.091,2.132-0.129,3.106c-5.746,0-11.33,0-17.085,0c-0.077-1.444-0.879-3.083,1.349-3.096
		C277.201,227.84,282.379,227.859,287.891,227.859z"/>
	<path d="M277.793,215.913c-0.268,2.224,0.032,5.517-0.859,5.997c-1.731,0.936-4.396,0.956-6.145,0.044
		c-0.92-0.481-0.716-3.726-1.072-6.041C272.484,215.913,274.822,215.913,277.793,215.913z"/>
	<path d="M286.934,200.258c-5.674,0-11.129,0-16.678,0c-0.447-1.795-0.326-2.814,1.617-2.777c4.449,0.088,8.9,0.088,13.347-0.004
		C287.05,197.439,287.493,198.238,286.934,200.258z"/>
</g>
</svg>
