<?xml version="1.0" encoding="utf-8"?>
<!-- Generator: Adobe Illustrator 16.0.0, SVG Export Plug-In . SVG Version: 6.00 Build 0)  -->
<!DOCTYPE svg PUBLIC "-//W3C//DTD SVG 1.1//EN" "http://www.w3.org/Graphics/SVG/1.1/DTD/svg11.dtd">
<svg version="1.1" id="Capa_1" xmlns="http://www.w3.org/2000/svg" xmlns:xlink="http://www.w3.org/1999/xlink" x="0px" y="0px"
	 width="202.365px" height="232.018px" viewBox="48.817 33.991 202.365 232.018"
	 enable-background="new 48.817 33.991 202.365 232.018" xml:space="preserve">
<g>
	<g>
		<path d="M249.432,72.172c-0.287-2.254-1.425-2.834-3.412-3.256c-14.131-3.008-28.375-5.66-42.328-9.406
			c-19.254-5.215-37.776-12.367-53.85-25.519c-10.339,9.584-22.645,15.558-35.592,20.371C94.836,61.56,74.774,66.064,54.336,68.959
			c-1.959,0.27-3.43,0.579-3.765,3.234c-2.229,17.295-2.43,34.569-0.044,51.865c3.409,24.918,11.366,48.256,24.048,69.961
			c17.766,30.401,42.169,54.027,72.886,71.215c1.915,1.07,3.316,1,5.146-0.022c28.082-15.67,51.062-36.823,68.381-63.923
			C246.238,161.771,255.382,118.616,249.432,72.172z M238.193,121.895c-3.922,29.955-14.799,57.149-32.496,81.597
			c-14.352,19.795-32.141,35.888-53.07,48.504c-1.872,1.113-3.187,1.245-5.101,0.044c-45.67-28.219-73.932-68.517-84.296-121.229
			c-3.073-15.667-3.631-31.492-2.408-47.386c0.201-2.607,0.78-3.965,3.901-4.501c23.468-4.036,46.541-9.695,68.114-20.172
			c5.973-2.894,11.632-6.44,17.609-9.783c26.031,16.583,55.609,24.227,85.812,30.021c1.803,0.334,2.473,0.914,2.674,2.721
			C240.338,95.126,239.934,108.521,238.193,121.895z"/>
		<path fill="#5BB033" d="M218.384,95.24c-12.303-3.1-24.252-5.794-35.997-9.116c-11.811-3.343-22.955-8.358-32.361-15.959
			C129.9,86.189,105.984,90.203,81.801,94.661c-0.226,0.915-0.491,1.829-0.604,2.765c-1.694,13.082-1.672,26.207,0.758,39.179
			c7.691,41.104,29.845,72.059,66.128,92.834c1.007,0.578,2.878,0.513,3.927-0.066c12.213-6.578,23.025-15.002,32.45-25.165
			c20.772-22.421,32.519-48.922,35.039-79.37C220.32,114.743,220.189,104.599,218.384,95.24z M181.542,191.26
			c0,2.251-1.026,3.139-3.521,3.163c-5.82,0.022-11.637,0-17.453,0h-37.759c-3.32,0-3.988-0.582-4.323-3.877
			c-0.043-0.536-0.043-1.071-0.043-1.606v-40.207c0-0.292-0.021-0.583,0-0.892c0.157-3.592,0.844-4.258,4.457-4.258h3.365
			c2.116-0.022,2.543-0.422,2.543-2.607c0.021-5.172,0.266-10.365-0.048-15.516c-0.688-11.545,8.605-18.318,17.386-19.567
			c8.093-1.158,15.267,0.801,20.997,6.93c2.785,2.986,4.19,6.6,4.19,10.722v17.453c0,2.164,0.401,2.563,2.562,2.586
			c1.541,0,3.076-0.044,4.592,0.022c2.121,0.063,3.057,0.957,3.057,3.029C181.586,161.5,181.586,176.389,181.542,191.26z"/>
		<path fill="#5BB033" d="M157.564,181.695c0.377,2.027-0.021,2.494-2.121,2.494c-1.828,0.026-3.651,0-5.458,0
			c-1.872,0-3.766,0.026-5.642,0c-1.845,0-2.316-0.578-1.98-2.381c0.622-3.344,1.249-6.666,1.914-10.009
			c0.245-1.229,0.245-2.187-0.8-3.278c-3.235-3.387-2.966-8.823,0.356-12.08c3.365-3.25,8.692-3.32,12.103-0.135
			c3.479,3.258,3.9,8.45,0.691,11.992c-1.141,1.251-1.186,2.315-0.893,3.723C156.381,175.252,156.959,178.466,157.564,181.695z"/>
		<path fill="#5BB033" d="M164.387,123.989c0,5.707,0,11.414-0.021,17.095c0,2.098-0.4,2.499-2.45,2.499h-23.626
			c-2.321,0-2.677-0.357-2.677-2.63c0-5.642,0.021-11.279,0-16.917c-0.022-3.078,1.184-5.572,3.435-7.579
			c5.881-5.285,15.959-5.264,21.844-0.022C163.186,118.438,164.387,120.937,164.387,123.989z"/>
	</g>
	<path d="M225.924,90.568c-0.222-1.719-1.089-2.163-2.604-2.485c-10.791-2.299-21.668-4.323-32.318-7.184
		c-14.706-3.982-28.85-9.446-41.125-19.483c-7.894,7.316-17.287,11.879-27.177,15.552c-14.823,5.499-30.143,8.933-45.748,11.149
		c-1.498,0.204-2.621,0.439-2.879,2.468c-1.701,13.208-1.85,26.398-0.029,39.602c2.604,19.028,8.681,36.854,18.361,53.431
		c13.565,23.212,32.202,41.253,55.656,54.377c1.463,0.817,2.533,0.762,3.931-0.019c21.439-11.967,38.992-28.117,52.213-48.81
		C223.49,158.989,230.468,126.034,225.924,90.568z M217.348,128.538c-2.998,22.878-11.307,43.642-24.816,62.312
		c-10.958,15.115-24.54,27.405-40.521,37.039c-1.432,0.85-2.434,0.948-3.899,0.029c-34.868-21.544-56.452-52.316-64.367-92.571
		c-2.346-11.968-2.772-24.047-1.836-36.185c0.151-1.994,0.596-3.025,2.978-3.438c17.921-3.083,35.539-7.401,52.012-15.402
		c4.562-2.211,8.884-4.919,13.446-7.47c19.878,12.663,42.462,18.501,65.526,22.924c1.375,0.257,1.884,0.697,2.041,2.081
		C218.979,108.1,218.675,118.329,217.348,128.538z"/>
</g>
</svg>
