<?xml version="1.0" encoding="utf-8"?>
<!-- Generator: Adobe Illustrator 16.0.0, SVG Export Plug-In . SVG Version: 6.00 Build 0)  -->
<!DOCTYPE svg PUBLIC "-//W3C//DTD SVG 1.1//EN" "http://www.w3.org/Graphics/SVG/1.1/DTD/svg11.dtd" [
	<!ENTITY ns_flows "http://ns.adobe.com/Flows/1.0/">
	<!ENTITY ns_extend "http://ns.adobe.com/Extensibility/1.0/">
	<!ENTITY ns_ai "http://ns.adobe.com/AdobeIllustrator/10.0/">
	<!ENTITY ns_graphs "http://ns.adobe.com/Graphs/1.0/">
]>
<svg version="1.1" id="Capa_1" xmlns:x="&ns_extend;" xmlns:i="&ns_ai;" xmlns:graph="&ns_graphs;"
	 xmlns="http://www.w3.org/2000/svg" xmlns:xlink="http://www.w3.org/1999/xlink" xmlns:a="http://ns.adobe.com/AdobeSVGViewerExtensions/3.0/"
	 x="0px" y="0px" width="800px" height="700px" viewBox="0 0 800 700" style="enable-background:new 0 0 800 700;"
	 xml:space="preserve">
<style type="text/css">
<![CDATA[
	.st0{fill-rule:evenodd;clip-rule:evenodd;fill:#7386A1;}
	.st1{fill:#B2B1B2;}
	.st2{fill:#1A1A1A;}
	.st3{fill-rule:evenodd;clip-rule:evenodd;fill:#E1A7B3;}
	.st4{fill-rule:evenodd;clip-rule:evenodd;fill:#ED7587;}
	.st5{fill-rule:evenodd;clip-rule:evenodd;fill:#EFC589;}
	.st6{fill:#C8E0B8;}
	.st7{fill:#7386A1;stroke:#7385A0;stroke-width:3;stroke-miterlimit:10;}
	.st8{fill-rule:evenodd;clip-rule:evenodd;fill:#BDBEC0;}
	.st9{fill:#FFFFFF;}
	.st10{fill:#CCCBCB;}
	.st11{fill-rule:evenodd;clip-rule:evenodd;fill:#CCCBCB;stroke:#CCCACB;stroke-width:2;stroke-miterlimit:10;}
	.st12{fill-rule:evenodd;clip-rule:evenodd;fill:#F9B648;}
	.st13{fill-rule:evenodd;clip-rule:evenodd;fill:#C4C4C4;}
	.st14{fill:#6D7373;}
	.st15{fill-rule:evenodd;clip-rule:evenodd;fill:#FFFFFF;}
	.st16{fill-rule:evenodd;clip-rule:evenodd;fill:#64BEAF;}
	.st17{fill-rule:evenodd;clip-rule:evenodd;fill:#CCCBCB;}
	.st18{fill-rule:evenodd;clip-rule:evenodd;fill:#6FBEEA;}
	.st19{opacity:0.8;fill:#EDECEC;}
]]>
</style>
<g>
	<circle class="st6" cx="400" cy="350" r="340.92"/>
	<g>
		<g>
			<g>
				<g>
					<path class="st1" d="M491.704,598H310.686c0,0,28.832-7.859,28.832-83.404c0-24.816,124.085-30.924,124.085-2.093
						C463.603,590.97,491.704,598,491.704,598z"/>
					<path class="st10" d="M496,607.081c0,1.612-1.307,2.919-2.919,2.919H310.919c-1.612,0-2.919-1.307-2.919-2.919v-6.162
						c0-1.612,1.307-2.919,2.919-2.919h182.162c1.612,0,2.919,1.307,2.919,2.919V607.081z"/>
				</g>
				<path class="st10" d="M670,515.862c0,9.674-8.042,18.138-17.716,18.138H150.106c-9.675,0-18.106-8.464-18.106-18.138V468h538
					V515.862z"/>
				<path class="st2" d="M670,165.505c0-9.674-8.042-17.505-17.716-17.505H150.106c-9.675,0-18.106,7.831-18.106,17.505V468h538
					V165.505z"/>
				<rect x="162" y="177" class="st9" width="482" height="266"/>
			</g>
		</g>
		<g>
			<path class="st13" d="M384.744,201.2c-11.73,0-23.461-0.004-35.191,0.003c-2.416,0.001-4.705,0.183-4.786-3.427
				c-0.076-3.429,1.499-4.42,4.594-4.415c23.656,0.04,47.313,0.036,70.968-0.005c2.726-0.004,4.412,0.574,4.468,3.855
				c0.063,3.704-1.989,4.033-4.862,4.016C408.203,201.162,396.475,201.2,384.744,201.2z"/>
			<path class="st16" d="M368.017,433.351c-11.064-0.002-11.064-0.002-11.064-11.014c0-11.112,0-11.113,10.866-11.113
				c11.26,0,11.26,0.001,11.26,11.208C379.078,433.351,379.078,433.351,368.017,433.351z"/>
			<path class="st8" d="M473.049,421.836c0.178-12.174-1.564-10.499,10.583-10.592c11.658-0.088,11.714-0.018,11.643,11.892
				c-0.07,11.708,1.402,10.19-10.288,10.332c-0.195,0.002-0.392,0-0.587,0C473.048,433.468,473.048,433.468,473.049,421.836z"/>
			<path class="st18" d="M386.118,421.936c0-10.711,0-10.711,10.599-10.712c11.526,0,11.526,0,11.526,11.615
				c0,10.509,0,10.509-10.388,10.509c-0.193,0-0.389,0-0.583,0C386.118,433.348,386.118,433.348,386.118,421.936z"/>
			<path class="st16" d="M203.737,215.66c-10.833,0.001-10.833,0.001-10.833-10.708c-0.001-11.497-0.001-11.497,11.292-11.496
				c10.913,0,10.913,0,10.913,10.788C215.109,215.659,215.109,215.659,203.737,215.66z"/>
			<path class="st13" d="M287.054,201.201c-8.198,0.001-16.396-0.022-24.594,0.014c-2.533,0.011-4.587-0.099-4.63-3.589
				c-0.044-3.539,1.771-4.271,4.739-4.264c16.591,0.038,33.182,0.049,49.773-0.015c2.877-0.012,4.24,0.856,4.245,4.011
				c0.006,3.266-1.572,3.902-4.354,3.873C303.84,201.143,295.447,201.199,287.054,201.201z"/>
			<path class="st0" d="M350.236,422.525c0,10.822,0,10.822-10.71,10.822c-11.137,0-11.137,0-11.137-10.862
				c0-11.259,0-11.259,11.206-11.259C350.236,411.227,350.236,411.227,350.236,422.525z"/>
			<path class="st13" d="M250.899,215.55c-8.188,0-16.374-0.023-24.561,0.012c-2.529,0.011-4.645-0.115-4.673-3.575
				c-0.027-3.292,1.731-3.82,4.45-3.811c16.569,0.052,33.138,0.055,49.707-0.001c2.771-0.009,4.348,0.607,4.314,3.881
				c-0.037,3.572-2.219,3.506-4.675,3.501C267.273,215.54,259.087,215.551,250.899,215.55z"/>
			<path class="st13" d="M215.119,222.447c5.869-0.001,11.74,0.065,17.609-0.031c2.607-0.042,3.951,0.706,3.958,3.624
				c0.006,2.849-0.693,4.38-3.901,4.355c-11.935-0.094-23.871-0.084-35.806-0.006c-3.108,0.021-4.037-1.38-4.014-4.303
				c0.021-2.879,1.331-3.704,3.958-3.666C202.987,222.509,209.053,222.448,215.119,222.447z"/>
			<path class="st13" d="M374.662,208.206c5.855,0.004,11.711,0.047,17.564-0.016c2.519-0.026,4.059,0.608,4.061,3.574
				c0,2.783-1.139,3.809-3.837,3.797c-12.101-0.055-24.2-0.045-36.3,0.004c-2.527,0.012-4.039-0.648-4.092-3.578
				c-0.06-3.302,1.734-3.851,4.455-3.813C362.563,208.259,368.613,208.201,374.662,208.206z"/>
			<path class="st13" d="M236.131,201.208c-3.502,0.002-7.007-0.076-10.506,0.027c-2.591,0.078-4.052-0.726-3.993-3.607
				c0.051-2.463,0.65-4.235,3.528-4.236c7.588-0.002,15.176,0.01,22.765-0.015c2.793-0.009,3.654,1.519,3.705,4.079
				c0.055,2.742-1.091,3.861-3.824,3.78C243.917,201.122,240.023,201.208,236.131,201.208z"/>
			<path class="st13" d="M330.849,208.213c3.7,0.004,7.401,0.046,11.1-0.012c2.402-0.038,3.553,0.945,3.6,3.438
				c0.051,2.653-0.906,3.955-3.715,3.924c-7.205-0.078-14.411-0.069-21.616,0c-2.65,0.025-3.881-0.933-3.876-3.745
				c0.005-2.896,1.428-3.687,3.991-3.629C323.836,208.269,327.343,208.209,330.849,208.213z"/>
			<path class="st13" d="M254.685,222.438c2.15-0.004,4.301-0.002,6.452-0.004c2.383-0.001,4.735-0.273,4.796,3.38
				c0.054,3.277-1.187,4.645-4.435,4.577c-4.69-0.1-9.386-0.123-14.074,0.008c-3.294,0.092-3.788-1.686-3.803-4.439
				c-0.016-2.982,1.487-3.644,4.027-3.538C249.989,222.518,252.339,222.441,254.685,222.438z"/>
			<path class="st13" d="M298.695,208.246c2.541,0,5.083,0.008,7.625-0.003c2.293-0.009,2.993,1.287,3.009,3.38
				c0.017,2.208-0.373,3.902-3.093,3.894c-5.28-0.015-10.56-0.031-15.838,0.027c-2.624,0.029-3.259-1.386-3.266-3.71
				c-0.006-2.387,0.781-3.694,3.349-3.631c2.736,0.069,5.476,0.016,8.213,0.016C298.695,208.228,298.695,208.237,298.695,208.246z"
				/>
			<path class="st13" d="M331.073,201.184c-1.548,0-3.096-0.016-4.644,0.004c-2.732,0.034-3.033-1.771-3.053-3.891
				c-0.021-2.166,0.412-3.888,3.069-3.908c2.321-0.019,4.646,0.026,6.965-0.069c3.108-0.128,5.248,0.507,5.186,4.376
				c-0.064,3.972-2.689,3.521-5.202,3.536c-0.774,0.004-1.548,0.001-2.322,0.001C331.073,201.216,331.073,201.199,331.073,201.184z"
				/>
		</g>
		<g>
			<path class="st17" d="M277.178,282.057c-3.044-2.752-7.541-2.74-10.044,0.029l-72.708,80.409
				c-2.502,2.768-2.064,7.243,0.98,9.995l0,0c3.044,2.753,7.541,2.74,10.044-0.027l72.708-80.409
				C280.661,289.285,280.222,284.81,277.178,282.057L277.178,282.057z"/>
			<path class="st17" d="M358.402,344.252c2.516-3.243,2.354-7.579-0.363-9.687l-78.9-61.215c-2.717-2.107-6.958-1.187-9.474,2.056
				l0,0c-2.515,3.242-2.353,7.58,0.363,9.687l78.9,61.215C351.646,348.415,355.886,347.495,358.402,344.252L358.402,344.252z"/>
			<path class="st17" d="M389.161,256.635c-3.814-1.517-7.775-0.558-8.848,2.141l-31.167,78.385c-1.072,2.7,1.15,6.116,4.965,7.633
				l0,0c3.813,1.515,7.773,0.557,8.848-2.141l31.165-78.386C395.197,261.568,392.975,258.151,389.161,256.635L389.161,256.635z"/>
			<path class="st17" d="M385.713,255.174c-3.169,2.61-4.084,6.732-2.043,9.208l59.24,71.919c2.039,2.475,6.26,2.367,9.43-0.243l0,0
				c3.166-2.608,4.08-6.73,2.043-9.208l-59.242-71.917C393.102,252.456,388.881,252.565,385.713,255.174L385.713,255.174z"/>
			<path class="st17" d="M484.399,264.215c-3.574-2.02-7.427-1.965-8.605,0.123l-34.266,60.624
				c-1.179,2.087,0.762,5.416,4.335,7.437l0,0c3.571,2.017,7.424,1.962,8.605-0.123l34.263-60.625
				C489.913,269.563,487.971,266.234,484.399,264.215L484.399,264.215z"/>
			<path class="st17" d="M481.236,267.471c-2.173,3.484-2.283,7.335-0.248,8.603l59.089,36.849c2.034,1.268,5.444-0.528,7.617-4.011
				l0,0c2.169-3.481,2.281-7.332,0.248-8.603l-59.091-36.846C486.816,262.193,483.409,263.99,481.236,267.471L481.236,267.471z"/>
			<path class="st17" d="M534.14,310.683c2.387,3.341,6.243,4.675,8.614,2.979l68.872-49.202c2.371-1.694,2.357-5.773-0.027-9.116
				l0,0c-2.386-3.337-6.24-4.669-8.613-2.979l-68.869,49.204C531.741,303.265,531.756,307.343,534.14,310.683L534.14,310.683z"/>
			<g>
				<circle class="st12" cx="612.948" cy="256.084" r="18.804"/>
				<circle class="st15" cx="612.954" cy="256.39" r="5.048"/>
			</g>
			<g>
				<circle class="st4" cx="539.895" cy="305.831" r="18.804"/>
				<circle class="st15" cx="539.9" cy="306.137" r="5.048"/>
			</g>
			<g>
				<circle class="st18" cx="483.935" cy="269.959" r="18.804"/>
				<circle class="st15" cx="483.94" cy="270.265" r="5.048"/>
			</g>
			<g>
				<circle class="st5" cx="447.616" cy="326.981" r="18.804"/>
				<circle class="st15" cx="447.622" cy="327.288" r="5.048"/>
			</g>
			<g>
				<circle class="st16" cx="388.685" cy="262.198" r="18.804"/>
				<circle class="st15" cx="388.69" cy="262.504" r="5.048"/>
			</g>
			<g>
				<circle class="st3" cx="277.179" cy="281.001" r="18.804"/>
				<circle class="st15" cx="277.184" cy="281.308" r="5.048"/>
			</g>
		</g>
		<path class="st4" d="M437.22,422.524c0,10.822,0,10.822-10.71,10.822c-11.135,0-11.135,0-11.135-10.862
			c0-11.26,0-11.26,11.205-11.26C437.22,411.225,437.22,411.225,437.22,422.524z"/>
		<path class="st12" d="M466.954,422.524c0,10.822,0,10.822-10.71,10.822c-11.135,0-11.135,0-11.135-10.862
			c0-11.26,0-11.26,11.207-11.26C466.954,411.225,466.954,411.225,466.954,422.524z"/>
		<path class="st14" d="M471.533,455.861c-3.729,3.856-9.817,4.021-13.599,0.363l-70.013-67.697
			c-3.781-3.656-3.824-9.746-0.096-13.602l0,0c3.729-3.857,9.818-4.021,13.599-0.361l70.013,67.695
			C475.22,445.917,475.262,452.006,471.533,455.861L471.533,455.861z"/>
		<path class="st19" d="M402.285,337.964c0,28.337-22.966,51.305-51.305,51.305c-28.337,0-51.304-22.968-51.304-51.305
			c0-28.338,22.967-51.305,51.304-51.305C379.319,286.66,402.285,309.626,402.285,337.964z"/>
		<g>
			<path class="st11" d="M346.332,333.686c-3.465,4.42-9.171,5.731-12.746,2.929l-26.598-20.859
				c-3.575-2.803-3.661-8.658-0.194-13.078l0,0c3.465-4.419,9.172-5.731,12.746-2.929l26.6,20.861
				C349.713,323.411,349.799,329.266,346.332,333.686L346.332,333.686z"/>
			<path class="st11" d="M353.691,335.208c-4.86-2.335-7.108-7.748-5.021-12.091l15.537-32.322
				c2.085-4.343,7.717-5.969,12.576-3.634l0,0c4.859,2.335,7.105,7.749,5.021,12.091l-15.537,32.324
				C364.182,335.917,358.549,337.544,353.691,335.208L353.691,335.208z"/>
			<g>
				<circle class="st18" cx="351.726" cy="334.13" r="28.317"/>
				<circle class="st15" cx="351.733" cy="334.591" r="7.603"/>
			</g>
		</g>
		<path class="st7" d="M350.98,389.27c-28.337,0-51.304-22.968-51.304-51.305c0-28.338,22.967-51.305,51.304-51.305
			c28.339,0,51.305,22.966,51.305,51.305C402.285,366.302,379.319,389.27,350.98,389.27z M350.98,280.002
			c-32.012,0-57.961,25.95-57.961,57.962c0,32.012,25.949,57.961,57.961,57.961c32.014,0,57.963-25.949,57.963-57.961
			C408.943,305.952,382.994,280.002,350.98,280.002z"/>
	</g>
</g>
</svg>
