<?xml version="1.0" encoding="utf-8"?>
<!-- Generator: Adobe Illustrator 16.0.0, SVG Export Plug-In . SVG Version: 6.00 Build 0)  -->
<!DOCTYPE svg PUBLIC "-//W3C//DTD SVG 1.1//EN" "http://www.w3.org/Graphics/SVG/1.1/DTD/svg11.dtd">
<svg version="1.1" id="Capa_1" xmlns="http://www.w3.org/2000/svg" xmlns:xlink="http://www.w3.org/1999/xlink" x="0px" y="0px"
	 width="605.399px" height="475.876px" viewBox="47.3 75.544 605.399 475.876" enable-background="new 47.3 75.544 605.399 475.876"
	 xml:space="preserve">
<path fill="none" d="M338.995,300"/>
<g>
	<g>
		<path fill="#F1F0EE" d="M238.107,310.064c1.777-6.11,4.934-11.415,9.467-15.592c3.17-2.925,6.951-5.385,10.832-7.294
			c4.998-2.457,10.538-3.671,16.132-3.37c3.511,0.188,7.081,1.022,10.419,2.162c2.915,0.994,5.021,0.645,7.245-1.423
			c5.542-5.153,11.869-9.187,18.522-12.786c7.148-3.868,14.646-6.805,22.521-8.653c5.094-1.197,10.309-2.017,15.516-2.551
			c4.772-0.49,9.619-0.684,14.404-0.432c4.946,0.262,9.896,1.01,14.778,1.909c10.397,1.918,20.233,5.583,29.311,10.958
			c5.563,3.294,10.816,7.159,15.968,11.083c5.54,4.22,10.051,9.506,14.344,14.974c0.364,0.462,1.664,0.436,2.454,0.274
			c4.052-0.823,8.044-2.289,12.121-2.559c9.08-0.593,17.31,2.271,24.574,7.716c6.479,4.859,10.831,11.258,12.964,19.09
			c0.744,2.729,1.394,5.521,1.68,8.324c0.122,1.235-0.457,2.803-1.236,3.826c-6.277,8.227-14.079,14.754-23.237,19.467
			c-6.282,3.231-12.971,5.601-20.086,6.312c-4.389,0.438-8.804,0.872-13.211,0.876c-62.139,0.057-124.271,0.064-186.413,0.012
			c-9.13-0.008-17.276-3.216-24.508-8.705c-6.293-4.775-10.84-10.925-13.427-18.4c-0.551-1.596-0.623-3.553-0.296-5.221
			c1.563-7.957,6.029-13.972,13.193-17.635c2.642-1.351,5.806-1.822,8.793-2.292C233.182,309.779,235.531,310.064,238.107,310.064z"
			/>
		<path fill="#F0EFED" d="M332.488,363.71c-28.439,0-56.875-0.01-85.314-0.036c-8.946-0.008-17.452-3.025-25.281-8.967
			c-6.557-4.979-11.222-11.372-13.864-19.005c-0.599-1.732-0.725-3.935-0.342-5.892c1.634-8.318,6.429-14.726,13.869-18.526
			c2.754-1.409,5.901-1.903,8.944-2.382l0.232-0.036c0.839-0.134,1.745-0.193,2.847-0.193c0.72,0,1.453,0.024,2.204,0.052
			c0.454,0.018,0.911,0.033,1.376,0.043c1.918-6.043,5.125-11.165,9.546-15.239c3.075-2.836,6.925-5.431,11.136-7.501
			c5.259-2.586,11.066-3.805,16.767-3.5c3.333,0.178,6.956,0.927,10.765,2.228c2.559,0.873,4.085,0.593,5.958-1.149
			c4.934-4.587,10.901-8.709,18.785-12.974c7.39-3.999,15.074-6.95,22.839-8.773c4.871-1.143,10.146-2.011,15.679-2.579
			c5.148-0.528,10.062-0.674,14.603-0.436c4.343,0.23,8.95,0.825,14.939,1.929c10.564,1.947,20.567,5.687,29.737,11.115
			c5.653,3.348,11.075,7.345,16.09,11.167c5.716,4.355,10.328,9.801,14.457,15.053c0.196,0.041,0.851,0.053,1.306-0.042
			c1.392-0.28,2.812-0.649,4.186-1.008c2.627-0.684,5.34-1.39,8.106-1.572c9.02-0.593,17.602,2.101,25.428,7.968
			c6.708,5.029,11.229,11.683,13.437,19.781c0.632,2.31,1.396,5.363,1.718,8.529c0.169,1.695-0.631,3.603-1.495,4.734
			c-6.372,8.355-14.338,15.027-23.673,19.832c-7.133,3.671-13.853,5.777-20.54,6.445c-4.334,0.434-8.813,0.879-13.338,0.885
			C399.889,363.691,366.182,363.71,332.488,363.71z M233.579,311.24c-0.965,0-1.743,0.051-2.447,0.162l-0.234,0.037
			c-2.844,0.447-5.786,0.908-8.176,2.131c-6.808,3.48-11.018,9.111-12.518,16.736c-0.3,1.531-0.207,3.232,0.249,4.553
			c2.473,7.146,6.843,13.132,12.989,17.797c7.374,5.598,15.36,8.438,23.736,8.445c62.14,0.053,124.272,0.045,186.411-0.011
			c4.398-0.006,8.814-0.444,13.084-0.872c6.364-0.634,12.782-2.654,19.626-6.176c8.992-4.626,16.665-11.054,22.803-19.104
			c0.644-0.842,1.065-2.094,0.983-2.918c-0.304-2.973-1.033-5.896-1.64-8.111c-2.056-7.535-6.259-13.723-12.499-18.401
			c-7.33-5.497-15.331-8.019-23.723-7.463c-2.521,0.165-5.004,0.81-7.629,1.495c-1.407,0.366-2.863,0.743-4.317,1.04
			c-0.414,0.085-0.894,0.132-1.34,0.132c-1.128,0-1.929-0.295-2.384-0.873c-4.051-5.163-8.565-10.522-14.105-14.744
			c-4.957-3.774-10.304-7.719-15.844-11.001c-8.907-5.272-18.628-8.908-28.893-10.799c-5.88-1.084-10.386-1.667-14.612-1.89
			c-4.407-0.231-9.188-0.089-14.205,0.427c-5.426,0.556-10.592,1.405-15.355,2.522c-7.542,1.772-15.013,4.644-22.203,8.533
			c-7.686,4.159-13.49,8.162-18.26,12.598c-2.556,2.377-5.027,2.892-8.533,1.698c-3.588-1.225-6.977-1.929-10.075-2.095
			c-5.266-0.283-10.628,0.847-15.496,3.24c-3.991,1.964-7.633,4.415-10.53,7.087c-4.298,3.961-7.36,9.008-9.105,15.006l-0.27,0.928
			h-0.961c-0.827,0-1.631-0.029-2.416-0.059C234.972,311.266,234.27,311.24,233.579,311.24z"/>
	</g>
	<g>
		<path fill="#D8DDDF" d="M491.494,334.305c0,16.258,0,33.555,0,50.853c0,0.819-0.116,1.659,0.017,2.456
			c0.989,5.906-2.094,10.234-5.46,14.494c-6.853,8.658-15.881,13.65-26.581,15.72c-3.01,0.581-6.12,0.901-9.182,0.903
			c-67.052,0.05-134.101,0.074-201.154-0.002c-10.427-0.016-20.007-3.145-28.281-9.632c-5.069-3.979-8.996-8.999-11.958-14.741
			c-0.32-0.625-0.514-1.396-0.514-2.098c-0.028-19.311-0.021-38.623-0.015-57.938c0-0.182,0.079-0.356,0.187-0.834
			c2.633,6.484,6.462,11.822,11.499,16.195c5.646,4.9,12.074,8.498,19.569,9.537c4.581,0.635,9.244,0.909,13.869,0.913
			c61.694,0.058,123.383,0.079,185.08-0.004c8.99-0.009,17.647-2.104,25.855-5.842c6.699-3.05,12.761-7.05,18.108-12.167
			C485.541,339.245,488.803,336.637,491.494,334.305z M300.285,387.912c9.674,0,19.343,0.009,29.018-0.003
			c3.669-0.007,5.845-2.179,5.887-5.812c0.011-0.895,0.03-1.789-0.006-2.684c-0.123-3.105-2.314-5.35-5.434-5.354
			c-19.423-0.026-38.842-0.041-58.259,0.053c-1.242,0.005-2.589,0.793-3.695,1.516c-2.515,1.641-1.781,4.318-1.81,6.7
			c-0.038,3.237,2.304,5.577,5.506,5.58C281.088,387.917,290.687,387.912,300.285,387.912z M300.555,404.916
			c9.67,0,19.345,0.006,29.017-0.014c0.714-0.001,1.463-0.099,2.14-0.317c3.558-1.154,3.815-4.938,3.404-8.167
			c-0.336-2.616-2.934-4.461-5.984-4.465c-19.047-0.02-38.095-0.006-57.142-0.012c-2.118-0.004-4.065,0.654-5.042,2.513
			c-0.703,1.339-0.886,3.051-0.934,4.604c-0.118,3.896,1.893,5.854,5.744,5.856C281.355,404.916,290.955,404.916,300.555,404.916z
			 M413.522,380.312c-3.515,0.004-5.993,2.426-5.989,5.836c0.01,3.195,2.703,5.906,5.883,5.775c3.482-0.146,5.9-2.79,5.751-6.15
			C419.026,382.643,416.727,380.307,413.522,380.312z M365.19,391.491c2.743,0.579,5.443-2.075,5.613-5.448
			c0.147-2.889-2.897-5.736-5.709-5.73c-3.205,0.004-5.762,2.554-5.808,5.643C359.246,388.675,361.858,392.107,365.19,391.491z
			 M389.051,391.491c3.375-0.007,5.558-2.234,5.527-5.649c-0.025-2.99-2.662-5.566-5.664-5.529
			c-3.076,0.037-5.508,2.637-5.494,5.871C383.436,389.376,385.688,391.498,389.051,391.491z"/>
		<path fill="#D8DDDF" d="M341.059,420.062c-30.646,0-61.279-0.017-91.926-0.051c-10.928-0.016-20.708-3.349-29.071-9.904
			c-5.005-3.928-9.146-9.032-12.306-15.162c-0.418-0.815-0.658-1.795-0.658-2.688c-0.027-18.85-0.021-37.701-0.014-56.555v-1.385
			c0-0.279,0.061-0.506,0.121-0.729c0.027-0.1,0.061-0.225,0.1-0.391l0.903-3.979l1.534,3.777c2.544,6.27,6.191,11.407,11.15,15.711
			c6.104,5.295,12.288,8.314,18.906,9.234c4.291,0.594,8.899,0.896,13.694,0.899c32.591,0.03,65.188,0.052,97.776,0.052
			c0.034,0,0.071,0,0.102,0c31.05,0,59.571-0.019,87.196-0.055c8.483-0.011,17.009-1.936,25.332-5.727
			c6.699-3.055,12.672-7.064,17.753-11.926c2.138-2.045,4.343-3.905,6.476-5.707c0.878-0.739,1.727-1.457,2.526-2.148l2.122-1.839
			v53.66c0,0.278-0.013,0.559-0.026,0.841c-0.021,0.508-0.042,0.99,0.026,1.398c1.054,6.304-2.105,10.932-5.721,15.508
			c-6.759,8.542-15.96,13.981-27.344,16.183c-3.173,0.614-6.345,0.926-9.423,0.926C413.88,420.041,377.459,420.062,341.059,420.062z
			 M209.649,338.8c-0.006,17.819-0.011,35.64,0.015,53.458c0,0.49,0.14,1.055,0.373,1.51c2.991,5.801,6.896,10.619,11.609,14.321
			c7.9,6.194,17.151,9.343,27.489,9.355c67.053,0.077,134.103,0.053,201.153,0.002c2.915-0.002,5.923-0.298,8.938-0.88
			c10.763-2.08,19.451-7.21,25.818-15.258c3.368-4.264,6.083-8.221,5.203-13.484c-0.115-0.676-0.084-1.321-0.061-1.943
			c0.012-0.24,0.021-0.484,0.021-0.725v-48.069c-0.142,0.122-0.287,0.244-0.432,0.364c-2.103,1.775-4.275,3.609-6.354,5.598
			c-5.288,5.061-11.5,9.235-18.464,12.406c-8.659,3.943-17.537,5.947-26.389,5.957c-27.623,0.038-56.15,0.057-87.2,0.057
			c-0.033,0-0.064,0-0.102,0c-32.591,0-65.188-0.021-97.78-0.051c-4.912-0.006-9.636-0.316-14.043-0.927
			c-7.124-0.985-13.743-4.205-20.233-9.839C215.276,347.236,212.12,343.329,209.649,338.8z M310.762,406.203l-39.004-0.003
			c-2.311,0-4.1-0.641-5.315-1.896c-1.204-1.244-1.779-3.021-1.711-5.285c0.045-1.418,0.204-3.494,1.082-5.164
			c1.1-2.094,3.232-3.2,6.166-3.2l13.532,0.001h16.386c9.078,0,18.157,0.002,27.236,0.011c3.79,0.004,6.841,2.354,7.254,5.586
			c0.829,6.48-1.869,8.771-4.279,9.555c-0.762,0.249-1.639,0.38-2.534,0.38C323.303,406.2,317.032,406.203,310.762,406.203z
			 M300.555,403.633l10.207,0.001c6.27,0,12.539-0.003,18.81-0.016c0.631-0.002,1.233-0.09,1.745-0.254
			c0.807-0.264,3.261-1.06,2.527-6.782c-0.245-1.904-2.271-3.342-4.713-3.344c-9.078-0.01-18.157-0.01-27.233-0.01h-16.386
			l-13.521-0.002c-1.958,0-3.27,0.613-3.908,1.824c-0.629,1.2-0.75,2.886-0.787,4.049c-0.046,1.54,0.286,2.69,0.988,3.414
			c0.714,0.74,1.885,1.114,3.476,1.116L300.555,403.633z M413.197,393.212c-0.003,0-0.003,0-0.003,0
			c-3.755,0-6.935-3.231-6.942-7.06c-0.005-2.004,0.729-3.82,2.062-5.121c1.323-1.289,3.174-2.004,5.208-2.006h0.014
			c3.834,0,6.743,2.813,6.914,6.69c0.088,1.958-0.559,3.794-1.819,5.173c-1.29,1.408-3.123,2.23-5.159,2.315
			C413.379,393.211,413.287,393.212,413.197,393.212z M413.534,380.312l-0.009,1.285c-1.383,0.002-2.567,0.444-3.423,1.275
			c-0.846,0.822-1.286,1.954-1.286,3.273c0.007,2.436,2.011,4.494,4.378,4.494l0.167-0.002c1.354-0.059,2.552-0.584,3.376-1.486
			c0.797-0.871,1.204-2.051,1.146-3.321c-0.11-2.492-1.896-4.233-4.351-4.233L413.534,380.312L413.534,380.312z M365.952,392.855
			c-0.26,0-0.519-0.021-0.772-0.062c-1.82,0.256-3.646-0.419-5.05-1.846c-1.337-1.362-2.149-3.285-2.124-5.016
			c0.06-3.803,3.237-6.902,7.088-6.906c1.778,0,3.672,0.883,5.069,2.358c1.304,1.372,2.006,3.095,1.922,4.724
			C371.898,389.829,369.146,392.855,365.952,392.855z M365.207,390.182l0.248,0.053c1.954,0.41,3.939-1.709,4.068-4.254
			c0.048-0.931-0.398-1.959-1.22-2.824c-0.913-0.961-2.138-1.557-3.2-1.557c-2.468,0.004-4.497,1.965-4.535,4.375
			c-0.017,1.053,0.526,2.297,1.39,3.172c0.508,0.517,1.347,1.133,2.451,1.133c0.181,0,0.367-0.018,0.551-0.051L365.207,390.182z
			 M389.057,392.775c-4.064,0-6.902-2.709-6.922-6.588c-0.017-3.969,2.953-7.117,6.765-7.162l0.079-0.002
			c3.699,0,6.853,3.117,6.884,6.808c0.019,2.035-0.632,3.776-1.875,5.032C392.756,392.109,391.053,392.771,389.057,392.775z
			 M388.979,380.311l-0.049,1.287c-2.381,0.028-4.239,2.041-4.228,4.579c0.012,2.484,1.67,4.031,4.333,4.031
			c1.312-0.004,2.389-0.401,3.127-1.149c0.753-0.762,1.145-1.867,1.134-3.205c-0.021-2.269-2.036-4.256-4.316-4.256L388.979,380.311
			L388.979,380.311z M318.032,389.2l-17.747-0.005l-17.627,0.003c-3.723,0-7.445-0.003-11.167-0.005c-1.904,0-3.64-0.7-4.891-1.967
			c-1.245-1.266-1.918-3.012-1.896-4.914c0.006-0.426-0.017-0.861-0.037-1.299c-0.101-2.108-0.226-4.73,2.426-6.465
			c1.302-0.848,2.84-1.716,4.391-1.724c10.12-0.048,21.169-0.072,33.776-0.072c8.163,0,16.325,0.011,24.489,0.022
			c3.74,0.004,6.565,2.773,6.716,6.586c0.031,0.801,0.021,1.597,0.011,2.369l-0.005,0.383c-0.05,4.357-2.795,7.07-7.165,7.08
			C325.547,389.198,321.79,389.2,318.032,389.2z M300.285,386.627l17.747,0.002c3.757,0,7.514-0.001,11.269-0.004
			c2.937-0.007,4.571-1.618,4.604-4.54l0.006-0.39c0.009-0.772,0.019-1.498-0.008-2.229c-0.1-2.462-1.769-4.112-4.158-4.118
			c-8.162-0.014-16.323-0.021-24.485-0.021c-12.604,0-23.647,0.022-33.764,0.073c-1.005,0.004-2.405,0.914-3.002,1.305
			c-1.354,0.885-1.364,2.104-1.264,4.186c0.022,0.491,0.045,0.979,0.039,1.457c-0.016,1.209,0.395,2.303,1.158,3.075
			c0.764,0.774,1.854,1.203,3.066,1.203c3.721,0.002,7.443,0.003,11.165,0.003L300.285,386.627z"/>
	</g>
	<g>
		<path fill="#C4C8CA" d="M300.323,387.021c-9.373,0-18.745,0.004-28.117,0c-3.529-0.004-5.356-1.791-5.332-5.276
			c0.01-1.241-0.09-2.576,0.319-3.703c0.743-2.031,2.421-3.097,4.613-3.099c19.192-0.014,38.381-0.023,57.574,0.012
			c2.945,0.005,4.831,2.048,4.921,5.042c0.128,4.192-0.859,6.092-3.66,6.847c-0.699,0.189-1.464,0.172-2.197,0.172
			C319.068,387.025,309.697,387.021,300.323,387.021z"/>
		<path fill="#C5C7C9" d="M281.578,388.309h-9.375c-2.131,0-3.793-0.588-4.938-1.744c-1.125-1.135-1.689-2.76-1.675-4.826
			c0.002-0.221,0-0.441,0-0.665c-0.009-1.095-0.018-2.333,0.395-3.47c0.917-2.506,3.038-3.94,5.818-3.94
			c19.192-0.019,38.384-0.024,57.578,0.008c3.596,0.007,6.086,2.532,6.201,6.286c0.103,3.378-0.363,6.984-4.611,8.129
			c-0.799,0.215-1.6,0.215-2.305,0.215h-0.224c-4.891,0.008-9.781,0.008-14.67,0.008h-13.452H281.578L281.578,388.309z
			 M300.718,376.219c-9.637,0-19.274,0.004-28.911,0.012c-1.181,0.002-2.728,0.392-3.411,2.254c-0.255,0.703-0.249,1.609-0.24,2.568
			c0.001,0.239,0.003,0.475,0,0.705c-0.009,1.354,0.303,2.362,0.931,2.995c0.645,0.653,1.694,0.983,3.119,0.983l9.373,0.002
			l18.745-0.002l13.452,0.002c4.89,0,9.776-0.002,14.666-0.008h0.163c0.64,0,1.232,0,1.705-0.127
			c1.896-0.511,2.835-1.514,2.713-5.567c-0.073-2.372-1.435-3.792-3.642-3.796C319.823,376.223,310.271,376.219,300.718,376.219z"/>
	</g>
	<g>
		<path fill="#C4C8CA" d="M300.584,404.022c-9.444,0-18.892-0.08-28.333,0.046c-3.447,0.044-5.211-2.034-5.402-4.47
			c-0.372-4.683,1.374-6.218,5.001-6.757c0.291-0.044,0.596-0.01,0.893-0.01c18.592,0,37.184-0.005,55.776,0.006
			c3.146,0.001,5.342,1.488,5.726,4.034c0.42,2.801-0.253,6.056-2.97,6.813c-0.759,0.212-1.568,0.321-2.356,0.321
			C319.474,404.033,310.029,404.022,300.584,404.022z"/>
		<path fill="#C5C7C9" d="M272.143,405.356c-3.724,0-6.305-2.223-6.572-5.657c-0.397-5.004,1.423-7.434,6.093-8.129
			c0.27-0.041,0.564-0.038,0.851-0.026l0.229,0.005l29.637-0.004c8.715,0,17.426,0.003,26.142,0.008
			c3.838,0.002,6.518,1.969,6.991,5.13c0.516,3.419-0.49,7.293-3.892,8.24c-0.867,0.244-1.8,0.373-2.7,0.373
			c-5.205,0.014-10.409,0.015-15.615,0.015l-12.723-0.001c-2.65,0-5.301-0.006-7.951-0.014c-2.648-0.005-5.296-0.011-7.944-0.011
			c-4.859,0-8.806,0.021-12.42,0.067L272.143,405.356z M272.193,394.105c-0.051,0-0.099,0-0.148,0.01
			c-2.912,0.431-4.238,1.347-3.917,5.382c0.161,2.061,1.66,3.288,4.014,3.288l0.093-0.002c3.625-0.048,7.583-0.069,12.454-0.069
			c2.651,0,5.3,0.005,7.951,0.012c2.648,0.007,5.296,0.013,7.944,0.013l12.723,0.003c5.204,0,10.406-0.003,15.61-0.016
			c0.674-0.002,1.371-0.098,2.015-0.275c2.163-0.604,2.303-3.669,2.045-5.384c-0.399-2.653-3.25-2.939-4.457-2.939
			c-8.714-0.008-17.427-0.009-26.14-0.009l-29.637,0.001c-0.106,0-0.213-0.001-0.322-0.006L272.193,394.105z"/>
	</g>
	<g>
		<path fill="#3EB29E" d="M418.252,385.824c0.027,2.729-2.203,5.136-4.831,5.216c-2.353,0.073-4.952-2.44-5.001-4.833
			c-0.048-2.73,2.15-4.941,4.987-5.004C416.008,381.146,418.223,383.259,418.252,385.824z"/>
		<path fill="#3CB29D" d="M413.322,392.327c-3.062,0-6.124-3.021-6.184-6.095c-0.062-3.465,2.68-6.238,6.239-6.316l0.13-0.001
			c3.288,0,5.989,2.646,6.024,5.896c0.036,3.428-2.746,6.414-6.072,6.515L413.322,392.327z M413.509,382.484
			c-2.202,0.048-3.841,1.674-3.804,3.699c0.031,1.635,1.992,3.574,3.617,3.574l0.06-0.002c1.933-0.061,3.608-1.891,3.586-3.918
			C416.949,384.021,415.365,382.484,413.509,382.484z"/>
	</g>
	<g>
		<path fill="#9FCEC7" d="M369.574,386.114c0.002,2.825-1.673,4.493-4.504,4.483c-2.643-0.005-4.804-2.043-4.876-4.599
			c-0.065-2.259,2.382-4.696,4.809-4.793C367.348,381.119,369.571,383.509,369.574,386.114z"/>
		<path fill="#9FCDC6" d="M365.092,391.887h-0.022c-3.355-0.008-6.062-2.576-6.155-5.849c-0.084-2.965,2.906-5.994,6.038-6.114
			l0.179-0.006c2.992,0,5.723,2.953,5.728,6.193c0.002,1.729-0.535,3.185-1.557,4.207
			C368.278,391.346,366.824,391.887,365.092,391.887z M365.13,382.488c-1.795,0.068-3.7,1.92-3.656,3.474
			c0.057,1.877,1.64,3.349,3.602,3.353l0.018,1.285v-1.285c1.05,0,1.857-0.271,2.395-0.811c0.537-0.538,0.808-1.341,0.805-2.389
			C368.288,384.285,366.725,382.488,365.13,382.488z"/>
	</g>
	<g>
		<path fill="#3EB39E" d="M389.021,390.6c-2.516,0.01-4.703-2.06-4.715-4.457c-0.01-2.572,2.171-4.896,4.64-4.938
			c2.188-0.039,4.804,2.436,4.716,4.652C393.562,388.549,391.696,390.71,389.021,390.6z"/>
		<path fill="#3CB29E" d="M389.215,391.891c-0.082,0-0.164-0.002-0.246-0.006c-0.002,0-0.002,0-0.002,0
			c-3.19,0.002-5.93-2.628-5.94-5.738c-0.013-3.263,2.744-6.172,5.896-6.229h0.002c1.505,0,3.088,0.758,4.307,2.023
			c1.142,1.191,1.767,2.636,1.715,3.967C394.815,389.316,392.354,391.891,389.215,391.891z M388.994,382.484
			c-1.801,0.033-3.412,1.774-3.404,3.652c0.007,1.693,1.604,3.178,3.416,3.178l0.209,0.004c1.993,0,3.102-1.767,3.167-3.51
			c0.022-0.627-0.35-1.408-1-2.086C390.659,382.973,389.722,382.484,388.994,382.484z"/>
	</g>
	<g>
		<path fill="#D8DDDF" d="M491.494,400.122c0,16.239,0,33.502,0,50.765c0,0.82-0.116,1.658,0.017,2.455
			c0.989,5.895-2.094,10.212-5.46,14.463c-6.853,8.65-15.881,13.646-26.581,15.712c-3.01,0.584-6.12,0.899-9.182,0.905
			c-67.052,0.048-134.101,0.073-201.154-0.006c-10.427-0.011-20.007-3.14-28.281-9.627c-5.069-3.979-8.996-8.986-11.958-14.721
			c-0.32-0.623-0.514-1.392-0.514-2.094c-0.028-19.271-0.021-38.55-0.015-57.837c0-0.18,0.079-0.357,0.187-0.835
			c2.633,6.485,6.462,11.815,11.499,16.176c5.646,4.895,12.074,8.482,19.569,9.521c4.581,0.631,9.244,0.909,13.869,0.912
			c61.694,0.059,123.383,0.078,185.08-0.003c8.99-0.015,17.647-2.102,25.855-5.831c6.699-3.045,12.761-7.038,18.108-12.144
			C485.541,405.061,488.803,402.455,491.494,400.122z M300.285,453.639c9.674,0,19.343,0.012,29.018-0.005
			c3.669-0.005,5.845-2.173,5.887-5.798c0.011-0.893,0.03-1.787-0.006-2.679c-0.123-3.1-2.314-5.34-5.434-5.343
			c-19.423-0.029-38.842-0.045-58.259,0.052c-1.242,0.007-2.589,0.791-3.695,1.51c-2.515,1.641-1.781,4.315-1.81,6.69
			c-0.038,3.229,2.304,5.566,5.506,5.57C281.088,453.644,290.687,453.639,300.285,453.639z M300.555,470.608
			c9.67,0,19.345,0.007,29.017-0.015c0.714-0.002,1.463-0.097,2.14-0.312c3.558-1.156,3.815-4.933,3.404-8.154
			c-0.336-2.614-2.934-4.451-5.984-4.454c-19.047-0.02-38.095-0.006-57.142-0.014c-2.118,0-4.065,0.655-5.042,2.508
			c-0.703,1.335-0.886,3.046-0.934,4.599c-0.118,3.885,1.893,5.842,5.744,5.842C281.355,470.611,290.955,470.608,300.555,470.608z
			 M413.522,446.05c-3.515,0.009-5.993,2.424-5.989,5.828c0.01,3.189,2.703,5.896,5.883,5.762c3.482-0.143,5.9-2.783,5.751-6.136
			C419.026,448.381,416.727,446.045,413.522,446.05z M365.19,457.212c2.743,0.576,5.443-2.069,5.613-5.438
			c0.147-2.889-2.897-5.729-5.709-5.722c-3.205,0.005-5.762,2.545-5.808,5.629C359.246,454.402,361.858,457.828,365.19,457.212z
			 M389.051,457.211c3.375-0.005,5.558-2.229,5.527-5.64c-0.025-2.983-2.662-5.556-5.664-5.521c-3.076,0.04-5.508,2.635-5.494,5.863
			C383.436,455.097,385.688,457.221,389.051,457.211z"/>
		<path fill="#D8DDDF" d="M341.436,485.751c-30.769,0-61.535-0.015-92.303-0.051c-10.928-0.012-20.708-3.343-29.071-9.902
			c-5.005-3.929-9.146-9.02-12.306-15.141c-0.418-0.812-0.658-1.788-0.658-2.683c-0.027-18.812-0.021-37.629-0.014-56.456v-1.381
			c0-0.277,0.059-0.499,0.122-0.729c0.027-0.104,0.06-0.227,0.099-0.393l0.905-3.973l1.532,3.773
			c2.546,6.27,6.191,11.4,11.15,15.694c6.102,5.284,12.285,8.299,18.906,9.218c4.31,0.597,8.917,0.896,13.693,0.898
			c61.695,0.058,123.383,0.079,185.075-0.002c8.492-0.012,17.013-1.936,25.329-5.716c6.702-3.049,12.675-7.053,17.756-11.904
			c2.13-2.035,4.326-3.893,6.454-5.686c0.886-0.75,1.742-1.473,2.548-2.171l2.122-1.842v53.577c0,0.28-0.013,0.56-0.026,0.841
			c-0.021,0.51-0.042,0.989,0.026,1.398c1.057,6.288-2.105,10.908-5.721,15.476c-6.762,8.536-15.963,13.979-27.344,16.175
			c-3.157,0.611-6.329,0.925-9.423,0.929C414.003,485.73,377.715,485.751,341.436,485.751z M209.649,404.617
			c-0.006,17.788-0.011,35.574,0.015,53.356c0,0.49,0.14,1.055,0.373,1.509c2.991,5.787,6.896,10.598,11.609,14.297
			c7.899,6.196,17.149,9.343,27.489,9.354c67.053,0.079,134.099,0.054,201.153,0.006c2.929-0.006,5.938-0.303,8.938-0.885
			c10.763-2.076,19.448-7.208,25.818-15.247c3.368-4.252,6.083-8.201,5.203-13.456c-0.118-0.678-0.084-1.349-0.061-1.938
			c0.012-0.243,0.021-0.485,0.021-0.728v-47.982c-0.15,0.126-0.3,0.256-0.451,0.384c-2.098,1.768-4.266,3.597-6.335,5.577
			c-5.288,5.048-11.5,9.214-18.464,12.381c-8.651,3.934-17.527,5.933-26.389,5.946c-61.696,0.082-123.386,0.061-185.082,0.002
			c-4.892-0.002-9.618-0.312-14.043-0.924c-7.127-0.986-13.747-4.197-20.233-9.818C215.276,413.044,212.12,409.143,209.649,404.617z
			 M311.234,471.894l-17.88-0.002l-7.198,0.002l-14.399-0.003c-2.311-0.001-4.1-0.636-5.315-1.891
			c-1.204-1.24-1.779-3.015-1.711-5.273c0.045-1.416,0.204-3.489,1.082-5.154c1.101-2.09,3.237-3.193,6.177-3.193l28.572,0.002
			c9.524,0,19.048,0.002,28.571,0.01c3.79,0.007,6.841,2.351,7.254,5.572c0.829,6.468-1.869,8.757-4.279,9.538
			c-0.762,0.245-1.638,0.376-2.532,0.378C323.46,471.891,317.349,471.894,311.234,471.894z M300.555,469.326l10.68,0.002
			c6.113,0,12.223-0.003,18.336-0.018c0.632,0,1.237-0.087,1.748-0.253c0.802-0.261,3.256-1.056,2.523-6.769
			c-0.243-1.897-2.271-3.33-4.713-3.336c-9.524-0.008-19.045-0.01-28.568-0.01l-28.572-0.001c-1.954,0-3.27,0.612-3.908,1.823
			c-0.629,1.194-0.75,2.876-0.787,4.038c-0.046,1.537,0.286,2.686,0.988,3.409c0.714,0.736,1.885,1.11,3.475,1.11l14.399,0.003
			H300.555z M413.194,458.93c-3.755-0.001-6.935-3.229-6.942-7.047c-0.005-1.999,0.729-3.812,2.062-5.111
			c1.323-1.286,3.174-1.999,5.208-2.005h0.014c3.834,0,6.743,2.812,6.914,6.682c0.088,1.954-0.562,3.79-1.821,5.167
			c-1.292,1.403-3.123,2.225-5.157,2.31C413.376,458.925,413.284,458.93,413.194,458.93z M413.534,446.05l-0.009,1.284
			c-1.383,0.002-2.567,0.442-3.423,1.275c-0.846,0.82-1.286,1.95-1.286,3.266c0.007,2.432,2.011,4.486,4.378,4.488l0.169-0.004
			c1.352-0.057,2.55-0.582,3.374-1.48c0.797-0.87,1.204-2.05,1.146-3.318c-0.11-2.488-1.896-4.227-4.351-4.227L413.534,446.05
			L413.534,446.05z M365.952,458.573c-0.26,0-0.519-0.021-0.772-0.06c-1.816,0.253-3.646-0.421-5.05-1.843
			c-1.337-1.358-2.149-3.279-2.124-5.009c0.06-3.793,3.237-6.886,7.088-6.894c1.78,0,3.672,0.88,5.069,2.351
			c1.304,1.373,2.006,3.094,1.922,4.72C371.898,455.554,369.146,458.573,365.952,458.573z M365.207,455.906l0.248,0.051
			c0.164,0.034,0.333,0.052,0.497,0.052c1.816,0,3.455-1.969,3.571-4.3c0.048-0.928-0.398-1.955-1.22-2.822
			c-0.913-0.955-2.138-1.551-3.195-1.551c-2.473,0.006-4.502,1.964-4.54,4.366c-0.017,1.052,0.526,2.295,1.392,3.169
			c0.506,0.515,1.345,1.132,2.445,1.132c0.183,0,0.371-0.018,0.552-0.051L365.207,455.906z M389.055,458.492
			c-4.065,0-6.9-2.703-6.92-6.574c-0.017-3.962,2.953-7.104,6.765-7.151h0.075c3.703,0,6.855,3.11,6.888,6.793
			c0.019,2.035-0.632,3.773-1.875,5.029C392.754,457.832,391.049,458.489,389.055,458.492z M388.975,446.05l-0.045,1.284
			c-2.381,0.029-4.239,2.039-4.228,4.572c0.012,2.479,1.67,4.021,4.327,4.021c1.317-0.004,2.395-0.396,3.133-1.146
			c0.753-0.759,1.145-1.866,1.134-3.2c-0.021-2.264-2.04-4.249-4.321-4.249V446.05L388.975,446.05z M316.649,454.926l-16.364-0.005
			l-16.417,0.001c-4.126,0-8.252,0-12.377-0.001c-1.903-0.004-3.64-0.702-4.889-1.967c-1.247-1.264-1.92-3.005-1.898-4.904
			c0.006-0.425-0.017-0.857-0.037-1.296c-0.101-2.104-0.226-4.723,2.426-6.451c1.299-0.846,2.836-1.711,4.391-1.719
			c10.147-0.05,20.828-0.074,33.608-0.074c8.219,0,16.44,0.012,24.658,0.023c3.739,0.002,6.564,2.768,6.716,6.574
			c0.031,0.797,0.021,1.592,0.011,2.359l-0.005,0.385c-0.05,4.353-2.795,7.06-7.167,7.064
			C325.086,454.922,320.868,454.926,316.649,454.926z M300.285,452.356l16.364,0.004c4.218,0,8.434-0.004,12.651-0.011
			c2.937-0.002,4.571-1.611,4.604-4.526l0.006-0.39c0.009-0.771,0.019-1.497-0.008-2.225c-0.1-2.457-1.769-4.109-4.158-4.113
			c-8.217-0.012-16.435-0.021-24.654-0.021c-12.778,0-23.453,0.022-33.595,0.075c-1.009,0.003-2.406,0.911-3.002,1.302
			c-1.354,0.883-1.364,2.101-1.264,4.178c0.022,0.489,0.045,0.978,0.039,1.451c-0.016,1.211,0.396,2.3,1.158,3.069
			c0.764,0.775,1.854,1.201,3.066,1.202c4.125,0.003,8.249,0.007,12.375,0.007L300.285,452.356z"/>
	</g>
	<g>
		<path fill="#C4C8CA" d="M300.323,452.75c-9.373,0-18.745,0.001-28.117,0c-3.529-0.003-5.356-1.787-5.332-5.265
			c0.01-1.242-0.09-2.575,0.319-3.695c0.743-2.03,2.421-3.092,4.613-3.092c19.192-0.016,38.381-0.025,57.574,0.005
			c2.945,0.009,4.831,2.05,4.921,5.035c0.128,4.187-0.859,6.08-3.66,6.835c-0.699,0.185-1.464,0.17-2.197,0.17
			C319.068,452.754,309.697,452.75,300.323,452.75z"/>
		<path fill="#C5C7C9" d="M310.546,454.035l-38.34-0.003c-2.136,0-3.797-0.587-4.941-1.741c-1.125-1.132-1.687-2.753-1.673-4.815
			c0.002-0.223,0-0.439,0-0.662c-0.009-1.092-0.018-2.327,0.395-3.463c0.917-2.502,3.038-3.935,5.82-3.935
			c19.19-0.017,38.382-0.026,57.576,0.005c3.596,0.012,6.086,2.534,6.201,6.279c0.103,3.369-0.363,6.968-4.611,8.108
			c-0.736,0.199-1.489,0.217-2.193,0.217h-0.336C322.477,454.032,316.511,454.035,310.546,454.035z M300.323,451.468h10.223
			c5.965,0,11.931,0,17.895-0.008h0.339c0.554,0,1.092-0.009,1.528-0.128c1.896-0.511,2.835-1.508,2.714-5.555
			c-0.074-2.368-1.437-3.785-3.644-3.789c-19.188-0.033-38.38-0.022-57.571-0.008c-1.181,0-2.728,0.391-3.411,2.25
			c-0.255,0.697-0.249,1.604-0.24,2.562c0.001,0.237,0.003,0.472,0,0.705c-0.009,1.349,0.303,2.354,0.929,2.987
			c0.645,0.649,1.695,0.98,3.121,0.981h28.117V451.468z"/>
	</g>
	<g>
		<path fill="#C4C8CA" d="M300.584,469.722c-9.444,0-18.892-0.081-28.333,0.042c-3.447,0.044-5.211-2.027-5.402-4.462
			c-0.372-4.67,1.374-6.202,5.001-6.742c0.291-0.043,0.596-0.009,0.893-0.009c18.592,0,37.184-0.008,55.776,0.006
			c3.146,0.003,5.342,1.485,5.726,4.025c0.42,2.797-0.253,6.048-2.97,6.8c-0.759,0.212-1.568,0.322-2.356,0.326
			C319.474,469.728,310.029,469.722,300.584,469.722z"/>
		<path fill="#C5C7C9" d="M272.143,471.048c-3.724,0-6.305-2.218-6.572-5.645c-0.397-4.993,1.423-7.419,6.093-8.111
			c0.275-0.042,0.563-0.039,0.85-0.03l0.23,0.007l29.754-0.001c8.675,0,17.35,0.001,26.024,0.007
			c3.839,0.005,6.518,1.965,6.991,5.116c0.516,3.416-0.49,7.282-3.893,8.229c-0.863,0.239-1.795,0.368-2.695,0.372
			c-5.497,0.012-10.99,0.016-16.481,0.016l-11.86-0.001c-2.687,0-5.376-0.007-8.063-0.015c-2.686-0.007-5.371-0.011-8.056-0.011
			c-4.761,0-8.635,0.019-12.196,0.064L272.143,471.048z M272.193,459.82c-0.051,0-0.1,0-0.151,0.008
			c-2.909,0.432-4.235,1.346-3.914,5.373c0.161,2.054,1.66,3.279,4.014,3.279h0.093c3.572-0.047,7.457-0.068,12.229-0.068
			c2.686,0,5.375,0.007,8.064,0.014c2.684,0.006,5.371,0.015,8.056,0.015l11.86,0.001c5.49,0,10.981-0.003,16.474-0.016
			c0.673-0.003,1.371-0.1,2.015-0.281c2.163-0.599,2.303-3.657,2.045-5.369c-0.399-2.648-3.25-2.935-4.459-2.937
			c-8.673-0.007-17.347-0.007-26.021-0.007l-29.754,0.002c-0.106,0-0.211-0.003-0.318-0.007L272.193,459.82z"/>
	</g>
	<g>
		<path fill="#3EB29E" d="M418.252,451.557c0.027,2.724-2.203,5.125-4.831,5.205c-2.353,0.075-4.952-2.438-5.001-4.822
			c-0.048-2.729,2.15-4.937,4.987-4.999C416.008,446.883,418.223,448.995,418.252,451.557z"/>
		<path fill="#3CB29D" d="M413.322,458.048c-3.062,0-6.124-3.015-6.184-6.084c-0.062-3.458,2.68-6.227,6.239-6.307h0.13
			c3.288,0,5.989,2.64,6.024,5.886c0.036,3.422-2.746,6.4-6.072,6.501L413.322,458.048z M413.509,448.222
			c-2.202,0.05-3.841,1.67-3.804,3.693c0.031,1.632,1.992,3.567,3.617,3.567l0.061-0.002c1.932-0.061,3.607-1.887,3.585-3.91
			C416.949,449.754,415.365,448.222,413.509,448.222z"/>
	</g>
	<g>
		<path fill="#9FCEC7" d="M369.574,451.843c0.002,2.821-1.673,4.489-4.504,4.48c-2.643-0.009-4.804-2.044-4.876-4.593
			c-0.065-2.257,2.382-4.691,4.809-4.785C367.348,446.855,369.571,449.242,369.574,451.843z"/>
		<path fill="#9FCDC6" d="M365.094,457.606h-0.024c-3.355-0.011-6.062-2.574-6.155-5.84c-0.084-2.958,2.906-5.982,6.04-6.104
			l0.177-0.003c2.992,0,5.723,2.946,5.728,6.182c0.002,1.726-0.535,3.178-1.557,4.199
			C368.278,457.064,366.824,457.606,365.094,457.606z M365.13,448.228c-1.795,0.065-3.7,1.912-3.656,3.466
			c0.057,1.871,1.64,3.343,3.602,3.348l0.02,1.283v-1.283c1.053,0,1.855-0.272,2.393-0.811c0.535-0.536,0.808-1.339,0.805-2.385
			C368.288,450.02,366.725,448.228,365.13,448.228z"/>
	</g>
	<g>
		<path fill="#3EB39E" d="M389.021,456.323c-2.516,0.009-4.703-2.06-4.715-4.449c-0.01-2.571,2.171-4.889,4.64-4.931
			c2.188-0.04,4.804,2.431,4.716,4.645C393.562,454.274,391.696,456.433,389.021,456.323z"/>
		<path fill="#3CB29E" d="M389.213,457.608c-0.08,0-0.162-0.001-0.244-0.005h-0.002c-3.192,0-5.93-2.621-5.94-5.727
			c-0.013-3.257,2.745-6.163,5.896-6.218c0.002,0,0.002,0,0.002,0c1.509,0,3.088,0.754,4.307,2.019
			c1.142,1.188,1.767,2.631,1.715,3.961C394.815,455.042,392.354,457.608,389.213,457.608z M388.997,448.224
			c-1.804,0.032-3.415,1.77-3.407,3.646c0.007,1.688,1.601,3.17,3.413,3.17l0.21,0.006c1.991,0,3.104-1.765,3.169-3.506
			c0.022-0.628-0.35-1.405-1-2.083C390.659,448.71,389.725,448.224,388.997,448.224z"/>
	</g>
	<g>
		<path fill="#D8DDDF" d="M491.494,465.807c0,16.225,0,33.489,0,50.75c0,0.819-0.116,1.655,0.017,2.454
			c0.989,5.896-2.094,10.211-5.46,14.465c-6.853,8.651-15.881,13.646-26.581,15.712c-3.01,0.58-6.12,0.897-9.182,0.902
			c-67.052,0.048-134.101,0.076-201.154-0.005c-10.427-0.011-20.007-3.14-28.281-9.626c-5.069-3.979-8.996-8.986-11.958-14.719
			c-0.32-0.627-0.514-1.394-0.514-2.096c-0.028-19.272-0.021-38.55-0.015-57.824c0-0.179,0.079-0.358,0.187-0.835
			c2.633,6.473,6.462,11.805,11.499,16.165c5.646,4.891,12.074,8.481,19.569,9.519c4.581,0.632,9.244,0.909,13.869,0.911
			c61.694,0.059,123.383,0.079,185.08-0.002c8.99-0.013,17.647-2.103,25.855-5.832c6.699-3.042,12.761-7.035,18.108-12.142
			C485.541,470.733,488.803,468.133,491.494,465.807z M300.285,519.308c9.674,0,19.343,0.011,29.018-0.004
			c3.669-0.005,5.845-2.173,5.887-5.8c0.011-0.891,0.03-1.786-0.006-2.677c-0.123-3.1-2.314-5.338-5.434-5.343
			c-19.423-0.03-38.842-0.045-58.259,0.05c-1.242,0.008-2.589,0.791-3.695,1.513c-2.515,1.638-1.781,4.313-1.81,6.688
			c-0.038,3.23,2.304,5.567,5.506,5.567C281.088,519.312,290.687,519.308,300.285,519.308z M300.555,536.278
			c9.67,0,19.345,0.007,29.017-0.011c0.714-0.006,1.463-0.1,2.14-0.319c3.558-1.15,3.815-4.931,3.404-8.151
			c-0.336-2.613-2.934-4.452-5.984-4.454c-19.047-0.021-38.095-0.006-57.142-0.014c-2.118-0.001-4.065,0.656-5.042,2.508
			c-0.703,1.333-0.886,3.046-0.934,4.599c-0.118,3.885,1.893,5.841,5.744,5.844C281.355,536.282,290.955,536.278,300.555,536.278z
			 M413.522,511.718c-3.515,0.008-5.993,2.425-5.989,5.831c0.01,3.188,2.703,5.896,5.883,5.764c3.482-0.146,5.9-2.785,5.751-6.139
			C419.026,514.05,416.727,511.715,413.522,511.718z M365.19,522.88c2.743,0.578,5.443-2.067,5.613-5.436
			c0.147-2.89-2.897-5.729-5.709-5.724c-3.205,0.009-5.762,2.547-5.808,5.633C359.246,520.068,361.858,523.496,365.19,522.88z
			 M389.051,522.879c3.375-0.004,5.558-2.229,5.527-5.637c-0.025-2.984-2.662-5.559-5.664-5.521
			c-3.076,0.037-5.508,2.633-5.494,5.861C383.436,520.768,385.688,522.89,389.051,522.879z"/>
		<path fill="#D8DDDF" d="M340.845,551.42c-30.57,0-61.14-0.014-91.712-0.051c-10.928-0.014-20.708-3.346-29.071-9.903
			c-5.005-3.926-9.146-9.02-12.306-15.138c-0.418-0.814-0.658-1.793-0.658-2.684c-0.027-18.812-0.021-37.631-0.014-56.448v-1.376
			c0-0.28,0.061-0.509,0.121-0.729c0.027-0.102,0.061-0.227,0.1-0.392l0.905-3.965l1.532,3.768
			c2.546,6.256,6.192,11.385,11.15,15.677c6.104,5.287,12.288,8.306,18.906,9.218c4.31,0.596,8.917,0.897,13.693,0.897
			c61.695,0.061,123.383,0.081,185.075,0c8.488-0.012,17.013-1.935,25.329-5.715c6.696-3.046,12.673-7.05,17.756-11.904
			c2.138-2.041,4.345-3.898,6.479-5.695c0.876-0.739,1.723-1.453,2.522-2.146l2.122-1.835v53.557c0,0.279-0.013,0.56-0.026,0.841
			c-0.021,0.51-0.042,0.988,0.026,1.399c1.054,6.285-2.105,10.906-5.721,15.476c-6.762,8.535-15.963,13.978-27.344,16.176
			c-3.157,0.608-6.329,0.922-9.423,0.926C413.808,551.399,377.319,551.42,340.845,551.42z M209.649,470.29
			c-0.006,17.786-0.011,35.57,0.015,53.354c0,0.491,0.14,1.057,0.375,1.512c2.988,5.788,6.894,10.597,11.607,14.292
			c7.899,6.197,17.149,9.346,27.489,9.354c67.053,0.082,134.099,0.058,201.153,0.005c2.931-0.005,5.939-0.298,8.938-0.879
			c10.763-2.077,19.448-7.209,25.818-15.249c3.368-4.254,6.083-8.203,5.203-13.456c-0.118-0.679-0.084-1.349-0.061-1.94
			c0.012-0.242,0.021-0.485,0.021-0.726v-47.975c-0.142,0.119-0.284,0.239-0.428,0.357c-2.103,1.773-4.279,3.604-6.358,5.593
			c-5.292,5.052-11.503,9.219-18.464,12.383c-8.651,3.934-17.531,5.934-26.389,5.946c-61.696,0.08-123.386,0.062-185.082,0.001
			c-4.892-0.001-9.618-0.312-14.043-0.922c-7.125-0.987-13.743-4.198-20.233-9.82C215.277,478.711,212.12,474.812,209.649,470.29z
			 M313.32,537.562l-12.766-0.002l-16.509,0.002l-12.288-0.004c-2.311-0.001-4.1-0.636-5.315-1.89
			c-1.204-1.24-1.779-3.015-1.711-5.275c0.045-1.415,0.204-3.488,1.082-5.155c1.101-2.088,3.234-3.191,6.168-3.191l29.495,0.001
			c9.219,0,18.438,0.002,27.657,0.012c3.79,0.005,6.841,2.349,7.254,5.573c0.829,6.468-1.869,8.757-4.279,9.536
			c-0.75,0.243-1.625,0.376-2.528,0.38C324.155,537.56,318.738,537.562,313.32,537.562z M300.555,534.995l12.766,0.002
			c5.415,0,10.833-0.002,16.25-0.012c0.634-0.005,1.24-0.094,1.745-0.257c0.807-0.262,3.259-1.057,2.527-6.77
			c-0.243-1.899-2.271-3.331-4.713-3.335c-9.216-0.01-18.437-0.011-27.654-0.011l-29.486-0.002c-1.958,0-3.27,0.612-3.908,1.822
			c-0.629,1.196-0.75,2.879-0.787,4.04c-0.046,1.537,0.286,2.685,0.988,3.408c0.714,0.736,1.885,1.11,3.475,1.11l20.541,0.003
			H300.555z M413.194,524.599c-3.755-0.002-6.935-3.228-6.942-7.047c-0.008-4.111,3.049-7.104,7.27-7.114h0.012
			c3.836,0,6.745,2.809,6.916,6.679c0.088,1.956-0.559,3.791-1.821,5.167c-1.288,1.406-3.121,2.226-5.157,2.31
			C413.376,524.595,413.284,524.599,413.194,524.599z M413.532,511.718l-0.007,1.283c-2.82,0.007-4.715,1.835-4.709,4.545
			c0.007,2.432,2.011,4.486,4.378,4.486l0.169-0.004c1.352-0.055,2.55-0.582,3.374-1.48c0.797-0.869,1.204-2.048,1.146-3.315
			c-0.11-2.492-1.9-4.23-4.353-4.23L413.532,511.718L413.532,511.718z M365.952,524.242c-0.26,0-0.519-0.021-0.776-0.061
			c-0.256,0.036-0.511,0.054-0.766,0.054c-0.001,0-0.001,0-0.001,0c-1.558,0-3.075-0.675-4.279-1.898
			c-1.337-1.356-2.149-3.274-2.124-5.002c0.06-3.793,3.237-6.887,7.088-6.896c1.778,0,3.672,0.879,5.069,2.351
			c1.304,1.374,2.006,3.095,1.922,4.72C371.898,521.221,369.148,524.242,365.952,524.242z M365.207,521.576l0.248,0.05
			c1.959,0.406,3.939-1.703,4.068-4.248c0.048-0.928-0.398-1.953-1.223-2.821c-0.91-0.956-2.135-1.554-3.197-1.554
			c-2.467,0.008-4.497,1.968-4.535,4.371c-0.017,1.048,0.526,2.291,1.39,3.166c0.507,0.516,1.347,1.129,2.451,1.129
			c0.001,0,0.001,0,0.001,0c0.18,0,0.366-0.017,0.55-0.051L365.207,521.576z M389.055,524.162c-4.065,0-6.9-2.704-6.92-6.573
			c-0.017-3.964,2.953-7.104,6.765-7.149h0.079c3.699,0,6.853,3.109,6.884,6.793c0.019,2.03-0.632,3.77-1.878,5.024
			C392.754,523.5,391.049,524.159,389.055,524.162z M388.979,511.722l-0.049,1.281c-2.381,0.029-4.239,2.039-4.228,4.575
			c0.012,2.479,1.67,4.019,4.329,4.019c1.315-0.002,2.393-0.396,3.131-1.146c0.753-0.758,1.145-1.865,1.134-3.197
			c-0.021-2.265-2.036-4.25-4.316-4.25L388.979,511.722L388.979,511.722z M316.649,520.593l-16.364-0.003l-15.039,0.002
			c-4.585,0-9.17-0.002-13.755-0.005c-1.903,0-3.638-0.698-4.889-1.965c-1.245-1.262-1.92-3.002-1.898-4.904
			c0.006-0.423-0.017-0.857-0.037-1.296c-0.101-2.104-0.226-4.722,2.428-6.448c1.295-0.846,2.829-1.713,4.386-1.724
			c10.02-0.05,20.962-0.071,33.458-0.071c8.268,0,16.542,0.011,24.81,0.021c3.74,0.007,6.565,2.771,6.716,6.575
			c0.031,0.799,0.021,1.593,0.011,2.362l-0.005,0.38c-0.05,4.355-2.795,7.062-7.167,7.068
			C325.086,520.592,320.868,520.593,316.649,520.593z M300.285,518.025l16.364,0.002c4.218,0,8.434-0.002,12.651-0.008
			c2.937-0.004,4.571-1.612,4.604-4.53l0.006-0.384c0.009-0.771,0.019-1.499-0.008-2.229c-0.1-2.455-1.769-4.106-4.158-4.11
			c-8.269-0.014-16.539-0.021-24.806-0.021c-12.49,0-23.43,0.021-33.443,0.072c-1.01,0.004-2.406,0.916-3.001,1.305
			c-1.355,0.882-1.365,2.102-1.266,4.177c0.022,0.489,0.045,0.978,0.039,1.451c-0.016,1.208,0.396,2.3,1.158,3.071
			c0.764,0.771,1.854,1.198,3.064,1.198c4.584,0.006,9.172,0.006,13.754,0.006H300.285L300.285,518.025z"/>
	</g>
	<g>
		<path fill="#C4C8CA" d="M300.323,518.419c-9.373,0-18.745,0.002-28.117,0c-3.529-0.002-5.356-1.786-5.332-5.266
			c0.01-1.24-0.09-2.574,0.319-3.697c0.743-2.027,2.421-3.09,4.613-3.09c19.192-0.015,38.381-0.024,57.574,0.007
			c2.945,0.007,4.831,2.048,4.921,5.034c0.128,4.186-0.859,6.082-3.66,6.834c-0.699,0.188-1.464,0.17-2.197,0.173
			C319.068,518.424,309.697,518.419,300.323,518.419z"/>
		<path fill="#C5C7C9" d="M281.578,519.704l-9.373-0.002c-2.136-0.001-3.796-0.589-4.941-1.741
			c-1.125-1.135-1.687-2.755-1.673-4.815c0.002-0.221,0-0.441,0-0.663c-0.009-1.093-0.018-2.328,0.395-3.466
			c0.919-2.502,3.038-3.932,5.82-3.932c19.192-0.015,38.381-0.028,57.576,0.007c3.596,0.007,6.086,2.528,6.201,6.276
			c0.103,3.371-0.363,6.972-4.611,8.11c-0.735,0.199-1.465,0.217-2.211,0.217h-0.262c-5.525,0.007-10.993,0.009-16.46,0.009
			l-21.091-0.002L281.578,519.704z M301.874,507.635c-10.021,0-20.046,0.008-30.067,0.015c-1.181,0-2.728,0.391-3.411,2.249
			c-0.255,0.698-0.249,1.604-0.24,2.565c0.001,0.234,0.003,0.471,0,0.701c-0.009,1.353,0.303,2.359,0.929,2.991
			c0.645,0.648,1.696,0.979,3.121,0.979l9.372,0.002l24.604-0.002l5.857,0.002c5.466,0,10.935-0.002,16.4-0.008h0.321
			c0.588,0,1.109-0.01,1.544-0.127c1.897-0.512,2.837-1.511,2.715-5.557c-0.073-2.37-1.436-3.786-3.642-3.791
			C320.21,507.642,311.044,507.635,301.874,507.635z"/>
	</g>
	<g>
		<path fill="#C4C8CA" d="M300.584,535.391c-9.444,0-18.892-0.08-28.333,0.042c-3.447,0.045-5.211-2.026-5.402-4.459
			c-0.372-4.673,1.374-6.205,5.001-6.741c0.291-0.047,0.596-0.012,0.893-0.012c18.592,0,37.184-0.005,55.776,0.008
			c3.146,0,5.342,1.482,5.726,4.024c0.42,2.794-0.253,6.042-2.97,6.798c-0.759,0.212-1.568,0.322-2.356,0.325
			C319.474,535.396,310.029,535.391,300.584,535.391z"/>
		<path fill="#C5C7C9" d="M272.138,536.716c-3.722,0-6.301-2.215-6.567-5.643c-0.397-4.994,1.423-7.42,6.093-8.112
			c0.27-0.042,0.564-0.04,0.851-0.03l0.229,0.007h25.752c10.01,0,20.017,0,30.025,0.01c3.839,0,6.519,1.961,6.991,5.113
			c0.516,3.414-0.49,7.279-3.892,8.228c-0.863,0.241-1.796,0.369-2.697,0.372c-5.495,0.013-10.988,0.017-16.479,0.017l-11.86-0.004
			c-2.684,0-5.367-0.006-8.051-0.011c-2.682-0.007-5.365-0.016-8.044-0.016c-4.771,0-8.654,0.022-12.22,0.069H272.138
			L272.138,536.716z M272.193,525.49c-0.051,0-0.099,0-0.148,0.007c-2.912,0.433-4.238,1.347-3.917,5.375
			c0.161,2.051,1.66,3.279,4.01,3.279l0.097-0.003c3.577-0.045,7.471-0.068,12.253-0.068c2.682,0,5.367,0.007,8.05,0.015
			c2.683,0.006,5.365,0.015,8.045,0.015l11.86,0.001c5.49,0,10.981-0.005,16.474-0.017c0.673-0.003,1.371-0.1,2.015-0.278
			c2.163-0.602,2.303-3.656,2.045-5.37c-0.399-2.646-3.25-2.935-4.457-2.935c-10.01-0.009-20.017-0.009-30.024-0.009h-25.752
			c-0.106,0-0.213-0.001-0.322-0.007L272.193,525.49z"/>
	</g>
	<g>
		<path fill="#3EB29E" d="M418.252,517.229c0.027,2.719-2.203,5.125-4.831,5.203c-2.353,0.072-4.952-2.438-5.001-4.826
			c-0.048-2.728,2.15-4.932,4.987-4.994C416.008,512.554,418.223,514.663,418.252,517.229z"/>
		<path fill="#3CB29D" d="M413.322,523.715c-3.062,0-6.124-3.012-6.184-6.083c-0.062-3.457,2.68-6.226,6.239-6.305h0.134
			c3.284,0,5.985,2.641,6.021,5.885c0.036,3.423-2.746,6.399-6.072,6.503H413.322z M413.513,513.894
			c-2.206,0.048-3.845,1.666-3.808,3.689c0.031,1.632,1.992,3.567,3.617,3.567h0.061c1.932-0.062,3.607-1.888,3.585-3.908
			C416.949,515.426,415.365,513.894,413.513,513.894z"/>
	</g>
	<g>
		<path fill="#9FCEC7" d="M369.574,517.514c0.002,2.822-1.673,4.487-4.504,4.479c-2.643-0.008-4.804-2.043-4.876-4.597
			c-0.065-2.255,2.382-4.688,4.809-4.78C367.348,512.525,369.571,514.911,369.574,517.514z"/>
		<path fill="#9FCDC6" d="M365.094,523.275h-0.024c-3.355-0.012-6.062-2.574-6.155-5.841c-0.084-2.96,2.906-5.981,6.04-6.101
			l0.177-0.004c2.992,0,5.723,2.946,5.728,6.181c0.002,1.728-0.535,3.182-1.557,4.199
			C368.278,522.735,366.824,523.275,365.094,523.275z M365.13,513.896c-1.795,0.065-3.7,1.911-3.656,3.464
			c0.057,1.872,1.64,3.344,3.602,3.35l0.02,1.283v-1.283c1.053,0,1.855-0.273,2.393-0.812c0.537-0.534,0.808-1.338,0.805-2.385
			C368.288,515.688,366.721,513.896,365.13,513.896z"/>
	</g>
	<g>
		<path fill="#3EB39E" d="M389.021,521.993c-2.516,0.008-4.703-2.059-4.715-4.451c-0.01-2.568,2.171-4.887,4.64-4.929
			c2.188-0.042,4.804,2.431,4.716,4.644C393.562,519.943,391.696,522.101,389.021,521.993z"/>
		<path fill="#3CB29E" d="M389.213,523.279c-0.08,0-0.162-0.001-0.244-0.005h-0.002c-3.192,0-5.93-2.623-5.94-5.727
			c-0.013-3.257,2.745-6.163,5.896-6.221h0.002c1.509,0,3.092,0.756,4.307,2.021c1.142,1.187,1.767,2.628,1.715,3.957
			C394.815,520.712,392.354,523.279,389.213,523.279z M388.997,513.894c-1.804,0.032-3.415,1.771-3.407,3.646
			c0.007,1.689,1.604,3.172,3.416,3.172l0.207,0.004c1.991,0,3.104-1.765,3.169-3.507c0.022-0.626-0.35-1.403-1-2.081
			C390.659,514.378,389.725,513.894,388.997,513.894z"/>
	</g>
	<g>
		<path fill="#CECCCA" d="M208.357,396.188c2.225,2.854,4.336,5.509,6.385,8.205c3.265,4.298,7.61,7.299,12.236,9.809
			c5.625,3.05,11.655,4.955,18.169,5.027c4.214,0.051,8.426,0.404,12.636,0.409c64.149,0.024,128.288,0.035,192.437-0.005
			c8.92-0.005,17.436-1.968,25.091-6.702c4.694-2.905,8.921-6.461,12.143-11.064c1.273-1.823,2.546-3.646,4.029-5.771
			c0,2.761,0.463,5.312-0.138,7.581c-0.527,1.994-2.051,3.839-3.465,5.456c-5.37,6.126-11.877,10.667-19.657,13.22
			c-4.324,1.42-8.745,2.245-13.345,2.244c-70.547-0.034-141.086,0.047-211.633-0.105c-9.527-0.02-18.146-3.574-25.371-9.91
			c-2.794-2.45-5.124-5.419-7.742-8.075c-1.459-1.484-1.967-3.156-1.803-5.194C208.465,399.646,208.357,397.963,208.357,396.188z"/>
		<path fill="#CECCCA" d="M454.887,425.88h-0.008c-15.295-0.008-30.591-0.009-45.885-0.009l-45.553,0.001
			c-44.788,0-82.375-0.017-120.2-0.101c-9.542-0.02-18.605-3.556-26.213-10.228c-1.787-1.567-3.392-3.344-4.942-5.06
			c-0.93-1.027-1.89-2.091-2.866-3.081c-1.661-1.688-2.37-3.714-2.168-6.198c0.088-1.083,0.067-2.188,0.044-3.358
			c-0.01-0.546-0.021-1.098-0.021-1.658v-3.735l2.294,2.943c0.704,0.904,1.398,1.787,2.082,2.661
			c1.477,1.883,2.91,3.709,4.312,5.558c2.719,3.581,6.366,6.495,11.827,9.458c5.924,3.213,11.673,4.806,17.571,4.871
			c1.98,0.023,3.982,0.114,5.918,0.204c2.202,0.1,4.481,0.205,6.707,0.206c64.147,0.024,128.285,0.038,192.434-0.003
			c9.229-0.008,17.443-2.198,24.413-6.513c5.072-3.137,8.922-6.64,11.77-10.71l6.364-9.111v4.077c0,0.823,0.042,1.649,0.085,2.447
			c0.102,1.903,0.199,3.703-0.265,5.461c-0.597,2.249-2.177,4.185-3.745,5.975c-5.676,6.479-12.479,11.054-20.219,13.595
			C463.891,425.125,459.397,425.88,454.887,425.88z M408.994,423.306c15.294,0,30.59,0.002,45.887,0.007l0.006,1.284v-1.284
			c4.236,0,8.469-0.712,12.938-2.179c7.296-2.395,13.721-6.718,19.091-12.847c1.366-1.562,2.741-3.231,3.194-4.939
			c0.266-1.02,0.289-2.169,0.242-3.392l-1.847,2.646c-3.056,4.361-7.147,8.096-12.521,11.419c-7.384,4.567-16.05,6.888-25.765,6.895
			c-64.147,0.043-128.286,0.028-192.437,0.006c-2.282-0.002-4.592-0.107-6.821-0.211c-1.916-0.087-3.895-0.177-5.83-0.199
			c-6.326-0.07-12.464-1.768-18.766-5.183c-3.597-1.952-8.822-5.128-12.646-10.155c-1.316-1.737-2.662-3.454-4.044-5.218
			c-0.009,0.484-0.028,0.973-0.068,1.461c-0.141,1.738,0.303,3.031,1.438,4.186c1.016,1.029,1.994,2.115,2.94,3.162
			c1.505,1.663,3.058,3.382,4.734,4.852c7.235,6.347,15.487,9.573,24.525,9.591c37.824,0.084,75.409,0.102,120.195,0.102
			L408.994,423.306z"/>
	</g>
	<g>
		<path fill="#CECCCA" d="M208.357,461.901c2.225,2.847,4.336,5.492,6.385,8.186c3.265,4.293,7.61,7.297,12.236,9.807
			c5.625,3.049,11.655,4.952,18.169,5.026c4.214,0.048,8.426,0.405,12.636,0.407c64.149,0.028,128.288,0.038,192.437-0.002
			c8.92-0.005,17.436-1.967,25.091-6.703c4.694-2.907,8.921-6.46,12.143-11.057c1.273-1.817,2.546-3.639,4.029-5.76
			c0,2.752,0.463,5.301-0.138,7.564c-0.527,1.992-2.051,3.837-3.465,5.452c-5.37,6.126-11.877,10.667-19.657,13.222
			c-4.324,1.419-8.745,2.242-13.345,2.24c-70.547-0.032-141.086,0.049-211.633-0.103c-9.527-0.021-18.146-3.576-25.371-9.914
			c-2.794-2.446-5.124-5.419-7.742-8.074c-1.459-1.479-1.967-3.147-1.803-5.184C208.465,465.351,208.357,463.669,208.357,461.901z"
			/>
		<path fill="#CECCCA" d="M454.887,491.568h-0.008c-14.688-0.008-29.385-0.01-44.071-0.01l-48.767,0.002
			c-44.076,0-81.148-0.016-118.8-0.096c-9.542-0.021-18.605-3.56-26.213-10.23c-1.789-1.565-3.394-3.345-4.948-5.062
			c-0.926-1.028-1.885-2.089-2.861-3.078c-1.661-1.683-2.37-3.707-2.168-6.188c0.088-1.08,0.067-2.185,0.044-3.352
			c-0.01-0.545-0.021-1.096-0.021-1.654v-3.725l2.294,2.936c0.679,0.869,1.348,1.719,2.007,2.557
			c1.522,1.936,2.959,3.765,4.387,5.643c2.722,3.578,6.37,6.492,11.827,9.454c5.922,3.21,11.67,4.805,17.571,4.873
			c1.987,0.022,3.997,0.113,5.939,0.202c2.196,0.101,4.467,0.204,6.686,0.204c64.147,0.027,128.286,0.036,192.434-0.003
			c9.228-0.005,17.44-2.195,24.413-6.512c5.072-3.137,8.922-6.637,11.77-10.701l6.364-9.093v4.069c0,0.821,0.042,1.646,0.085,2.44
			c0.102,1.9,0.199,3.698-0.265,5.453c-0.597,2.25-2.245,4.261-3.745,5.969c-5.676,6.481-12.48,11.055-20.219,13.594
			C463.898,490.812,459.407,491.568,454.887,491.568z M410.808,488.994c14.688,0,29.385,0.002,44.073,0.008l0.006,1.283v-1.283
			c4.245,0,8.476-0.711,12.938-2.177c7.296-2.396,13.721-6.717,19.091-12.849c1.307-1.489,2.739-3.222,3.194-4.934
			c0.266-1.018,0.289-2.165,0.242-3.384l-1.849,2.641c-3.05,4.354-7.146,8.089-12.519,11.412
			c-7.387,4.568-16.053,6.889-25.765,6.895c-64.147,0.038-128.286,0.029-192.437,0.004c-2.276,0-4.576-0.105-6.801-0.208
			c-1.92-0.087-3.907-0.178-5.851-0.198c-6.33-0.075-12.467-1.771-18.766-5.186c-3.596-1.948-8.819-5.125-12.646-10.153
			c-1.316-1.731-2.646-3.426-4.044-5.205c-0.009,0.482-0.028,0.97-0.068,1.454c-0.141,1.741,0.303,3.028,1.438,4.18
			c1.014,1.031,1.991,2.111,2.938,3.157c1.504,1.664,3.061,3.385,4.735,4.854c7.237,6.349,15.489,9.576,24.529,9.597
			c37.647,0.079,74.72,0.096,118.793,0.096L410.808,488.994z"/>
	</g>
</g>
<g>
	
		<path fill="none" stroke="#C2C4B7" stroke-width="3" stroke-linecap="round" stroke-linejoin="round" stroke-miterlimit="10" stroke-dasharray="10,20" d="
		M100.657,345.316c0-139.631,113.157-252.79,252.74-252.79c139.585,0,252.741,113.158,252.741,252.79"/>
	<g>
		<path fill="#EAF3E4" stroke="#FFFFFF" stroke-miterlimit="10" d="M276.726,135.843c0,33.01-26.773,59.771-59.799,59.771
			c-33.026,0-59.799-26.761-59.799-59.771c0-33.026,26.772-59.799,59.799-59.799C249.952,76.044,276.726,102.817,276.726,135.843z"
			/>
		<g>
			<g>
				<g>
					<path fill="#4E7E99" d="M250.844,111.684c-6.102-1.538-12.028-2.874-17.854-4.521c-5.857-1.658-11.386-4.145-16.049-7.915
						c-9.982,7.947-21.844,9.938-33.839,12.148c-0.111,0.453-0.243,0.907-0.299,1.372c-0.841,6.487-0.829,12.997,0.376,19.432
						c3.814,20.379,14.802,35.724,32.798,46.022c0.499,0.288,1.427,0.257,1.946-0.032c6.057-3.26,11.42-7.436,16.094-12.474
						c10.304-11.115,16.13-24.251,17.38-39.352C251.804,121.357,251.739,116.327,250.844,111.684z"/>
				</g>
				<path fill="#CACECF" d="M254.583,109.368c-0.109-0.853-0.54-1.074-1.292-1.233c-5.352-1.14-10.745-2.144-16.028-3.562
					c-7.294-1.974-14.309-4.686-20.396-9.662c-3.915,3.628-8.574,5.891-13.479,7.712c-7.352,2.728-14.95,4.43-22.69,5.53
					c-0.743,0.101-1.3,0.217-1.428,1.224c-0.844,6.551-0.918,13.094-0.014,19.643c1.291,9.436,4.305,18.274,9.105,26.492
					c6.729,11.507,15.972,20.45,27.604,26.956c0.726,0.405,1.257,0.378,1.949-0.009c10.633-5.932,19.339-13.939,25.896-24.196
					C253.376,143.3,256.837,126.958,254.583,109.368z M250.329,128.199c-1.487,11.348-5.608,21.64-12.309,30.896
					c-5.435,7.492-12.171,13.585-20.098,18.359c-0.709,0.421-1.206,0.471-1.934,0.017c-17.293-10.682-27.998-25.935-31.924-45.895
					c-1.164-5.936-1.375-11.926-0.91-17.947c0.074-0.989,0.295-1.501,1.477-1.706c8.888-1.529,17.626-3.671,25.796-7.638
					c2.263-1.097,4.406-2.441,6.669-3.706c9.858,6.281,21.06,9.177,32.499,11.37c0.683,0.128,0.935,0.346,1.013,1.033
					C251.139,118.063,250.987,123.137,250.329,128.199z"/>
			</g>
			<g>
				<path fill="#DEE1E2" d="M227.758,125.525c-0.217-1.935,0.112-3.886-0.209-5.822c-0.793-4.788-4.304-8.098-9.18-8.429
					c-4.413-0.301-8.315,0.695-10.805,4.803c-1.017,1.677-1.381,3.524-1.401,5.443c-0.032,2.992,0.034,5.984-0.032,8.975
					c-0.025,1.114,0.297,1.465,1.444,1.46c8.309-0.047,16.618-0.029,24.927-0.021c1.792,0.002,2.261,0.432,2.361,2.055
					c-0.452,0.433-1.027,0.454-1.597,0.454c-5.348-0.001-10.695,0.056-16.044-0.022c-5.542,0.074-11.085,0.023-16.628,0.023
					c-0.566,0-1.146-0.008-1.6-0.442c0.092-1.579,0.564-2.018,2.211-2.054c2.02-0.046,2.021-0.046,2.021-2.063
					c0.001-2.94-0.018-5.88,0.007-8.819c0.058-7.267,5.538-12.624,12.834-12.762c3.673-0.069,7.052,0.535,9.991,2.894
					c1.127,0.904,1.911,2.084,2.814,3.171c2.042,3.498,1.881,7.329,1.689,11.165C229.627,126.011,228.693,125.993,227.758,125.525z"
					/>
				<path fill="#DEE1E2" d="M206.099,125.525c0.218-1.935-0.111-3.886,0.21-5.822c0.792-4.788,4.304-8.098,9.179-8.429
					c4.414-0.301,8.315,0.695,10.807,4.803c1.015,1.677,1.38,3.524,1.4,5.443c0.032,2.992-0.034,5.984,0.032,8.975
					c0.025,1.114-0.298,1.465-1.444,1.46c-8.309-0.047-16.618-0.029-24.927-0.021c-1.793,0.002-2.261,0.432-2.36,2.055
					c0.45,0.433,1.026,0.454,1.595,0.454c5.349-0.001,10.696,0.056,16.046-0.022c5.541,0.074,11.084,0.023,16.626,0.023
					c0.567,0,1.146-0.008,1.602-0.442c-0.093-1.579-0.566-2.018-2.212-2.054c-2.02-0.046-2.021-0.046-2.021-2.063
					c-0.001-2.94,0.017-5.88-0.008-8.819c-0.058-7.267-5.538-12.624-12.834-12.762c-3.673-0.069-7.052,0.535-9.991,2.894
					c-1.127,0.904-1.911,2.084-2.814,3.171c-2.042,3.498-1.88,7.329-1.689,11.165C204.23,126.011,205.165,125.993,206.099,125.525z"
					/>
				<path fill="#F3D865" d="M198.999,153.279c0-4.347,0-8.692,0-13.039c0.503-0.46,1.135-0.42,1.743-0.422
					c4.908-0.014,9.816-0.012,14.725,0c0.564,0,1.138-0.004,1.648,0.305c0.765,1.013,0.678,2.023-0.006,3.034
					c-0.073,0.054-0.15,0.107-0.231,0.152c-0.606,0.333-1.684,0.012-1.75,1.078c-0.069,1.133-0.456,2.372,0.591,3.312
					c0.534,0.476,0.745,1.067,0.741,1.754c-0.006,1.265,0.081,2.529,0.021,3.799c-0.074,0.17-0.195,0.29-0.364,0.366
					c-0.495,0.205-1.019,0.205-1.537,0.205c-4.584,0.011-9.167,0.014-13.752-0.003C200.177,153.816,199.482,153.885,198.999,153.279
					z"/>
				<path fill="#FFFFFF" d="M217.189,140.267c-6.062-0.009-12.126-0.02-18.19-0.027c-0.001-2.08-0.003-4.159-0.004-6.239
					c6.067-0.002,12.136-0.003,18.203-0.004c0.802,2.003,0.509,4.04,0.185,6.078C217.319,140.139,217.255,140.204,217.189,140.267z"
					/>
				<path fill="#FFFFFF" d="M198.999,153.279c5.781-0.016,11.562-0.03,17.342-0.045c0.385-0.168,0.728-0.122,1.015,0.201
					c0.421,1.828,0.595,3.65-0.124,5.454c-0.496,0.345-1.07,0.345-1.637,0.348c-4.724,0.015-9.449,0.006-14.174,0.01
					c-0.676,0-1.315-0.113-1.908-0.445C198.434,157.044,199.115,155.125,198.999,153.279z"/>
				<path fill="#DDE1E2" d="M199.513,158.801c5.895-0.006,11.789-0.012,17.684-0.018c0.548-0.475,1.221-0.453,1.879-0.457
					c4.481-0.009,8.963-0.013,13.443,0.006c0.649,0.002,1.338-0.07,1.863,0.465c-0.647,1.322-1.8,1.697-3.162,1.697
					c-9.889-0.007-19.776-0.008-29.665-0.013C200.766,160.051,199.912,159.703,199.513,158.801z"/>
				<path fill="#DEC65C" d="M217.088,153.375c-0.249-0.047-0.497-0.094-0.746-0.139c-0.001-0.002,0.027-0.084,0.027-0.084
					c0.707-0.545,1.08-1.203,1.029-2.157c-0.071-1.349-0.167-2.681,1.104-3.751c0.645-0.543,0.238-1.618,0.293-2.455
					c0.075-1.136-0.788-1.231-1.559-1.447c-0.139-0.038-0.231-0.154-0.316-0.268c0.525-0.896,0.212-1.868,0.271-2.807
					c-0.001,0-0.017-0.084-0.017-0.084c0.538-0.372,1.157-0.371,1.772-0.371c4.725-0.008,9.449-0.012,14.174,0.002
					c0.61,0.004,1.239-0.024,1.749,0.419c0.104,4.366,0.135,8.73-0.017,13.097c-0.522,0.528-1.2,0.495-1.857,0.498
					c-4.673,0.012-9.346,0.01-14.019,0.005C218.31,153.831,217.651,153.798,217.088,153.375z"/>
				<path fill="#CACECF" d="M234.869,140.233c-5.899-0.017-11.797-0.033-17.695-0.05c0.008-2.063,0.017-4.124,0.024-6.186
					c5.89-0.004,11.776-0.006,17.665-0.009C234.865,136.07,234.868,138.152,234.869,140.233z"/>
				<path fill="#CACECF" d="M217.088,153.375c5.921-0.015,11.844-0.03,17.765-0.044c-0.095,1.827,0.535,3.717-0.471,5.467
					c-5.729-0.005-11.458-0.011-17.186-0.014C217.144,156.981,217.344,155.172,217.088,153.375z"/>
				<path fill="#3C3C3C" d="M216.92,143.074c0.423,0.013,0.847,0.054,1.267,0.036c0.784-0.034,1.115,0.326,1.096,1.098
					c-0.021,0.847,0.009,1.694,0.002,2.542c-0.002,0.323,0.07,0.795-0.267,0.89c-1.573,0.449-1.128,1.704-1.171,2.765
					c-0.02,0.471-0.051,0.948,0.006,1.413c0.144,1.181-0.417,1.526-1.484,1.335c-0.72-1.178-0.239-2.469-0.347-3.705
					c-0.06-0.703,0.097-1.431-0.904-1.629c-0.498-0.1-0.542-0.586-0.533-1.033c0.01-0.425,0.001-0.85,0.001-1.271
					C214.584,143.195,214.584,143.195,216.92,143.074z"/>
			</g>
		</g>
	</g>
	<g>
		<circle fill="#EAF3E4" stroke="#FFFFFF" stroke-miterlimit="10" cx="592.4" cy="295.998" r="59.799"/>
		<g>
			<g>
				<path fill="#4E7E99" d="M628.666,315.547c-0.393,1.189-0.721,1.321-1.899,0.848c-0.661-0.263-1.389-0.215-2.071-0.197
					c-2.584,0.072-5.168,0.099-7.751-0.018c-0.541-0.021-1.068,0.121-1.609,0.086c-2.208-0.142-4.419-0.024-6.626-0.041
					c-1.657-0.015-3.331-0.015-4.999,0.012c-3.443,0.056-6.893,0.052-10.337,0c-1.668-0.025-3.342-0.012-5.002-0.008
					c-1.716,0.002-3.441-0.015-5.165,0.013c-3.31,0.047-6.619,0.055-9.931,0c-1.719-0.03-3.444-0.013-5.163-0.013
					s-3.441-0.07-5.163,0.017c-1.8,0.095-3.608-0.058-5.413,0.019c-0.485,0.021-0.97-0.021-1.333-0.421
					c-0.221-1.255-0.057-2.519-0.091-3.778c-0.015-0.453,0.354-0.385,0.644-0.385c1.455,0,2.91,0.006,4.363,0.006
					c0.146-0.088,0.295-0.166,0.46-0.199c-0.023,0.063-0.027,0.143-0.011,0.231c1.381-0.004,2.766-0.012,4.146-0.017
					c0.096-0.104,0.19-0.204,0.29-0.309c0.538,0.062,1.073-0.051,1.611-0.051c18.364,0.014,36.735,0.008,55.101,0.014
					c0.643,0,1.304-0.101,1.874,0.323c1.225-0.056,2.26,0.097,3.221,1.125C628.623,313.678,628.746,314.518,628.666,315.547z"/>
				<path fill="#4E7E99" d="M626.963,268.664c-0.021,0.158-0.088,0.297-0.19,0.414c-0.072,0.085-0.164,0.16-0.271,0.221
					c-0.412,0.181-0.85,0.129-1.277,0.129c-22.448,0.005-44.896,0.005-67.343,0.003h-0.202c-0.271,0-0.541,0.009-0.809-0.037
					c-0.476-0.077-0.781-0.273-0.746-0.848c0.067-1.156-0.071-2.315,0.071-3.472c0.834-0.02,1.667-0.057,2.502-0.057
					c10.291-0.003,20.582-0.001,30.871-0.001c0.241,0,0.483-0.012,0.729-0.018c0.479-0.284,0.978-0.355,1.481-0.354
					c0.558,0.001,1.123,0.092,1.681,0.089c0.01-0.001,0.021-0.001,0.031-0.001c0.063-0.006,0.131-0.009,0.196-0.015
					c0.184-0.012,0.367-0.016,0.552-0.013c0.09,0,0.18,0.005,0.269,0.01c0.004,0.095,0.004,0.188,0.004,0.283
					c2.053-0.002,4.104-0.005,6.156-0.007c0.241,0,0.479,0,0.719,0.002h0.005c5.717,0.006,11.434,0.013,17.148,0.025
					c2.667,0.006,5.333,0.022,8.003,0.035c0.057,0.107,0.106,0.215,0.152,0.325C627.146,266.43,627.115,267.541,626.963,268.664z"/>
				<path fill="#34495E" d="M556.201,315.842c2.529,0.038,5.062,0.004,7.592,0.006c1.639,0.002,3.279,0.002,4.92,0.018
					c2.316,0.021,4.634,0.003,6.948,0.001c1.721,0,3.44-0.003,5.161-0.002c2.315,0.001,4.634,0.04,6.949-0.005
					c1.589-0.028,3.177-0.006,4.761-0.021c2.637-0.021,5.276-0.036,7.91,0c2.152,0.03,4.308-0.012,6.461,0.039
					c2.743,0.065,5.488,0.017,8.232,0.017c2.72,0,5.438,0.008,8.154-0.004c1.1-0.004,2.197-0.053,3.295-0.096
					c0.103-0.003,0.207-0.077,0.282,0.037c0.191,0.294,0.402,0.701,0.773,0.588c0.425-0.128,0.78-0.467,1.025-0.873
					c0.028,0.796,0.229,1.605-0.195,2.364c-0.294,0.065-0.593,0.032-0.888,0.032c-8.092,0.004-16.186-0.006-24.277,0.017
					c-0.767,0.002-1.498,0.062-2.073-0.555c-0.807-0.271-1.645-0.113-2.464-0.185c-0.593-0.054-0.475,0.582-0.836,0.723
					c-1.013,0.009-2.025-0.045-3.032,0.021c-0.592,0.04-1.028-0.112-1.401-0.539c-0.744-0.319-1.523-0.161-2.292-0.17
					c-0.502-0.005-0.496,0.712-1.003,0.69c-0.614,0.003-1.228-0.024-1.837,0.009c-0.781,0.043-1.524,0.01-2.087-0.64
					c-0.725-0.121-1.452-0.062-2.18-0.053c-0.245,0.004-0.526,0.02-0.677,0.213c-0.413,0.532-0.973,0.476-1.539,0.476
					c-7.625-0.005-15.252-0.002-22.879-0.007c-0.29,0-0.592,0.07-0.874-0.072C557.457,317.225,556.707,316.648,556.201,315.842z"/>
				<path fill="#34495E" d="M628.044,271.287c-1.146,0.015-2.291,0.008-3.438,0.009c-0.444,0.061-0.656-0.341-0.968-0.553
					c-0.112-0.081-0.239-0.132-0.398-0.124c-0.403-0.065-0.81-0.054-1.215-0.054h-58.883c-0.269,0-0.539-0.001-0.808,0.017
					c-0.443,0.029-0.781,0.202-0.907,0.664c-0.019,0.035-0.037,0.07-0.062,0.1c0.002,0.002,0,0.002-0.002,0.003
					c0,0.002-0.003,0.005-0.005,0.008c-0.036,0.052-0.081,0.098-0.134,0.139c-0.008,0.002-0.017,0.003-0.023,0.006v-0.193
					c-0.479,0.003-0.961,0.007-1.438,0.008c-0.498,0.004-0.996,0.008-1.492,0.011h-0.002c-0.615-0.6-1.234-1.196-1.846-1.803
					c-0.15-0.148-0.339-0.299-0.332-0.533c0.035-1.304-0.148-2.617,0.103-3.917c0.003,1.026,0.058,2.054-0.004,3.076
					c-0.048,0.769,0.235,0.939,0.961,0.938h0.396c9.208-0.023,18.415-0.015,27.623-0.015h40.493c0.295,0,0.592-0.01,0.889-0.017
					c0.076,0.001,0.149,0.007,0.22,0.02c0.759,0.125,1.067,0.858,1.577,1.316c0.132,0.119,0.171,0.334,0.328,0.451
					C628.749,271.394,628.335,271.284,628.044,271.287z"/>
				<path fill="#34495E" d="M581.778,317.873c0.566,0,1.08,0.004,1.28-0.669c0.057-0.193,0.215-0.315,0.429-0.304
					c1.017,0.05,2.04-0.152,3.048,0.121c0.111,0.32,0.072,0.623-0.061,0.938c-1.565,3.784-3.174,7.551-4.707,11.349
					c-0.493,1.223-1.019,2.435-1.527,3.652c-0.021,0.049-0.041,0.1-0.066,0.146c-0.411,0.828-1.202,1.248-2.057,1.095
					c-0.725-0.13-1.156-0.714-1.284-1.734c0.162-1.194,0.812-2.208,1.252-3.297c1.412-3.495,2.884-6.969,4.334-10.448
					c0.179-0.431,0.278-0.742-0.417-0.74c-7.901,0.023-15.804,0.025-23.707,0.033c-0.054-0.049-0.107-0.097-0.161-0.146
					L581.778,317.873z"/>
				<path fill="#344A5F" d="M593.491,264.998c-1.065,0.001-2.13,0.003-3.193,0.003c0.016-1.969,0.026-3.938,0.05-5.907
					c0.018-1.546,0.817-2.125,2.327-1.693c0.904,0.457,1.194,1.216,1.172,2.194c-0.034,1.426-0.005,2.854-0.011,4.28
					C593.833,264.287,593.798,264.683,593.491,264.998z"/>
				<path fill="#1E2E3F" d="M628.678,270.843c-0.66-0.144-0.927-0.772-1.4-1.147c-0.251-0.2-0.483-0.425-0.725-0.637
					c0.166-0.819,0.199-1.64,0.081-2.474c-0.072-0.505-0.063-1.021-0.091-1.532c0.866,0.457,1.362,1.325,2.113,1.91
					C628.665,268.256,628.672,269.55,628.678,270.843z"/>
				<path fill="#9A9C9D" d="M562.227,310.636v0.005c-0.021,0.014-0.045,0.034-0.062,0.063c-0.052,0.347-0.489,0.46-0.587,0.78
					c-0.023,0.063-0.027,0.143-0.011,0.231c-0.15-0.012-0.303-0.021-0.449-0.032c0.173-0.271,0.135-0.572,0.135-0.867v-35.852
					c0-0.293-0.032-0.588-0.049-0.887v-2.77l0.032,0.022c0.046-0.004,0.089,0.004,0.133,0.012h0.005
					c0.008,0.004,0.013,0.008,0.021,0.008c0,0.005,0.004,0.005,0.009,0.005c0.043,0.022,0.083,0.048,0.121,0.086
					c0.351,0.481,0.223,1.039,0.223,1.567v0.278c0.008,9.105,0.003,18.215,0.003,27.317v8.418c0,0.519,0.017,1.023,0.38,1.449
					c0.032,0.043,0.052,0.086,0.075,0.125C562.213,310.609,562.218,310.623,562.227,310.636z"/>
				<path fill="#232F3F" d="M593.491,264.999v-0.265c-0.003-1.662-0.021-3.32,0.002-4.981c0.012-0.783-0.097-1.504-0.583-2.103
					c-0.069-0.086-0.147-0.17-0.235-0.251c0.271,0.043,0.498,0.136,0.7,0.269l0,0c0.382,0.248,0.664,0.624,0.936,1.012
					c0.34,1.427,0.121,2.875,0.176,4.313c0.021,0.574,0.021,1.149,0.021,1.723c0.004,0.095,0.004,0.188,0.004,0.283H593.491
					L593.491,264.999z"/>
				<path fill="#9B9D9C" d="M624.617,272.975v38.054c0,0.217-0.02,0.434-0.027,0.648c-2.588,0.018-5.18,0.053-7.768,0.053
					c-16.739,0.004-33.479,0-50.222,0c-0.294,0-0.594-0.021-0.888-0.03c0.096-0.104,0.19-0.204,0.29-0.308
					c0.199-0.211,0.398-0.429,0.598-0.641c-0.063-0.039-0.131-0.068-0.198-0.092c0.052-0.042,0.1-0.086,0.143-0.125
					c0.008-0.014,0.021-0.021,0.03-0.03c0.126-0.073,0.264-0.101,0.401-0.086c0.01-0.005,0.018,0,0.027,0
					c0.008,0,0.021,0,0.029,0.004c0.017,0,0.038,0.004,0.057,0.009c0.018,0,0.035,0.004,0.052,0.008
					c0.593,0.049,1.187,0.055,1.778,0.055c17.297-0.006,34.595-0.006,51.893-0.006c0.836,0,1.671,0.031,2.502-0.107
					c0.1-0.009,0.203-0.009,0.307-0.004c0.004,0,0.004,0,0.009,0c0.285,0.025,0.451-0.087,0.464-0.398
					c0.007-0.269,0.007-0.541,0.007-0.81c0-11.765-0.003-23.536,0.006-35.307c0-0.529-0.121-1.082,0.19-1.581
					c0.067-0.086,0.164-0.12,0.271-0.112C624.587,272.438,624.617,272.707,624.617,272.975z"/>
				<path fill="#34495E" d="M598.018,317.852c-0.374-0.955-0.371-0.988,0.631-0.947c0.82,0.031,1.66-0.194,2.466,0.146
					c0.409,0.372,0.65,0.851,0.854,1.354c1.809,4.492,3.744,8.937,5.537,13.435c0.237,0.601,0.347,1.194,0.025,1.796
					c-0.434,0.809-1.092,1.032-2.2,0.754c-0.499-0.265-0.783-0.682-0.998-1.205c-2.091-5.07-4.201-10.129-6.307-15.19
					C597.916,317.949,597.913,317.902,598.018,317.852z"/>
				<path fill="#344A5F" d="M590.253,317.898c0.05-0.941,0.607-1.148,1.429-1.012c0.641,0.107,1.322-0.188,1.939,0.186
					c0.215,0.648,0.229,1.318,0.226,1.994c-0.007,2.963-0.002,5.93-0.004,8.896c0,0.377,0.005,0.754-0.012,1.132
					c-0.088,1.805-1.417,2.512-2.951,1.566c-0.487-0.373-0.508-0.907-0.506-1.454c0.003-3.409,0.005-6.819,0-10.229
					c0-0.344,0.064-0.701-0.128-1.022L590.253,317.898z"/>
				<path fill="#1F2E3F" d="M605.33,334.386c1.855,0.007,2.471-0.95,1.762-2.647c-1.014-2.43-1.961-4.885-2.978-7.312
					c-1.027-2.45-2.124-4.868-3.003-7.378c1.128,0.944,2.472,0.85,3.819,0.846c7.39-0.021,14.777-0.013,22.167-0.012
					c0.46,0,0.916,0.018,1.374,0.027c-0.312,0.135-0.641,0.076-0.963,0.076c-7.913,0.006-15.827,0.004-23.742,0.004
					c-1.22,0-1.206-0.006-0.752,1.083c1.735,4.157,3.469,8.315,5.188,12.479c0.606,1.475-0.033,2.865-1.417,3.124
					C606.276,334.773,605.76,334.759,605.33,334.386z"/>
				<path fill="#1E2E3F" d="M590.253,317.898l-0.005,0.055c-0.757,0.013-1.512,0.059-2.265,0.025
					c-0.538-0.025-0.809,0.153-1.021,0.668c-2.011,4.886-4.05,9.76-6.084,14.636c-0.456,1.093-1.394,1.627-2.432,1.397
					c-0.984-0.216-1.623-1.092-1.614-2.212c0.401,1.205,0.794,1.522,1.79,1.439c0.663-0.056,1.059-0.417,1.306-1.034
					c0.912-2.298,1.835-4.592,2.789-6.874c1.254-3,2.543-5.985,3.817-8.978c0.53,0.981,1.44,0.908,2.354,0.867
					C589.342,317.868,589.798,317.895,590.253,317.898z"/>
				<path fill="#202E3F" d="M590.88,330.66c1.828,0.479,2.604-0.112,2.606-1.985c0.002-3.499-0.003-6.999,0.005-10.497
					c0-0.369-0.085-0.758,0.13-1.104c0.509,0.708,1.211,0.891,2.052,0.821c0.778-0.062,1.562-0.033,2.345-0.043
					c0.004,0.047,0.006,0.092,0.009,0.14c-0.889,0-1.78,0.036-2.668-0.011c-0.665-0.037-0.884,0.188-0.878,0.865
					c0.029,3.422,0.013,6.844,0.018,10.266c0,0.605-0.07,1.164-0.528,1.637C593.037,331.707,591.786,331.686,590.88,330.66z"/>
				<path fill="#797C7D" d="M624.568,272.17c-0.043,0.001-0.086,0.004-0.131,0.006c-0.657,0.068-0.831-0.42-1.023-0.89
					c-0.033-0.323-0.114-0.66,0.226-0.888c0.398,0.217,0.67,0.573,0.967,0.9C624.594,271.588,624.582,271.879,624.568,272.17z"/>
				<path fill="#9A9C9D" d="M566.402,310.661c-0.262,0.204-0.562,0.382-0.662,0.706c-1.272,0.008-2.55-0.096-3.812,0.068
					c0.259-0.193,0.478-0.406,0.299-0.797v-0.004c0.078-0.064,0.187-0.064,0.283-0.07c0.716,0,1.435-0.021,2.147,0.019
					C565.237,310.619,565.84,310.439,566.402,310.661z"/>
				<path fill="#9A9C9D" d="M566.602,310.753c-0.198,0.212-0.397,0.429-0.598,0.64c-0.057-0.008-0.107-0.012-0.164-0.024h-0.1
					c0.1-0.324,0.4-0.502,0.662-0.706C566.471,310.684,566.537,310.714,566.602,310.753z"/>
				<path fill="#9A9C9D" d="M566.004,311.393c-0.1,0.104-0.193,0.205-0.29,0.309c-0.012-0.126-0.003-0.237,0.026-0.333h0.1
					C565.896,311.381,565.947,311.385,566.004,311.393z"/>
				<path fill="#9A9C9D" d="M561.928,311.436c-0.126,0.092-0.256,0.183-0.359,0.281c-0.018-0.09-0.014-0.168,0.011-0.232
					c0.033-0.01,0.067-0.014,0.103-0.018C561.764,311.454,561.845,311.441,561.928,311.436z"/>
				<path fill="#9A9C9D" d="M565.714,311.7c-1.381,0.005-2.766,0.013-4.146,0.017c0.104-0.1,0.233-0.189,0.359-0.281
					c1.264-0.164,2.54-0.061,3.812-0.067C565.711,311.463,565.702,311.574,565.714,311.7z"/>
				<path fill="#9A9C9D" d="M561.928,311.436c-0.083,0.006-0.164,0.02-0.247,0.031c-0.034,0.004-0.068,0.008-0.103,0.018
					c0.098-0.319,0.535-0.434,0.587-0.779c0.017-0.029,0.04-0.051,0.062-0.064C562.404,311.029,562.188,311.242,561.928,311.436z"/>
				<path fill="#9A9C9C" d="M623.64,270.398c0,0.318,0,0.635-0.002,0.952c-0.046,0.025-0.093,0.051-0.141,0.075
					c-0.054,0.008-0.106,0.014-0.159,0.023c-6.509-0.048-13.018-0.017-19.527-0.019c-13.666-0.006-27.334-0.002-41.002-0.004
					c-0.43,0-0.863,0.035-1.292-0.045c-0.054-0.011-0.104-0.022-0.157-0.034c-0.039-0.004-0.083-0.01-0.122-0.016
					c-0.005-1.146-0.005-1.148,1.148-1.148c20.116,0,40.232,0,60.349,0.004C623.047,270.188,623.395,270.095,623.64,270.398z"/>
				<path fill="#BCBDBF" d="M623.471,310.55c-0.228-0.938,0.026-1.882-0.031-2.813c-0.137-2.151-0.039-4.309-0.038-6.453
					c0.002-1.819,0.002-3.657,0.005-5.48c0.002-2.201,0.021-4.413-0.003-6.616c-0.021-1.735-0.009-3.494,0.005-5.237
					c0.017-2.255,0.163-4.519-0.052-6.779c-0.062-0.635,0.069-1.288,0.102-1.934c0.063-1.29-0.249-2.58,0.007-3.869
					c0.059-0.006,0.118-0.011,0.174-0.017c0.269,0.275,0.534,0.55,0.801,0.826c0.007,7.713,0.012,15.426,0.017,23.14
					c0.003,5.015,0.003,10.031-0.002,15.048c0,0.281,0.092,0.584-0.098,0.867C623.96,311.118,623.802,310.721,623.471,310.55z"/>
				<path fill="#BCBDBF" d="M566.865,310.536c0.062-0.052,0.123-0.103,0.184-0.152c0.226,0.278,0.543,0.192,0.83,0.192
					c13.937,0,27.875-0.006,41.813-0.01c4.59-0.002,9.183-0.004,13.772-0.006c-0.236,0.26-0.552,0.174-0.84,0.174
					c-18.255,0.005-36.511,0.005-54.767,0C567.521,310.734,567.146,310.843,566.865,310.536z"/>
				<path fill="#BCBDBF" d="M623.466,271.362c-6.157-0.006-12.312-0.015-18.471-0.016c-11.208-0.003-22.417-0.002-33.626-0.003
					c-3.319,0-6.644-0.003-9.964-0.004c0.245-0.245,0.559-0.158,0.846-0.159c20.126-0.003,40.254-0.003,60.382,0.001
					C622.918,271.181,623.234,271.091,623.466,271.362z"/>
				<path fill="#F29D20" d="M597.797,295.774c-0.926-0.54-1.685-1.247-2.2-2.197c-0.805-2.757,0.382-5.114,2.87-5.71
					c3.044-0.729,5.764,2.012,5.02,5.059c-0.051,0.21-0.111,0.416-0.167,0.623c-0.541,0.945-1.269,1.703-2.233,2.224
					C599.99,296.142,598.894,296.116,597.797,295.774z"/>
				<path fill="#F29D20" d="M579.841,300.908c-0.543,0.925-1.271,1.658-2.207,2.188c-1.108,0.375-2.22,0.355-3.331,0
					c-0.921-0.531-1.648-1.259-2.188-2.174c-0.618-1.929-0.321-3.635,1.303-4.956c1.41-1.147,3.305-1.199,4.829-0.202
					c1.519,0.991,2.205,2.808,1.737,4.598C579.936,300.544,579.887,300.727,579.841,300.908z"/>
				<path fill="#B9BDBF" d="M595.273,280.438c1.185,0,2.368,0.016,3.554-0.007c0.485-0.011,0.7,0.159,0.656,0.654
					c-0.021,0.267-0.021,0.538-0.003,0.806c0.035,0.493-0.188,0.66-0.665,0.659c-2.328-0.014-4.655-0.013-6.983-0.002
					c-0.439,0.002-0.602-0.165-0.635-0.612c-0.111-1.503-0.128-1.5,1.413-1.494c0.888,0.004,1.775,0.001,2.663,0.001
					C595.273,280.441,595.273,280.441,595.273,280.438z"/>
				<path fill="#B9BCBE" d="M571.841,289.966c-1.134,0-2.269-0.022-3.398,0.009c-0.572,0.016-0.74-0.208-0.743-0.761
					c-0.009-1.362-0.03-1.312,1.299-1.36c2.175-0.078,4.354,0.12,6.53-0.057c0.079-0.007,0.194-0.035,0.232,0.006
					c0.471,0.502,0.144,1.116,0.213,1.676c0.052,0.404-0.234,0.486-0.571,0.485c-1.188-0.003-2.376-0.002-3.562-0.002
					C571.841,289.964,571.841,289.965,571.841,289.966z"/>
				<path fill="#B9BDBF" d="M596.287,279.446c-0.81,0-1.616-0.022-2.424,0.008c-0.528,0.018-0.745-0.189-0.699-0.708
					c0.021-0.241,0.028-0.486,0.011-0.728c-0.033-0.476,0.155-0.678,0.651-0.674c1.669,0.017,3.338,0.011,5.009-0.007
					c0.494-0.005,0.686,0.203,0.646,0.68c-0.019,0.24-0.021,0.486,0.003,0.727c0.048,0.519-0.158,0.729-0.69,0.711
					C597.957,279.424,597.123,279.446,596.287,279.446z"/>
				<path fill="#B9BCBE" d="M572.876,290.959c0.808,0,1.619,0.022,2.427-0.008c0.534-0.02,0.74,0.194,0.697,0.711
					c-0.025,0.268-0.021,0.54-0.01,0.81c0.018,0.415-0.173,0.581-0.581,0.58c-1.699-0.005-3.399,0.001-5.101,0.007
					c-0.44,0-0.636-0.221-0.621-0.655c0.01-0.297,0.013-0.595,0-0.89c-0.02-0.428,0.199-0.563,0.597-0.559
					C571.146,290.969,572.012,290.959,572.876,290.959z"/>
				<path fill="#B9BCBE" d="M597.438,283.653c0.27,0,0.539,0,0.811,0c1.311,0,1.29,0,1.247,1.297
					c-0.015,0.463-0.167,0.689-0.635,0.746c-1.08,0.127-2.147-0.159-3.225-0.09c-0.22,0.014-0.304-0.159-0.356-0.368
					c-0.301-1.208,0.016-1.61,1.267-1.595c0.298,0.002,0.596,0.001,0.894,0.001C597.438,283.646,597.438,283.649,597.438,283.653z"
					/>
				<path fill="#EBEEEE" d="M601.493,291.875c0.015,1.13-0.908,2.09-2.021,2.104c-1.13,0.016-2.066-0.908-2.082-2.046
					c-0.015-1.147,0.878-2.069,2.022-2.088C600.556,289.824,601.477,290.727,601.493,291.875z"/>
				<path fill="#EBEEEE" d="M575.969,297.189c1.159-0.005,2.055,0.885,2.056,2.044c0,1.144-0.912,2.064-2.05,2.065
					c-1.136,0.001-2.05-0.916-2.054-2.06C573.921,298.074,574.801,297.192,575.969,297.189z"/>
			</g>
			<rect x="561.367" y="271.277" fill="#EBEEEF" width="62.064" height="39.708"/>
			<g>
				<path fill="#19A862" d="M609.315,296.206c0,3.681-0.006,7.36,0.008,11.043c0.002,0.354-0.089,0.452-0.447,0.448
					c-1.97-0.018-3.938-0.016-5.908-0.002c-0.312,0.002-0.411-0.077-0.411-0.4c0.011-7.406,0.011-14.813,0-22.221
					c0-0.325,0.097-0.402,0.408-0.4c1.969,0.014,3.938,0.017,5.907-0.001c0.351-0.002,0.453,0.081,0.453,0.443
					C609.311,288.813,609.315,292.51,609.315,296.206z"/>
				<path fill="#5BB783" d="M593.498,298.615c0-2.891,0.007-5.783-0.01-8.674c-0.002-0.358,0.091-0.444,0.443-0.441
					c1.997,0.018,3.997,0.014,5.994,0.002c0.282-0.001,0.389,0.052,0.387,0.367c-0.012,5.813-0.01,11.627-0.002,17.439
					c0,0.305-0.088,0.381-0.382,0.379c-2.014-0.012-4.026-0.015-6.042,0.002c-0.317,0.002-0.398-0.082-0.396-0.399
					C593.503,304.396,593.498,301.506,593.498,298.615z"/>
				<path fill="#4E7E99" d="M599.699,278.303c-0.724-0.675-1.415-1.329-2.117-1.974c-0.26-0.238-0.207-0.359,0.115-0.444
					c2.698-0.698,5.396-1.398,8.093-2.1c0.041-0.011,0.083-0.012,0.188-0.025c-0.772,2.813-1.535,5.592-2.312,8.41
					c-0.73-0.7-1.436-1.36-2.119-2.041c-0.183-0.182-0.297-0.176-0.484-0.021c-5.099,4.217-10.688,7.658-16.625,10.553
					c-2.547,1.241-5.144,2.361-7.772,3.408c-0.245,0.097-0.356,0.091-0.447-0.189c-0.163-0.501-0.355-0.991-0.569-1.472
					c-0.112-0.256-0.057-0.346,0.195-0.445c2.898-1.148,5.751-2.402,8.54-3.796c5.31-2.658,10.317-5.786,14.926-9.541
					C599.424,278.529,599.54,278.433,599.699,278.303z"/>
				<path fill="#8AC8A4" d="M584.475,300.991c0-2.06,0.009-4.119-0.01-6.176c-0.002-0.36,0.062-0.489,0.459-0.483
					c1.982,0.023,3.967,0.021,5.949,0.002c0.349-0.003,0.423,0.098,0.422,0.431c-0.01,4.164-0.01,8.325,0,12.489
					c0,0.318-0.055,0.448-0.415,0.444c-1.999-0.019-3.998-0.021-5.997,0c-0.357,0.004-0.418-0.118-0.415-0.439
					C584.48,305.167,584.475,303.078,584.475,300.991z"/>
				<path fill="#BBDDC8" d="M582.215,303.416c0,1.302-0.007,2.604,0.007,3.904c0.001,0.268-0.06,0.369-0.349,0.365
					c-2.029-0.013-4.057-0.009-6.084-0.002c-0.233,0.002-0.312-0.062-0.312-0.304c0.009-2.647,0.009-5.297,0-7.944
					c0-0.214,0.053-0.284,0.276-0.282c2.056,0.008,4.116,0.012,6.173-0.003c0.31-0.002,0.292,0.149,0.291,0.361
					C582.213,300.814,582.215,302.114,582.215,303.416z"/>
			</g>
		</g>
	</g>
	<g>
		<path fill="#EAF3E4" stroke="#FFFFFF" stroke-miterlimit="10" d="M545.684,135.858c0,32.994-26.772,59.741-59.799,59.741
			c-33.025,0-59.799-26.747-59.799-59.741c0-33.026,26.772-59.799,59.799-59.799C518.91,76.059,545.684,102.832,545.684,135.858z"/>
		<g>
			<path fill="#E4B35A" d="M463.397,139.457c0,2.02-0.059,4.042,0.021,6.059c0.046,1.155-0.306,1.778-1.465,2.126
				c-2.81,0.84-5.604,1.739-8.354,2.742c-1.196,0.438-1.342-0.013-1.337-1.01c0.02-4.366,0.031-8.731-0.01-13.1
				c-0.008-0.954,0.363-1.41,1.241-1.679c2.927-0.897,5.852-1.8,8.746-2.791c1.136-0.388,1.207,0.147,1.203,1
				c-0.017,2.218-0.008,4.436-0.008,6.652C463.425,139.457,463.412,139.457,463.397,139.457z"/>
			<path fill="#EFC063" d="M477.21,142.852c0,2.089-0.046,4.18,0.017,6.266c0.034,1.236-0.042,1.8-1.566,1.201
				c-2.672-1.048-5.437-1.859-8.182-2.708c-1.008-0.312-1.493-0.778-1.476-1.925c0.063-4.177,0.063-8.358,0.006-12.539
				c-0.021-1.432,0.403-1.667,1.722-1.197c2.702,0.963,5.446,1.815,8.199,2.63c0.99,0.294,1.335,0.784,1.301,1.808
				C477.159,138.54,477.21,140.698,477.21,142.852z"/>
			<path fill="#EFC063" d="M490.678,120.158c-0.003,2.282-0.019,4.564,0.007,6.848c0.011,0.971-0.279,1.284-1.28,0.935
				c-2.891-1.012-5.797-1.975-8.712-2.912c-0.816-0.263-1.118-0.709-1.113-1.564c0.031-4.498,0.042-8.998-0.007-13.498
				c-0.014-1.219,0.524-1.27,1.438-0.968c2.783,0.921,5.551,1.894,8.363,2.714c1.136,0.333,1.35,0.952,1.322,1.99
				C490.636,115.853,490.68,118.006,490.678,120.158z"/>
			<path fill="#E4B35A" d="M479.546,150.765c0-5.111,0.008-10.046-0.008-14.987c-0.003-0.787,0.531-0.953,1.099-1.135
				c2.916-0.928,5.842-1.818,8.74-2.803c1.071-0.364,1.237,0.064,1.234,0.972c-0.016,4.432-0.015,8.862,0,13.289
				c0.003,0.668-0.201,1.129-0.862,1.343C486.419,148.525,483.094,149.609,479.546,150.765z"/>
			<path fill="#E4B35A" d="M492.942,120.041c-0.002-2.152,0.041-4.305-0.02-6.455c-0.026-0.989,0.242-1.529,1.265-1.838
				c2.808-0.844,5.581-1.794,8.361-2.727c1.062-0.355,1.546-0.157,1.529,1.096c-0.05,4.304-0.038,8.607-0.006,12.911
				c0.006,0.936-0.349,1.397-1.243,1.68c-2.858,0.899-5.7,1.85-8.532,2.837c-1.099,0.383-1.387,0.004-1.365-1.048
				C492.972,124.346,492.942,122.193,492.942,120.041z"/>
			<path fill="#EFC063" d="M449.892,142.778c0,2.218-0.03,4.438,0.015,6.657c0.022,1.115-0.269,1.336-1.367,0.934
				c-2.696-0.988-5.432-1.869-8.176-2.714c-1.085-0.334-1.592-0.818-1.57-2.053c0.077-4.176,0.061-8.357,0.011-12.539
				c-0.016-1.249,0.228-1.616,1.544-1.146c2.644,0.944,5.335,1.751,8.03,2.532c1.107,0.322,1.604,0.834,1.541,2.059
				C449.816,138.595,449.892,140.689,449.892,142.778z"/>
			<path fill="#E4B35A" d="M530.96,116.68c0.001,2.092-0.025,4.184,0.011,6.274c0.02,0.909-0.269,1.419-1.198,1.709
				c-2.867,0.895-5.717,1.847-8.547,2.851c-1.146,0.406-1.362-0.047-1.357-1.057c0.02-4.379,0.02-8.756-0.007-13.135
				c-0.008-0.844,0.281-1.299,1.115-1.558c2.872-0.888,5.725-1.832,8.574-2.78c1.004-0.334,1.448-0.102,1.424,1.031
				C530.925,112.236,530.96,114.458,530.96,116.68z"/>
			<path fill="#E4B35A" d="M465.901,165.152c0-2.09,0.06-4.181-0.025-6.267c-0.046-1.114,0.353-1.623,1.414-1.935
				c2.757-0.808,5.494-1.684,8.206-2.63c1.15-0.403,1.515-0.172,1.504,1.047c-0.041,4.308-0.041,8.616,0.005,12.924
				c0.012,0.97-0.401,1.403-1.252,1.679c-2.92,0.939-5.838,1.886-8.736,2.895c-0.949,0.33-1.135-0.004-1.125-0.858
				C465.919,169.721,465.901,167.437,465.901,165.152z"/>
			<path fill="#EFC063" d="M463.524,165.174c0,2.216-0.039,4.434,0.018,6.647c0.026,1.122-0.3,1.335-1.361,0.956
				c-2.762-0.984-5.555-1.883-8.341-2.794c-0.797-0.261-1.332-0.559-1.323-1.592c0.032-4.365-0.014-8.73-0.069-13.096
				c-0.017-1.052,0.246-1.42,1.354-1.04c2.838,0.972,5.688,1.903,8.562,2.766c0.94,0.284,1.198,0.791,1.179,1.701
				C463.493,160.871,463.524,163.022,463.524,165.174z"/>
			<path fill="#EFC063" d="M506.357,116.59c0-2.151,0.04-4.306-0.02-6.456c-0.031-1.151,0.304-1.554,1.469-1.162
				c2.777,0.937,5.562,1.859,8.366,2.715c1.004,0.306,1.277,0.872,1.269,1.86c-0.043,4.239-0.043,8.479-0.008,12.719
				c0.011,1.21-0.212,1.661-1.558,1.159c-2.623-0.978-5.296-1.832-7.979-2.633c-1.073-0.319-1.436-0.853-1.396-1.946
				c0.074-2.082,0.021-4.17,0.021-6.255C506.469,116.591,506.412,116.591,506.357,116.59z"/>
			<path fill="#F5CE89" d="M454.959,152.452c6.554-3.71,12.962-3.738,19.567,0.038c-3.289,1.034-6.44,2.287-9.712,2.929
				c-1.356,0.267-2.977-0.757-4.467-1.224C458.571,153.639,456.804,153.05,454.959,152.452z"/>
			<path fill="#F5CE89" d="M441.386,129.623c3.048-0.923,6.092-1.861,9.15-2.751c0.413-0.119,0.928-0.079,1.347,0.045
				c2.995,0.883,5.978,1.806,9.03,3.136c-3.228,1.027-6.425,2.17-9.701,3.007c-0.867,0.221-1.98-0.479-2.971-0.792
				c-2.294-0.723-4.578-1.469-6.867-2.205C441.377,129.915,441.382,129.77,441.386,129.623z"/>
			<path fill="#F5CE89" d="M488.416,129.936c-3.382,1.111-6.463,2.13-9.553,3.123c-0.291,0.094-0.663,0.097-0.954,0.004
				c-3.092-0.99-6.174-2.01-9.25-3.262c4.671-1.1,8.969-4.454,14.152-1.796C484.448,128.844,486.421,128.924,488.416,129.936z"/>
			<path fill="#F5CE89" d="M501.647,107.175c-3.341,1.074-6.492,2.245-9.737,3.036c-0.979,0.239-2.222-0.56-3.333-0.913
				c-2.15-0.685-4.293-1.393-6.65-2.159C488.56,104.027,494.943,103.784,501.647,107.175z"/>
			<path fill="#F5CE89" d="M509.043,107.074c6.429-3.206,12.771-3.127,19.273-0.022c-2.12,1.126-4.486,1.381-6.561,2.35
				c-2.18,1.019-4.239,0.862-6.367-0.1C513.356,108.385,511.054,108.169,509.043,107.074z"/>
		</g>
	</g>
	<g>
		<path fill="#EAF3E4" stroke="#FFFFFF" stroke-miterlimit="10" d="M167.398,296.013c0,33.008-26.774,59.768-59.799,59.768
			c-33.026,0-59.799-26.76-59.799-59.768c0-33.027,26.772-59.799,59.799-59.799C140.624,236.214,167.398,262.985,167.398,296.013z"
			/>
		<g>
			<path fill="#5DB24C" d="M105.684,331.117c-9.84-7.787-16.479-17.559-18.501-30.119c-1.17-7.26-0.272-14.423,1.66-21.446
				c2.751-9.994,7.839-18.589,15.826-25.332c1.455-1.229,2.332-2.711,2.49-4.646c0.542,0.235,0.544,0.705,0.665,1.108
				c0.942,6.701,0.861,13.451,0.873,20.19c0.022,12.143,0.458,24.278,0.232,36.414c-0.077,4.213-0.335,8.421-0.566,12.628
				c-0.309,0.643-0.516,1.307-0.435,2.031c-0.235,2.615-0.457,5.234-1.11,7.787C106.664,330.33,106.698,331.184,105.684,331.117z"/>
			<path fill="#48A136" d="M108.06,320.223c0.09-3.162,0.102-6.33,0.284-9.488c0.491-8.463,0.33-16.938,0.144-25.402
				c-0.157-7.144,0.107-14.292-0.217-21.428c-0.174-3.798-0.035-7.607-0.418-11.397c-0.062-0.6-0.589-1.212-0.028-1.823
				c1.823,4.635,5.716,7.69,8.718,11.426c6.581,8.189,10.579,17.52,11.688,27.941c1.661,15.608-3.378,28.734-15.279,39.113
				c-0.603,0.527-1.213,1.049-1.945,1.398c-1.521-0.599-1.996-2.016-2.405-3.354c-0.51-1.668-0.795-3.407-0.758-5.173
				C107.882,321.425,107.719,320.794,108.06,320.223z"/>
			<path fill="#ADAD8D" d="M108.057,322.127c0.125,1.747,0.434,3.469,0.849,5.163c0.32,1.301,1.188,2.315,2.101,3.272
				c-1.717,2.942-1.171,6.215-1.353,9.381c-0.018,0.314,0.118,0.644,0.081,0.953c-0.071,0.574,0.49,1.484-0.713,1.527
				c-1.192,0.039-1.657-0.424-1.734-1.535c-0.236-3.307-0.228-6.654-1.604-9.774c0.604-0.132,0.604-0.655,0.722-1.106
				c0.687-2.662,0.92-5.392,1.215-8.111C107.889,321.741,107.946,321.982,108.057,322.127z"/>
			<path fill="#93AD71" d="M108.057,322.127c-0.145-0.077-0.292-0.154-0.437-0.23c0.057-0.582-0.303-1.272,0.439-1.674
				C108.058,320.857,108.058,321.492,108.057,322.127z"/>
		</g>
	</g>
</g>
<g>
	<g>
		<path fill="#676764" d="M63.644,363.05l6.014-11.036l1.813,0.988l-0.966,11.415l8.992-7.041l1.736,0.946l-6.014,11.035
			l-1.273-0.693l4.933-9.053l-8.854,6.916l-1.126-0.613l0.951-11.223l-4.933,9.053L63.644,363.05z"/>
		<path fill="#676764" d="M80.264,366.27c0.925-2.935,2.785-3.961,5.579-3.08c2.794,0.883,3.728,2.789,2.803,5.724
			c-0.924,2.929-2.783,3.952-5.577,3.069C80.286,371.104,79.351,369.2,80.264,366.27z M83.463,370.732
			c1.76,0.557,2.974-0.226,3.643-2.344c0.654-2.072,0.101-3.387-1.66-3.941c-1.76-0.557-2.967,0.203-3.621,2.275
			C81.157,368.842,81.703,370.18,83.463,370.732z"/>
		<path fill="#676764" d="M90.498,374.044l1.47-9.11l1.084,0.176l0.099,1.209c1.056-0.625,2.143-0.848,3.259-0.668
			c2.273,0.367,3.228,1.682,2.863,3.942l-0.922,5.718l-1.605-0.259l0.927-5.743c0.218-1.354-0.346-2.14-1.694-2.356
			c-0.92-0.147-1.855,0.096-2.807,0.731l-1.068,6.619L90.498,374.044z"/>
		<path fill="#676764" d="M109.821,375.795c-0.046,2.227-1.483,3.311-4.313,3.252c-1.137-0.023-2.141-0.189-3.014-0.502l0.027-1.316
			c0.891,0.311,1.901,0.479,3.032,0.502c1.734,0.035,2.615-0.621,2.643-1.969l0.009-0.438c-0.697,0.278-1.444,0.409-2.241,0.394
			c-2.917-0.061-4.344-1.646-4.28-4.756c0.062-3.041,1.632-4.529,4.707-4.466c1.248,0.024,2.452,0.177,3.613,0.452L109.821,375.795z
			 M108.354,368.1c-0.554-0.151-1.24-0.235-2.061-0.254c-1.962-0.039-2.965,1.004-3.009,3.129c-0.045,2.187,0.861,3.297,2.718,3.336
			c0.844,0.018,1.588-0.125,2.233-0.429L108.354,368.1z"/>
		<path fill="#676764" d="M112.551,371.091c-0.36-3.055,0.914-4.754,3.824-5.098c2.91-0.343,4.544,1.013,4.905,4.067
			c0.36,3.049-0.915,4.746-3.824,5.088C114.557,375.491,112.922,374.139,112.551,371.091z M117.301,373.85
			c1.833-0.217,2.62-1.428,2.359-3.633c-0.255-2.158-1.298-3.13-3.131-2.914c-1.833,0.217-2.623,1.404-2.368,3.562
			C114.422,373.07,115.468,374.064,117.301,373.85z"/>
		<path fill="#676764" d="M130.104,372.811l-4.205-11.844l4.307-1.529c3.92-1.392,6.543-0.221,7.868,3.513
			c1.478,4.163,0.257,6.94-3.664,8.333L130.104,372.811z M133.97,370.039c2.899-1.028,3.757-3.211,2.573-6.546
			c-1.031-2.904-2.996-3.843-5.895-2.813l-2.774,0.985l3.322,9.358L133.97,370.039z"/>
		<path fill="#676764" d="M143.704,367.497l-6.28-10.888l4.644-2.68c2.071-1.193,3.594-0.945,4.569,0.743
			c0.714,1.239,0.55,2.515-0.493,3.825c1.597-0.562,2.793-0.152,3.589,1.229c1.239,2.146,0.724,3.875-1.545,5.184L143.704,367.497z
			 M147.446,363.816c1.299-0.75,1.568-1.784,0.807-3.104c-0.741-1.284-1.982-1.425-3.723-0.42l-0.609,0.353l-0.531-0.922
			c1.92-1.479,2.527-2.832,1.821-4.055c-0.585-1.016-1.457-1.189-2.614-0.521l-3.106,1.793l4.962,8.603L147.446,363.816z"/>
	</g>
</g>
<g>
	<g>
		<path fill="#676764" d="M186.021,208.475l0.501-1.407c1.084,0.884,2.347,1.582,3.788,2.095c2.037,0.726,3.321,0.343,3.851-1.147
			c0.452-1.27-0.072-2.171-1.574-2.706l-1.523-0.543c-2.479-0.882-3.334-2.399-2.567-4.553c0.806-2.263,2.795-2.829,5.97-1.699
			c1.38,0.491,2.604,1.114,3.673,1.868l-0.501,1.407c-1.03-0.864-2.234-1.542-3.614-2.033c-2.153-0.767-3.485-0.433-3.996,1.003
			c-0.452,1.271,0.05,2.164,1.507,2.683l1.523,0.542c2.522,0.898,3.401,2.425,2.634,4.577c-0.825,2.318-2.767,2.933-5.825,1.844
			C188.427,209.892,187.145,209.248,186.021,208.475z"/>
		<path fill="#676764" d="M203.238,204.433c2.576,0.507,3.613,2.033,3.112,4.58c-0.071,0.362-0.173,0.745-0.307,1.149l-6.355-1.251
			c-0.364,1.852,0.534,2.989,2.696,3.415c1.029,0.202,1.966,0.268,2.811,0.194l-0.254,1.294c-0.845,0.072-1.839-0.004-2.983-0.229
			c-3.11-0.612-4.362-2.462-3.754-5.549C198.782,205.088,200.461,203.886,203.238,204.433z M199.949,207.583l4.898,0.964
			c0.278-1.594-0.342-2.54-1.86-2.838C201.377,205.392,200.364,206.017,199.949,207.583z"/>
		<path fill="#676764" d="M215.401,214.802c-0.772,0.124-1.596,0.156-2.473,0.097c-3.274-0.22-4.803-1.924-4.588-5.109
			c0.199-2.952,1.935-4.318,5.209-4.098c0.877,0.059,1.689,0.202,2.438,0.429l-0.088,1.315c-0.748-0.227-1.59-0.372-2.525-0.435
			c-2.134-0.145-3.271,0.822-3.411,2.897c-0.156,2.309,0.833,3.535,2.967,3.679c0.936,0.063,1.789,0.033,2.561-0.091
			L215.401,214.802z"/>
		<path fill="#676764" d="M225.809,205.395l0.561,9.211l-1.114,0.068l-0.352-1.159c-1.07,0.853-2.168,1.312-3.297,1.381
			c-2.117,0.129-3.246-0.95-3.385-3.237l-0.352-5.781l1.623-0.099l0.354,5.808c0.083,1.369,0.803,2.012,2.16,1.93
			c0.93-0.057,1.792-0.5,2.587-1.329l-0.407-6.693L225.809,205.395z"/>
		<path fill="#676764" d="M229.818,214.076l-1.573-9.094l1.083-0.188l0.486,1.111c0.663-0.911,1.555-1.464,2.675-1.658l0.23,1.334
			c-1.085,0.188-1.899,0.725-2.442,1.609l1.143,6.607L229.818,214.076z"/>
		<path fill="#676764" d="M237.586,202.922c2.522-0.727,4.143,0.157,4.861,2.651c0.103,0.354,0.187,0.742,0.252,1.162l-6.224,1.793
			c0.522,1.813,1.842,2.414,3.959,1.805c1.008-0.29,1.871-0.661,2.588-1.111l0.365,1.267c-0.718,0.451-1.637,0.838-2.757,1.16
			c-3.046,0.878-5.004-0.195-5.875-3.219C233.923,205.541,234.867,203.705,237.586,202.922z M236.101,207.228l4.797-1.382
			c-0.481-1.544-1.465-2.103-2.952-1.674C236.37,204.626,235.755,205.645,236.101,207.228z"/>
	</g>
</g>
<g>
	<g>
		<path fill="#676764" d="M556.996,367.418l0.59-1.373c1.026,0.951,2.242,1.727,3.648,2.33c1.985,0.852,3.293,0.551,3.916-0.904
			c0.53-1.238,0.063-2.172-1.4-2.799l-1.486-0.639c-2.418-1.035-3.178-2.605-2.275-4.705c0.945-2.207,2.968-2.648,6.063-1.32
			c1.348,0.578,2.529,1.275,3.548,2.096l-0.588,1.373c-0.974-0.928-2.133-1.68-3.479-2.256c-2.102-0.902-3.45-0.652-4.051,0.748
			c-0.531,1.238-0.087,2.164,1.336,2.773l1.485,0.637c2.461,1.055,3.241,2.633,2.341,4.732c-0.97,2.262-2.945,2.754-5.93,1.475
			C559.309,368.982,558.07,368.26,556.996,367.418z"/>
		<path fill="#676764" d="M575.146,373.924c-0.781-0.027-1.597-0.154-2.445-0.381c-3.17-0.848-4.342-2.814-3.519-5.898
			c0.765-2.858,2.731-3.865,5.901-3.018c0.849,0.227,1.618,0.523,2.31,0.891l-0.341,1.273c-0.689-0.367-1.487-0.672-2.394-0.912
			c-2.066-0.553-3.368,0.176-3.906,2.186c-0.598,2.236,0.137,3.629,2.203,4.183c0.906,0.242,1.75,0.377,2.531,0.403L575.146,373.924
			z"/>
		<path fill="#676764" d="M578.003,371.947c0.249-1.877,1.61-2.65,4.085-2.322c0.796,0.105,1.584,0.27,2.364,0.49l0.114-0.861
			c0.14-1.053-0.613-1.688-2.256-1.904c-0.941-0.125-1.927-0.106-2.951,0.051l0.174-1.307c1.025-0.158,2.009-0.176,2.95-0.051
			c2.718,0.359,3.952,1.486,3.7,3.381l-0.837,6.307l-0.905-0.119l-0.438-0.979c-0.992,0.482-2.024,0.654-3.1,0.513
			C578.727,374.854,577.759,373.789,578.003,371.947z M581.914,370.932c-1.399-0.186-2.164,0.215-2.295,1.203
			c-0.132,0.986,0.354,1.555,1.459,1.701c1.115,0.146,2.098-0.023,2.949-0.514l0.252-1.9
			C583.498,371.201,582.711,371.037,581.914,370.932z"/>
		<path fill="#676764" d="M590.896,363.383l-0.452,12.561l-1.625-0.059l0.452-12.561L590.896,363.383z"/>
		<path fill="#676764" d="M593.293,373.283c-0.109-1.889,1.082-2.906,3.573-3.051c0.802-0.047,1.605-0.035,2.415,0.035l-0.051-0.869
			c-0.062-1.06-0.921-1.539-2.576-1.443c-0.947,0.055-1.91,0.258-2.888,0.607l-0.077-1.314c0.979-0.352,1.94-0.555,2.889-0.609
			c2.738-0.158,4.162,0.715,4.271,2.623l0.369,6.352l-0.913,0.054l-0.612-0.879c-0.885,0.662-1.866,1.022-2.948,1.086
			C594.551,376.002,593.4,375.137,593.293,373.283z M596.943,371.549c-1.41,0.082-2.086,0.619-2.029,1.613
			c0.059,0.994,0.643,1.459,1.754,1.395c1.123-0.063,2.057-0.418,2.801-1.061l-0.11-1.912
			C598.549,371.514,597.744,371.502,596.943,371.549z"/>
		<path fill="#676764" d="M602.455,362.838l1.594-0.314l0.732,3.707c0.627-0.422,1.332-0.711,2.113-0.864
			c2.862-0.563,4.58,0.6,5.151,3.498c0.62,3.139-0.573,5.004-3.58,5.598c-1.299,0.259-2.516,0.369-3.649,0.336L602.455,362.838z
			 M606.173,373.275c0.556,0.062,1.208,0.021,1.954-0.127c2.013-0.396,2.792-1.742,2.34-4.035c-0.383-1.938-1.484-2.728-3.308-2.367
			c-0.827,0.164-1.527,0.463-2.1,0.898L606.173,373.275z"/>
		<path fill="#676764" d="M613.77,360.158l3.688,12.016l-1.555,0.477l-3.688-12.016L613.77,360.158z"/>
		<path fill="#676764" d="M620.713,361.131c2.418-1.021,4.133-0.338,5.144,2.055c0.145,0.34,0.272,0.713,0.389,1.123l-5.966,2.521
			c0.733,1.738,2.115,2.178,4.146,1.32c0.967-0.408,1.779-0.879,2.438-1.412l0.514,1.215c-0.659,0.533-1.525,1.025-2.6,1.48
			c-2.92,1.233-4.992,0.401-6.218-2.496C617.389,364.168,618.106,362.232,620.713,361.131z M619.752,365.584l4.598-1.943
			c-0.661-1.477-1.705-1.914-3.131-1.311C619.708,362.969,619.219,364.053,619.752,365.584z"/>
	</g>
</g>
<g>
	<g>
		<path fill="#676764" d="M448.869,204.17l-1.56-0.647l9.747-9.561l1.664,0.69l0.131,13.664l-1.663-0.691l0.016-4.276l-3.839-1.594
			l0.919-1.046l2.923,1.213l0.016-6.159L448.869,204.17z"/>
		<path fill="#676764" d="M461.808,209.232l1.764-9.059l1.079,0.21l0.046,1.19c1.016-0.59,2.036-0.785,3.06-0.586
			c1.312,0.255,2.125,0.844,2.441,1.765c1.145-0.637,2.224-0.856,3.234-0.66c2.082,0.405,2.9,1.756,2.453,4.051l-1.094,5.616
			l-1.596-0.311l1.109-5.703c0.264-1.352-0.175-2.138-1.312-2.359c-0.853-0.166-1.726,0.07-2.618,0.708l-1.276,6.557l-1.596-0.311
			l1.104-5.677c0.267-1.369-0.164-2.163-1.291-2.383c-0.897-0.175-1.776,0.061-2.637,0.705l-1.274,6.557L461.808,209.232z"/>
		<path fill="#676764" d="M478.387,209.126c0.038-1.892,1.306-2.812,3.801-2.764c0.803,0.017,1.604,0.091,2.403,0.225l0.019-0.87
			c0.021-1.061-0.799-1.607-2.455-1.641c-0.949-0.019-1.925,0.108-2.928,0.382l0.027-1.318c1.001-0.273,1.978-0.4,2.926-0.381
			c2.742,0.055,4.095,1.036,4.056,2.946l-0.127,6.362l-0.913-0.019l-0.544-0.925c-0.933,0.591-1.939,0.875-3.023,0.854
			C479.43,211.934,478.35,210.983,478.387,209.126z M482.16,207.681c-1.412-0.028-2.127,0.456-2.146,1.452
			c-0.021,0.996,0.525,1.505,1.64,1.526c1.125,0.022,2.083-0.257,2.875-0.839l0.037-1.916
			C483.765,207.771,482.963,207.697,482.16,207.681z"/>
		<path fill="#676764" d="M488.486,202.738l7.166-0.761l0.14,1.311l-4.774,7.225l5.306-0.563l0.13,1.224l-7.167,0.761l-0.129-1.224
			l4.844-7.231l-5.375,0.57L488.486,202.738z"/>
		<path fill="#676764" d="M498.285,206.242c-0.729-2.988,0.33-4.83,3.176-5.523c2.846-0.694,4.634,0.452,5.363,3.441
			c0.727,2.982-0.332,4.821-3.18,5.516C500.811,210.367,499.023,209.223,498.285,206.242z M503.336,208.403
			c1.793-0.438,2.426-1.734,1.9-3.893c-0.517-2.111-1.67-2.949-3.463-2.512s-2.433,1.712-1.917,3.824
			C500.383,207.98,501.542,208.841,503.336,208.403z"/>
		<path fill="#676764" d="M511.09,207.588l-3.492-8.542l1.019-0.416l0.714,0.98c0.576-1.084,1.388-1.84,2.435-2.268
			c2.132-0.871,3.632-0.247,4.498,1.874l2.191,5.361l-1.506,0.615l-2.201-5.386c-0.521-1.27-1.41-1.646-2.674-1.129
			c-0.862,0.353-1.533,1.048-2.016,2.087l2.538,6.207L511.09,207.588z"/>
	</g>
</g>
<g>
	<g>
		<path fill="#676764" d="M438.422,207.011l1.271,0.927l-5.017,9.875l9.312-6.741l1.313,0.958l-3.368,11.076l8.056-7.658
			l1.214,0.886l-9.316,8.762l-1.789-1.306l3.336-10.6l-8.979,6.482l-1.77-1.29L438.422,207.011z"/>
		<path fill="#676764" d="M454.201,220.974c2.388,1.09,3.043,2.816,1.965,5.178c-0.153,0.335-0.342,0.685-0.564,1.046l-5.893-2.69
			c-0.784,1.717-0.174,3.032,1.83,3.947c0.954,0.436,1.851,0.716,2.688,0.841l-0.549,1.199c-0.838-0.125-1.787-0.43-2.848-0.914
			c-2.884-1.316-3.672-3.406-2.365-6.269C449.715,220.577,451.627,219.798,454.201,220.974z M450.271,223.275l4.54,2.074
			c0.64-1.486,0.257-2.55-1.15-3.192C452.168,221.476,451.039,221.849,450.271,223.275z"/>
		<path fill="#676764" d="M460.582,220.074l1.561,0.454l-1.055,3.629c0.752-0.086,1.51-0.019,2.275,0.204
			c2.801,0.814,3.79,2.64,2.966,5.476c-0.895,3.072-2.812,4.18-5.753,3.325c-1.272-0.37-2.404-0.83-3.397-1.382L460.582,220.074z
			 M459.084,231.053c0.464,0.312,1.062,0.574,1.793,0.787c1.97,0.572,3.281-0.264,3.934-2.509c0.552-1.896-0.064-3.104-1.849-3.622
			c-0.811-0.235-1.569-0.291-2.276-0.167L459.084,231.053z"/>
		<path fill="#676764" d="M473.089,235.452l0.112-1.49c1.279,0.566,2.682,0.907,4.207,1.022c2.154,0.162,3.293-0.545,3.412-2.123
			c0.102-1.344-0.644-2.075-2.232-2.195l-1.612-0.121c-2.624-0.198-3.85-1.437-3.678-3.715c0.181-2.396,1.95-3.467,5.311-3.214
			c1.461,0.11,2.807,0.388,4.036,0.833l-0.112,1.49c-1.222-0.562-2.562-0.898-4.021-1.009c-2.278-0.172-3.477,0.502-3.59,2.021
			c-0.102,1.344,0.619,2.074,2.161,2.19l1.612,0.121c2.67,0.201,3.92,1.441,3.748,3.72c-0.187,2.454-1.896,3.56-5.134,3.315
			C475.783,236.184,474.377,235.901,473.089,235.452z"/>
		<path fill="#676764" d="M488.641,227.063c2.619-0.167,4.013,1.044,4.179,3.635c0.022,0.368,0.022,0.765-0.003,1.188l-6.465,0.414
			c0.12,1.883,1.279,2.754,3.479,2.613c1.047-0.067,1.969-0.243,2.767-0.529l0.084,1.315c-0.798,0.286-1.777,0.466-2.941,0.541
			c-3.163,0.202-4.846-1.267-5.047-4.407C484.5,228.835,485.816,227.244,488.641,227.063z M486.265,230.95l4.981-0.319
			c-0.138-1.611-0.979-2.368-2.522-2.269C487.086,228.467,486.267,229.329,486.265,230.95z"/>
		<path fill="#676764" d="M496.122,235.545l-1.562-9.096l1.083-0.186l0.484,1.111c0.664-0.91,1.557-1.462,2.678-1.654l0.229,1.334
			c-1.086,0.188-1.9,0.722-2.445,1.605l1.135,6.609L496.122,235.545z"/>
		<path fill="#676764" d="M498.965,225.776l1.693-0.47l4.483,6.262l0.598-7.673l1.693-0.47l-1.146,9.896l-1.456,0.404
			L498.965,225.776z"/>
		<path fill="#676764" d="M509.001,219.139l0.55,1.437l-1.519,0.582l-0.55-1.437L509.001,219.139z M510.195,222.258l3.299,8.619
			l-1.519,0.581l-3.3-8.618L510.195,222.258z"/>
		<path fill="#676764" d="M522.878,226.211c-0.603,0.498-1.296,0.943-2.082,1.337c-2.935,1.47-5.116,0.776-6.546-2.079
			c-1.324-2.646-0.521-4.703,2.414-6.172c0.785-0.394,1.559-0.683,2.318-0.866l0.59,1.179c-0.76,0.184-1.56,0.485-2.396,0.905
			c-1.913,0.958-2.402,2.366-1.472,4.227c1.036,2.069,2.511,2.625,4.423,1.668c0.838-0.42,1.559-0.879,2.16-1.378L522.878,226.211z"
			/>
		<path fill="#676764" d="M523.584,215.07c2.153-1.5,3.973-1.186,5.455,0.945c0.211,0.303,0.416,0.643,0.613,1.019l-5.316,3.701
			c1.078,1.549,2.521,1.693,4.33,0.435c0.86-0.6,1.559-1.228,2.093-1.886l0.753,1.082c-0.533,0.658-1.278,1.319-2.235,1.986
			c-2.603,1.811-4.803,1.426-6.601-1.157C520.959,218.729,521.261,216.687,523.584,215.07z M523.562,219.625l4.098-2.853
			c-0.953-1.308-2.064-1.519-3.334-0.635C522.98,217.075,522.726,218.237,523.562,219.625z"/>
		<path fill="#676764" d="M534.305,217.953l-0.973-1.017c1.027-0.495,1.939-1.126,2.74-1.892c1.062-1.017,1.29-1.843,0.682-2.478
			c-0.566-0.593-1.221-0.534-1.961,0.175l-0.953,0.911c-1.438,1.378-2.787,1.41-4.043,0.098c-1.215-1.27-0.898-2.79,0.952-4.561
			c0.796-0.762,1.687-1.411,2.673-1.949l0.972,1.017c-1.025,0.495-1.937,1.124-2.732,1.885c-1.109,1.062-1.359,1.91-0.752,2.545
			c0.566,0.593,1.2,0.555,1.897-0.113l0.953-0.912c1.523-1.458,2.914-1.531,4.17-0.219c1.215,1.27,0.899,2.788-0.945,4.555
			C536.184,216.764,535.291,217.415,534.305,217.953z"/>
	</g>
</g>
</svg>
