<?xml version="1.0" encoding="utf-8"?>
<!-- Generator: Adobe Illustrator 16.0.0, SVG Export Plug-In . SVG Version: 6.00 Build 0)  -->
<!DOCTYPE svg PUBLIC "-//W3C//DTD SVG 1.1//EN" "http://www.w3.org/Graphics/SVG/1.1/DTD/svg11.dtd">
<svg version="1.1" id="Capa_1" xmlns="http://www.w3.org/2000/svg" xmlns:xlink="http://www.w3.org/1999/xlink" x="0px" y="0px"
	 width="865.932px" height="811.378px" viewBox="67.034 44.061 865.932 811.378"
	 enable-background="new 67.034 44.061 865.932 811.378" xml:space="preserve">
<g>
	<g>
		
			<linearGradient id="SVGID_1_" gradientUnits="userSpaceOnUse" x1="499.3481" y1="581.8672" x2="499.3481" y2="733.7969" gradientTransform="matrix(1 0 0 1 0 -131.7764)">
			<stop  offset="0.2979" style="stop-color:#DDE3C9"/>
			<stop  offset="0.8989" style="stop-color:#ECEEE5"/>
		</linearGradient>
		<path fill="url(#SVGID_1_)" d="M527.371,568.66l-23.438,30.378c-3.04,3.938-6.259,3.982-9.365,0.098l-23.187-28.979
			c-3.106-3.884-1.621-6.492,3.306-5.795l8.349,2.161V450.092h32.627v116.143l8.357-2.996
			C528.9,562.283,530.409,564.724,527.371,568.66z"/>
	</g>
	<g>
		<g>
			<g>
				<g>
					<g>
						
							<line fill="none" stroke="#D5D8CB" stroke-width="2" stroke-miterlimit="10" x1="581.893" y1="471.06" x2="583.714" y2="470.233"/>
						
							<line fill="none" stroke="#D5D8CB" stroke-width="2" stroke-miterlimit="10" stroke-dasharray="4.0191,4.0191" x1="587.374" y1="468.572" x2="746.582" y2="396.335"/>
						
							<line fill="none" stroke="#D5D8CB" stroke-width="2" stroke-miterlimit="10" x1="748.412" y1="395.505" x2="750.233" y2="394.679"/>
					</g>
				</g>
				<g>
					<g>
						
							<line fill="none" stroke="#D5D8CB" stroke-width="2" stroke-miterlimit="10" x1="219.802" y1="437.505" x2="221.771" y2="437.861"/>
						
							<line fill="none" stroke="#D5D8CB" stroke-width="2" stroke-miterlimit="10" stroke-dasharray="4.0318,4.0318" x1="225.738" y1="438.579" x2="390.386" y2="468.368"/>
						
							<line fill="none" stroke="#D5D8CB" stroke-width="2" stroke-miterlimit="10" x1="392.369" y1="468.727" x2="394.337" y2="469.083"/>
					</g>
				</g>
				
					<line fill="none" stroke="#D5D8CB" stroke-width="2" stroke-miterlimit="10" stroke-dasharray="4" x1="132.367" y1="281.891" x2="157.423" y2="360.654"/>
				
					<line fill="none" stroke="#D5D8CB" stroke-width="2" stroke-miterlimit="10" stroke-dasharray="4" x1="668.725" y1="286.005" x2="750.776" y2="328.856"/>
				
					<line fill="none" stroke="#D5D8CB" stroke-width="2" stroke-miterlimit="10" stroke-dasharray="4" x1="889.82" y1="256.518" x2="832.479" y2="346.312"/>
				
					<line fill="none" stroke="#D5D8CB" stroke-width="2" stroke-miterlimit="10" stroke-dasharray="4" x1="542.335" y1="142.132" x2="705.652" y2="95.479"/>
				
					<line fill="none" stroke="#D5D8CB" stroke-width="2" stroke-miterlimit="10" stroke-dasharray="4" x1="456.242" y1="183.566" x2="383.484" y2="263.685"/>
				
					<line fill="none" stroke="#D5D8CB" stroke-width="2" stroke-miterlimit="10" stroke-dasharray="4" x1="145.066" y1="199.338" x2="237.027" y2="137.814"/>
				
					<line fill="none" stroke="#D5D8CB" stroke-width="2" stroke-miterlimit="10" stroke-dasharray="4" x1="740.982" y1="142.199" x2="647.482" y2="230.988"/>
				
					<line fill="none" stroke="#D5D8CB" stroke-width="2" stroke-miterlimit="10" stroke-dasharray="4" x1="298.024" y1="159.288" x2="331.956" y2="275.934"/>
				
					<line fill="none" stroke="#D5D8CB" stroke-width="2" stroke-miterlimit="10" stroke-dasharray="4" x1="592.426" y1="312.729" x2="543.949" y2="397.341"/>
				
					<line fill="none" stroke="#D5D8CB" stroke-width="2" stroke-miterlimit="10" stroke-dasharray="4" x1="383.484" y1="351.629" x2="430.139" y2="419.571"/>
				
					<line fill="none" stroke="#D5D8CB" stroke-width="2" stroke-miterlimit="10" stroke-dasharray="4" x1="327.231" y1="105.152" x2="446.827" y2="136.129"/>
				
					<line fill="none" stroke="#D5D8CB" stroke-width="2" stroke-miterlimit="10" stroke-dasharray="4" x1="795.888" y1="120.407" x2="856.082" y2="168.577"/>
			</g>
			<g>
				<circle fill="#EAF3E4" stroke="#FFFFFF" stroke-miterlimit="10" cx="786.757" cy="364.861" r="48.042"/>
				<path fill="#EAF3E4" stroke="#FFFFFF" stroke-miterlimit="10" d="M932.466,208.779c0,26.532-21.51,48.041-48.044,48.041
					c-26.529,0-48.039-21.509-48.039-48.041c0-26.531,21.51-48.042,48.039-48.042C910.956,160.738,932.466,182.249,932.466,208.779z
					"/>
				<circle fill="#EAF3E4" stroke="#FFFFFF" stroke-miterlimit="10" cx="617.435" cy="273.365" r="48.041"/>
				<circle fill="#EAF3E4" stroke="#FFFFFF" stroke-miterlimit="10" cx="754.212" cy="92.603" r="48.042"/>
				<path fill="#EAF3E4" stroke="#FFFFFF" stroke-miterlimit="10" d="M541.669,156.185c0,26.532-21.509,48.041-48.045,48.041
					c-26.531,0-48.04-21.509-48.04-48.041c0-26.531,21.509-48.042,48.04-48.042C520.16,108.143,541.669,129.654,541.669,156.185z"/>
				<path fill="#EAF3E4" d="M352.554,303.534h-16.123c2.374-2.388,4.663-4.748,7.009-7.037c0.354-0.353,0.945-0.621,1.441-0.65
					c1.68-0.084,3.362-0.113,5.043-0.014c1.385,0.071,2.501,1.088,2.601,2.459C352.638,300.016,352.554,301.768,352.554,303.534z"/>
				<path fill="#EAF3E4" stroke="#FFFFFF" stroke-miterlimit="10" d="M369.806,289.221v18.581h8.068v-18.581H369.806z
					 M380.333,293.078v14.723h6.315v-14.723H380.333z M380.333,293.078v14.723h6.315v-14.723H380.333z M369.806,289.221v18.581
					h8.068v-18.581H369.806z M383.907,263.222c-6.526-3.32-13.903-5.186-21.731-5.186c-12.235,0-23.412,4.592-31.906,12.123
					c-9.891,8.803-16.136,21.633-16.136,35.918c0,11.487,4.042,22.042,10.768,30.309c0.27,0.324,0.537,0.65,0.819,0.974
					c8.817,10.259,21.874,16.758,36.455,16.758c10.753,0,20.688-3.532,28.686-9.51c1.85-1.384,3.603-2.896,5.24-4.521
					c8.72-8.705,14.115-20.729,14.115-34.011C410.217,287.369,399.521,271.149,383.907,263.222z M380.333,293.078v14.723h6.315
					v-14.723H380.333z M369.806,289.221v18.581h8.068v-18.581H369.806z M369.806,289.221v18.581h8.068v-18.581H369.806z
					 M380.333,293.078v14.723h6.315v-14.723H380.333z M380.333,293.078v14.723h6.315v-14.723H380.333z M369.806,289.221v18.581
					h8.068v-18.581H369.806z"/>
				<circle fill="#EAF3E4" stroke="#FFFFFF" stroke-miterlimit="10" cx="281.612" cy="115.63" r="48.042"/>
				<circle fill="#EAF3E4" stroke="#FFFFFF" stroke-miterlimit="10" cx="115.576" cy="237.733" r="48.042"/>
				<circle fill="#EAF3E4" stroke="#FFFFFF" stroke-miterlimit="10" cx="184.705" cy="404.918" r="48.041"/>
			</g>
			<g>
				<g>
					<g>
						<path fill="#989899" d="M805.979,349.63c0.183-0.298,0.294-0.862,0.294-1.237c0-1.086-0.882-2.184-1.97-2.184h-11.795
							l-0.498-4.333l7.313-1.702l0.14,3.281c0.04,0.827,0.737,1.468,1.563,1.432c0.823-0.037,1.468-0.735,1.432-1.561l-0.32-7.397
							c0.146-0.238,0.232-0.519,0.232-0.816c0-0.878-0.71-1.587-1.585-1.587h-9.747l-0.389-3.342
							c-0.098-0.824-0.842-1.413-1.661-1.316c-0.352,0.04-0.648,0.202-0.881,0.432h-1.591c-0.221-0.221-0.511-0.377-0.841-0.426
							c-0.819-0.12-1.582,0.45-1.697,1.266l-0.493,3.387h-11.232c-0.878,0-1.59,0.709-1.59,1.587c0,0.248,0.062,0.481,0.166,0.692
							l-0.941,6.124c-0.124,0.817,0.435,1.582,1.251,1.708c0.822,0.127,1.584-0.435,1.71-1.254l0.45-2.936l8.983,2.353l-0.646,4.41
							h-12.732c-1.087,0-1.966,1.098-1.966,2.184c0,0.313,0.077,0.709,0.201,0.97l-1.167,7.654c-0.156,1.016,0.539,1.99,1.555,2.147
							c1.016,0.153,1.963-0.527,2.116-1.542l0.563-3.638l9.918,2.603l-4.95,33.973c-0.122,0.819,0.444,1.578,1.268,1.698
							c0.813,0.12,1.575-0.447,1.693-1.266l2.702-18.531l5.604,8.736l-7.316,9.121c-0.158,0.194-0.124,0.477,0.068,0.635
							c0.195,0.154,0.475,0.123,0.633-0.072l7.125-8.885l6.232,9.728c0.137,0.208,0.415,0.269,0.625,0.135
							c0.207-0.132,0.271-0.411,0.136-0.62l-6.399-9.984l5.265-6.565l1.91,16.437c0.095,0.821,0.844,1.411,1.665,1.315
							c0.818-0.097,1.407-0.84,1.313-1.661l-3.938-33.856l8.731-2.031l0.175,4.072c0.046,1.026,0.913,1.821,1.937,1.777
							c1.029-0.046,1.824-0.912,1.777-1.939L805.979,349.63z M791.204,360.927l-3.828,3.647l-4.026-4.025l7.8-0.129L791.204,360.927
							z M782.511,360.978l4.214,4.214l-5.606,5.335L782.511,360.978z M787.357,365.83l4.929,4.925l-9.966-0.131L787.357,365.83z
							 M788.012,365.209l3.328-3.164l0.853,7.345L788.012,365.209z M782.739,359.662l2.087-1.845l1.741,0.456
							c0.242,0.064,0.479,0.077,0.716,0.045c0.2,0.022,0.405,0.019,0.615-0.031l1.409-0.327l1.478,1.564L782.739,359.662z
							 M790.11,351.495l0.047,0.408l-2.905,2.567l-2.81-2.976L790.11,351.495L790.11,351.495z M783.799,352.124l1.895,2.003
							l-2.101-0.559L783.799,352.124z M790.282,352.987l0.097,0.831l-1.404,0.33L790.282,352.987z M787.52,346.209l-0.067-0.066
							l1.835-1.747l0.209,1.813H787.52L787.52,346.209z M786.942,330.57l0.011-0.215h0.719v0.174l0.115,1.009l-0.387,1.014
							l-0.563-1.261L786.942,330.57z M788.257,336.697l0.179,0.401l0.152,1.322l-2.457-0.176l0.102-0.153l0.537-1.394H788.257
							L788.257,336.697z M786.043,339.139l2.652,0.189l0.006,0.044l-0.354,0.28l-1.291,0.301l-0.307-0.082L786.043,339.139z
							 M786.49,342.902c0.192,0.05,0.39,0.059,0.574,0.035c0.161,0.019,0.327,0.014,0.495-0.025l0.716-0.167l0.278,0.294h-3.026
							l0.363-0.294L786.49,342.902z M788.301,344.094l-1.51,1.439l-1.548-1.439H788.301z M799.171,336.697l0.021,0.432l-7.529,1.753
							l-0.257-2.185H799.171z M787.986,333.526l0.026-0.063l0.009,0.063H787.986z M786.596,332.958l0.25,0.568h-0.334
							L786.596,332.958z M774.621,336.697h8.402l-0.31,2.12L774.621,336.697z M784.846,344.955l1.295,1.199l-0.059,0.055h-1.418
							L784.846,344.955z M771.844,350.436h9.174l-0.342,2.354L771.844,350.436z M783.777,357.542l-0.881,0.784l0.145-0.976
							L783.777,357.542z M787.031,380.456l-5.737-8.947l11.16,0.145l0.207,1.781L787.031,380.456z M790.906,358.344l-0.585-0.621
							l0.499-0.117L790.906,358.344z M793.317,353.125l-0.314-2.689h9.298l0.022,0.571L793.317,353.125z"/>
					</g>
					<path fill="#7F7F7F" d="M812.779,395.5c0-1.225-1.363-2.5-3.047-2.5H763.78c-1.685,0-3.044,1.275-3.044,2.5l0,0
						c0,1.226,1.359,2.5,3.044,2.5h45.952C811.416,398,812.779,396.726,812.779,395.5L812.779,395.5z"/>
				</g>
			</g>
			<g>
				<g>
					<path fill="#528FAA" d="M864.252,193.554v-2.313h5.781v-6.744c-2.313,3.468-12.902,4.998-12.902,4.998l0.014,6.542l2.722,0.36
						l0.434,6.695c0,0,6.072,5.493,5.687,5.687l4.049-0.193v-15.032H864.252z"/>
					<path fill="#989899" d="M900.677,180.642l-26.019,11.754v10.408h3.469v5.782l3.469,0.193l0.964-9.441l19.271-14.07
						C904.723,181.799,900.677,180.642,900.677,180.642z M881.982,197.794l-2.119-6.167l19.653-9.057l0.775,2.121L881.982,197.794z"
						/>
					<rect x="900.098" y="184.303" fill="#7F7F7F" width="1.156" height="15.035"/>
					<rect x="896.629" y="198.179" fill="#EC6359" width="8.094" height="6.938"/>
					<path fill="#528FAA" d="M843.365,229.4c0.021,0.026,0.387,0.462,1.037,0.904c0.646,0.438,1.594,0.892,2.764,0.892
						c1.161,0.004,2.511-0.475,3.863-1.744c1.113-1.035,2.001-1.325,2.701-1.331c0.771-0.001,1.404,0.375,1.868,0.786
						c0.228,0.204,0.406,0.411,0.521,0.566l0.133,0.181l0.03,0.047l0.006,0.007l0.068-0.039l-0.068,0.039l0,0l0.068-0.039
						l-0.068,0.039l0.513-0.308l-0.541,0.257c0.021,0.037,0.228,0.477,0.684,0.934c0.442,0.458,1.181,0.951,2.177,0.951
						c0.999-0.003,2.146-0.486,3.445-1.702c1.15-1.072,2.17-1.38,3.057-1.384c0.888,0,1.672,0.332,2.234,0.684
						c0.281,0.171,0.509,0.348,0.66,0.477l0.165,0.153l0.041,0.033l0.006,0.01l0.867-0.825c-0.022-0.022-0.426-0.444-1.116-0.867
						c-0.685-0.423-1.673-0.858-2.857-0.861c-1.188-0.003-2.548,0.46-3.872,1.706c-1.173,1.093-2.036,1.379-2.63,1.377
						c-0.589,0-1.015-0.274-1.33-0.589c-0.152-0.159-0.271-0.317-0.35-0.438l-0.08-0.136l-0.021-0.033v-0.004l-0.213,0.102
						l0.213-0.101v-0.001l-0.213,0.102l0.213-0.101l-0.012-0.025l-0.017-0.023c-0.017-0.034-0.325-0.548-0.922-1.081
						c-0.586-0.524-1.487-1.087-2.66-1.089c-1.06-0.002-2.261,0.472-3.517,1.651c-1.194,1.109-2.205,1.42-3.049,1.427
						c-0.849,0-1.57-0.338-2.092-0.693c-0.261-0.174-0.465-0.349-0.601-0.479l-0.153-0.157l-0.036-0.036l-0.009-0.008l-0.085,0.073
						l0.087-0.072l-0.002-0.001l-0.085,0.073l0.087-0.072L843.365,229.4z"/>
					<path fill="#528FAA" d="M872.473,229.4c0.025,0.026,0.39,0.462,1.035,0.904c0.65,0.438,1.599,0.892,2.766,0.892
						c1.167,0.004,2.514-0.475,3.865-1.744c1.112-1.035,2.004-1.325,2.699-1.331c0.772-0.001,1.407,0.375,1.868,0.786
						c0.226,0.204,0.409,0.411,0.527,0.566l0.132,0.181l0.027,0.047l0.007,0.007l0.064-0.039l-0.064,0.039l0,0l0.064-0.039
						l-0.064,0.039l0.517-0.308l-0.541,0.257c0.016,0.037,0.223,0.477,0.679,0.934c0.446,0.458,1.182,0.951,2.181,0.951
						c0.992-0.003,2.141-0.486,3.442-1.702c1.148-1.072,2.17-1.38,3.057-1.384c0.886,0,1.67,0.332,2.231,0.684
						c0.284,0.171,0.508,0.348,0.66,0.477l0.168,0.153l0.039,0.033l0.008,0.01l0.867-0.825c-0.025-0.022-0.426-0.444-1.113-0.867
						c-0.684-0.423-1.672-0.858-2.86-0.861c-1.189-0.003-2.551,0.46-3.872,1.706c-1.173,1.093-2.039,1.379-2.627,1.377
						c-0.592,0-1.018-0.274-1.333-0.589c-0.154-0.159-0.271-0.317-0.35-0.438l-0.081-0.136l-0.018-0.033l-0.003-0.004l-0.218,0.106
						l0.221-0.105l-0.003-0.001l-0.218,0.106l0.221-0.105l-0.018-0.025l-0.011-0.023c-0.021-0.034-0.328-0.548-0.922-1.081
						c-0.585-0.524-1.49-1.087-2.666-1.089c-1.06-0.002-2.26,0.472-3.516,1.651c-1.192,1.109-2.203,1.42-3.05,1.427
						c-0.848,0-1.57-0.338-2.09-0.693c-0.259-0.174-0.467-0.349-0.602-0.479l-0.152-0.157l-0.033-0.036l-0.008-0.008l-0.07,0.063
						l0.07-0.063v-0.001l-0.07,0.063l0.07-0.063L872.473,229.4z"/>
					<path fill="#528FAA" d="M899.352,229.4c0.022,0.026,0.388,0.462,1.039,0.904c0.646,0.438,1.593,0.892,2.763,0.892
						c1.164,0.004,2.511-0.475,3.863-1.744c1.111-1.035,2.001-1.325,2.701-1.331c0.771-0.001,1.404,0.375,1.866,0.786
						c0.227,0.204,0.405,0.411,0.523,0.566l0.133,0.181l0.032,0.047l0.004,0.007l0.058-0.033l-0.058,0.033l0,0l0.058-0.033
						l-0.058,0.033l0.513-0.308l-0.537,0.257c0.018,0.037,0.223,0.477,0.675,0.934c0.447,0.458,1.186,0.951,2.182,0.951
						c0.999-0.003,2.145-0.486,3.445-1.702c1.148-1.072,2.17-1.38,3.06-1.384c0.883,0,1.667,0.332,2.229,0.684
						c0.283,0.171,0.511,0.348,0.662,0.477l0.165,0.153l0.039,0.033l0.008,0.01l0.867-0.825c-0.025-0.022-0.425-0.443-1.113-0.867
						c-0.687-0.423-1.675-0.858-2.857-0.861c-1.192-0.003-2.555,0.46-3.875,1.706c-1.173,1.093-2.039,1.379-2.63,1.377
						c-0.588,0-1.015-0.274-1.327-0.589c-0.157-0.159-0.273-0.317-0.352-0.438l-0.08-0.136l-0.02-0.033l-0.002-0.004l-0.217,0.102
						l0.219-0.101l-0.002-0.001l-0.217,0.102l0.219-0.101l-0.014-0.025l-0.015-0.023c-0.021-0.034-0.331-0.548-0.919-1.081
						c-0.591-0.524-1.495-1.087-2.666-1.089c-1.06-0.002-2.26,0.472-3.521,1.651c-1.189,1.109-2.202,1.42-3.044,1.427
						c-0.851,0-1.573-0.338-2.092-0.693c-0.26-0.174-0.465-0.349-0.603-0.479l-0.151-0.157l-0.035-0.036l-0.007-0.008l-0.07,0.061
						l0.07-0.06v-0.001l-0.07,0.061l0.07-0.06L899.352,229.4z"/>
					<path fill="#528FAA" d="M856.082,235.18c0.025,0.029,0.393,0.462,1.038,0.904c0.649,0.438,1.595,0.893,2.766,0.896
						c1.167,0.003,2.511-0.476,3.86-1.746c1.115-1.035,2.003-1.328,2.702-1.331c0.771-0.002,1.407,0.375,1.868,0.788
						c0.227,0.2,0.407,0.408,0.523,0.562l0.135,0.183l0.031,0.044l0.002,0.01l0.06-0.036l-0.06,0.036l0,0l0.06-0.036l-0.06,0.036
						l0.514-0.309l-0.541,0.258c0.021,0.037,0.229,0.475,0.683,0.933c0.444,0.458,1.181,0.949,2.181,0.949
						c0.995-0.003,2.145-0.483,3.443-1.702c1.15-1.069,2.166-1.377,3.056-1.381c0.886,0,1.671,0.33,2.231,0.683
						c0.285,0.172,0.511,0.348,0.66,0.475l0.169,0.149l0.038,0.04l0.009,0.007l0.866-0.82c-0.024-0.028-0.422-0.445-1.112-0.87
						c-0.688-0.423-1.673-0.861-2.861-0.861c-1.188-0.004-2.551,0.46-3.872,1.703c-1.174,1.096-2.039,1.383-2.627,1.383
						c-0.591-0.003-1.017-0.28-1.33-0.595c-0.153-0.156-0.272-0.317-0.351-0.436l-0.083-0.136l-0.018-0.032l-0.003-0.007
						l-0.218,0.109l0.221-0.104l-0.003-0.004l-0.218,0.109l0.221-0.104l-0.014-0.025l-0.015-0.028
						c-0.021-0.031-0.328-0.543-0.921-1.076c-0.588-0.526-1.493-1.09-2.666-1.09c-1.061-0.001-2.258,0.473-3.518,1.651
						c-1.188,1.107-2.202,1.418-3.046,1.424c-0.848,0.003-1.57-0.334-2.093-0.69c-0.259-0.177-0.464-0.352-0.599-0.482l-0.151-0.153
						l-0.036-0.041l-0.008-0.006l-0.087,0.074l0.087-0.073v-0.001l-0.087,0.074l0.087-0.073L856.082,235.18z"/>
					<path fill="#528FAA" d="M889.82,235.18c0.021,0.029,0.389,0.462,1.038,0.904c0.646,0.438,1.592,0.893,2.763,0.896
						c1.164,0.003,2.514-0.476,3.862-1.746c1.115-1.035,2.004-1.328,2.702-1.331c0.771-0.002,1.403,0.375,1.865,0.788
						c0.229,0.2,0.407,0.408,0.526,0.562l0.13,0.183l0.03,0.044l0.006,0.01l0.062-0.042l-0.062,0.042l0,0l0.062-0.042l-0.062,0.042
						l0.513-0.309l-0.538,0.258c0.019,0.037,0.225,0.475,0.681,0.933c0.442,0.458,1.181,0.949,2.178,0.949
						c0.998-0.003,2.146-0.483,3.445-1.702c1.146-1.069,2.17-1.377,3.057-1.381c0.888,0,1.669,0.33,2.234,0.683
						c0.28,0.172,0.506,0.348,0.655,0.475l0.172,0.149l0.038,0.04l0.008,0.007l0.868-0.82c-0.027-0.028-0.428-0.445-1.111-0.87
						c-0.69-0.423-1.677-0.861-2.864-0.861c-1.189-0.004-2.551,0.46-3.873,1.703c-1.173,1.096-2.037,1.383-2.629,1.383
						c-0.588-0.003-1.014-0.28-1.331-0.595c-0.149-0.156-0.273-0.317-0.345-0.436l-0.086-0.136l-0.018-0.032l-0.003-0.007
						l-0.215,0.106l0.215-0.102v-0.004l-0.215,0.106l0.215-0.102l-0.01-0.025l-0.019-0.028c-0.019-0.031-0.327-0.543-0.918-1.076
						c-0.592-0.526-1.493-1.09-2.664-1.09c-1.061-0.001-2.26,0.473-3.519,1.651c-1.188,1.107-2.202,1.418-3.046,1.424
						c-0.849,0.003-1.574-0.334-2.093-0.69c-0.259-0.177-0.466-0.352-0.603-0.482l-0.148-0.153l-0.035-0.041l-0.008-0.006
						l-0.089,0.074l0.091-0.073l-0.002-0.001l-0.089,0.074l0.091-0.073L889.82,235.18z"/>
					<path fill="#7F7F7F" d="M911.081,221.884l9.061-14.646l-22.742-0.193c0,0-2.503,6.555-7.133,6.748l-23.896-0.195l-2.894-3.854
						L855,208.779l-0.576,3.084l4.046,12.911h56.659C915.129,224.774,915.706,222.078,911.081,221.884z M865.792,218.625
						c-0.807,0-1.464-0.655-1.464-1.462c0-0.807,0.657-1.464,1.464-1.464c0.811,0,1.465,0.657,1.465,1.464
						C867.257,217.97,866.604,218.625,865.792,218.625z M871.575,218.625c-0.81,0-1.465-0.655-1.465-1.462
						c0-0.807,0.655-1.464,1.465-1.464s1.464,0.657,1.464,1.464C873.039,217.97,872.385,218.625,871.575,218.625z M877.354,218.625
						c-0.806,0-1.463-0.655-1.463-1.462c0-0.807,0.657-1.464,1.463-1.464c0.811,0,1.463,0.657,1.463,1.464
						C878.816,217.97,878.164,218.625,877.354,218.625z"/>
					<polygon fill="#7F7F7F" points="882.924,198.147 885.62,188.702 884.511,188.385 881.809,197.828 					"/>
					
						<rect x="884.816" y="189.497" transform="matrix(0.9384 0.3456 -0.3456 0.9384 120.4451 -295.4198)" fill="#7F7F7F" width="7.802" height="1.155"/>
					
						<rect x="890.098" y="187.246" transform="matrix(0.3 -0.9539 0.9539 0.3 446.386 983.9579)" fill="#7F7F7F" width="7.071" height="1.158"/>
					
						<rect x="894.772" y="184.396" transform="matrix(0.9449 0.3273 -0.3273 0.9449 109.9653 -283.528)" fill="#7F7F7F" width="5.301" height="1.154"/>
				</g>
			</g>
			<g>
				<g>
					<path fill="#D8BA63" d="M590.732,296.34h-2.834c0.176,1.744,0.35,3.388,0.521,5.104c0.251,0.008,0.503,0.03,0.757,0.03
						c11.298,0.004,22.597,0.004,33.898,0.032c0.614,0,0.954-0.179,1.213-0.714c0.597-1.216,0.898-2.477,0.817-3.843
						c-0.03-0.483-0.196-0.626-0.663-0.611c-0.807,0.024-1.611-0.02-2.418,0.019c-0.482,0.021-0.729-0.138-0.916-0.604
						c-0.848-2.096-1.764-4.162-2.613-6.255c-0.229-0.564-0.568-0.937-1.105-1.217c-1.922-0.985-3.813-2.013-5.727-3.012
						c-2.921-1.526-4.452-4.022-4.83-7.206c-0.367-3.018-0.529-6.059-0.817-9.086c-0.146-1.576-0.372-3.141-0.581-4.835
						c-1.49,0.515-2.896,0.915-4.232,1.472c-2.888,1.21-6.006-0.134-7.526-2.3c-0.576-0.82-1.06-1.708-1.658-2.689
						c-0.502,1.153-1.029,2.236-1.464,3.349c-1.607,4.063-2.523,8.298-2.94,12.63c-0.229,2.357-0.229,4.729-0.443,7.086
						c-0.31,3.282,0.648,6.237,2.066,9.119C589.777,293.918,590.208,295.088,590.732,296.34z M612.235,295.787
						c-1.223-2.952-2.483-5.881-3.721-8.826c-0.086-0.194-0.129-0.404-0.221-0.691c1.312,0,2.509,0.054,3.697-0.015
						c0.873-0.061,1.312,0.198,1.656,1.058c1.184,2.991,2.479,5.935,3.785,9.031c-1.533,0-2.938-0.018-4.343,0.013
						C612.635,296.362,612.414,296.225,612.235,295.787z M603.363,295.787c-1.265-2.932-2.506-5.873-3.751-8.811
						c-0.083-0.2-0.13-0.415-0.222-0.707c1.559,0,3.015-0.011,4.467,0.019c0.197,0.007,0.493,0.203,0.57,0.389
						c1.363,3.166,2.704,6.344,4.108,9.666c-1.605,0-3.09,0.018-4.57-0.026C603.755,296.313,603.463,296.016,603.363,295.787z
						 M591.736,289.394c-0.423-0.995-0.836-1.995-1.307-3.114c1.638,0,3.166-0.015,4.688,0.023c0.168,0.007,0.379,0.306,0.475,0.513
						c0.587,1.355,1.156,2.72,1.729,4.08c0.76,1.783,1.517,3.563,2.318,5.448c-1.532,0-2.957-0.021-4.371,0.015
						c-0.479,0.01-0.671-0.179-0.84-0.595C593.552,293.635,592.636,291.519,591.736,289.394z"/>
					<path fill="#535354" d="M590.431,286.279c0.471,1.119,0.884,2.119,1.307,3.114c0.898,2.125,1.814,4.242,2.692,6.371
						c0.169,0.416,0.359,0.604,0.841,0.595c1.413-0.037,2.838-0.015,4.37-0.015c-0.803-1.885-1.56-3.665-2.318-5.448
						c-0.573-1.36-1.144-2.725-1.729-4.08c-0.096-0.207-0.307-0.506-0.475-0.513C593.597,286.264,592.067,286.279,590.431,286.279z"
						/>
					<path fill="#535354" d="M599.392,286.27c0.092,0.292,0.139,0.506,0.222,0.707c1.245,2.938,2.486,5.878,3.751,8.811
						c0.1,0.229,0.392,0.527,0.604,0.531c1.48,0.044,2.965,0.026,4.57,0.026c-1.404-3.322-2.745-6.5-4.108-9.666
						c-0.076-0.187-0.373-0.382-0.57-0.389C602.405,286.258,600.949,286.27,599.392,286.27z"/>
					<path fill="#535354" d="M608.295,286.27c0.092,0.287,0.135,0.497,0.221,0.691c1.236,2.944,2.498,5.874,3.721,8.826
						c0.179,0.438,0.398,0.575,0.855,0.57c1.404-0.03,2.81-0.013,4.343-0.013c-1.308-3.096-2.603-6.041-3.785-9.031
						c-0.345-0.86-0.783-1.119-1.656-1.058C610.804,286.323,609.606,286.27,608.295,286.27z"/>
					<path fill="#D8BA63" d="M592.426,257.602c0.004,3.549,2.359,6.627,5.697,7.204c0.982,0.173,2.097,0.044,3.057-0.251
						c10.229-3.192,20.422-6.492,30.658-9.655c4.079-1.26,5.563-5.643,4.109-9.262c-1.218-3.027-3.93-4.847-6.937-4.432
						c-1.377,0.184-2.704,0.719-4.036,1.143c-9.328,2.941-18.65,5.895-27.979,8.844C594.088,252.111,592.426,254.44,592.426,257.602
						z M623.926,248.377c0.019-2.867,2.238-5.074,5.099-5.074c2.831,0,5.097,2.26,5.1,5.093c0,2.791-2.324,5.108-5.119,5.104
						C626.191,253.497,623.906,251.188,623.926,248.377z"/>
					<path fill="#535354" d="M623.926,248.377c-0.02,2.811,2.267,5.12,5.078,5.124c2.795,0.004,5.119-2.313,5.119-5.104
						c-0.003-2.833-2.269-5.093-5.1-5.093C626.164,243.303,623.943,245.51,623.926,248.377z"/>
					<path fill="#D8BA63" d="M636.585,251.994c-0.969,2.723-3.174,3.721-5.776,4.302c1.479,1.979,2.87,3.845,4.268,5.707
						c2.618,3.497,5.202,7.02,7.882,10.468c0.646,0.834,1.534,1.564,2.459,2.078c1.17,0.648,2.473,0.627,3.584-0.293
						c1.105-0.917,1.3-2.188,1-3.482c-0.186-0.813-0.538-1.652-1.032-2.32c-3.971-5.371-7.995-10.707-12.002-16.052
						C636.877,252.285,636.764,252.187,636.585,251.994z"/>
					<path fill="#D8BA63" d="M652.127,290.939c-0.035-0.459-0.074-0.919-0.115-1.442c0.476-0.065,0.931-0.131,1.465-0.207
						c0.028,0.481,0.054,0.93,0.096,1.576c0.236-0.267,0.394-0.383,0.475-0.539c1.178-2.287,2.313-4.595,2.494-7.228
						c0.056-0.777,0.13-1.557,0.122-2.335c-0.008-1.128-0.409-1.686-1.535-1.933c-0.905-0.199-1.848-0.247-2.774-0.275
						c-0.424-0.013-0.572-0.126-0.701-0.516c-0.266-0.752-0.524-1.529-0.937-2.208c-0.588-0.973-1.422-1.038-2.293-0.308
						c-1.043,0.868-1.124,1.131-0.692,2.462c1.332,4.149,2.671,8.297,4.012,12.446c0.059,0.183,0.142,0.358,0.217,0.54
						C652.012,290.964,652.07,290.952,652.127,290.939z"/>
					<path fill="#D8BA63" d="M586.678,303.957c12.869,0,25.665,0,38.513,0c0-0.48,0-0.93,0-1.425c-12.842,0-25.662,0-38.513,0
						C586.678,303.012,586.678,303.444,586.678,303.957z"/>
					<path fill="#535354" d="M652.536,295.617c0.903-0.108,1.067-0.549,1.035-1.216c-0.057-1.001-0.018-2.007-0.018-3.074
						c-0.52,0.123-0.944,0.221-1.424,0.337C652.269,293.019,652.404,294.335,652.536,295.617z"/>
				</g>
			</g>
			<g>
				<g>
					<path fill="#B8B8BC" d="M754.386,114.875c-2.112,0-4.228-0.012-6.341,0.011c-0.66,0.006-1.041-0.13-0.978-0.908
						c0.021-0.257-0.172-0.631-0.384-0.79c-3.193-2.386-4.951-5.625-5.17-9.528c-0.218-3.955-0.065-7.93-0.065-11.899
						c0-0.584,0.326-0.912,0.896-1.096c4.344-1.402,8.801-1.939,13.35-1.68c3.655,0.208,7.275,0.656,10.796,1.754
						c0.528,0.164,0.764,0.443,0.792,0.952c0.224,4.251,0.406,8.494-0.133,12.744c-0.405,3.178-1.909,5.735-4.096,7.969
						c-0.219,0.222-0.462,0.436-0.736,0.578c-0.506,0.263-0.784,0.596-0.704,1.216c0.071,0.554-0.263,0.716-0.797,0.709
						c-2.144-0.023-4.287-0.01-6.43-0.01C754.386,114.892,754.386,114.883,754.386,114.875z"/>
					<path fill="#DBDB64" d="M742.166,80.746c0.166-0.106,0.348-0.195,0.494-0.323c0.213-0.189,0.384-0.426,0.596-0.613
						c1.228-1.056,1.334-1.058,2.74-0.276c1.447,0.803,2.906,1.579,4.342,2.395c2.107,1.205,3.103,3.3,2.658,5.651
						c-0.042,0.236-0.398,0.556-0.641,0.589c-1.218,0.167-2.442,0.279-3.668,0.335c-0.222,0.01-0.462-0.32-0.677-0.51
						c-0.045-0.04-0.033-0.168-0.015-0.25c0.39-2.003-0.798-2.837-2.417-3.542c-1.454-0.632-2.781-1.551-4.188-2.307
						c-2.81-1.515-2.376-5.42-0.202-6.937c1.603-1.116,3.311-2.163,5.108-2.894c2.288-0.93,4.673-1.729,7.088-2.194
						c4.318-0.831,8.701-1.314,13.119-0.84c1.673,0.179,2.572,1.138,2.528,2.641c-0.033,1.218-1.007,2.148-2.56,2.253
						c-1.852,0.126-3.709,0.154-5.567,0.194c-3.805,0.079-7.472,0.966-11.099,1.984c-2.249,0.632-4.439,1.499-6.389,2.85
						c-0.396,0.274-0.76,0.605-1.09,0.953c-0.171,0.176-0.24,0.444-0.354,0.67C742.04,80.633,742.104,80.689,742.166,80.746z"/>
					<path fill="#DBDB64" d="M740.729,74.305c-1.525-1.065-1.331-4.029-0.03-5.492c1.287-1.443,2.912-2.382,4.62-3.182
						c3.996-1.873,8.196-2.972,12.604-3.215c2.423-0.132,4.846-0.218,7.27-0.274c0.589-0.014,1.191,0.12,1.764,0.277
						c1.491,0.416,1.921,1.08,1.803,2.637c-0.085,1.136-0.847,1.906-2.179,2.006c-2.328,0.174-4.678,0.179-7.001,0.425
						c-2.517,0.263-5.031,0.632-7.514,1.127c-1.592,0.32-3.021,1.098-4.343,2.118c-0.718,0.558-1.728,0.719-2.559,1.146
						C743.697,72.635,742.271,73.457,740.729,74.305z"/>
					<path fill="#DBDB64" d="M763.446,78.875c-0.562,0.076-1.129,0.226-1.688,0.217c-3.65-0.063-7.303-0.193-10.953-0.232
						c-1.049-0.011-2.113,0.141-3.146,0.331c-0.822,0.149-1.427-0.152-2.296-0.749c1.179-0.483,2.146-1.017,3.185-1.279
						c3.151-0.799,6.301-1.66,9.502-2.182c3.173-0.516,6.384-0.084,9.523,0.592c1.176,0.251,1.882,1.08,2.116,2.316
						c0.242,1.288,0.062,2.498-1.008,3.248c-1.628,1.14-3.389,2.094-5.098,3.122c-0.096,0.06-0.209,0.091-0.316,0.125
						c-1.631,0.512-2.354,1.604-2.09,3.305c0.127,0.803-0.223,1.006-0.965,0.897c-1.074-0.155-2.156-0.27-3.234-0.365
						c-0.594-0.052-0.854-0.311-0.875-0.918c-0.083-2.385,0.668-4.298,2.892-5.475c1.284-0.682,2.534-1.429,3.79-2.16
						c0.275-0.159,0.517-0.377,0.774-0.565C763.519,79.028,763.486,78.951,763.446,78.875z"/>
					<path fill="#DBDB64" d="M757.381,55.062c2.283-0.007,3.42,1.499,2.699,3.359c-0.32,0.825-1.002,1.228-1.785,1.464
						c-2.619,0.793-5.261,1.523-7.865,2.352c-2.04,0.646-4.017,1.391-5.699,2.841c-1.108,0.959-2.459,1.648-3.726,2.417
						c-0.146,0.087-0.533-0.034-0.689-0.184c-1.097-1.042-1.171-3.158-0.228-4.783c0.996-1.718,2.542-2.752,4.307-3.504
						c3.995-1.707,8.074-3.153,12.38-3.885C757.027,55.098,757.284,55.076,757.381,55.062z"/>
					<path fill="#989899" d="M754.345,115.727c2.083,0,4.167,0,6.254-0.001c0.458,0,0.964-0.104,0.96,0.621
						c-0.006,0.645-0.031,1.193-0.922,1.208c-1.084,0.019-2.166,0.139-3.247,0.206c-3.163,0.194-6.322,0.389-9.484,0.556
						c-0.216,0.009-0.613-0.192-0.636-0.342c-0.1-0.616-0.144-1.255-0.071-1.87c0.014-0.153,0.521-0.354,0.809-0.359
						C750.12,115.716,752.23,115.728,754.345,115.727z"/>
					<path fill="#989899" d="M760.562,124.982c-0.75,1.005-1.442,1.623-2.632,1.594c-2.454-0.061-4.913,0-7.362-0.022
						c-1.148-0.011-1.825-0.505-2.187-1.572C752.413,124.982,756.398,124.982,760.562,124.982z"/>
					<path fill="#989899" d="M747.432,120.914c0.929-0.079,1.855-0.175,2.783-0.233c3.302-0.206,6.605-0.397,9.909-0.594
						c0.144-0.01,0.3-0.056,0.425-0.011c0.234,0.084,0.45,0.221,0.673,0.334c-0.191,0.185-0.359,0.491-0.579,0.534
						c-0.643,0.126-1.303,0.167-1.957,0.205c-3.416,0.2-6.836,0.401-10.257,0.557c-0.364,0.017-0.743-0.25-1.111-0.387
						C747.354,121.183,747.394,121.049,747.432,120.914z"/>
					<path fill="#989899" d="M757.85,127.639c-0.328,1.348-0.992,1.864-2.299,1.843c-1.057-0.015-2.113,0.003-3.174,0
						c-0.527-0.001-1.67-1.135-1.598-1.637c0.021-0.146,0.29-0.374,0.443-0.375c2.143-0.006,4.282,0.021,6.423,0.047
						C757.715,127.519,757.783,127.599,757.85,127.639z"/>
					<path fill="#989899" d="M747.543,120.101c0.306-0.155,0.606-0.424,0.922-0.446c3.848-0.264,7.693-0.496,11.543-0.707
						c0.334-0.018,0.681,0.182,1.021,0.28c-0.025,0.126-0.047,0.253-0.069,0.379c-4.435,0.267-8.872,0.534-13.308,0.799
						C747.614,120.305,747.578,120.203,747.543,120.101z"/>
					<path fill="#989899" d="M747.596,122.537c0.304-0.119,0.606-0.322,0.918-0.344c3.848-0.255,7.699-0.494,11.551-0.712
						c0.371-0.019,0.759,0.125,1.137,0.192c-0.009,0.142-0.022,0.287-0.03,0.429c-4.493,0.349-8.994,0.494-13.492,0.76
						C747.65,122.751,747.622,122.644,747.596,122.537z"/>
					<path fill="#989899" d="M747.633,123.346c0.23-0.045,0.453-0.119,0.68-0.13c3.871-0.211,7.746-0.419,11.621-0.6
						c0.361-0.017,0.733,0.185,1.103,0.284c-0.37,0.125-0.732,0.346-1.107,0.363c-3.789,0.175-7.575,0.321-11.367,0.463
						c-0.304,0.013-0.617-0.074-0.928-0.118C747.633,123.521,747.633,123.434,747.633,123.346z"/>
					<path fill="#989899" d="M760.803,118.5c-4.324,0.261-8.648,0.523-13.098,0.791c0.562-0.748,12.027-1.55,13.075-1.062
						C760.789,118.319,760.795,118.411,760.803,118.5z"/>
					<path fill="#989899" d="M747.771,124.136c0.354-0.029,0.635-0.062,0.909-0.075c3.795-0.138,7.597-0.286,11.394-0.392
						c0.384-0.011,0.774,0.227,1.353,0.407C760.513,124.645,748.334,124.623,747.771,124.136z"/>
				</g>
			</g>
			<g>
				<g>
					<polygon fill="#8B8C8B" points="529.963,179.347 529.963,175.719 471.952,175.719 471.952,179.347 499.748,179.347 
						499.748,185.39 494.914,185.39 494.914,189.014 509.414,189.014 509.414,185.39 505.793,185.39 505.793,179.347 					"/>
					<path fill="#528FAA" d="M488.611,166.549c-3.623,0-7.244,0-10.865,0c-1.878,2.721-3.752,5.441-5.626,8.164
						c4.499,0,8.998,0,13.498,0C486.614,171.991,487.613,169.271,488.611,166.549z"/>
					<path fill="#528FAA" d="M491.871,157.639c-2.658,0-5.327,0-7.992,0c-1.873,2.724-3.748,5.446-5.623,8.166
						c3.542,0,7.084,0,10.625,0C489.88,163.085,490.879,160.362,491.871,157.639z"/>
					<path fill="#528FAA" d="M500.467,166.549c-3.625,0-7.246,0-10.868,0c-0.917,2.721-1.838,5.441-2.754,8.164
						c4.5,0,8.998,0,13.499,0C500.385,171.991,500.422,169.271,500.467,166.549z"/>
					<path fill="#528FAA" d="M500.593,157.639c-2.663,0-5.33,0-7.994,0c-0.915,2.724-1.833,5.446-2.751,8.166
						c3.539,0,7.084,0,10.625,0C500.514,163.085,500.555,160.362,500.593,157.639z"/>
					<path fill="#528FAA" d="M512.32,166.549c-3.627,0-7.245,0-10.868,0c0.038,2.721,0.08,5.441,0.122,8.164c4.5,0,8.996,0,13.497,0
						C514.152,171.991,513.236,169.271,512.32,166.549z"/>
					<path fill="#528FAA" d="M509.317,157.639c-2.667,0-5.329,0-7.998,0c0.042,2.724,0.08,5.446,0.122,8.166
						c3.54,0,7.084,0,10.625,0C511.149,163.085,510.23,160.362,509.317,157.639z"/>
					<path fill="#528FAA" d="M524.17,166.549c-3.621,0-7.244,0-10.862,0c0.997,2.721,1.995,5.441,2.989,8.164
						c4.501,0,8.999,0,13.5,0C527.923,171.991,526.046,169.271,524.17,166.549z"/>
					<path fill="#528FAA" d="M518.035,157.639c-2.666,0-5.332,0-7.994,0c0.998,2.724,1.994,5.446,2.99,8.166
						c3.544,0,7.087,0,10.628,0C521.782,163.085,519.909,160.362,518.035,157.639z"/>
					<path fill="#528FAA" d="M495.138,148.731c-1.706,0-3.411,0-5.118,0c-1.876,2.72-3.752,5.442-5.622,8.166
						c2.584,0,5.162,0,7.747,0C493.144,154.174,494.143,151.452,495.138,148.731z"/>
					<path fill="#528FAA" d="M500.726,148.731c-1.708,0-3.413,0-5.119,0c-0.919,2.72-1.837,5.442-2.755,8.166
						c2.582,0,5.167,0,7.752,0C500.643,154.174,500.685,151.452,500.726,148.731z"/>
					<path fill="#528FAA" d="M506.307,148.731c-1.7,0-3.41,0-5.114,0c0.036,2.72,0.077,5.442,0.116,8.166c2.586,0,5.173,0,7.756,0
						C508.145,154.174,507.23,151.452,506.307,148.731z"/>
					<path fill="#528FAA" d="M511.895,148.731c-1.702,0-3.409,0-5.115,0c0.995,2.72,1.995,5.442,2.99,8.166c2.583,0,5.166,0,7.75,0
						C515.648,154.174,513.771,151.452,511.895,148.731z"/>
					<path fill="#D8BA63" d="M480.413,125.99v-5.862h-1.21v5.883c0.271-0.012,0.534-0.042,0.807-0.042
						C480.146,125.969,480.278,125.986,480.413,125.99z"/>
					<path fill="#D8BA63" d="M477.192,124.084l-1.18,0.259l0.437,1.979c0.395-0.077,0.795-0.131,1.194-0.183L477.192,124.084z"/>
					<path fill="#D8BA63" d="M482.898,124.267l-1.196-0.171l-0.277,1.946c0.404,0.032,0.803,0.08,1.199,0.138L482.898,124.267z"/>
					<path fill="#D8BA63" d="M476.003,163.903l1.196,0.173l0.267-1.845c-0.399-0.058-0.8-0.11-1.193-0.19L476.003,163.903z"/>
					<path fill="#D8BA63" d="M461.839,143.091h-5.597v1.208h5.546l-0.004-0.101C461.784,143.825,461.815,143.459,461.839,143.091z"
						/>
					<path fill="#D8BA63" d="M459.438,146.356l0.261,1.18l2.323-0.511c-0.062-0.4-0.119-0.797-0.157-1.203L459.438,146.356z"/>
					<path fill="#D8BA63" d="M459.621,140.649l-0.17,1.197l2.447,0.353c0.042-0.404,0.108-0.8,0.181-1.196L459.621,140.649z"/>
					<path fill="#D8BA63" d="M498.229,144.299h5.146v-1.208h-5.195c0.024,0.368,0.059,0.734,0.059,1.107L498.229,144.299z"/>
					<path fill="#D8BA63" d="M499.438,141.839l-0.257-1.181l-1.254,0.276c0.073,0.395,0.139,0.793,0.186,1.198L499.438,141.839z"/>
					<path fill="#D8BA63" d="M499.256,147.546l0.172-1.198l-1.301-0.188c-0.044,0.404-0.112,0.799-0.181,1.196L499.256,147.546z"/>
					<path fill="#D8BA63" d="M467.375,131.078l-4.072-4.071l-0.854,0.856l4.09,4.087
						C466.81,131.652,467.085,131.358,467.375,131.078z"/>
					<path fill="#D8BA63" d="M463.728,131.606l-0.65,1.017l1.93,1.233c0.232-0.334,0.476-0.654,0.727-0.971L463.728,131.606z"/>
					<path fill="#D8BA63" d="M467.895,127.7l-0.968,0.724l1.365,1.823c0.306-0.259,0.632-0.498,0.956-0.737L467.895,127.7z"/>
					<path fill="#D8BA63" d="M466.44,156.34l-3.992,3.996l0.854,0.852l3.965-3.964C466.983,156.94,466.711,156.641,466.44,156.34z"
						/>
					<path fill="#D8BA63" d="M466.923,159.91l1.018,0.649l1.146-1.792c-0.325-0.245-0.645-0.492-0.95-0.757L466.923,159.91z"/>
					<path fill="#D8BA63" d="M463.017,155.744l0.727,0.966l1.851-1.384c-0.243-0.32-0.494-0.634-0.719-0.97L463.017,155.744z"/>
					<path fill="#D8BA63" d="M493.035,131.458l3.596-3.596l-0.853-0.856l-3.625,3.624
						C492.453,130.899,492.75,131.17,493.035,131.458z"/>
					<path fill="#D8BA63" d="M492.015,128.428l-1.021-0.651l-0.82,1.289c0.334,0.226,0.65,0.477,0.97,0.721L492.015,128.428z"/>
					<path fill="#D8BA63" d="M495.921,132.593l-0.723-0.966l-1.202,0.895c0.26,0.309,0.497,0.635,0.734,0.962L495.921,132.593z"/>
					<path fill="#D8BA63" d="M471.157,122.064l-1.119,0.459l2.146,5.233c0.365-0.175,0.729-0.341,1.106-0.49L471.157,122.064z"/>
					<path fill="#D8BA63" d="M469.773,126.47l-0.993,0.688l1.246,1.798c0.338-0.222,0.682-0.43,1.032-0.63L469.773,126.47z"/>
					<path fill="#D8BA63" d="M475.124,124.475l-1.171,0.292l0.519,2.065c0.382-0.123,0.774-0.215,1.167-0.312L475.124,124.475z"/>
					<path fill="#D8BA63" d="M457.507,152.479l0.457,1.117l5.31-2.177c-0.158-0.369-0.292-0.75-0.427-1.128L457.507,152.479z"/>
					<path fill="#D8BA63" d="M461.799,153.815l0.689,0.993l1.873-1.298c-0.207-0.349-0.406-0.699-0.589-1.061L461.799,153.815z"/>
					<path fill="#D8BA63" d="M459.802,148.467l0.294,1.171l2.356-0.594c-0.105-0.386-0.218-0.772-0.298-1.17L459.802,148.467z"/>
					<path fill="#D8BA63" d="M501.574,135.715l-0.457-1.118l-4.61,1.887c0.171,0.366,0.329,0.733,0.478,1.111L501.574,135.715z"/>
					<path fill="#D8BA63" d="M497.093,134.457l-0.686-0.995l-1.138,0.787c0.22,0.338,0.43,0.683,0.631,1.036L497.093,134.457z"/>
					<path fill="#D8BA63" d="M499.091,139.807l-0.297-1.174l-1.329,0.336c0.114,0.384,0.21,0.777,0.299,1.17L499.091,139.807z"/>
					<path fill="#D8BA63" d="M458.031,134.444l-0.466,1.115l5.389,2.255c0.143-0.378,0.291-0.753,0.456-1.119L458.031,134.444z"/>
					<path fill="#D8BA63" d="M460.17,138.539l-0.217,1.191l2.298,0.414c0.087-0.396,0.187-0.786,0.302-1.173L460.17,138.539z"/>
					<path fill="#D8BA63" d="M462.541,133.345l-0.62,1.037l2.021,1.21c0.194-0.356,0.408-0.696,0.623-1.038L462.541,133.345z"/>
					<path fill="#D8BA63" d="M469.886,165.605l1.115,0.466l2.095-5.012c-0.374-0.152-0.733-0.328-1.097-0.506L469.886,165.605z"/>
					<path fill="#D8BA63" d="M473.867,163.514l1.188,0.215l0.346-1.913c-0.394-0.105-0.782-0.211-1.167-0.339L473.867,163.514z"/>
					<path fill="#D8BA63" d="M468.672,161.143l1.038,0.62l1.104-1.845c-0.35-0.206-0.701-0.409-1.031-0.631L468.672,161.143z"/>
					<path fill="#D8BA63" d="M489.191,122.588l-1.116-0.463l-2.042,4.884c0.377,0.135,0.763,0.265,1.132,0.424L489.191,122.588z"/>
					<path fill="#D8BA63" d="M485.138,124.867l-1.19-0.216l-0.306,1.682c0.398,0.082,0.786,0.192,1.177,0.298L485.138,124.867z"/>
					<path fill="#D8BA63" d="M490.33,127.239l-1.038-0.621l-0.855,1.428c0.359,0.186,0.705,0.392,1.048,0.603L490.33,127.239z"/>
					<path fill="#DBDB64" d="M479.688,161.001l9.387-13.076l6.817-0.189c0.544-1.464,0.633-2.337,0.633-3.239
						c0-9.119-7.393-16.514-16.515-16.514c-9.123,0-16.518,7.395-16.518,16.514C463.492,153.513,470.715,160.826,479.688,161.001z"
						/>
				</g>
			</g>
			<g>
				<g>
					<g>
						<g>
							<path fill="#989899" d="M327.19,315.643c-0.722,0-1.301,0.24-1.682,0.665c-0.028,0.027-0.057,0.057-0.085,0.098v0.099
								c-0.084,0.071-0.127,0.127-0.17,0.141c-0.014,0.015-0.028,0.015-0.043,0.015c-2.047,0.24-2.204,0.438-2.204,2.473
								c0,0.96-0.026,1.921,0,2.896c0.029,0.904,0.509,1.47,1.356,1.484h0.537c1.499,0.042,3.01,0.014,4.578,0.014
								c0.142-2.826,1.174-5.186,3.307-7.008c0.396-0.325,0.806-0.636,1.229-0.89C331.739,315.629,329.465,315.629,327.19,315.643z
								 M399.295,320.884c-0.297-0.027-0.593,0-0.99,0c0-0.748,0-1.397-0.013-2.047c0-1.625-0.453-2.078-2.092-2.12
								c-0.169-0.015-0.354-0.029-0.564-0.043h-0.016c-0.07,0-0.141-0.014-0.226-0.014v-0.326c-0.521-0.649-1.328-1.017-2.346-1.017
								c-3.361-0.014-6.727-0.014-10.118-0.014h-0.183c2.826,1.37,4.974,4.21,5.172,8.125c0.154,0.027,0.324,0.098,0.494,0.098
								c2.557,0,5.129,0.029,7.687-0.028c0.211,0.014,0.425,0,0.636,0c0.41,0,1.06-0.269,1.188-0.58
								c0.325-0.72,0.833-0.65,1.397-0.679c0.58-0.027,1.482,0.283,1.47-0.677C400.778,320.66,399.888,320.928,399.295,320.884z
								 M380.333,293.078v14.723h6.315v-14.723H380.333z M369.806,289.221v18.581h8.068v-18.581H369.806z M374.469,315.305
								c-5.129,0-10.258,0-15.4,0.014c-0.934,0-1.696,0.325-2.205,0.904c-0.043,0.199-0.142,0.312-0.284,0.382h-0.013
								c-0.185,0.084-0.438,0.098-0.833,0.113c-0.368,0.013-0.623-0.043-0.792-0.199c-0.071-0.057-0.112-0.113-0.155-0.197
								c-0.396-0.439-0.989-0.679-1.709-0.679c-2.572-0.014-5.129-0.014-7.715-0.014c0,0,0,0-0.016,0h-1.978
								c0.621,0.367,1.201,0.819,1.753,1.356c1.157,1.13,1.92,2.416,2.359,3.886c0.24,0.819,0.381,1.709,0.424,2.643h3.433
								c0.07,0.126,0.127,0.183,0.127,0.226c0.042,1.936,0.186,1.78,1.951,1.78h2.656c2.643,0,5.299-0.014,7.94,0
								c2.317,0.029,1.865-0.198,1.979-1.993h3.49c0.099-1.894,0.593-3.561,1.555-5.002c0.479-0.748,1.088-1.441,1.837-2.063
								c0.55-0.467,1.13-0.848,1.738-1.158L374.469,315.305L374.469,315.305z"/>
							<path fill="#205C78" d="M395.353,288.585c-0.227-1.583-1.285-2.572-2.883-2.572c-3.234-0.014-6.471-0.014-9.721-0.014h-8.139
								c-4.933,0-9.863,0-14.809,0.014c-1.583,0-2.643,1.032-2.84,2.6c-0.029,0.226-0.029,0.438-0.029,0.649v22.777
								c0,0.213,0,0.424,0.029,0.65c0.197,1.569,1.257,2.6,2.84,2.6c4.945,0.015,9.876,0.015,14.809,0.015
								c1.258-0.65,2.628-0.976,4.083-0.962c1.413,0.015,2.782,0.339,4.042,0.962c0.014,0,0.014,0,0.014,0
								c3.25,0,6.486,0,9.721-0.015c1.598,0,2.657-0.988,2.883-2.57c0.042-0.241,0.042-0.481,0.042-0.722v-0.367
								c0.015-7.433,0-14.878,0-22.326C395.396,289.065,395.396,288.825,395.353,288.585z M377.874,307.801h-8.068V289.22h8.068
								V307.801z M386.648,307.801h-6.315v-14.723h6.315V307.801z"/>
							<path fill="#989899" d="M351.197,293.855c-0.423-0.098-0.891-0.141-1.399-0.141c-1.583,0-3.136,0.042-4.705,0
								c-1.173-0.043-2.163,0.24-3.053,0.862h-0.013c-0.312,0.211-0.607,0.452-0.891,0.748c-1.343,1.372-2.699,2.742-4.056,4.099
								c-0.607,0.607-1.216,1.215-1.836,1.823c-0.96,0.946-1.922,1.893-2.883,2.84c-0.354,0.354-0.876,0.607-1.37,0.706
								c-1.47,0.311-2.219,1.23-2.459,2.686c-0.382,0.057-0.777,0.084-1.146,0.197c-1.186,0.367-1.95,1.456-1.95,2.84
								c-0.013,0.89-0.013,1.781-0.013,2.656v0.113c0,0.113,0,0.24,0.028,0.369c0.042,0.337,0.155,0.664,0.311,0.917
								c0,0.014,0.015,0.042,0.027,0.056c0.042,0.071,0.086,0.127,0.142,0.184c0.028,0.042,0.058,0.07,0.071,0.099
								c0.367,0.423,0.933,0.664,1.625,0.664c2.16,0.014,4.31,0.014,6.47,0.014c1.356-0.818,2.869-1.214,4.494-1.229
								c1.71-0.015,3.292,0.395,4.706,1.229h1.809c0.016,0,0.016,0,0.016,0c2.5,0,4.958,0,7.432-0.014
								c0.692,0,1.271-0.24,1.653-0.678c0.014-0.015,0.043-0.042,0.057-0.072c0.042-0.042,0.07-0.084,0.084-0.126
								c0.043-0.042,0.072-0.084,0.085-0.127h0.015c0.084-0.17,0.17-0.34,0.212-0.551c0.027-5.144,0.014-10.301,0.014-15.445
								C354.673,295.946,353.443,294.307,351.197,293.855z M352.554,303.534h-16.123c1.37-1.385,2.713-2.755,4.069-4.112
								c0.976-0.989,1.95-1.963,2.939-2.925c0.354-0.353,0.945-0.621,1.441-0.65c1.68-0.084,3.362-0.113,5.043-0.014
								c1.385,0.071,2.501,1.088,2.601,2.459C352.638,300.016,352.554,301.768,352.554,303.534z"/>
							<path fill="#7F7F7F" d="M371.957,323.516c0.032-3.759,3.064-6.717,6.859-6.696c3.629,0.021,6.642,3.086,6.63,6.748
								c-0.015,3.701-3.056,6.702-6.774,6.687C374.957,330.242,371.921,327.192,371.957,323.516z M382.524,323.555
								c0.032-2.052-1.791-3.851-3.874-3.828c-2.068,0.024-3.764,1.761-3.748,3.837c0.015,2.102,1.699,3.771,3.801,3.768
								C380.79,327.331,382.497,325.64,382.524,323.555z"/>
							<path fill="#7F7F7F" d="M331.956,323.549c-0.006-3.729,3.037-6.736,6.8-6.729c3.687,0.014,6.691,3.051,6.68,6.754
								c-0.006,3.697-3.029,6.684-6.752,6.68C334.982,330.251,331.96,327.239,331.956,323.549z M338.706,327.333
								c2.089-0.005,3.804-1.705,3.812-3.778c0.01-2.082-1.774-3.851-3.867-3.828c-2.072,0.019-3.745,1.743-3.73,3.84
								C334.936,325.683,336.604,327.338,338.706,327.333z"/>
						</g>
					</g>
					<rect x="369.806" y="289.221" fill="#528FAA" width="8.068" height="18.581"/>
					<rect x="380.333" y="293.078" fill="#74AEB2" width="6.315" height="14.723"/>
				</g>
			</g>
			<g>
				<g>
					<g>
						<path fill="#8B8C8B" d="M305.88,95.43c-6.702,1.155-13.115,2.267-19.53,3.367c-8.106,1.391-16.217,2.765-24.325,4.155
							c-1.262,0.215-2.514,0.472-3.772,0.709c0.278,1.165,0.731,2.316,0.8,3.494c0.114,1.93-0.007,3.876-0.057,5.812
							c-0.007,0.342-0.145,0.677-0.275,1.249c2.022-0.32,3.847-0.602,5.672-0.9c8.742-1.443,17.487-2.881,26.229-4.337
							c2.16-0.36,4.313-0.738,6.453-1.194c0.45-0.097,0.955-0.488,1.207-0.886c1.862-2.928,3.956-5.587,7.211-7.106
							c0.314-0.149,0.656-0.645,0.657-0.979C306.15,97.765,305.997,96.719,305.88,95.43z"/>
						<path fill="#8B8C8B" d="M242.615,99.889c2.292,1.796,5.048,2.304,7.842,2.732c5.313,0.809,10.428-0.593,15.582-1.416
							c10.242-1.639,20.466-3.386,30.698-5.095c3.217-0.538,6.447-1.021,9.629-1.713c0.87-0.186,1.983-0.898,2.263-1.638
							c0.227-0.605-0.45-1.775-1.035-2.409c-1.273-1.381-2.698-1.901-4.838-1.489c-9.499,1.83-19.056,3.326-28.585,4.987
							c-9.579,1.671-19.153,3.397-28.725,5.094c-0.927,0.166-1.86,0.306-2.786,0.457C242.645,99.564,242.629,99.727,242.615,99.889z
							"/>
						<path fill="#B4B5B4" d="M284.229,126.772c1.489,2.496,4.009,3.437,6.678,3.512c5.939,0.166,11.888,0.043,17.831,0.062
							c0.908,0.003,1.344-0.246,1.39-1.26c0.109-2.451,0.157-2.448,2.628-2.444c0.267,0,0.536,0.026,0.802-0.004
							c1.036-0.116,1.457,0.328,1.438,1.373c-0.035,2.087,0.021,4.175-0.004,6.263c-0.044,3.73,0.534,3.213-3.383,3.262
							c-0.106,0.001-0.257,0.039-0.316-0.014c-0.4-0.374-1.142-0.806-1.108-1.154c0.203-2.025-0.853-2.177-2.5-2.177
							c-6.096-0.011-12.206,0.051-18.285-0.345c-5.34-0.353-8.981-4.116-9.934-9.36c-0.079-0.438-0.609-0.917-1.047-1.142
							c-1.983-1.031-3.677-2.399-4.144-4.632c-0.364-1.749-0.28-3.597-0.298-5.403c-0.003-0.221,0.566-0.585,0.908-0.643
							c4.374-0.726,8.758-1.385,13.131-2.115c1.079-0.181,1.489,0.103,1.392,1.224c-0.111,1.277-0.201,2.57-0.153,3.85
							c0.156,4.176-1.984,6.705-6.065,8.303C283.542,124.929,283.733,125.943,284.229,126.772z M281.56,119.887
							c1.352-0.022,2.445-1.221,2.44-2.672c-0.008-1.343-1.096-2.442-2.435-2.46c-1.408-0.022-2.514,1.09-2.537,2.548
							C279.005,118.658,280.229,119.909,281.56,119.887z"/>
						<path fill="#8B8C8B" d="M320.491,132.177c0-2.195-0.048-4.389,0.018-6.583c0.034-1.125-0.413-1.582-1.495-1.513
							c-0.104,0.01-0.213,0-0.319-0.001c-2.882-0.06-2.888-0.06-2.889,2.852c-0.005,3.8,0.032,7.598-0.028,11.395
							c-0.02,1.221,0.309,1.714,1.62,1.689c3.739-0.079,3.004,0.356,3.086-3.027C320.521,135.387,320.491,133.781,320.491,132.177z"
							/>
						<path fill="#8B8C8B" d="M258.024,109.938c-2.953,0.893-4.651-0.505-4.373-3.763c0.114-1.334,0.008-1.947-1.579-2.172
							c-3.877-0.549-4.367-0.111-3.361,3.673c0.607,2.283,1.708,4.26,3.484,5.84c1.337,1.189,3.036,1.536,4.274,0.857
							C257.838,113.619,258.459,111.848,258.024,109.938z"/>
						<path fill="#8B8C8B" d="M247.702,109.873c-0.146-2.08-0.252-4.066-0.452-6.04c-0.034-0.333-0.41-0.762-0.735-0.909
							c-1.95-0.863-3.916-1.707-5.918-2.44c-0.459-0.169-1.308-0.074-1.581,0.24c-0.345,0.402-0.501,1.202-0.369,1.74
							c0.776,3.169,5.635,7.138,8.981,7.439C247.716,109.913,247.811,109.818,247.702,109.873z"/>
					</g>
					
						<rect x="261.495" y="101.537" transform="matrix(-0.9857 0.1687 -0.1687 -0.9857 573.6609 155.8496)" fill="#B4B5B4" width="37.431" height="1.512"/>
					
						<rect x="267.649" y="105.238" transform="matrix(-0.9857 0.1686 -0.1686 -0.9857 580.699 162.6831)" fill="#B4B5B4" width="31.588" height="1.512"/>
				</g>
			</g>
			<g>
				<g>
					<path fill="#528FAA" d="M128.218,232.126L128.218,232.126L128.218,232.126 M114.051,215.96c-3.933,0-7.489,1.832-10.041,4.762
						c-2.558,2.928-4.128,6.961-4.129,11.404c0.001,4.448,1.571,8.477,4.129,11.406c2.552,2.93,6.108,4.758,10.041,4.758
						c3.934,0,7.487-1.828,10.038-4.758c2.558-2.929,4.129-6.958,4.129-11.406h-0.484h-0.485c0,4.216-1.493,8.024-3.888,10.77
						c-2.398,2.748-5.685,4.426-9.31,4.426s-6.913-1.678-9.311-4.426c-2.397-2.746-3.891-6.554-3.891-10.77
						c0-4.212,1.494-8.022,3.891-10.768c2.397-2.746,5.685-4.425,9.311-4.425c3.625,0,6.912,1.679,9.31,4.425
						c2.396,2.746,3.888,6.556,3.888,10.768h0.485h0.484l0,0c0-4.443-1.571-8.476-4.129-11.404
						C121.538,217.792,117.985,215.96,114.051,215.96L114.051,215.96z"/>
					<path fill="#528FAA" d="M132.367,230.987L132.367,230.987L132.367,230.987 M114.055,210.072c-0.003,0-0.003,0-0.004,0
						c-5.078-0.002-9.669,2.36-12.974,6.147c-3.304,3.79-5.34,9.01-5.34,14.767c0,5.756,2.037,10.974,5.34,14.764
						c3.304,3.791,7.894,6.151,12.972,6.151h0.002c5.075,0,9.67-2.361,12.973-6.151c3.306-3.79,5.343-9.008,5.343-14.764h-0.484
						h-0.485c0,5.524-1.957,10.524-5.104,14.128c-3.149,3.604-7.47,5.816-12.242,5.818c-4.772-0.001-9.092-2.214-12.244-5.818
						c-3.145-3.604-5.102-8.604-5.102-14.128c0-5.528,1.957-10.523,5.102-14.128c3.151-3.604,7.472-5.819,12.244-5.819
						c4.771,0,9.093,2.215,12.242,5.819c3.147,3.605,5.104,8.601,5.104,14.128h0.485h0.484l0,0c0-5.757-2.037-10.977-5.343-14.767
						C123.721,212.433,119.129,210.072,114.055,210.072L114.055,210.072z"/>
					<path fill="#528FAA" d="M137.673,230.606L137.673,230.606L137.673,230.606 M114.055,203.61c-0.003,0-0.003,0-0.004,0
						c-6.545-0.002-12.462,3.042-16.726,7.93c-4.268,4.892-6.896,11.628-6.896,19.066c0,7.436,2.627,14.177,6.896,19.068
						c4.264,4.887,10.18,7.933,16.724,7.933h0.002c6.544,0,12.459-3.045,16.725-7.933c4.269-4.892,6.896-11.633,6.896-19.068h-0.484
						h-0.481c0,7.207-2.553,13.724-6.66,18.429c-4.113,4.707-9.761,7.597-15.996,7.602c-6.236-0.005-11.885-2.896-15.996-7.602
						c-4.105-4.705-6.656-11.222-6.656-18.429c0-7.206,2.551-13.724,6.656-18.428c4.111-4.705,9.76-7.598,15.996-7.599
						c6.235,0.001,11.883,2.894,15.996,7.599c4.107,4.704,6.66,11.222,6.66,18.428h0.481h0.484l0,0
						c0-7.438-2.627-14.174-6.896-19.066C126.511,206.651,120.596,203.61,114.055,203.61L114.055,203.61z"/>
					<path fill="#528FAA" d="M142.319,231.365L142.319,231.365L142.319,231.365 M114.055,199.048c-0.003,0-0.003,0-0.004,0
						c-7.824-0.001-14.903,3.639-20.011,9.491c-5.107,5.852-8.255,13.923-8.257,22.826c0.002,8.906,3.15,16.979,8.257,22.833
						c5.108,5.849,12.185,9.488,20.009,9.488h0.002c7.824,0,14.905-3.639,20.009-9.488c5.108-5.854,8.259-13.927,8.259-22.833
						h-0.489h-0.48c0,8.676-3.073,16.525-8.021,22.192c-4.948,5.671-11.762,9.158-19.278,9.158c-7.518,0-14.329-3.487-19.28-9.158
						c-4.946-5.667-8.019-13.516-8.019-22.192c0-8.675,3.073-16.521,8.019-22.189c4.951-5.67,11.762-9.158,19.28-9.158
						c7.516,0,14.33,3.488,19.278,9.158c4.948,5.668,8.021,13.515,8.021,22.189h0.48h0.489l0,0c0-8.903-3.15-16.974-8.259-22.826
						C128.957,202.687,121.877,199.048,114.055,199.048L114.055,199.048z"/>
					<path fill="#B4B5B4" d="M110.059,231.174c-0.001,2.229-6.888,3.465-15.393,2.758c-8.504-0.704-15.396-1.938-15.396-2.758
						c0-0.814,6.891-2.049,15.396-2.755C103.171,227.715,110.058,228.95,110.059,231.174z"/>
					<path fill="#B4B5B4" d="M115.828,225.611c-1.973-1.038,0.137-7.708,4.715-14.912c4.581-7.199,8.878-12.728,9.601-12.347
						c0.726,0.38-1.387,7.055-4.72,14.911C122.092,221.119,117.797,226.644,115.828,225.611z"/>
					<path fill="#B4B5B4" d="M116.43,234.399c1.6-1.555,7.286,2.522,12.71,9.108c5.426,6.587,9.347,12.388,8.761,12.958
						c-0.582,0.57-6.271-3.51-12.709-9.113C118.756,241.75,114.837,235.951,116.43,234.399z"/>
					<path fill="#8B8C8B" d="M116.143,230.319c0,1.262-1.021,2.283-2.278,2.283c-1.261,0-2.284-1.021-2.284-2.283
						c0-1.257,1.022-2.278,2.284-2.278C115.122,228.041,116.143,229.062,116.143,230.319z"/>
					<rect x="111.011" y="237.733" fill="#B4B5B4" width="4.564" height="39.914"/>
					<rect x="107.591" y="274.223" fill="#8B8C8B" width="12.541" height="3.423"/>
				</g>
			</g>
			<g>
				<g>
					<path fill="#EC6359" d="M169.982,424.852c-0.229-0.207-0.512-0.104-0.766-0.104c-2.354-0.009-4.707-0.022-7.063,0.006
						c-0.57,0.008-0.788-0.11-0.78-0.739c0.031-3.615,0.025-7.224,0.001-10.835c-0.004-0.582,0.138-0.788,0.753-0.776
						c2.355,0.038,4.711-0.02,7.062,0.032c0.771,0.019,0.926-0.239,0.911-0.949c-0.04-2.299,0.004-4.6-0.026-6.899
						c-0.007-0.602,0.12-0.832,0.788-0.824c3.582,0.036,7.168,0.036,10.752-0.001c0.676-0.007,0.778,0.237,0.771,0.824
						c-0.026,2.354,0.015,4.709-0.026,7.061c-0.014,0.661,0.203,0.795,0.81,0.784c2.383-0.035,4.765,0.007,7.144-0.025
						c0.608-0.011,0.759,0.169,0.753,0.766c-0.028,3.637-0.025,7.274-0.003,10.912c0.005,0.522-0.14,0.676-0.666,0.672
						c-2.406-0.026-4.815,0.017-7.222-0.029c-0.689-0.014-0.828,0.204-0.816,0.85c0.039,2.381-0.001,4.763,0.026,7.141
						c0.009,0.569-0.152,0.714-0.709,0.712c-3.611-0.026-7.222-0.036-10.835,0.002c-0.68,0.009-0.774-0.243-0.766-0.825
						c0.026-2.326,0.016-4.655,0.004-6.981c-0.001-0.252,0.107-0.533-0.096-0.765L169.982,424.852z"/>
					<path fill="#FFFFFF" d="M157.423,394.216c0.003-2.245,1.709-3.958,3.945-3.958c2.281,0,4.009,1.719,4.009,3.993
						c0,2.204-1.764,3.974-3.963,3.977C159.155,398.234,157.423,396.493,157.423,394.216z"/>
					<path fill="#B4B5B4" d="M212.721,373.347c-1.232-0.75-2.598-1.125-4-1.367c-0.376-0.069-0.579-0.135-0.659-0.596
						c-0.184-1.023-2.408-1.907-3.325-1.377c-0.241,0.136-0.392,0.354-0.453,0.631c-0.22,0.945-0.255,1.907-0.233,2.874
						c0.008,0.374,0.214,0.664,0.549,0.686c0.974,0.06,2.003,0.212,2.857-0.393c0.352-0.246,0.646-0.315,1.02-0.244
						c1.081,0.201,2.139,0.474,3.115,1.007c1.721,0.94,2.663,2.333,2.561,4.355c-0.068,1.345-0.4,2.641-0.635,3.952
						c-0.964,5.368-2.053,10.713-2.906,16.096c-0.38,2.419-1.325,4.679-1.67,7.087c-0.104,0.717-0.243,1.433-0.452,2.115
						c-0.619,2.013-1.562,3.844-3.496,4.899c-3.274,1.793-7.147,0.628-9.316-2.605c-1.574-2.354-1.883-5.13-2.648-7.722
						c-0.936-3.163-1.293-6.491-1.888-9.754c-0.815-4.496-1.644-8.988-2.424-13.491c-0.301-1.736,0.211-3.244,1.625-4.355
						c1.326-1.04,2.905-1.435,4.541-1.646c0.126-0.017,0.309-0.011,0.378,0.063c0.742,0.852,1.775,0.59,2.702,0.707
						c0.586,0.076,1.045-0.229,1.018-0.852c-0.036-0.851-0.024-1.708-0.19-2.554c-0.146-0.752-0.567-1.033-1.301-0.974
						c-0.592,0.047-1.156,0.207-1.709,0.406c-0.435,0.157-0.725,0.476-0.781,0.937c-0.061,0.509-0.309,0.727-0.82,0.741
						c-0.316,0.008-0.631,0.11-0.946,0.173c-4.624,0.925-6.803,3.992-5.987,8.405c1.372,7.436,2.732,14.874,4.087,22.315
						c0.052,0.274,0.224,0.581-0.009,0.849c-0.464,0.533-0.359,1.157-0.265,1.757c0.201,1.303,0.531,2.574,1.02,3.789
						c1.452,3.607,3.691,6.382,7.756,7.152c0.465,0.089,0.457,0.339,0.375,0.69c-0.264,1.146-0.47,2.306-0.779,3.438
						c-1.051,3.868-2.421,7.61-4.938,10.793c-3.823,4.838-8.854,7.662-14.951,8.488c-7.106,0.96-13.328-0.981-18.32-6.194
						c-4.558-4.752-7.083-10.535-7.679-17.076c-0.446-4.894,0.753-9.445,3.573-13.517c0.166-0.239,0.303-0.616,0.589-0.624
						c0.979-0.027,1.418-0.48,1.214-1.486c4.422,1.258,7.635-0.92,8.938-3.753c1.409-3.064,0.395-6.813-2.336-8.72
						c-2.832-1.97-6.659-1.686-9.074,0.682c-2.766,2.712-2.812,6.185-0.129,10.181c-0.941,0.292-1.016,0.368-1.017,1.364
						c-0.003,0.283-0.167,0.439-0.301,0.629c-2.556,3.516-3.879,7.477-4.165,11.783c-0.428,6.452,1.49,12.3,4.774,17.753
						c2.727,4.525,6.442,7.964,11.335,10.047c4.802,2.037,9.786,2.434,14.853,1.305c7.089-1.576,12.72-5.335,16.498-11.617
						c2.452-4.076,3.827-8.572,4.617-13.243c0.098-0.577,0.27-0.872,0.898-0.965c1.289-0.193,2.454-0.733,3.492-1.524
						c2.225-1.688,3.385-4.039,3.981-6.675c0.346-1.524,0.972-3.096,0.106-4.671c-0.052-0.095,0.022-0.261,0.045-0.392
						c0.134-0.711,0.274-1.415,0.402-2.125c1.291-7.044,2.59-14.088,3.854-21.14C216.182,377.118,215.082,374.792,212.721,373.347z
						 M156.134,393.987c0.065-2.76,2.512-5.063,5.321-5.016c2.961,0.048,5.287,2.487,5.205,5.465
						c-0.076,2.815-2.524,5.115-5.372,5.056C158.335,399.434,156.061,397.004,156.134,393.987z"/>
					<path fill="#DB2130" d="M165.376,394.25c0,2.204-1.764,3.974-3.963,3.977c-2.259,0.008-3.991-1.734-3.991-4.011
						c0.003-2.245,1.709-3.958,3.945-3.958C163.648,390.258,165.376,391.977,165.376,394.25z"/>
					<path fill="#DADAD9" d="M165.376,394.25c0,2.204-1.764,3.974-3.963,3.977c-2.259,0.008-3.991-1.734-3.991-4.011
						c0.003-2.245,1.709-3.958,3.945-3.958C163.648,390.258,165.376,391.977,165.376,394.25z"/>
				</g>
			</g>
		</g>
	</g>
	<path fill="none" stroke="#C2C4B7" stroke-width="3" stroke-miterlimit="10" stroke-dasharray="5" d="M612.517,698.203
		c56.104,7.139,107.785,19.46,152.669,35.824"/>
	<path fill="none" d="M376.923,699.433c38.856-5.387,79.936-8.273,122.424-8.273c39.132,0,77.064,2.45,113.169,7.045"/>
	<path fill="none" stroke="#C2C4B7" stroke-width="3" stroke-miterlimit="10" stroke-dasharray="5" d="M371.952,700.137
		c1.653-0.238,3.31-0.474,4.972-0.704"/>
	<path fill="none" stroke="#C2C4B7" stroke-width="3" stroke-miterlimit="10" stroke-dasharray="5" d="M233.523,734.023
		c41.061-14.972,87.809-26.558,138.428-33.888"/>
	<path fill="#C2C4B7" d="M260.462,712.604l-0.749,10.289c0,0,0.084-0.029,0.197-0.066c-0.014,0.608,0.161,1.226,0.478,1.753
		c0.066,0.394,0.217,0.77,0.419,1.112c0.069,0.215,0.157,0.422,0.267,0.616c-0.101,0.035-0.175,0.062-0.175,0.062l6.853,7.654
		l-28.965-1.93L260.462,712.604z"/>
	<path fill="#C2C4B7" d="M742.801,714.193l0.752,10.29c0,0-0.087-0.03-0.199-0.067c0.015,0.609-0.16,1.226-0.479,1.752
		c-0.065,0.396-0.215,0.771-0.418,1.113c-0.07,0.215-0.158,0.422-0.266,0.617c0.1,0.034,0.174,0.062,0.174,0.062l-6.854,7.654
		l28.968-1.93L742.801,714.193z"/>
	<g>
		<g>
			<path fill="#B7D6A3" d="M617.487,732.852c0,67.702-54.887,122.588-122.587,122.588c-67.705,0-122.588-54.886-122.588-122.588
				S427.195,610.25,494.9,610.25C562.602,610.25,617.487,665.148,617.487,732.852z"/>
			<g>
				<g>
					<g>
						<rect x="413.221" y="667.719" fill="#FFFEFE" width="164.399" height="93.556"/>
						<rect x="418.521" y="674.672" fill="#F08360" width="151.945" height="7.362"/>
						<rect x="486.689" y="690.535" fill="#F08360" width="83.777" height="2.698"/>
						<path fill="#97C77A" d="M440.045,688.717c-9.414,0-17.093,4.946-17.093,11.01c0,4.601,4.419,8.554,10.657,10.197
							c1.025,2.824,2.686,5.29,5.181,8.108c-1.087-2.297-1.657-4.96-1.786-7.472c0.987,0.114,2.001,0.178,3.041,0.178
							c9.415,0,17.095-4.946,17.095-11.013C457.14,693.663,449.46,688.717,440.045,688.717z"/>
						<g>
							<rect x="423.114" y="723.059" fill="#F08360" width="34.025" height="5.104"/>
							<rect x="423.114" y="733.267" fill="#FFD57C" width="34.025" height="5.104"/>
							<rect x="423.114" y="743.474" fill="#FAB953" width="34.025" height="3.402"/>
							<rect x="486.061" y="745.173" fill="#FAB953" width="85.061" height="8.508"/>
						</g>
					</g>
					<path fill="#97C77A" d="M548.538,737.954v2.593h-38.912h-2.591v-2.593v-38.909h2.591v38.909H548.538z M543.351,699.045
						l-10.214,1.668l2.456,3.001l-21.599,17.672l1.643,2.007l21.602-17.671l2.453,2.999L543.351,699.045z M540.53,713.841
						l-2.368-2.895v24.417h5.188v-28.98L540.53,713.841z M522.597,721.051v14.313h5.188v-18.558L522.597,721.051z M515.27,727.045
						l-0.454-0.559v8.877h5.19v-12.192L515.27,727.045z M530.38,714.683v20.682h5.188v-24.927L530.38,714.683z"/>
				</g>
				<g>
					<path fill="#3D3D3D" d="M578.04,660.804H411.758c-2.167,0-3.925,1.761-3.925,3.925v101.539h174.131V664.729
						C581.965,662.562,580.209,660.804,578.04,660.804z M576.569,759.396H413.23v-91.726h163.339V759.396L576.569,759.396z"/>
					<path fill="#E9E9E9" d="M578.042,781.96H411.759c-2.167,0-3.924-1.756-3.924-3.923v-11.771h174.132v11.771
						C581.967,780.204,580.209,781.96,578.042,781.96z"/>
					<path fill="#E9E9E9" d="M467.188,802.479v-2.16l6.875-0.841l4.739-18.094h35.145l4.741,18.094l6.873,0.841v2.16H467.188z"/>
					<path fill="#E9E9E9" d="M496.618,663.305c0.51,0,0.919,0.411,0.919,0.921c0,0.509-0.409,0.922-0.919,0.922
						c-0.509,0-0.92-0.413-0.92-0.922C495.698,663.716,496.109,663.305,496.618,663.305z"/>
					<path opacity="0.08" fill="#3D3D3D" enable-background="new    " d="M478.16,784.812l0.641-3.428h35.145l0.643,3.428H478.16z"
						/>
				</g>
			</g>
		</g>
		<g>
			<g>
				<path fill="#B7D6A3" d="M926.461,752.989c0,45.917-37.229,83.145-83.145,83.145c-45.923,0-83.145-37.228-83.145-83.145
					c0-45.94,37.222-83.185,83.145-83.185C889.232,669.806,926.461,707.049,926.461,752.989z"/>
				<g>
					<g>
						<rect x="789.927" y="716.979" fill="#FFFEFE" width="106.751" height="75.217"/>
						<rect x="795.15" y="721.61" fill="#FEFEFE" width="96.33" height="61.623"/>
						<path fill="#3D3D3D" d="M894.048,709.282h-101.89c-5.263,0-9.327,4.519-9.327,9.763v67.639c0,5.244,4.064,9.991,9.327,9.991
							h101.89c5.263,0,9.758-4.747,9.758-9.991v-67.639C903.806,713.801,899.311,709.282,894.048,709.282z M897.083,788.834H789.551
							v-71.707h107.532V788.834z"/>
					</g>
					<g>
						<rect x="795.15" y="721.61" fill="#97C77A" width="33.604" height="12.325"/>
						<rect x="795.15" y="733.938" fill="#FFD57C" width="33.604" height="49.297"/>
						<rect x="800.753" y="739.542" fill="#FFFFFF" width="22.403" height="10.084"/>
						<rect x="800.753" y="756.349" fill="#FFFFFF" width="22.403" height="10.081"/>
						<rect x="800.753" y="772.031" fill="#FFFFFF" width="22.403" height="5.604"/>
						<rect x="842.195" y="735.058" fill="#FFDA87" width="41.445" height="3.363"/>
						<rect x="842.195" y="744.021" fill="#EC632A" width="41.445" height="3.363"/>
						<rect x="842.195" y="752.989" fill="#FFDA87" width="41.445" height="3.358"/>
						<rect x="842.195" y="761.95" fill="#EC632A" width="41.445" height="3.36"/>
						<rect x="842.195" y="770.912" fill="#97C77A" width="41.445" height="3.359"/>
					</g>
				</g>
			</g>
			<g>
				<path fill="#B7D6A3" d="M242.765,752.989c0,45.921-37.228,83.145-83.145,83.145c-45.919,0-83.144-37.224-83.144-83.145
					c0-45.942,37.224-83.185,83.144-83.185C205.537,669.806,242.765,707.047,242.765,752.989z"/>
				<g>
					<path fill="#3D3D3D" d="M185.947,704.865c0-4.135-3.349-7.487-7.479-7.487h-37.564c-4.134,0-7.482,3.354-7.482,7.487v96.225
						c0,4.135,3.349,7.483,7.482,7.483h37.564c4.13,0,7.479-3.35,7.479-7.483V704.865z M165.181,707.191
						c0,0.652-0.529,1.188-1.182,1.188h-8.015c-0.656,0-1.186-0.534-1.186-1.188v-0.072c0-0.654,0.53-1.184,1.186-1.184h8.015
						c0.653,0,1.182,0.528,1.182,1.184V707.191z M182.287,792.69h-44.59v-79.423h44.59V792.69z"/>
					<rect x="137.707" y="713.269" fill="#FFFEFE" width="44.58" height="79.423"/>
					<path fill="#F08360" d="M147.575,721.416c1.372-1.37,3.269-2.223,5.365-2.223v7.597L147.575,721.416z M153.807,721.362v7.597
						l-5.366-5.369c-1.377,1.375-2.224,3.274-2.224,5.369c0,4.193,3.4,7.592,7.59,7.592c4.193,0,7.591-3.397,7.591-7.592
						C161.398,724.764,158,721.362,153.807,721.362z"/>
					<g>
						<rect x="140.043" y="739.451" fill="#F08360" width="39.904" height="1.947"/>
						<rect x="140.043" y="754.407" fill="#FFD57C" width="39.904" height="1.939"/>
						<rect x="140.043" y="759.802" fill="#F08360" width="39.904" height="1.938"/>
						<rect x="140.043" y="765.193" fill="#97C77A" width="39.904" height="1.941"/>
						<rect x="140.043" y="770.584" fill="#F08360" width="39.904" height="1.942"/>
						<rect x="140.043" y="740.7" fill="#97C77A" width="39.904" height="9.656"/>
					</g>
				</g>
			</g>
		</g>
	</g>
	<g>
		<path fill="#FFFFFF" d="M608.043,432.368c-9.843-16.354-27.355-26.344-46.678-26.344c-0.354,0-0.703,0.003-1.055,0.011
			c-4.049-8.398-10.145-15.615-17.848-21.068c-9.336-6.61-20.336-10.104-31.812-10.104c-10.574,0-20.851,3.004-29.717,8.689
			c-6.84,4.387-12.601,10.197-16.904,17.011c-5.25-1.65-10.716-2.481-16.312-2.481c-15.482,0-29.905,6.405-40.225,17.72
			c-2.242-0.407-4.525-0.613-6.822-0.613c-20.96,0-38.011,17.054-38.011,38.004c0,20.953,17.051,38.006,38.011,38.006
			c2.626,0,5.234-0.271,7.789-0.807c2.887,3,6.077,5.636,9.503,7.87c-0.009,0.057-0.021,0.108-0.031,0.162
			c0.502,0.304,1.021,0.602,1.514,0.929c0.098,0.028,0.195,0.055,0.292,0.088c0.108,0.036,0.208,0.089,0.299,0.149
			c0.004-0.012,0.005-0.024,0.008-0.038c8.275,4.884,17.784,7.532,27.673,7.532c5.261,0,10.508-0.771,15.534-2.261
			c-0.005,0.062-0.008,0.123-0.012,0.184c0.776-0.293,1.542-0.624,2.333-0.869c0.001-0.02,0.002-0.04,0.004-0.061
			c0.359-0.125,0.722-0.254,1.078-0.385c8.008,12.638,21.998,20.499,37.273,20.499c12.488,0,24.17-5.214,32.452-14.227l1.38,0.053
			c0.002-0.119,0.013-0.236,0.018-0.355c7.323,3.521,15.353,5.364,23.587,5.364c9.526,0,18.91-2.498,27.129-7.222
			c6.708-3.857,12.546-9.13,17.071-15.39c0.136,0.002,0.268,0.004,0.398,0.004c16.581,0,30.071-13.489,30.071-30.068
			C636.036,446.476,623.658,433.436,608.043,432.368z M605.965,485.568c-1.312,0-2.599-0.115-3.852-0.325
			c-8.359,13.749-23.482,22.932-40.748,22.932c-9.664,0-18.652-2.878-26.164-7.821c-6.646,10.227-18.168,16.986-31.271,16.986
			c-15.326,0-28.491-9.253-34.216-22.478c-6.581,3.429-14.062,5.368-21.995,5.368c-14.907,0-28.216-6.846-36.954-17.563
			c-3.167,1.082-6.559,1.679-10.092,1.679c-0.517,0-1.026-0.013-1.536-0.038c-0.17-0.008-0.34-0.023-0.51-0.036
			c-0.336-0.021-0.674-0.043-1.008-0.074c-0.202-0.021-0.398-0.049-0.596-0.069c-0.302-0.036-0.604-0.07-0.9-0.115
			c-0.209-0.028-0.419-0.066-0.628-0.102c-0.282-0.047-0.566-0.097-0.847-0.151c-0.215-0.042-0.426-0.087-0.639-0.133
			c-0.271-0.06-0.542-0.121-0.813-0.189c-0.212-0.052-0.424-0.105-0.636-0.162c-0.264-0.071-0.528-0.146-0.789-0.226
			c-0.213-0.062-0.422-0.127-0.63-0.191c-0.26-0.083-0.515-0.173-0.769-0.261c-0.208-0.072-0.416-0.145-0.621-0.224
			c-0.254-0.094-0.504-0.194-0.752-0.296c-0.202-0.081-0.406-0.159-0.603-0.245c-0.253-0.109-0.5-0.224-0.748-0.338
			c-0.193-0.09-0.387-0.174-0.575-0.268c-0.267-0.128-0.526-0.267-0.788-0.403c-0.251-0.13-0.5-0.264-0.75-0.399
			c-0.32-0.18-0.64-0.358-0.955-0.55c-0.205-0.124-0.405-0.258-0.609-0.385c-0.198-0.128-0.399-0.252-0.595-0.384
			c-0.214-0.142-0.419-0.289-0.628-0.438c-0.181-0.128-0.361-0.254-0.538-0.383c-0.211-0.156-0.418-0.316-0.626-0.479
			c-0.166-0.13-0.333-0.259-0.496-0.392c-0.209-0.169-0.415-0.341-0.62-0.517c-0.155-0.133-0.309-0.265-0.461-0.398
			c-0.206-0.184-0.409-0.369-0.607-0.555c-0.144-0.137-0.285-0.271-0.425-0.404c-0.202-0.197-0.402-0.395-0.602-0.6
			c-0.129-0.132-0.254-0.266-0.38-0.398c-0.201-0.212-0.401-0.428-0.596-0.646c-0.11-0.125-0.219-0.253-0.328-0.38
			c-0.202-0.233-0.404-0.471-0.602-0.712c-0.084-0.104-0.166-0.21-0.249-0.313c-0.212-0.271-0.425-0.54-0.629-0.815
			c-0.023-0.035-0.048-0.067-0.071-0.102c-1.015-1.386-1.914-2.858-2.691-4.404c-0.038-0.072-0.078-0.146-0.115-0.222
			c-0.16-0.324-0.31-0.654-0.459-0.985c-0.048-0.104-0.095-0.207-0.141-0.311c-0.142-0.32-0.275-0.646-0.404-0.976
			c-0.047-0.116-0.094-0.233-0.139-0.349c-0.125-0.325-0.243-0.654-0.357-0.983c-0.042-0.121-0.082-0.243-0.123-0.364
			c-0.109-0.332-0.215-0.667-0.313-1.007c-0.036-0.116-0.068-0.238-0.104-0.356c-0.097-0.35-0.188-0.693-0.273-1.044
			c-0.026-0.108-0.052-0.218-0.076-0.328c-0.085-0.366-0.166-0.731-0.239-1.103c-0.015-0.082-0.027-0.161-0.044-0.247
			c-0.073-0.4-0.143-0.805-0.203-1.208c-0.212-1.47-0.327-2.972-0.327-4.498c0-17.201,13.95-31.151,31.161-31.151
			c3.25,0,6.383,0.498,9.328,1.421c8.717-11.271,22.367-18.529,37.719-18.529c6.917,0,13.489,1.477,19.421,4.126
			c7.795-16.179,24.35-27.345,43.511-27.345c20.753,0,38.441,13.096,45.265,31.473c1.788-0.203,3.606-0.312,5.45-0.312
			c18.664,0,34.819,10.734,42.641,26.361c0.646-0.055,1.3-0.088,1.959-0.088c6.337,0,12.076,2.538,16.268,6.65l0,0
			c1.341,1.316,2.521,2.792,3.513,4.399c0,0,0,0,0,0.001c0.196,0.313,0.381,0.633,0.561,0.957c0.006,0.01,0.012,0.016,0.012,0.023
			c0.174,0.314,0.34,0.635,0.5,0.956c0.008,0.021,0.019,0.039,0.029,0.058c0.151,0.312,0.292,0.629,0.435,0.948
			c0.014,0.03,0.025,0.062,0.041,0.093c0.133,0.307,0.254,0.618,0.372,0.934c0.021,0.045,0.036,0.086,0.053,0.131
			c0.113,0.303,0.213,0.607,0.312,0.914c0.021,0.062,0.045,0.118,0.062,0.179c0.091,0.293,0.174,0.589,0.255,0.887
			c0.02,0.077,0.043,0.151,0.063,0.227c0.074,0.287,0.141,0.575,0.205,0.865c0.019,0.091,0.043,0.18,0.061,0.271
			c0.059,0.274,0.105,0.557,0.151,0.837c0.02,0.105,0.042,0.21,0.058,0.318c0.042,0.272,0.075,0.552,0.105,0.828
			c0.017,0.115,0.032,0.227,0.044,0.34c0.029,0.282,0.047,0.564,0.064,0.846c0.006,0.116,0.021,0.229,0.026,0.344
			c0.021,0.396,0.029,0.798,0.029,1.201C629.184,475.173,618.79,485.568,605.965,485.568z"/>
		<path fill="#8CD3F6" d="M375.521,471.576c-1.016-1.386-1.915-2.858-2.692-4.404C373.606,468.718,374.507,470.19,375.521,471.576z"
			/>
		<path fill="#8CD3F6" d="M372.714,466.95c-0.16-0.324-0.31-0.654-0.459-0.985C372.404,466.296,372.554,466.626,372.714,466.95z"/>
		<path fill="#E7F3F7" d="M393.747,468.868c3.534,0,6.927-0.599,10.092-1.681c8.739,10.719,22.047,17.564,36.954,17.564
			c7.936,0,15.413-1.941,21.994-5.371c5.726,13.226,18.89,22.479,34.218,22.479c13.103,0,24.626-6.761,31.27-16.984
			c7.515,4.942,16.501,7.82,26.165,7.82c17.268,0,32.389-9.184,40.75-22.932c1.253,0.21,2.537,0.324,3.853,0.324
			c12.822,0,23.219-10.394,23.219-23.209c0-0.364-0.012-0.724-0.027-1.083c-4.19-4.112-9.931-6.651-16.268-6.651
			c-0.659,0-1.312,0.035-1.959,0.089c-7.821-15.627-23.977-26.361-42.641-26.361c-1.845,0-3.662,0.109-5.45,0.312
			c-6.822-18.376-24.512-31.473-45.265-31.473c-19.161,0-35.716,11.166-43.511,27.345c-5.932-2.649-12.504-4.126-19.421-4.126
			c-15.352,0-29.002,7.259-37.719,18.529c-2.944-0.923-6.078-1.421-9.328-1.421c-17.21,0-31.161,13.95-31.161,31.151
			c0,1.526,0.115,3.028,0.327,4.498C375.556,464.52,384.142,468.868,393.747,468.868z"/>
		<path fill="#8CD3F6" d="M370.675,461.619c-0.097-0.35-0.188-0.696-0.273-1.044C370.486,460.926,370.579,461.271,370.675,461.619z"
			/>
		<path fill="#8CD3F6" d="M370.325,460.247c-0.085-0.366-0.166-0.731-0.239-1.103C370.159,459.516,370.24,459.881,370.325,460.247z"
			/>
		<path fill="#8CD3F6" d="M371.092,462.982c-0.109-0.332-0.215-0.667-0.313-1.007C370.877,462.315,370.981,462.65,371.092,462.982z"
			/>
		<path fill="#8CD3F6" d="M370.042,458.897c-0.073-0.4-0.143-0.805-0.203-1.208C369.898,458.094,369.969,458.497,370.042,458.897z"
			/>
		<path fill="#8CD3F6" d="M371.572,464.331c-0.124-0.325-0.243-0.654-0.357-0.983C371.329,463.677,371.446,464.006,371.572,464.331z
			"/>
		<path fill="#8CD3F6" d="M372.115,465.654c-0.142-0.32-0.275-0.646-0.404-0.976C371.84,465.008,371.974,465.334,372.115,465.654z"
			/>
		<path fill="#DAEDF3" d="M629.127,460.807c-0.019-0.28-0.035-0.562-0.064-0.846c-0.012-0.113-0.027-0.225-0.045-0.34
			c-0.029-0.276-0.062-0.556-0.104-0.828c-0.016-0.108-0.038-0.213-0.058-0.318c-0.047-0.28-0.094-0.562-0.151-0.837
			c-0.019-0.091-0.042-0.18-0.062-0.271c-0.063-0.29-0.13-0.58-0.204-0.865c-0.021-0.074-0.044-0.148-0.063-0.227
			c-0.081-0.299-0.164-0.594-0.255-0.887c-0.019-0.061-0.041-0.117-0.063-0.179c-0.099-0.307-0.197-0.611-0.312-0.914
			c-0.017-0.045-0.032-0.086-0.053-0.131c-0.118-0.314-0.239-0.627-0.372-0.934c-0.016-0.031-0.027-0.062-0.041-0.093
			c-0.143-0.319-0.282-0.637-0.435-0.948c-0.012-0.019-0.021-0.037-0.029-0.058c-0.16-0.322-0.326-0.642-0.5-0.956
			c0-0.009-0.006-0.015-0.012-0.023c-0.18-0.324-0.363-0.644-0.561-0.957c0-0.001,0-0.001,0-0.001
			c-0.993-1.608-2.172-3.083-3.513-4.399l0,0l0,0c0.017,0.359,0.027,0.719,0.027,1.083c0,12.815-10.396,23.209-23.219,23.209
			c-1.314,0-2.6-0.114-3.854-0.324c-8.36,13.748-23.481,22.932-40.75,22.932c-9.663,0-18.649-2.878-26.164-7.82
			c-6.644,10.225-18.167,16.984-31.27,16.984c-15.328,0-28.492-9.253-34.218-22.479c-6.581,3.431-14.061,5.371-21.994,5.371
			c-14.907,0-28.215-6.847-36.954-17.564c-3.166,1.083-6.559,1.681-10.092,1.681c-9.605,0-18.19-4.349-23.908-11.179l0,0l0,0
			c0.061,0.403,0.13,0.808,0.203,1.208c0.017,0.086,0.029,0.165,0.044,0.248c0.073,0.369,0.154,0.734,0.239,1.102
			c0.023,0.11,0.049,0.22,0.076,0.328c0.085,0.348,0.178,0.695,0.273,1.044c0.035,0.118,0.066,0.24,0.104,0.357
			c0.099,0.339,0.204,0.674,0.313,1.006c0.041,0.122,0.081,0.244,0.123,0.364c0.115,0.329,0.234,0.658,0.357,0.983
			c0.044,0.114,0.091,0.231,0.139,0.349c0.129,0.328,0.264,0.654,0.404,0.976c0.045,0.104,0.092,0.206,0.141,0.311
			c0.149,0.331,0.299,0.661,0.459,0.985c0.038,0.074,0.078,0.148,0.115,0.222c0.777,1.546,1.677,3.02,2.691,4.404
			c0.023,0.033,0.048,0.065,0.071,0.102c0.205,0.275,0.417,0.546,0.629,0.815c0.083,0.104,0.165,0.211,0.249,0.313
			c0.196,0.241,0.399,0.479,0.602,0.713c0.109,0.127,0.218,0.254,0.328,0.379c0.193,0.219,0.395,0.435,0.596,0.646
			c0.126,0.134,0.251,0.269,0.38,0.398c0.198,0.205,0.399,0.401,0.602,0.6c0.14,0.135,0.281,0.27,0.425,0.404
			c0.198,0.186,0.401,0.371,0.607,0.555c0.152,0.135,0.306,0.267,0.461,0.398c0.205,0.176,0.41,0.348,0.62,0.517
			c0.163,0.133,0.33,0.262,0.496,0.392c0.208,0.161,0.415,0.321,0.626,0.479c0.177,0.129,0.357,0.255,0.538,0.383
			c0.208,0.147,0.414,0.296,0.628,0.438c0.194,0.132,0.396,0.256,0.595,0.384c0.204,0.127,0.405,0.261,0.609,0.385
			c0.315,0.19,0.635,0.37,0.955,0.55c0.249,0.138,0.498,0.271,0.75,0.399c0.262,0.138,0.521,0.275,0.788,0.404
			c0.188,0.093,0.383,0.177,0.575,0.267c0.248,0.114,0.494,0.229,0.748,0.338c0.196,0.086,0.4,0.164,0.603,0.245
			c0.248,0.102,0.498,0.202,0.752,0.296c0.205,0.079,0.413,0.15,0.621,0.224c0.253,0.088,0.509,0.178,0.769,0.261
			c0.208,0.064,0.417,0.129,0.63,0.191c0.26,0.079,0.524,0.153,0.788,0.226c0.213,0.057,0.425,0.11,0.637,0.163
			c0.271,0.067,0.542,0.13,0.813,0.188c0.212,0.046,0.423,0.091,0.639,0.133c0.28,0.056,0.563,0.104,0.847,0.151
			c0.208,0.034,0.418,0.072,0.628,0.102c0.297,0.045,0.599,0.079,0.9,0.115c0.197,0.021,0.395,0.05,0.596,0.069
			c0.334,0.031,0.672,0.055,1.008,0.075c0.17,0.012,0.34,0.027,0.51,0.035c0.509,0.025,1.02,0.038,1.536,0.038
			c3.533,0,6.925-0.597,10.092-1.679c8.738,10.719,22.046,17.564,36.954,17.564c7.934,0,15.414-1.94,21.995-5.369
			c5.725,13.225,18.889,22.478,34.216,22.478c13.104,0,24.625-6.761,31.271-16.985c7.512,4.942,16.5,7.82,26.164,7.82
			c17.266,0,32.389-9.183,40.748-22.932c1.253,0.21,2.539,0.325,3.852,0.325c12.825,0,23.219-10.396,23.219-23.218
			c0-0.403-0.009-0.805-0.029-1.201C629.146,461.036,629.133,460.923,629.127,460.807z"/>
	</g>
	<g>
		<path fill="#74AEB2" d="M537.085,430.959l-2.577,1.882c-0.695,0.508-1.968,0.477-2.782-0.073
			c-0.753-0.518-1.545-0.993-2.357-1.426c-0.859-0.462-1.476-1.57-1.342-2.427l0.494-3.177c0.345-2.221-1.183-4.312-3.408-4.662
			l-5.155-0.796c-1.082-0.17-2.161,0.096-3.038,0.739c-0.881,0.642-1.458,1.585-1.626,2.669l-0.494,3.175
			c-0.077,0.511-0.438,1.042-0.966,1.427c-0.328,0.24-0.692,0.408-1.049,0.466c-0.905,0.168-1.809,0.383-2.687,0.648
			c-0.938,0.275-2.164-0.073-2.674-0.771l-1.885-2.577c-1.33-1.82-3.889-2.216-5.706-0.89l-4.208,3.076
			c-1.817,1.329-2.214,3.886-0.884,5.707l1.885,2.578c0.507,0.697,0.47,1.972-0.082,2.785c-0.518,0.752-0.996,1.545-1.422,2.354
			c-0.171,0.319-0.442,0.619-0.766,0.856c-0.529,0.386-1.15,0.568-1.657,0.486l-3.173-0.488c-1.079-0.169-2.155,0.095-3.039,0.738
			c-0.882,0.646-1.458,1.591-1.623,2.667l-0.805,5.161c-0.17,1.075,0.096,2.155,0.736,3.034c0.646,0.883,1.593,1.457,2.671,1.623
			l3.173,0.496c0.855,0.135,1.728,1.057,1.9,2.016c0.17,0.902,0.382,1.801,0.646,2.674c0.276,0.943-0.076,2.164-0.771,2.673
			l-2.582,1.886c-1.816,1.328-2.212,3.89-0.886,5.706l3.08,4.211c1.33,1.821,3.891,2.221,5.708,0.895l2.58-1.887
			c0.693-0.508,1.969-0.475,2.782,0.078c0.748,0.514,1.541,0.984,2.355,1.423c0.856,0.462,1.476,1.566,1.34,2.422l-0.49,3.175
			c-0.349,2.227,1.182,4.319,3.408,4.664l5.163,0.802c1.073,0.171,2.152-0.091,3.033-0.732c0.88-0.648,1.46-1.596,1.625-2.672
			l0.494-3.174c0.08-0.519,0.443-1.049,0.972-1.435c0.328-0.239,0.688-0.406,1.043-0.47c0.905-0.161,1.8-0.379,2.674-0.639
			c0.941-0.284,2.17,0.069,2.682,0.771l1.882,2.574c1.327,1.813,3.886,2.215,5.704,0.886l4.206-3.076
			c1.82-1.332,2.222-3.889,0.891-5.706l-1.879-2.572c-0.513-0.701-0.479-1.978,0.071-2.783c0.517-0.755,1-1.549,1.43-2.358
			c0.169-0.309,0.438-0.618,0.765-0.854c0.527-0.388,1.148-0.573,1.658-0.489l3.177,0.493c1.079,0.164,2.158-0.099,3.036-0.738
			c0.88-0.644,1.457-1.593,1.625-2.671l0.801-5.157c0.343-2.223-1.187-4.315-3.407-4.662l-3.178-0.491
			c-0.854-0.136-1.722-1.056-1.897-2.021c-0.166-0.901-0.384-1.8-0.642-2.673c-0.28-0.943,0.072-2.166,0.771-2.673l2.574-1.886
			c1.818-1.33,2.214-3.891,0.886-5.709l-3.082-4.215C541.465,430.029,538.901,429.631,537.085,430.959z M527.07,446.57
			c3.896,5.329,2.727,12.827-2.604,16.718c-5.323,3.893-12.818,2.728-16.716-2.604c-3.891-5.319-2.729-12.822,2.594-16.714
			C515.673,440.078,523.179,441.245,527.07,446.57z"/>
		<path fill="#528FAA" d="M478.03,441.676c-0.065-0.224,0.028-0.528,0.128-0.598l1.288-0.944c1.214-0.887,1.484-2.59,0.599-3.803
			l-1.541-2.105c-0.884-1.212-2.595-1.474-3.808-0.588l-1.289,0.942c-0.096,0.07-0.411,0.074-0.605-0.057
			c-0.396-0.27-0.813-0.522-1.243-0.748c-0.196-0.107-0.338-0.388-0.317-0.507l0.244-1.585c0.231-1.485-0.788-2.88-2.271-3.108
			l-2.577-0.401c-0.717-0.109-1.436,0.062-2.024,0.49c-0.588,0.431-0.97,1.064-1.082,1.787l-0.246,1.583
			c-0.006,0.048-0.074,0.167-0.214,0.27c-0.083,0.06-0.169,0.101-0.248,0.115c-0.474,0.084-0.944,0.2-1.405,0.335
			c-0.222,0.066-0.523-0.033-0.595-0.132l-0.944-1.287c-0.887-1.214-2.593-1.479-3.804-0.592l-2.109,1.54
			c-1.208,0.884-1.476,2.591-0.589,3.804l0.942,1.289c0.072,0.101,0.079,0.415-0.055,0.606c-0.268,0.397-0.522,0.814-0.752,1.242
			c-0.034,0.068-0.1,0.139-0.181,0.199c-0.141,0.102-0.271,0.127-0.323,0.122l-1.581-0.245c-0.722-0.115-1.443,0.059-2.029,0.487
			c-0.59,0.431-0.971,1.063-1.082,1.786l-0.401,2.572c-0.233,1.479,0.79,2.881,2.273,3.111l1.585,0.245
			c0.117,0.015,0.347,0.231,0.384,0.457c0.087,0.477,0.2,0.946,0.335,1.41c0.068,0.222-0.032,0.521-0.131,0.596l-1.29,0.944
			c-1.211,0.885-1.476,2.59-0.589,3.801l1.537,2.104c0.888,1.217,2.591,1.479,3.804,0.596l1.29-0.945
			c0.098-0.07,0.417-0.076,0.606,0.056c0.397,0.269,0.815,0.521,1.242,0.747c0.197,0.105,0.339,0.389,0.319,0.506l-0.246,1.589
			c-0.113,0.718,0.061,1.435,0.491,2.024c0.431,0.585,1.062,0.973,1.78,1.081l2.578,0.404c0.719,0.107,1.438-0.063,2.027-0.494
			c0.586-0.426,0.968-1.061,1.084-1.779l0.241-1.588c0.014-0.05,0.072-0.168,0.214-0.268c0.08-0.062,0.169-0.103,0.246-0.119
			c0.475-0.086,0.951-0.199,1.412-0.334c0.222-0.065,0.52,0.036,0.595,0.135l0.944,1.289c0.884,1.212,2.594,1.478,3.803,0.592
			l2.104-1.541c1.217-0.885,1.481-2.588,0.595-3.803l-0.943-1.289c-0.072-0.1-0.076-0.416,0.049-0.605
			c0.277-0.396,0.524-0.817,0.75-1.242c0.042-0.067,0.104-0.136,0.187-0.196c0.141-0.104,0.271-0.129,0.32-0.125l1.588,0.25
			c0.723,0.105,1.437-0.061,2.025-0.493c0.588-0.427,0.97-1.062,1.083-1.78l0.398-2.577c0.23-1.483-0.788-2.878-2.276-3.109
			l-1.583-0.25c-0.119-0.016-0.347-0.237-0.386-0.455C478.278,442.606,478.165,442.135,478.03,441.676z M469.545,442.39
			c1.722,2.361,1.206,5.686-1.152,7.411c-2.363,1.727-5.686,1.21-7.411-1.151c-1.727-2.361-1.209-5.685,1.152-7.41
			C464.494,439.515,467.817,440.029,469.545,442.39z"/>
	</g>
	<line fill="none" x1="343.326" y1="315.602" x2="334.043" y2="315.615"/>
	<line fill="none" x1="382.749" y1="315.305" x2="374.61" y2="315.305"/>
</g>
</svg>
