<?xml version="1.0" encoding="utf-8"?>
<!-- Generator: Adobe Illustrator 16.0.0, SVG Export Plug-In . SVG Version: 6.00 Build 0)  -->
<!DOCTYPE svg PUBLIC "-//W3C//DTD SVG 1.1//EN" "http://www.w3.org/Graphics/SVG/1.1/DTD/svg11.dtd" [
	<!ENTITY ns_flows "http://ns.adobe.com/Flows/1.0/">
	<!ENTITY ns_extend "http://ns.adobe.com/Extensibility/1.0/">
	<!ENTITY ns_ai "http://ns.adobe.com/AdobeIllustrator/10.0/">
	<!ENTITY ns_graphs "http://ns.adobe.com/Graphs/1.0/">
]>
<svg version="1.1" id="Capa_1" xmlns:x="&ns_extend;" xmlns:i="&ns_ai;" xmlns:graph="&ns_graphs;"
	 xmlns="http://www.w3.org/2000/svg" xmlns:xlink="http://www.w3.org/1999/xlink" xmlns:a="http://ns.adobe.com/AdobeSVGViewerExtensions/3.0/"
	 x="0px" y="0px" width="1218px" height="237px" viewBox="0 0 1218 237" style="enable-background:new 0 0 1218 237;"
	 xml:space="preserve">
<style type="text/css">
<![CDATA[
	.st0{fill-rule:evenodd;clip-rule:evenodd;fill:none;}
	.st1{fill:#1B3B6A;}
	.st2{fill:#89BB79;}
	.st3{fill:#203A77;}
	.st4{fill:#222954;}
	.st5{fill:#25885A;}
	.st6{fill:#5BA860;}
	.st7{fill:#2E496B;}
	.st8{fill:#FFFFFF;}
	.st9{fill:#63B347;}
	.st10{fill:#69A351;}
	.st11{fill:#016B71;}
	.st12{fill:#036D3E;}
	.st13{fill:#04526E;}
	.st14{fill:#057F78;}
	.st15{fill:#0E9339;}
]]>
</style>
<g>
	<path class="st2" d="M170,83c0,6.627-4.812,12-11.797,12H33.829C26.845,95,21,89.627,21,83V73c0-6.627,5.845-12,12.829-12h124.374
		C165.188,61,170,66.373,170,73V83z"/>
	<g>
		<path class="st4" d="M1193.304,70.582c4.687,4.687,4.687,12.285,0,16.971l-7.071,7.07c-4.686,4.687-12.283,4.688-16.971,0
			l-50.204-50.204c-4.687-4.687-4.687-12.284,0-16.971l7.071-7.071c4.686-4.686,12.283-4.687,16.971,0L1193.304,70.582z"/>
		<path class="st4" d="M1190,83c0,6.627-4.812,12-11.797,12h-124.374c-6.984,0-12.829-5.373-12.829-12V73
			c0-6.627,5.845-12,12.829-12h124.374c6.985,0,11.797,5.373,11.797,12V83z"/>
		<path class="st4" d="M1193.304,88.419c4.687-4.687,4.687-12.284,0-16.971l-7.071-7.071c-4.686-4.686-12.283-4.686-16.971,0
			l-50.204,50.205c-4.687,4.687-4.687,12.285,0,16.971l7.071,7.07c4.686,4.687,12.283,4.688,16.971,0L1193.304,88.419z"/>
	</g>
	<g>
		<g>
			<g>
				<path class="st2" d="M172.484,60.398l-0.005-0.015C161.82,28.03,126.944,10.442,94.595,21.102
					C62.228,31.768,44.639,66.643,55.298,98.996c10.664,32.364,45.54,49.952,77.906,39.289
					C165.554,127.625,183.135,92.771,172.484,60.398z"/>
			</g>
			<g>
				<path class="st10" d="M250.371,99.68c-32.35,10.661-67.227-6.932-77.887-39.281c10.65,32.372-6.931,67.227-39.28,77.887
					c32.35-10.66,67.228,6.931,77.887,39.281C200.432,145.216,218.021,110.341,250.371,99.68z"/>
			</g>
			<circle class="st8" cx="113.901" cy="79.7" r="47.827"/>
		</g>
		<g>
			<g>
				<path class="st9" d="M211.093,138.956c10.66-32.352,45.536-49.939,77.901-39.276c32.351,10.661,49.94,45.536,39.281,77.887
					c-10.664,32.363-45.539,49.956-77.891,39.297C218.019,206.198,200.43,171.32,211.093,138.956z"/>
				<path class="st6" d="M288.994,99.68c32.351,10.661,67.229-6.932,77.887-39.281c-10.648,32.372,6.931,67.227,39.281,77.887
					c-32.351-10.66-67.228,6.931-77.887,39.281C338.935,145.216,321.345,110.341,288.994,99.68z"/>
			</g>
			<path class="st8" d="M224.267,143.295c8.266-25.086,35.304-38.723,60.393-30.456c25.087,8.265,38.725,35.304,30.458,60.391
				c-8.266,25.09-35.304,38.727-60.392,30.459C229.638,195.422,216.001,168.385,224.267,143.295z"/>
		</g>
		<g>
			<g>
				<g>
					<path class="st15" d="M484.072,60.396l-0.005-0.013c-10.658-32.354-45.535-49.941-77.886-39.282
						c-32.365,10.666-49.956,45.54-39.297,77.892c10.664,32.364,45.54,49.955,77.906,39.291
						C477.142,127.625,494.72,92.771,484.072,60.396z"/>
				</g>
			</g>
			<g>
				<g>
					<path class="st5" d="M561.957,99.678c-32.351,10.663-67.228-6.93-77.885-39.281c10.647,32.374-6.931,67.229-39.281,77.888
						c32.351-10.659,67.229,6.929,77.888,39.282C512.021,145.213,529.606,110.341,561.957,99.678z"/>
				</g>
			</g>
			<path class="st8" d="M470.913,64.733c-8.265-25.088-35.303-38.724-60.392-30.457c-25.088,8.267-38.723,35.305-30.458,60.389
				c8.266,25.09,35.304,38.728,60.394,30.46C465.543,116.859,479.179,89.822,470.913,64.733z"/>
		</g>
		<g>
			<g>
				<path class="st4" d="M678.47,60.396l0.006-0.013c10.658-32.354,45.533-49.941,77.885-39.282
					c32.363,10.666,49.953,45.54,39.293,77.892c-10.662,32.364-45.539,49.955-77.904,39.291
					C685.397,127.625,667.819,92.771,678.47,60.396z"/>
			</g>
			<g>
				<path class="st12" d="M522.679,138.956c10.662-32.352,45.537-49.939,77.902-39.278c32.35,10.663,49.939,45.535,39.281,77.889
					c-10.662,32.363-45.541,49.956-77.891,39.297C529.604,206.198,512.016,171.32,522.679,138.956z"/>
				<path class="st14" d="M600.581,99.678c32.35,10.663,67.229-6.93,77.889-39.281c-10.65,32.374,6.928,67.229,39.279,77.888
					c-32.352-10.659-67.229,6.929-77.887,39.282C650.521,145.213,632.931,110.341,600.581,99.678z"/>
			</g>
			<path class="st8" d="M691.626,64.733c8.264-25.088,35.307-38.724,60.395-30.457c25.086,8.267,38.723,35.305,30.457,60.389
				c-8.27,25.09-35.305,38.728-60.395,30.46C696.997,116.859,683.358,89.822,691.626,64.733z"/>
			<path class="st8" d="M535.854,143.293c8.267-25.084,35.305-38.721,60.393-30.457c25.087,8.268,38.724,35.307,30.46,60.393
				c-8.268,25.089-35.306,38.726-60.396,30.46C541.221,195.422,527.586,168.383,535.854,143.293z"/>
		</g>
		<g>
			<g>
				<path class="st11" d="M795.659,60.397l-0.006-0.014c-10.658-32.354-45.533-49.94-77.885-39.282
					c-32.363,10.666-49.957,45.54-39.293,77.892c10.662,32.364,45.539,49.955,77.902,39.292
					C788.731,127.626,806.31,92.771,795.659,60.397z"/>
			</g>
			<g>
				<path class="st1" d="M951.448,138.956c-10.66-32.352-45.537-49.939-77.902-39.278c-32.35,10.663-49.939,45.535-39.281,77.888
					c10.662,32.364,45.541,49.957,77.891,39.298C944.524,206.198,962.112,171.32,951.448,138.956z"/>
				<path class="st13" d="M873.546,99.678c-32.35,10.663-67.229-6.93-77.887-39.28c10.65,32.373-6.928,67.229-39.281,77.888
					c32.354-10.659,67.229,6.928,77.887,39.28C823.606,145.213,841.196,110.341,873.546,99.678z"/>
			</g>
			<path class="st8" d="M782.503,64.733c-8.264-25.088-35.307-38.724-60.395-30.457c-25.086,8.267-38.723,35.305-30.457,60.388
				c8.27,25.091,35.305,38.729,60.395,30.461C777.132,116.859,790.769,89.822,782.503,64.733z"/>
			<path class="st8" d="M938.272,143.292c-8.264-25.083-35.303-38.72-60.391-30.456c-25.086,8.268-38.723,35.306-30.459,60.393
				c8.268,25.089,35.305,38.726,60.393,30.46C932.907,195.422,946.542,168.383,938.272,143.292z"/>
		</g>
		<g>
			<g>
				<path class="st4" d="M990.058,60.396l0.006-0.013c10.658-32.354,45.535-49.941,77.885-39.282
					c32.363,10.664,49.957,45.541,39.297,77.892c-10.666,32.364-45.543,49.955-77.906,39.291
					C996.985,127.625,979.411,92.77,990.058,60.396z"/>
			</g>
			<g>
				<path class="st3" d="M834.269,138.957c10.66-32.354,45.537-49.94,77.902-39.278c32.35,10.66,49.939,45.534,39.281,77.888
					c-10.66,32.364-45.541,49.956-77.891,39.297C841.192,206.196,823.604,171.321,834.269,138.957z"/>
				<path class="st7" d="M912.171,99.679c32.35,10.66,67.229-6.931,77.887-39.282c-10.646,32.373,6.928,67.229,39.281,77.888
					c-32.354-10.659-67.229,6.929-77.887,39.282C962.11,145.213,944.521,110.339,912.171,99.679z"/>
			</g>
			<path class="st8" d="M1003.218,64.735c8.26-25.09,35.303-38.726,60.391-30.459c25.086,8.267,38.723,35.305,30.457,60.389
				c-8.268,25.092-35.305,38.728-60.391,30.459C1008.585,116.859,994.948,89.821,1003.218,64.735z"/>
			<path class="st8" d="M847.444,143.293c8.264-25.084,35.303-38.719,60.391-30.457c25.09,8.268,38.725,35.307,30.461,60.393
				c-8.27,25.089-35.307,38.726-60.395,30.46C852.81,195.422,839.175,168.383,847.444,143.293z"/>
		</g>
	</g>
</g>
<path class="st0" d="M127.5,413.75"/>
<path class="st0" d="M176.388,342.287"/>
<path class="st0" d="M309.388,342.287"/>
<path class="st0" d="M255.512,363.662"/>
</svg>
