<?xml version="1.0" encoding="utf-8"?>
<!-- Generator: Adobe Illustrator 16.0.0, SVG Export Plug-In . SVG Version: 6.00 Build 0)  -->
<!DOCTYPE svg PUBLIC "-//W3C//DTD SVG 1.1//EN" "http://www.w3.org/Graphics/SVG/1.1/DTD/svg11.dtd">
<svg version="1.1" id="Capa_1" xmlns="http://www.w3.org/2000/svg" xmlns:xlink="http://www.w3.org/1999/xlink" x="0px" y="0px"
	 width="624.769px" height="613.768px" viewBox="112.272 18.248 624.769 613.768"
	 enable-background="new 112.272 18.248 624.769 613.768" xml:space="preserve">
<path fill="#F8F7F7" d="M556.856,335.01c0,72.822-59.035,131.855-131.855,131.855c-72.822,0-131.857-59.033-131.857-131.855
	c0-72.826,59.035-131.86,131.857-131.86C497.821,203.149,556.856,262.184,556.856,335.01z"/>
<g>
	<g>
		<g>
			<defs>
				<circle id="SVGID_1_" cx="425.001" cy="106.211" r="87.461"/>
			</defs>
			<clipPath id="SVGID_2_">
				<use xlink:href="#SVGID_1_"  overflow="visible"/>
			</clipPath>
			<g clip-path="url(#SVGID_2_)">
				<path fill="#69A352" d="M426.866,193.919c-30.65-0.5-55.642-12.079-73.498-37.635c-0.568-0.81-1.258-1.536-1.939-2.258
					c-2.676-2.84-2.045-4.789,1.4-6.438c13.268-6.345,26.479-12.799,39.719-19.21c4.885-2.368,9.744-4.784,14.666-7.068
					c10.867-5.041,22.025-5.708,33.021-0.861c19.016,8.389,37.557,17.8,56.26,26.86c4.188,2.027,4.82,2.466,2.076,6.486
					c-10.511,15.418-23.922,27.039-41.353,33.934C447.464,191.589,437.431,193.907,426.866,193.919z"/>
				<path fill="#EAF3E4" stroke="#FFFFFF" stroke-miterlimit="10" d="M431.427,54.699c0-10.613,0.142-21.227-0.071-31.835
					c-0.08-3.92,1.727-4.469,4.877-3.952c28.227,4.635,50.139,18.97,64.866,43.454c6.668,11.082,10.707,23.364,11.005,36.563
					c0.247,10.925,0.319,21.797-2.988,32.442c-2.23,7.174-2.074,7.215-8.916,3.988c-16.771-7.906-33.781-15.327-50.326-23.673
					c-11.414-5.755-18.93-14.715-18.498-28.636C431.663,73.608,431.431,64.148,431.427,54.699z"/>
				<path fill="#B7D6A4" d="M418.683,55.554c0,9.118-0.021,18.235,0.002,27.353c0.037,13.044-5.719,22.379-17.561,28.03
					c-17.889,8.535-35.764,17.094-53.531,25.877c-3.381,1.672-4.559,0.717-5.518-2.379c-4.633-14.957-5.683-30.03-2.695-45.505
					c3.543-18.372,12.229-33.843,25.596-46.628c13.951-13.346,30.974-20.541,49.964-23.317c3.477-0.51,3.766,1.646,3.76,4.243
					C418.669,34.004,418.688,44.778,418.683,55.554z"/>
			</g>
		</g>
	</g>
	<g>
		<g>
			<defs>
				<path id="SVGID_3_" d="M662.69,262.054c-37.767,30.116-92.794,23.916-122.91-13.849c-30.117-37.765-23.918-92.795,13.848-122.91
					c37.769-30.116,92.795-23.915,122.91,13.849S700.456,231.938,662.69,262.054z"/>
			</defs>
			<clipPath id="SVGID_4_">
				<use xlink:href="#SVGID_3_"  overflow="visible"/>
			</clipPath>
			<g clip-path="url(#SVGID_4_)">
				<path fill="#63B448" d="M540.749,249.818c-18.719-24.275-25.248-51.033-16.4-80.927c0.281-0.948,0.418-1.941,0.558-2.923
					c0.551-3.863,2.469-4.586,5.903-2.92c13.232,6.418,26.519,12.723,39.783,19.076c4.896,2.34,9.818,4.634,14.672,7.058
					c10.718,5.354,18.195,13.66,21.263,25.28c5.297,20.099,9.498,40.462,14.076,60.732c1.024,4.537,1.075,5.306-3.777,5.669
					c-18.607,1.395-36.055-1.845-52.313-11.174C555.413,264.47,547.349,258.072,540.749,249.818z"/>
				<path fill="#EAF3E4" stroke="#FFFFFF" stroke-miterlimit="10" d="M652.44,166.583c8.297-6.617,16.682-13.124,24.844-19.907
					c3.016-2.505,4.567-1.435,6.131,1.351c13.975,24.958,16.428,51.028,6.471,77.808c-4.508,12.124-11.592,22.939-21.727,31.402
					c-8.388,7.004-16.842,13.839-27.228,17.891c-7,2.729-6.934,2.875-8.68-4.485c-4.273-18.041-9.078-35.968-12.867-54.106
					c-2.617-12.511-0.299-23.975,10.854-32.315C637.804,178.559,645.054,172.479,652.44,166.583z"/>
				<path fill="#B7D6A4" d="M643.825,157.15c-7.129,5.685-14.271,11.354-21.385,17.059c-10.175,8.159-21.062,9.48-32.863,3.745
					c-17.826-8.663-35.662-17.302-53.607-25.717c-3.414-1.604-3.403-3.116-1.58-5.798c8.808-12.948,19.938-23.165,33.896-30.479
					c16.574-8.684,34.086-11.54,52.416-9.062c19.129,2.589,35.371,11.408,49.379,24.527c2.568,2.398,1.061,3.969-0.973,5.584
					C660.665,143.704,652.251,150.437,643.825,157.15z"/>
			</g>
		</g>
	</g>
	<g>
		<g>
			<defs>
				<circle id="SVGID_5_" cx="649.405" cy="387.606" r="87.46"/>
			</defs>
			<clipPath id="SVGID_6_">
				<use xlink:href="#SVGID_5_"  overflow="visible"/>
			</clipPath>
			<g clip-path="url(#SVGID_6_)">
				<path fill="#0F9339" d="M563.481,369.904c7.309-29.768,24.159-51.555,53.047-63.276c0.916-0.371,1.776-0.884,2.633-1.388
					c3.363-1.977,5.125-0.93,5.965,2.797c3.232,14.348,6.586,28.666,9.889,42.998c1.224,5.287,2.498,10.564,3.63,15.869
					c2.495,11.72,0.663,22.744-6.511,32.386c-12.41,16.673-25.713,32.654-38.707,48.87c-2.905,3.631-3.477,4.149-6.787,0.583
					c-12.69-13.678-21.034-29.339-23.879-47.868C561.167,390.507,561.142,380.211,563.481,369.904z"/>
				<path fill="#EAF3E4" stroke="#FFFFFF" stroke-miterlimit="10" d="M698.194,405.339c10.348,2.36,20.661,4.858,31.055,7.011
					c3.838,0.797,3.971,2.679,2.766,5.636c-10.801,26.487-29.653,44.657-56.799,53.568c-12.289,4.036-25.162,5.24-38.098,2.593
					c-10.703-2.189-21.322-4.54-30.963-10.133c-6.496-3.771-6.57-3.631-1.902-9.584c11.439-14.587,22.459-29.521,34.279-43.793
					c8.147-9.848,18.557-15.181,32.03-11.662C679.706,401.359,688.981,403.239,698.194,405.339z"/>
				<path fill="#B7D6A4" d="M700.198,392.721c-8.89-2.029-17.771-4.08-26.668-6.084c-12.726-2.869-20.545-10.555-23.418-23.359
					c-4.34-19.338-8.709-38.669-13.314-57.944c-0.877-3.672,0.313-4.605,3.547-4.851c15.613-1.188,30.539,1.146,44.963,7.498
					c17.121,7.544,30.273,19.454,39.765,35.331c9.903,16.572,13.133,34.771,11.61,53.9c-0.276,3.502-2.442,3.305-4.975,2.72
					C721.212,397.503,710.702,395.123,700.198,392.721z"/>
			</g>
		</g>
	</g>
	<g>
		<g>
			<defs>
				<path id="SVGID_7_" d="M441.892,581.713c-20.952-43.521-2.659-95.788,40.859-116.746c43.521-20.955,95.789-2.664,116.744,40.855
					c20.955,43.522,2.664,95.793-40.857,116.748C515.118,643.526,462.847,625.232,441.892,581.713z"/>
			</defs>
			<clipPath id="SVGID_8_">
				<use xlink:href="#SVGID_7_"  overflow="visible"/>
			</clipPath>
			<g clip-path="url(#SVGID_8_)">
				<path fill="#26895A" d="M480.964,465.552c27.83-12.844,55.371-13.253,82.545,2.022c0.861,0.484,1.799,0.839,2.728,1.194
					c3.643,1.396,3.922,3.427,1.53,6.406c-9.2,11.476-18.305,23.022-27.45,34.539c-3.371,4.254-6.703,8.541-10.146,12.732
					c-7.607,9.258-17.367,14.698-29.377,15.102c-20.773,0.69-41.564,0.256-62.342,0.205c-4.652-0.008-5.414-0.13-4.688-4.94
					c2.781-18.451,9.822-34.739,22.535-48.517C463.413,476.59,471.446,470.148,480.964,465.552z"/>
				<path fill="#EAF3E4" stroke="#FFFFFF" stroke-miterlimit="10" d="M537.249,592.969c4.604,9.562,9.082,19.184,13.879,28.65
					c1.771,3.498,0.383,4.775-2.682,5.676c-27.443,8.07-53.404,4.658-77.293-11.009c-10.818-7.091-19.785-16.405-25.781-28.169
					c-4.961-9.736-9.742-19.5-11.381-30.526c-1.104-7.431-1.26-7.401,6.305-7.464c18.537-0.15,37.086-0.844,55.611-0.502
					c12.781,0.232,23.438,5.045,29.088,17.774C528.833,576.031,533.146,584.455,537.249,592.969z"/>
				<path fill="#B7D6A4" d="M548.364,586.668c-3.957-8.216-7.892-16.438-11.871-24.642c-5.689-11.739-4.558-22.646,3.662-32.875
					c12.416-15.448,24.805-30.917,37.004-46.537c2.324-2.976,3.797-2.627,6.006-0.25c10.66,11.466,18.146,24.592,22.168,39.828
					c4.777,18.09,3.664,35.798-2.832,53.116c-6.781,18.073-18.994,31.946-34.902,42.686c-2.907,1.967-4.104,0.148-5.229-2.193
					C557.726,606.079,553.032,596.377,548.364,586.668z"/>
			</g>
		</g>
	</g>
	<g>
		<g>
			<defs>
				<path id="SVGID_9_" d="M246.333,505.814c20.963-43.519,73.232-61.804,116.752-40.845
					c43.516,20.962,61.805,73.232,40.844,116.749c-20.965,43.52-73.235,61.808-116.754,40.848
					C243.657,601.604,225.372,549.33,246.333,505.814z"/>
			</defs>
			<clipPath id="SVGID_10_">
				<use xlink:href="#SVGID_9_"  overflow="visible"/>
			</clipPath>
			<g clip-path="url(#SVGID_10_)">
				<path fill="#066E3F" d="M361.513,463.939c27.394,13.75,44.884,35.028,49.884,65.799c0.157,0.978,0.467,1.93,0.766,2.875
					c1.18,3.72-0.232,5.203-4.055,5.192c-14.707-0.041-29.412,0.041-44.121,0.071c-5.425,0.017-10.854,0.085-16.277,0.005
					c-11.98-0.176-22.32-4.415-30.123-13.553c-13.492-15.812-26.113-32.337-39.029-48.615c-2.895-3.641-3.275-4.312,0.939-6.744
					c16.162-9.329,33.287-13.979,51.981-12.628C341.942,457.1,351.985,459.364,361.513,463.939z"/>
				<path fill="#EAF3E4" stroke="#FFFFFF" stroke-miterlimit="10" d="M296.983,587.387c-4.604,9.563-9.334,19.062-13.746,28.714
					c-1.631,3.564-3.494,3.277-6.109,1.442c-23.42-16.424-36.939-38.851-39.582-67.297c-1.203-12.879,0.49-25.695,5.949-37.719
					c4.52-9.948,9.174-19.775,16.77-27.93c5.123-5.497,5.002-5.602,9.77,0.273c11.674,14.401,23.781,28.47,35.064,43.169
					c7.785,10.137,10.669,21.472,4.236,33.822C304.978,570.247,301.081,578.869,296.983,587.387z"/>
				<path fill="#B7D6A4" d="M308.843,592.149c3.953-8.219,7.933-16.419,11.863-24.646c5.631-11.768,14.863-17.681,27.986-17.633
					c19.815,0.074,39.637,0.119,59.454-0.084c3.773-0.037,4.421,1.329,3.939,4.541c-2.316,15.482-7.914,29.518-17.316,42.164
					c-11.166,15.012-25.702,25.184-43.297,30.901c-18.358,5.967-36.817,5.066-55.133-0.677c-3.352-1.048-2.68-3.116-1.545-5.454
					C299.499,611.568,304.159,601.85,308.843,592.149z"/>
			</g>
		</g>
	</g>
	<g>
		<g>
			<defs>
				<path id="SVGID_11_" d="M181.142,302.337c47.096-10.742,93.98,18.726,104.725,65.817
					c10.742,47.092-18.723,93.979-65.814,104.722c-47.096,10.741-93.982-18.724-104.729-65.816
					C104.581,359.968,134.05,313.077,181.142,302.337z"/>
			</defs>
			<clipPath id="SVGID_12_">
				<use xlink:href="#SVGID_11_"  overflow="visible"/>
			</clipPath>
			<g clip-path="url(#SVGID_12_)">
				<path fill="#025731" d="M285.692,366.282c6.328,29.987,0.598,56.932-20.344,80.024c-0.664,0.731-1.217,1.567-1.77,2.391
					c-2.174,3.243-4.213,3.062-6.59,0.067c-9.135-11.523-18.367-22.971-27.563-34.45c-3.396-4.231-6.832-8.437-10.152-12.725
					c-7.334-9.479-10.465-20.203-8.186-32.003c3.951-20.403,9.002-40.579,13.676-60.823c1.043-4.535,1.332-5.25,5.859-3.473
					c17.371,6.821,31.684,17.311,42.283,32.771C278.839,346.715,283.331,355.982,285.692,366.282z"/>
				<path fill="#EAF3E4" stroke="#FFFFFF" stroke-miterlimit="10" d="M148.944,392.798c-10.344,2.361-20.723,4.583-31.02,7.153
					c-3.803,0.947-4.74-0.69-4.938-3.878c-1.76-28.554,7.346-53.103,27.938-72.905c9.32-8.968,20.396-15.636,33.201-18.866
					c10.594-2.668,21.18-5.156,32.289-4.301c7.492,0.58,7.5,0.421,5.877,7.808c-3.982,18.108-7.432,36.346-11.889,54.332
					c-3.07,12.406-10.135,21.729-23.803,24.399C167.331,388.359,158.157,390.689,148.944,392.798z"/>
				<path fill="#B7D6A4" d="M152.614,405.036c8.891-2.032,17.781-4.036,26.666-6.09c12.711-2.936,23.09,0.598,31.234,10.888
					c12.297,15.54,24.619,31.063,37.135,46.433c2.383,2.928,1.717,4.283-1.094,5.911c-13.551,7.843-28.016,12.217-43.764,12.748
					c-18.697,0.63-35.713-4.394-51.154-14.584c-16.109-10.633-26.916-25.629-33.846-43.527c-1.271-3.272,0.768-4.036,3.303-4.607
					C131.608,409.84,142.108,407.423,152.614,405.036z"/>
			</g>
		</g>
	</g>
	<g>
		<g>
			<defs>
				<circle id="SVGID_13_" cx="247.262" cy="193.674" r="87.461"/>
			</defs>
			<clipPath id="SVGID_14_">
				<use xlink:href="#SVGID_13_"  overflow="visible"/>
			</clipPath>
			<g clip-path="url(#SVGID_14_)">
				<path fill="#8BBC79" d="M317.001,246.899c-19.502,23.651-44.137,35.971-75.25,34.001c-0.984-0.063-1.984,0.025-2.975,0.106
					c-3.887,0.323-5.018-1.387-4.16-5.106c3.313-14.33,6.504-28.684,9.744-43.031c1.193-5.295,2.336-10.603,3.617-15.873
					c2.836-11.64,9.271-20.779,19.914-26.354c18.416-9.638,37.332-18.265,56.076-27.239c4.197-2.009,4.937-2.229,6.367,2.421
					c5.5,17.829,6.227,35.56,0.75,53.487C328.019,229.343,323.579,238.63,317.001,246.899z"/>
				<path fill="#EAF3E4" stroke="#FFFFFF" stroke-miterlimit="10" d="M210.995,156.532c-8.297-6.615-16.508-13.341-24.936-19.79
					c-3.113-2.381-2.416-4.136-0.049-6.276c21.221-19.178,46.092-27.372,74.418-23.623c12.82,1.695,24.941,6.194,35.445,14.19
					c8.697,6.62,17.242,13.341,23.502,22.564c4.219,6.215,4.348,6.121-2.439,9.459c-16.637,8.182-33.044,16.855-49.887,24.587
					c-11.613,5.336-23.307,5.625-33.92-3.393C225.929,168.14,218.386,162.424,210.995,156.532z"/>
				<path fill="#B7D6A4" d="M206.017,166.086c7.129,5.687,14.244,11.387,21.387,17.054c10.221,8.103,13.932,18.421,10.967,31.204
					c-4.479,19.308-8.932,38.617-13.143,57.984c-0.801,3.688-2.279,4.014-5.303,2.833c-14.58-5.703-27.018-14.281-37.256-26.264
					c-12.154-14.224-18.836-30.662-20.498-49.082c-1.736-19.229,3.25-37.023,12.92-53.602c1.77-3.038,3.635-1.917,5.662-0.294
					C189.159,152.66,197.597,159.365,206.017,166.086z"/>
			</g>
		</g>
	</g>
	<g>
		<path fill="#FFFFFF" d="M263.731,229.566v-12.568h2.416l4.264,9.536l4.174-9.536h2.33v12.568h-2.154v-8.754l-3.41,8.754h-1.986
			l-3.48-8.754v8.754H263.731z"/>
		<path fill="#FFFFFF" d="M277.991,224.952c0-3.094,1.523-4.641,4.57-4.641s4.57,1.547,4.57,4.641c0,3.088-1.523,4.632-4.57,4.632
			C279.526,229.584,278.003,228.04,277.991,224.952z M282.562,227.809c1.494,0,2.242-0.964,2.242-2.892
			c0-1.881-0.748-2.821-2.242-2.821s-2.24,0.94-2.24,2.821C280.321,226.845,281.067,227.809,282.562,227.809z"/>
		<path fill="#FFFFFF" d="M296.165,229.013c-1.412,0.369-2.793,0.554-4.141,0.554c-2.982,0-4.473-1.6-4.473-4.799
			c0-2.953,1.459-4.43,4.377-4.43c0.621,0,1.256,0.146,1.906,0.439v-3.779h2.33L296.165,229.013L296.165,229.013z M293.835,222.746
			c-0.48-0.316-1.084-0.475-1.811-0.475c-1.447,0-2.17,0.812-2.17,2.435c0,1.928,0.752,2.892,2.258,2.892
			c0.609,0,1.184-0.085,1.723-0.255V222.746L293.835,222.746z"/>
		<path fill="#FFFFFF" d="M301.354,220.338c2.801,0,4.201,1.43,4.201,4.289c0,0.381-0.025,0.762-0.078,1.143h-6.127
			c0,1.301,0.955,1.951,2.865,1.951c0.932,0,1.863-0.088,2.795-0.264v1.846c-0.814,0.176-1.805,0.264-2.971,0.264
			c-3.346,0-5.018-1.573-5.018-4.72C297.022,221.841,298.466,220.338,301.354,220.338z M299.351,224.152h3.938v-0.07
			c0-1.277-0.645-1.916-1.934-1.916C300.124,222.166,299.456,222.828,299.351,224.152z"/>
		<path fill="#FFFFFF" d="M308.735,216.998v12.568h-2.33v-12.568H308.735z"/>
	</g>
	<g>
		<g>
			<path fill="#FFFFFF" d="M388.95,162.865v-12.568h5.625c2.565,0,3.85,1.181,3.85,3.542c0,2.561-1.754,4.11-5.264,4.649
				l-0.334-2.074c2.108-0.381,3.164-1.216,3.164-2.505c0-1.043-0.521-1.564-1.564-1.564h-3.146v10.521L388.95,162.865
				L388.95,162.865z"/>
			<path fill="#FFFFFF" d="M398.843,162.865v-9.229h1.804l0.288,1.178c0.81-0.785,1.664-1.178,2.566-1.178v1.881
				c-0.867,0-1.643,0.36-2.328,1.081v6.267H398.843z"/>
			<path fill="#FFFFFF" d="M403.481,158.251c0-3.094,1.522-4.641,4.569-4.641s4.57,1.547,4.57,4.641c0,3.088-1.523,4.632-4.57,4.632
				C405.017,162.883,403.493,161.339,403.481,158.251z M408.052,161.107c1.494,0,2.24-0.964,2.24-2.892
				c0-1.881-0.746-2.821-2.24-2.821s-2.242,0.94-2.242,2.821C405.81,160.144,406.558,161.107,408.052,161.107z"/>
			<path fill="#FFFFFF" d="M413.479,154.015c1.226-0.252,2.521-0.378,3.886-0.378c3.135,0,4.701,1.462,4.701,4.386
				c0,3.229-1.459,4.843-4.378,4.843c-0.62,0-1.247-0.146-1.881-0.439v3.779h-2.328V154.015L413.479,154.015z M415.808,160.457
				c0.58,0.316,1.205,0.475,1.873,0.475c1.39,0,2.082-0.976,2.082-2.927c0-1.658-0.768-2.487-2.303-2.487
				c-0.662,0-1.213,0.041-1.652,0.123V160.457L415.808,160.457z"/>
			<path fill="#FFFFFF" d="M426.817,153.637c2.801,0,4.2,1.43,4.2,4.289c0,0.381-0.024,0.762-0.077,1.143h-6.128
				c0,1.301,0.955,1.951,2.865,1.951c0.933,0,1.863-0.088,2.795-0.264v1.846c-0.813,0.176-1.805,0.264-2.971,0.264
				c-3.346,0-5.018-1.573-5.018-4.72C422.485,155.14,423.929,153.637,426.817,153.637z M424.812,157.451h3.938v-0.07
				c0-1.277-0.645-1.916-1.934-1.916C425.587,155.465,424.919,156.127,424.812,157.451z"/>
			<path fill="#FFFFFF" d="M431.868,162.865v-9.229h1.801l0.291,1.178c0.809-0.785,1.664-1.178,2.566-1.178v1.881
				c-0.867,0-1.646,0.36-2.33,1.081v6.267H431.868z"/>
			<path fill="#FFFFFF" d="M436.812,152.143h1.723l0.352,1.494h2.32v1.846h-2.064v4.245c0,0.861,0.371,1.292,1.115,1.292h0.949
				v1.846h-2.074c-1.547,0-2.32-0.829-2.32-2.487V152.143L436.812,152.143z"/>
			<path fill="#FFFFFF" d="M444.218,150.297v1.846h-2.328v-1.846H444.218z M444.218,153.637v9.229h-2.328v-9.229H444.218z"/>
			<path fill="#FFFFFF" d="M449.409,153.637c2.801,0,4.201,1.43,4.201,4.289c0,0.381-0.027,0.762-0.08,1.143h-6.125
				c0,1.301,0.955,1.951,2.864,1.951c0.933,0,1.863-0.088,2.796-0.264v1.846c-0.814,0.176-1.806,0.264-2.972,0.264
				c-3.346,0-5.02-1.573-5.02-4.72C445.075,155.14,446.521,153.637,449.409,153.637z M447.405,157.451h3.938v-0.07
				c0-1.277-0.645-1.916-1.934-1.916C448.179,155.465,447.511,156.127,447.405,157.451z"/>
			<path fill="#FFFFFF" d="M454.46,162.426v-1.934c1.025,0.41,2.209,0.615,3.551,0.615c1.002,0,1.502-0.322,1.502-0.967
				c0-0.615-0.336-0.923-1.01-0.923h-1.67c-1.875,0-2.813-0.923-2.813-2.769c0-1.934,1.367-2.9,4.104-2.9
				c1.16,0,2.254,0.176,3.279,0.527v1.934c-1.025-0.41-2.14-0.615-3.341-0.615c-1.26,0-1.891,0.322-1.891,0.967
				c0,0.615,0.367,0.923,1.101,0.923h1.493c2.052,0,3.076,0.923,3.076,2.769c0,1.934-1.307,2.9-3.92,2.9
				C456.64,162.953,455.485,162.777,454.46,162.426z"/>
		</g>
	</g>
	<g>
		<g>
			<path fill="#FFFFFF" d="M557.046,228.986c-1.014,0.445-2.281,0.668-3.805,0.668c-4.437,0-6.654-2.183-6.654-6.548
				c0-4.131,2.256-6.196,6.769-6.196c1.377,0,2.606,0.205,3.69,0.615v2.109c-1.084-0.469-2.256-0.703-3.516-0.703
				c-3.019,0-4.525,1.392-4.525,4.175c0,3.018,1.424,4.526,4.271,4.526c0.422,0,0.901-0.07,1.44-0.211v-3.656h2.328L557.046,228.986
				L557.046,228.986z"/>
			<path fill="#FFFFFF" d="M558.124,229.566v-9.229h1.801l0.291,1.178c0.81-0.785,1.664-1.178,2.566-1.178v1.881
				c-0.867,0-1.646,0.36-2.33,1.081v6.267H558.124z"/>
			<path fill="#FFFFFF" d="M562.761,224.952c0-3.094,1.523-4.641,4.57-4.641s4.57,1.547,4.57,4.641c0,3.088-1.523,4.632-4.57,4.632
				C564.296,229.584,562.771,228.04,562.761,224.952z M567.331,227.809c1.494,0,2.242-0.964,2.242-2.892
				c0-1.881-0.748-2.821-2.242-2.821s-2.24,0.94-2.24,2.821C565.091,226.845,565.837,227.809,567.331,227.809z"/>
			<path fill="#FFFFFF" d="M581.065,220.338v9.229h-1.82l-0.281-1.178c-1.061,0.785-2.186,1.178-3.375,1.178
				c-1.887,0-2.83-1.116-2.83-3.349v-5.88h2.33v5.818c0,1.02,0.445,1.529,1.336,1.529c0.756,0,1.525-0.302,2.312-0.905v-6.442
				H581.065z"/>
			<path fill="#FFFFFF" d="M582.362,220.716c1.225-0.252,2.52-0.378,3.885-0.378c3.135,0,4.703,1.462,4.703,4.386
				c0,3.229-1.459,4.843-4.377,4.843c-0.621,0-1.248-0.146-1.881-0.439v3.779h-2.33V220.716z M584.692,227.158
				c0.58,0.316,1.202,0.475,1.87,0.475c1.39,0,2.084-0.976,2.084-2.927c0-1.658-0.768-2.487-2.303-2.487
				c-0.662,0-1.213,0.041-1.651,0.123V227.158z"/>
		</g>
	</g>
	<g>
		<g>
			<path fill="#FFFFFF" d="M571.43,386.135v-2.109c1.261,0.47,2.685,0.703,4.271,0.703c1.928,0,2.892-0.645,2.892-1.934
				c0-0.938-0.592-1.406-1.774-1.406h-1.97c-2.571,0-3.857-1.172-3.857-3.516c0-2.578,1.831-3.867,5.493-3.867
				c1.405,0,2.738,0.205,3.999,0.615v2.109c-1.261-0.469-2.594-0.703-3.999-0.703c-2.109,0-3.164,0.615-3.164,1.846
				c0,0.938,0.51,1.406,1.528,1.406h1.97c2.735,0,4.104,1.172,4.104,3.516c0,2.637-1.74,3.955-5.221,3.955
				C574.113,386.75,572.689,386.545,571.43,386.135z"/>
			<path fill="#FFFFFF" d="M588.591,386.398c-0.762,0.176-1.553,0.264-2.373,0.264c-3.28,0-4.922-1.598-4.922-4.79
				c0-2.959,1.642-4.438,4.922-4.438c0.82,0,1.611,0.088,2.373,0.265v1.846c-0.762-0.176-1.494-0.264-2.197-0.264
				c-1.846,0-2.769,0.864-2.769,2.593c0,1.963,0.923,2.943,2.769,2.943c0.703,0,1.437-0.088,2.197-0.264V386.398z"/>
			<path fill="#FFFFFF" d="M593.123,377.434c2.801,0,4.201,1.43,4.201,4.289c0,0.381-0.026,0.762-0.079,1.144h-6.126
				c0,1.301,0.955,1.95,2.865,1.95c0.932,0,1.862-0.088,2.795-0.264v1.846c-0.814,0.177-1.806,0.265-2.972,0.265
				c-3.346,0-5.019-1.573-5.019-4.72C588.79,378.938,590.234,377.434,593.123,377.434z M591.119,381.248h3.938v-0.07
				c0-1.277-0.645-1.916-1.934-1.916C591.893,379.262,591.225,379.924,591.119,381.248z"/>
			<path fill="#FFFFFF" d="M598.173,386.662v-9.229h1.802l0.29,1.354c0.886-0.902,1.894-1.354,3.023-1.354
				c2.186,0,3.278,1.137,3.278,3.409v5.818h-2.329v-5.818c0-1.02-0.507-1.528-1.521-1.528c-0.756,0-1.494,0.302-2.215,0.904v6.442
				L598.173,386.662L598.173,386.662z"/>
			<path fill="#FFFFFF" d="M607.425,383.788c0-1.834,1.336-2.751,4.008-2.751c0.627,0,1.255,0.059,1.882,0.176v-0.693
				c0-0.826-0.596-1.24-1.784-1.24c-1.009,0-2.127,0.146-3.357,0.439v-1.846c1.23-0.293,2.351-0.439,3.357-0.439
				c2.741,0,4.112,1.014,4.112,3.041v6.188h-1.354l-0.826-0.826c-0.803,0.551-1.688,0.826-2.654,0.826
				C608.553,386.662,607.425,385.704,607.425,383.788z M611.433,382.619c-1.118,0-1.679,0.381-1.679,1.143
				c0,0.82,0.469,1.23,1.406,1.23c0.772,0,1.491-0.24,2.152-0.721v-1.478C612.729,382.678,612.101,382.619,611.433,382.619z"/>
			<path fill="#FFFFFF" d="M616.939,386.662v-9.229h1.802l0.29,1.178c0.809-0.785,1.664-1.178,2.565-1.178v1.881
				c-0.866,0-1.644,0.359-2.329,1.08v6.268H616.939z"/>
			<path fill="#FFFFFF" d="M624.345,374.094v1.846h-2.329v-1.846H624.345z M624.345,377.434v9.229h-2.329v-9.229H624.345z"/>
			<path fill="#FFFFFF" d="M625.203,382.048c0-3.094,1.522-4.641,4.57-4.641c3.047,0,4.569,1.547,4.569,4.641
				c0,3.089-1.522,4.632-4.569,4.632C626.738,386.68,625.215,385.136,625.203,382.048z M629.773,384.904
				c1.493,0,2.24-0.965,2.24-2.893c0-1.881-0.747-2.82-2.24-2.82c-1.494,0-2.241,0.939-2.241,2.82
				C627.532,383.939,628.279,384.904,629.773,384.904z"/>
		</g>
	</g>
	<g>
		<g>
			<path fill="#FFFFFF" d="M480.856,509.287v-12.568h4.922c4.159,0,6.239,1.98,6.239,5.941c0,4.418-2.08,6.627-6.239,6.627H480.856
				L480.856,509.287z M485.778,507.266c2.606,0,3.911-1.534,3.911-4.604c0-2.613-1.305-3.92-3.911-3.92h-2.594v8.524H485.778
				L485.778,507.266z"/>
			<path fill="#FFFFFF" d="M492.438,506.413c0-1.834,1.336-2.751,4.008-2.751c0.627,0,1.254,0.059,1.881,0.176v-0.694
				c0-0.825-0.595-1.238-1.784-1.238c-1.008,0-2.127,0.146-3.357,0.438v-1.846c1.23-0.293,2.351-0.439,3.357-0.439
				c2.742,0,4.113,1.015,4.113,3.041v6.188h-1.354l-0.826-0.826c-0.803,0.551-1.688,0.826-2.653,0.826
				C493.564,509.287,492.438,508.329,492.438,506.413z M496.444,505.244c-1.119,0-1.68,0.381-1.68,1.143
				c0,0.82,0.47,1.23,1.406,1.23c0.773,0,1.491-0.24,2.153-0.721v-1.478C497.739,505.303,497.112,505.244,496.444,505.244z"/>
			<path fill="#FFFFFF" d="M501.82,498.564h1.723l0.352,1.493h2.32v1.847h-2.064v4.245c0,0.86,0.372,1.292,1.115,1.292h0.949v1.846
				h-2.074c-1.547,0-2.319-0.829-2.319-2.487L501.82,498.564L501.82,498.564z"/>
			<path fill="#FFFFFF" d="M506.457,506.413c0-1.834,1.336-2.751,4.008-2.751c0.627,0,1.254,0.059,1.881,0.176v-0.694
				c0-0.825-0.595-1.238-1.783-1.238c-1.009,0-2.128,0.146-3.357,0.438v-1.846c1.229-0.293,2.35-0.439,3.357-0.439
				c2.741,0,4.112,1.015,4.112,3.041v6.188h-1.354l-0.826-0.826c-0.803,0.551-1.688,0.826-2.654,0.826
				C507.585,509.287,506.457,508.329,506.457,506.413z M510.465,505.244c-1.119,0-1.679,0.381-1.679,1.143
				c0,0.82,0.469,1.23,1.406,1.23c0.772,0,1.49-0.24,2.152-0.721v-1.478C511.76,505.303,511.133,505.244,510.465,505.244z"/>
		</g>
	</g>
	<g>
		<g>
			<path fill="#FFFFFF" d="M318.306,508.76c-1.084,0.41-2.313,0.615-3.69,0.615c-4.513,0-6.769-2.183-6.769-6.548
				c0-4.131,2.256-6.196,6.769-6.196c1.377,0,2.606,0.205,3.69,0.615v2.109c-1.084-0.47-2.256-0.703-3.516-0.703
				c-3.018,0-4.526,1.392-4.526,4.175c0,3.018,1.51,4.525,4.526,4.525c1.26,0,2.432-0.233,3.516-0.702V508.76z"/>
			<path fill="#FFFFFF" d="M318.943,504.673c0-3.094,1.522-4.641,4.569-4.641s4.57,1.547,4.57,4.641c0,3.088-1.523,4.632-4.57,4.632
				C320.479,509.305,318.955,507.761,318.943,504.673z M323.514,507.529c1.494,0,2.241-0.964,2.241-2.893
				c0-1.881-0.747-2.82-2.241-2.82s-2.24,0.939-2.24,2.82C321.272,506.565,322.02,507.529,323.514,507.529z"/>
			<path fill="#FFFFFF" d="M328.942,509.287v-9.229h1.802l0.29,1.354c0.885-0.902,1.893-1.354,3.022-1.354
				c2.187,0,3.278,1.138,3.278,3.41v5.818h-2.329v-5.818c0-1.02-0.507-1.528-1.521-1.528c-0.757,0-1.494,0.302-2.216,0.904v6.442
				L328.942,509.287L328.942,509.287z"/>
			<path fill="#FFFFFF" d="M338.633,509.287v-9.229h1.802l0.29,1.354c0.886-0.902,1.894-1.354,3.023-1.354
				c2.186,0,3.278,1.138,3.278,3.41v5.818h-2.329v-5.818c0-1.02-0.507-1.528-1.521-1.528c-0.756,0-1.494,0.302-2.215,0.904v6.442
				L338.633,509.287L338.633,509.287z"/>
			<path fill="#FFFFFF" d="M352.218,500.059c2.801,0,4.201,1.431,4.201,4.289c0,0.381-0.026,0.763-0.079,1.144h-6.126
				c0,1.301,0.955,1.951,2.865,1.951c0.932,0,1.863-0.089,2.795-0.265v1.847c-0.814,0.176-1.805,0.264-2.971,0.264
				c-3.347,0-5.02-1.573-5.02-4.72C347.885,501.562,349.329,500.059,352.218,500.059z M350.214,503.873h3.938v-0.07
				c0-1.276-0.646-1.916-1.935-1.916C350.987,501.887,350.319,502.549,350.214,503.873z"/>
			<path fill="#FFFFFF" d="M364.079,509.023c-0.762,0.176-1.553,0.264-2.373,0.264c-3.281,0-4.922-1.597-4.922-4.79
				c0-2.959,1.641-4.438,4.922-4.438c0.82,0,1.611,0.089,2.373,0.265v1.846c-0.762-0.176-1.494-0.264-2.197-0.264
				c-1.846,0-2.769,0.864-2.769,2.593c0,1.963,0.923,2.944,2.769,2.944c0.703,0,1.437-0.089,2.197-0.265V509.023z"/>
			<path fill="#FFFFFF" d="M364.585,498.564h1.723l0.353,1.493h2.32v1.847h-2.065v4.245c0,0.86,0.372,1.292,1.116,1.292h0.949v1.846
				h-2.074c-1.547,0-2.32-0.829-2.32-2.487L364.585,498.564L364.585,498.564z"/>
			<path fill="#FFFFFF" d="M371.991,496.719v1.847h-2.329v-1.847H371.991z M371.991,500.059v9.229h-2.329v-9.229H371.991z"/>
			<path fill="#FFFFFF" d="M372.189,500.059h2.461l2.24,6.451l2.329-6.451h2.461l-3.753,9.229h-2.215L372.189,500.059z"/>
			<path fill="#FFFFFF" d="M384.21,496.719v1.847h-2.329v-1.847H384.21z M384.21,500.059v9.229h-2.329v-9.229H384.21z"/>
			<path fill="#FFFFFF" d="M385.375,498.564h1.723l0.353,1.493h2.319v1.847h-2.064v4.245c0,0.86,0.372,1.292,1.116,1.292h0.948
				v1.846h-2.073c-1.547,0-2.32-0.829-2.32-2.487L385.375,498.564L385.375,498.564z"/>
			<path fill="#FFFFFF" d="M389.353,500.059h2.471l2.329,6.646l2.275-6.646h2.426l-3.831,9.501
				c-0.681,1.677-1.768,2.868-3.262,3.577l-1.125-1.591c1.031-0.451,1.781-1.187,2.25-2.206L389.353,500.059z"/>
		</g>
	</g>
	<g>
		<g>
			<path fill="#FFFFFF" d="M229.88,386.645v-12.551h5.713c2.566,0,3.85,1.122,3.85,3.366c0,1.519-0.999,2.774-2.997,3.771
				l3.981,5.433h-2.936l-3.823-5.476v-1.063c2.227-0.381,3.34-1.245,3.34-2.593c0-0.926-0.521-1.389-1.564-1.389h-3.19v10.502
				H229.88z"/>
			<path fill="#FFFFFF" d="M248.711,377.434v9.229h-1.819l-0.281-1.179c-1.061,0.785-2.186,1.179-3.375,1.179
				c-1.887,0-2.83-1.116-2.83-3.349v-5.881h2.329v5.818c0,1.02,0.445,1.529,1.336,1.529c0.756,0,1.526-0.303,2.312-0.905v-6.442
				H248.711z"/>
			<path fill="#FFFFFF" d="M252.338,374.094v12.568h-2.329v-12.568H252.338z"/>
			<path fill="#FFFFFF" d="M257.528,377.434c2.801,0,4.201,1.43,4.201,4.289c0,0.381-0.026,0.762-0.079,1.144h-6.126
				c0,1.301,0.955,1.95,2.865,1.95c0.932,0,1.863-0.088,2.795-0.264v1.846c-0.814,0.177-1.805,0.265-2.971,0.265
				c-3.346,0-5.019-1.573-5.019-4.72C253.195,378.938,254.64,377.434,257.528,377.434z M255.524,381.248h3.938v-0.07
				c0-1.277-0.645-1.916-1.934-1.916C256.298,379.262,255.63,379.924,255.524,381.248z"/>
			<path fill="#FFFFFF" d="M262.579,386.223v-1.934c1.025,0.41,2.209,0.615,3.551,0.615c1.002,0,1.503-0.322,1.503-0.967
				c0-0.615-0.337-0.924-1.011-0.924h-1.67c-1.875,0-2.813-0.923-2.813-2.769c0-1.935,1.368-2.9,4.104-2.9
				c1.16,0,2.253,0.177,3.278,0.527v1.935c-1.025-0.41-2.139-0.615-3.34-0.615c-1.26,0-1.89,0.322-1.89,0.967
				c0,0.615,0.366,0.923,1.099,0.923h1.494c2.051,0,3.076,0.923,3.076,2.769c0,1.935-1.307,2.9-3.92,2.9
				C264.759,386.75,263.604,386.574,262.579,386.223z"/>
		</g>
	</g>
</g>
<g>
	<path fill="#8B8C8B" d="M370.717,437.032h-4.647l10.373-24.438h4.87l10.597,24.438h-4.871l-2.785-6.665h-8.118l1.557-3.932h4.922
		l-3.847-9.178L370.717,437.032z"/>
	<path fill="#8B8C8B" d="M394.472,436.178v-3.76c1.993,0.798,4.295,1.196,6.904,1.196c1.947,0,2.922-0.626,2.922-1.88
		c0-1.196-0.655-1.794-1.965-1.794h-3.248c-3.646,0-5.469-1.796-5.469-5.385c0-3.76,2.66-5.64,7.98-5.64
		c2.256,0,4.381,0.342,6.374,1.025v3.76c-1.993-0.797-4.158-1.196-6.494-1.196c-2.448,0-3.674,0.627-3.674,1.88
		c0,1.196,0.712,1.795,2.138,1.795h2.903c3.988,0,5.982,1.794,5.982,5.383c0,3.761-2.541,5.641-7.623,5.641
		C398.71,437.203,396.465,436.861,394.472,436.178z"/>
	<path fill="#8B8C8B" d="M411.988,436.178v-3.76c1.993,0.798,4.295,1.196,6.903,1.196c1.947,0,2.923-0.626,2.923-1.88
		c0-1.196-0.655-1.794-1.966-1.794h-3.248c-3.646,0-5.469-1.796-5.469-5.385c0-3.76,2.66-5.64,7.981-5.64
		c2.256,0,4.381,0.342,6.374,1.025v3.76c-1.993-0.797-4.158-1.196-6.494-1.196c-2.449,0-3.674,0.627-3.674,1.88
		c0,1.196,0.712,1.795,2.137,1.795h2.904c3.987,0,5.981,1.794,5.981,5.383c0,3.761-2.541,5.641-7.623,5.641
		C416.227,437.203,413.981,436.861,411.988,436.178z"/>
	<path fill="#8B8C8B" d="M437.076,419.088c5.445,0,8.169,2.78,8.169,8.34c0,0.741-0.052,1.481-0.153,2.223H433.18
		c0,2.528,1.856,3.794,5.571,3.794c1.812,0,3.623-0.171,5.435-0.514v3.589c-1.584,0.343-3.51,0.514-5.775,0.514
		c-6.506,0-9.759-3.06-9.759-9.178C428.65,422.011,431.459,419.088,437.076,419.088z M433.18,426.505h7.656v-0.137
		c0-2.483-1.254-3.727-3.76-3.727C434.684,422.643,433.385,423.931,433.18,426.505z"/>
	<path fill="#8B8C8B" d="M448.39,416.183h3.351l0.684,2.905h4.512v3.589h-4.017v8.254c0,1.677,0.724,2.514,2.171,2.514h1.846v3.589
		h-4.032c-3.009,0-4.513-1.612-4.513-4.836L448.39,416.183L448.39,416.183z"/>
	<path fill="#8B8C8B" d="M460.012,436.178v-3.76c1.993,0.798,4.295,1.196,6.904,1.196c1.947,0,2.922-0.626,2.922-1.88
		c0-1.196-0.655-1.794-1.965-1.794h-3.248c-3.646,0-5.469-1.796-5.469-5.385c0-3.76,2.66-5.64,7.98-5.64
		c2.256,0,4.381,0.342,6.374,1.025v3.76c-1.993-0.797-4.158-1.196-6.494-1.196c-2.448,0-3.674,0.627-3.674,1.88
		c0,1.196,0.712,1.795,2.138,1.795h2.903c3.988,0,5.982,1.794,5.982,5.383c0,3.761-2.541,5.641-7.623,5.641
		C464.25,437.203,462.005,436.861,460.012,436.178z"/>
</g>
<g>
	<g>
		<path fill="#8B8C8B" d="M416.38,350.693c0-18.277,0-36.348,0-54.562c0.384,0,0.741,0,1.103,0c7.14,0,14.278,0.006,21.42-0.004
			c2.165-0.004,4.168,0.486,5.985,1.712c0.872,0.587,1.806,1.091,2.731,1.595c1.907,1.035,2.77,2.627,2.767,4.791
			c-0.02,10.994-0.011,21.986-0.011,32.98c0,1.678-0.056,3.356,0.014,5.03c0.109,2.517-0.934,4.283-3.188,5.396
			c-0.914,0.453-1.801,0.979-2.656,1.537c-1.64,1.07-3.404,1.496-5.369,1.48c-5.65-0.039-11.302,0.02-16.952,0.041
			C420.304,350.697,418.385,350.693,416.38,350.693z"/>
		<path fill="#8B8C8B" d="M361.774,301.885c15.458,0,30.859,0,46.335,0c0,14.636,0,29.25,0,43.93c-15.412,0-30.839,0-46.335,0
			C361.774,331.215,361.774,316.6,361.774,301.885z M406.619,340.969c0.006-0.148,0.012-0.301,0.016-0.447
			c-0.58-0.164-1.158-0.475-1.738-0.475c-13.483-0.027-26.966-0.023-40.448-0.02c-0.246,0-0.531-0.037-0.731,0.068
			c-0.357,0.188-0.669,0.475-0.997,0.719c0.367,0.194,0.732,0.557,1.101,0.562c13.73,0.023,27.463,0.023,41.193,0
			C405.549,341.377,406.085,341.111,406.619,340.969z M406.506,314.299c0.008-0.196,0.016-0.391,0.022-0.586
			c-0.487-0.151-0.973-0.434-1.458-0.436c-13.574-0.023-27.148-0.018-40.726-0.015c-0.307,0-0.655-0.032-0.91,0.099
			c-0.283,0.146-0.479,0.461-0.717,0.703c0.308,0.206,0.61,0.592,0.917,0.594c3.788,0.023,7.577-0.023,11.364-0.025
			c9.941-0.008,19.882,0.002,29.82-0.017C405.385,314.613,405.944,314.408,406.506,314.299z M406.558,318.028
			c-0.41-0.994-1.052-0.936-1.68-0.936c-13.416,0.001-26.833,0.001-40.25,0.005c-0.339,0-0.719-0.052-1.012,0.076
			c-0.335,0.148-0.6,0.468-0.895,0.713c0.342,0.194,0.681,0.557,1.019,0.559c13.82,0.025,27.643,0.025,41.463,0.002
			C405.639,318.447,406.076,318.184,406.558,318.028z M406.529,325.65c-0.007-0.194-0.016-0.39-0.023-0.584
			c-0.559-0.109-1.121-0.313-1.683-0.316c-13.295-0.016-26.59-0.012-39.887-0.016c-0.463,0-0.944-0.123-1.388-0.033
			c-0.304,0.063-0.556,0.391-0.831,0.6c0.206,0.23,0.371,0.545,0.628,0.667c0.288,0.138,0.661,0.136,0.997,0.136
			c13.573,0.006,27.148,0.01,40.726-0.014C405.556,326.09,406.041,325.805,406.529,325.65z M406.576,333.332
			c-0.446-1.041-1.133-0.949-1.782-0.949c-13.356,0-26.714,0-40.07,0c-0.34,0-0.718-0.057-1.012,0.07
			c-0.366,0.156-0.665,0.475-0.993,0.719c0.368,0.197,0.737,0.559,1.107,0.559c13.759,0.027,27.521,0.027,41.281,0.008
			C405.576,333.734,406.046,333.482,406.576,333.332z M406.539,306.503c-0.008-0.18-0.017-0.357-0.027-0.537
			c-0.528-0.116-1.059-0.337-1.591-0.337c-13.666-0.018-27.332-0.015-41-0.015c-0.187,0-0.409-0.064-0.55,0.015
			c-0.244,0.141-0.581,0.351-0.608,0.563c-0.025,0.198,0.27,0.572,0.49,0.637c0.466,0.132,0.978,0.151,1.468,0.153
			c13.324,0.006,26.651,0.004,39.976,0.004c0.188,0,0.389,0.043,0.559-0.01C405.688,306.842,406.113,306.663,406.539,306.503z
			 M362.501,309.926c0.017,0.17,0.031,0.344,0.045,0.516c0.507,0.127,1.013,0.365,1.521,0.365
			c13.697,0.021,27.396,0.016,41.097,0.016c0.187,0,0.416,0.064,0.552-0.021c0.233-0.146,0.549-0.372,0.57-0.59
			c0.018-0.203-0.265-0.531-0.489-0.631c-0.296-0.131-0.668-0.124-1.005-0.124c-13.607-0.005-27.215-0.01-40.818,0.015
			C363.479,309.473,362.991,309.768,362.501,309.926z M362.439,328.998c0.48,0.891,1.136,0.926,1.844,0.926
			c13.379-0.01,26.76-0.006,40.14-0.008c0.309,0,0.621-0.006,0.927-0.047c0.446-0.064,1.02-0.049,0.966-0.727
			c-0.055-0.66-0.591-0.601-1.062-0.601c-13.752,0.002-27.506-0.004-41.257,0.021C363.492,328.564,362.986,328.838,362.439,328.998z
			 M362.496,321.951c0.648,0.116,1.222,0.309,1.794,0.309c13.475,0.017,26.951,0.017,40.427,0.005c0.583,0,1.537,0.39,1.56-0.589
			c0.018-0.957-0.961-0.764-1.593-0.765c-13.539-0.013-27.076-0.007-40.614-0.018C363.433,320.894,362.893,320.969,362.496,321.951z
			 M384.562,336.188c-6.769,0-13.537-0.002-20.309,0.008c-0.589,0-1.481-0.202-1.496,0.646c-0.014,0.933,0.913,0.714,1.523,0.714
			c13.508,0.01,27.017,0.006,40.525,0.006c0.279,0,0.595,0.063,0.829-0.039c0.271-0.121,0.472-0.396,0.701-0.603
			c-0.238-0.242-0.443-0.549-0.729-0.694c-0.222-0.117-0.548-0.031-0.826-0.031C398.043,336.188,391.303,336.188,384.562,336.188z"
			/>
		<path fill="#8B8C8B" d="M359.826,351.631c-5.072,0-10.069,0-15.142,0c0-18.484,0-36.95,0-55.473c5.031,0,10.049,0,15.142,0
			C359.826,314.616,359.826,333.08,359.826,351.631z"/>
		<path fill="#8B8C8B" d="M404.431,300.061c-14.267,0-28.446,0-42.68,0c0-4.104,0-8.154,0-12.262c14.245,0,28.448,0,42.68,0
			C404.431,291.912,404.431,295.984,404.431,300.061z"/>
		<path fill="#8B8C8B" d="M361.655,283.261c0-1.148-0.038-2.204,0.011-3.254c0.045-1.009,0.552-1.499,1.562-1.625
			c0.274-0.033,0.56-0.021,0.838-0.021c12.576-0.001,25.156-0.001,37.733,0.003c0.435,0,0.877-0.008,1.3,0.073
			c0.813,0.154,1.324,0.602,1.354,1.509c0.035,1.081,0.126,2.16,0.199,3.315C390.291,283.261,376.027,283.261,361.655,283.261z"/>
		<path fill="#B5B6B5" d="M342.75,296.701c0,18.209,0,36.211,0,54.393c-1.12-0.672-2.158-1.215-3.097-1.898
			c-0.348-0.254-0.516-0.817-0.655-1.274c-0.105-0.344-0.041-0.739-0.041-1.11c0-15.256,0.016-30.514-0.024-45.769
			c-0.003-1.475,0.411-2.516,1.772-3.157C341.369,297.57,341.982,297.148,342.75,296.701z"/>
		<path fill="#8B8C8B" d="M422.474,274.494c5.567,0,11.028,0,16.557,0c0,3.714,0,7.39,0,11.139c-5.484,0-10.991,0-16.557,0
			C422.474,281.936,422.474,278.258,422.474,274.494z"/>
		<path fill="#B5B6B5" d="M414.462,354.857c-0.44,0-0.855,0-1.319,0c0-20.396,0-40.729,0-61.14c0.434,0,0.848,0,1.319,0
			C414.462,314.078,414.462,334.441,414.462,354.857z"/>
		<path fill="#B5B6B5" d="M379.288,347.695c8.688,0,17.25,0,25.894,0c0,1.359,0,2.703,0,4.166c-1.398-0.08-2.784-0.141-4.164-0.242
			c-6.062-0.459-12.126-0.936-18.189-1.396c-0.897-0.065-1.798-0.109-2.696-0.117c-0.642-0.01-0.89-0.291-0.85-0.916
			C379.312,348.727,379.288,348.262,379.288,347.695z"/>
		<path fill="#B5B6B5" d="M426.481,294.449c0-1.064-0.118-2.098,0.024-3.093c0.279-1.928-0.097-3.516-2.048-4.663
			c4.109,0,8.014,0,11.92,0c-1.699,0.764-1.339,2.302-1.349,3.696c-0.012,1.331-0.003,2.663-0.003,4.06
			C432.153,294.449,429.349,294.449,426.481,294.449z"/>
		<path fill="#B5B6B5" d="M454.895,335.797c-0.952,0-1.844,0-2.773,0c0-7.943,0-15.842,0-23.77c0.952,0,1.839,0,2.773,0
			C454.895,319.949,454.895,327.824,454.895,335.797z"/>
		<path fill="#B5B6B5" d="M426.136,352.424c2.793,0,5.54,0,8.341,0c0,2.594,0,5.154,0,7.764c-2.791,0-5.535,0-8.341,0
			C426.136,357.592,426.136,355.035,426.136,352.424z"/>
		<path fill="#B5B6B5" d="M410.046,302.568c0.979,0.285,1.395,0.781,1.391,1.818c-0.035,12.941-0.021,25.888-0.023,38.828
			c0,1.463-0.101,1.603-1.366,1.945C410.046,330.977,410.046,316.811,410.046,302.568z"/>
		<path fill="#B5B6B5" d="M421.898,364.789c-0.353-2.062,0.169-2.857,2.139-2.896c4.15-0.08,8.306-0.096,12.458-0.047
			c1.893,0.023,2.5,0.906,2.234,2.943C433.146,364.789,427.555,364.789,421.898,364.789z"/>
		<path fill="#B5B6B5" d="M456.795,309.531c0.511,0,0.965,0,1.479,0c0,9.588,0,19.135,0,28.74c-0.485,0-0.941,0-1.479,0
			C456.795,328.721,456.795,319.176,456.795,309.531z"/>
		<path fill="#B5B6B5" d="M406.986,285.789c-0.41,0.101-0.697,0.206-0.992,0.234c-0.462,0.041-0.93,0.039-1.396,0.039
			c-14.532,0.003-29.066,0.003-43.602-0.001c-0.465,0-0.938-0.001-1.388-0.09c-0.181-0.034-0.312-0.308-0.466-0.471
			c0.16-0.121,0.309-0.32,0.481-0.347c0.425-0.07,0.864-0.08,1.299-0.08c14.813-0.003,29.628-0.004,44.44,0.002
			C405.915,285.077,406.558,284.925,406.986,285.789z"/>
		<path fill="#B5B6B5" d="M369.15,347.199c0.285-0.02,0.5-0.039,0.714-0.045c0.274-0.01,0.554-0.002,0.9-0.002
			c0,4.727,0,9.389,0,14.108c-0.539,0-1.047,0-1.614,0C369.15,356.582,369.15,351.938,369.15,347.199z"/>
		<path fill="#B5B6B5" d="M437.695,273.177c-4.59,0-9.106,0-13.666,0c0.049-0.918,0.664-0.957,1.307-0.957
			c2.884,0,5.768-0.001,8.65,0c0.931,0,1.86-0.018,2.79,0.01C437.497,272.25,437.525,272.302,437.695,273.177z"/>
		<path fill="#B5B6B5" d="M372.658,363.178c0,0.361,0,0.664,0,1.047c-1.824,0-3.639,0-5.532,0c0-0.315,0-0.664,0-1.047
			C368.983,363.178,370.801,363.178,372.658,363.178z"/>
		<path d="M371.438,362.49c-1.004,0-1.961,0-2.963,0C369.168,361.461,370.75,361.459,371.438,362.49z"/>
	</g>
	<g>
		<g>
			<g>
				<path fill="#8B8C8B" d="M507.036,284.351v8.113h-3.771c-0.318-2.695-0.636-5.375-0.96-8.113H507.036z"/>
				<rect x="508.027" y="278.015" fill="#8B8C8B" width="3.04" height="19.816"/>
				<path fill="#B5B6B5" d="M506.488,305.204c-0.068-0.002-0.141,0-0.207,0c-12.766,0-25.525,0-38.289,0.006
					c-0.521,0-1.118,0.081-0.778-0.838h39.829C507.225,304.932,507.144,305.254,506.488,305.204z"/>
				<path fill="#B5B6B5" d="M496.695,330.623h-19.135c-0.321-0.926,0.31-0.805,0.812-0.805c4.102-0.002,8.212,0,12.322,0
					c1.793,0,3.587,0.016,5.383-0.004C496.677,329.805,496.898,329.994,496.695,330.623z"/>
				<path fill="#B5B6B5" d="M496.874,346.652c-0.022,0.422-0.044,0.787-0.068,1.197h-19.366c-0.03-0.41-0.051-0.773-0.087-1.197
					H496.874z"/>
				<path fill="#B5B6B5" d="M496.874,364.799c-0.25,0.168-0.496,0.475-0.747,0.479c-6.007,0.025-12.013,0.025-18.021,0
					c-0.248-0.004-0.495-0.311-0.74-0.479c0.052-0.098,0.101-0.197,0.151-0.291h19.113
					C496.712,364.602,496.793,364.701,496.874,364.799z"/>
				<path fill="#B5B6B5" d="M496.753,388.553c-0.299,0.125-0.596,0.35-0.896,0.354c-2.933,0.024-5.857,0.014-8.791,0.014
					c-2.889,0-5.785,0.013-8.681-0.014c-0.303-0.005-0.604-0.224-0.903-0.345c0.278-0.104,0.566-0.293,0.852-0.293
					c5.854-0.022,11.714-0.022,17.564,0C496.188,388.27,496.47,388.459,496.753,388.553z"/>
				<path fill="#8B8C8B" d="M496.798,363.152h-19.326c-0.25-1.935,0.063-3.807,0.729-5.623c0.218-0.582,0.441-1.176,0.775-1.688
					c1.303-2.008,1.89-4.194,1.711-6.663h12.706c0.154,1.047,0.223,2.057,0.481,3.016c0.306,1.113,0.65,2.254,1.21,3.254
					C496.428,357.844,497.009,360.363,496.798,363.152z"/>
				<path fill="#B5B6B5" d="M496.927,386.969h-19.713c0.188-2.107,0.322-4.186,0.562-6.262c0.286-2.574,1.069-5.018,1.883-7.477
					c0.697-2.099,0.929-4.355,1.39-6.656h12.387c-0.018,3.33,1.152,6.42,2.051,9.582C496.47,379.646,496.835,383.25,496.927,386.969
					z"/>
				<path fill="#8B8C8B" d="M496.127,390.178c-0.369,2.338-0.729,4.643-1.101,6.943c-0.319,1.969-0.656,3.941-0.972,5.91
					c-0.271,1.705-0.89,2.297-2.582,2.326c-6.651,0.09-3.026,0.063-8.485,0.069c-1.692,0-2.465-0.533-2.736-2.065
					c-0.746-4.201-1.418-8.418-2.113-12.631c-0.03-0.162-0.004-0.332-0.004-0.554L496.127,390.178L496.127,390.178z"/>
				<path fill="#B5B6B5" d="M496.975,345.289h-19.861c0.237-1.146,0.348-2.266,0.707-3.293c0.466-1.328,1.114-2.592,1.72-3.869
					c0.92-1.936,1.501-3.928,0.954-6.191h12.902c0.031,0.541,0.084,1.047,0.093,1.554c0.044,2.651,1.296,4.893,2.401,7.184
					C496.58,342.107,497.076,343.598,496.975,345.289z"/>
				<path fill="#8B8C8B" d="M480.688,324.039c0.053-4.733,0.043-9.46,0-14.188c-0.013-1.11-0.271-2.214-0.433-3.422h13.65
					c-0.129,1.533-0.341,3.05-0.357,4.566c-0.047,4.453-0.051,8.91,0,13.361c0.018,1.408,0.25,2.818,0.391,4.273h-13.626
					C480.447,327.074,480.671,325.553,480.688,324.039z"/>
				<path fill="#B5B6B5" d="M491.124,245.127c0,0.305-0.248,0.55-0.55,0.55h-6.982c-0.3,0-0.55-0.245-0.55-0.55
					c0-0.152,0.064-0.292,0.161-0.393c0.104-0.099,0.236-0.162,0.389-0.162h6.982C490.876,244.572,491.124,244.822,491.124,245.127z
					"/>
				<path fill="#B5B6B5" d="M503.041,303.054h-31.804c0.713-8.479,1.42-16.924,2.135-25.454h1.181
					c6.489,0,12.984,0.004,19.479-0.003c1.896,0,3.8,0,5.691-0.083c0.938-0.037,1.288,0.327,1.354,1.222
					c0.411,5.676,0.836,11.351,1.283,17.023C502.546,298.166,502.808,300.566,503.041,303.054z"/>
				<path fill="#8B8C8B" d="M500.782,249.397c0,8.632,0,17.261-0.004,25.897c0,0.336-0.029,0.67-0.052,1.05h-27.273v-25.812
					c0-0.649-0.061-1.313,0.032-1.954c0.172-1.132,0.869-1.741,2.013-1.885c0.276-0.033,0.551-0.033,0.827-0.033
					c7.184-0.004,14.364-0.004,21.547,0c0.377,0,0.758,0.021,1.136,0.075c1.1,0.157,1.632,0.72,1.745,1.835
					C500.782,248.842,500.782,249.121,500.782,249.397z"/>
			</g>
		</g>
	</g>
</g>
</svg>
