<?xml version="1.0" encoding="utf-8"?>
<!-- Generator: Adobe Illustrator 16.0.0, SVG Export Plug-In . SVG Version: 6.00 Build 0)  -->
<!DOCTYPE svg PUBLIC "-//W3C//DTD SVG 1.1//EN" "http://www.w3.org/Graphics/SVG/1.1/DTD/svg11.dtd">
<svg version="1.1" id="Capa_1" xmlns="http://www.w3.org/2000/svg" xmlns:xlink="http://www.w3.org/1999/xlink" x="0px" y="0px"
	 width="794.269px" height="664.322px" viewBox="5.116 67.838 794.269 664.322"
	 enable-background="new 5.116 67.838 794.269 664.322" xml:space="preserve">
<g>
	<path fill="none" stroke="#C2C4B7" stroke-width="3" stroke-miterlimit="10" stroke-dasharray="5" d="M212.119,304.2
		c16.85-45.424,39.767-93.773,86.73-116.692"/>
	<path fill="none" stroke="#C2C4B7" stroke-width="3" stroke-miterlimit="10" stroke-dasharray="5" d="M360.051,352.987
		c4.139-2.281,5.874-7.898,8.722-11.615c5.845-7.627,13.679-16.041,20.648-22.653c16.567-15.71,32.951-31.59,51.109-45.827
		c19.924-15.621,43.76-28.278,66.411-39.349c12.212-5.969,28.382-8.065,39.526-15.127"/>
	<path fill="none" stroke="#C2C4B7" stroke-width="3" stroke-miterlimit="10" stroke-dasharray="5" d="M471.176,421.676
		c4.024-1.654,10.468-2.076,15.307-2.939c17.79-3.18,36.269-5.897,54.505-6.221c44.003-0.782,88.024-0.652,132.046-0.652"/>
	<path fill="none" stroke="#C2C4B7" stroke-width="3" stroke-miterlimit="10" stroke-dasharray="5" d="M353.425,437.095
		c7.38,5.718,13.115,17.618,18.288,25.173c6.056,8.841,12.403,17.726,19.403,25.829c16.433,19.033,39.8,31.864,61.686,44.146
		c20.283,11.384,40.503,20.714,61.345,30.135c5.402,2.442,10.727,4.195,15.992,5.748c5.141,1.513,11.271,1.363,16.031,3.54"/>
	<path fill="none" stroke="#C2C4B7" stroke-width="3" stroke-miterlimit="10" stroke-dasharray="5" d="M194.97,457.421
		c-2.094,5.066,2.659,17.072,4.381,22.826c3.126,10.447,7.02,20.652,11.53,30.581c8.427,18.552,20.131,35.396,30.476,52.85
		c9.386,15.838,20.56,32.048,32.92,45.803c6.079,6.764,14.667,15.885,23.021,18.959"/>
	<g>
		<path fill="#D0E1C5" stroke="#FFFFFF" stroke-width="9" stroke-miterlimit="10" d="M376.785,657.282
			c0,38.868-31.494,70.378-70.346,70.378c-38.863,0-70.375-31.51-70.375-70.378c0-38.871,31.51-70.38,70.375-70.38
			C345.291,586.902,376.785,618.411,376.785,657.282z"/>
		<g>
			<path fill="#3D3D3D" d="M329.403,615.195c0-3.617-2.93-6.551-6.539-6.551h-32.847c-3.617,0-6.546,2.934-6.546,6.551v84.178
				c0,3.615,2.929,6.544,6.546,6.544h32.847c3.609,0,6.539-2.929,6.539-6.544V615.195z M311.244,617.23
				c0,0.572-0.462,1.041-1.032,1.041h-7.007c-0.574,0-1.039-0.469-1.039-1.041v-0.063c0-0.571,0.464-1.031,1.039-1.031h7.007
				c0.57,0,1.032,0.46,1.032,1.031V617.23z M326.202,692.023h-38.991v-69.479h38.991V692.023z"/>
			<rect x="287.22" y="622.545" fill="#FFFFFF" width="38.982" height="69.479"/>
			<path fill="#EF8260" d="M295.851,629.674c1.201-1.195,2.859-1.943,4.692-1.943v6.646L295.851,629.674z M301.302,629.627v6.646
				l-4.694-4.697c-1.202,1.205-1.943,2.864-1.943,4.697c0,3.668,2.972,6.641,6.638,6.641c3.664,0,6.635-2.973,6.635-6.641
				C307.938,632.604,304.966,629.627,301.302,629.627z"/>
			<g>
				<rect x="289.264" y="645.452" fill="#EF8260" width="34.893" height="1.702"/>
				<rect x="289.264" y="658.535" fill="#FDD47C" width="34.893" height="1.695"/>
				<rect x="289.264" y="663.253" fill="#EF8260" width="34.893" height="1.696"/>
				<rect x="289.264" y="667.968" fill="#96C67A" width="34.893" height="1.7"/>
				<rect x="289.264" y="672.688" fill="#EF8260" width="34.893" height="1.697"/>
				<rect x="289.264" y="646.543" fill="#96C67A" width="34.893" height="8.447"/>
			</g>
		</g>
	</g>
	<g>
		<circle fill="#D0E1C5" stroke="#FFFFFF" stroke-width="9" stroke-miterlimit="10" cx="579.755" cy="189.267" r="70.379"/>
		<g>
			<g>
				<path fill="#F0EFED" d="M543.741,158.688c0.573-1.967,1.587-3.673,3.047-5.019c1.021-0.942,2.236-1.733,3.487-2.347
					c1.604-0.791,3.39-1.183,5.189-1.082c1.13,0.057,2.279,0.328,3.355,0.694c0.937,0.318,1.615,0.209,2.331-0.458
					c1.781-1.659,3.818-2.959,5.963-4.117c2.3-1.242,4.715-2.188,7.248-2.784c1.639-0.386,3.315-0.649,4.991-0.821
					c1.536-0.158,3.1-0.218,4.64-0.14c1.589,0.086,3.185,0.326,4.754,0.616c3.349,0.618,6.511,1.797,9.435,3.528
					c1.791,1.06,3.48,2.302,5.141,3.565c1.781,1.359,3.235,3.062,4.616,4.821c0.116,0.148,0.535,0.14,0.791,0.086
					c1.302-0.263,2.589-0.737,3.9-0.824c2.92-0.189,5.57,0.733,7.909,2.485c2.085,1.564,3.485,3.622,4.173,6.144
					c0.238,0.877,0.447,1.776,0.538,2.68c0.041,0.398-0.144,0.903-0.396,1.232c-2.022,2.646-4.532,4.748-7.479,6.265
					c-2.021,1.041-4.177,1.803-6.464,2.031c-1.415,0.14-2.836,0.281-4.253,0.281c-20,0.019-39.998,0.021-59.998,0.004
					c-2.938-0.002-5.561-1.035-7.889-2.801c-2.025-1.536-3.489-3.515-4.323-5.922c-0.176-0.513-0.201-1.144-0.094-1.68
					c0.503-2.563,1.939-4.497,4.245-5.678c0.852-0.433,1.869-0.587,2.832-0.737C542.156,158.596,542.914,158.688,543.741,158.688z"
					/>
				<path fill="#EFEFED" d="M574.119,175.955c-9.156,0-18.307-0.004-27.46-0.014c-2.879-0.002-5.618-0.971-8.136-2.885
					c-2.11-1.604-3.611-3.659-4.463-6.115c-0.192-0.559-0.235-1.269-0.109-1.899c0.525-2.678,2.068-4.737,4.464-5.961
					c0.885-0.452,1.899-0.612,2.877-0.766l0.075-0.012c0.271-0.043,0.562-0.062,0.916-0.062c0.234,0,0.469,0.008,0.711,0.018
					c0.146,0.004,0.291,0.008,0.441,0.01c0.615-1.942,1.649-3.589,3.073-4.903c0.987-0.912,2.229-1.748,3.583-2.413
					c1.691-0.836,3.562-1.228,5.396-1.127c1.074,0.058,2.237,0.3,3.465,0.717c0.823,0.279,1.316,0.193,1.918-0.37
					c1.589-1.477,3.509-2.801,6.047-4.175c2.38-1.287,4.852-2.238,7.35-2.823c1.568-0.37,3.268-0.649,5.048-0.83
					c1.656-0.172,3.239-0.218,4.702-0.142c1.395,0.074,2.879,0.265,4.807,0.622c3.4,0.624,6.618,1.83,9.571,3.575
					c1.816,1.078,3.563,2.365,5.179,3.593c1.838,1.402,3.324,3.156,4.653,4.846c0.062,0.012,0.273,0.016,0.421-0.015
					c0.446-0.088,0.904-0.209,1.347-0.322c0.844-0.22,1.719-0.448,2.607-0.507c2.903-0.191,5.668,0.676,8.184,2.565
					c2.16,1.618,3.613,3.76,4.326,6.365c0.203,0.744,0.447,1.727,0.552,2.746c0.056,0.544-0.203,1.16-0.482,1.525
					c-2.049,2.688-4.612,4.836-7.617,6.382c-2.295,1.181-4.457,1.86-6.611,2.076c-1.395,0.138-2.836,0.284-4.292,0.284
					C595.812,175.949,584.965,175.955,574.119,175.955z M542.283,159.068c-0.311,0-0.562,0.015-0.786,0.051l-0.076,0.013
					c-0.916,0.144-1.862,0.29-2.633,0.686c-2.19,1.119-3.546,2.93-4.026,5.388c-0.099,0.489-0.066,1.037,0.078,1.462
					c0.797,2.302,2.203,4.228,4.182,5.729c2.374,1.803,4.943,2.715,7.641,2.719c20,0.015,39.998,0.015,59.998-0.004
					c1.415,0,2.838-0.142,4.21-0.279c2.049-0.206,4.114-0.854,6.318-1.988c2.893-1.493,5.362-3.557,7.339-6.15
					c0.207-0.273,0.341-0.673,0.312-0.94c-0.097-0.955-0.33-1.893-0.522-2.61c-0.663-2.425-2.018-4.415-4.026-5.92
					c-2.359-1.77-4.933-2.583-7.635-2.405c-0.812,0.054-1.61,0.261-2.454,0.483c-0.453,0.119-0.92,0.238-1.39,0.334
					c-0.135,0.027-0.288,0.041-0.435,0.041c-0.361,0-0.618-0.094-0.766-0.281c-1.305-1.661-2.759-3.386-4.538-4.743
					c-1.599-1.216-3.318-2.487-5.102-3.542c-2.865-1.696-5.996-2.867-9.3-3.475c-1.894-0.351-3.341-0.538-4.702-0.608
					c-1.419-0.076-2.957-0.031-4.572,0.138c-1.745,0.179-3.408,0.452-4.942,0.811c-2.427,0.569-4.832,1.493-7.146,2.748
					c-2.473,1.337-4.341,2.624-5.877,4.053c-0.822,0.764-1.618,0.933-2.746,0.544c-1.154-0.392-2.245-0.618-3.243-0.674
					c-1.693-0.09-3.42,0.273-4.985,1.043c-1.287,0.632-2.458,1.423-3.391,2.281c-1.385,1.275-2.367,2.901-2.931,4.83l-0.086,0.3
					h-0.311c-0.268,0-0.523-0.01-0.778-0.021C542.733,159.074,542.507,159.068,542.283,159.068z"/>
			</g>
			<g>
				<path fill="#D8DDDF" d="M625.294,166.489c0,5.234,0,10.803,0,16.367c0,0.265-0.037,0.534,0.008,0.791
					c0.316,1.902-0.675,3.294-1.76,4.666c-2.205,2.786-5.112,4.393-8.554,5.059c-0.969,0.187-1.971,0.29-2.957,0.292
					c-21.579,0.017-43.16,0.021-64.741-0.002c-3.354-0.002-6.439-1.01-9.102-3.099c-1.635-1.282-2.896-2.898-3.851-4.745
					c-0.103-0.201-0.164-0.449-0.164-0.675c-0.011-6.216-0.007-12.429-0.007-18.649c0-0.058,0.027-0.111,0.064-0.267
					c0.844,2.088,2.077,3.805,3.697,5.214c1.816,1.577,3.888,2.733,6.301,3.07c1.474,0.203,2.973,0.292,4.464,0.293
					c19.855,0.017,39.71,0.027,59.565-0.002c2.895-0.004,5.683-0.676,8.322-1.879c2.156-0.981,4.107-2.269,5.828-3.916
					C623.38,168.078,624.43,167.243,625.294,166.489z M563.754,183.742c3.115,0,6.227,0.006,9.339,0
					c1.182-0.002,1.881-0.698,1.896-1.871c0.002-0.288,0.01-0.573-0.003-0.86c-0.041-1-0.745-1.723-1.749-1.727
					c-6.251-0.004-12.501-0.01-18.752,0.019c-0.398,0.002-0.831,0.254-1.188,0.489c-0.808,0.525-0.571,1.39-0.581,2.156
					c-0.013,1.042,0.741,1.795,1.771,1.795C557.575,183.746,560.663,183.742,563.754,183.742z M563.84,189.218
					c3.113,0,6.227,0,9.339-0.006c0.23,0,0.472-0.033,0.69-0.103c1.144-0.368,1.228-1.587,1.094-2.628
					c-0.107-0.842-0.943-1.436-1.926-1.436c-6.132-0.008-12.261-0.004-18.391-0.006c-0.685,0-1.309,0.211-1.625,0.811
					c-0.226,0.431-0.282,0.981-0.298,1.48c-0.041,1.252,0.608,1.883,1.848,1.887C557.661,189.218,560.752,189.218,563.84,189.218z
					 M600.199,181.298c-1.131,0.002-1.928,0.778-1.926,1.879c0.002,1.027,0.867,1.899,1.891,1.858
					c1.124-0.047,1.902-0.899,1.853-1.979C601.972,182.047,601.232,181.294,600.199,181.298z M584.645,184.897
					c0.887,0.185,1.753-0.671,1.809-1.755c0.047-0.93-0.934-1.848-1.838-1.842c-1.033,0-1.856,0.819-1.871,1.813
					C582.729,183.99,583.571,185.093,584.645,184.897z M592.324,184.897c1.087-0.004,1.789-0.721,1.777-1.817
					c-0.008-0.963-0.855-1.795-1.822-1.783c-0.989,0.013-1.771,0.848-1.769,1.889C590.516,184.216,591.24,184.9,592.324,184.897z"/>
				<path fill="#D8DDDF" d="M576.877,194.092c-9.862,0-19.725-0.008-29.587-0.017c-3.516-0.004-6.666-1.078-9.354-3.187
					c-1.61-1.264-2.944-2.909-3.962-4.882c-0.136-0.261-0.212-0.577-0.212-0.864c-0.01-6.064-0.008-12.136-0.004-18.201v-0.448
					c0-0.086,0.02-0.16,0.037-0.234c0.01-0.031,0.02-0.069,0.032-0.125l0.292-1.279l0.493,1.213
					c0.818,2.021,1.993,3.674,3.587,5.058c1.965,1.705,3.957,2.678,6.086,2.974c1.38,0.191,2.865,0.289,4.409,0.289
					c10.487,0.01,20.979,0.017,31.47,0.017c0.011,0,0.021,0,0.031,0c9.994,0,19.175-0.004,28.062-0.017
					c2.731-0.002,5.478-0.622,8.156-1.844c2.156-0.981,4.076-2.275,5.713-3.838c0.688-0.659,1.398-1.259,2.082-1.838
					c0.283-0.238,0.559-0.47,0.814-0.69l0.685-0.595v17.273c0,0.088-0.007,0.181-0.011,0.271c-0.006,0.165-0.013,0.318,0.011,0.448
					c0.339,2.031-0.68,3.521-1.842,4.994c-2.177,2.75-5.136,4.5-8.802,5.206c-1.021,0.197-2.041,0.3-3.032,0.3
					C600.316,194.083,588.594,194.092,576.877,194.092z M534.581,167.937c0,5.735-0.002,11.47,0.004,17.206
					c0,0.156,0.048,0.339,0.123,0.484c0.959,1.867,2.218,3.421,3.733,4.612c2.544,1.991,5.522,3.005,8.851,3.009
					c21.581,0.026,43.16,0.016,64.739,0c0.939,0,1.909-0.095,2.877-0.282c3.466-0.669,6.263-2.322,8.312-4.911
					c1.085-1.372,1.957-2.645,1.677-4.339c-0.037-0.22-0.028-0.429-0.022-0.626c0.004-0.078,0.008-0.158,0.008-0.234v-15.472
					c-0.045,0.041-0.09,0.078-0.14,0.117c-0.673,0.575-1.375,1.164-2.043,1.803c-1.704,1.628-3.702,2.973-5.944,3.992
					c-2.786,1.271-5.643,1.916-8.493,1.92c-8.891,0.012-18.07,0.017-28.064,0.017c-0.011,0-0.021,0-0.031,0
					c-10.49,0-20.98-0.006-31.472-0.017c-1.581,0-3.102-0.101-4.521-0.298c-2.294-0.316-4.423-1.353-6.514-3.166
					C536.395,170.653,535.376,169.395,534.581,167.937z M567.123,189.631h-12.552c-0.744,0-1.32-0.206-1.711-0.61
					c-0.389-0.4-0.573-0.974-0.551-1.7c0.015-0.46,0.065-1.127,0.348-1.664c0.354-0.675,1.041-1.031,1.984-1.031h4.355h5.272
					c2.923,0,5.845,0,8.767,0.002c1.22,0.002,2.201,0.76,2.335,1.801c0.269,2.084-0.6,2.821-1.376,3.074
					c-0.244,0.08-0.527,0.123-0.817,0.123C571.162,189.631,569.144,189.631,567.123,189.631z M563.84,188.803h3.283
					c2.021,0,4.039,0,6.056-0.004c0.203-0.002,0.396-0.029,0.563-0.08c0.259-0.086,1.05-0.343,0.812-2.183
					c-0.078-0.616-0.73-1.078-1.518-1.078c-2.922-0.002-5.844-0.002-8.766-0.002h-5.273l-4.352-0.002
					c-0.631,0-1.052,0.197-1.26,0.587c-0.2,0.388-0.239,0.928-0.252,1.304c-0.015,0.495,0.092,0.867,0.316,1.097
					c0.23,0.24,0.606,0.359,1.119,0.361H563.84z M600.095,185.448c-0.002,0-0.002,0-0.002,0c-1.208,0-2.229-1.042-2.233-2.269
					c0-0.645,0.235-1.23,0.662-1.651c0.431-0.413,1.021-0.643,1.679-0.645h0.006c1.231,0,2.169,0.906,2.227,2.154
					c0.024,0.63-0.181,1.222-0.588,1.666c-0.416,0.452-1.006,0.719-1.661,0.746C600.154,185.448,600.123,185.448,600.095,185.448z
					 M600.205,181.298l-0.006,0.413c-0.443,0.002-0.825,0.142-1.102,0.411c-0.271,0.267-0.413,0.628-0.413,1.055
					c0.003,0.783,0.647,1.446,1.407,1.446l0.057-0.002c0.433-0.019,0.82-0.187,1.088-0.479c0.255-0.277,0.386-0.657,0.369-1.068
					c-0.038-0.803-0.611-1.363-1.4-1.363V181.298z M584.89,185.335c-0.083,0-0.167-0.006-0.249-0.021
					c-0.585,0.082-1.175-0.135-1.624-0.595c-0.432-0.438-0.693-1.058-0.684-1.612c0.017-1.224,1.041-2.222,2.279-2.224
					c0.571,0,1.183,0.288,1.632,0.762c0.419,0.441,0.646,0.994,0.62,1.518C586.803,184.362,585.918,185.335,584.89,185.335z
					 M584.651,184.475l0.077,0.019c0.629,0.129,1.27-0.552,1.311-1.37c0.015-0.302-0.129-0.632-0.393-0.912
					c-0.294-0.306-0.688-0.499-1.03-0.499c-0.795,0-1.447,0.632-1.46,1.404c-0.006,0.341,0.17,0.742,0.446,1.025
					c0.165,0.168,0.437,0.363,0.789,0.363c0.061,0,0.117-0.004,0.18-0.016L584.651,184.475z M592.324,185.311
					c-1.309,0-2.223-0.873-2.227-2.119c-0.008-1.279,0.951-2.294,2.176-2.308h0.023c1.195,0,2.21,1.004,2.22,2.191
					c0.004,0.655-0.205,1.213-0.604,1.62C593.516,185.095,592.97,185.309,592.324,185.311z M592.298,181.298l-0.013,0.413
					c-0.769,0.012-1.367,0.657-1.361,1.474c0.002,0.801,0.538,1.298,1.394,1.298c0.425,0,0.771-0.131,1.008-0.37
					c0.242-0.244,0.37-0.604,0.366-1.033c-0.01-0.729-0.655-1.37-1.394-1.37V181.298z M569.464,184.159l-5.71-0.002l-5.674,0.002
					c-1.199,0-2.396-0.002-3.596-0.002c-0.611,0-1.17-0.226-1.572-0.632c-0.4-0.407-0.616-0.969-0.612-1.581
					c0.004-0.138-0.004-0.279-0.01-0.419c-0.033-0.678-0.072-1.521,0.78-2.08c0.418-0.273,0.913-0.552,1.412-0.557
					c3.257-0.014,6.814-0.022,10.872-0.022c2.626,0,5.256,0.006,7.882,0.006c1.205,0.002,2.112,0.893,2.161,2.121
					c0.012,0.257,0.007,0.515,0.005,0.764l-0.005,0.124c-0.015,1.402-0.898,2.275-2.304,2.277
					C571.885,184.159,570.674,184.159,569.464,184.159z M563.754,183.329l5.71,0.002c1.21,0,2.421,0,3.629-0.002
					c0.944-0.002,1.473-0.52,1.482-1.46l0.002-0.124c0.002-0.25,0.004-0.484-0.002-0.721c-0.033-0.791-0.571-1.324-1.341-1.324
					c-2.624-0.002-5.253-0.008-7.879-0.008c-4.059,0-7.612,0.008-10.867,0.024c-0.324,0-0.773,0.294-0.967,0.419
					c-0.437,0.286-0.439,0.678-0.406,1.349c0.008,0.158,0.012,0.316,0.012,0.466c-0.004,0.392,0.128,0.745,0.374,0.992
					c0.244,0.249,0.596,0.386,0.983,0.386c1.198,0,2.396,0.002,3.596,0.002L563.754,183.329z"/>
			</g>
			<g>
				<path fill="#C4C7C9" d="M563.766,183.456c-3.019,0-6.031,0.002-9.049,0c-1.138,0-1.725-0.575-1.717-1.696
					c0.004-0.4-0.028-0.83,0.104-1.193c0.237-0.653,0.777-0.998,1.483-0.998c6.177-0.002,12.354-0.006,18.532,0.006
					c0.946,0,1.555,0.659,1.581,1.622c0.041,1.349-0.275,1.959-1.177,2.204c-0.227,0.062-0.473,0.055-0.708,0.055
					C569.799,183.458,566.782,183.456,563.766,183.456z"/>
				<path fill="#C4C6C9" d="M557.733,183.871h-3.018c-0.688,0-1.222-0.189-1.592-0.563c-0.361-0.364-0.542-0.885-0.538-1.553
					c0.003-0.07,0-0.142,0-0.213c-0.004-0.351-0.006-0.751,0.128-1.117c0.296-0.807,0.979-1.269,1.87-1.269
					c6.179-0.004,12.354-0.006,18.534,0.004c1.155,0,1.959,0.813,1.996,2.022c0.032,1.086-0.117,2.249-1.484,2.616
					c-0.257,0.07-0.516,0.07-0.741,0.07h-0.072c-1.574,0.002-3.149,0.002-4.723,0.002h-4.329L557.733,183.871L557.733,183.871z
					 M563.892,179.978c-3.101,0-6.2,0.004-9.305,0.006c-0.38,0-0.879,0.125-1.099,0.725c-0.082,0.228-0.08,0.52-0.077,0.827
					c0,0.078,0.004,0.152,0,0.226c-0.003,0.438,0.101,0.762,0.302,0.967c0.205,0.209,0.544,0.314,1.004,0.314h3.018h6.031h4.329
					c1.572,0,3.147,0,4.722,0h0.051c0.208,0,0.397,0,0.551-0.041c0.607-0.167,0.912-0.489,0.873-1.795
					c-0.025-0.762-0.462-1.22-1.173-1.22C570.041,179.982,566.967,179.978,563.892,179.978z"/>
			</g>
			<g>
				<path fill="#C4C7C9" d="M563.851,188.929c-3.041,0-6.079-0.025-9.118,0.014c-1.109,0.017-1.679-0.653-1.739-1.436
					c-0.119-1.509,0.44-2.004,1.608-2.178c0.094-0.013,0.193,0,0.288,0c5.983,0,11.97-0.004,17.95,0c1.016,0,1.721,0.48,1.844,1.3
					c0.137,0.903-0.082,1.946-0.957,2.193c-0.243,0.068-0.503,0.104-0.757,0.104C569.931,188.933,566.89,188.929,563.851,188.929z"
					/>
				<path fill="#C4C6C9" d="M554.696,189.36c-1.199,0-2.029-0.717-2.115-1.824c-0.129-1.607,0.456-2.39,1.959-2.614
					c0.088-0.014,0.183-0.012,0.277-0.01l0.071,0.002l9.537-0.002c2.807,0,5.608,0.002,8.413,0.002c1.236,0,2.099,0.635,2.253,1.653
					c0.164,1.101-0.16,2.347-1.255,2.651c-0.277,0.078-0.579,0.119-0.868,0.119c-1.676,0.006-3.352,0.006-5.026,0.006h-4.093
					c-0.854,0-1.707-0.002-2.561-0.006c-0.854,0-1.705,0-2.557,0c-1.563,0-2.836,0.006-3.996,0.019L554.696,189.36z M554.713,185.74
					c-0.017,0-0.033,0-0.05,0.002c-0.938,0.14-1.361,0.433-1.261,1.731c0.054,0.663,0.536,1.058,1.294,1.058h0.03
					c1.164-0.017,2.438-0.023,4.007-0.023c0.854,0,1.706,0.002,2.561,0.004c0.851,0.002,1.704,0.002,2.558,0.002l4.092,0.004
					c1.676,0,3.352-0.004,5.026-0.006c0.218,0,0.441-0.031,0.648-0.088c0.694-0.195,0.739-1.181,0.657-1.733
					c-0.127-0.854-1.045-0.945-1.437-0.945c-2.805-0.004-5.606-0.004-8.413-0.004h-9.537c-0.034,0-0.069,0-0.104-0.002H554.713z"/>
			</g>
			<g>
				<path fill="#3EB29D" d="M601.723,183.072c0.01,0.879-0.708,1.653-1.554,1.678c-0.758,0.024-1.596-0.785-1.612-1.555
					c-0.015-0.881,0.694-1.591,1.605-1.612C601,181.565,601.713,182.249,601.723,183.072z"/>
				<path fill="#3BB29C" d="M600.136,185.165c-0.984,0-1.972-0.971-1.989-1.961c-0.021-1.115,0.862-2.008,2.009-2.033h0.043
					c1.056,0,1.924,0.85,1.938,1.897c0.014,1.103-0.887,2.063-1.955,2.096L600.136,185.165L600.136,185.165z M600.197,181.998
					c-0.71,0.015-1.236,0.538-1.227,1.189c0.011,0.528,0.642,1.15,1.164,1.15h0.02c0.62-0.021,1.162-0.607,1.153-1.261
					C601.304,182.491,600.793,181.998,600.197,181.998z"/>
			</g>
			<g>
				<path fill="#9ECDC7" d="M586.056,183.167c0,0.91-0.54,1.446-1.449,1.442c-0.851-0.002-1.547-0.657-1.57-1.481
					c-0.021-0.725,0.768-1.511,1.548-1.54C585.337,181.559,586.054,182.327,586.056,183.167z"/>
				<path fill="#9ECDC6" d="M584.612,185.023h-0.007c-1.082-0.002-1.952-0.83-1.981-1.881c-0.026-0.957,0.935-1.932,1.942-1.969
					l0.06-0.002c0.962,0,1.84,0.951,1.843,1.996c0.002,0.555-0.175,1.023-0.501,1.354
					C585.639,184.849,585.171,185.023,584.612,185.023z M584.626,181.998c-0.581,0.023-1.192,0.618-1.178,1.119
					c0.018,0.604,0.526,1.076,1.16,1.078l0.004,0.413v-0.413c0.339,0,0.598-0.088,0.771-0.261c0.173-0.172,0.259-0.431,0.257-0.768
					C585.639,182.577,585.138,181.998,584.626,181.998z"/>
			</g>
			<g>
				<path fill="#3DB29D" d="M592.314,184.608c-0.811,0.004-1.515-0.664-1.519-1.436c-0.004-0.826,0.698-1.575,1.493-1.589
					c0.706-0.012,1.546,0.784,1.52,1.501C593.776,183.951,593.175,184.643,592.314,184.608z"/>
				<path fill="#3BB19D" d="M592.378,185.025c-0.026,0-0.054-0.002-0.08-0.002c-0.002,0-0.002,0-0.002,0
					c-1.026,0-1.91-0.846-1.912-1.846c-0.002-1.049,0.884-1.987,1.899-2.006l0,0c0.484,0,0.992,0.242,1.387,0.653
					c0.365,0.384,0.568,0.846,0.55,1.275C594.179,184.195,593.389,185.025,592.378,185.025z M592.304,181.998
					c-0.579,0.008-1.094,0.571-1.094,1.175c0.002,0.544,0.515,1.022,1.101,1.022h0.067c0.642,0,0.998-0.566,1.018-1.127
					c0.008-0.202-0.109-0.452-0.32-0.674C592.842,182.154,592.54,181.998,592.304,181.998z"/>
			</g>
			<g>
				<path fill="#D8DDDF" d="M625.294,187.674c0,5.227,0,10.781,0,16.34c0,0.265-0.037,0.532,0.008,0.791
					c0.316,1.896-0.675,3.286-1.76,4.651c-2.205,2.787-5.112,4.393-8.554,5.06c-0.969,0.187-1.971,0.288-2.957,0.292
					c-21.579,0.014-43.16,0.022-64.741-0.004c-3.354-0.002-6.439-1.008-9.102-3.097c-1.635-1.279-2.896-2.893-3.851-4.739
					c-0.103-0.202-0.164-0.45-0.164-0.674c-0.011-6.201-0.007-12.407-0.007-18.615c0-0.055,0.027-0.115,0.064-0.267
					c0.844,2.086,2.077,3.8,3.697,5.202c1.816,1.577,3.888,2.733,6.301,3.068c1.474,0.201,2.973,0.292,4.464,0.292
					c19.855,0.021,39.71,0.022,59.565,0c2.895-0.002,5.683-0.676,8.322-1.877c2.156-0.979,4.107-2.265,5.828-3.909
					C623.38,189.263,624.43,188.423,625.294,187.674z M563.754,204.899c3.115,0,6.227,0.002,9.339-0.002
					c1.182,0,1.881-0.698,1.896-1.864c0.002-0.288,0.01-0.577-0.003-0.86c-0.041-1-0.745-1.723-1.749-1.723
					c-6.251-0.008-12.501-0.015-18.752,0.016c-0.398,0-0.831,0.253-1.188,0.487c-0.808,0.526-0.571,1.388-0.581,2.152
					c-0.013,1.041,0.741,1.792,1.771,1.795C557.575,204.901,560.663,204.899,563.754,204.899z M563.84,210.359
					c3.113,0,6.227,0.002,9.339-0.004c0.23,0,0.472-0.031,0.69-0.099c1.144-0.372,1.228-1.587,1.094-2.624
					c-0.107-0.844-0.943-1.436-1.926-1.436c-6.132-0.008-12.261,0-18.391-0.004c-0.685,0-1.309,0.211-1.625,0.807
					c-0.226,0.431-0.282,0.981-0.298,1.482c-0.041,1.247,0.608,1.877,1.848,1.877C557.661,210.361,560.752,210.359,563.84,210.359z
					 M600.199,202.455c-1.131,0.004-1.928,0.78-1.926,1.875c0.002,1.026,0.867,1.899,1.891,1.854
					c1.124-0.043,1.902-0.895,1.853-1.973C601.972,203.205,601.232,202.455,600.199,202.455z M584.645,206.047
					c0.887,0.187,1.753-0.666,1.809-1.748c0.047-0.932-0.934-1.844-1.838-1.842c-1.033,0.002-1.856,0.819-1.871,1.811
					C582.729,205.143,583.571,206.248,584.645,206.047z M592.324,206.047c1.087-0.002,1.789-0.717,1.777-1.815
					c-0.008-0.959-0.855-1.787-1.822-1.776c-0.989,0.013-1.771,0.85-1.769,1.887C590.516,205.365,591.24,206.051,592.324,206.047z"
					/>
				<path fill="#D8DDDF" d="M576.998,215.233c-9.903,0-19.805-0.006-29.708-0.016c-3.516-0.004-6.666-1.078-9.355-3.187
					c-1.609-1.267-2.943-2.903-3.961-4.873c-0.136-0.265-0.212-0.577-0.212-0.865c-0.01-6.053-0.008-12.111-0.004-18.169v-0.446
					c0-0.088,0.018-0.158,0.037-0.234c0.01-0.033,0.02-0.074,0.032-0.125l0.292-1.277l0.493,1.211
					c0.818,2.021,1.992,3.67,3.587,5.052c1.965,1.7,3.957,2.669,6.086,2.965c1.389,0.193,2.871,0.29,4.409,0.29
					c19.855,0.016,39.71,0.026,59.563,0c2.735-0.004,5.479-0.622,8.154-1.84c2.158-0.984,4.078-2.271,5.715-3.831
					c0.686-0.655,1.392-1.253,2.078-1.83c0.283-0.24,0.558-0.475,0.818-0.7l0.685-0.589v17.243c0,0.086-0.007,0.179-0.011,0.27
					c-0.006,0.165-0.013,0.318,0.011,0.452c0.339,2.023-0.68,3.509-1.842,4.979c-2.18,2.748-5.136,4.499-8.802,5.204
					c-1.015,0.199-2.036,0.3-3.032,0.302C600.355,215.228,588.676,215.233,576.998,215.233z M534.581,189.12
					c0,5.726-0.002,11.453,0.004,17.173c0,0.16,0.048,0.343,0.123,0.485c0.959,1.864,2.218,3.413,3.733,4.602
					c2.544,1.996,5.52,3.008,8.851,3.012c21.581,0.024,43.16,0.017,64.739,0c0.945,0,1.914-0.099,2.877-0.281
					c3.466-0.669,6.261-2.322,8.312-4.912c1.085-1.368,1.957-2.639,1.677-4.331c-0.037-0.216-0.028-0.434-0.022-0.623
					c0.004-0.078,0.008-0.158,0.008-0.232v-15.444c-0.049,0.041-0.096,0.082-0.144,0.123c-0.676,0.571-1.374,1.158-2.039,1.796
					c-1.704,1.622-3.702,2.965-5.944,3.983c-2.782,1.263-5.641,1.91-8.493,1.914c-19.855,0.027-39.71,0.021-59.567,0
					c-1.573,0-3.095-0.099-4.521-0.295c-2.294-0.32-4.426-1.354-6.514-3.162C536.395,191.833,535.376,190.579,534.581,189.12z
					 M567.277,210.771h-5.756h-2.316h-4.634c-0.744,0-1.32-0.206-1.711-0.606c-0.389-0.4-0.573-0.971-0.55-1.7
					c0.014-0.456,0.064-1.121,0.347-1.659c0.354-0.673,1.043-1.026,1.989-1.026h9.194c3.065,0,6.13,0,9.195,0.002
					c1.22,0.002,2.201,0.756,2.335,1.792c0.269,2.084-0.6,2.819-1.376,3.07c-0.244,0.078-0.527,0.125-0.817,0.125
					C571.212,210.771,569.244,210.771,567.277,210.771z M563.84,209.948h3.438c1.967,0,3.933-0.002,5.9-0.008
					c0.203,0,0.398-0.025,0.563-0.078c0.259-0.086,1.05-0.341,0.812-2.181c-0.078-0.61-0.73-1.07-1.518-1.074
					c-3.065,0-6.132-0.002-9.195-0.002h-9.195c-0.628,0-1.051,0.195-1.259,0.589c-0.2,0.38-0.239,0.922-0.252,1.298
					c-0.015,0.493,0.092,0.862,0.316,1.097c0.23,0.236,0.606,0.357,1.119,0.357l4.634,0.002H563.84z M600.093,206.599
					c-1.208,0-2.229-1.037-2.233-2.269c0-0.639,0.235-1.226,0.663-1.643c0.43-0.413,1.021-0.647,1.678-0.647h0.006
					c1.231,0,2.169,0.908,2.227,2.152c0.024,0.628-0.183,1.22-0.588,1.661c-0.416,0.452-1.006,0.719-1.661,0.744
					C600.152,206.597,600.123,206.599,600.093,206.599z M600.205,202.455l-0.006,0.413c-0.443,0.002-0.825,0.144-1.102,0.411
					c-0.271,0.265-0.413,0.628-0.413,1.051c0.003,0.784,0.647,1.443,1.407,1.448l0.057-0.004c0.433-0.019,0.82-0.187,1.088-0.476
					c0.255-0.282,0.386-0.662,0.369-1.068c-0.038-0.801-0.611-1.361-1.4-1.361V202.455z M584.89,206.486
					c-0.083,0-0.167-0.006-0.249-0.018c-0.585,0.08-1.175-0.138-1.624-0.596c-0.432-0.438-0.693-1.053-0.684-1.612
					c0.017-1.218,1.041-2.216,2.279-2.22c0.574,0,1.183,0.285,1.632,0.76c0.419,0.441,0.646,0.996,0.62,1.52
					C586.803,205.513,585.918,206.486,584.89,206.486z M584.651,205.625l0.077,0.019c0.052,0.012,0.106,0.017,0.16,0.017
					c0.585,0,1.11-0.635,1.149-1.382c0.015-0.3-0.129-0.63-0.394-0.912c-0.293-0.308-0.688-0.497-1.027-0.497
					c-0.797,0-1.449,0.628-1.462,1.404c-0.006,0.339,0.17,0.739,0.446,1.019c0.165,0.168,0.437,0.366,0.787,0.366
					c0.062,0,0.119-0.004,0.182-0.015L584.651,205.625z M592.324,206.459c-1.309,0-2.223-0.869-2.227-2.113
					c-0.008-1.279,0.951-2.287,2.176-2.306h0.023c1.195,0,2.21,1.002,2.22,2.187c0.004,0.657-0.205,1.215-0.604,1.62
					C593.516,206.248,592.965,206.459,592.324,206.459z M592.298,202.455l-0.013,0.413c-0.769,0.012-1.367,0.655-1.361,1.47
					c0.002,0.801,0.538,1.295,1.394,1.295c0.425,0,0.771-0.127,1.008-0.365c0.242-0.249,0.37-0.602,0.366-1.033
					c-0.01-0.729-0.657-1.367-1.394-1.367V202.455z M569.021,205.312h-5.268h-5.283c-1.331,0-2.656,0-3.985,0
					c-0.611-0.004-1.171-0.228-1.572-0.637c-0.4-0.404-0.616-0.965-0.612-1.577c0.004-0.134-0.004-0.273-0.01-0.415
					c-0.033-0.678-0.072-1.521,0.78-2.078c0.418-0.271,0.913-0.548,1.411-0.552c3.269-0.017,6.704-0.024,10.817-0.024
					c2.646,0,5.292,0.006,7.938,0.008c1.202,0.002,2.112,0.892,2.161,2.115c0.012,0.259,0.007,0.513,0.005,0.76l-0.005,0.125
					c-0.015,1.398-0.898,2.269-2.306,2.271C571.735,205.312,570.378,205.312,569.021,205.312z M563.754,204.484l5.268,0.004
					c1.356,0,2.715-0.004,4.071-0.006c0.944,0,1.473-0.52,1.482-1.458l0.002-0.123c0.002-0.249,0.004-0.482-0.002-0.717
					c-0.033-0.792-0.571-1.322-1.341-1.324c-2.644,0-5.288-0.006-7.936-0.006c-4.112,0-7.548,0.008-10.812,0.025
					c-0.324,0-0.775,0.293-0.967,0.418c-0.437,0.286-0.439,0.676-0.406,1.345c0.008,0.158,0.012,0.314,0.012,0.468
					c-0.004,0.388,0.128,0.739,0.374,0.985c0.244,0.25,0.596,0.388,0.983,0.388c1.329,0,2.654,0.004,3.985,0.004L563.754,204.484z"
					/>
			</g>
			<g>
				<path fill="#C4C7C9" d="M563.766,204.613c-3.019,0-6.031,0-9.049,0c-1.138-0.002-1.725-0.575-1.717-1.696
					c0.004-0.403-0.028-0.83,0.104-1.189c0.237-0.653,0.777-0.998,1.483-0.998c6.177-0.002,12.354-0.004,18.532,0.004
					c0.946,0.002,1.555,0.657,1.581,1.622c0.041,1.345-0.275,1.955-1.177,2.199c-0.227,0.06-0.473,0.056-0.708,0.056
					C569.799,204.613,566.782,204.613,563.766,204.613z"/>
				<path fill="#C4C6C9" d="M567.056,205.026l-12.339-0.002c-0.688,0-1.224-0.189-1.592-0.561c-0.363-0.363-0.542-0.885-0.538-1.55
					c0.003-0.07,0-0.14,0-0.211c-0.004-0.351-0.006-0.75,0.128-1.115c0.296-0.805,0.979-1.265,1.872-1.265
					c6.177-0.008,12.354-0.01,18.532,0c1.156,0.004,1.959,0.814,1.996,2.021c0.033,1.086-0.117,2.244-1.484,2.612
					c-0.238,0.062-0.479,0.066-0.705,0.066h-0.109C570.896,205.024,568.976,205.026,567.056,205.026z M563.766,204.199h3.29
					c1.92,0,3.841,0,5.761,0h0.109c0.175,0,0.351-0.002,0.491-0.043c0.607-0.164,0.912-0.484,0.873-1.786
					c-0.025-0.764-0.462-1.22-1.173-1.22c-6.177-0.013-12.354-0.006-18.53-0.002c-0.38,0-0.879,0.125-1.099,0.723
					c-0.082,0.226-0.08,0.515-0.077,0.823c0,0.078,0.004,0.152,0,0.228c-0.003,0.433,0.101,0.758,0.302,0.963
					c0.205,0.209,0.544,0.314,1.004,0.314H563.766z"/>
			</g>
			<g>
				<path fill="#C4C7C9" d="M563.851,210.073c-3.041,0-6.079-0.026-9.118,0.017c-1.109,0.012-1.679-0.657-1.739-1.438
					c-0.119-1.505,0.44-1.998,1.608-2.17c0.094-0.014,0.193-0.002,0.288-0.002c5.983,0,11.97-0.002,17.95,0.002
					c1.016,0,1.721,0.479,1.844,1.293c0.137,0.899-0.082,1.947-0.957,2.187c-0.243,0.072-0.503,0.107-0.757,0.107
					C569.931,210.078,566.89,210.073,563.851,210.073z"/>
				<path fill="#C4C6C9" d="M554.696,210.502c-1.199,0-2.029-0.717-2.115-1.819c-0.129-1.608,0.456-2.386,1.959-2.61
					c0.091-0.012,0.183-0.012,0.277-0.008h0.071h9.576c2.791,0,5.584,0,8.374,0c1.236,0.004,2.099,0.635,2.253,1.651
					c0.164,1.097-0.16,2.343-1.255,2.645c-0.275,0.078-0.577,0.121-0.866,0.121c-1.769,0.004-3.536,0.004-5.305,0.004h-3.816
					c-0.864,0-1.73-0.002-2.596-0.004c-0.864,0-1.729-0.002-2.594-0.002c-1.531,0-2.778,0.004-3.924,0.022H554.696z
					 M554.713,206.886c-0.017,0-0.033,0-0.05,0.002c-0.938,0.142-1.361,0.435-1.261,1.729c0.054,0.663,0.536,1.055,1.294,1.055h0.03
					c1.147-0.012,2.397-0.022,3.935-0.022c0.864,0,1.731,0.006,2.596,0.006c0.864,0.002,1.729,0.004,2.595,0.004h3.815
					c1.769,0,3.534,0,5.303-0.004c0.218,0,0.441-0.031,0.648-0.092c0.694-0.187,0.739-1.174,0.657-1.725
					c-0.127-0.852-1.045-0.947-1.437-0.947c-2.79-0.004-5.583-0.004-8.374-0.004l-9.576,0.004c-0.034,0-0.069-0.004-0.104-0.004
					L554.713,206.886z"/>
			</g>
			<g>
				<path fill="#3EB29D" d="M601.723,204.228c0.01,0.875-0.708,1.651-1.554,1.675c-0.758,0.027-1.596-0.784-1.612-1.55
					c-0.015-0.881,0.694-1.591,1.605-1.61C601,202.726,601.713,203.404,601.723,204.228z"/>
				<path fill="#3BB29C" d="M600.136,206.318c-0.984,0-1.972-0.969-1.989-1.961c-0.021-1.111,0.862-2,2.009-2.026h0.043
					c1.056,0,1.924,0.848,1.938,1.893c0.014,1.103-0.887,2.06-1.955,2.092L600.136,206.318z M600.197,203.153
					c-0.71,0.019-1.236,0.538-1.227,1.189c0.011,0.526,0.642,1.148,1.164,1.148h0.02c0.62-0.021,1.162-0.606,1.153-1.259
					C601.304,203.648,600.793,203.153,600.197,203.153z"/>
			</g>
			<g>
				<path fill="#9ECDC7" d="M586.056,204.322c0,0.903-0.54,1.443-1.449,1.438c-0.851-0.004-1.547-0.659-1.57-1.479
					c-0.021-0.725,0.768-1.509,1.548-1.538C585.337,202.714,586.054,203.484,586.056,204.322z"/>
				<path fill="#9ECDC6" d="M584.612,206.176h-0.007c-1.082-0.006-1.952-0.827-1.981-1.878c-0.026-0.955,0.935-1.928,1.945-1.965
					h0.057c0.962,0,1.84,0.947,1.843,1.99c0.002,0.554-0.175,1.021-0.501,1.347C585.639,206.001,585.171,206.176,584.612,206.176z
					 M584.626,203.158c-0.581,0.021-1.192,0.614-1.178,1.115c0.018,0.602,0.526,1.076,1.16,1.076l0.004,0.413v-0.413
					c0.339,0,0.598-0.088,0.771-0.261c0.171-0.173,0.259-0.432,0.257-0.766C585.639,203.732,585.138,203.158,584.626,203.158z"/>
			</g>
			<g>
				<path fill="#3DB29D" d="M592.314,205.761c-0.811,0.004-1.515-0.661-1.519-1.431c-0.004-0.828,0.698-1.573,1.493-1.585
					c0.706-0.016,1.546,0.778,1.52,1.495C593.776,205.102,593.175,205.8,592.314,205.761z"/>
				<path fill="#3BB19D" d="M592.376,206.176c-0.024,0-0.052,0-0.078-0.002h-0.002c-1.026,0-1.91-0.844-1.912-1.844
					c-0.002-1.049,0.884-1.981,1.899-1.998l0,0c0.484,0,0.992,0.238,1.387,0.649c0.365,0.38,0.568,0.846,0.55,1.273
					C594.179,205.349,593.389,206.176,592.376,206.176z M592.307,203.155c-0.582,0.013-1.097,0.569-1.097,1.175
					c0.002,0.542,0.515,1.019,1.101,1.019l0.065,0.004c0.641,0,1-0.571,1.019-1.129c0.009-0.205-0.108-0.452-0.319-0.671
					C592.842,203.313,592.54,203.155,592.307,203.155z"/>
			</g>
			<g>
				<path fill="#D8DDDF" d="M625.294,208.813c0,5.222,0,10.78,0,16.337c0,0.265-0.037,0.53,0.008,0.791
					c0.316,1.895-0.675,3.286-1.76,4.653c-2.205,2.785-5.112,4.393-8.554,5.056c-0.969,0.191-1.971,0.292-2.957,0.293
					c-21.579,0.012-43.16,0.025-64.741-0.002c-3.354-0.006-6.439-1.01-9.102-3.099c-1.635-1.281-2.896-2.891-3.851-4.737
					c-0.103-0.201-0.164-0.452-0.164-0.675c-0.011-6.201-0.007-12.407-0.007-18.61c0-0.058,0.027-0.117,0.064-0.269
					c0.844,2.084,2.077,3.799,3.697,5.203c1.816,1.571,3.888,2.731,6.301,3.064c1.474,0.203,2.973,0.292,4.464,0.292
					c19.855,0.022,39.71,0.024,59.565,0c2.895-0.002,5.683-0.676,8.322-1.875c2.156-0.981,4.107-2.267,5.828-3.912
					C623.38,210.4,624.43,209.562,625.294,208.813z M563.754,226.032c3.115,0,6.227,0.006,9.339-0.002
					c1.182,0,1.881-0.696,1.896-1.864c0.002-0.286,0.01-0.575-0.003-0.861c-0.041-0.996-0.745-1.718-1.749-1.721
					c-6.251-0.01-12.501-0.014-18.752,0.017c-0.398,0-0.831,0.252-1.188,0.485c-0.808,0.529-0.571,1.388-0.581,2.156
					c-0.013,1.039,0.741,1.789,1.771,1.789C557.575,226.037,560.663,226.032,563.754,226.032z M563.84,231.494
					c3.113,0,6.227,0.004,9.339-0.004c0.23,0,0.472-0.029,0.69-0.103c1.144-0.368,1.228-1.583,1.094-2.622
					c-0.107-0.84-0.943-1.434-1.926-1.434c-6.132-0.006-12.261-0.002-18.391-0.004c-0.685,0-1.309,0.213-1.625,0.807
					c-0.226,0.429-0.282,0.982-0.298,1.479c-0.041,1.25,0.608,1.881,1.848,1.881C557.661,231.499,560.752,231.494,563.84,231.494z
					 M600.199,223.591c-1.131,0.002-1.928,0.778-1.926,1.875c0.002,1.026,0.867,1.897,1.891,1.858
					c1.124-0.047,1.902-0.899,1.853-1.977C601.972,224.342,601.232,223.591,600.199,223.591z M584.645,227.184
					c0.887,0.185,1.753-0.667,1.809-1.75c0.047-0.932-0.934-1.844-1.838-1.842c-1.033,0.002-1.856,0.819-1.871,1.811
					C582.729,226.281,583.571,227.383,584.645,227.184z M592.324,227.184c1.087-0.004,1.789-0.716,1.777-1.817
					c-0.008-0.959-0.855-1.789-1.822-1.774c-0.989,0.01-1.771,0.848-1.769,1.885C590.516,226.502,591.24,227.184,592.324,227.184z"
					/>
				<path fill="#D8DDDF" d="M576.807,236.369c-9.837,0-19.677-0.006-29.517-0.019c-3.516,0-6.666-1.074-9.355-3.185
					c-1.609-1.263-2.943-2.904-3.961-4.871c-0.136-0.265-0.212-0.579-0.212-0.866c-0.01-6.056-0.008-12.109-0.004-18.168v-0.441
					c0-0.09,0.02-0.165,0.037-0.234c0.01-0.035,0.02-0.076,0.032-0.127l0.292-1.275l0.493,1.211
					c0.818,2.012,1.992,3.664,3.587,5.047c1.965,1.7,3.957,2.671,6.086,2.965c1.389,0.193,2.871,0.292,4.409,0.292
					c19.855,0.018,39.71,0.022,59.563,0c2.735-0.006,5.479-0.625,8.154-1.842c2.154-0.981,4.078-2.269,5.715-3.832
					c0.688-0.655,1.398-1.254,2.086-1.83c0.279-0.24,0.555-0.47,0.812-0.692l0.684-0.591v17.238c0,0.088-0.007,0.179-0.011,0.269
					c-0.006,0.164-0.013,0.318,0.011,0.452c0.339,2.021-0.68,3.509-1.842,4.979c-2.18,2.748-5.136,4.501-8.801,5.208
					c-1.016,0.193-2.037,0.293-3.033,0.293C600.29,236.361,588.549,236.369,576.807,236.369z M534.581,210.256
					c0,5.725-0.002,11.45,0.004,17.173c0,0.16,0.048,0.341,0.123,0.486c0.959,1.865,2.218,3.413,3.733,4.598
					c2.544,1.996,5.52,3.01,8.851,3.013c21.579,0.028,43.16,0.021,64.739,0.004c0.945-0.004,1.914-0.097,2.877-0.283
					c3.466-0.669,6.261-2.32,8.312-4.91c1.085-1.37,1.957-2.639,1.677-4.329c-0.037-0.22-0.028-0.439-0.022-0.626
					c0.004-0.078,0.008-0.156,0.008-0.232v-15.444c-0.045,0.039-0.09,0.078-0.138,0.119c-0.675,0.569-1.377,1.156-2.045,1.797
					c-1.704,1.628-3.702,2.967-5.944,3.986c-2.782,1.265-5.641,1.91-8.493,1.914c-19.855,0.027-39.71,0.019-59.567,0
					c-1.573,0-3.095-0.099-4.521-0.298c-2.294-0.318-4.423-1.351-6.514-3.158C536.395,212.967,535.376,211.714,534.581,210.256z
					 M567.949,231.907h-4.109h-5.312h-3.956c-0.744,0-1.32-0.206-1.711-0.606c-0.389-0.4-0.573-0.971-0.551-1.7
					c0.015-0.456,0.065-1.121,0.348-1.661c0.354-0.669,1.043-1.025,1.984-1.025h9.493c2.969,0,5.936,0,8.901,0.002
					c1.22,0.002,2.201,0.755,2.335,1.796c0.269,2.08-0.6,2.817-1.376,3.068c-0.242,0.078-0.523,0.121-0.815,0.123
					C571.436,231.907,569.692,231.907,567.949,231.907z M563.84,231.082l4.109,0.002c1.743,0,3.486-0.002,5.229-0.004
					c0.205-0.002,0.398-0.029,0.563-0.082c0.259-0.084,1.05-0.339,0.812-2.181c-0.078-0.61-0.73-1.07-1.518-1.07
					c-2.967-0.006-5.933-0.006-8.901-0.006h-9.488c-0.631,0-1.052,0.195-1.26,0.585c-0.201,0.388-0.239,0.928-0.252,1.304
					c-0.015,0.491,0.092,0.86,0.316,1.097c0.23,0.234,0.606,0.355,1.119,0.355l6.61,0.002L563.84,231.082z M600.093,227.734
					c-1.208,0-2.229-1.037-2.233-2.269c-0.002-1.318,0.98-2.286,2.341-2.288h0.004c1.234,0,2.171,0.903,2.229,2.15
					c0.024,0.628-0.181,1.22-0.588,1.661c-0.416,0.452-1.006,0.719-1.661,0.743C600.152,227.732,600.123,227.734,600.093,227.734z
					 M600.203,223.591l-0.004,0.413c-0.907,0.002-1.517,0.591-1.515,1.462c0.003,0.784,0.647,1.445,1.407,1.445h0.057
					c0.433-0.021,0.82-0.191,1.088-0.479c0.255-0.281,0.386-0.659,0.369-1.068c-0.038-0.803-0.613-1.361-1.402-1.361V223.591
					L600.203,223.591z M584.89,227.622c-0.083,0-0.167-0.006-0.251-0.019c-0.08,0.012-0.164,0.017-0.246,0.017l0,0
					c-0.5,0-0.991-0.216-1.375-0.61c-0.433-0.439-0.694-1.058-0.685-1.612c0.017-1.22,1.041-2.218,2.279-2.22
					c0.571,0,1.183,0.283,1.632,0.757c0.419,0.442,0.646,0.998,0.62,1.518C586.803,226.65,585.918,227.622,584.89,227.622z
					 M584.651,226.763l0.077,0.017c0.631,0.131,1.27-0.55,1.311-1.366c0.015-0.3-0.129-0.63-0.396-0.907
					c-0.291-0.31-0.686-0.503-1.027-0.503c-0.795,0.002-1.447,0.633-1.46,1.411c-0.006,0.335,0.17,0.737,0.446,1.017
					c0.165,0.164,0.437,0.361,0.789,0.361l0,0c0.061,0,0.117-0.004,0.18-0.014L584.651,226.763z M592.324,227.597
					c-1.309,0-2.223-0.871-2.227-2.115c-0.008-1.277,0.951-2.285,2.176-2.304h0.023c1.195,0,2.21,1,2.22,2.188
					c0.004,0.651-0.205,1.214-0.604,1.618C593.516,227.383,592.965,227.597,592.324,227.597z M592.298,223.593l-0.013,0.411
					c-0.769,0.01-1.367,0.657-1.361,1.473c0.002,0.798,0.538,1.293,1.394,1.293c0.425,0,0.771-0.127,1.008-0.37
					c0.242-0.242,0.37-0.598,0.366-1.029c-0.01-0.729-0.655-1.368-1.394-1.368V223.593z M569.021,226.447l-5.268-0.002l-4.842,0.002
					c-1.478,0-2.951-0.002-4.428-0.002c-0.611,0-1.17-0.226-1.572-0.634c-0.4-0.402-0.616-0.963-0.612-1.577
					c0.004-0.133-0.004-0.275-0.01-0.415c-0.033-0.678-0.072-1.521,0.782-2.076c0.416-0.271,0.908-0.554,1.41-0.556
					c3.224-0.015,6.747-0.023,10.769-0.023c2.661,0,5.326,0.004,7.985,0.008c1.205,0.004,2.112,0.891,2.161,2.115
					c0.012,0.256,0.007,0.513,0.005,0.76l-0.005,0.123c-0.015,1.398-0.898,2.271-2.306,2.275
					C571.735,226.447,570.378,226.447,569.021,226.447z M563.754,225.622l5.268,0.002c1.356,0,2.715-0.002,4.071-0.004
					c0.944,0,1.473-0.52,1.482-1.46l0.002-0.123c0.002-0.247,0.004-0.483-0.002-0.717c-0.033-0.792-0.571-1.325-1.341-1.325
					c-2.659,0-5.322-0.004-7.983-0.004c-4.019,0-7.54,0.004-10.763,0.022c-0.324,0-0.775,0.296-0.967,0.421
					c-0.437,0.282-0.439,0.676-0.406,1.343c0.008,0.158,0.012,0.314,0.012,0.466c-0.004,0.39,0.128,0.744,0.374,0.99
					c0.244,0.249,0.597,0.386,0.983,0.386c1.477,0.002,2.953,0.002,4.428,0.002L563.754,225.622L563.754,225.622z"/>
			</g>
			<g>
				<path fill="#C4C7C9" d="M563.766,225.749c-3.019,0-6.031,0-9.049,0c-1.138-0.002-1.725-0.575-1.717-1.698
					c0.004-0.398-0.028-0.828,0.104-1.187c0.237-0.655,0.777-0.998,1.483-0.998c6.177,0,12.354-0.006,18.532,0.004
					c0.946,0.002,1.555,0.657,1.581,1.622c0.041,1.345-0.275,1.955-1.177,2.199c-0.227,0.06-0.473,0.053-0.708,0.056
					C569.799,225.749,566.782,225.749,563.766,225.749z"/>
				<path fill="#C4C6C9" d="M557.733,226.162l-3.018-0.002c-0.688,0-1.222-0.189-1.592-0.561c-0.363-0.364-0.542-0.885-0.538-1.55
					c0.003-0.068,0-0.14,0-0.211c-0.004-0.354-0.006-0.751,0.128-1.115c0.296-0.805,0.979-1.265,1.872-1.265
					c6.177-0.006,12.354-0.01,18.532,0c1.155,0.004,1.959,0.815,1.996,2.018c0.032,1.086-0.117,2.247-1.484,2.612
					c-0.238,0.063-0.473,0.07-0.713,0.07h-0.086c-1.776,0.002-3.534,0.004-5.296,0.004l-6.789-0.002L557.733,226.162z
					 M564.267,222.277c-3.228,0-6.452,0.004-9.68,0.006c-0.38,0-0.879,0.125-1.099,0.723c-0.082,0.226-0.08,0.515-0.077,0.827
					c0,0.072,0.004,0.148,0,0.224c-0.003,0.437,0.101,0.757,0.302,0.963c0.205,0.209,0.544,0.314,1.004,0.314h3.018h7.916h1.887
					c1.762,0,3.52,0,5.279,0h0.103c0.191,0,0.357-0.004,0.497-0.043c0.609-0.167,0.914-0.482,0.875-1.787
					c-0.025-0.764-0.462-1.22-1.173-1.22C570.166,222.281,567.216,222.277,564.267,222.277z"/>
			</g>
			<g>
				<path fill="#C4C7C9" d="M563.851,231.209c-3.041,0-6.079-0.027-9.118,0.017c-1.109,0.012-1.679-0.655-1.739-1.438
					c-0.119-1.505,0.44-1.996,1.608-2.168c0.094-0.017,0.193-0.004,0.288-0.004c5.983,0,11.97-0.004,17.95,0.002
					c1.016,0,1.721,0.479,1.844,1.293c0.137,0.901-0.082,1.945-0.957,2.191c-0.243,0.068-0.503,0.101-0.757,0.103
					C569.931,231.213,566.89,231.209,563.851,231.209z"/>
				<path fill="#C4C6C9" d="M554.694,231.636c-1.197,0-2.027-0.713-2.113-1.812c-0.129-1.61,0.456-2.39,1.959-2.614
					c0.088-0.01,0.183-0.01,0.277-0.008h0.071h8.287c3.223,0,6.441,0,9.663,0.004c1.236,0,2.099,0.63,2.253,1.647
					c0.164,1.099-0.16,2.343-1.255,2.647c-0.275,0.076-0.577,0.119-0.866,0.119c-1.769,0.004-3.536,0.004-5.305,0.004h-3.816
					c-0.864,0-1.729-0.004-2.592-0.004s-1.727-0.002-2.589-0.002c-1.536,0-2.787,0.006-3.933,0.021h-0.042V231.636z
					 M554.713,228.024c-0.017,0-0.033,0-0.05,0.002c-0.938,0.14-1.361,0.433-1.261,1.729c0.054,0.662,0.536,1.058,1.292,1.058
					l0.031-0.004c1.148-0.012,2.403-0.022,3.943-0.022c0.862,0,1.728,0.004,2.591,0.008c0.862,0,1.728,0.002,2.59,0.002l3.816,0.004
					c1.769,0,3.534-0.004,5.303-0.006c0.217,0,0.441-0.033,0.648-0.09c0.693-0.195,0.739-1.179,0.657-1.729
					c-0.128-0.852-1.046-0.944-1.437-0.944c-3.222-0.002-6.44-0.002-9.663-0.002h-8.287c-0.034,0-0.069,0-0.104-0.002
					L554.713,228.024z"/>
			</g>
			<g>
				<path fill="#3EB29D" d="M601.723,225.363c0.01,0.877-0.708,1.651-1.554,1.68c-0.758,0.021-1.596-0.789-1.612-1.556
					c-0.015-0.879,0.694-1.587,1.605-1.608C601,223.86,601.713,224.54,601.723,225.363z"/>
				<path fill="#3BB29C" d="M600.136,227.453c-0.984,0-1.972-0.971-1.989-1.959c-0.021-1.113,0.862-2.002,2.009-2.028h0.043
					c1.056,0,1.924,0.846,1.938,1.895c0.014,1.099-0.887,2.058-1.955,2.092H600.136z M600.197,224.289
					c-0.71,0.019-1.236,0.54-1.227,1.189c0.011,0.523,0.642,1.148,1.164,1.148h0.02c0.62-0.021,1.162-0.61,1.153-1.259
					C601.304,224.784,600.793,224.289,600.197,224.289z"/>
			</g>
			<g>
				<path fill="#9ECDC7" d="M586.056,225.458c0,0.907-0.54,1.443-1.449,1.441c-0.851-0.002-1.547-0.659-1.57-1.48
					c-0.021-0.725,0.768-1.509,1.548-1.538C585.337,223.85,586.054,224.618,586.056,225.458z"/>
				<path fill="#9ECDC6" d="M584.612,227.312h-0.007c-1.082-0.004-1.952-0.83-1.981-1.879c-0.026-0.953,0.935-1.926,1.945-1.967
					h0.057c0.962,0,1.84,0.946,1.843,1.992c0.002,0.554-0.175,1.022-0.501,1.349C585.639,227.137,585.171,227.312,584.612,227.312z
					 M584.626,224.289c-0.581,0.022-1.192,0.62-1.178,1.119c0.018,0.602,0.526,1.074,1.16,1.076l0.004,0.415v-0.415
					c0.339,0,0.598-0.088,0.771-0.259c0.173-0.174,0.259-0.433,0.257-0.768C585.639,224.868,585.136,224.289,584.626,224.289z"/>
			</g>
			<g>
				<path fill="#3DB29D" d="M592.314,226.899c-0.811,0.002-1.515-0.666-1.519-1.433c-0.004-0.828,0.698-1.575,1.493-1.585
					c0.706-0.017,1.546,0.78,1.52,1.491C593.776,226.24,593.175,226.934,592.314,226.899z"/>
				<path fill="#3BB19D" d="M592.376,227.312c-0.024,0-0.052,0-0.078-0.004h-0.002c-1.026,0-1.91-0.84-1.912-1.842
					c-0.002-1.045,0.884-1.982,1.899-2l0,0c0.484,0,0.994,0.244,1.387,0.653c0.365,0.378,0.568,0.844,0.55,1.271
					C594.179,226.484,593.389,227.312,592.376,227.312z M592.307,224.289c-0.582,0.012-1.097,0.571-1.097,1.174
					c0.002,0.544,0.515,1.021,1.101,1.021h0.065c0.641,0,1-0.566,1.019-1.125c0.009-0.204-0.108-0.452-0.319-0.674
					C592.842,224.445,592.54,224.289,592.307,224.289z"/>
			</g>
			<g>
				<path fill="#CDCCCA" d="M534.166,186.409c0.715,0.917,1.396,1.77,2.056,2.641c1.053,1.381,2.447,2.344,3.938,3.155
					c1.809,0.979,3.75,1.596,5.846,1.618c1.355,0.019,2.713,0.129,4.068,0.131c20.646,0.006,41.291,0.012,61.937-0.002
					c2.87-0.004,5.614-0.632,8.076-2.158c1.511-0.932,2.87-2.077,3.905-3.558c0.415-0.587,0.823-1.176,1.3-1.858
					c0,0.887,0.147,1.71-0.043,2.437c-0.171,0.645-0.661,1.238-1.117,1.759c-1.728,1.969-3.823,3.431-6.324,4.255
					c-1.393,0.458-2.816,0.721-4.296,0.721c-22.709-0.013-45.411,0.014-68.117-0.033c-3.065-0.008-5.838-1.15-8.163-3.188
					c-0.899-0.791-1.649-1.746-2.493-2.601c-0.472-0.476-0.633-1.016-0.581-1.671C534.201,187.522,534.166,186.98,534.166,186.409z"
					/>
				<path fill="#CDCCCA" d="M613.514,195.964h-0.002c-4.924-0.004-9.846-0.004-14.771-0.004H584.08
					c-14.415,0-26.512-0.004-38.688-0.031c-3.069-0.008-5.987-1.146-8.436-3.294c-0.575-0.503-1.093-1.076-1.592-1.628
					c-0.298-0.329-0.607-0.672-0.922-0.991c-0.534-0.54-0.763-1.195-0.698-1.994c0.029-0.349,0.021-0.704,0.015-1.082
					c-0.002-0.172-0.006-0.354-0.006-0.532v-1.204l0.739,0.947c0.228,0.292,0.449,0.575,0.667,0.854
					c0.477,0.61,0.938,1.195,1.391,1.791c0.874,1.154,2.047,2.092,3.808,3.044c1.904,1.033,3.756,1.548,5.654,1.569
					c0.637,0.008,1.279,0.037,1.903,0.063c0.71,0.035,1.441,0.068,2.158,0.068c20.646,0.01,41.291,0.01,61.937,0
					c2.972-0.004,5.616-0.71,7.858-2.095c1.632-1.01,2.87-2.138,3.786-3.448l2.052-2.935v1.314c0,0.265,0.012,0.532,0.024,0.786
					c0.031,0.614,0.064,1.193-0.087,1.76c-0.19,0.723-0.697,1.345-1.203,1.921c-1.827,2.086-4.015,3.559-6.507,4.376
					C616.411,195.72,614.965,195.964,613.514,195.964z M598.741,195.135c4.925,0,9.847,0,14.771,0.002l0.002,0.413v-0.413
					c1.363,0,2.724-0.229,4.162-0.702c2.351-0.77,4.417-2.162,6.146-4.13c0.438-0.505,0.884-1.041,1.028-1.593
					c0.082-0.327,0.093-0.698,0.078-1.088l-0.596,0.85c-0.983,1.402-2.3,2.609-4.029,3.674c-2.375,1.47-5.164,2.218-8.293,2.22
					c-20.646,0.013-41.29,0.006-61.937,0c-0.735,0-1.479-0.035-2.195-0.067c-0.618-0.029-1.255-0.058-1.877-0.064
					c-2.035-0.022-4.01-0.569-6.039-1.667c-1.158-0.626-2.842-1.651-4.069-3.268c-0.423-0.559-0.855-1.113-1.302-1.678
					c-0.005,0.152-0.011,0.31-0.021,0.47c-0.046,0.559,0.094,0.976,0.46,1.345c0.326,0.333,0.643,0.684,0.945,1.018
					c0.484,0.536,0.983,1.088,1.523,1.561c2.329,2.043,4.985,3.083,7.894,3.088c12.175,0.027,24.271,0.031,38.687,0.031h14.661
					V195.135z"/>
			</g>
			<g>
				<path fill="#CDCCCA" d="M534.166,207.558c0.715,0.916,1.396,1.768,2.056,2.634c1.053,1.38,2.447,2.347,3.938,3.156
					c1.809,0.979,3.75,1.593,5.846,1.616c1.355,0.017,2.713,0.131,4.068,0.134c20.646,0.01,41.291,0.01,61.937-0.002
					c2.87,0,5.614-0.632,8.076-2.156c1.511-0.935,2.87-2.082,3.905-3.561c0.415-0.585,0.823-1.17,1.3-1.852
					c0,0.883,0.147,1.706-0.043,2.433c-0.171,0.643-0.661,1.236-1.117,1.758c-1.728,1.969-3.823,3.431-6.324,4.252
					c-1.393,0.458-2.816,0.723-4.296,0.721c-22.709-0.008-45.411,0.017-68.117-0.031c-3.065-0.008-5.838-1.154-8.163-3.189
					c-0.899-0.791-1.649-1.745-2.493-2.602c-0.472-0.477-0.633-1.015-0.581-1.667C534.201,208.669,534.166,208.125,534.166,207.558z
					"/>
				<path fill="#CDCCCA" d="M613.514,217.106h-0.002c-4.728-0.002-9.458-0.002-14.186-0.002h-15.693
					c-14.188,0-26.121-0.004-38.24-0.031c-3.069-0.008-5.987-1.148-8.436-3.293c-0.575-0.505-1.093-1.076-1.592-1.63
					c-0.298-0.331-0.607-0.669-0.922-0.99c-0.534-0.542-0.763-1.193-0.698-1.994c0.029-0.345,0.021-0.7,0.015-1.076
					c-0.002-0.175-0.006-0.354-0.006-0.532v-1.199l0.739,0.944c0.218,0.279,0.433,0.552,0.645,0.821
					c0.49,0.623,0.953,1.214,1.413,1.815c0.874,1.152,2.047,2.092,3.808,3.045c1.905,1.035,3.756,1.546,5.655,1.569
					c0.639,0.006,1.284,0.035,1.91,0.064c0.707,0.035,1.438,0.067,2.15,0.067c20.646,0.006,41.291,0.01,61.938,0
					c2.969-0.002,5.613-0.706,7.857-2.098c1.632-1.008,2.87-2.134,3.786-3.446l2.052-2.924v1.31c0,0.265,0.012,0.53,0.024,0.784
					c0.032,0.614,0.064,1.191-0.087,1.756c-0.19,0.723-0.719,1.37-1.203,1.92c-1.827,2.088-4.02,3.561-6.507,4.375
					C616.415,216.862,614.97,217.106,613.514,217.106z M599.326,216.279c4.728,0,9.458,0,14.186,0.002l0.002,0.411v-0.411
					c1.367,0,2.728-0.23,4.162-0.7c2.351-0.772,4.417-2.162,6.146-4.136c0.419-0.48,0.881-1.039,1.028-1.591
					c0.082-0.326,0.093-0.694,0.078-1.086l-0.596,0.848c-0.981,1.403-2.3,2.606-4.029,3.674c-2.375,1.474-5.168,2.215-8.293,2.218
					c-20.646,0.016-41.29,0.01-61.937,0c-0.733,0-1.474-0.029-2.189-0.064c-0.618-0.027-1.259-0.058-1.883-0.065
					c-2.037-0.023-4.012-0.567-6.039-1.664c-1.158-0.63-2.838-1.657-4.069-3.271c-0.423-0.559-0.853-1.103-1.302-1.675
					c-0.005,0.154-0.011,0.312-0.021,0.466c-0.046,0.563,0.094,0.978,0.46,1.347c0.326,0.333,0.643,0.68,0.945,1.014
					c0.484,0.538,0.983,1.09,1.523,1.565c2.329,2.041,4.985,3.08,7.894,3.086c12.119,0.027,24.052,0.033,38.238,0.033h15.694
					V216.279z"/>
			</g>
		</g>
	</g>
	<g>
		<g>
			<path fill="#FFFFFF" d="M5.371,394.335c-2.956,31.309,20.112,59.187,51.422,62.142c0.248,0.022,0.498,0.045,0.754,0.063
				c7.431,12.632,17.514,23.623,29.495,32.103c14.676,10.387,31.949,16.773,49.938,18.474c15.553,1.468,31.039-0.583,45.498-5.923
				c-0.012,0.224-0.016,0.446-0.033,0.676l2.616,0.146c14.034,18.495,35.161,30.421,58.744,32.647
				c28.848,2.724,56.663-9.627,74.04-32.066c0.647,0.313,1.308,0.622,1.966,0.922c0,0.037-0.004,0.077-0.003,0.113
				c1.451,0.606,2.837,1.366,4.25,2.061c0.006-0.117,0.011-0.23,0.011-0.353c9.227,3.711,18.997,6.099,28.93,7.038
				c18.676,1.763,37.104-1.541,53.599-9.287c0.004,0.024,0.004,0.049,0.011,0.072c0.182-0.102,0.379-0.182,0.594-0.232
				c0.186-0.042,0.373-0.074,0.562-0.111c0.992-0.53,2.023-1.001,3.023-1.481c-0.012-0.104-0.021-0.206-0.031-0.312
				c6.87-3.608,13.362-8.017,19.35-13.168c4.729,1.468,9.606,2.442,14.566,2.911c39.577,3.736,74.815-25.425,78.55-64.99
				c3.735-39.562-25.423-74.801-65-78.539c-4.342-0.41-8.687-0.428-12.993-0.059c-17.469-23.205-43.562-37.873-72.8-40.633
				c-10.562-0.997-21.033-0.399-31.242,1.78c-6.912-13.633-16.754-25.631-28.888-35.135c-15.729-12.316-34.595-19.819-54.562-21.704
				c-21.674-2.047-43.069,2.59-61.877,13.406c-15.518,8.924-28.316,21.465-37.457,36.601c-0.661-0.078-1.322-0.146-1.991-0.208
				c-36.483-3.444-71.335,12.297-92.837,41.425C33.896,341.942,8.201,364.358,5.371,394.335z M18.31,395.557
				c0.071-0.763,0.16-1.515,0.273-2.264c0.029-0.212,0.075-0.424,0.106-0.642c0.086-0.528,0.168-1.059,0.275-1.584
				c0.042-0.213,0.091-0.421,0.145-0.634c0.106-0.518,0.22-1.038,0.346-1.548c0.052-0.198,0.109-0.394,0.167-0.587
				c0.138-0.523,0.276-1.047,0.436-1.556c0.047-0.168,0.11-0.332,0.163-0.499c0.17-0.536,0.349-1.068,0.541-1.599
				c0.048-0.136,0.109-0.272,0.16-0.416c0.204-0.548,0.412-1.091,0.636-1.627c0.047-0.111,0.102-0.217,0.153-0.328
				c0.242-0.561,0.485-1.118,0.751-1.67c0.041-0.079,0.079-0.155,0.124-0.238c0.281-0.571,0.565-1.138,0.87-1.695
				c0.032-0.055,0.062-0.112,0.094-0.167c0.322-0.578,0.645-1.15,0.989-1.713c0.021-0.033,0.047-0.067,0.065-0.103
				c0.36-0.582,0.73-1.153,1.116-1.717c0.001-0.015,0.013-0.027,0.024-0.042c0.397-0.58,0.801-1.147,1.229-1.708
				c0-0.002,0-0.002,0-0.002c2.158-2.859,4.65-5.434,7.417-7.681l0,0c8.644-7.018,19.938-10.789,31.903-9.659
				c1.244,0.118,2.474,0.3,3.682,0.517c17.554-28.116,49.975-45.504,85.218-42.177c3.481,0.329,6.898,0.859,10.237,1.563
				c16.159-33.485,51.898-55.062,91.087-51.362c36.181,3.416,65.449,27.451,77.284,59.393c11.673-3.948,24.348-5.563,37.409-4.33
				c28.99,2.736,53.472,18.876,67.923,41.712c5.726-1.218,11.729-1.6,17.869-1.02c32.497,3.067,56.351,31.896,53.284,64.378
				c-0.271,2.884-0.757,5.698-1.42,8.435c-0.186,0.754-0.39,1.502-0.598,2.246c-0.047,0.157-0.085,0.307-0.128,0.46
				c-0.205,0.686-0.424,1.361-0.646,2.037c-0.066,0.202-0.133,0.404-0.202,0.606c-0.226,0.644-0.461,1.28-0.705,1.921
				c-0.086,0.217-0.167,0.439-0.258,0.658c-0.246,0.62-0.504,1.234-0.771,1.839c-0.099,0.227-0.196,0.448-0.297,0.673
				c-0.274,0.602-0.555,1.198-0.852,1.791c-0.104,0.209-0.214,0.424-0.322,0.636c-0.304,0.593-0.615,1.185-0.938,1.77
				c-0.104,0.186-0.21,0.37-0.318,0.559c-0.342,0.601-0.685,1.196-1.045,1.781c-0.083,0.134-0.173,0.269-0.255,0.398
				c-1.742,2.777-3.708,5.399-5.87,7.836c-0.05,0.056-0.098,0.118-0.153,0.18c-0.435,0.484-0.883,0.957-1.334,1.427
				c-0.175,0.183-0.348,0.37-0.522,0.551c-0.416,0.419-0.838,0.83-1.263,1.238c-0.23,0.22-0.456,0.438-0.687,0.652
				c-0.408,0.382-0.824,0.752-1.241,1.119c-0.262,0.229-0.521,0.457-0.788,0.684c-0.411,0.35-0.825,0.687-1.242,1.024
				c-0.288,0.229-0.58,0.459-0.871,0.687c-0.409,0.318-0.827,0.628-1.251,0.94c-0.308,0.229-0.618,0.448-0.938,0.671
				c-0.416,0.292-0.837,0.583-1.262,0.863c-0.33,0.223-0.669,0.437-1.007,0.652c-0.421,0.267-0.842,0.531-1.267,0.787
				c-0.359,0.214-0.721,0.421-1.085,0.63c-0.421,0.238-0.836,0.481-1.263,0.71c-0.394,0.217-0.795,0.411-1.191,0.619
				c-0.411,0.205-0.812,0.421-1.222,0.617c-0.628,0.304-1.267,0.584-1.901,0.868c-0.494,0.216-0.988,0.42-1.484,0.62
				c-0.521,0.214-1.037,0.429-1.562,0.625c-0.372,0.14-0.753,0.266-1.133,0.399c-0.49,0.172-0.979,0.344-1.476,0.507
				c-0.387,0.126-0.785,0.235-1.181,0.354c-0.488,0.146-0.977,0.294-1.474,0.426c-0.401,0.109-0.807,0.209-1.214,0.312
				c-0.493,0.119-0.991,0.241-1.495,0.35c-0.406,0.089-0.814,0.171-1.226,0.256c-0.504,0.102-1.019,0.193-1.528,0.284
				c-0.41,0.067-0.819,0.13-1.231,0.189c-0.521,0.081-1.045,0.149-1.569,0.214c-0.409,0.048-0.815,0.097-1.229,0.137
				c-0.539,0.055-1.084,0.1-1.625,0.138c-0.399,0.025-0.803,0.062-1.204,0.08c-0.565,0.03-1.146,0.042-1.718,0.054
				c-0.38,0.009-0.755,0.025-1.139,0.026c-0.637,0.002-1.278-0.018-1.922-0.037c-0.319-0.01-0.644-0.01-0.965-0.021
				c-0.966-0.043-1.933-0.11-2.905-0.202c-6.679-0.631-12.973-2.363-18.761-4.972c-18.413,18.684-44.761,29.237-72.914,26.579
				c-14.978-1.414-28.761-6.41-40.574-14.059c-13.167,23.953-39.675,39.076-68.618,36.346
				c-24.747-2.338-45.297-17.157-56.022-37.649c-15.066,7.994-32.551,11.827-50.803,10.104
				c-32.602-3.078-59.521-23.116-72.854-50.565c-2.405,0.173-4.852,0.16-7.332-0.073C33.796,441.252,16.023,419.771,18.31,395.557z"
				/>
			<path fill="#8BD2F5" d="M495.658,458.197c2.162-2.437,4.128-5.059,5.87-7.836C499.786,453.14,497.82,455.762,495.658,458.197z"/>
			<path fill="#8BD2F5" d="M501.783,449.963c0.359-0.585,0.703-1.182,1.045-1.781C502.486,448.781,502.144,449.378,501.783,449.963z
				"/>
			<path fill="#E6F2F6" d="M508.863,432.986c0.663-2.735,1.147-5.551,1.42-8.435c3.065-32.482-20.787-61.311-53.284-64.378
				c-6.14-0.58-12.145-0.198-17.869,1.02c-14.451-22.836-38.933-38.976-67.923-41.712c-13.062-1.233-25.735,0.381-37.409,4.33
				c-11.834-31.942-41.103-55.977-77.284-59.393c-39.189-3.7-74.928,17.877-91.087,51.362c-3.338-0.704-6.755-1.234-10.237-1.563
				c-35.243-3.327-67.664,14.061-85.218,42.177c-1.208-0.217-2.438-0.399-3.682-0.517c-11.965-1.129-23.259,2.641-31.903,9.659
				c-0.095,0.675-0.179,1.352-0.245,2.041c-2.284,24.198,15.494,45.681,39.705,47.966c2.481,0.234,4.931,0.247,7.332,0.076
				c13.339,27.449,40.255,47.483,72.863,50.562c18.251,1.726,35.73-2.109,50.801-10.104c10.721,20.49,31.28,35.311,56.021,37.646
				c28.942,2.73,55.45-12.395,68.62-36.348c11.814,7.654,25.591,12.651,40.572,14.065c28.15,2.655,54.501-7.899,72.915-26.58
				c5.782,2.608,12.083,4.342,18.755,4.973C479.865,451.549,496.852,444.864,508.863,432.986z"/>
			<path fill="#8BD2F5" d="M506.585,440.258c0.244-0.641,0.479-1.281,0.705-1.921C507.064,438.98,506.829,439.617,506.585,440.258z"
				/>
			<path fill="#8BD2F5" d="M507.492,437.73c0.223-0.677,0.44-1.354,0.646-2.038C507.934,436.378,507.715,437.055,507.492,437.73z"/>
			<path fill="#8BD2F5" d="M505.556,442.755c0.269-0.604,0.525-1.219,0.771-1.839C506.081,441.536,505.823,442.151,505.556,442.755z
				"/>
			<path fill="#8BD2F5" d="M508.267,435.232c0.208-0.744,0.412-1.492,0.598-2.246C508.679,433.74,508.475,434.488,508.267,435.232z"
				/>
			<path fill="#8BD2F5" d="M504.407,445.219c0.293-0.594,0.576-1.189,0.852-1.791C504.983,444.028,504.704,444.626,504.407,445.219z
				"/>
			<path fill="#8BD2F5" d="M503.146,447.623c0.322-0.585,0.635-1.177,0.938-1.77C503.781,446.446,503.47,447.038,503.146,447.623z"
				/>
			<path fill="#DAECF2" d="M18.689,392.651c0.086-0.528,0.168-1.059,0.275-1.584c0.042-0.213,0.091-0.421,0.145-0.634
				c0.106-0.518,0.22-1.038,0.346-1.548c0.052-0.198,0.109-0.394,0.167-0.587c0.138-0.523,0.276-1.047,0.436-1.556
				c0.047-0.168,0.11-0.332,0.163-0.499c0.17-0.536,0.349-1.072,0.541-1.599c0.048-0.136,0.109-0.272,0.16-0.416
				c0.204-0.548,0.412-1.091,0.636-1.627c0.047-0.111,0.102-0.217,0.153-0.328c0.242-0.561,0.485-1.118,0.751-1.67
				c0.041-0.079,0.079-0.155,0.124-0.238c0.281-0.571,0.565-1.138,0.87-1.695c0.032-0.055,0.062-0.112,0.094-0.167
				c0.322-0.578,0.645-1.15,0.989-1.713c0.021-0.033,0.047-0.067,0.065-0.103c0.36-0.582,0.73-1.153,1.116-1.717
				c0.001-0.015,0.013-0.027,0.024-0.042c0.397-0.58,0.801-1.147,1.229-1.708c0-0.002,0-0.002,0-0.002
				c2.164-2.858,4.65-5.434,7.417-7.681l0,0l0,0c-0.095,0.675-0.179,1.352-0.245,2.041c-2.284,24.198,15.494,45.681,39.705,47.966
				c2.481,0.234,4.931,0.247,7.332,0.076c13.339,27.449,40.255,47.483,72.863,50.562c18.251,1.726,35.73-2.109,50.801-10.104
				c10.721,20.49,31.28,35.311,56.021,37.646c28.942,2.73,55.45-12.395,68.62-36.348c11.814,7.654,25.591,12.651,40.572,14.064
				c28.15,2.656,54.501-7.898,72.915-26.579c5.782,2.608,12.083,4.342,18.756,4.973c18.14,1.713,35.126-4.972,47.138-16.85l0,0l0,0
				c-0.186,0.754-0.39,1.502-0.597,2.245c-0.048,0.158-0.086,0.308-0.129,0.46c-0.204,0.687-0.424,1.362-0.646,2.038
				c-0.066,0.202-0.133,0.404-0.202,0.606c-0.226,0.64-0.461,1.28-0.705,1.921c-0.086,0.217-0.167,0.439-0.258,0.658
				c-0.246,0.62-0.504,1.234-0.771,1.839c-0.1,0.227-0.197,0.448-0.298,0.673c-0.274,0.602-0.559,1.197-0.852,1.791
				c-0.104,0.209-0.214,0.424-0.322,0.636c-0.304,0.593-0.615,1.185-0.938,1.77c-0.104,0.186-0.21,0.37-0.318,0.559
				c-0.342,0.601-0.685,1.196-1.045,1.781c-0.083,0.134-0.173,0.269-0.255,0.397c-1.742,2.778-3.708,5.4-5.87,7.837
				c-0.05,0.056-0.098,0.118-0.153,0.18c-0.435,0.483-0.883,0.957-1.334,1.427c-0.175,0.182-0.348,0.37-0.522,0.551
				c-0.416,0.419-0.838,0.83-1.263,1.238c-0.23,0.22-0.455,0.438-0.687,0.652c-0.408,0.382-0.824,0.752-1.241,1.119
				c-0.262,0.229-0.521,0.457-0.788,0.684c-0.411,0.35-0.825,0.687-1.242,1.023c-0.287,0.229-0.579,0.46-0.87,0.688
				c-0.41,0.318-0.828,0.628-1.251,0.94c-0.309,0.229-0.619,0.448-0.939,0.671c-0.416,0.292-0.837,0.583-1.262,0.863
				c-0.33,0.223-0.669,0.437-1.006,0.652c-0.422,0.266-0.843,0.531-1.268,0.787c-0.358,0.214-0.721,0.421-1.085,0.63
				c-0.421,0.238-0.836,0.481-1.263,0.71c-0.394,0.217-0.795,0.411-1.191,0.619c-0.411,0.205-0.812,0.421-1.222,0.617
				c-0.628,0.304-1.266,0.584-1.901,0.868c-0.494,0.216-0.987,0.42-1.484,0.619c-0.521,0.215-1.037,0.43-1.562,0.625
				c-0.372,0.141-0.755,0.266-1.133,0.4c-0.49,0.172-0.978,0.344-1.475,0.507c-0.388,0.126-0.786,0.235-1.182,0.354
				c-0.487,0.146-0.977,0.294-1.474,0.426c-0.401,0.109-0.806,0.209-1.214,0.312c-0.493,0.12-0.991,0.242-1.495,0.351
				c-0.406,0.089-0.814,0.171-1.226,0.256c-0.504,0.102-1.019,0.193-1.528,0.284c-0.41,0.067-0.819,0.13-1.231,0.189
				c-0.521,0.081-1.045,0.149-1.568,0.213c-0.41,0.049-0.816,0.098-1.229,0.138c-0.539,0.055-1.084,0.1-1.625,0.138
				c-0.398,0.025-0.803,0.062-1.204,0.08c-0.565,0.03-1.146,0.042-1.718,0.054c-0.38,0.008-0.755,0.025-1.139,0.026
				c-0.637,0.002-1.278-0.019-1.921-0.037c-0.32-0.01-0.645-0.01-0.966-0.021c-0.966-0.044-1.933-0.11-2.905-0.202
				c-6.679-0.632-12.973-2.363-18.761-4.972c-18.413,18.684-44.761,29.237-72.914,26.579c-14.978-1.414-28.761-6.41-40.574-14.059
				c-13.167,23.953-39.675,39.076-68.617,36.346c-24.747-2.338-45.297-17.157-56.022-37.649
				c-15.066,7.994-32.551,11.827-50.803,10.104c-32.602-3.078-59.521-23.116-72.854-50.566c-2.405,0.174-4.852,0.161-7.332-0.072
				c-24.219-2.286-41.991-23.769-39.705-47.981c0.071-0.763,0.16-1.515,0.273-2.264C18.611,393.081,18.658,392.869,18.689,392.651z"
				/>
		</g>
		<g>
			<path fill="#74ADB1" d="M186.884,353.351l-6.569,7.41c-2.833,3.196-2.543,8.103,0.654,10.938l4.525,4.018
				c1.228,1.083,1.679,3.455,0.979,5.185c-0.64,1.604-1.215,3.26-1.687,4.933c-0.505,1.792-2.305,3.375-3.944,3.478l-6.088,0.362
				c-4.256,0.258-7.516,3.938-7.267,8.197l0.591,9.884c0.127,2.064,1.045,3.96,2.593,5.331c1.546,1.365,3.536,2.052,5.603,1.933
				l6.086-0.362c0.978-0.065,2.118,0.396,3.045,1.218c0.573,0.504,1.027,1.137,1.291,1.749c0.667,1.608,1.439,3.195,2.277,4.71
				c0.895,1.622,0.735,4.039-0.359,5.269l-4.007,4.525c-2.836,3.194-2.536,8.094,0.666,10.931l7.394,6.562
				c3.195,2.835,8.1,2.534,10.929-0.655l4.012-4.524c1.09-1.232,3.474-1.685,5.199-0.978c1.605,0.644,3.255,1.215,4.936,1.683
				c0.662,0.184,1.308,0.562,1.887,1.07c0.924,0.825,1.519,1.889,1.578,2.881l0.367,6.08c0.121,2.064,1.045,3.956,2.592,5.336
				c1.549,1.371,3.54,2.055,5.598,1.925l9.892-0.592c4.267-0.254,7.528-3.933,7.267-8.197l-0.36-6.086
				c-0.104-1.641,1.261-3.61,2.964-4.331c1.616-0.683,3.196-1.433,4.7-2.268c1.636-0.898,4.048-0.735,5.27,0.351l4.538,4.019
				c3.193,2.832,8.099,2.534,10.935-0.67l6.568-7.405c2.828-3.19,2.538-8.099-0.656-10.931l-4.539-4.022
				c-1.22-1.079-1.67-3.447-0.98-5.183c0.655-1.601,1.216-3.262,1.699-4.934c0.498-1.777,2.307-3.362,3.946-3.467l6.082-0.372
				c2.065-0.12,3.955-1.034,5.332-2.588c1.368-1.547,2.062-3.54,1.932-5.6l-0.598-9.887c-0.12-2.061-1.04-3.952-2.588-5.325
				c-1.554-1.376-3.538-2.064-5.606-1.939l-6.079,0.36c-0.97,0.063-2.109-0.391-3.042-1.216c-0.569-0.505-1.028-1.119-1.293-1.751
				c-0.659-1.605-1.421-3.19-2.264-4.701c-0.897-1.634-0.74-4.046,0.343-5.274l4.019-4.53c2.834-3.203,2.541-8.102-0.655-10.935
				l-7.396-6.558c-3.196-2.827-8.099-2.538-10.935,0.663l-4.021,4.532c-1.087,1.226-3.463,1.667-5.186,0.978
				c-1.61-0.66-3.276-1.224-4.957-1.703c-0.66-0.173-1.317-0.557-1.896-1.068c-0.925-0.821-1.515-1.889-1.569-2.867l-0.366-6.084
				c-0.126-2.074-1.048-3.96-2.595-5.328c-1.543-1.371-3.532-2.066-5.604-1.938l-9.876,0.584c-4.268,0.267-7.523,3.944-7.269,8.196
				l0.368,6.086c0.099,1.639-1.262,3.625-2.964,4.345c-1.616,0.671-3.197,1.427-4.71,2.271c-1.635,0.892-4.045,0.724-5.267-0.358
				l-4.532-4.014C194.624,349.865,189.712,350.161,186.884,353.351z M245.988,382.036c9.358,8.296,10.217,22.669,1.918,32.022
				c-8.308,9.372-22.67,10.236-32.027,1.934c-9.369-8.295-10.244-22.663-1.934-32.032
				C222.241,374.599,236.625,373.732,245.988,382.036z"/>
			<path fill="#528EA9" d="M306.536,386.064c-0.115,0.404-0.584,0.78-0.81,0.791l-3.034,0.19c-2.851,0.169-5.023,2.623-4.852,5.465
				l0.292,4.938c0.085,1.374,0.693,2.64,1.728,3.554c1.038,0.921,2.355,1.363,3.736,1.291l3.043-0.189
				c0.098,0.001,0.337,0.07,0.585,0.293c0.145,0.129,0.25,0.271,0.317,0.404c0.351,0.846,0.744,1.683,1.197,2.479
				c0.198,0.381,0.136,0.979-0.019,1.154l-2.01,2.268c-1.892,2.134-1.695,5.396,0.442,7.286l3.701,3.286
				c2.126,1.886,5.4,1.688,7.287-0.442l2.012-2.262c0.158-0.177,0.74-0.316,1.147-0.15c0.845,0.338,1.725,0.636,2.607,0.882
				c0.142,0.043,0.302,0.139,0.44,0.27c0.248,0.21,0.339,0.444,0.356,0.543l0.174,3.042c0.089,1.378,0.699,2.646,1.729,3.552
				c1.036,0.92,2.362,1.369,3.739,1.293l4.939-0.303c1.376-0.076,2.639-0.695,3.556-1.723c0.918-1.038,1.374-2.363,1.29-3.737
				l-0.181-3.043c-0.02-0.227,0.302-0.734,0.69-0.897c0.847-0.354,1.682-0.755,2.48-1.19c0.382-0.214,0.982-0.146,1.155,0.004
				l2.269,2.017c2.131,1.882,5.396,1.692,7.286-0.445l3.28-3.699c1.887-2.126,1.692-5.396-0.435-7.28l-2.269-2.014
				c-0.176-0.155-0.313-0.741-0.142-1.147c0.339-0.853,0.637-1.716,0.886-2.603c0.109-0.418,0.581-0.787,0.805-0.794l3.036-0.18
				c2.844-0.172,5.023-2.635,4.849-5.47l-0.298-4.931c-0.082-1.382-0.688-2.646-1.725-3.564c-1.026-0.914-2.363-1.37-3.746-1.281
				l-3.03,0.178c-0.099,0.001-0.338-0.071-0.588-0.286c-0.142-0.129-0.251-0.274-0.306-0.408c-0.355-0.848-0.765-1.681-1.196-2.48
				c-0.216-0.385-0.151-0.978,0.004-1.156l2.011-2.265c1.889-2.133,1.688-5.403-0.436-7.289l-3.709-3.283
				c-2.13-1.893-5.397-1.696-7.29,0.439l-2.01,2.262c-0.154,0.175-0.74,0.309-1.147,0.144c-0.847-0.338-1.715-0.64-2.594-0.883
				c-0.145-0.043-0.302-0.135-0.448-0.261c-0.244-0.221-0.352-0.456-0.354-0.549l-0.181-3.031c-0.086-1.383-0.691-2.651-1.725-3.568
				c-1.036-0.916-2.362-1.363-3.737-1.285l-4.936,0.298c-2.844,0.169-5.018,2.618-4.845,5.465l0.181,3.037
				c0.017,0.229-0.299,0.733-0.69,0.901c-0.853,0.347-1.684,0.752-2.483,1.189c-0.389,0.214-0.984,0.15-1.151,0l-2.266-2.009
				c-2.132-1.889-5.41-1.698-7.295,0.432l-3.284,3.702c-1.891,2.132-1.683,5.395,0.453,7.289l2.263,2.011
				c0.175,0.149,0.297,0.741,0.135,1.15C307.083,384.304,306.785,385.175,306.536,386.064z M337.514,385.471
				c4.153,3.681,4.537,10.047,0.855,14.198c-3.678,4.152-10.045,4.534-14.2,0.854c-4.146-3.682-4.528-10.049-0.855-14.201
				C327,382.173,333.367,381.793,337.514,385.471z"/>
		</g>
	</g>
	<g>
		<circle fill="#D0E1C5" stroke="#FFFFFF" stroke-width="9" stroke-miterlimit="10" cx="724.505" cy="400.297" r="70.38"/>
		<g>
			<g>
				<path fill="#142C34" d="M767.756,425.14c0,1.474-0.89,2.665-1.986,2.665h-82.531c-1.098,0-1.983-1.191-1.983-2.665v-52.95
					c0-1.47,0.887-2.664,1.983-2.664h82.531c1.098,0,1.986,1.193,1.986,2.664V425.14z"/>
				<rect x="684.702" y="372.724" fill="#FFFFFF" width="79.842" height="49.219"/>
				<g>
					<g>
						<path fill="#414F5B" d="M666.521,428.61c0,0-0.722,1.339,4.393,2.455h107.05c0,0,3.581-0.229,4.525-1.919l0.004-0.924
							L666.521,428.61z"/>
						<path fill="#E7E5E6" d="M666.546,425.901h115.987v2.979c0,0,0.171,0.396-1.194,0.296H667.638c0,0-1.066,0.302-1.166-0.395
							L666.546,425.901z"/>
						<path fill="#142C34" d="M777.144,427.641c0,0.115-0.077,0.21-0.171,0.21h-3.947c-0.096,0-0.174-0.095-0.174-0.21l0,0
							c0-0.114,0.078-0.207,0.174-0.207h3.947C777.065,427.434,777.144,427.525,777.144,427.641L777.144,427.641z"/>
					</g>
					<path fill="#142C34" d="M716.661,425.926c0,0-0.448,1.489,1.043,1.64h13.456c0,0,1.431,0.186,1.24-1.59L716.661,425.926z"/>
					<g>
						
							<linearGradient id="SVGID_1_" gradientUnits="userSpaceOnUse" x1="716.9805" y1="373.5757" x2="716.9805" y2="375.1108" gradientTransform="matrix(1 0 0 -1 0 801)">
							<stop  offset="0.0244" style="stop-color:#616868"/>
							<stop  offset="0.4756" style="stop-color:#696C6C"/>
							<stop  offset="0.507" style="stop-color:#717474"/>
							<stop  offset="0.6149" style="stop-color:#87898A"/>
							<stop  offset="0.7181" style="stop-color:#949797"/>
							<stop  offset="0.811" style="stop-color:#999B9C"/>
						</linearGradient>
						<path fill="url(#SVGID_1_)" d="M716.734,425.924h0.011l0.004-0.034h-0.162c0,0-0.406,1.291,0.849,1.535
							C716.363,427.111,716.734,425.924,716.734,425.924z"/>
						
							<linearGradient id="SVGID_2_" gradientUnits="userSpaceOnUse" x1="724.9609" y1="373.4985" x2="724.9609" y2="375.0269" gradientTransform="matrix(1 0 0 -1 0 801)">
							<stop  offset="0.0244" style="stop-color:#616868"/>
							<stop  offset="0.4756" style="stop-color:#696C6C"/>
							<stop  offset="0.507" style="stop-color:#717474"/>
							<stop  offset="0.6149" style="stop-color:#87898A"/>
							<stop  offset="0.7181" style="stop-color:#949797"/>
							<stop  offset="0.811" style="stop-color:#999B9C"/>
						</linearGradient>
						<path fill="url(#SVGID_2_)" d="M732.474,425.974h-0.144v0.034c0.104,1.676-1.246,1.446-1.246,1.446H717.63
							c-0.069-0.007-0.134-0.017-0.195-0.029c0.102,0.031,0.215,0.054,0.342,0.066h13.458
							C731.233,427.491,732.624,427.729,732.474,425.974z"/>
						
							<linearGradient id="SVGID_3_" gradientUnits="userSpaceOnUse" x1="732.3301" y1="374.9922" x2="732.3301" y2="375.0264" gradientTransform="matrix(1 0 0 -1 0 801)">
							<stop  offset="0.0244" style="stop-color:#616868"/>
							<stop  offset="0.4756" style="stop-color:#696C6C"/>
							<stop  offset="0.507" style="stop-color:#717474"/>
							<stop  offset="0.6149" style="stop-color:#87898A"/>
							<stop  offset="0.7181" style="stop-color:#949797"/>
							<stop  offset="0.811" style="stop-color:#999B9C"/>
						</linearGradient>
						<path fill="url(#SVGID_3_)" d="M732.33,426.008v-0.034h-0.002C732.328,425.985,732.328,425.992,732.33,426.008z"/>
					</g>
				</g>
				<path fill="#77C7D1" d="M708.725,396.021v1.086h-16.312h-1.086v-1.086v-16.311h1.086v16.311H708.725z M706.548,379.711
					l-4.279,0.7l1.028,1.257l-9.053,7.406l0.688,0.842l9.057-7.407l1.025,1.257L706.548,379.711z M705.365,385.915l-0.994-1.215
					v10.236h2.177v-12.148L705.365,385.915z M697.85,388.935v6h2.176v-7.778L697.85,388.935z M694.775,391.447l-0.188-0.232v3.721
					h2.175v-5.111L694.775,391.447z M701.11,386.266v8.67h2.175v-10.448L701.11,386.266z"/>
				<path fill="#FDD47C" d="M708.725,418.633v1.086h-16.312h-1.086v-1.086v-16.311h1.086v16.311H708.725z M706.548,402.322
					l-4.279,0.697l1.028,1.262l-9.053,7.405l0.688,0.843l9.057-7.408l1.025,1.257L706.548,402.322z M705.365,408.525l-0.994-1.214
					v10.233h2.177v-12.148L705.365,408.525z M697.85,411.547v5.999h2.176v-7.778L697.85,411.547z M694.775,414.062l-0.188-0.235
					v3.72h2.175v-5.107L694.775,414.062z M701.11,408.877v8.669h2.175v-10.445L701.11,408.877z"/>
				<rect x="710.431" y="379.483" fill="#EB622A" width="49.513" height="3.002"/>
				<rect x="710.431" y="385.977" fill="#EF8260" width="49.513" height="1.361"/>
				<rect x="710.431" y="387.338" fill="#414F5B" width="49.513" height="12.413"/>
			</g>
			<rect x="710.258" y="404.265" fill="#FDD47C" width="49.918" height="4.994"/>
			<rect x="710.258" y="412.821" fill="#77C7D1" width="49.918" height="4.28"/>
		</g>
	</g>
	<g>
		<circle fill="#D0E1C5" stroke="#FFFFFF" stroke-width="9" stroke-miterlimit="10" cx="319.115" cy="142.718" r="70.38"/>
		<g>
			<path fill="#BDC0C1" d="M291.813,169.617c0,4.153-3.367,7.52-7.518,7.52h-12.531c-4.153,0-7.52-3.366-7.52-7.52v-55.133
				c0-4.151,3.367-7.519,7.52-7.519h12.531c4.151,0,7.518,3.368,7.518,7.519V169.617z"/>
			<g>
				<rect x="266" y="110" fill="#E8E8E9" width="23" height="63"/>
				<rect x="271" y="140" fill="#BDC0C1" width="15" height="5"/>
				<rect x="271" y="152" fill="#BDC0C1" width="15" height="4"/>
				<rect x="271" y="159" fill="#BDC0C1" width="15" height="1"/>
				<polygon fill="#BDC0C1" points="271.32,114 286.679,114 286.679,114 				"/>
				<rect x="271" y="115" fill="#BDC0C1" width="15" height="2"/>
				<rect x="271" y="119" fill="#BDC0C1" width="15" height="2"/>
				<rect x="271" y="122" fill="#BDC0C1" width="15" height="1"/>
				<circle fill="#676767" cx="278.143" cy="128.877" r="3.275"/>
				<path fill="#BDC0C1" d="M280.447,128.842c0,1.271-1.033,2.301-2.302,2.301c-1.274,0-2.306-1.03-2.306-2.301
					s1.032-2.304,2.306-2.304C279.415,126.538,280.447,127.571,280.447,128.842z"/>
				<rect x="271.961" y="147" fill="#999898" width="2" height="1"/>
				<rect x="282" y="147" fill="#CCCBCB" width="4" height="1"/>
				<rect x="276" y="147" fill="#B3B3B3" width="6" height="1"/>
			</g>
			<g>
				<g>
					<g>
						<rect x="299.161" y="118.72" fill="#FFFFFF" width="72.896" height="41.483"/>
						<rect x="301.511" y="121.804" fill="#EF8260" width="67.375" height="3.263"/>
						<rect x="331.738" y="128.837" fill="#EF8260" width="37.147" height="1.197"/>
						<path fill="#96C67A" d="M311.056,128.032c-4.174,0-7.58,2.192-7.58,4.881c0,2.037,1.96,3.792,4.728,4.521
							c0.454,1.252,1.188,2.346,2.296,3.596c-0.483-1.02-0.735-2.201-0.793-3.313c0.439,0.05,0.887,0.077,1.349,0.077
							c4.176,0,7.579-2.191,7.579-4.881C318.635,130.224,315.23,128.032,311.056,128.032z"/>
						<g>
							<rect x="303.547" y="143.258" fill="#EF8260" width="15.087" height="2.263"/>
							<rect x="303.547" y="147.784" fill="#FDD47C" width="15.087" height="2.263"/>
							<rect x="303.547" y="152.309" fill="#F9B853" width="15.087" height="1.509"/>
							<rect x="331.458" y="153.063" fill="#F9B853" width="37.719" height="3.77"/>
						</g>
					</g>
					<path fill="#96C67A" d="M359.163,149.862v1.15h-17.254h-1.148v-1.15v-17.254h1.148v17.254H359.163z M356.863,132.608
						l-4.532,0.741l1.088,1.332l-9.575,7.836l0.728,0.889l9.579-7.833l1.09,1.327L356.863,132.608z M355.608,139.171l-1.046-1.285
						v10.828h2.301v-12.848L355.608,139.171z M347.658,142.367v6.347h2.302v-8.23L347.658,142.367z M344.411,145.026l-0.201-0.249
						v3.937h2.3v-5.407L344.411,145.026z M351.107,139.543v9.17h2.306V137.66L351.107,139.543z"/>
				</g>
				<g>
					<path fill="#3D3D3D" d="M372.245,115.655h-73.733c-0.96,0-1.74,0.779-1.74,1.737v45.023h77.21v-45.023
						C373.982,116.435,373.204,115.655,372.245,115.655z M371.59,159.371h-72.426v-40.673h72.426V159.371z"/>
					<path fill="#E8E8E9" d="M372.245,169.375h-73.733c-0.96,0-1.74-0.778-1.74-1.739v-5.22h77.212v5.22
						C373.984,168.597,373.204,169.375,372.245,169.375z"/>
					<path fill="#BDC0C1" d="M323.091,178.473v-0.958l3.047-0.372l2.104-8.023h15.583l2.101,8.023l3.049,0.372v0.958H323.091z"/>
					<path fill="#E8E8E9" d="M336.14,116.762c0.227,0,0.406,0.183,0.406,0.408c0,0.226-0.181,0.409-0.406,0.409
						s-0.408-0.183-0.408-0.409C335.731,116.945,335.914,116.762,336.14,116.762z"/>
					<path opacity="0.08" fill="#3D3D3D" enable-background="new    " d="M327.957,170.64l0.284-1.521h15.583l0.284,1.521H327.957z"
						/>
				</g>
			</g>
		</g>
	</g>
	<g>
		<circle fill="#D0E1C5" stroke="#FFFFFF" stroke-width="9" stroke-miterlimit="10" cx="578.412" cy="599.141" r="70.38"/>
		<g>
			<path fill="#C4C6C9" d="M630.453,628.489v1.791c-0.345,1.706-1.729,2.349-3.201,2.349c-4.164,0-8.331,0.062-12.497-0.037
				c-1.384-0.039-2.434,0.32-3.251,1.359c-1.062,1.322-2.408,2.027-4.09,2.101c-0.086,0-0.16,0.025-0.222,0.087h-2.759
				c-1.235-0.037-2.251-0.643-3.3-1.173c-0.248-0.125-0.396-0.347-0.581-0.559c-1.002-1.188-2.125-1.827-3.818-1.815
				c-12.484,0.074-24.971,0.05-37.452,0.025c-0.987,0-1.719,0.234-2.374,1.051c-1.225,1.519-3.017,2.063-4.846,2.471h-2.597
				c-0.889-0.087-1.755-0.333-2.546-0.705c-1.002-0.454-1.879-1.187-2.559-2.062c-0.445-0.557-0.927-0.753-1.605-0.753
				c-4.302,0.012-8.616,0.012-12.916,0.012c-1.076,0-1.967-0.308-2.672-1.112c-0.396-0.457-0.617-0.939-0.507-1.568
				c0.074-0.359,0.023-0.743,0.037-1.127c0.013-1.606,1.287-2.68,2.918-2.547c1.384,0.101,2.768,0.026,4.15,0.037h6.986
				c1.766,0,1.913,0.062,2.632-1.508c0.791-1.74,2.126-2.865,3.597-3.918c0.358-0.261,0.458-0.568,0.458-0.963
				c0.013-2.411,0.013-4.834,0-7.244c-0.014-0.853-0.213-1.026-1.176-1.026h9.702c-1.84,0-1.876,0.039-1.876,1.854
				c0,2.041,0.022,4.067-0.013,6.106c-0.013,0.9,0.419,1.372,1.146,1.842c1.163,0.754,2.275,1.631,2.771,3.041
				c0.185,0.545,0.604,0.951,0.864,1.458c0.125,0.247,0.421,0.309,0.704,0.333c0.322,0.024,0.656,0.024,0.978,0.024
				c11.791,0,23.571-0.024,35.361,0.013c1.227,0.012,1.939-0.32,2.413-1.495c0.691-1.706,1.978-2.953,3.57-3.868
				c0.617-0.348,0.853-0.828,0.853-1.521c-0.012-2.163,0-4.327-0.012-6.501c-0.014-1.063-0.224-1.273-1.297-1.286h8.812
				c-0.95,0.013-1.172,0.235-1.186,1.151c-0.012,2.299,0,4.599,0,6.907c0,0.655,0.26,1.052,0.864,1.398
				c1.707,0.951,2.854,2.444,3.62,4.226c0.311,0.705,0.744,0.977,1.485,0.977c4.027-0.011,8.068,0.05,12.101-0.05
				c1.088-0.021,1.94,0.112,2.669,0.94C630.146,627.599,630.096,628.141,630.453,628.489z"/>
			<path fill="#D0D0D0" d="M575.129,563.483c0.258,0.444,0.432,0.879,0.356,1.386c-0.11,0.691-0.086,1.395-0.086,2.101
				c-0.014,10.433-0.014,20.862,0,31.309c0,0.482-0.024,0.966,0.036,1.458c0.199,1.746-1.112,3.324-2.879,3.426
				c-1.224,0.086-2.436,0.023-3.658,0.036c-0.209,0-0.48-0.062-0.581,0.173c-0.111,0.236,0.136,0.384,0.282,0.521
				c1.448,1.407,2.659,3.002,3.845,4.622c0.473,0.629,0.916,1.322,0.52,2.076c-0.419,0.791-1.199,1.074-2.125,1.074
				c-2.905-0.013-5.797-0.013-8.702-0.013h-18.54c-3.609-0.013-7.22,0-10.827,0c-0.482,0-0.976-0.013-1.457,0
				c-0.778,0-1.461-0.173-1.854-0.927c-0.396-0.766-0.05-1.408,0.384-2.025c0.692-1.003,1.472-1.943,2.312-2.819
				c0.84-0.877,1.606-1.828,2.655-2.51c-0.209-0.259-0.47-0.173-0.69-0.173c-1.571-0.013-3.14,0.013-4.709-0.013
				c-0.605-0.013-1.174-0.125-1.719-0.396c-0.88-0.443-1.125-1.248-1.311-2.102v-36.427c0.186-0.456,0.16-0.987,0.48-1.411
				c0.421-0.542,1.062-0.529,1.633-0.702h44.721C574.053,562.296,574.683,562.729,575.129,563.483z"/>
			<path fill="#D0D0D0" d="M630.219,564.692c-0.037,0.274-0.012,0.546-0.012,0.816v34.536c0.073,1.854-1.052,3.065-2.906,3.141
				c-1.162,0.038-2.336,0-3.496,0.012c-0.21,0-0.471-0.062-0.594,0.16c-0.138,0.271,0.123,0.445,0.283,0.605
				c0.965,0.979,2.062,1.842,2.793,3.028c0.433,0.692,0.879,1.374,1.3,2.062c0.913,1.497-0.188,2.597-1.497,2.597
				c-3.586,0-7.156-0.013-10.729,0H598.7c-3.991,0-7.998,0.013-11.989-0.013c-0.495,0-1.015,0.075-1.471-0.296
				c-0.78-0.654-0.989-1.779-0.359-2.607c1.312-1.73,2.608-3.512,4.376-4.845c0.173-0.125,0.384-0.271,0.285-0.533
				c-0.101-0.196-0.334-0.16-0.521-0.16c-1.509-0.013-3.027,0.037-4.55-0.013c-1.471-0.05-2.384-1.002-3.177-2.103
				c-0.136-0.185-0.123-0.432-0.047-0.629c0.246-0.827,0.172-1.669,0.172-2.509v-31.053c0-0.753,0.013-1.518-0.086-2.271
				c-0.138-0.953,0.63-1.966,1.557-2.202c0.209-0.047,0.421-0.099,0.568-0.271h44.721c0.234,0.099,0.493,0.185,0.729,0.321
				C630.034,563.102,630.367,563.51,630.219,564.692z"/>
			<path fill="#D8DDDF" d="M550.767,600.512c-6.906,0-13.818,0-20.729,0c-1.288,0-1.386-0.097-1.386-1.386
				c0-11.106,0-22.218,0-33.329c0-1.289,0.088-1.375,1.392-1.375c13.819,0,27.639,0,41.456,0c1.302,0,1.384,0.082,1.384,1.384
				c0,11.11,0,22.219,0,33.328c0,1.298-0.082,1.378-1.386,1.378C564.586,600.512,557.677,600.512,550.767,600.512z"/>
			<path fill="#D8DDDF" d="M605.859,564.422c6.907,0,13.814,0,20.725,0c1.212,0.002,1.301,0.086,1.303,1.293
				c0.002,11.162,0,22.322,0,33.482c-0.002,1.218-0.097,1.313-1.286,1.313c-13.867,0-27.738,0-41.606,0
				c-1.167,0-1.329-0.148-1.329-1.298c-0.002-11.16-0.002-22.32,0-33.481c0-1.168,0.146-1.309,1.311-1.311
				C591.938,564.422,598.898,564.422,605.859,564.422z"/>
			<path fill="#D8DDDF" d="M588.137,608.873c2.008-2.451,4.244-4.46,6.961-5.903c0.279-0.148,0.56-0.175,0.858-0.175
				c7.019,0.002,14.035,0.002,21.052,0c0.328,0,0.632,0.031,0.933,0.197c2.576,1.436,4.615,3.456,6.447,5.881
				C612.282,608.873,600.28,608.873,588.137,608.873z"/>
			<path fill="#D8DDDF" d="M533.124,608.886c1.337-1.7,2.834-3.073,4.443-4.35c1.586-1.25,3.27-1.829,5.361-1.786
				c6.311,0.13,12.624,0.052,18.937,0.037c0.479,0,0.892,0.101,1.302,0.343c2.46,1.445,4.448,3.396,6.197,5.756
				C557.256,608.886,545.256,608.886,533.124,608.886z"/>
			<path fill="#C4C6C9" d="M550.64,598.569c-6.066,0-12.138,0-18.207,0c-1.237,0-1.462-0.221-1.462-1.469
				c-0.005-9.914-0.003-19.83,0-29.743c0-1.303,0.198-1.494,1.516-1.494c12.085-0.002,24.167-0.002,36.249,0
				c1.453,0,1.562,0.107,1.562,1.583c0,9.861,0,19.725,0,29.587c0,1.396-0.142,1.536-1.534,1.536
				C562.722,598.569,556.683,598.569,550.64,598.569z"/>
			<path fill="#C4C6C9" d="M605.683,598.569c-6.094,0-12.188,0.002-18.284,0c-1.166,0-1.365-0.195-1.365-1.376
				c-0.002-9.993-0.002-19.991,0-29.989c0-1.173,0.177-1.341,1.384-1.341c12.164-0.002,24.326-0.002,36.491,0
				c1.209,0,1.437,0.213,1.438,1.405c0.005,9.97,0.005,19.94,0,29.907c0,1.171-0.247,1.394-1.456,1.394
				C617.82,598.569,611.753,598.569,605.683,598.569z"/>
			<path fill="#F0EFED" d="M550.621,596.933c-5.607,0-11.214,0-16.821-0.002c-1.068,0-1.082-0.013-1.082-1.097
				c-0.002-9.076-0.002-18.146,0-27.226c0-1.084,0.008-1.096,1.082-1.096c11.242,0,22.484,0,33.728,0
				c1.119,0,1.124,0.004,1.124,1.137c0.002,9.052,0.002,18.099,0,27.146c0,1.132-0.005,1.134-1.126,1.136
				C561.891,596.933,556.256,596.933,550.621,596.933z"/>
			<path fill="#F0EFED" d="M605.584,596.933c-5.581,0-11.16,0-16.743,0c-1.15,0-1.153-0.002-1.156-1.103
				c-0.002-9.074-0.002-18.149,0.003-27.229c0-1.075,0.009-1.089,1.087-1.089c11.241,0,22.483,0,33.729,0
				c1.113,0,1.117,0.004,1.117,1.145c0,9.048,0,18.095,0,27.145c0,1.127-0.004,1.129-1.129,1.131
				C616.855,596.933,611.221,596.933,605.584,596.933z"/>
		</g>
		<g>
			<rect x="557" y="569" fill="#C2C6C0" width="10" height="2"/>
			<rect x="557" y="571" fill="#C2C6C0" width="10" height="1"/>
			<rect x="557" y="573" fill="#C2C6C0" width="10" height="4"/>
			<polygon fill="#C2C6C0" points="557.276,578 566.492,578 566.492,578 			"/>
		</g>
		<rect x="534" y="573" fill="#77C7D1" width="12" height="5"/>
		<rect x="534" y="578" fill="#77C7D1" width="18" height="3"/>
		<rect x="534" y="582" fill="#77C7D1" width="23" height="1"/>
		<rect x="534" y="584" fill="#FDD47C" width="17" height="4"/>
		<rect x="534" y="590" fill="#FDD47C" width="23" height="1"/>
		<rect x="590" y="571" fill="#77C7D1" width="32" height="6"/>
		<polygon fill="#A1A0A0" points="590.412,582 600.486,582 600.486,582 		"/>
		<polygon fill="#FDD47C" points="589.531,583 601.818,583 601.818,583 		"/>
		<rect x="590" y="583" fill="#FDD47C" width="13" height="1"/>
		<polygon fill="#A1A0A0" points="590.412,584 600.593,584 600.593,584 		"/>
		<rect x="590" y="584" fill="#FDD47C" width="13" height="3"/>
		<rect x="590" y="587" fill="#FDD47C" width="13" height="1"/>
		<polygon fill="#A1A0A0" points="601.494,582 610.561,582 610.561,582 		"/>
		<polygon fill="#A1A0A0" points="601.724,584 610.774,584 610.774,584 		"/>
		<rect x="615" y="578" fill="#FDD47C" width="7" height="1"/>
		<polygon fill="#A1A0A0" points="612.576,582 621.643,582 621.643,582 		"/>
		<polygon fill="#A1A0A0" points="613.036,584 622.086,584 622.086,584 		"/>
		<g>
			<rect x="590" y="590" fill="#C2C5C0" width="32" height="2"/>
			<polygon fill="#C2C5C0" points="589.531,578 601.818,578 601.818,578 			"/>
			<rect x="590" y="578" fill="#C2C5C0" width="13" height="1"/>
			<rect x="590" y="581" fill="#C2C5C0" width="13" height="1"/>
			<polygon fill="#C2C5C0" points="601.818,578 611.034,578 611.034,578 			"/>
			<rect x="603" y="578" fill="#C2C5C0" width="8" height="1"/>
			<rect x="603" y="581" fill="#C2C5C0" width="8" height="1"/>
			<polygon fill="#C2C5C0" points="601.818,583 611.034,583 611.034,583 			"/>
			<rect x="603" y="583" fill="#C2C5C0" width="8" height="1"/>
			<rect x="603" y="584" fill="#C2C5C0" width="8" height="3"/>
			<rect x="603" y="587" fill="#C2C5C0" width="8" height="1"/>
			<rect x="615" y="581" fill="#C2C5C0" width="7" height="1"/>
			<polygon fill="#C2C5C0" points="614.106,583 621.786,583 621.786,583 			"/>
			<rect x="615" y="584" fill="#C2C5C0" width="7" height="3"/>
		</g>
		<line fill="none" x1="562.137" y1="611.651" x2="555.968" y2="611.651"/>
		<line fill="none" x1="546.266" y1="611.651" x2="543.597" y2="611.651"/>
		<line fill="none" x1="610.243" y1="611.651" x2="613.792" y2="611.651"/>
		<line fill="none" x1="601.433" y1="611.651" x2="598.699" y2="611.651"/>
	</g>
	<path fill="#C2C4B7" d="M501.523,228.098l5.33,5.524c0,0-0.063,0.024-0.146,0.056c0.298,0.342,0.493,0.777,0.563,1.229
		c0.149,0.257,0.242,0.544,0.289,0.835c0.062,0.156,0.111,0.316,0.143,0.479c0.074-0.028,0.13-0.047,0.13-0.047l-0.271,7.639
		l15.637-14.899L501.523,228.098z"/>
	<path fill="#C2C4B7" d="M259.708,205.661l6.928,3.308c0,0-0.05,0.044-0.117,0.104c0.4,0.217,0.734,0.556,0.958,0.955
		c0.23,0.188,0.417,0.424,0.563,0.682c0.114,0.124,0.215,0.256,0.301,0.398c0.061-0.051,0.105-0.089,0.105-0.089l2.422,7.25
		l9.427-19.434L259.708,205.661z"/>
	<path fill="#C2C4B7" d="M635.818,403.438l3.136,7.009c0,0-0.065,0-0.156,0.002c0.167,0.424,0.201,0.897,0.113,1.348
		c0.054,0.293,0.043,0.594-0.013,0.885c0.007,0.168-0.005,0.335-0.028,0.499c0.078,0,0.138-0.002,0.138-0.002l-2.853,7.093
		l19.771-8.698L635.818,403.438z"/>
	<path fill="#C2C4B7" d="M504.652,548.383l0.15,7.678c0,0-0.062-0.026-0.144-0.061c-0.016,0.454-0.166,0.906-0.425,1.284
		c-0.064,0.291-0.191,0.563-0.355,0.811c-0.06,0.156-0.134,0.307-0.222,0.446c0.074,0.032,0.127,0.053,0.127,0.053l-5.393,5.417
		l21.598-0.289L504.652,548.383z"/>
	<path fill="#C2C4B7" d="M259.302,576.376l-3.832,6.653c0,0-0.04-0.055-0.093-0.125c-0.248,0.382-0.611,0.688-1.027,0.883
		c-0.204,0.214-0.455,0.382-0.723,0.509c-0.132,0.104-0.273,0.193-0.42,0.271c0.046,0.062,0.081,0.109,0.081,0.109l-7.415,1.856
		l18.649,10.896L259.302,576.376z"/>
</g>
</svg>
