<?xml version="1.0" encoding="utf-8"?>
<!-- Generator: Adobe Illustrator 16.0.0, SVG Export Plug-In . SVG Version: 6.00 Build 0)  -->
<!DOCTYPE svg PUBLIC "-//W3C//DTD SVG 1.1//EN" "http://www.w3.org/Graphics/SVG/1.1/DTD/svg11.dtd">
<svg version="1.1" id="Capa_1" xmlns="http://www.w3.org/2000/svg" xmlns:xlink="http://www.w3.org/1999/xlink" x="0px" y="0px"
	 width="767.96px" height="760.563px" viewBox="16.02 38.693 767.96 760.563" enable-background="new 16.02 38.693 767.96 760.563"
	 xml:space="preserve">
<g>
	<path fill="#E5E5E5" d="M519.41,465.696v52.818c0,7.472-4.66,13.54-10.42,13.54H291.01c-5.76,0-10.42-6.068-10.42-13.54v-52.818
		H519.41z"/>
	<path fill="#F8F7F7" d="M519.41,257.946v207.75H280.59v-207.75c0-7.48,4.66-13.54,10.42-13.54h217.98
		C514.75,244.406,519.41,250.466,519.41,257.946z"/>
	<path fill="#E5E5E5" d="M271.2,465.696v52.818c0,7.472-4.66,13.54-10.421,13.54H42.8c-5.75,0-10.42-6.068-10.42-13.54v-52.818
		H271.2z"/>
	<path fill="#F8F7F7" d="M271.2,257.946v207.75H32.38v-207.75c0-7.48,4.67-13.54,10.42-13.54h217.979
		C266.54,244.406,271.2,250.466,271.2,257.946z"/>
	<path fill="#E5E5E5" d="M767.24,465.696v52.818c0,7.472-4.66,13.54-10.42,13.54H538.84c-5.75,0-10.42-6.068-10.42-13.54v-52.818
		H767.24z"/>
	<path fill="#F8F7F7" d="M767.24,257.946v207.75H528.42v-207.75c0-7.48,4.67-13.54,10.42-13.54h217.98
		C762.58,244.406,767.24,250.466,767.24,257.946z"/>
	<g>
		<g>
			<defs>
				<path id="SVGID_1_" d="M783.979,787.256c0,6.627-5.37,12-12,12H28.021c-6.628,0-12-5.373-12-12V50.693c0-6.627,5.372-12,12-12
					h743.958c6.63,0,12,5.373,12,12V787.256z"/>
			</defs>
			<clipPath id="SVGID_2_">
				<use xlink:href="#SVGID_1_"  overflow="visible"/>
			</clipPath>
			<g clip-path="url(#SVGID_2_)">
				<g>
					<g>
						<g>
							<rect x="16.021" y="38.693" fill="#E2E1E1" width="767.958" height="92.337"/>
							<path fill="#FFFFFF" d="M519,106.213c0,5.392-2.762,9.766-6.166,9.766H138.959c-3.408,0-6.163-4.374-6.163-9.766v-11.39
								c0-5.386,2.755-9.756,6.163-9.756h373.875c3.404,0,6.166,4.37,6.166,9.756V106.213z"/>
							<path fill="#FFFFFF" d="M770.018,106.213c0,5.392-1.567,9.766-3.5,9.766H554.311c-1.934,0-3.495-4.374-3.495-9.766v-11.39
								c0-5.386,1.562-9.756,3.495-9.756h212.207c1.933,0,3.5,4.37,3.5,9.756V106.213L770.018,106.213z"/>
							<path fill="#BF282D" d="M37.884,69.609c0,5.772,4.684,10.458,10.456,10.458c5.779,0,10.459-4.687,10.459-10.458
								c0-5.773-4.68-10.454-10.459-10.454C42.567,59.155,37.884,63.835,37.884,69.609z"/>
							<path fill="#F8AE3B" d="M67.854,69.609c0,5.772,4.683,10.458,10.459,10.458c5.775,0,10.457-4.687,10.457-10.458
								c0-5.773-4.682-10.454-10.457-10.454C72.536,59.155,67.854,63.835,67.854,69.609z"/>
							<path fill="#8CBF43" d="M97.823,69.609c0,5.772,4.684,10.458,10.459,10.458c5.776,0,10.456-4.687,10.456-10.458
								c0-5.773-4.68-10.454-10.456-10.454C102.507,59.155,97.823,63.835,97.823,69.609z"/>
						</g>
					</g>
				</g>
			</g>
		</g>
	</g>
	<g>
		<path fill="#ADADAD" d="M106.736,103.503c-2.049-2.059-4.036-4.062-6.031-6.057c-0.555-0.554-0.972-1.172-1.118-1.958
			c-0.271-1.459,0.401-2.882,1.722-3.608c1.247-0.685,2.874-0.489,3.901,0.53c2.91,2.887,5.813,5.783,8.696,8.699
			c1.257,1.272,1.269,3.398,0.015,4.671c-2.887,2.927-5.802,5.828-8.723,8.721c-0.295,0.293-0.687,0.527-1.076,0.681
			c-1.523,0.601-3.18,0.052-4.063-1.301c-0.874-1.34-0.676-3.076,0.512-4.271c1.947-1.961,3.907-3.911,5.863-5.864
			C106.524,103.655,106.634,103.584,106.736,103.503z"/>
	</g>
	<g>
		<path fill="#ADADAD" d="M64.561,103.503c2.048-2.059,4.036-4.062,6.031-6.057c0.555-0.554,0.972-1.172,1.118-1.958
			c0.271-1.459-0.401-2.882-1.722-3.608c-1.247-0.685-2.874-0.489-3.901,0.53c-2.91,2.887-5.814,5.783-8.696,8.699
			c-1.257,1.272-1.269,3.398-0.015,4.671c2.887,2.927,5.801,5.828,8.722,8.721c0.296,0.293,0.688,0.527,1.077,0.681
			c1.523,0.601,3.18,0.052,4.063-1.301c0.874-1.34,0.676-3.076-0.512-4.271c-1.947-1.961-3.907-3.911-5.863-5.864
			C64.772,103.655,64.663,103.584,64.561,103.503z"/>
	</g>
	<g>
		<path fill="#ADADAD" d="M498.92,91.881c0.057-0.726,0.105-1.421,0.17-2.114c0.064-0.701,0.176-0.78,0.787-0.463
			c1.885,0.974,3.664,2.114,5.297,3.475c0.066,0.057,0.129,0.122,0.189,0.187c0.264,0.291,0.287,0.448-0.008,0.702
			c-0.563,0.483-1.128,0.975-1.744,1.38c-1.164,0.765-2.353,1.5-3.562,2.192c-0.783,0.448-0.957,0.322-1.021-0.585
			c-0.047-0.649-0.076-1.3-0.115-2.037c-0.521,0.173-1.025,0.299-1.494,0.504c-2.75,1.21-4.373,3.97-4.115,6.959
			c0.263,3.039,2.728,5.637,5.752,6.136c3.671,0.606,7.097-1.744,7.91-5.207c0.111-0.47,0.146-0.962,0.176-1.446
			c0.048-0.802,0.451-1.357,1.123-1.485c0.877-0.165,1.658,0.467,1.648,1.365c-0.029,2.384-0.814,4.489-2.389,6.286
			c-1.634,1.861-3.693,2.956-6.144,3.243c-2.789,0.328-5.293-0.422-7.444-2.236c-1.939-1.636-3.101-3.736-3.347-6.256
			c-0.356-3.659,1.023-6.604,3.938-8.822C495.822,92.677,497.305,92.113,498.92,91.881z"/>
	</g>
	<g>
		<g>
			<path fill="#ADADAD" d="M747.619,68.814c1.678,0,3.24,0,4.803,0.001c0.178,0,0.359-0.009,0.533,0.019
				c0.402,0.064,0.617,0.334,0.686,0.718c0.062,0.339-0.178,0.729-0.526,0.838c-0.191,0.06-0.404,0.077-0.607,0.078
				c-2.192,0.005-4.391,0.003-6.586,0.002c-0.877,0-1.147-0.278-1.147-1.166c0-2.182,0-4.363,0-6.544
				c0-0.11-0.007-0.221,0.006-0.329c0.047-0.498,0.41-0.853,0.848-0.839c0.443,0.013,0.793,0.376,0.797,0.879
				c0.012,1.537,0.006,3.074,0.006,4.61c0,0.145,0,0.29,0,0.434c0.062,0.047,0.123,0.094,0.185,0.14
				c0.067-0.134,0.106-0.298,0.207-0.399c2.75-2.761,5.504-5.518,8.268-8.265c0.203-0.202,0.476-0.375,0.746-0.457
				c0.332-0.1,0.619,0.086,0.791,0.386c0.168,0.298,0.152,0.608-0.053,0.889c-0.105,0.142-0.234,0.269-0.359,0.395
				c-2.733,2.737-5.471,5.473-8.207,8.209C747.898,68.519,747.799,68.627,747.619,68.814z"/>
			<path fill="#ACADAE" d="M748.924,71.471l-3.004-0.001c-1.426,0-2.148-0.729-2.148-2.166V62.76
				c-0.002-0.188-0.002-0.309,0.011-0.428c0.096-0.991,0.879-1.741,1.819-1.741c1.056,0.031,1.814,0.836,1.82,1.874
				c0.006,0.92,0.008,1.841,0.008,2.762c2.313-2.32,4.629-4.636,6.951-6.945c0.332-0.328,0.744-0.578,1.162-0.705
				c0.74-0.226,1.535,0.122,1.949,0.848c0.362,0.646,0.317,1.383-0.115,1.976c-0.135,0.18-0.289,0.34-0.445,0.496l-6.914,6.916
				l2.404,0.001l0.211-0.001c0.164,0,0.324,0.008,0.482,0.034c0.797,0.127,1.362,0.699,1.51,1.53
				c0.15,0.841-0.381,1.705-1.211,1.967c-0.264,0.082-0.56,0.123-0.902,0.124L748.924,71.471z M745.771,68.271v1.02l0.563-0.586
				L745.771,68.271z"/>
		</g>
		<g>
			<path fill="#ADADAD" d="M762.996,50.938c-1.396,0-2.793,0-4.189,0c-0.313,0-0.633,0.008-0.946-0.013
				c-0.429-0.027-0.75-0.355-0.779-0.761c-0.025-0.38,0.246-0.741,0.649-0.838c0.144-0.035,0.298-0.042,0.447-0.042
				c2.224-0.003,4.447-0.003,6.67-0.001c0.822,0.001,1.109,0.292,1.111,1.123c0,2.209,0,4.419,0,6.629
				c0,0.082,0.004,0.165-0.002,0.247c-0.039,0.527-0.396,0.894-0.852,0.882c-0.462-0.012-0.798-0.381-0.8-0.917
				c-0.01-1.537-0.006-3.074-0.006-4.611c0-0.132,0-0.265,0-0.396c-0.061-0.049-0.125-0.098-0.188-0.147
				c-0.064,0.136-0.101,0.303-0.201,0.404c-2.73,2.742-5.467,5.478-8.205,8.213c-0.135,0.135-0.275,0.272-0.432,0.378
				c-0.334,0.222-0.738,0.167-1.017-0.115c-0.279-0.283-0.324-0.68-0.096-1.014c0.106-0.157,0.244-0.295,0.379-0.431
				c2.727-2.729,5.453-5.456,8.182-8.179c0.105-0.105,0.25-0.172,0.377-0.256C763.064,51.039,763.031,50.988,762.996,50.938z"/>
			<path fill="#ACADAE" d="M754.836,62.221c-0.482,0-0.939-0.196-1.289-0.551c-0.613-0.623-0.701-1.561-0.209-2.279
				c0.16-0.234,0.346-0.421,0.494-0.571c2.295-2.296,4.588-4.59,6.883-6.881h-1.91l-0.412,0.001c-0.198,0-0.397-0.003-0.598-0.016
				c-0.924-0.058-1.645-0.768-1.711-1.688c-0.062-0.88,0.533-1.671,1.412-1.882c0.256-0.062,0.498-0.07,0.682-0.07l3.904-0.002
				l2.766,0.001c1.379,0.001,2.109,0.735,2.111,2.122v6.63c0.002,0.144,0.002,0.232-0.006,0.318
				c-0.076,1.05-0.846,1.811-1.826,1.811c-1.055-0.027-1.815-0.85-1.82-1.915c-0.006-0.907-0.006-1.815-0.006-2.724
				c-2.293,2.299-4.59,4.594-6.887,6.889c-0.168,0.168-0.354,0.348-0.582,0.501C755.529,62.115,755.186,62.221,754.836,62.221z
				 M764.17,50.859l0.789,0.622v-1.076c0-0.047-0.002-0.087-0.004-0.12c-0.031-0.002-0.066-0.003-0.109-0.003h-1.086L764.17,50.859z
				"/>
		</g>
	</g>
	<path fill="#E2E1E1" d="M16.02,131.026v518.23c0,6.63,5.37,12,12,12h743.96c6.629,0,12-5.37,12-12v-518.23H16.02z M778.74,644.406
		c0,6.54-5.291,11.84-11.83,11.84H33.09c-6.54,0-11.83-5.3-11.83-11.84v-511.16h757.48V644.406z"/>
	<g>
		<path fill="#000101" d="M173.336,356.925c-0.134,0.938-0.298,1.75-0.343,2.566c-0.032,0.542-0.243,0.624-0.725,0.62
			c-7.131-0.014-14.258-0.016-21.387,0.005c-0.586,0.001-0.695-0.199-0.692-0.728c0.023-2.756-0.003-5.512,0.023-8.267
			c0.006-0.583-0.067-0.825-0.76-0.825c-19.882,0.022-39.763,0.021-59.645,0.003c-0.591,0-0.744,0.134-0.743,0.736
			c0.022,7.358,0.025,14.714-0.004,22.067c-0.001,0.657,0.177,0.777,0.796,0.776c19.853-0.017,39.707-0.017,59.561,0.001
			c0.64,0,0.808-0.154,0.799-0.798c-0.037-2.726-0.007-5.451-0.025-8.179c-0.002-0.479,0.063-0.699,0.636-0.697
			c7.185,0.021,14.371,0.018,21.558,0.001c0.436,0,0.601,0.146,0.646,0.556c0.072,0.676,0.184,1.348,0.26,2.022
			c0.044,0.379,0.157,0.503,0.544,0.307c3.263-1.643,6.53-3.274,9.914-4.968C180.219,360.363,176.817,358.664,173.336,356.925z
			 M147.391,370.65c0.004,0.646-0.166,0.787-0.798,0.787c-9.087-0.022-18.174-0.016-27.263-0.016c-9,0-18.004-0.011-27.006,0.02
			c-0.715,0-0.88-0.182-0.876-0.883c0.033-5.651,0.03-11.304,0-16.955c-0.004-0.688,0.2-0.815,0.842-0.815
			c18.09,0.017,36.179,0.017,54.269-0.002c0.66,0,0.836,0.157,0.832,0.827C147.361,359.293,147.361,364.973,147.391,370.65z"/>
		<path fill="#000101" d="M150.12,301.336c0.003-0.705-0.224-0.804-0.847-0.804c-19.773,0.015-39.545,0.017-59.318-0.009
			c-0.793-0.001-0.894,0.24-0.89,0.939c0.024,7.301,0.032,14.601-0.008,21.901c-0.006,0.866,0.209,1.05,1.056,1.046
			c8.836-0.034,17.669-0.02,26.506-0.02c0.438,0,0.854-0.125,0.848,0.634c-0.043,3.862-0.024,7.726-0.014,11.589
			c0,0.397-0.045,0.62-0.533,0.622c-0.709,0.003-1.414,0.116-2.121,0.153c-0.491,0.026-0.56,0.173-0.33,0.619
			c1.681,3.302,3.337,6.613,5.063,10.043c1.739-3.532,3.434-6.97,5.187-10.527c-0.905-0.101-1.721-0.256-2.537-0.263
			c-0.689-0.004-0.729-0.326-0.727-0.878c0.021-3.751,0.03-7.501-0.005-11.249c-0.008-0.711,0.113-0.94,0.897-0.936
			c8.977,0.034,17.955,0.014,26.932,0.037c0.653,0.002,0.843-0.141,0.84-0.824C150.092,316.052,150.089,308.695,150.12,301.336z
			 M146.505,321.666c-9.03-0.022-18.063-0.016-27.092-0.016c-9.004,0-18.005-0.01-27.007,0.019
			c-0.763,0.003-0.934-0.189-0.929-0.936c0.034-5.565,0.03-11.133,0.004-16.698c-0.004-0.663,0.158-0.853,0.838-0.85
			c18.09,0.019,36.182,0.02,54.269-0.003c0.69,0,0.821,0.203,0.817,0.844c-0.022,5.595-0.028,11.188,0.007,16.783
			C147.416,321.557,147.178,321.668,146.505,321.666z"/>
		<path fill="#000101" d="M229.372,361.136c-2.627-1.313-5.26-2.622-7.878-3.95c-0.458-0.232-0.635-0.199-0.649,0.358
			c-0.015,0.649-0.157,1.299-0.146,1.948c0.01,0.605-0.208,0.747-0.79,0.74c-3.493-0.03-6.989-0.135-10.478,0.015
			c-1.825,0.079-3.167-0.554-4.363-1.778c-0.221-0.223-0.45-0.433-0.663-0.662c-1.492-1.594-2.844-3.316-4.449-4.805
			c-0.437-0.406-0.591-0.917-0.574-1.531c0.093-3.46,0.026-6.923,0.056-10.384c0.059-6.53-0.037-13.061-0.025-19.592
			c0-0.74-0.216-0.854-0.892-0.854c-11.588,0.022-23.175,0.017-34.764,0.017c-0.198,0-0.398-0.014-0.596,0.002
			c-0.343,0.033-0.431-0.142-0.451-0.449c-0.042-0.68-0.144-1.354-0.161-2.035c-0.015-0.627-0.098-0.846-0.794-0.489
			c-2.991,1.535-6.016,3.007-9.022,4.51c-0.212,0.106-0.505,0.128-0.583,0.433c3.432,1.712,6.861,3.422,10.347,5.163
			c0.078-0.847,0.227-1.582,0.192-2.307c-0.039-0.819,0.296-0.943,1.027-0.942c10.251,0.022,20.506,0.023,30.757-0.001
			c0.762-0.002,0.994,0.165,0.99,0.964c-0.061,8.686,0.053,17.372-0.105,26.06c-0.014,0.619-0.217,1.068-0.641,1.494
			c-2.711,2.709-5.396,5.443-8.116,8.145c-0.415,0.415-0.519,0.621-0.031,1.102c3.601,3.547,7.175,7.12,10.724,10.725
			c0.505,0.511,0.742,0.396,1.168-0.043c2.651-2.728,5.338-5.42,7.99-8.147c0.553-0.565,1.134-0.813,1.944-0.807
			c3.857,0.038,7.719,0.028,11.575,0.005c0.539-0.003,0.736,0.123,0.729,0.688c-0.007,0.678,0.11,1.356,0.151,2.034
			c0.027,0.427,0.163,0.591,0.574,0.331c0.143-0.091,0.305-0.148,0.456-0.225c3.121-1.561,6.243-3.121,9.482-4.74
			C230.625,361.759,229.996,361.447,229.372,361.136z M204.594,362.335c-2.309,2.267-4.606,4.54-6.89,6.833
			c-0.341,0.342-0.515,0.264-0.805-0.038c-2.169-2.243-4.348-4.476-6.533-6.7c-0.245-0.248-0.315-0.428-0.019-0.686
			c0.234-0.202,0.419-0.462,0.637-0.684c1.997-2.015,3.998-4.023,5.99-6.043c0.159-0.16,0.259-0.375,0.29-0.422
			c0.432-0.039,0.511,0.143,0.622,0.254c2.244,2.248,4.478,4.508,6.73,6.748C204.916,361.898,204.874,362.061,204.594,362.335z"/>
		<path fill="#000101" d="M131.287,422.637c-0.061-2.725-0.09-5.447-0.102-8.172c-0.016-3.521,0.03-7.042-0.013-10.561
			c-0.032-2.34-0.846-3.396-3.043-4.15c-1.959-0.675-3.992-1.034-6.028-1.368c-0.462-0.075-0.671-0.222-0.667-0.745
			c0.025-3.467,0.029-6.93-0.004-10.394c-0.005-0.537,0.204-0.677,0.649-0.743c0.822-0.126,1.641-0.277,2.521-0.43
			c-1.729-3.473-3.406-6.846-5.076-10.208c-0.305,0.071-0.322,0.312-0.402,0.474c-1.451,2.909-2.886,5.826-4.326,8.741
			c-0.532,1.075-0.535,1.071,0.615,1.22c0.423,0.053,0.843,0.139,1.265,0.165c0.58,0.041,0.795,0.265,0.787,0.902
			c-0.038,3.35-0.034,6.7-0.001,10.052c0.006,0.641-0.183,0.865-0.813,0.984c-1.887,0.36-3.772,0.734-5.61,1.312
			c-2.387,0.745-3.388,2.077-3.377,4.55c0.011,2.752,0.066,5.503,0.063,8.257c-0.003,3.688-0.054,7.379-0.062,11.067
			c-0.004,1.99,1.002,3.438,2.853,4.088c5.634,1.982,11.311,2.104,17.009,0.292C130.441,427.041,131.353,425.692,131.287,422.637z
			 M114.443,401.402c3.858-0.811,7.694-0.764,11.487,0.391c0.893,0.271,1.733,0.652,2.45,1.279
			c-3.26,2.966-14.129,3.089-17.838,0.181C111.614,402.135,113.009,401.706,114.443,401.402z M128.689,407.336
			c-0.009,5.222-0.027,10.444-0.048,15.667c-0.005,1.455-0.463,2.049-1.899,2.514c-4.929,1.598-9.852,1.562-14.768-0.059
			c-1.044-0.345-1.717-1.185-1.722-2.263c-0.024-5.506-0.025-11.015-0.032-16.521c0-0.049,0.034-0.098,0.036-0.102
			c6.123,2.624,12.229,2.825,18.396,0.02C128.786,406.777,128.689,407.067,128.689,407.336z"/>
		<path fill="#000101" d="M213.59,399.976c-4.462,0.027-8.92,0.009-13.381,0.021c-0.465,0.001-0.695-0.031-0.693-0.617
			c0.032-4.062,0.03-8.124,0-12.187c-0.002-0.545,0.233-0.67,0.675-0.732c0.753-0.111,1.503-0.25,2.342-0.391
			c-1.688-3.445-3.348-6.834-5.079-10.359c-1.539,3.102-3.004,6.049-4.469,8.996c-0.675,1.355-0.679,1.355,0.768,1.628
			c0.25,0.048,0.502,0.104,0.755,0.119c0.574,0.034,0.792,0.246,0.784,0.894c-0.038,3.947-0.038,7.896,0,11.844
			c0.008,0.694-0.214,0.814-0.847,0.812c-3.352-0.008-6.7,0.029-10.052,0.061c-1.473,0.012-2.1,0.479-2.511,1.883
			c-2.013,6.859-4.018,13.722-6.023,20.582c-0.332,1.132-0.246,1.234,0.994,1.234h28.973c1.234,0,1.729-0.359,2.081-1.561
			c2.101-7.128,4.183-14.262,6.304-21.386C214.416,400.123,214.315,399.97,213.59,399.976z M210.813,403.306
			c-1.673,5.748-3.322,11.502-4.979,17.257c-0.104,0.354-0.16,0.647-0.688,0.646c-8.715-0.019-17.428-0.013-26.247-0.013
			c1.415-4.897,2.799-9.696,4.186-14.494c0.336-1.166,0.683-2.33,0.999-3.504c0.113-0.436,0.281-0.64,0.794-0.637
			c8.487,0.02,16.973,0.021,25.459,0C211.033,402.559,210.963,402.788,210.813,403.306z"/>
		<path fill="#010101" d="M76.662,307.054c3.161,1.735,6.276,3.445,9.417,5.169c-0.079,0.113-0.108,0.204-0.17,0.24
			c-2.894,1.601-5.802,3.174-8.674,4.813c-0.711,0.405-0.771,0.184-0.765-0.462c0.004-0.565-0.114-1.132-0.104-1.697
			c0.011-0.607-0.183-0.793-0.826-0.784c-2.867,0.043-5.736,0.034-8.604,0.006c-0.551-0.006-0.829,0.15-1.11,0.645
			c-1.798,3.164-5.246,4.297-8.262,2.771c-2.535-1.284-3.83-4.432-2.983-7.253c0.826-2.754,3.542-4.519,6.412-4.204
			c2.105,0.231,3.69,1.204,4.595,3.152c0.315,0.68,0.765,0.916,1.527,0.901c2.839-0.047,5.681-0.031,8.52-0.007
			c0.495,0.003,0.646-0.106,0.715-0.633C76.461,308.847,76.367,307.954,76.662,307.054z"/>
		<path fill="#000101" d="M245.244,362.062c0.01,3.4-2.679,6.113-6.076,6.135c-3.363,0.019-6.014-2.645-6.038-6.062
			c-0.024-3.392,2.609-6.043,6.011-6.052C242.539,356.072,245.232,358.713,245.244,362.062z"/>
		<path fill="#5AAE36" d="M180.676,362.118c-1.992,1.006-3.865,1.934-5.719,2.897c-0.464,0.239-0.53,0.006-0.589-0.343
			c-0.097-0.579,0.086-1.411-0.364-1.668c-0.498-0.284-1.263-0.118-1.912-0.118c-6.788-0.004-13.573-0.017-20.359,0.018
			c-0.797,0.005-0.991-0.262-0.914-0.977c0.038-0.363,0.172-0.511,0.525-0.488c0.198,0.012,0.397,0,0.597,0
			c7.043,0,14.085-0.014,21.127,0.021c0.8,0.004,1.122-0.163,1.207-1.013c0.141-1.426,0.209-1.424,1.526-0.769
			C177.394,360.473,178.981,361.271,180.676,362.118z"/>
		<path fill="#5AB034" d="M119.514,344.978c-1.036-2.062-1.985-3.959-2.948-5.852c-0.228-0.446-0.017-0.505,0.372-0.547
			c1.849-0.198,1.847-0.208,1.847-2.066c0-3.465-0.007-6.929,0.01-10.394c0.002-0.463-0.294-1.106,0.679-1.099
			c0.933,0.008,0.617,0.626,0.62,1.047c0.018,3.806,0.031,7.61-0.01,11.416c-0.007,0.712,0.168,0.972,0.892,1.046
			c1.633,0.17,1.626,0.21,0.864,1.743C121.084,341.791,120.336,343.312,119.514,344.978z"/>
		<path fill="#5AB034" d="M161.284,325.665c-2.085-1.042-4.06-2.028-6.203-3.099c2.127-1.065,4.131-2.068,6.189-3.099
			c0.077,0.66,0.22,1.221,0.191,1.772c-0.04,0.739,0.318,0.792,0.912,0.792c11.534-0.014,23.068,0.001,34.601-0.034
			c0.92-0.002,1.089,0.268,1.089,1.122c-0.013,5.765,0.099,11.529,0.033,17.294c-0.04,3.518,0.02,7.035-0.046,10.553
			c-0.007,0.478-0.02,0.778-0.658,0.783c-0.675,0.005-0.636-0.354-0.636-0.804c0.02-8.459,0.034-16.92,0.047-25.381
			c0.005-2.368,0-2.368-2.347-2.368c-10.652,0-21.306,0.006-31.96-0.014c-0.708-0.001-1.108,0.093-1.041,0.93
			C161.493,324.58,161.357,325.061,161.284,325.665z"/>
		<path fill="#5AB034" d="M228.268,362.116c-1.977,1-3.801,1.917-5.614,2.852c-0.418,0.214-0.573,0.191-0.616-0.34
			c-0.164-2.001-0.182-1.938-2.193-1.912c-3.719,0.052-7.439,0.017-11.159,0.034c-0.439,0.002-0.587-0.132-0.597-0.579
			c-0.013-0.499,0.17-0.616,0.64-0.614c4.062,0.022,8.123,0.012,12.181,0.037c0.647,0.006,0.989-0.035,1.044-0.859
			c0.111-1.689,0.185-1.687,1.7-0.928C225.145,360.552,226.634,361.299,228.268,362.116z"/>
		<path fill="#5AB034" d="M119.439,378.79c1.024,2.051,1.954,3.928,2.903,5.795c0.179,0.351,0.139,0.515-0.264,0.547
			c-0.084,0.009-0.165,0.043-0.248,0.06c-1.747,0.35-1.747,0.349-1.747,2.154c0,3.12-0.003,6.241,0.005,9.364
			c0.001,0.454,0.03,0.82-0.638,0.796c-0.611-0.023-0.677-0.309-0.674-0.806c0.014-3.461-0.023-6.925,0.03-10.386
			c0.013-0.758-0.257-0.994-0.924-1.045c-0.477-0.037-0.951-0.129-1.546-0.211C117.362,382.988,118.355,380.98,119.439,378.79z"/>
		<path fill="#5AB034" d="M197.457,378.822c1.051,2.146,2.024,4.144,3.02,6.177c-0.264,0.065-0.425,0.11-0.591,0.146
			c-0.548,0.119-1.308,0.056-1.597,0.395c-0.367,0.432-0.113,1.195-0.114,1.814c-0.012,3.748-0.022,7.498,0.011,11.246
			c0.005,0.654-0.2,0.805-0.821,0.811c-0.614,0.007-0.745-0.193-0.742-0.773c0.023-4.09-0.012-8.18,0.035-12.269
			c0.008-0.759-0.237-1.017-0.938-1.109c-1.387-0.185-1.383-0.212-0.759-1.459C195.76,382.202,196.561,380.605,197.457,378.822z"/>
		<path fill="#5AB034" d="M77.732,315.408c-0.039-0.674-0.104-1.204-0.094-1.732c0.011-0.565-0.229-0.702-0.769-0.7
			c-3.546,0.024-7.092,0.005-10.636,0.021c-0.479,0.003-0.703-0.061-0.7-0.631c0.001-0.578,0.188-0.71,0.73-0.706
			c2.609,0.024,5.219,0.011,7.829,0.011c0.935,0,1.872-0.026,2.807,0.01c0.473,0.019,0.666-0.154,0.691-0.605
			c0.033-0.566,0.091-1.13,0.15-1.853c1.854,1.013,3.647,1.99,5.572,3.042C81.444,313.316,79.66,314.322,77.732,315.408z"/>
	</g>
	<g>
		<path fill="#5AAF33" stroke="#1D1D1B" stroke-miterlimit="10" d="M378.878,387.086l-0.015,0.443 M413.588,337.198
			c0-0.53-0.43-0.959-0.945-0.959h-4.084l-2.922-8.022c1.189-1.348,1.92-3.095,1.92-5.015c0-3.625-2.563-6.663-5.977-7.393v-4.37
			c0-0.875-0.699-1.576-1.574-1.576c-0.873,0-1.574,0.702-1.574,1.576v4.37c-3.408,0.73-5.972,3.768-5.972,7.393
			c0,1.92,0.729,3.667,1.918,5.015l-2.92,8.022h-3.812c-0.518,0-0.933,0.429-0.933,0.959c0,0.517,0.415,0.946,0.933,0.946h3.122
			l-3.726,10.201c-0.215,0.587-0.057,1.217,0.373,1.633l-0.487,1.217c-0.129,0.33,0.028,0.688,0.346,0.816
			c0.085,0.029,0.154,0.059,0.242,0.059c0.243,0,0.474-0.157,0.571-0.4l0.489-1.203c0.629-0.03,1.203-0.431,1.433-1.047l4.109-11.29
			h4.939v1.733c0,0.53,0.416,0.946,0.945,0.946c0.516,0,0.945-0.416,0.945-0.946v-1.733h4.942l4.113,11.29
			c0.213,0.616,0.801,1.017,1.433,1.047l0.485,1.203c0.086,0.243,0.33,0.4,0.572,0.4c0.086,0,0.158-0.028,0.229-0.059
			c0.33-0.129,0.486-0.486,0.357-0.816l-0.486-1.217c0.414-0.416,0.574-1.045,0.359-1.633l-3.711-10.201h3.395
			C413.158,338.145,413.588,337.715,413.588,337.198z M400.006,318.802c2.422,0,4.398,1.963,4.398,4.399
			c0,2.421-1.978,4.399-4.398,4.399c-2.435,0-4.396-1.979-4.396-4.399C395.61,320.766,397.571,318.802,400.006,318.802z
			 M400.951,336.239v-1.72c0-0.529-0.43-0.944-0.945-0.944c-0.529,0-0.945,0.416-0.945,0.944v1.72h-4.253l2.205-6.104
			c0.934,0.387,1.935,0.616,2.993,0.616c1.062,0,2.064-0.229,2.98-0.616l2.221,6.104H400.951z M413.588,337.198
			c0-0.53-0.43-0.959-0.945-0.959h-4.084l-2.922-8.022c1.189-1.348,1.92-3.095,1.92-5.015c0-3.625-2.563-6.663-5.977-7.393v-4.37
			c0-0.875-0.699-1.576-1.574-1.576c-0.873,0-1.574,0.702-1.574,1.576v4.37c-3.408,0.73-5.972,3.768-5.972,7.393
			c0,1.92,0.729,3.667,1.918,5.015l-2.92,8.022h-3.812c-0.518,0-0.933,0.429-0.933,0.959c0,0.517,0.415,0.946,0.933,0.946h3.122
			l-3.726,10.201c-0.215,0.587-0.057,1.217,0.373,1.633l-0.487,1.217c-0.129,0.33,0.028,0.688,0.346,0.816
			c0.085,0.029,0.154,0.059,0.242,0.059c0.243,0,0.474-0.157,0.571-0.4l0.489-1.203c0.629-0.03,1.203-0.431,1.433-1.047l4.109-11.29
			h4.939v1.733c0,0.53,0.416,0.946,0.945,0.946c0.516,0,0.945-0.416,0.945-0.946v-1.733h4.942l4.113,11.29
			c0.213,0.616,0.801,1.017,1.433,1.047l0.485,1.203c0.086,0.243,0.33,0.4,0.572,0.4c0.086,0,0.158-0.028,0.229-0.059
			c0.33-0.129,0.486-0.486,0.357-0.816l-0.486-1.217c0.414-0.416,0.574-1.045,0.359-1.633l-3.711-10.201h3.395
			C413.158,338.145,413.588,337.715,413.588,337.198z M400.006,318.802c2.422,0,4.398,1.963,4.398,4.399
			c0,2.421-1.978,4.399-4.398,4.399c-2.435,0-4.396-1.979-4.396-4.399C395.61,320.766,397.571,318.802,400.006,318.802z
			 M400.951,336.239v-1.72c0-0.529-0.43-0.944-0.945-0.944c-0.529,0-0.945,0.416-0.945,0.944v1.72h-4.253l2.205-6.104
			c0.934,0.387,1.935,0.616,2.993,0.616c1.062,0,2.064-0.229,2.98-0.616l2.221,6.104H400.951z M413.588,337.198
			c0-0.53-0.43-0.959-0.945-0.959h-4.084l-2.922-8.022c1.189-1.348,1.92-3.095,1.92-5.015c0-3.625-2.563-6.663-5.977-7.393v-4.37
			c0-0.875-0.699-1.576-1.574-1.576c-0.873,0-1.574,0.702-1.574,1.576v4.37c-3.408,0.73-5.972,3.768-5.972,7.393
			c0,1.92,0.729,3.667,1.918,5.015l-2.92,8.022h-3.812c-0.518,0-0.933,0.429-0.933,0.959c0,0.517,0.415,0.946,0.933,0.946h3.122
			l-3.726,10.201c-0.215,0.587-0.057,1.217,0.373,1.633l-0.487,1.217c-0.129,0.33,0.028,0.688,0.346,0.816
			c0.085,0.029,0.154,0.059,0.242,0.059c0.243,0,0.474-0.157,0.571-0.4l0.489-1.203c0.629-0.03,1.203-0.431,1.433-1.047l4.109-11.29
			h4.939v1.733c0,0.53,0.416,0.946,0.945,0.946c0.516,0,0.945-0.416,0.945-0.946v-1.733h4.942l4.113,11.29
			c0.213,0.616,0.801,1.017,1.433,1.047l0.485,1.203c0.086,0.243,0.33,0.4,0.572,0.4c0.086,0,0.158-0.028,0.229-0.059
			c0.33-0.129,0.486-0.486,0.357-0.816l-0.486-1.217c0.414-0.416,0.574-1.045,0.359-1.633l-3.711-10.201h3.395
			C413.158,338.145,413.588,337.715,413.588,337.198z M400.006,318.802c2.422,0,4.398,1.963,4.398,4.399
			c0,2.421-1.978,4.399-4.398,4.399c-2.435,0-4.396-1.979-4.396-4.399C395.61,320.766,397.571,318.802,400.006,318.802z
			 M400.951,336.239v-1.72c0-0.529-0.43-0.944-0.945-0.944c-0.529,0-0.945,0.416-0.945,0.944v1.72h-4.253l2.205-6.104
			c0.934,0.387,1.935,0.616,2.993,0.616c1.062,0,2.064-0.229,2.98-0.616l2.221,6.104H400.951z M413.588,337.198
			c0-0.53-0.43-0.959-0.945-0.959h-4.084l-2.922-8.022c1.189-1.348,1.92-3.095,1.92-5.015c0-3.625-2.563-6.663-5.977-7.393v-4.37
			c0-0.875-0.699-1.576-1.574-1.576c-0.873,0-1.574,0.702-1.574,1.576v4.37c-3.408,0.73-5.972,3.768-5.972,7.393
			c0,1.92,0.729,3.667,1.918,5.015l-2.92,8.022h-3.812c-0.518,0-0.933,0.429-0.933,0.959c0,0.517,0.415,0.946,0.933,0.946h3.122
			l-3.726,10.201c-0.215,0.587-0.057,1.217,0.373,1.633l-0.487,1.217c-0.129,0.33,0.028,0.688,0.346,0.816
			c0.085,0.029,0.154,0.059,0.242,0.059c0.243,0,0.474-0.157,0.571-0.4l0.489-1.203c0.629-0.03,1.203-0.431,1.433-1.047l4.109-11.29
			h4.939v1.733c0,0.53,0.416,0.946,0.945,0.946c0.516,0,0.945-0.416,0.945-0.946v-1.733h4.942l4.113,11.29
			c0.213,0.616,0.801,1.017,1.433,1.047l0.485,1.203c0.086,0.243,0.33,0.4,0.572,0.4c0.086,0,0.158-0.028,0.229-0.059
			c0.33-0.129,0.486-0.486,0.357-0.816l-0.486-1.217c0.414-0.416,0.574-1.045,0.359-1.633l-3.711-10.201h3.395
			C413.158,338.145,413.588,337.715,413.588,337.198z M400.006,318.802c2.422,0,4.398,1.963,4.398,4.399
			c0,2.421-1.978,4.399-4.398,4.399c-2.435,0-4.396-1.979-4.396-4.399C395.61,320.766,397.571,318.802,400.006,318.802z
			 M400.951,336.239v-1.72c0-0.529-0.43-0.944-0.945-0.944c-0.529,0-0.945,0.416-0.945,0.944v1.72h-4.253l2.205-6.104
			c0.934,0.387,1.935,0.616,2.993,0.616c1.062,0,2.064-0.229,2.98-0.616l2.221,6.104H400.951z M443.619,394.466
			c-13.025,1.618-21.119-1.548-22.896-9.329h-5.43c1.047,0.045,2.537,1.449,2.951,2.564c1.904,5.072,5.658,7.822,10.746,8.641
			c4.184,0.688,8.479,0.976,12.735,1.019c2.179,0.027,3.64,0.658,4.558,2.235L443.619,394.466z M449.42,406.614
			c1.361,3.523,0.373,4.556-4.125,6.721c-12.779,6.174-35.504,1.689-44.888-8.998l-2.991-4.93c-4.598-3.093-9.627-6.333-14.44-9.871
			c-0.356-0.257-0.56-0.716-0.701-1.261l0.216,3.754c2.291,1.318,4.482,2.178,6.159,3.64c2.249,1.936,4.282,4.185,6.072,6.562
			c9.997,13.295,23.78,17.163,39.583,15.889c6.232-0.503,12.537-0.974,17.779-6.189L449.42,406.614z M375.797,389.852
			c-4.958,1.246-9.655,3.555-14.354,5.646c-2.136,0.959-4.025,2.478-6.032,3.739c-0.287-0.244-0.561-0.502-0.844-0.745l-1.507,3.882
			c9.171-1.518,14.975-11.79,25.689-9.87l0.114-4.973C378.735,388.721,377.817,389.337,375.797,389.852z M413.588,337.198
			c0-0.53-0.43-0.959-0.945-0.959h-4.084l-2.922-8.022c1.189-1.348,1.92-3.095,1.92-5.015c0-3.625-2.563-6.663-5.977-7.393v-4.37
			c0-0.875-0.699-1.576-1.574-1.576c-0.873,0-1.574,0.702-1.574,1.576v4.37c-3.408,0.73-5.972,3.768-5.972,7.393
			c0,1.92,0.729,3.667,1.918,5.015l-2.92,8.022h-3.812c-0.518,0-0.933,0.429-0.933,0.959c0,0.517,0.415,0.946,0.933,0.946h3.122
			l-3.726,10.201c-0.215,0.587-0.057,1.217,0.373,1.633l-0.487,1.217c-0.129,0.33,0.028,0.688,0.346,0.816
			c0.085,0.029,0.154,0.059,0.242,0.059c0.243,0,0.474-0.157,0.571-0.4l0.489-1.203c0.629-0.03,1.203-0.431,1.433-1.047l4.109-11.29
			h4.939v1.733c0,0.53,0.416,0.946,0.945,0.946c0.516,0,0.945-0.416,0.945-0.946v-1.733h4.942l4.113,11.29
			c0.213,0.616,0.801,1.017,1.433,1.047l0.485,1.203c0.086,0.243,0.33,0.4,0.572,0.4c0.086,0,0.158-0.028,0.229-0.059
			c0.33-0.129,0.486-0.486,0.357-0.816l-0.486-1.217c0.414-0.416,0.574-1.045,0.359-1.633l-3.711-10.201h3.395
			C413.158,338.145,413.588,337.715,413.588,337.198z M400.006,318.802c2.422,0,4.398,1.963,4.398,4.399
			c0,2.421-1.978,4.399-4.398,4.399c-2.435,0-4.396-1.979-4.396-4.399C395.61,320.766,397.571,318.802,400.006,318.802z
			 M400.951,336.239v-1.72c0-0.529-0.43-0.944-0.945-0.944c-0.529,0-0.945,0.416-0.945,0.944v1.72h-4.253l2.205-6.104
			c0.934,0.387,1.935,0.616,2.993,0.616c1.062,0,2.064-0.229,2.98-0.616l2.221,6.104H400.951z M413.588,337.198
			c0-0.53-0.43-0.959-0.945-0.959h-4.084l-2.922-8.022c1.189-1.348,1.92-3.095,1.92-5.015c0-3.625-2.563-6.663-5.977-7.393v-4.37
			c0-0.875-0.699-1.576-1.574-1.576c-0.873,0-1.574,0.702-1.574,1.576v4.37c-3.408,0.73-5.972,3.768-5.972,7.393
			c0,1.92,0.729,3.667,1.918,5.015l-2.92,8.022h-3.812c-0.518,0-0.933,0.429-0.933,0.959c0,0.517,0.415,0.946,0.933,0.946h3.122
			l-3.726,10.201c-0.215,0.587-0.057,1.217,0.373,1.633l-0.487,1.217c-0.129,0.33,0.028,0.688,0.346,0.816
			c0.085,0.029,0.154,0.059,0.242,0.059c0.243,0,0.474-0.157,0.571-0.4l0.489-1.203c0.629-0.03,1.203-0.431,1.433-1.047l4.109-11.29
			h4.939v1.733c0,0.53,0.416,0.946,0.945,0.946c0.516,0,0.945-0.416,0.945-0.946v-1.733h4.942l4.113,11.29
			c0.213,0.616,0.801,1.017,1.433,1.047l0.485,1.203c0.086,0.243,0.33,0.4,0.572,0.4c0.086,0,0.158-0.028,0.229-0.059
			c0.33-0.129,0.486-0.486,0.357-0.816l-0.486-1.217c0.414-0.416,0.574-1.045,0.359-1.633l-3.711-10.201h3.395
			C413.158,338.145,413.588,337.715,413.588,337.198z M400.006,318.802c2.422,0,4.398,1.963,4.398,4.399
			c0,2.421-1.978,4.399-4.398,4.399c-2.435,0-4.396-1.979-4.396-4.399C395.61,320.766,397.571,318.802,400.006,318.802z
			 M400.951,336.239v-1.72c0-0.529-0.43-0.944-0.945-0.944c-0.529,0-0.945,0.416-0.945,0.944v1.72h-4.253l2.205-6.104
			c0.934,0.387,1.935,0.616,2.993,0.616c1.062,0,2.064-0.229,2.98-0.616l2.221,6.104H400.951z M413.588,337.198
			c0-0.53-0.43-0.959-0.945-0.959h-4.084l-2.922-8.022c1.189-1.348,1.92-3.095,1.92-5.015c0-3.625-2.563-6.663-5.977-7.393v-4.37
			c0-0.875-0.699-1.576-1.574-1.576c-0.873,0-1.574,0.702-1.574,1.576v4.37c-3.408,0.73-5.972,3.768-5.972,7.393
			c0,1.92,0.729,3.667,1.918,5.015l-2.92,8.022h-3.812c-0.518,0-0.933,0.429-0.933,0.959c0,0.517,0.415,0.946,0.933,0.946h3.122
			l-3.726,10.201c-0.215,0.587-0.057,1.217,0.373,1.633l-0.487,1.217c-0.129,0.33,0.028,0.688,0.346,0.816
			c0.085,0.029,0.154,0.059,0.242,0.059c0.243,0,0.474-0.157,0.571-0.4l0.489-1.203c0.629-0.03,1.203-0.431,1.433-1.047l4.109-11.29
			h4.939v1.733c0,0.53,0.416,0.946,0.945,0.946c0.516,0,0.945-0.416,0.945-0.946v-1.733h4.942l4.113,11.29
			c0.213,0.616,0.801,1.017,1.433,1.047l0.485,1.203c0.086,0.243,0.33,0.4,0.572,0.4c0.086,0,0.158-0.028,0.229-0.059
			c0.33-0.129,0.486-0.486,0.357-0.816l-0.486-1.217c0.414-0.416,0.574-1.045,0.359-1.633l-3.711-10.201h3.395
			C413.158,338.145,413.588,337.715,413.588,337.198z M400.006,318.802c2.422,0,4.398,1.963,4.398,4.399
			c0,2.421-1.978,4.399-4.398,4.399c-2.435,0-4.396-1.979-4.396-4.399C395.61,320.766,397.571,318.802,400.006,318.802z
			 M400.951,336.239v-1.72c0-0.529-0.43-0.944-0.945-0.944c-0.529,0-0.945,0.416-0.945,0.944v1.72h-4.253l2.205-6.104
			c0.934,0.387,1.935,0.616,2.993,0.616c1.062,0,2.064-0.229,2.98-0.616l2.221,6.104H400.951z"/>
		<path fill="#5AAF33" stroke="#1D1D1B" stroke-miterlimit="10" d="M382.489,392.029v30.989h-3.74v-30.517l0.114-4.973
			c0.085-0.646-0.071-1.461-0.401-2.521l3.281,0.631c0.229,0.803,0.313,1.819,0.53,2.637L382.489,392.029z"/>
		<path d="M465.266,427.964H335.036c2.034-4.3,3.939-8.354,5.86-12.396c5.129-10.772,10.33-21.49,15.315-32.321
			c1.132-2.479,2.55-3.253,5.172-3.209c8.525,0.157,17.064,0.058,26.333,0.058l2.866,5.975c-1.604-1.747-3.552-1.463-8.84-0.43
			l-3.281-0.632c-5.072,0-10.13-0.129-15.187,0.087c-1.134,0.059-2.681,1.09-3.224,2.105c-2.021,3.667-3.684,7.521-5.486,11.29
			l-1.507,3.882c-3.425,6.777-6.833,13.54-10.401,20.646h114.687c-1.85-3.896-3.469-7.307-5.26-11.09l-2.664-5.314V406.6
			c-0.285-0.759-0.688-1.632-1.188-2.665c-0.503-1.017-1.046-2.02-1.404-3.095c-0.156-0.457-0.328-0.872-0.529-1.23l-0.014-0.014
			l-2.664-5.13c-0.875-1.993-1.605-3.954-2.594-5.761c-0.718-1.289-1.734-3.366-2.693-3.409c-5.816-0.33-11.662-0.159-17.609-0.159
			h-5.43c-2.164-0.099-4.771-1.115-6.346,1.393l3.18-6.434c9.471,0,18.137-0.088,26.791,0.086c1.447,0.028,3.668,0.745,4.199,1.818
			C450.566,397.116,457.787,412.346,465.266,427.964z"/>
		<path d="M432.355,325.422c-2.724-13.296-10.359-22.751-23.755-26.319c-12.935-3.453-24.278,0.014-33.105,10.173
			c-9.226,10.631-10.557,22.58-4.527,35.288c5.018,10.502,10.116,20.961,15.146,31.447c0.56,1.189,0.96,2.437,1.604,4.085
			l2.866,5.975l0.015,0.014c0.815,0.902,1.562,2.352,2.606,4.484c1.533,3.152,3.021,6.332,4.212,8.84l2.991,4.93
			c2.708-5.66,5.544-11.361,8.193-17.165c0.101-0.229,0.218-0.43,0.33-0.616l0.017-0.027l3.18-6.432
			c5.801-12.021,11.133-23.283,16.662-34.458C431.969,339.205,433.789,332.471,432.355,325.422z M400.148,356.598
			c-14.15,0-25.627-11.476-25.627-25.631c0-14.155,11.477-25.63,25.627-25.63c14.155,0,25.633,11.476,25.633,25.63
			C425.781,345.122,414.305,356.598,400.148,356.598z"/>
	</g>
	<g>
		<g>
			<path d="M676.857,362.925c0,16.201,0.004,32.403,0,48.604c-0.005,10.664-7.621,18.483-18.287,18.561
				c-12.72,0.09-25.437,0.098-38.152-0.002c-10.668-0.085-18.246-7.906-18.248-18.595c-0.002-32.515-0.004-65.027,0.002-97.542
				c0.002-8.952,5.726-16.099,14.414-17.937c1.447-0.306,2.965-0.375,4.449-0.377c12.33-0.029,24.66-0.027,36.99-0.013
				c11.168,0.013,18.832,7.701,18.832,18.861C676.859,330.63,676.857,346.777,676.857,362.925z M669.234,407.584
				c0-32.336,0-64.549,0-96.83c-19.869,0-39.629,0-59.447,0c0,32.334,0,64.544,0,96.83
				C629.617,407.584,649.342,407.584,669.234,407.584z M646.92,415.312c-5.025,0-9.893,0-14.762,0c0,2.482,0,4.825,0,7.163
				c4.979,0,9.854,0,14.762,0C646.92,420.055,646.92,417.752,646.92,415.312z"/>
			<path fill="#5AAF33" stroke="#1D1D1B" stroke-miterlimit="10" d="M703.625,304.735c1.604-1.601,3.311-3.306,5.023-5.015
				c16.989,16.472,17.754,45.396-0.007,62.966c-1.666-1.729-3.334-3.459-4.956-5.144
				C717.867,340.067,717.893,322.421,703.625,304.735z"/>
			<path fill="#5AAF33" stroke="#1D1D1B" stroke-miterlimit="10" d="M692.76,315.368c1.775-1.712,3.479-3.357,5.191-5.008
				c10.567,9.046,12.803,29.586,0.057,41.766c-1.707-1.717-3.414-3.433-5.123-5.15C702.15,337.123,700.475,323.163,692.76,315.368z"
				/>
			<path fill="#5AAF33" stroke="#1D1D1B" stroke-miterlimit="10" d="M682.203,325.898c1.758-1.751,3.436-3.426,5.111-5.101
				c5.118,4.031,6.692,14.504,0.166,20.762c-1.646-1.748-3.295-3.496-5.041-5.347C684.936,333.04,685.057,329.51,682.203,325.898z"
				/>
		</g>
		<path fill="#5AAF33" stroke="#1D1D1B" stroke-miterlimit="10" d="M660.848,369.406c0-0.829-0.672-1.5-1.5-1.5h-6.477
			l-4.643-12.762c1.885-2.119,3.043-4.898,3.043-7.953c0-5.75-4.074-10.564-9.484-11.715v-6.958c0-1.381-1.117-2.499-2.498-2.499
			c-1.383,0-2.5,1.117-2.5,2.499v6.958c-5.412,1.151-9.484,5.964-9.484,11.715c0,3.054,1.158,5.833,3.047,7.955l-4.645,12.76h-6.027
			c-0.83,0-1.5,0.671-1.5,1.5c0,0.826,0.67,1.498,1.5,1.498h4.935l-5.896,16.207c-0.342,0.938-0.084,1.938,0.572,2.604l-0.77,1.926
			c-0.205,0.516,0.045,1.094,0.559,1.301c0.121,0.047,0.246,0.068,0.369,0.068c0.397,0,0.772-0.238,0.93-0.628l0.767-1.922
			c0.991-0.033,1.909-0.651,2.27-1.638l6.521-17.918h7.854v2.748c0,0.828,0.67,1.5,1.5,1.5c0.826,0,1.498-0.672,1.498-1.5v-2.748
			h7.854l6.521,17.918c0.357,0.984,1.275,1.604,2.266,1.638l0.771,1.922c0.154,0.39,0.533,0.628,0.928,0.628
			c0.123,0,0.25-0.021,0.371-0.068c0.512-0.207,0.764-0.785,0.559-1.301l-0.77-1.926c0.656-0.664,0.914-1.666,0.576-2.604
			l-5.902-16.207h5.387C660.176,370.904,660.848,370.232,660.848,369.406z M639.287,340.209c3.852,0,6.981,3.133,6.981,6.983
			c0,3.851-3.133,6.983-6.981,6.983c-3.85,0-6.984-3.132-6.984-6.983C632.303,343.342,635.438,340.209,639.287,340.209z
			 M640.785,367.906v-2.752c0-0.827-0.67-1.5-1.498-1.5s-1.5,0.673-1.5,1.5v2.752h-6.764l3.532-9.709
			c1.453,0.628,3.052,0.976,4.73,0.976c1.682,0,3.276-0.348,4.729-0.976l3.533,9.709H640.785z"/>
	</g>
	<polyline fill="none" points="519.41,465.696 520.049,465.696 528.42,465.696 	"/>
	<line fill="none" x1="280.59" y1="465.696" x2="271.2" y2="465.696"/>
	<g>
		<path fill="#1D1D1B" d="M118.08,504.212v-2.344c1.4,0.521,2.982,0.781,4.746,0.781c2.142,0,3.213-0.717,3.213-2.148
			c0-1.042-0.658-1.562-1.973-1.562h-2.188c-2.858,0-4.287-1.303-4.287-3.906c0-2.864,2.035-4.297,6.104-4.297
			c1.563,0,3.043,0.228,4.443,0.684v2.344c-1.4-0.521-2.881-0.78-4.443-0.78c-2.344,0-3.516,0.684-3.516,2.051
			c0,1.042,0.566,1.562,1.699,1.562h2.188c3.041,0,4.561,1.303,4.561,3.906c0,2.93-1.934,4.395-5.801,4.395
			C121.062,504.896,119.48,504.668,118.08,504.212z"/>
		<path fill="#1D1D1B" d="M141.957,504.212c-1.205,0.456-2.572,0.685-4.102,0.685c-5.013,0-7.52-2.426-7.52-7.275
			c0-4.59,2.506-6.885,7.52-6.885c1.53,0,2.897,0.228,4.102,0.684v2.344c-1.205-0.521-2.506-0.78-3.906-0.78
			c-3.353,0-5.029,1.546-5.029,4.639c0,3.353,1.676,5.029,5.029,5.029c1.4,0,2.702-0.262,3.906-0.781V504.212z"/>
		<path fill="#1D1D1B" d="M145.834,504.798h-2.656l5.928-13.965h2.783l6.055,13.965h-2.783l-1.592-3.809h-4.639l0.889-2.246h2.813
			l-2.197-5.244L145.834,504.798z"/>
		<path fill="#1D1D1B" d="M159.652,504.798v-13.965h5.469c4.623,0,6.934,2.2,6.934,6.602c0,4.909-2.311,7.363-6.934,7.363H159.652z
			 M165.121,502.552c2.897,0,4.346-1.706,4.346-5.117c0-2.902-1.449-4.354-4.346-4.354h-2.881v9.473L165.121,502.552
			L165.121,502.552z"/>
		<path fill="#1D1D1B" d="M175.688,504.798h-2.656l5.928-13.965h2.783l6.055,13.965h-2.783l-1.592-3.809h-4.639l0.889-2.246h2.813
			l-2.197-5.244L175.688,504.798z"/>
	</g>
	<g>
		<path fill="#1D1D1B" d="M398.9,504.153c-1.126,0.495-2.536,0.741-4.229,0.741c-4.928,0-7.393-2.425-7.393-7.274
			c0-4.59,2.506-6.885,7.52-6.885c1.53,0,2.897,0.228,4.103,0.684v2.344c-1.205-0.521-2.507-0.78-3.906-0.78
			c-3.354,0-5.029,1.546-5.029,4.639c0,3.353,1.582,5.029,4.746,5.029c0.469,0,1.002-0.078,1.602-0.234v-4.063h2.589L398.9,504.153
			L398.9,504.153z"/>
		<path fill="#1D1D1B" d="M403.93,490.833v13.965h-2.588v-13.965H403.93z"/>
		<path fill="#1D1D1B" d="M406.615,504.212v-2.344c1.399,0.521,2.981,0.781,4.746,0.781c2.143,0,3.213-0.717,3.213-2.148
			c0-1.042-0.658-1.562-1.974-1.562h-2.188c-2.857,0-4.287-1.303-4.287-3.906c0-2.864,2.035-4.297,6.104-4.297
			c1.562,0,3.043,0.228,4.442,0.684v2.344c-1.399-0.521-2.881-0.78-4.442-0.78c-2.345,0-3.517,0.684-3.517,2.051
			c0,1.042,0.566,1.562,1.699,1.562h2.188c3.041,0,4.562,1.303,4.562,3.906c0,2.93-1.934,4.395-5.801,4.395
			C409.598,504.896,408.016,504.668,406.615,504.212z"/>
	</g>
	<g>
		<path fill="#1D1D1B" d="M557.396,497.835c0-4.733,2.338-7.1,7.012-7.1c4.604,0,6.904,2.365,6.904,7.1
			c0,4.707-2.302,7.062-6.904,7.062C559.941,504.896,557.605,502.542,557.396,497.835z M564.408,502.649
			c2.812,0,4.219-1.624,4.219-4.873c0-3.196-1.406-4.795-4.219-4.795c-2.885,0-4.326,1.599-4.326,4.795
			C560.082,501.025,561.523,502.649,564.408,502.649z"/>
		<path fill="#1D1D1B" d="M583.314,490.833v2.227h-6.992v3.517h6.66v2.313h-6.689v3.662h7.158v2.246h-9.697v-13.965H583.314
			L583.314,490.833z"/>
		<path fill="#1D1D1B" d="M585.844,504.798v-13.965h2.687l4.735,10.596l4.64-10.596h2.588v13.965H598.1v-9.727l-3.789,9.727h-2.207
			l-3.866-9.727v9.727H585.844z"/>
		<path fill="#1D1D1B" d="M607.816,504.798v-13.965h5.469c4.623,0,6.934,2.2,6.934,6.602c0,4.909-2.311,7.363-6.934,7.363H607.816z
			 M613.285,502.552c2.896,0,4.346-1.706,4.346-5.117c0-2.902-1.449-4.354-4.346-4.354h-2.881v9.473L613.285,502.552
			L613.285,502.552z"/>
		<path fill="#1D1D1B" d="M623.852,504.798h-2.655l5.928-13.965h2.783l6.055,13.965h-2.783l-1.592-3.809h-4.639l0.889-2.246h2.813
			l-2.197-5.244L623.852,504.798z"/>
		<path fill="#1D1D1B" d="M637.426,504.212v-2.344c1.4,0.521,2.982,0.781,4.746,0.781c2.144,0,3.213-0.717,3.213-2.148
			c0-1.042-0.658-1.562-1.973-1.562h-2.188c-2.856,0-4.286-1.303-4.286-3.906c0-2.864,2.034-4.297,6.104-4.297
			c1.562,0,3.043,0.228,4.443,0.684v2.344c-1.4-0.521-2.881-0.78-4.443-0.78c-2.344,0-3.516,0.684-3.516,2.051
			c0,1.042,0.565,1.562,1.698,1.562h2.188c3.041,0,4.561,1.303,4.561,3.906c0,2.93-1.934,4.395-5.801,4.395
			C640.408,504.896,638.826,504.668,637.426,504.212z"/>
		<path fill="#1D1D1B" d="M650.17,504.798v-13.965h2.588v5.762h6.885v-5.762h2.589v13.965h-2.589v-5.957h-6.885v5.957H650.17z"/>
		<path fill="#1D1D1B" d="M665.16,504.798v-13.965h6.543c2.656,0,3.984,1.084,3.984,3.252c0,1.589-0.865,2.725-2.599,3.408
			c1.851,0.345,2.773,1.403,2.773,3.174c0,2.754-1.455,4.131-4.365,4.131H665.16L665.16,504.798z M671.391,502.552
			c1.146,0,1.72-0.586,1.72-1.758c0-1.452-0.855-2.178-2.568-2.178h-0.781v-1.67c2.148-0.358,3.224-1.257,3.224-2.695
			c0-0.781-0.482-1.172-1.445-1.172h-3.789v9.473H671.391L671.391,502.552z"/>
		<path fill="#1D1D1B" d="M677.572,497.835c0-4.733,2.338-7.1,7.012-7.1c4.604,0,6.904,2.365,6.904,7.1
			c0,4.707-2.301,7.062-6.904,7.062C680.117,504.896,677.781,502.542,677.572,497.835z M684.584,502.649
			c2.812,0,4.219-1.624,4.219-4.873c0-3.196-1.406-4.795-4.219-4.795c-2.885,0-4.326,1.599-4.326,4.795
			C680.258,501.025,681.699,502.649,684.584,502.649z"/>
		<path fill="#1D1D1B" d="M695.365,504.798h-2.656l5.928-13.965h2.783l6.055,13.965h-2.782l-1.593-3.809h-4.639l0.889-2.246h2.813
			l-2.197-5.244L695.365,504.798z"/>
		<path fill="#1D1D1B" d="M709.184,504.778v-13.945h6.349c2.852,0,4.276,1.247,4.276,3.74c0,1.687-1.108,3.083-3.33,4.188
			l4.425,6.035h-3.263l-4.248-6.084v-1.182c2.476-0.423,3.711-1.385,3.711-2.881c0-1.028-0.579-1.543-1.737-1.543h-3.545v11.67
			L709.184,504.778L709.184,504.778z"/>
		<path fill="#1D1D1B" d="M722.123,504.798v-13.965h5.469c4.623,0,6.935,2.2,6.935,6.602c0,4.909-2.312,7.363-6.935,7.363H722.123z
			 M727.592,502.552c2.896,0,4.346-1.706,4.346-5.117c0-2.902-1.448-4.354-4.346-4.354h-2.881v9.473L727.592,502.552
			L727.592,502.552z"/>
	</g>
</g>
</svg>
