<?xml version="1.0" encoding="utf-8"?>
<!-- Generator: Adobe Illustrator 16.0.0, SVG Export Plug-In . SVG Version: 6.00 Build 0)  -->
<!DOCTYPE svg PUBLIC "-//W3C//DTD SVG 1.1//EN" "http://www.w3.org/Graphics/SVG/1.1/DTD/svg11.dtd">
<svg version="1.1" id="Capa_1" xmlns="http://www.w3.org/2000/svg" xmlns:xlink="http://www.w3.org/1999/xlink" x="0px" y="0px"
	 width="769.953px" height="543.784px" viewBox="15.023 124.966 769.953 543.784"
	 enable-background="new 15.023 124.966 769.953 543.784" xml:space="preserve">
<g>
	<g>
		<path opacity="0.8" fill="#C1DBA2" enable-background="new    " d="M391.176,248.898v66.511H135.191v-66.511
			c0-10.4,7.478-18.812,16.688-18.812h222.604C383.693,230.086,391.176,238.498,391.176,248.898z"/>
		<rect x="135.191" y="315.409" opacity="0.8" fill="#A0CA76" enable-background="new    " width="255.984" height="85.321"/>
		<rect x="135.191" y="400.73" opacity="0.8" fill="#8DC263" enable-background="new    " width="255.984" height="85.323"/>
		<rect x="135.191" y="486.055" opacity="0.8" fill="#6BB535" enable-background="new    " width="255.984" height="85.337"/>
		<path opacity="0.8" fill="#518E32" enable-background="new    " d="M391.176,571.392v66.496c0,10.4-7.481,18.828-16.692,18.828
			H151.88c-9.211,0-16.688-8.428-16.688-18.828v-66.495L391.176,571.392L391.176,571.392z"/>
		<g>
			<path fill="#FFFFFF" d="M214.861,281.567c-1.404,0-2.679-0.132-3.821-0.394c-1.143-0.263-2.032-0.59-2.669-0.983l0.422-3.793
				c0.637,0.573,1.484,1.053,2.543,1.441c1.058,0.388,2.261,0.581,3.609,0.581c2.585,0,3.877-0.801,3.877-2.404
				c0-0.597-0.183-1.104-0.548-1.524c-0.365-0.419-0.801-0.769-1.306-1.049c-0.506-0.279-1.025-0.498-1.56-0.656
				c-0.534-0.159-0.97-0.294-1.307-0.406c-0.73-0.225-1.456-0.468-2.177-0.73c-0.722-0.262-1.368-0.59-1.938-0.983
				c-0.572-0.393-1.03-0.885-1.377-1.475c-0.347-0.59-0.52-1.335-0.52-2.233c0-0.655,0.121-1.33,0.365-2.023
				c0.243-0.692,0.641-1.32,1.193-1.882c0.552-0.562,1.283-1.025,2.191-1.391c0.908-0.366,2.027-0.548,3.357-0.548
				c0.6,0,1.208,0.042,1.826,0.126c0.618,0.085,1.208,0.197,1.771,0.338c0.562,0.14,1.071,0.3,1.53,0.478
				c0.459,0.178,0.829,0.351,1.11,0.52l-0.337,3.428c-2.229-1.161-4.14-1.742-5.731-1.742c-0.487,0-0.96,0.042-1.419,0.126
				c-0.459,0.084-0.866,0.219-1.222,0.405c-0.356,0.187-0.646,0.429-0.871,0.726c-0.225,0.299-0.338,0.652-0.338,1.062
				c0,0.578,0.183,1.034,0.548,1.369c0.365,0.336,0.871,0.629,1.518,0.88c0.646,0.252,1.409,0.509,2.29,0.771
				c0.88,0.263,1.835,0.618,2.865,1.067c0.394,0.15,0.81,0.361,1.25,0.633c0.44,0.272,0.848,0.608,1.223,1.011
				c0.374,0.403,0.684,0.876,0.927,1.419c0.243,0.544,0.365,1.171,0.365,1.883c0,0.562-0.07,1.188-0.211,1.882
				c-0.141,0.693-0.468,1.344-0.983,1.952c-0.515,0.609-1.278,1.115-2.289,1.518C218.008,281.365,216.621,281.567,214.861,281.567z"
				/>
			<path fill="#FFFFFF" d="M224.188,274.206c0-1.012,0.164-1.962,0.491-2.852c0.328-0.89,0.796-1.657,1.405-2.304
				c0.608-0.646,1.349-1.156,2.22-1.531c0.87-0.374,1.84-0.562,2.907-0.562s2.032,0.188,2.894,0.562
				c0.861,0.375,1.597,0.89,2.206,1.545c0.608,0.656,1.081,1.424,1.419,2.305c0.337,0.88,0.505,1.825,0.505,2.837
				c0,1.012-0.164,1.957-0.491,2.838c-0.328,0.88-0.797,1.648-1.405,2.304c-0.608,0.656-1.348,1.171-2.219,1.545
				s-1.841,0.562-2.908,0.562c-1.086,0-2.061-0.188-2.922-0.562s-1.597-0.885-2.205-1.531c-0.609-0.646-1.077-1.409-1.405-2.289
				C224.353,276.191,224.188,275.236,224.188,274.206z M227.447,274.192c0,1.4,0.332,2.511,0.997,3.333
				c0.665,0.821,1.588,1.232,2.768,1.232c1.18,0,2.103-0.411,2.768-1.232c0.664-0.822,0.997-1.933,0.997-3.333
				s-0.333-2.507-0.997-3.319c-0.665-0.812-1.588-1.218-2.768-1.218c-1.18,0-2.103,0.406-2.768,1.218
				C227.779,271.686,227.447,272.792,227.447,274.192z"/>
			<path fill="#FFFFFF" d="M247.9,269.795h-3.287v11.379h-3.175v-11.379h-2.135l0.337-2.584h1.798v-3.371
				c0-0.524,0.075-1.017,0.226-1.476c0.149-0.459,0.365-0.856,0.646-1.194c0.281-0.337,0.628-0.599,1.04-0.786
				c0.411-0.188,0.88-0.281,1.404-0.281c0.468,0,0.955,0.02,1.461,0.056c0.506,0.037,1.04,0.093,1.602,0.167l-0.31,2.644
				c-0.431-0.112-0.955-0.169-1.573-0.169c-0.28,0-0.505,0.033-0.674,0.1c-0.169,0.065-0.305,0.192-0.407,0.381
				c-0.104,0.188-0.169,0.453-0.197,0.792c-0.027,0.34-0.042,0.771-0.042,1.301v1.838h3.287L247.9,269.795L247.9,269.795z"/>
			<path fill="#FFFFFF" d="M257.396,278.842l-0.28,2.612H254.7c-0.618,0-1.162-0.094-1.63-0.28c-0.469-0.188-0.856-0.44-1.166-0.759
				c-0.309-0.318-0.538-0.692-0.688-1.124c-0.149-0.431-0.225-0.898-0.225-1.404v-8.092h-2.106l0.28-2.584h1.826v-3.175l3.175-0.337
				v3.512h3.259v2.584h-3.259v6.631c0,0.581,0.019,1.035,0.057,1.362c0.037,0.328,0.131,0.566,0.28,0.717
				c0.15,0.149,0.384,0.243,0.702,0.28c0.318,0.038,0.759,0.057,1.321,0.057H257.396z"/>
			<path fill="#FFFFFF" d="M278.129,267.211l-4.13,13.963h-2.894l-2.865-9.468l-2.894,9.468h-2.895l-4.13-13.963h3.287l2.473,10.17
				l2.726-9.833h2.837l2.697,9.833l2.528-10.17H278.129z"/>
			<path fill="#FFFFFF" d="M291.839,278.842l-0.309,2.612h-0.955c-1.573,0-2.66-0.58-3.26-1.741
				c-1.011,1.161-2.435,1.741-4.27,1.741c-0.6,0-1.152-0.098-1.658-0.295c-0.506-0.196-0.94-0.478-1.306-0.843
				c-0.366-0.365-0.651-0.805-0.857-1.32c-0.206-0.515-0.309-1.081-0.309-1.699c0-0.955,0.275-1.746,0.828-2.374
				c0.553-0.628,1.231-1.133,2.037-1.518c0.805-0.384,1.672-0.655,2.599-0.814c0.928-0.159,1.774-0.248,2.543-0.267
				c-0.02-0.955-0.234-1.625-0.646-2.009c-0.412-0.384-1.096-0.576-2.051-0.576c-1.143,0-2.397,0.375-3.765,1.124l-0.337-2.585
				c1.61-0.88,3.268-1.32,4.973-1.32c1.686,0,2.945,0.464,3.778,1.391c0.833,0.927,1.25,2.449,1.25,4.565v3.483
				c0,0.524,0.015,0.946,0.042,1.265c0.028,0.318,0.089,0.566,0.183,0.744c0.094,0.179,0.229,0.295,0.408,0.352
				c0.178,0.056,0.416,0.084,0.716,0.084H291.839z M286.923,277.718v-3.23c-1.405,0.056-2.538,0.305-3.399,0.744
				c-0.862,0.44-1.293,1.082-1.293,1.925c0,1.218,0.655,1.826,1.967,1.826c0.449,0,0.928-0.112,1.433-0.337
				C286.136,278.42,286.566,278.111,286.923,277.718z"/>
			<path fill="#FFFFFF" d="M301.616,266.901l-0.618,3.119h-1.18c-0.562,0-1.101,0.149-1.616,0.449
				c-0.515,0.3-0.885,0.655-1.109,1.067v9.637h-3.259V267.21h2.894l0.169,1.741c1.235-1.366,2.574-2.051,4.018-2.051
				L301.616,266.901L301.616,266.901z"/>
			<path fill="#FFFFFF" d="M314.792,274.712h-9.355c0.188,1.396,0.698,2.418,1.531,3.069c0.834,0.651,1.821,0.977,2.964,0.977
				c1.442,0,2.849-0.338,4.215-1.012l0.226,2.641c-1.461,0.712-3.016,1.067-4.664,1.067c-1.198,0-2.267-0.183-3.202-0.548
				c-0.938-0.365-1.729-0.875-2.374-1.53c-0.646-0.656-1.138-1.424-1.476-2.304c-0.337-0.881-0.505-1.845-0.505-2.896
				c0-1.011,0.154-1.952,0.463-2.823c0.31-0.871,0.759-1.634,1.349-2.29c0.59-0.655,1.297-1.17,2.121-1.545
				c0.824-0.374,1.761-0.562,2.81-0.562c0.881,0,1.69,0.146,2.431,0.436s1.382,0.697,1.925,1.222
				c0.543,0.525,0.97,1.157,1.278,1.896c0.31,0.74,0.464,1.56,0.464,2.458c0,0.225-0.016,0.482-0.042,0.772
				C314.919,274.033,314.867,274.356,314.792,274.712z M308.949,269.655c-1.836,0-2.96,0.965-3.372,2.894h6.153
				c0-0.806-0.227-1.489-0.676-2.051C310.606,269.936,309.904,269.655,308.949,269.655z"/>
		</g>
		<g>
			<path fill="#FFFFFF" d="M210.959,357.668h-3.755v6.603h-3.371v-19.666h5.787c1.255,0,2.374,0.075,3.357,0.225
				s1.816,0.449,2.5,0.898c0.684,0.45,1.203,1.082,1.56,1.896c0.355,0.815,0.534,1.878,0.534,3.189c0,1.33-0.206,2.43-0.617,3.301
				c-0.41,0.871-0.938,1.573-1.582,2.107c-0.645,0.533-1.359,0.908-2.144,1.123C212.443,357.561,211.687,357.668,210.959,357.668z
				 M210.182,347.414h-2.978v7.191h3.259c1.349,0,2.309-0.285,2.88-0.856c0.571-0.571,0.856-1.531,0.856-2.88
				c0-0.618-0.065-1.146-0.196-1.587c-0.131-0.441-0.352-0.801-0.66-1.082c-0.31-0.281-0.722-0.481-1.236-0.604
				C211.591,347.475,210.95,347.414,210.182,347.414z"/>
			<path fill="#FFFFFF" d="M231.309,357.809h-9.355c0.188,1.396,0.698,2.418,1.531,3.069c0.834,0.651,1.821,0.977,2.964,0.977
				c1.442,0,2.848-0.338,4.215-1.012l0.225,2.641c-1.461,0.712-3.016,1.067-4.664,1.067c-1.198,0-2.267-0.183-3.202-0.548
				c-0.938-0.365-1.729-0.875-2.374-1.53c-0.646-0.656-1.138-1.424-1.476-2.304c-0.337-0.881-0.505-1.845-0.505-2.895
				c0-1.011,0.154-1.952,0.463-2.823c0.31-0.871,0.759-1.634,1.349-2.29c0.59-0.655,1.297-1.17,2.121-1.545
				c0.824-0.374,1.761-0.562,2.81-0.562c0.88,0,1.69,0.146,2.43,0.436c0.74,0.29,1.382,0.697,1.925,1.222s0.97,1.157,1.278,1.896
				c0.31,0.74,0.464,1.56,0.464,2.458c0,0.225-0.015,0.482-0.042,0.772C231.436,357.13,231.384,357.453,231.309,357.809z
				 M225.466,352.752c-1.836,0-2.96,0.965-3.372,2.894h6.153c0-0.806-0.226-1.489-0.675-2.051
				C227.123,353.032,226.421,352.752,225.466,352.752z"/>
			<path fill="#FFFFFF" d="M241.76,349.998l-0.618,3.119h-1.18c-0.562,0-1.101,0.149-1.615,0.449
				c-0.516,0.3-0.885,0.655-1.109,1.067v9.637h-3.26v-13.963h2.895l0.168,1.741c1.236-1.366,2.575-2.051,4.018-2.051L241.76,349.998
				L241.76,349.998z"/>
			<path fill="#FFFFFF" d="M247.435,364.551c-2.079,0-3.662-0.365-4.748-1.096l0.31-2.809c0.225,0.168,0.501,0.337,0.828,0.505
				c0.328,0.169,0.684,0.319,1.068,0.45c0.384,0.131,0.786,0.238,1.208,0.323c0.421,0.084,0.828,0.126,1.222,0.126
				c0.806,0,1.396-0.149,1.771-0.449c0.374-0.3,0.562-0.684,0.562-1.152c0-0.449-0.201-0.824-0.604-1.124
				c-0.402-0.299-0.89-0.562-1.461-0.786c-0.571-0.224-1.165-0.436-1.783-0.632c-0.618-0.197-1.134-0.417-1.546-0.66
				c-0.918-0.543-1.376-1.479-1.376-2.81c0-0.562,0.098-1.11,0.295-1.644c0.196-0.534,0.506-1.002,0.927-1.405
				c0.422-0.402,0.955-0.726,1.602-0.969s1.419-0.365,2.317-0.365c1.704,0,3.109,0.337,4.215,1.012l-0.31,2.753
				c-1.049-0.937-2.285-1.405-3.708-1.405c-0.712,0-1.298,0.132-1.756,0.394c-0.459,0.263-0.688,0.675-0.688,1.236
				c0,0.375,0.089,0.674,0.267,0.899c0.178,0.225,0.417,0.412,0.717,0.562c0.299,0.15,0.642,0.271,1.025,0.365
				c0.383,0.094,0.781,0.196,1.194,0.309c2.584,0.656,3.877,2.07,3.877,4.242c0,0.45-0.066,0.913-0.197,1.391
				c-0.131,0.479-0.394,0.923-0.786,1.335c-0.394,0.412-0.946,0.749-1.658,1.012C249.504,364.42,248.577,364.551,247.435,364.551z"
				/>
			<path fill="#FFFFFF" d="M254.431,357.303c0-1.012,0.163-1.962,0.491-2.852c0.327-0.89,0.796-1.657,1.404-2.304
				c0.608-0.647,1.349-1.156,2.22-1.531c0.871-0.374,1.84-0.562,2.908-0.562c1.067,0,2.031,0.188,2.894,0.562
				c0.861,0.375,1.597,0.89,2.205,1.545c0.608,0.656,1.082,1.424,1.419,2.305c0.337,0.88,0.506,1.825,0.506,2.837
				c0,1.012-0.164,1.957-0.492,2.838c-0.327,0.88-0.796,1.648-1.404,2.304c-0.609,0.655-1.349,1.171-2.22,1.545
				c-0.871,0.374-1.84,0.562-2.907,0.562c-1.087,0-2.061-0.188-2.922-0.562c-0.862-0.374-1.598-0.885-2.206-1.531
				c-0.608-0.646-1.077-1.409-1.404-2.289C254.594,359.288,254.431,358.333,254.431,357.303z M257.689,357.289
				c0,1.4,0.332,2.511,0.997,3.333c0.665,0.821,1.587,1.232,2.768,1.232c1.18,0,2.102-0.411,2.767-1.232
				c0.665-0.822,0.998-1.933,0.998-3.333s-0.333-2.507-0.998-3.319c-0.665-0.812-1.587-1.218-2.767-1.218
				c-1.181,0-2.103,0.406-2.768,1.218S257.689,355.889,257.689,357.289z"/>
			<path fill="#FFFFFF" d="M283.367,364.271h-3.175v-7.558c0-1.367-0.238-2.369-0.716-3.006c-0.478-0.637-1.25-0.955-2.318-0.955
				c-1.311,0-2.312,0.459-3.006,1.376v10.143h-3.175v-13.963h2.866l0.112,1.039c1.086-0.861,2.266-1.292,3.54-1.292
				c3.914,0,5.871,2.22,5.871,6.658L283.367,364.271L283.367,364.271z"/>
			<path fill="#FFFFFF" d="M298.96,364.271h-3.175v-7.558c0-1.367-0.239-2.369-0.717-3.006c-0.478-0.637-1.25-0.955-2.317-0.955
				c-1.312,0-2.313,0.459-3.006,1.376v10.143h-3.175v-13.963h2.865l0.112,1.039c1.086-0.861,2.267-1.292,3.54-1.292
				c3.914,0,5.872,2.22,5.872,6.658L298.96,364.271L298.96,364.271z"/>
			<path fill="#FFFFFF" d="M313.934,357.809h-9.354c0.188,1.396,0.698,2.418,1.531,3.069c0.834,0.651,1.82,0.977,2.964,0.977
				c1.441,0,2.848-0.338,4.215-1.012l0.225,2.641c-1.461,0.712-3.016,1.067-4.664,1.067c-1.197,0-2.267-0.183-3.202-0.548
				c-0.938-0.365-1.729-0.875-2.374-1.53c-0.646-0.656-1.138-1.424-1.476-2.304c-0.337-0.881-0.505-1.845-0.505-2.895
				c0-1.011,0.154-1.952,0.463-2.823c0.31-0.871,0.759-1.634,1.349-2.29c0.59-0.655,1.297-1.17,2.121-1.545
				c0.824-0.374,1.761-0.562,2.81-0.562c0.88,0,1.689,0.146,2.43,0.436c0.74,0.29,1.382,0.697,1.925,1.222s0.971,1.157,1.278,1.896
				c0.31,0.74,0.464,1.56,0.464,2.458c0,0.225-0.015,0.482-0.042,0.772C314.061,357.13,314.009,357.453,313.934,357.809z
				 M308.091,352.752c-1.836,0-2.96,0.965-3.372,2.894h6.153c0-0.806-0.226-1.489-0.675-2.051
				C309.748,353.032,309.046,352.752,308.091,352.752z"/>
			<path fill="#FFFFFF" d="M321.604,361.938l-0.309,2.612h-1.124c-1.199,0-2.098-0.337-2.697-1.011
				c-0.6-0.675-0.897-1.526-0.897-2.557v-17.784h3.202v16.352c0,0.562,0.019,1.002,0.057,1.32c0.037,0.318,0.116,0.558,0.238,0.716
				c0.122,0.16,0.305,0.258,0.548,0.295C320.863,361.92,321.191,361.938,321.604,361.938z"/>
		</g>
		<g>
			<path fill="#FFFFFF" d="M207.529,454.435h-3.456l-1.741-13.71l-5.113,9.411l-5.169-9.383l-1.742,13.682h-3.456l2.697-19.665
				h2.753l4.917,9.215l4.86-9.215h2.753L207.529,454.435z"/>
			<path fill="#FFFFFF" d="M222.194,452.103l-0.309,2.613h-0.955c-1.573,0-2.66-0.581-3.26-1.742
				c-1.011,1.161-2.435,1.742-4.27,1.742c-0.6,0-1.152-0.099-1.658-0.295c-0.506-0.197-0.94-0.478-1.306-0.843
				c-0.366-0.365-0.651-0.806-0.857-1.321c-0.206-0.515-0.309-1.081-0.309-1.699c0-0.955,0.275-1.746,0.828-2.374
				c0.553-0.627,1.231-1.133,2.037-1.518c0.805-0.383,1.672-0.655,2.599-0.814c0.928-0.158,1.774-0.248,2.543-0.267
				c-0.02-0.955-0.234-1.625-0.646-2.009s-1.095-0.576-2.05-0.576c-1.143,0-2.397,0.375-3.765,1.124l-0.337-2.585
				c1.61-0.88,3.268-1.32,4.973-1.32c1.686,0,2.945,0.464,3.778,1.392c0.833,0.927,1.25,2.448,1.25,4.564v3.483
				c0,0.523,0.015,0.945,0.042,1.265c0.028,0.318,0.089,0.566,0.183,0.744c0.094,0.179,0.229,0.295,0.408,0.352
				c0.178,0.057,0.416,0.084,0.716,0.084H222.194z M217.278,450.979v-3.229c-1.405,0.057-2.538,0.305-3.399,0.744
				c-0.862,0.439-1.293,1.082-1.293,1.925c0,1.218,0.655,1.826,1.967,1.826c0.449,0,0.928-0.112,1.433-0.337
				C216.491,451.682,216.922,451.372,217.278,450.979z"/>
			<path fill="#FFFFFF" d="M227.392,438.056h-3.202v-3.287h3.202V438.056z M227.392,454.435h-3.202v-13.963h3.202V454.435z"/>
			<path fill="#FFFFFF" d="M243.152,454.435h-3.175v-7.558c0-1.367-0.238-2.369-0.716-3.006c-0.478-0.637-1.25-0.955-2.318-0.955
				c-1.311,0-2.312,0.459-3.006,1.377v10.142h-3.175v-13.963h2.866l0.112,1.039c1.086-0.859,2.266-1.292,3.54-1.292
				c3.914,0,5.871,2.221,5.871,6.658L243.152,454.435L243.152,454.435z"/>
			<path fill="#FFFFFF" d="M253.491,452.103l-0.28,2.613h-2.416c-0.618,0-1.162-0.095-1.63-0.281
				c-0.469-0.187-0.856-0.438-1.166-0.759c-0.309-0.317-0.538-0.691-0.688-1.123c-0.149-0.431-0.225-0.898-0.225-1.404v-8.092
				h-2.106l0.28-2.585h1.826v-3.175l3.175-0.337v3.512h3.259v2.585h-3.259v6.631c0,0.58,0.019,1.034,0.057,1.361
				c0.037,0.328,0.131,0.567,0.28,0.717c0.15,0.15,0.384,0.243,0.702,0.281c0.318,0.037,0.759,0.057,1.321,0.057L253.491,452.103
				L253.491,452.103z"/>
			<path fill="#FFFFFF" d="M267.595,447.973h-9.355c0.187,1.396,0.697,2.419,1.531,3.069c0.833,0.651,1.821,0.977,2.964,0.977
				c1.442,0,2.847-0.337,4.214-1.012l0.225,2.642c-1.461,0.713-3.016,1.067-4.663,1.067c-1.199,0-2.267-0.183-3.203-0.548
				s-1.728-0.876-2.374-1.531c-0.646-0.654-1.138-1.424-1.475-2.304s-0.506-1.845-0.506-2.894c0-1.013,0.154-1.953,0.464-2.824
				c0.309-0.87,0.758-1.635,1.349-2.289c0.59-0.655,1.296-1.171,2.121-1.546c0.823-0.374,1.76-0.562,2.81-0.562
				c0.88,0,1.689,0.146,2.43,0.437c0.739,0.291,1.381,0.697,1.925,1.222c0.543,0.525,0.969,1.157,1.278,1.896
				c0.309,0.74,0.463,1.561,0.463,2.459c0,0.226-0.014,0.482-0.042,0.772S267.669,447.617,267.595,447.973z M261.751,442.916
				c-1.836,0-2.96,0.965-3.371,2.894h6.152c0-0.805-0.225-1.488-0.674-2.051C263.408,443.197,262.706,442.916,261.751,442.916z"/>
			<path fill="#FFFFFF" d="M282.653,454.435h-3.175v-7.558c0-1.367-0.239-2.369-0.717-3.006s-1.25-0.955-2.317-0.955
				c-1.312,0-2.313,0.459-3.006,1.377v10.142h-3.175v-13.963h2.865l0.112,1.039c1.086-0.859,2.267-1.292,3.54-1.292
				c3.914,0,5.872,2.221,5.872,6.658L282.653,454.435L282.653,454.435z"/>
			<path fill="#FFFFFF" d="M297.712,452.103l-0.31,2.613h-0.955c-1.573,0-2.659-0.581-3.259-1.742
				c-1.012,1.161-2.435,1.742-4.271,1.742c-0.6,0-1.151-0.099-1.657-0.295c-0.506-0.197-0.941-0.478-1.307-0.843
				c-0.366-0.365-0.651-0.806-0.856-1.321c-0.207-0.515-0.31-1.081-0.31-1.699c0-0.955,0.276-1.746,0.829-2.374
				c0.552-0.627,1.231-1.133,2.037-1.518c0.805-0.383,1.671-0.655,2.599-0.814c0.927-0.158,1.774-0.248,2.542-0.267
				c-0.019-0.955-0.234-1.625-0.646-2.009c-0.413-0.384-1.096-0.576-2.052-0.576c-1.143,0-2.397,0.375-3.765,1.124l-0.337-2.585
				c1.61-0.88,3.269-1.32,4.973-1.32c1.686,0,2.945,0.464,3.779,1.392c0.833,0.927,1.25,2.448,1.25,4.564v3.483
				c0,0.523,0.014,0.945,0.042,1.265c0.028,0.319,0.089,0.566,0.183,0.744c0.094,0.179,0.229,0.295,0.407,0.352
				c0.178,0.057,0.417,0.084,0.717,0.084H297.712z M292.795,450.979v-3.229c-1.404,0.057-2.538,0.305-3.399,0.744
				s-1.292,1.082-1.292,1.925c0,1.218,0.655,1.826,1.967,1.826c0.449,0,0.927-0.112,1.433-0.337
				C292.01,451.682,292.439,451.372,292.795,450.979z"/>
			<path fill="#FFFFFF" d="M312.096,454.435h-3.175v-7.558c0-1.367-0.238-2.369-0.716-3.006c-0.479-0.637-1.25-0.955-2.318-0.955
				c-1.311,0-2.312,0.459-3.006,1.377v10.142h-3.175v-13.963h2.866l0.112,1.039c1.086-0.859,2.266-1.292,3.54-1.292
				c3.914,0,5.871,2.221,5.871,6.658L312.096,454.435L312.096,454.435z"/>
			<path fill="#FFFFFF" d="M321.283,454.716c-1.087,0-2.052-0.188-2.896-0.562c-0.843-0.374-1.555-0.886-2.135-1.531
				c-0.581-0.646-1.025-1.409-1.335-2.289c-0.309-0.88-0.463-1.836-0.463-2.866c0-1.028,0.154-1.989,0.463-2.879
				c0.31-0.89,0.754-1.658,1.335-2.304c0.58-0.646,1.292-1.152,2.135-1.519c0.844-0.365,1.809-0.548,2.896-0.548
				c1.723,0,3.127,0.328,4.214,0.983l-0.337,2.753c-1.144-0.692-2.342-1.039-3.598-1.039c-1.235,0-2.187,0.406-2.852,1.219
				s-0.997,1.918-0.997,3.318c0,1.399,0.332,2.512,0.997,3.333c0.665,0.822,1.615,1.231,2.852,1.231
				c1.256,0,2.464-0.337,3.624-1.012l0.311,2.669C324.448,454.369,323.043,454.716,321.283,454.716z"/>
			<path fill="#FFFFFF" d="M339.572,447.973h-9.355c0.188,1.396,0.697,2.419,1.531,3.069c0.834,0.651,1.822,0.977,2.965,0.977
				c1.441,0,2.846-0.337,4.213-1.012l0.228,2.642c-1.461,0.713-3.017,1.067-4.664,1.067c-1.199,0-2.269-0.183-3.203-0.548
				c-0.938-0.365-1.729-0.876-2.374-1.531c-0.646-0.654-1.138-1.424-1.477-2.304c-0.337-0.88-0.505-1.845-0.505-2.894
				c0-1.013,0.154-1.953,0.463-2.824c0.311-0.87,0.76-1.635,1.35-2.289c0.59-0.655,1.297-1.171,2.121-1.546
				c0.823-0.374,1.76-0.562,2.811-0.562c0.879,0,1.689,0.146,2.431,0.437c0.739,0.291,1.381,0.697,1.924,1.222
				c0.543,0.525,0.969,1.157,1.278,1.896c0.31,0.74,0.464,1.561,0.464,2.459c0,0.226-0.015,0.482-0.044,0.772
				C339.699,447.294,339.648,447.617,339.572,447.973z M333.729,442.916c-1.836,0-2.959,0.965-3.37,2.894h6.151
				c0-0.805-0.225-1.488-0.674-2.051C335.387,443.197,334.684,442.916,333.729,442.916z"/>
		</g>
		<g>
			<path fill="#FFFFFF" d="M187.079,535.912h-3.314v-19.666h3.314V535.912z"/>
			<path fill="#FFFFFF" d="M203.093,535.912h-3.175v-7.559c0-1.366-0.238-2.368-0.716-3.006c-0.478-0.637-1.25-0.955-2.318-0.955
				c-1.311,0-2.312,0.459-3.006,1.377v10.143h-3.175v-13.963h2.866l0.112,1.039c1.086-0.86,2.266-1.292,3.54-1.292
				c3.914,0,5.871,2.22,5.871,6.658L203.093,535.912L203.093,535.912z"/>
			<path fill="#FFFFFF" d="M213.46,524.534h-3.287v11.378h-3.175v-11.378h-2.135l0.337-2.585h1.798v-3.371
				c0-0.524,0.075-1.016,0.226-1.477c0.149-0.458,0.365-0.855,0.646-1.192c0.281-0.337,0.628-0.601,1.04-0.787
				c0.411-0.188,0.88-0.28,1.404-0.28c0.468,0,0.955,0.02,1.461,0.057c0.506,0.035,1.04,0.092,1.602,0.166l-0.31,2.644
				c-0.431-0.112-0.955-0.169-1.573-0.169c-0.28,0-0.505,0.033-0.674,0.1c-0.169,0.065-0.305,0.193-0.407,0.383
				c-0.104,0.188-0.169,0.451-0.197,0.791c-0.027,0.34-0.042,0.772-0.042,1.301v1.838h3.287L213.46,524.534L213.46,524.534z"/>
			<path fill="#FFFFFF" d="M223.462,521.641l-0.618,3.118h-1.18c-0.562,0-1.101,0.15-1.616,0.449
				c-0.515,0.3-0.885,0.656-1.109,1.067v9.637h-3.259v-13.963h2.894l0.169,1.742c1.235-1.367,2.574-2.052,4.018-2.052
				L223.462,521.641L223.462,521.641z"/>
			<path fill="#FFFFFF" d="M236.862,533.58l-0.309,2.613h-0.955c-1.573,0-2.66-0.581-3.26-1.742
				c-1.011,1.161-2.435,1.742-4.27,1.742c-0.6,0-1.152-0.1-1.658-0.295c-0.506-0.197-0.94-0.479-1.306-0.844
				c-0.366-0.364-0.651-0.806-0.857-1.32c-0.206-0.516-0.309-1.081-0.309-1.699c0-0.955,0.275-1.746,0.828-2.374
				c0.553-0.627,1.231-1.133,2.037-1.519c0.805-0.383,1.672-0.654,2.599-0.813c0.928-0.159,1.774-0.248,2.543-0.268
				c-0.02-0.954-0.234-1.625-0.646-2.009c-0.412-0.384-1.096-0.576-2.051-0.576c-1.143,0-2.397,0.375-3.765,1.124l-0.337-2.585
				c1.61-0.88,3.268-1.319,4.973-1.319c1.686,0,2.945,0.464,3.778,1.391s1.25,2.449,1.25,4.565v3.482
				c0,0.524,0.015,0.946,0.042,1.266c0.028,0.317,0.089,0.565,0.183,0.743c0.094,0.18,0.229,0.296,0.408,0.353
				c0.178,0.056,0.416,0.084,0.716,0.084H236.862L236.862,533.58z M231.946,532.456v-3.23c-1.405,0.058-2.538,0.306-3.399,0.744
				c-0.862,0.44-1.293,1.082-1.293,1.925c0,1.219,0.655,1.826,1.967,1.826c0.449,0,0.928-0.111,1.433-0.337
				C231.159,533.159,231.59,532.85,231.946,532.456z"/>
			<path fill="#FFFFFF" d="M242.818,536.193c-2.079,0-3.662-0.365-4.748-1.097l0.31-2.81c0.225,0.168,0.501,0.337,0.828,0.506
				c0.328,0.168,0.684,0.318,1.068,0.449c0.384,0.131,0.786,0.238,1.208,0.322c0.421,0.084,0.828,0.127,1.222,0.127
				c0.806,0,1.396-0.149,1.771-0.449c0.374-0.3,0.562-0.685,0.562-1.152c0-0.449-0.201-0.823-0.604-1.123
				c-0.402-0.3-0.89-0.562-1.461-0.787c-0.571-0.225-1.165-0.436-1.783-0.632s-1.134-0.417-1.546-0.66
				c-0.918-0.543-1.376-1.479-1.376-2.81c0-0.562,0.098-1.109,0.295-1.645c0.196-0.533,0.506-1.002,0.927-1.403
				c0.422-0.403,0.955-0.727,1.602-0.97c0.646-0.243,1.419-0.365,2.317-0.365c1.704,0,3.109,0.337,4.215,1.012l-0.31,2.753
				c-1.049-0.937-2.285-1.404-3.708-1.404c-0.712,0-1.298,0.132-1.756,0.394c-0.459,0.263-0.688,0.675-0.688,1.236
				c0,0.375,0.089,0.675,0.267,0.898c0.178,0.225,0.417,0.412,0.717,0.562c0.299,0.149,0.642,0.271,1.025,0.364
				c0.383,0.095,0.781,0.197,1.194,0.311c2.584,0.655,3.877,2.068,3.877,4.242c0,0.448-0.066,0.913-0.197,1.391
				s-0.394,0.923-0.786,1.334c-0.394,0.412-0.946,0.75-1.658,1.012C244.89,536.062,243.961,536.193,242.818,536.193z"/>
			<path fill="#FFFFFF" d="M257.961,533.58l-0.28,2.613h-2.416c-0.618,0-1.162-0.096-1.63-0.281
				c-0.469-0.188-0.856-0.439-1.166-0.759c-0.309-0.318-0.538-0.692-0.688-1.123c-0.149-0.432-0.225-0.899-0.225-1.405v-8.091
				h-2.106l0.28-2.585h1.826v-3.175l3.175-0.337v3.512h3.259v2.585h-3.259v6.63c0,0.581,0.019,1.035,0.057,1.362
				c0.037,0.328,0.131,0.566,0.28,0.717c0.15,0.149,0.384,0.243,0.702,0.281c0.318,0.036,0.759,0.056,1.321,0.056H257.961
				L257.961,533.58z"/>
			<path fill="#FFFFFF" d="M268.075,521.641l-0.618,3.118h-1.18c-0.562,0-1.101,0.15-1.616,0.449
				c-0.515,0.3-0.885,0.656-1.109,1.067v9.637h-3.259v-13.963h2.894l0.169,1.742c1.235-1.367,2.574-2.052,4.018-2.052
				L268.075,521.641L268.075,521.641z"/>
			<path fill="#FFFFFF" d="M281.7,535.912h-2.922l-0.141-1.039c-0.937,0.88-2.051,1.32-3.343,1.32c-3.783,0-5.675-2.183-5.675-6.547
				v-7.697h3.175v7.491c0,1.407,0.233,2.437,0.702,3.084c0.468,0.647,1.208,0.972,2.22,0.972c1.235,0,2.172-0.432,2.809-1.296
				v-10.251h3.175V535.912z"/>
			<path fill="#FFFFFF" d="M291.056,536.193c-1.086,0-2.051-0.188-2.894-0.562c-0.843-0.374-1.555-0.885-2.136-1.531
				c-0.58-0.646-1.025-1.408-1.334-2.289c-0.309-0.88-0.464-1.836-0.464-2.865s0.155-1.989,0.464-2.879
				c0.309-0.891,0.754-1.658,1.334-2.305c0.581-0.646,1.293-1.151,2.136-1.518c0.843-0.366,1.808-0.548,2.894-0.548
				c1.723,0,3.128,0.327,4.214,0.982l-0.337,2.753c-1.143-0.691-2.342-1.039-3.596-1.039c-1.236,0-2.188,0.406-2.852,1.22
				c-0.665,0.812-0.998,1.918-0.998,3.317c0,1.4,0.333,2.512,0.998,3.333c0.664,0.822,1.615,1.232,2.852,1.232
				c1.254,0,2.463-0.337,3.624-1.013l0.309,2.67C294.221,535.847,292.816,536.193,291.056,536.193z"/>
			<path fill="#FFFFFF" d="M304.99,533.58l-0.28,2.613h-2.416c-0.618,0-1.162-0.096-1.63-0.281
				c-0.469-0.188-0.856-0.439-1.166-0.759c-0.309-0.318-0.538-0.692-0.688-1.123c-0.149-0.432-0.225-0.899-0.225-1.405v-8.091
				h-2.106l0.28-2.585h1.826v-3.175l3.175-0.337v3.512h3.259v2.585h-3.259v6.63c0,0.581,0.019,1.035,0.057,1.362
				c0.037,0.328,0.131,0.566,0.28,0.717c0.15,0.149,0.384,0.243,0.702,0.281c0.318,0.036,0.759,0.056,1.321,0.056H304.99
				L304.99,533.58z"/>
			<path fill="#FFFFFF" d="M319.234,535.912h-2.922l-0.142-1.039c-0.937,0.88-2.051,1.32-3.343,1.32
				c-3.784,0-5.676-2.183-5.676-6.547v-7.697h3.175v7.491c0,1.407,0.233,2.437,0.702,3.084s1.208,0.972,2.22,0.972
				c1.236,0,2.173-0.432,2.81-1.296v-10.251h3.176V535.912z"/>
			<path fill="#FFFFFF" d="M330.388,521.641l-0.618,3.118h-1.18c-0.562,0-1.101,0.15-1.616,0.449
				c-0.515,0.3-0.885,0.656-1.108,1.067v9.637h-3.259v-13.963h2.894l0.169,1.742c1.235-1.367,2.574-2.052,4.019-2.052
				L330.388,521.641L330.388,521.641z"/>
			<path fill="#FFFFFF" d="M343.562,529.45h-9.354c0.188,1.396,0.697,2.419,1.531,3.068c0.833,0.651,1.82,0.978,2.964,0.978
				c1.441,0,2.847-0.337,4.214-1.012l0.226,2.641c-1.461,0.713-3.016,1.068-4.664,1.068c-1.198,0-2.267-0.184-3.202-0.549
				c-0.937-0.364-1.729-0.876-2.374-1.53c-0.646-0.655-1.139-1.425-1.476-2.305s-0.506-1.845-0.506-2.894
				c0-1.012,0.155-1.953,0.464-2.824c0.31-0.87,0.759-1.634,1.35-2.289c0.59-0.654,1.297-1.171,2.12-1.546
				c0.824-0.374,1.761-0.562,2.811-0.562c0.88,0,1.688,0.146,2.43,0.436c0.74,0.291,1.381,0.698,1.925,1.222
				c0.543,0.525,0.97,1.157,1.278,1.896c0.31,0.74,0.464,1.56,0.464,2.459c0,0.225-0.015,0.481-0.043,0.771
				C343.69,528.771,343.639,529.095,343.562,529.45z M337.72,524.394c-1.836,0-2.959,0.966-3.371,2.895h6.152
				c0-0.805-0.225-1.489-0.674-2.051C339.378,524.675,338.675,524.394,337.72,524.394z"/>
		</g>
		<g>
			<path fill="#FFFFFF" d="M222.469,623.087h-3.315v-8.709h-9.833v8.709h-3.314v-19.666h3.314v7.812h9.833v-7.812h3.315V623.087z"/>
			<path fill="#FFFFFF" d="M237.921,620.755l-0.31,2.613h-0.955c-1.573,0-2.659-0.581-3.259-1.742
				c-1.012,1.161-2.435,1.742-4.271,1.742c-0.6,0-1.151-0.1-1.657-0.295c-0.506-0.197-0.941-0.479-1.307-0.843
				c-0.366-0.365-0.651-0.807-0.856-1.321c-0.207-0.516-0.31-1.081-0.31-1.699c0-0.955,0.276-1.746,0.829-2.374
				c0.552-0.627,1.231-1.133,2.037-1.518c0.805-0.384,1.671-0.655,2.599-0.814c0.927-0.159,1.774-0.248,2.542-0.267
				c-0.019-0.955-0.234-1.625-0.646-2.01c-0.413-0.384-1.096-0.575-2.052-0.575c-1.143,0-2.397,0.375-3.765,1.124l-0.337-2.585
				c1.61-0.881,3.269-1.32,4.973-1.32c1.686,0,2.945,0.464,3.779,1.391c0.833,0.928,1.25,2.449,1.25,4.565v3.482
				c0,0.524,0.014,0.946,0.042,1.266c0.028,0.318,0.089,0.565,0.183,0.744c0.094,0.179,0.229,0.295,0.407,0.352
				c0.178,0.056,0.417,0.084,0.717,0.084H237.921L237.921,620.755z M233.004,619.631v-3.229c-1.404,0.057-2.538,0.305-3.399,0.743
				c-0.861,0.44-1.292,1.082-1.292,1.926c0,1.218,0.655,1.826,1.967,1.826c0.449,0,0.927-0.112,1.433-0.338
				C232.219,620.334,232.648,620.024,233.004,619.631z"/>
			<path fill="#FFFFFF" d="M247.697,608.815l-0.618,3.117h-1.18c-0.562,0-1.101,0.15-1.615,0.449
				c-0.516,0.3-0.885,0.656-1.109,1.067v9.637h-3.26v-13.963h2.895l0.168,1.742c1.236-1.367,2.575-2.051,4.018-2.051
				L247.697,608.815L247.697,608.815z"/>
			<path fill="#FFFFFF" d="M261.717,623.087h-2.978l-0.113-1.096c-1.03,0.918-2.257,1.377-3.68,1.377
				c-1.03,0-1.958-0.188-2.781-0.562c-0.825-0.374-1.527-0.889-2.107-1.545c-0.581-0.655-1.025-1.423-1.335-2.304
				c-0.309-0.88-0.463-1.826-0.463-2.838c0-1.011,0.159-1.961,0.478-2.853c0.318-0.889,0.768-1.656,1.349-2.304
				c0.58-0.646,1.282-1.156,2.106-1.531c0.824-0.374,1.742-0.562,2.754-0.562c1.461,0,2.649,0.403,3.567,1.208v-8.062h3.203V623.087
				z M255.171,611.568c-1.124,0-2.014,0.416-2.669,1.246c-0.656,0.83-0.983,1.928-0.983,3.291c0,1.345,0.327,2.44,0.983,3.291
				c0.655,0.85,1.545,1.273,2.669,1.273c1.086,0,1.952-0.401,2.599-1.204s0.97-1.914,0.97-3.333c0-1.399-0.323-2.511-0.97-3.333
				C257.123,611.979,256.257,611.568,255.171,611.568z"/>
			<path fill="#FFFFFF" d="M283.489,609.124l-4.13,13.963h-2.894l-2.865-9.468l-2.894,9.468h-2.895l-4.13-13.963h3.287l2.473,10.17
				l2.726-9.833h2.837l2.697,9.833l2.528-10.17H283.489z"/>
			<path fill="#FFFFFF" d="M297.199,620.755l-0.309,2.613h-0.955c-1.573,0-2.66-0.581-3.26-1.742
				c-1.011,1.161-2.435,1.742-4.27,1.742c-0.6,0-1.152-0.1-1.658-0.295c-0.506-0.197-0.94-0.479-1.306-0.843
				c-0.366-0.365-0.651-0.807-0.857-1.321c-0.206-0.516-0.309-1.081-0.309-1.699c0-0.955,0.275-1.746,0.828-2.374
				c0.553-0.627,1.231-1.133,2.037-1.518c0.805-0.384,1.672-0.655,2.599-0.814c0.928-0.159,1.774-0.248,2.543-0.267
				c-0.02-0.955-0.234-1.625-0.646-2.01c-0.412-0.384-1.096-0.575-2.051-0.575c-1.143,0-2.397,0.375-3.765,1.124l-0.337-2.585
				c1.61-0.881,3.268-1.32,4.973-1.32c1.686,0,2.945,0.464,3.778,1.391c0.833,0.928,1.25,2.449,1.25,4.565v3.482
				c0,0.524,0.015,0.946,0.042,1.266c0.028,0.317,0.089,0.565,0.183,0.744c0.094,0.179,0.229,0.295,0.408,0.352
				c0.178,0.056,0.416,0.084,0.716,0.084H297.199L297.199,620.755z M292.283,619.631v-3.229c-1.405,0.057-2.538,0.305-3.399,0.743
				c-0.862,0.44-1.293,1.082-1.293,1.926c0,1.218,0.655,1.826,1.967,1.826c0.449,0,0.928-0.112,1.433-0.338
				C291.496,620.334,291.927,620.024,292.283,619.631z"/>
			<path fill="#FFFFFF" d="M306.977,608.815l-0.617,3.117h-1.18c-0.562,0-1.101,0.15-1.616,0.449
				c-0.515,0.3-0.885,0.656-1.109,1.067v9.637h-3.259v-13.963h2.894l0.169,1.742c1.235-1.367,2.574-2.051,4.019-2.051
				L306.977,608.815L306.977,608.815z"/>
			<path fill="#FFFFFF" d="M320.152,616.625h-9.355c0.188,1.396,0.698,2.419,1.531,3.069c0.834,0.65,1.821,0.977,2.964,0.977
				c1.442,0,2.848-0.337,4.215-1.012l0.226,2.641c-1.461,0.713-3.017,1.068-4.664,1.068c-1.198,0-2.268-0.184-3.202-0.548
				c-0.938-0.365-1.729-0.876-2.374-1.531c-0.646-0.655-1.139-1.424-1.477-2.304c-0.337-0.881-0.505-1.846-0.505-2.895
				c0-1.012,0.154-1.953,0.463-2.824c0.311-0.87,0.76-1.634,1.35-2.289c0.59-0.654,1.297-1.171,2.121-1.546
				c0.823-0.374,1.761-0.562,2.81-0.562c0.88,0,1.69,0.146,2.43,0.436c0.74,0.291,1.383,0.698,1.926,1.223s0.97,1.156,1.277,1.896
				c0.311,0.74,0.464,1.561,0.464,2.459c0,0.225-0.015,0.482-0.042,0.772C320.279,615.946,320.228,616.27,320.152,616.625z
				 M314.31,611.568c-1.836,0-2.96,0.965-3.372,2.894h6.153c0-0.805-0.226-1.489-0.675-2.051
				C315.967,611.849,315.265,611.568,314.31,611.568z"/>
		</g>
	</g>
	<g>
		<path opacity="0.8" fill="#518E32" enable-background="new    " d="M724.298,590.203v47.684c0,10.4-7.481,18.829-16.692,18.829
			h-222.61c-9.211,0-16.689-8.429-16.689-18.829v-47.684c0-10.385,7.479-18.816,16.689-18.816h222.608
			C716.815,571.387,724.298,579.818,724.298,590.203z"/>
		<g>
			<path fill="#FFFFFF" d="M521.638,621.47c-1.424,0-2.729-0.244-3.92-0.729c-1.188-0.487-2.215-1.182-3.076-2.079
				c-0.86-0.899-1.534-1.977-2.022-3.23c-0.486-1.255-0.73-2.649-0.73-4.187c0-1.535,0.244-2.932,0.73-4.188
				c0.488-1.254,1.162-2.331,2.022-3.229c0.861-0.899,1.888-1.592,3.076-2.079c1.189-0.486,2.496-0.73,3.92-0.73
				c2.062,0,3.904,0.375,5.535,1.125l-0.365,3.146c-2.1-0.749-3.821-1.124-5.17-1.124c-0.994,0-1.869,0.173-2.627,0.519
				s-1.399,0.83-1.924,1.455c-0.525,0.625-0.918,1.371-1.182,2.238c-0.263,0.867-0.394,1.823-0.394,2.868s0.131,2.001,0.394,2.868
				c0.264,0.866,0.655,1.612,1.182,2.238c0.523,0.625,1.166,1.109,1.924,1.455s1.633,0.519,2.627,0.519
				c1.422,0,3.146-0.375,5.17-1.124l0.365,3.146C525.579,621.095,523.735,621.47,521.638,621.47z"/>
			<path fill="#FFFFFF" d="M534.757,618.744l-0.309,2.613h-1.123c-1.199,0-2.099-0.339-2.697-1.013s-0.9-1.525-0.9-2.557v-17.783
				h3.203v16.351c0,0.562,0.021,1.003,0.058,1.32c0.037,0.318,0.117,0.559,0.237,0.717c0.123,0.159,0.306,0.258,0.55,0.295
				C534.017,618.726,534.345,618.744,534.757,618.744z"/>
			<path fill="#FFFFFF" d="M535.964,614.108c0-1.012,0.164-1.962,0.492-2.853c0.328-0.889,0.797-1.657,1.404-2.304
				c0.608-0.646,1.35-1.156,2.221-1.531c0.871-0.374,1.84-0.562,2.906-0.562c1.067,0,2.032,0.188,2.895,0.562
				c0.861,0.375,1.597,0.891,2.205,1.546c0.609,0.655,1.082,1.423,1.42,2.305c0.336,0.88,0.506,1.825,0.506,2.837
				s-0.166,1.958-0.491,2.838c-0.328,0.881-0.798,1.647-1.404,2.304c-0.609,0.656-1.351,1.171-2.221,1.545
				c-0.871,0.375-1.841,0.562-2.908,0.562c-1.086,0-2.062-0.188-2.92-0.562c-0.863-0.374-1.599-0.885-2.207-1.531
				c-0.607-0.646-1.076-1.408-1.404-2.289C536.129,616.095,535.964,615.139,535.964,614.108z M539.224,614.095
				c0,1.4,0.332,2.513,0.998,3.333c0.664,0.822,1.586,1.232,2.767,1.232c1.182,0,2.104-0.41,2.768-1.232
				c0.666-0.82,0.998-1.933,0.998-3.333c0-1.399-0.332-2.507-0.998-3.317c-0.664-0.812-1.586-1.22-2.768-1.22
				c-1.181,0-2.103,0.406-2.767,1.22C539.556,611.588,539.224,612.694,539.224,614.095z"/>
			<path fill="#FFFFFF" d="M564.425,621.076h-2.922l-0.141-1.039c-0.938,0.88-2.052,1.32-3.345,1.32
				c-3.782,0-5.674-2.183-5.674-6.547v-7.697h3.174v7.49c0,1.408,0.234,2.438,0.703,3.084c0.467,0.648,1.207,0.973,2.22,0.973
				c1.235,0,2.172-0.433,2.809-1.296v-10.251h3.176V621.076L564.425,621.076z"/>
			<path fill="#FFFFFF" d="M580.409,621.076h-2.978l-0.112-1.096c-1.029,0.918-2.259,1.377-3.681,1.377
				c-1.03,0-1.957-0.188-2.78-0.562c-0.824-0.374-1.527-0.889-2.107-1.545c-0.58-0.655-1.025-1.423-1.334-2.304
				c-0.311-0.88-0.465-1.826-0.465-2.838s0.16-1.962,0.479-2.853c0.318-0.889,0.769-1.657,1.349-2.304s1.283-1.156,2.106-1.531
				c0.824-0.374,1.742-0.562,2.754-0.562c1.462,0,2.65,0.402,3.568,1.208v-8.062h3.201V621.076L580.409,621.076z M573.864,609.558
				c-1.125,0-2.015,0.416-2.67,1.246c-0.654,0.831-0.982,1.929-0.982,3.291c0,1.345,0.328,2.441,0.982,3.291
				c0.655,0.851,1.545,1.274,2.67,1.274c1.086,0,1.953-0.401,2.598-1.204c0.646-0.803,0.971-1.914,0.971-3.333
				c0-1.4-0.323-2.511-0.971-3.333C575.817,609.969,574.95,609.558,573.864,609.558z"/>
			<path fill="#FFFFFF" d="M596.282,621.47c-1.404,0-2.679-0.132-3.82-0.394s-2.033-0.59-2.668-0.983l0.42-3.793
				c0.637,0.573,1.484,1.054,2.543,1.441c1.06,0.387,2.262,0.582,3.611,0.582c2.584,0,3.877-0.803,3.877-2.405
				c0-0.597-0.185-1.104-0.549-1.523c-0.365-0.42-0.802-0.77-1.308-1.049c-0.506-0.28-1.024-0.499-1.559-0.657
				c-0.533-0.158-0.969-0.294-1.307-0.405c-0.73-0.226-1.457-0.469-2.179-0.73c-0.721-0.262-1.367-0.59-1.938-0.981
				c-0.572-0.395-1.031-0.887-1.377-1.477c-0.349-0.59-0.521-1.334-0.521-2.232c0-0.655,0.121-1.329,0.365-2.022
				c0.242-0.693,0.641-1.32,1.193-1.883s1.282-1.025,2.19-1.391c0.908-0.366,2.027-0.549,3.357-0.549c0.6,0,1.207,0.042,1.825,0.127
				c0.617,0.084,1.207,0.196,1.771,0.338c0.563,0.141,1.072,0.3,1.531,0.478s0.828,0.353,1.108,0.521l-0.336,3.428
				c-2.229-1.161-4.141-1.742-5.731-1.742c-0.486,0-0.959,0.042-1.418,0.126s-0.867,0.22-1.224,0.405
				c-0.354,0.187-0.646,0.429-0.871,0.727c-0.225,0.298-0.336,0.651-0.336,1.062c0,0.577,0.183,1.033,0.547,1.369
				c0.365,0.335,0.871,0.628,1.519,0.879c0.646,0.252,1.408,0.509,2.289,0.771c0.881,0.263,1.836,0.618,2.865,1.068
				c0.395,0.148,0.811,0.359,1.25,0.632c0.44,0.271,0.848,0.608,1.223,1.012c0.375,0.402,0.684,0.875,0.928,1.418
				c0.242,0.544,0.365,1.172,0.365,1.884c0,0.562-0.07,1.188-0.211,1.882c-0.141,0.692-0.469,1.345-0.982,1.953
				c-0.516,0.607-1.278,1.113-2.291,1.517C599.425,621.273,598.044,621.47,596.282,621.47z"/>
			<path fill="#FFFFFF" d="M613.448,618.744l-0.279,2.613h-2.418c-0.617,0-1.16-0.096-1.629-0.281
				c-0.469-0.187-0.857-0.439-1.166-0.759c-0.31-0.318-0.539-0.692-0.688-1.123c-0.149-0.432-0.225-0.899-0.225-1.405v-8.091h-2.107
				l0.281-2.585h1.826v-3.176l3.174-0.337v3.513h3.26v2.585h-3.26v6.63c0,0.581,0.021,1.035,0.058,1.362
				c0.036,0.327,0.131,0.566,0.28,0.717c0.148,0.149,0.383,0.243,0.701,0.281c0.318,0.036,0.76,0.056,1.32,0.056H613.448
				L613.448,618.744z"/>
			<path fill="#FFFFFF" d="M614.909,614.108c0-1.012,0.164-1.962,0.492-2.853c0.327-0.889,0.797-1.657,1.403-2.304
				c0.609-0.646,1.351-1.156,2.222-1.531c0.87-0.374,1.84-0.562,2.905-0.562c1.068,0,2.033,0.188,2.896,0.562
				c0.861,0.375,1.596,0.891,2.205,1.546c0.608,0.655,1.082,1.423,1.42,2.305c0.336,0.88,0.506,1.825,0.506,2.837
				s-0.166,1.958-0.492,2.838c-0.328,0.881-0.797,1.647-1.403,2.304c-0.609,0.656-1.351,1.171-2.222,1.545
				c-0.871,0.375-1.84,0.562-2.908,0.562c-1.086,0-2.061-0.188-2.92-0.562c-0.862-0.374-1.598-0.885-2.207-1.531
				c-0.606-0.646-1.075-1.408-1.403-2.289C615.074,616.095,614.909,615.139,614.909,614.108z M618.169,614.095
				c0,1.4,0.332,2.513,0.998,3.333c0.664,0.822,1.586,1.232,2.766,1.232c1.183,0,2.104-0.41,2.769-1.232
				c0.666-0.82,0.998-1.933,0.998-3.333c0-1.399-0.332-2.507-0.998-3.317c-0.664-0.812-1.586-1.22-2.769-1.22
				c-1.18,0-2.102,0.406-2.766,1.22C618.501,611.588,618.169,612.694,618.169,614.095z"/>
			<path fill="#FFFFFF" d="M639.239,606.805l-0.617,3.118h-1.18c-0.562,0-1.103,0.15-1.615,0.449
				c-0.517,0.3-0.887,0.656-1.111,1.067v9.637h-3.258v-13.963h2.893l0.171,1.742c1.235-1.367,2.573-2.052,4.018-2.052
				L639.239,606.805L639.239,606.805z"/>
			<path fill="#FFFFFF" d="M652.642,618.744l-0.309,2.613h-0.955c-1.574,0-2.66-0.581-3.26-1.742
				c-1.013,1.161-2.437,1.742-4.271,1.742c-0.6,0-1.151-0.1-1.658-0.295c-0.506-0.197-0.94-0.479-1.307-0.844
				s-0.65-0.806-0.856-1.32c-0.205-0.516-0.31-1.081-0.31-1.699c0-0.955,0.277-1.746,0.83-2.374c0.551-0.627,1.23-1.133,2.035-1.519
				c0.807-0.383,1.672-0.654,2.6-0.813s1.773-0.248,2.543-0.268c-0.02-0.955-0.233-1.625-0.646-2.009s-1.097-0.576-2.051-0.576
				c-1.144,0-2.398,0.375-3.767,1.124l-0.336-2.585c1.609-0.88,3.269-1.319,4.973-1.319c1.687,0,2.945,0.464,3.777,1.391
				c0.834,0.927,1.252,2.449,1.252,4.565v3.482c0,0.524,0.014,0.946,0.041,1.266c0.029,0.317,0.09,0.565,0.185,0.743
				c0.092,0.18,0.229,0.295,0.405,0.353c0.179,0.056,0.416,0.084,0.718,0.084H652.642L652.642,618.744z M647.726,617.62v-3.23
				c-1.403,0.058-2.538,0.306-3.399,0.744c-0.861,0.44-1.291,1.082-1.291,1.925c0,1.219,0.654,1.826,1.965,1.826
				c0.451,0,0.928-0.111,1.434-0.337C646.94,618.323,647.368,618.014,647.726,617.62z"/>
			<path fill="#FFFFFF" d="M660.229,628.1c-1.087,0-2.044-0.111-2.865-0.337c-0.826-0.225-1.508-0.528-2.051-0.913
				c-0.546-0.384-0.957-0.823-1.236-1.319c-0.281-0.497-0.422-1.025-0.422-1.588c0-1.367,0.787-2.406,2.358-3.118
				c-0.881-0.486-1.319-1.133-1.319-1.938c0-0.843,0.485-1.498,1.461-1.967c-1.48-1.029-2.22-2.537-2.22-4.522
				c0-0.786,0.132-1.521,0.394-2.205c0.262-0.685,0.637-1.27,1.123-1.757c0.488-0.485,1.082-0.87,1.785-1.15
				c0.7-0.281,1.491-0.422,2.373-0.422c1.256,0,2.352,0.3,3.286,0.898c0.9-0.45,1.939-0.675,3.119-0.675h0.703l-0.254,2.051h-1.068
				c-0.317,0-0.674,0.028-1.065,0.085c0.654,0.918,0.981,1.967,0.981,3.146c0,0.749-0.125,1.456-0.379,2.121
				c-0.252,0.665-0.623,1.25-1.108,1.756c-0.488,0.506-1.082,0.903-1.783,1.192c-0.703,0.291-1.494,0.437-2.375,0.437
				c-0.58,0-1.123-0.056-1.629-0.168c-0.281,0.148-0.422,0.337-0.422,0.562c0,0.169,0.061,0.311,0.184,0.422
				c0.121,0.112,0.322,0.216,0.604,0.31c0.281,0.094,0.659,0.183,1.137,0.267c0.479,0.085,1.082,0.175,1.812,0.269
				c0.619,0.094,1.256,0.215,1.91,0.365c0.656,0.148,1.256,0.375,1.799,0.674c0.543,0.3,0.992,0.691,1.349,1.18
				c0.355,0.488,0.553,1.114,0.59,1.883c0,1.35-0.59,2.431-1.771,3.245C664.048,627.692,662.38,628.1,660.229,628.1z
				 M660.368,621.891l-1.939-0.279c-0.6,0.187-1.086,0.458-1.461,0.813s-0.561,0.777-0.561,1.265c0,0.637,0.326,1.146,0.981,1.53
				c0.656,0.384,1.572,0.576,2.754,0.576c1.181,0,2.13-0.188,2.853-0.562c0.721-0.375,1.08-0.862,1.08-1.461
				c0-0.545-0.318-0.951-0.955-1.224C662.483,622.278,661.565,622.06,660.368,621.891z M659.608,609.276
				c-0.898,0-1.587,0.28-2.064,0.843c-0.477,0.562-0.717,1.32-0.717,2.275s0.244,1.714,0.729,2.275
				c0.488,0.562,1.181,0.843,2.08,0.843c0.898,0,1.586-0.284,2.064-0.856c0.477-0.57,0.717-1.334,0.717-2.289
				s-0.244-1.709-0.73-2.262C661.2,609.553,660.509,609.276,659.608,609.276z"/>
			<path fill="#FFFFFF" d="M680.343,614.614h-9.354c0.188,1.396,0.697,2.419,1.531,3.068c0.831,0.651,1.819,0.978,2.963,0.978
				c1.442,0,2.848-0.337,4.215-1.012l0.225,2.641c-1.461,0.713-3.016,1.068-4.664,1.068c-1.199,0-2.266-0.184-3.203-0.549
				c-0.936-0.364-1.727-0.876-2.373-1.53c-0.646-0.655-1.139-1.425-1.475-2.305c-0.338-0.88-0.506-1.845-0.506-2.894
				c0-1.012,0.154-1.953,0.463-2.824c0.309-0.87,0.76-1.634,1.35-2.289c0.591-0.655,1.298-1.171,2.121-1.546
				c0.824-0.374,1.761-0.562,2.81-0.562c0.881,0,1.688,0.146,2.43,0.436c0.74,0.291,1.381,0.698,1.926,1.222
				c0.543,0.525,0.97,1.157,1.277,1.896c0.309,0.74,0.465,1.56,0.465,2.459c0,0.225-0.016,0.481-0.043,0.771
				S680.417,614.259,680.343,614.614z M674.499,609.558c-1.836,0-2.959,0.966-3.371,2.895h6.152c0-0.806-0.226-1.489-0.674-2.051
				C676.157,609.839,675.454,609.558,674.499,609.558z"/>
		</g>
	</g>
	<path fill="none" stroke="#D7D7D7" stroke-width="8" stroke-miterlimit="10" d="M784.976,664.75H86.964
		c-12.755,0-23.096-10.782-23.096-24.081V171.778"/>
	<g>
		<path opacity="0.8" fill="#A5A4A4" enable-background="new    " d="M45.702,619.948c0,2.136-0.365,4.096-1.096,5.879
			c-0.729,1.784-1.77,3.322-3.118,4.614c-1.349,1.293-2.964,2.305-4.846,3.033c-1.883,0.731-3.976,1.097-6.279,1.097
			c-2.303,0-4.396-0.364-6.279-1.097c-1.882-0.729-3.498-1.74-4.847-3.033c-1.349-1.292-2.388-2.83-3.118-4.614
			c-0.73-1.783-1.096-3.743-1.096-5.879c0-3.09,0.562-5.857,1.686-8.302l4.72,0.548c-1.123,3.146-1.686,5.73-1.686,7.754
			c0,1.489,0.26,2.803,0.777,3.939c0.517,1.138,1.245,2.102,2.183,2.888c0.938,0.787,2.057,1.377,3.357,1.77
			c1.301,0.396,2.735,0.591,4.303,0.591c1.566,0,3.001-0.195,4.302-0.591c1.302-0.393,2.421-0.981,3.358-1.77
			c0.938-0.786,1.665-1.749,2.183-2.888c0.518-1.138,0.776-2.45,0.776-3.939c0-2.136-0.562-4.72-1.686-7.754l4.72-0.548
			C45.141,614.035,45.702,616.803,45.702,619.948z"/>
		<path opacity="0.8" fill="#A5A4A4" enable-background="new    " d="M41.488,584.213c2.81,2.696,4.214,6.182,4.214,10.451
			c0,2.105-0.365,4.053-1.096,5.836c-0.729,1.785-1.77,3.323-3.118,4.615c-1.348,1.292-2.964,2.296-4.846,3.013
			c-1.883,0.717-3.976,1.074-6.279,1.074c-2.303,0-4.396-0.357-6.279-1.074c-1.882-0.717-3.498-1.721-4.847-3.013
			c-1.349-1.292-2.388-2.83-3.118-4.615c-0.73-1.783-1.096-3.729-1.096-5.836c0-2.135,0.373-4.088,1.117-5.858
			c0.744-1.77,1.791-3.301,3.14-4.593c1.348-1.292,2.964-2.297,4.846-3.014c1.883-0.716,3.961-1.074,6.237-1.074
			C34.971,580.125,38.68,581.488,41.488,584.213z M22.682,587.921c-1.959,1.546-2.938,3.793-2.938,6.743
			c0,1.489,0.26,2.796,0.777,3.919c0.518,1.124,1.252,2.072,2.203,2.845c0.951,0.773,2.078,1.355,3.379,1.748
			c1.302,0.396,2.722,0.591,4.261,0.591c1.566,0,2.994-0.195,4.281-0.591c1.288-0.393,2.407-0.976,3.358-1.748
			c0.951-0.771,1.686-1.721,2.203-2.845c0.518-1.123,0.776-2.43,0.776-3.919c0-1.461-0.259-2.761-0.776-3.898
			c-0.517-1.137-1.252-2.093-2.203-2.864c-0.951-0.772-2.07-1.355-3.358-1.749c-1.287-0.395-2.715-0.591-4.281-0.591
			C27.229,585.562,24.669,586.348,22.682,587.921z"/>
		<path opacity="0.8" fill="#A5A4A4" enable-background="new    " d="M45.702,566.766c0,2.107-0.196,4.02-0.59,5.731
			c-0.393,1.714-0.885,3.049-1.475,4.004l-5.689-0.633c0.859-0.954,1.58-2.227,2.162-3.813s0.872-3.393,0.872-5.415
			c0-3.877-1.202-5.814-3.607-5.814c-0.895,0-1.656,0.272-2.285,0.821c-0.63,0.548-1.154,1.2-1.573,1.96
			c-0.42,0.758-0.748,1.538-0.986,2.339c-0.237,0.801-0.44,1.453-0.608,1.959c-0.337,1.096-0.701,2.186-1.096,3.267
			c-0.393,1.081-0.885,2.051-1.475,2.907c-0.59,0.857-1.327,1.546-2.212,2.064c-0.886,0.521-2.002,0.779-3.351,0.779
			c-0.983,0-1.994-0.183-3.034-0.548c-1.039-0.364-1.98-0.962-2.823-1.791c-0.843-0.828-1.538-1.924-2.086-3.287
			c-0.548-1.362-0.822-3.041-0.822-5.036c0-0.897,0.063-1.812,0.189-2.738c0.127-0.928,0.295-1.812,0.506-2.654
			c0.211-0.842,0.45-1.608,0.717-2.297c0.267-0.689,0.526-1.243,0.779-1.665l5.142,0.506c-1.742,3.344-2.613,6.21-2.613,8.597
			c0,0.731,0.063,1.44,0.189,2.129c0.125,0.688,0.328,1.301,0.607,1.833c0.279,0.534,0.643,0.97,1.089,1.308
			c0.447,0.337,0.979,0.505,1.593,0.505c0.866,0,1.551-0.273,2.054-0.821s0.942-1.307,1.319-2.274
			c0.377-0.971,0.763-2.114,1.155-3.436c0.394-1.32,0.928-2.753,1.602-4.299c0.226-0.59,0.541-1.215,0.948-1.875
			c0.407-0.66,0.913-1.271,1.518-1.833c0.604-0.562,1.313-1.025,2.128-1.391c0.815-0.366,1.756-0.549,2.823-0.549
			c0.843,0,1.784,0.104,2.823,0.315c1.04,0.211,2.017,0.703,2.929,1.476c0.914,0.772,1.672,1.917,2.276,3.436
			C45.4,562.046,45.702,564.125,45.702,566.766z"/>
		<path opacity="0.8" fill="#A5A4A4" enable-background="new    " d="M20.333,531.409v8.429h24.779v4.973H20.333v8.429h-4.72V531.41
			L20.333,531.409L20.333,531.409z"/>
		<path opacity="0.8" fill="#A5A4A4" enable-background="new    " d="M45.702,518.852c0,2.107-0.196,4.02-0.59,5.731
			c-0.393,1.714-0.885,3.049-1.475,4.004l-5.689-0.633c0.859-0.954,1.58-2.226,2.162-3.813c0.582-1.587,0.872-3.393,0.872-5.414
			c0-3.878-1.202-5.815-3.607-5.815c-0.895,0-1.656,0.272-2.285,0.821c-0.63,0.548-1.154,1.2-1.573,1.96
			c-0.42,0.758-0.748,1.538-0.986,2.339c-0.237,0.801-0.44,1.453-0.608,1.959c-0.337,1.096-0.701,2.186-1.096,3.267
			c-0.393,1.081-0.885,2.052-1.475,2.907c-0.59,0.857-1.327,1.546-2.212,2.065c-0.886,0.52-2.002,0.778-3.351,0.778
			c-0.983,0-1.994-0.183-3.034-0.548c-1.039-0.364-1.98-0.962-2.823-1.791c-0.843-0.828-1.538-1.924-2.086-3.287
			c-0.548-1.361-0.822-3.041-0.822-5.036c0-0.897,0.063-1.812,0.189-2.738c0.127-0.928,0.295-1.812,0.506-2.654
			c0.211-0.842,0.45-1.608,0.717-2.297c0.267-0.689,0.526-1.243,0.779-1.665l5.142,0.506c-1.742,3.344-2.613,6.21-2.613,8.597
			c0,0.731,0.063,1.44,0.189,2.129c0.125,0.688,0.328,1.301,0.607,1.833c0.279,0.534,0.643,0.97,1.089,1.308
			c0.447,0.337,0.979,0.505,1.593,0.505c0.866,0,1.551-0.273,2.054-0.821s0.942-1.307,1.319-2.274
			c0.377-0.971,0.763-2.114,1.155-3.436c0.394-1.319,0.928-2.753,1.602-4.299c0.226-0.59,0.541-1.215,0.948-1.875
			c0.407-0.66,0.913-1.271,1.518-1.833c0.604-0.562,1.313-1.025,2.128-1.391c0.815-0.366,1.756-0.549,2.823-0.549
			c0.843,0,1.784,0.104,2.823,0.315c1.04,0.211,2.017,0.703,2.929,1.476c0.914,0.772,1.672,1.917,2.276,3.436
			C45.4,514.132,45.702,516.211,45.702,518.852z"/>
	</g>
	<g opacity="0.8">
		<g>
			<g>
				<path fill="#307256" d="M524.046,541.655c0-0.685-0.554-1.235-1.232-1.235h-5.339l-3.823-10.512
					c1.555-1.745,2.508-4.037,2.508-6.551c0-4.736-3.355-8.701-7.812-9.653v-5.729c0-1.138-0.923-2.058-2.06-2.058
					s-2.058,0.92-2.058,2.058v5.729c-4.458,0.95-7.813,4.916-7.813,9.653c0,2.516,0.952,4.808,2.511,6.552l-3.828,10.511h-4.964
					c-0.684,0-1.234,0.552-1.234,1.235c0,0.682,0.552,1.233,1.234,1.233h4.065l-4.859,13.353c-0.281,0.771-0.066,1.597,0.473,2.146
					l-0.632,1.587c-0.171,0.422,0.037,0.898,0.457,1.068c0.103,0.04,0.204,0.059,0.307,0.059c0.326,0,0.636-0.194,0.766-0.518
					L491.34,559c0.814-0.027,1.572-0.538,1.868-1.351l5.373-14.762h6.471v2.267c0,0.682,0.551,1.233,1.234,1.233
					c0.681,0,1.235-0.553,1.235-1.233v-2.267h6.472l5.372,14.762c0.294,0.812,1.051,1.322,1.867,1.351l0.632,1.583
					c0.128,0.322,0.438,0.518,0.765,0.518c0.104,0,0.207-0.019,0.305-0.059c0.425-0.17,0.631-0.646,0.461-1.068l-0.635-1.587
					c0.542-0.549,0.755-1.373,0.477-2.146l-4.86-13.353h4.438C523.492,542.89,524.046,542.337,524.046,541.655z M506.285,517.604
					c3.174,0,5.753,2.581,5.753,5.755c0,3.173-2.579,5.752-5.753,5.752c-3.172,0-5.752-2.579-5.752-5.752
					C500.533,520.185,503.113,517.604,506.285,517.604z M507.521,540.42v-2.267c0-0.683-0.556-1.233-1.236-1.233
					c-0.684,0-1.235,0.552-1.235,1.233v2.267h-5.571l2.911-7.996c1.194,0.517,2.514,0.805,3.896,0.805
					c1.386,0,2.7-0.288,3.897-0.805l2.908,7.996H507.521z"/>
			</g>
			<g>
				<g>
					<path fill="#307256" d="M549.531,534.916l-10.668-13.548h6.348l7.482,9.891l7.483-9.891h6.349l-10.648,13.548l10.648,13.543
						h-6.349l-7.483-9.889l-7.482,9.889h-6.348L549.531,534.916z"/>
					<path fill="#307256" d="M567.879,538.514c0-6.667,3.285-10.003,9.853-10.003s9.852,3.336,9.852,10.003
						c0,6.657-3.283,9.984-9.852,9.984C571.188,548.498,567.902,545.171,567.879,538.514z M577.73,544.671
						c3.221,0,4.834-2.077,4.834-6.233c0-4.053-1.613-6.08-4.834-6.08c-3.22,0-4.83,2.027-4.83,6.08
						C572.9,542.594,574.512,544.671,577.73,544.671z"/>
					<path fill="#307256" d="M590.984,548.459v-19.891h3.883l0.586,2.879c1.783-1.921,3.922-2.879,6.424-2.879
						c2.5,0,4.213,0.908,5.137,2.728c2.031-1.817,4.16-2.728,6.381-2.728c4.574,0,6.859,2.518,6.859,7.561v12.33h-5.02v-12.521
						c0-2.212-0.998-3.316-2.994-3.316c-1.492,0-2.924,0.673-4.301,2.01v13.829h-5.021v-12.465c0-2.248-0.922-3.374-2.768-3.374
						c-1.466,0-2.847,0.673-4.148,2.01v13.829L590.984,548.459L590.984,548.459z"/>
					<path fill="#307256" d="M624.604,529.384c2.638-0.543,5.431-0.814,8.373-0.814c6.759,0,10.136,3.147,10.136,9.454
						c0,6.957-3.146,10.437-9.437,10.437c-1.338,0-2.688-0.315-4.051-0.946v8.146h-5.021V529.384z M629.625,543.269
						c1.246,0.685,2.594,1.024,4.031,1.024c2.996,0,4.49-2.104,4.49-6.308c0-3.577-1.654-5.365-4.966-5.365
						c-1.424,0-2.61,0.091-3.557,0.268L629.625,543.269L629.625,543.269z"/>
					<path fill="#307256" d="M645.564,542.266c0-3.953,2.881-5.931,8.641-5.931c1.352,0,2.701,0.127,4.055,0.38v-1.497
						c0-1.782-1.281-2.671-3.846-2.671c-2.174,0-4.584,0.315-7.238,0.946v-3.979c2.654-0.632,5.064-0.946,7.238-0.946
						c5.91,0,8.867,2.185,8.867,6.553v13.338h-2.92l-1.779-1.781c-1.732,1.189-3.639,1.781-5.721,1.781
						C647.996,548.459,645.564,546.396,645.564,542.266z M654.205,539.744c-2.41,0-3.619,0.823-3.619,2.464
						c0,1.771,1.01,2.653,3.031,2.653c1.668,0,3.217-0.518,4.643-1.555v-3.183C656.994,539.872,655.645,539.744,654.205,539.744z"/>
					<path fill="#307256" d="M667.627,547.513v-4.166c2.213,0.882,4.762,1.324,7.654,1.324c2.16,0,3.24-0.693,3.24-2.083
						c0-1.326-0.728-1.99-2.181-1.99h-3.598c-4.041,0-6.064-1.987-6.064-5.968c0-4.167,2.949-6.251,8.849-6.251
						c2.502,0,4.854,0.377,7.065,1.137v4.166c-2.211-0.882-4.606-1.324-7.199-1.324c-2.715,0-4.071,0.693-4.071,2.085
						c0,1.323,0.789,1.988,2.367,1.988h3.221c4.42,0,6.631,1.989,6.631,5.968c0,4.167-2.814,6.252-8.447,6.252
						C672.326,548.649,669.84,548.271,667.627,547.513z"/>
					<path fill="#307256" d="M686.658,547.513v-4.166c2.211,0.882,4.762,1.324,7.654,1.324c2.157,0,3.239-0.693,3.239-2.083
						c0-1.326-0.727-1.99-2.18-1.99h-3.598c-4.044,0-6.064-1.987-6.064-5.968c0-4.167,2.949-6.251,8.848-6.251
						c2.502,0,4.855,0.377,7.066,1.137v4.166c-2.211-0.882-4.609-1.324-7.199-1.324c-2.715,0-4.072,0.693-4.072,2.085
						c0,1.323,0.789,1.988,2.367,1.988h3.224c4.418,0,6.629,1.989,6.629,5.968c0,4.167-2.816,6.252-8.449,6.252
						C691.357,548.649,688.869,548.271,686.658,547.513z"/>
				</g>
			</g>
		</g>
	</g>
	<path fill="#D7D7D7" stroke="#D7D7D7" stroke-width="8" stroke-miterlimit="10" d="M47.12,173.628l13.377-5.984
		c0,0,0,0.125,0.004,0.298c0.808-0.317,1.713-0.384,2.572-0.216c0.56-0.102,1.132-0.082,1.688,0.023
		c0.321-0.012,0.639,0.008,0.953,0.056c0-0.149-0.005-0.263-0.005-0.263l13.538,5.443L62.646,135.25L47.12,173.628z"/>
	<g>
		<path fill="#307256" d="M183.087,201.888c0-7.336,3.622-11.005,10.868-11.005c7.134,0,10.701,3.669,10.701,11.005
			c0,7.296-3.567,10.943-10.701,10.943C187.032,212.831,183.409,209.184,183.087,201.888z M193.955,209.35
			c4.359,0,6.539-2.518,6.539-7.553c0-4.955-2.18-7.433-6.539-7.433c-4.471,0-6.706,2.478-6.706,7.433
			C187.249,206.832,189.484,209.35,193.955,209.35z"/>
		<path fill="#307256" d="M206.7,196.786h4.041l2.059,11.065l3.679-11.065h3.436l3.966,11.065l1.786-11.065h4.178l-4.147,15.894
			h-3.769l-3.739-11.276l-3.784,11.276h-3.829L206.7,196.786z"/>
		<path fill="#307256" d="M232.266,212.68v-15.894h3.104l0.499,2.331c1.523-1.554,3.26-2.331,5.207-2.331
			c3.764,0,5.646,1.958,5.646,5.873v10.021h-4.012v-10.021c0-1.756-0.873-2.634-2.618-2.634c-1.302,0-2.573,0.521-3.814,1.56v11.095
			H232.266z"/>
		<path fill="#307256" d="M257.317,211.771v-3.633c2.169,0.808,4.621,1.211,7.356,1.211c3.319,0,4.979-1.109,4.979-3.33
			c0-1.614-1.02-2.422-3.058-2.422h-3.391c-4.43,0-6.645-2.018-6.645-6.055c0-4.439,3.153-6.66,9.46-6.66
			c2.422,0,4.718,0.354,6.888,1.06v3.633c-2.17-0.807-4.466-1.211-6.888-1.211c-3.633,0-5.449,1.06-5.449,3.179
			c0,1.615,0.878,2.422,2.634,2.422h3.391c4.713,0,7.069,2.019,7.069,6.055c0,4.541-2.997,6.812-8.991,6.812
			C261.938,212.831,259.486,212.479,257.317,211.771z"/>
		<path fill="#307256" d="M283.397,196.786c4.823,0,7.235,2.463,7.235,7.387c0,0.656-0.045,1.312-0.136,1.968h-10.551
			c0,2.24,1.645,3.36,4.935,3.36c1.604,0,3.209-0.151,4.813-0.454v3.179c-1.402,0.303-3.108,0.454-5.116,0.454
			c-5.762,0-8.643-2.709-8.643-8.128C275.936,199.375,278.423,196.786,283.397,196.786z M279.946,203.355h6.781v-0.121
			c0-2.199-1.11-3.3-3.33-3.3C281.278,199.935,280.128,201.075,279.946,203.355z"/>
		<path fill="#307256" d="M293.646,212.68v-15.894h3.103l0.5,2.028c1.393-1.352,2.865-2.028,4.42-2.028v3.239
			c-1.494,0-2.831,0.621-4.012,1.862v10.792h-4.011V212.68z"/>
		<path fill="#307256" d="M302.046,196.786h4.238l3.859,11.11l4.012-11.11h4.237l-6.463,15.894h-3.813L302.046,196.786z"/>
		<path fill="#307256" d="M326.991,196.786c4.823,0,7.234,2.463,7.234,7.387c0,0.656-0.045,1.312-0.136,1.968h-10.55
			c0,2.24,1.645,3.36,4.935,3.36c1.604,0,3.209-0.151,4.813-0.454v3.179c-1.402,0.303-3.108,0.454-5.116,0.454
			c-5.762,0-8.643-2.709-8.643-8.128C319.529,199.375,322.017,196.786,326.991,196.786z M323.54,203.355h6.781v-0.121
			c0-2.199-1.11-3.3-3.33-3.3C324.872,199.935,323.722,201.075,323.54,203.355z"/>
		<path fill="#307256" d="M337.239,212.68v-15.894h3.103l0.5,2.028c1.394-1.352,2.865-2.028,4.42-2.028v3.239
			c-1.494,0-2.831,0.621-4.012,1.862v10.792h-4.011V212.68z"/>
	</g>
</g>
</svg>
