<?xml version="1.0" encoding="utf-8"?>
<!-- Generator: Adobe Illustrator 16.0.0, SVG Export Plug-In . SVG Version: 6.00 Build 0)  -->
<!DOCTYPE svg PUBLIC "-//W3C//DTD SVG 1.1//EN" "http://www.w3.org/Graphics/SVG/1.1/DTD/svg11.dtd">
<svg version="1.1" id="Capa_1" xmlns="http://www.w3.org/2000/svg" xmlns:xlink="http://www.w3.org/1999/xlink" x="0px" y="0px"
	 width="644.918px" height="688.389px" viewBox="59.527 51.804 644.918 688.389"
	 enable-background="new 59.527 51.804 644.918 688.389" xml:space="preserve">
<g>
	<g>
		<g>
			<path fill="#E9E9EA" d="M300.879,353.573c0,2.339,0,4.678,0,7.018c-52.159-0.072-104.317-0.109-156.476-0.286
				c-3.589-0.011-5.849,1.769-7.633,4.201c-4.496,6.13-10.386,7.649-17.744,7.293c-11.253-0.544-22.551-0.165-33.829-0.132
				c-4.828,0.015-9.483-0.502-13.773,3.381c-2.99,2.704-7.211,1.596-9.948-1.819c-2.745-3.425-2.575-7.003,0.416-10.181
				c2.986-3.172,7.07-3.896,10.075-1.039c3.423,3.254,7.089,3.07,11.044,3.069c12.219-0.007,24.447-0.286,36.652,0.123
				c5.68,0.189,10.075-1.206,13.416-5.782c3.342-4.578,7.792-5.763,13.438-5.748C197.971,353.803,249.426,353.646,300.879,353.573z"
				/>
			<path fill="#E9E9EA" d="M300.852,418.404c0.017,2.346,0.034,4.69,0.049,7.036c-44.857-0.08-89.715-0.167-134.571-0.24
				c-14.33-0.021-28.659,0.128-42.983-0.081c-4.096-0.061-7.099,1.118-9.894,4.111c-5.288,5.656-10.912,11.006-16.384,16.495
				c-3.259,3.271-6.613,6.091-6.612,11.693c0,4.094-3.9,6.405-8.126,5.956c-4.166-0.441-6.886-3.116-7.061-7.455
				c-0.171-4.21,1.762-7.988,6.166-7.916c4.783,0.081,7.234-2.605,10.031-5.417c6.296-6.326,12.826-12.438,18.85-19.009
				c3.465-3.776,7.128-5.146,12.267-5.13c56.606,0.184,113.212,0.119,169.819,0.109C295.22,418.56,298.036,418.458,300.852,418.404z
				"/>
			<path fill="#E9E9EA" d="M467.521,278.648c-2.344,0.011-4.688,0.022-7.028,0.032c0.091-28.653,0.227-57.308,0.257-85.964
				c0.046-38.761,0.006-77.523,0.024-116.284c0-3.517,0.007-6.695-2.808-9.694c-3.181-3.394-2.503-7.559,0.972-10.6
				c3.201-2.801,7.099-2.811,10.309-0.073c3.556,3.035,3.766,7.134,0.936,10.673c-1.879,2.353-2.887,4.52-2.881,7.538
				C467.419,142.4,467.463,210.524,467.521,278.648z"/>
			<path fill="#E9E9EA" d="M300.86,385.982c0.005,2.353,0.011,4.704,0.016,7.057c-54.496-0.071-108.992-0.145-163.487-0.211
				c-10.101-0.012-20.203-0.052-30.302,0.019c-5.265,0.037-10.426-0.771-15.168,3.49c-2.92,2.626-7.311,1.328-9.827-2.278
				c-2.249-3.228-2.134-6.77,0.424-9.755c2.824-3.296,7.133-4.143,10.051-1.391c3.854,3.638,8.017,3.243,12.386,3.241
				C170.256,386.109,235.559,386.043,300.86,385.982z"/>
			<path fill="#E9E9EA" d="M491.385,459.446c-0.018-2.383-0.037-4.769-0.055-7.149c2.812,0.12,5.621,0.34,8.433,0.341
				c52.657,0.022,105.314,0.071,157.971-0.077c4.852-0.015,8.459,1.239,11.732,4.858c4.726,5.222,9.906,10.033,14.892,15.021
				c2.793,2.792,5.266,5.449,9.955,5.715c4.475,0.254,6.922,4.093,6.349,8.634c-0.574,4.557-3.602,7.045-8.363,6.736
				c-4.739-0.31-7.788-3.271-7.385-7.7c0.352-3.828-1.924-5.343-3.628-7.761c-11.18-15.864-26.086-19.891-45.353-19.28
				C587.791,460.298,539.574,459.385,491.385,459.446z"/>
			<path fill="#E9E9EA" d="M491.4,394.595c-0.027-2.386-0.055-4.772-0.08-7.157c23.228,0.133,46.455,0.245,69.681,0.402
				c21.351,0.146,42.703,0.383,64.057,0.464c3.066,0.012,5.327,1.038,7.429,3.201c6.05,6.231,12.538,12.062,18.263,18.568
				c3.57,4.062,7.219,6.095,12.692,5.634c5.361-0.452,10.789-0.069,16.188-0.108c4.361-0.03,8.456,0.371,12.363-3.23
				c3.003-2.77,7.662-2.311,10.585,1.538c2.58,3.395,2.545,7.072-0.47,10.244c-3.224,3.386-7.295,4.083-10.562,0.655
				c-3.271-3.431-7.061-3.749-10.936-3.101c-19.635,3.282-35.09-3.059-46.502-19.384c-4.562-6.525-10.781-8.165-18.774-8.072
				C574.026,394.727,532.711,394.544,491.4,394.595z"/>
			<path fill="#E9E9EA" d="M435.105,278.636c-2.343,0.021-4.685,0.039-7.025,0.057c0.102-25.59,0.252-51.179,0.291-76.769
				c0.052-33.11,0.022-66.223,0.004-99.332c-0.005-7.269-7.327-15.943-14.562-17.028c-4.882-0.731-8.071-3.263-7.936-8.164
				c0.125-4.386,2.729-7.504,7.614-7.567c5.518-0.072,8.538,3.132,8.221,8.295c-0.22,3.607,1.78,5.341,3.87,6.876
				c7.962,5.857,9.652,13.523,9.587,23.154C434.787,164.981,435.056,221.81,435.105,278.636z"/>
			<path fill="#E9E9EA" d="M399.341,507.468c1.995-0.034,3.991-0.065,5.989-0.099c-0.027,55.195-0.121,110.391,0.028,165.586
				c0.017,5.129-0.709,9.504-5.356,11.959c-15.242,8.051-15.31,21.825-14.309,36.255c0.211,3.045,2.271,4.453,3.717,6.483
				c2.639,3.71,1.868,7.172-1.104,10.144c-3.126,3.127-6.812,3.082-10.204,0.515c-3.481-2.637-4.638-7.215-1.972-9.932
				c4.541-4.623,3.709-9.754,3.72-15.006c0.043-19.354-0.125-19.524,14.569-31.68c3.937-3.256,5.009-6.649,4.999-11.455
				C399.286,615.983,399.339,561.726,399.341,507.468z"/>
			<path fill="#E9E9EA" d="M370.298,278.63c-2.026-0.033-4.053-0.064-6.08-0.098c0.014-53.126,0.095-106.253-0.07-159.378
				c-0.017-5.201,1.234-8.88,5.583-11.94c3.813-2.688,6.691-6.749,10.591-9.261c8.639-5.564,12.001-12.974,10.743-23.151
				c-0.478-3.863-1.017-7.052-3.75-10.115c-2.921-3.27-2.028-7.135,0.989-10.127c2.832-2.806,6.262-3.142,9.638-0.939
				c3.724,2.431,5.197,7.079,2.75,9.77c-5.261,5.772-4.006,12.268-3.65,18.531c0.386,6.751-1.146,12.127-7.044,15.579
				c-17.524,10.255-20.873,25.614-20.264,45.041C371.154,187.865,370.256,233.263,370.298,278.63z"/>
			<path fill="#E9E9EA" d="M337.132,507.524c2.042-0.065,4.084-0.133,6.125-0.198c-0.047,64.824-0.161,129.648-0.032,194.474
				c0.013,5.803-1.228,10.163-5.666,14.225c-5.104,4.667-11.364,8.681-11.391,17.28c-0.012,3.824-4.12,5.623-7.99,5.129
				c-4.175-0.534-6.937-3.279-7.105-7.517c-0.167-4.18,2.121-7.036,6.393-8.034c10.521-2.463,19.644-13.811,19.646-24.401
				C337.118,634.829,337.126,571.179,337.132,507.524z"/>
			<path fill="#E9E9EA" d="M337.864,278.625c-2.017-0.022-4.031-0.044-6.048-0.066c0.021-61.551,0.019-123.104,0.123-184.655
				c0.005-3.541-0.865-6.245-3.504-8.71c-4.806-4.486-9.375-9.229-13.959-13.944c-2.159-2.222-4.221-3.9-7.729-4.03
				c-4.725-0.173-7.164-3.634-6.877-8.124c0.287-4.516,3.202-7.363,7.899-7.291c4.602,0.069,7.879,2.537,7.552,7.371
				c-0.262,3.88,1.358,6.403,4.073,8.323c15.653,11.07,19.259,25.908,18.821,44.81C336.932,167.72,337.825,223.183,337.864,278.625z
				"/>
			<path fill="#E9E9EA" d="M450.205,507.417c1.987-0.004,3.974-0.013,5.959-0.019c-0.016,61.807,0.003,123.611-0.139,185.42
				c-0.011,4.125,1.046,7.191,4.229,9.765c6.113,4.931,9.818,12.923,19.368,13.465c3.864,0.222,5.122,4.372,4.702,8.295
				c-0.445,4.184-3.237,6.255-6.983,6.775c-3.645,0.504-7.382-1.458-7.658-4.783c-0.794-9.463-8.282-13.767-13.934-19.257
				c-4.308-4.186-5.631-8.464-5.617-14.241C450.291,631.032,450.217,569.226,450.205,507.417z"/>
			<path fill="#E9E9EA" d="M429.093,507.396c1.973,0,3.94,0,5.912,0c-0.018,55.631-0.089,111.264,0.039,166.896
				c0.012,4.807-1.068,8.428-4.729,11.72c-5.576,5.017-10.688,10.547-16.01,15.853c-2.64,2.634-5.218,4.943-4.921,9.481
				c0.29,4.405-3.182,6.813-7.294,7.012c-4.179,0.2-7.214-2.18-8.003-6.422c-0.779-4.188,0.859-7.959,5.041-8.88
				c13.651-3.006,18.965-15.891,28.677-23.517c2.11-1.658,1.319-4.372,1.319-6.656C429.137,617.722,429.111,562.558,429.093,507.396
				z"/>
			<path fill="#E9E9EA" d="M491.401,329.711c0.036-2.04,0.075-4.079,0.112-6.119c47.188,0.02,94.373-0.053,141.561,0.201
				c4.972,0.028,8.023-2.123,10.662-5.471c3.824-4.855,8.539-6.585,14.687-6.133c6.538,0.482,13.139,0.079,19.712,0.12
				c3.985,0.024,7.688,0.184,10.916-3.317c2.98-3.229,6.892-2.522,10.038,0.465c2.922,2.774,3.229,6.19,1.389,9.64
				c-2.149,4.038-6.708,5.39-9.598,3.134c-8.497-6.637-18.002-2.775-26.97-3.965c-7.775-1.03-14.299,0.766-18.917,7.576
				c-2.396,3.532-5.967,3.796-9.923,3.792C587.181,329.585,539.292,329.664,491.401,329.711z"/>
			<path fill="#E9E9EA" d="M491.401,362.153c0.043-2.061,0.088-4.121,0.131-6.185c54.003,0.018,108.007,0.008,162.01,0.115
				c3.786,0.008,6.854-0.755,9.299-3.791c5.107-6.339,13.311-10.198,14.232-19.91c0.358-3.772,4.607-4.986,8.507-4.361
				c4.088,0.654,6.008,3.236,6.226,7.292c0.225,4.171-2.142,7.773-5.604,7.778c-7.664,0.013-11.169,5.348-15.078,10.045
				c-5.468,6.566-11.618,9.193-20.535,9.119C597.529,361.814,544.464,362.106,491.401,362.153z"/>
			<path fill="#E9E9EA" d="M300.746,454.88c0.022,1.991,0.044,3.982,0.066,5.974c-53.755-0.028-107.511-0.111-161.267,0.008
				c-4.803,0.012-8.594-0.87-11.702-4.737c-2.484-3.09-5.307-5.314-9.942-5.614c-4.506-0.291-6.61-4.201-5.918-8.805
				c0.594-3.947,3.071-6.222,7.182-6.37c4.73-0.173,7.458,2.104,8.216,6.804c1.461,9.063,5.786,12.762,14.913,12.762
				C195.111,454.896,247.928,454.886,300.746,454.88z"/>
			<path fill="#E9E9EA" d="M402.713,278.617c-1.437,0.129-2.869,0.257-4.304,0.385c-0.6-0.167-1.199-0.335-1.798-0.503
				c0.002-50.73,0.076-101.462-0.103-152.193c-0.017-5.121,1.057-9.092,5.131-12.276c2.785-2.175,4.452-4.648,4.354-8.819
				c-0.105-4.299,3.002-7.254,7.88-7.188c4.827,0.065,7.574,2.847,7.884,7.324c0.319,4.58-2.496,7.323-6.968,8.328
				c-8.606,1.933-12.186,6.288-12.181,14.865C402.64,178.566,402.677,228.592,402.713,278.617z"/>
			<path fill="#E9E9EA" d="M300.714,323.658c0.035,2.004,0.068,4.005,0.104,6.006c-55.399-0.03-110.797-0.058-166.196-0.102
				c-2.604-0.001-4.758,0.266-6.915,2.401c-3.461,3.428-7.881,3.393-11.265-0.135c-3.116-3.251-3.138-7.337,0.068-10.747
				c3.517-3.742,7.711-3.774,11.109-0.119c2.903,3.123,6.266,2.68,9.716,2.681C191.796,323.661,246.256,323.657,300.714,323.658z"/>
			<path fill="#E9E9EA" d="M367.075,507.347c2.028,0.046,4.059,0.091,6.09,0.138c0,49.348-0.06,98.693,0.092,148.044
				c0.016,5.027-0.793,9.097-4.944,12.36c-3.108,2.446-5.453,5.233-5.602,9.93c-0.134,4.262-3.8,6.227-8.14,5.896
				c-4.438-0.342-6.804-2.982-7.073-7.294c-0.275-4.386,2.112-7.158,6.229-8.163c11.265-2.748,13.456-5.429,13.447-17.099
				C367.145,603.222,367.109,555.286,367.075,507.347z"/>
			<path fill="#E9E9EA" d="M491.388,427.007c-0.022-2.377-0.046-4.755-0.066-7.132c13.833,0.132,27.664,0.345,41.496,0.375
				c26.749,0.06,53.497,0.026,80.245,0.011c5.522-0.003,10.933,0.649,15.854-3.571c3.274-2.811,7.276-0.943,9.821,2.352
				c2.448,3.171,2.188,6.657-0.411,9.667c-2.857,3.311-7.245,4.158-10.063,1.503c-4.048-3.817-8.404-3.38-12.991-3.374
				C573.975,426.882,532.681,426.947,491.388,427.007z"/>
			<path fill="#EFEFEE" d="M67.797,371.85c-2.171-0.006-3.587-0.955-3.749-3.206c-0.159-2.216,0.992-3.552,3.192-3.72
				c2.19-0.17,3.578,0.945,3.734,3.171C71.128,370.28,70.004,371.569,67.797,371.85z"/>
			<path fill="#EEEFEB" d="M83.359,452.036c2.297,0.198,3.397,1.46,3.177,3.717c-0.212,2.167-1.502,3.534-3.686,3.358
				c-2.121-0.172-3.36-1.64-3.271-3.817C79.675,452.973,81.292,452.178,83.359,452.036z"/>
			<path fill="#EEEFEC" d="M461.223,65.722c-2.106-0.1-3.478-1.13-3.652-3.273c-0.212-2.575,1.286-3.803,3.699-3.829
				c2.222-0.023,3.36,1.324,3.281,3.482C464.475,64.151,463.432,65.518,461.223,65.722z"/>
			<path fill="#EFEFEE" d="M88.669,386.003c2.163,0.237,3.397,1.398,3.325,3.617c-0.072,2.228-1.387,3.379-3.567,3.333
				c-2.244-0.048-3.378-1.426-3.335-3.577C85.133,387.161,86.489,386.088,88.669,386.003z"/>
			<path fill="#EDEFEA" d="M692.321,481.976c2.664,0.333,4.067,1.765,4.136,4.146c0.053,1.911-1.296,2.977-3.133,3.094
				c-2.42,0.154-4.238-0.909-4.314-3.476C688.944,483.596,690.575,482.54,692.321,481.976z"/>
			<path fill="#EEEFEB" d="M699.935,418.454c-0.05,2.206-1.073,3.728-3.211,3.966c-2.198,0.248-3.493-1.087-3.769-3.239
				c-0.284-2.233,0.724-3.665,3.038-3.766C698.087,415.321,699.583,416.24,699.935,418.454z"/>
			<path fill="#EAEDE3" d="M414.614,77.63c-0.6,2.245-1.729,3.96-4.292,3.606c-2.007-0.278-3.494-1.581-3.336-3.724
				c0.181-2.436,1.831-3.651,4.271-3.462C413.397,74.218,414.527,75.499,414.614,77.63z"/>
			<path fill="#ECEEE9" d="M382.745,728.589c2.169,0.01,3.723,1.077,3.911,3.204c0.225,2.559-1.445,3.854-3.873,3.934
				c-2.313,0.074-3.484-1.534-3.514-3.559C379.24,730.117,380.402,728.639,382.745,728.589z"/>
			<path fill="#EBEDE4" d="M394.242,60.07c-0.254,2.643-1.454,4.239-3.957,4.031c-2.065-0.171-3.282-1.682-3.289-3.768
				c-0.003-2.558,1.737-3.753,4.019-3.752C393.232,56.585,394.076,58.257,394.242,60.07z"/>
			<path fill="#EDEEEA" d="M318.806,727.101c2.12-0.029,3.833,0.77,3.891,3.04c0.062,2.372-1.336,4.047-3.818,4.074
				c-2.149,0.023-3.542-1.455-3.596-3.525C315.223,728.556,316.66,727.352,318.806,727.101z"/>
			<path fill="#EEEFEB" d="M305.278,63.117c-2.244,0.006-3.851-0.819-4.158-2.945c-0.361-2.501,1.15-3.921,3.491-4.106
				c2.187-0.173,3.354,1.281,3.529,3.356C308.317,61.543,307.362,62.914,305.278,63.117z"/>
			<path fill="#EAEDE3" d="M480.252,723.091c-0.238,2.632-1.581,4.099-4.038,3.861c-2.071-0.204-3.269-1.722-3.197-3.843
				c0.083-2.534,1.769-3.78,4.09-3.684C479.288,719.52,480.171,721.169,480.252,723.091z"/>
			<path fill="#EAEDE3" d="M401.599,706.471c2.087,0.217,3.532,1.228,3.762,3.383c0.261,2.451-0.938,4.156-3.384,4.368
				c-2.104,0.182-3.5-1.171-3.748-3.289C397.944,708.476,399.21,707.008,401.599,706.471z"/>
			<path fill="#EDEEEA" d="M697.245,315.399c-0.091,2.336-1.604,3.442-3.631,3.409c-2.047-0.034-3.521-1.231-3.466-3.554
				c0.062-2.53,1.431-4.017,3.939-3.77C696.196,311.692,697.277,313.219,697.245,315.399z"/>
			<path fill="#EEEFEC" d="M684.319,332.199c2.292,0.203,3.383,1.485,3.118,3.746c-0.246,2.112-1.365,3.6-3.684,3.325
				c-2.119-0.249-3.404-1.638-3.294-3.833C680.579,333.119,682.227,332.338,684.319,332.199z"/>
			<path fill="#EFEFEE" d="M119.98,446.601c-2.273,0.024-3.659-0.993-3.821-3.23c-0.159-2.21,0.978-3.595,3.201-3.749
				c2.186-0.154,3.589,0.958,3.745,3.204C123.257,445.024,122.129,446.314,119.98,446.601z"/>
			<path fill="#EAEDE3" d="M414.618,105.441c-0.35,2.253-1.276,4.031-3.854,4.014c-2.082-0.015-3.613-1.209-3.752-3.289
				c-0.165-2.455,1.327-3.813,3.796-3.887C412.95,102.218,414.241,103.296,414.618,105.441z"/>
			<path fill="#EEEFEB" d="M121.977,329.858c-2.247-0.098-3.367-1.345-3.256-3.51c0.104-2.044,1.214-3.613,3.354-3.604
				c2.397,0.01,3.816,1.558,3.699,3.97C125.667,328.941,123.964,329.67,121.977,329.858z"/>
			<path fill="#EFEFED" d="M358.804,676.146c-0.332,2.562-1.708,3.528-3.923,3.247c-2.223-0.278-3.321-1.653-3.096-3.876
				c0.232-2.278,1.699-3.244,3.889-3.051C358.04,672.674,358.655,674.363,358.804,676.146z"/>
			<path fill="#EAEDE3" d="M632.205,419.885c2.506,0.139,3.732,1.738,3.754,4.005c0.021,2.174-1.531,3.218-3.651,3.19
				c-2.466-0.029-3.949-1.387-3.827-3.819C628.584,421.179,630.126,420.132,632.205,419.885z"/>
		</g>
	</g>
	<g>
		<path fill="#E9F2E3" d="M281.264,564c0,31.674-25.678,57.35-57.35,57.35c-31.689,0-57.377-25.676-57.377-57.35
			s25.688-57.35,57.377-57.35C255.586,506.65,281.264,532.326,281.264,564z"/>
		<g>
			<g>
				<g>
					<path fill="#333332" d="M212.563,525.895h22.697c4.392,0,7.987,3.595,7.987,7.986v60.238c0,4.395-3.596,7.986-7.987,7.986
						h-22.697c-4.398,0-7.993-3.593-7.993-7.986v-60.238C204.571,529.488,208.166,525.895,212.563,525.895z"/>
					<path fill="#C1DCAB" d="M208.084,532.281h31.653c0.061,0,0.111,0.055,0.111,0.112v62.57c0,0.064-0.051,0.115-0.111,0.115
						h-31.653c-0.062,0-0.11-0.051-0.11-0.115v-62.57C207.974,532.336,208.022,532.281,208.084,532.281z"/>
					<path fill="#9A9A99" d="M218.048,527.781h11.726c0.319,0,0.581,0.256,0.581,0.578l0,0c0,0.313-0.262,0.573-0.581,0.573h-11.726
						c-0.318,0-0.578-0.26-0.578-0.573l0,0C217.471,528.037,217.73,527.781,218.048,527.781z"/>
					<path fill="#9A9A99" d="M223.913,600.436c1.076,0,1.957-0.875,1.957-1.948c0-1.078-0.881-1.955-1.957-1.955
						c-1.078,0-1.955,0.877-1.955,1.955C221.958,599.561,222.835,600.436,223.913,600.436z"/>
				</g>
				<g>
					<rect x="208" y="576.238" width="31.821" height="5.768"/>
					<g>
						<path fill="#6CA355" d="M216.037,578.77l-1.178-1.497h0.702l0.826,1.094l0.83-1.094h0.699l-1.176,1.497l1.176,1.496h-0.699
							l-0.83-1.092l-0.826,1.092h-0.702L216.037,578.77z"/>
						<path fill="#6CA355" d="M218.07,579.166c0-0.736,0.363-1.105,1.09-1.105c0.724,0,1.088,0.369,1.088,1.105
							c0,0.734-0.364,1.105-1.088,1.105C218.435,580.271,218.07,579.9,218.07,579.166z M219.16,579.846
							c0.353,0,0.532-0.229,0.532-0.686c0-0.449-0.179-0.674-0.532-0.674c-0.357,0-0.537,0.225-0.537,0.674
							C218.623,579.617,218.803,579.846,219.16,579.846z"/>
						<path fill="#6CA355" d="M220.625,580.266v-2.194h0.43l0.061,0.315c0.198-0.213,0.437-0.315,0.714-0.315
							c0.276,0,0.465,0.1,0.568,0.297c0.227-0.197,0.458-0.297,0.708-0.297c0.505,0,0.756,0.272,0.756,0.83v1.364h-0.556v-1.385
							c0-0.244-0.11-0.365-0.332-0.365c-0.163,0-0.324,0.072-0.472,0.22v1.53h-0.557v-1.377c0-0.25-0.104-0.373-0.308-0.373
							c-0.162,0-0.314,0.072-0.456,0.22v1.53H220.625z"/>
						<path fill="#FFFFFF" d="M224.34,578.158c0.296-0.06,0.604-0.088,0.927-0.088c0.752,0,1.123,0.346,1.123,1.043
							c0,0.77-0.347,1.151-1.042,1.151c-0.146,0-0.3-0.034-0.452-0.104v0.902h-0.556V578.158z M224.896,579.693
							c0.141,0.071,0.29,0.114,0.45,0.114c0.328,0,0.496-0.237,0.496-0.7c0-0.394-0.184-0.593-0.549-0.593
							c-0.159,0-0.289,0.013-0.397,0.029V579.693z"/>
						<path fill="#FFFFFF" d="M226.664,579.58c0-0.436,0.318-0.654,0.953-0.654c0.15,0,0.299,0.015,0.45,0.039v-0.16
							c0-0.198-0.143-0.299-0.426-0.299c-0.24,0-0.508,0.037-0.8,0.105v-0.441c0.292-0.068,0.56-0.1,0.8-0.1
							c0.654,0,0.979,0.24,0.979,0.721v1.475h-0.319l-0.195-0.196c-0.195,0.131-0.405,0.196-0.634,0.196
							C226.933,580.266,226.664,580.039,226.664,579.58z M227.616,579.303c-0.267,0-0.398,0.088-0.398,0.273
							c0,0.192,0.109,0.291,0.335,0.291c0.183,0,0.354-0.055,0.513-0.172v-0.353C227.926,579.316,227.776,579.303,227.616,579.303z"
							/>
						<path fill="#FFFFFF" d="M229.104,580.16v-0.463c0.242,0.104,0.523,0.147,0.846,0.147c0.233,0,0.354-0.076,0.354-0.229
							c0-0.148-0.08-0.22-0.236-0.22h-0.402c-0.447,0-0.672-0.221-0.672-0.663c0-0.462,0.33-0.688,0.982-0.688
							c0.275,0,0.533,0.043,0.779,0.123v0.465c-0.246-0.1-0.51-0.147-0.795-0.147c-0.3,0-0.45,0.071-0.45,0.229
							c0,0.146,0.087,0.221,0.261,0.221h0.357c0.488,0,0.732,0.218,0.732,0.66c0,0.461-0.313,0.689-0.934,0.689
							C229.619,580.287,229.346,580.244,229.104,580.16z"/>
						<path fill="#FFFFFF" d="M231.204,580.16v-0.463c0.245,0.104,0.529,0.147,0.847,0.147c0.238,0,0.358-0.076,0.358-0.229
							c0-0.148-0.08-0.22-0.241-0.22h-0.396c-0.447,0-0.673-0.221-0.673-0.663c0-0.462,0.325-0.688,0.979-0.688
							c0.276,0,0.537,0.043,0.781,0.123v0.465c-0.244-0.1-0.51-0.147-0.795-0.147c-0.301,0-0.451,0.071-0.451,0.229
							c0,0.146,0.088,0.221,0.262,0.221h0.357c0.485,0,0.732,0.218,0.732,0.66c0,0.461-0.312,0.689-0.935,0.689
							C231.726,580.287,231.449,580.244,231.204,580.16z"/>
					</g>
				</g>
			</g>
			<path fill="#FFFFFF" d="M230.705,558.396c0-0.267-0.213-0.478-0.478-0.478h-2.061l-1.479-4.062
				c0.601-0.677,0.969-1.562,0.969-2.531c0-1.832-1.295-3.361-3.019-3.728v-2.215c0-0.438-0.355-0.795-0.795-0.795
				c-0.439,0-0.796,0.355-0.796,0.795v2.215c-1.723,0.365-3.02,1.896-3.02,3.728c0,0.971,0.37,1.854,0.971,2.531l-1.479,4.062
				h-1.919c-0.264,0-0.477,0.211-0.477,0.478c0,0.264,0.213,0.477,0.477,0.477h1.571l-1.878,5.156
				c-0.108,0.301-0.026,0.619,0.182,0.83l-0.244,0.612c-0.065,0.164,0.014,0.349,0.177,0.412c0.04,0.019,0.08,0.023,0.118,0.023
				c0.126,0,0.247-0.076,0.296-0.201l0.244-0.609c0.315-0.012,0.608-0.209,0.723-0.521l2.075-5.703h2.502v0.873
				c0,0.264,0.213,0.479,0.477,0.479c0.264,0,0.478-0.217,0.478-0.479v-0.873h2.501l2.074,5.703c0.114,0.312,0.407,0.51,0.721,0.521
				l0.247,0.609c0.049,0.125,0.167,0.201,0.293,0.201c0.038,0,0.08-0.006,0.117-0.023c0.163-0.063,0.244-0.248,0.179-0.412
				l-0.245-0.612c0.209-0.211,0.291-0.529,0.185-0.83l-1.879-5.156h1.714C230.492,558.873,230.705,558.66,230.705,558.396z
				 M223.842,549.105c1.228,0,2.221,0.995,2.221,2.221c0,1.227-0.996,2.223-2.221,2.223c-1.225,0-2.224-0.996-2.224-2.223
				C221.618,550.102,222.616,549.105,223.842,549.105z M224.32,557.92v-0.877c0-0.264-0.214-0.479-0.478-0.479
				c-0.264,0-0.478,0.215-0.478,0.479v0.877h-2.153l1.125-3.092c0.463,0.199,0.972,0.311,1.506,0.311
				c0.535,0,1.044-0.11,1.506-0.311l1.125,3.092H224.32z"/>
		</g>
	</g>
	<g>
		<circle fill="#E9F2E3" cx="576" cy="564" r="57.35"/>
		<g>
			<path fill="#BDC0C1" d="M555.033,584.656c0,3.19-2.585,5.772-5.773,5.772h-9.621c-3.189,0-5.774-2.582-5.774-5.772v-42.34
				c0-3.188,2.585-5.773,5.774-5.773h9.621c3.188,0,5.773,2.586,5.773,5.773V584.656z"/>
			<rect x="535.75" y="539.75" fill="#E8E8E9" width="17.5" height="47.125"/>
			<g>
				<rect x="539" y="564" fill="#BDC0C1" width="11" height="5"/>
				<rect x="539" y="576" fill="#BDC0C1" width="11" height="2"/>
				<rect x="539" y="546" fill="#BDC0C1" width="11" height="2"/>
				<rect x="539" y="548" fill="#BDC0C1" width="11" height="3"/>
				<path fill="#676767" d="M546.819,557.376c0,1.525-1.151,2.76-2.571,2.76c-1.425,0-2.579-1.233-2.579-2.76
					c0-1.524,1.154-2.761,2.579-2.761C545.668,554.615,546.819,555.852,546.819,557.376z"/>
				<path fill="#BDC0C1" d="M546.056,557.348c0,1.071-0.81,1.938-1.808,1.938c-1.004,0-1.814-0.866-1.814-1.938
					c0-1.071,0.812-1.94,1.814-1.94C545.246,555.406,546.056,556.275,546.056,557.348z"/>
				<rect x="539.41" y="572.456" fill="#999898" width="1.664" height="0.593"/>
				<rect x="548" y="572" fill="#CCCBCB" width="2" height="1"/>
				<rect x="542" y="571" fill="#B3B3B3" width="4" height="2"/>
			</g>
			<g>
				<g>
					<g>
						<rect x="560.676" y="545.57" fill="#FFFFFF" width="55.983" height="31.854"/>
						<rect x="562.48" y="547.939" fill="#EF8260" width="51.74" height="2.506"/>
						<rect x="585.694" y="553.34" fill="#EF8260" width="28.526" height="0.918"/>
						<path fill="#96C67A" d="M569.812,552.721c-3.207,0-5.82,1.685-5.82,3.748c0,1.564,1.505,2.912,3.628,3.474
							c0.35,0.961,0.914,1.801,1.764,2.762c-0.37-0.781-0.563-1.689-0.606-2.545c0.336,0.039,0.681,0.059,1.035,0.059
							c3.205,0,5.82-1.682,5.82-3.748C575.632,554.404,573.017,552.721,569.812,552.721z"/>
						<g>
							<rect x="564.045" y="564.414" fill="#EF8260" width="11.587" height="1.736"/>
							<rect x="564.045" y="567.891" fill="#FDD47C" width="11.587" height="1.736"/>
							<rect x="564.045" y="571.365" fill="#F9B853" width="11.587" height="1.16"/>
							<rect x="585.48" y="571.943" fill="#F9B853" width="28.964" height="2.896"/>
						</g>
					</g>
					<path fill="#96C67A" d="M606.754,569.484v0.883h-13.25h-0.882v-0.883v-13.25h0.882v13.25H606.754z M604.989,556.234
						l-3.479,0.569l0.835,1.023l-7.353,6.016l0.559,0.685l7.355-6.017l0.836,1.021L604.989,556.234z M604.025,561.275l-0.804-0.986
						v8.314h1.768v-9.865L604.025,561.275z M597.92,563.73v4.872h1.768v-6.319L597.92,563.73z M595.427,565.771l-0.153-0.191v3.023
						h1.765v-4.152L595.427,565.771z M600.569,561.562v7.041h1.771v-8.487L600.569,561.562z"/>
				</g>
				<g>
					<path fill="#3D3D3D" d="M616.802,543.217h-56.624c-0.737,0-1.336,0.599-1.336,1.334v34.576h59.293v-34.576
						C618.135,543.814,617.537,543.217,616.802,543.217z M616.299,576.789h-55.621v-31.236h55.621V576.789z"/>
					<path fill="#E8E8E9" d="M616.802,584.471h-56.624c-0.737,0-1.336-0.598-1.336-1.336v-4.008h59.296v4.008
						C618.138,583.873,617.537,584.471,616.802,584.471z"/>
					<path fill="#BDC0C1" d="M579.054,591.459v-0.736l2.339-0.285l1.614-6.161h11.967l1.615,6.161l2.342,0.285v0.736H579.054z"/>
					<path fill="#E8E8E9" d="M589.076,544.066c0.17,0,0.312,0.141,0.312,0.312c0,0.176-0.142,0.314-0.312,0.314
						c-0.174,0-0.315-0.14-0.315-0.314C588.761,544.207,588.902,544.066,589.076,544.066z"/>
					<path opacity="0.08" fill="#3D3D3D" enable-background="new    " d="M582.79,585.443l0.217-1.168h11.967l0.221,1.168H582.79z"
						/>
				</g>
			</g>
		</g>
	</g>
	<g>
		<path fill="#E9F2E3" d="M633.344,199.916c0,31.644-25.677,57.295-57.35,57.295c-31.676,0-57.35-25.651-57.35-57.295
			c0-31.673,25.674-57.35,57.35-57.35C607.667,142.566,633.344,168.243,633.344,199.916z"/>
		<g>
			<g>
				<path fill="#F0EFED" d="M546.316,174.716c0.473-1.621,1.309-3.027,2.512-4.135c0.842-0.776,1.842-1.427,2.873-1.934
					c1.322-0.651,2.793-0.975,4.279-0.893c0.93,0.048,1.875,0.272,2.764,0.573c0.771,0.262,1.33,0.172,1.92-0.378
					c1.469-1.368,3.146-2.439,4.916-3.393c1.895-1.024,3.885-1.804,5.971-2.295c1.353-0.317,2.732-0.535,4.113-0.677
					c1.266-0.129,2.556-0.179,3.822-0.114c1.312,0.07,2.625,0.268,3.919,0.507c2.76,0.51,5.363,1.48,7.774,2.907
					c1.476,0.874,2.869,1.897,4.235,2.937c1.469,1.121,2.666,2.522,3.806,3.974c0.095,0.122,0.438,0.115,0.649,0.071
					c1.073-0.217,2.134-0.606,3.214-0.678c2.406-0.156,4.59,0.604,6.518,2.047c1.72,1.29,2.873,2.984,3.44,5.063
					c0.196,0.723,0.368,1.464,0.442,2.208c0.033,0.329-0.118,0.745-0.326,1.016c-1.667,2.181-3.734,3.912-6.162,5.163
					c-1.667,0.859-3.442,1.486-5.326,1.674c-1.167,0.114-2.339,0.231-3.505,0.231c-16.483,0.015-32.963,0.017-49.441,0.003
					c-2.422-0.002-4.581-0.853-6.504-2.308c-1.668-1.266-2.875-2.896-3.561-4.879c-0.146-0.423-0.164-0.943-0.078-1.384
					c0.416-2.112,1.6-3.706,3.5-4.679c0.701-0.358,1.539-0.484,2.334-0.608C545.01,174.64,545.635,174.716,546.316,174.716z"/>
				<path fill="#EFEFED" d="M571.35,188.945c-7.545,0-15.084-0.003-22.627-0.011c-2.373-0.002-4.631-0.8-6.705-2.377
					c-1.739-1.321-2.977-3.016-3.678-5.039c-0.158-0.46-0.195-1.047-0.09-1.565c0.432-2.208,1.705-3.905,3.678-4.913
					c0.73-0.373,1.566-0.504,2.371-0.631l0.063-0.01c0.225-0.036,0.463-0.051,0.754-0.051c0.192,0,0.387,0.007,0.586,0.015
					c0.119,0.004,0.242,0.006,0.362,0.009c0.509-1.601,1.361-2.958,2.533-4.041c0.814-0.751,1.836-1.44,2.953-1.988
					c1.394-0.688,2.935-1.012,4.447-0.929c0.885,0.046,1.844,0.247,2.854,0.591c0.679,0.23,1.082,0.159,1.578-0.305
					c1.312-1.216,2.896-2.308,4.982-3.44c1.961-1.061,3.998-1.844,6.057-2.327c1.295-0.305,2.691-0.535,4.16-0.684
					c1.367-0.142,2.671-0.179,3.875-0.117c1.149,0.062,2.373,0.219,3.962,0.514c2.804,0.514,5.455,1.507,7.887,2.945
					c1.498,0.889,2.938,1.95,4.269,2.961c1.514,1.156,2.74,2.601,3.835,3.994c0.052,0.01,0.228,0.014,0.347-0.012
					c0.369-0.074,0.747-0.173,1.108-0.266c0.695-0.181,1.418-0.369,2.148-0.417c2.393-0.158,4.672,0.557,6.743,2.114
					c1.781,1.332,2.979,3.098,3.564,5.245c0.168,0.612,0.37,1.422,0.454,2.261c0.048,0.45-0.164,0.957-0.396,1.258
					c-1.689,2.215-3.802,3.984-6.276,5.258c-1.892,0.974-3.674,1.533-5.449,1.71c-1.148,0.114-2.336,0.234-3.535,0.234
					C589.226,188.94,580.29,188.945,571.35,188.945z M545.115,175.029c-0.254,0-0.463,0.012-0.648,0.042l-0.062,0.011
					c-0.754,0.118-1.533,0.238-2.17,0.565c-1.806,0.921-2.922,2.414-3.32,4.44c-0.078,0.401-0.053,0.854,0.068,1.204
					c0.655,1.897,1.813,3.484,3.444,4.721c1.955,1.486,4.074,2.237,6.297,2.241c16.479,0.012,32.958,0.012,49.441-0.004
					c1.165,0,2.338-0.116,3.469-0.23c1.688-0.169,3.392-0.703,5.206-1.638c2.383-1.23,4.42-2.931,6.047-5.067
					c0.171-0.226,0.28-0.556,0.26-0.776c-0.08-0.786-0.271-1.559-0.431-2.15c-0.547-1.998-1.663-3.638-3.317-4.878
					c-1.945-1.458-4.065-2.129-6.29-1.982c-0.672,0.044-1.328,0.216-2.025,0.398c-0.372,0.099-0.758,0.196-1.144,0.276
					c-0.111,0.022-0.238,0.034-0.358,0.034c-0.298,0-0.509-0.078-0.63-0.232c-1.075-1.369-2.273-2.791-3.739-3.909
					c-1.317-1.002-2.734-2.049-4.205-2.919c-2.36-1.397-4.939-2.362-7.662-2.862c-1.561-0.29-2.755-0.444-3.875-0.501
					c-1.17-0.063-2.438-0.025-3.769,0.113c-1.439,0.147-2.812,0.373-4.074,0.668c-2,0.468-3.982,1.23-5.889,2.264
					c-2.037,1.101-3.576,2.163-4.844,3.34c-0.679,0.63-1.332,0.768-2.261,0.449c-0.953-0.323-1.854-0.509-2.676-0.555
					c-1.396-0.075-2.818,0.225-4.109,0.86c-1.059,0.52-2.022,1.172-2.791,1.88c-1.141,1.05-1.948,2.39-2.416,3.979l-0.069,0.248
					h-0.256c-0.222,0-0.433-0.008-0.642-0.017C545.486,175.035,545.299,175.029,545.115,175.029z"/>
			</g>
			<g>
				<path fill="#D8DDDF" d="M613.521,181.145c0,4.313,0,8.903,0,13.488c0,0.219-0.031,0.439,0.005,0.652
					c0.262,1.565-0.558,2.713-1.449,3.843c-1.817,2.296-4.213,3.62-7.05,4.167c-0.796,0.153-1.623,0.239-2.437,0.24
					c-17.78,0.014-35.565,0.018-53.352-0.001c-2.765-0.002-5.308-0.832-7.498-2.552c-1.349-1.058-2.387-2.389-3.172-3.909
					c-0.086-0.167-0.138-0.372-0.138-0.557c-0.008-5.123-0.006-10.242-0.006-15.368c0-0.047,0.021-0.091,0.054-0.22
					c0.694,1.721,1.713,3.136,3.049,4.296c1.498,1.299,3.203,2.253,5.19,2.531c1.213,0.168,2.449,0.24,3.679,0.242
					c16.36,0.013,32.724,0.021,49.087-0.002c2.384-0.003,4.681-0.556,6.857-1.548c1.776-0.808,3.383-1.87,4.802-3.227
					C611.944,182.454,612.808,181.766,613.521,181.145z M562.809,195.361c2.566,0,5.132,0.005,7.695,0
					c0.973-0.001,1.551-0.576,1.563-1.541c0-0.237,0.008-0.472-0.005-0.709c-0.032-0.824-0.61-1.42-1.438-1.423
					c-5.15-0.003-10.303-0.009-15.453,0.016c-0.328,0.001-0.686,0.21-0.979,0.402c-0.664,0.434-0.47,1.146-0.479,1.777
					c-0.01,0.857,0.611,1.478,1.459,1.478C557.717,195.365,560.26,195.361,562.809,195.361z M562.879,199.875
					c2.564,0,5.131,0,7.695-0.005c0.19,0,0.389-0.027,0.57-0.085c0.942-0.303,1.012-1.308,0.901-2.166
					c-0.092-0.693-0.779-1.183-1.588-1.183c-5.055-0.006-10.104-0.004-15.154-0.005c-0.563,0-1.078,0.174-1.34,0.668
					c-0.186,0.354-0.231,0.809-0.244,1.219c-0.035,1.033,0.5,1.552,1.521,1.556C557.787,199.875,560.336,199.875,562.879,199.875z
					 M592.841,193.349c-0.933,0.001-1.587,0.64-1.586,1.547c0.001,0.846,0.716,1.565,1.56,1.531
					c0.926-0.039,1.566-0.741,1.525-1.631C594.302,193.965,593.694,193.345,592.841,193.349z M580.023,196.314
					c0.73,0.153,1.443-0.554,1.489-1.446c0.039-0.768-0.768-1.523-1.514-1.518c-0.854,0-1.531,0.675-1.543,1.494
					C578.446,195.567,579.139,196.475,580.023,196.314z M586.354,196.314c0.895-0.003,1.474-0.594,1.466-1.498
					c-0.006-0.792-0.706-1.479-1.503-1.468c-0.814,0.009-1.459,0.698-1.456,1.557C584.862,195.753,585.458,196.316,586.354,196.314z
					"/>
				<path fill="#D8DDDF" d="M573.623,203.888c-8.127,0-16.256-0.006-24.383-0.013c-2.896-0.003-5.492-0.888-7.709-2.623
					c-1.326-1.042-2.424-2.398-3.265-4.023c-0.11-0.216-0.174-0.476-0.174-0.712c-0.008-4.997-0.006-10.001-0.002-14.999v-0.369
					c0-0.071,0.015-0.132,0.027-0.193c0.01-0.025,0.016-0.057,0.028-0.102l0.238-1.055l0.408,1c0.674,1.665,1.643,3.026,2.957,4.167
					c1.619,1.404,3.258,2.206,5.012,2.45c1.142,0.157,2.361,0.238,3.635,0.238c8.644,0.009,17.287,0.014,25.935,0.014
					c0.006,0,0.016,0,0.025,0c8.233,0,15.801-0.002,23.126-0.014c2.25-0.001,4.513-0.513,6.723-1.519
					c1.773-0.808,3.355-1.875,4.707-3.162c0.563-0.544,1.148-1.038,1.715-1.516c0.234-0.196,0.46-0.387,0.672-0.567l0.563-0.491
					v14.233c0,0.072-0.004,0.15-0.011,0.224c-0.003,0.135-0.009,0.262,0.011,0.369c0.278,1.673-0.561,2.902-1.52,4.115
					c-1.791,2.268-4.23,3.706-7.252,4.288c-0.841,0.163-1.682,0.247-2.5,0.247C592.938,203.882,583.277,203.888,573.623,203.888z
					 M538.77,182.338c0,4.726-0.004,9.451,0.003,14.178c0,0.128,0.038,0.279,0.104,0.399c0.789,1.539,1.826,2.819,3.076,3.801
					c2.096,1.639,4.551,2.475,7.291,2.478c17.785,0.022,35.567,0.013,53.35,0c0.774,0,1.574-0.077,2.371-0.231
					c2.856-0.55,5.16-1.912,6.849-4.045c0.894-1.131,1.613-2.18,1.382-3.576c-0.031-0.182-0.024-0.354-0.021-0.516
					c0.003-0.065,0.008-0.131,0.008-0.193v-12.75c-0.036,0.033-0.074,0.064-0.114,0.097c-0.556,0.473-1.133,0.958-1.686,1.485
					c-1.404,1.342-3.049,2.45-4.896,3.29c-2.298,1.048-4.649,1.58-6.998,1.582c-7.327,0.01-14.895,0.014-23.128,0.014
					c-0.011,0-0.021,0-0.025,0c-8.646,0-17.291-0.005-25.936-0.014c-1.304,0-2.556-0.083-3.726-0.245
					c-1.889-0.261-3.645-1.115-5.367-2.609C540.264,184.576,539.424,183.539,538.77,182.338z M565.584,200.214h-10.342
					c-0.613,0-1.088-0.168-1.41-0.502c-0.32-0.329-0.473-0.801-0.453-1.4c0.01-0.379,0.055-0.93,0.285-1.371
					c0.293-0.557,0.857-0.85,1.635-0.85h3.59h4.347c2.407,0,4.813,0,7.225,0.003c1.006,0.001,1.813,0.625,1.924,1.483
					c0.222,1.717-0.496,2.324-1.135,2.532c-0.201,0.066-0.434,0.103-0.674,0.103C568.914,200.214,567.25,200.214,565.584,200.214z
					 M562.879,199.532h2.705c1.666,0,3.33,0,4.99-0.003c0.168-0.002,0.328-0.024,0.465-0.066c0.211-0.071,0.863-0.282,0.67-1.798
					c-0.064-0.508-0.602-0.889-1.25-0.889c-2.41-0.001-4.816-0.001-7.225-0.001h-4.347l-3.584-0.002
					c-0.52,0-0.868,0.162-1.039,0.484c-0.163,0.32-0.196,0.765-0.209,1.074c-0.01,0.408,0.078,0.714,0.263,0.904
					c0.19,0.197,0.5,0.295,0.924,0.297H562.879z M592.755,196.768c-0.003,0-0.003,0-0.003,0c-0.993,0-1.836-0.857-1.839-1.87
					c0-0.531,0.195-1.014,0.545-1.361c0.354-0.339,0.843-0.529,1.383-0.531h0.007c1.018,0,1.786,0.746,1.832,1.776
					c0.021,0.518-0.148,1.006-0.482,1.372c-0.344,0.371-0.828,0.592-1.369,0.613C592.804,196.768,592.778,196.768,592.755,196.768z
					 M592.848,193.349l-0.007,0.339c-0.362,0.001-0.678,0.117-0.906,0.338c-0.225,0.221-0.341,0.52-0.341,0.87
					c0.002,0.646,0.534,1.192,1.158,1.192l0.048-0.002c0.357-0.015,0.676-0.153,0.896-0.395c0.21-0.228,0.317-0.54,0.306-0.879
					c-0.033-0.662-0.505-1.124-1.154-1.124V193.349z M580.226,196.675c-0.066,0-0.136-0.005-0.203-0.018
					c-0.482,0.068-0.969-0.111-1.34-0.49c-0.355-0.361-0.57-0.873-0.563-1.329c0.015-1.008,0.856-1.831,1.879-1.833
					c0.473,0,0.975,0.236,1.346,0.628c0.346,0.364,0.531,0.819,0.512,1.25C581.802,195.873,581.073,196.675,580.226,196.675z
					 M580.028,195.965l0.064,0.016c0.519,0.107,1.044-0.455,1.08-1.129c0.011-0.249-0.106-0.521-0.324-0.751
					c-0.239-0.253-0.565-0.411-0.85-0.411c-0.654,0-1.19,0.521-1.202,1.158c-0.006,0.281,0.141,0.611,0.368,0.844
					c0.136,0.14,0.358,0.3,0.65,0.3c0.049,0,0.097-0.003,0.146-0.013L580.028,195.965z M586.354,196.654
					c-1.077,0-1.83-0.718-1.837-1.746c-0.004-1.054,0.785-1.889,1.794-1.902h0.021c0.984,0,1.819,0.827,1.829,1.805
					c0.002,0.541-0.17,1-0.498,1.335C587.335,196.476,586.884,196.653,586.354,196.654z M586.331,193.349l-0.013,0.339
					c-0.631,0.01-1.125,0.542-1.12,1.214c0.001,0.66,0.443,1.071,1.147,1.071c0.351,0,0.637-0.109,0.83-0.306
					c0.199-0.201,0.307-0.497,0.301-0.851c-0.007-0.601-0.538-1.128-1.146-1.128V193.349L586.331,193.349z M567.514,195.705
					l-4.705-0.001l-4.676,0.001c-0.986,0-1.975-0.001-2.963-0.001c-0.504,0-0.965-0.186-1.297-0.521
					c-0.328-0.335-0.506-0.798-0.504-1.303c0.002-0.113-0.002-0.23-0.01-0.344c-0.025-0.559-0.058-1.254,0.645-1.715
					c0.344-0.225,0.752-0.454,1.164-0.458c2.684-0.012,5.615-0.02,8.961-0.02c2.164,0,4.328,0.005,6.494,0.005
					c0.992,0.001,1.74,0.736,1.781,1.748c0.006,0.212,0.004,0.425,0.002,0.63l-0.002,0.102c-0.013,1.155-0.742,1.875-1.898,1.876
					C569.51,195.705,568.51,195.705,567.514,195.705z M562.809,195.021l4.705,0.001c0.996,0,1.996,0,2.99-0.001
					c0.777-0.002,1.213-0.428,1.221-1.203l0.005-0.102c0-0.207,0.004-0.399-0.005-0.593c-0.024-0.652-0.469-1.092-1.104-1.092
					c-2.162-0.001-4.326-0.006-6.49-0.006c-3.346,0-6.272,0.006-8.957,0.02c-0.266,0-0.635,0.242-0.795,0.345
					c-0.358,0.236-0.362,0.558-0.334,1.112c0.004,0.13,0.01,0.261,0.01,0.384c-0.006,0.324,0.104,0.615,0.308,0.818
					c0.201,0.205,0.49,0.318,0.811,0.318c0.988,0,1.978,0.001,2.963,0.001L562.809,195.021z"/>
			</g>
			<g>
				<path fill="#C4C7C9" d="M562.816,195.126c-2.486,0-4.972,0.002-7.457,0c-0.937,0-1.418-0.474-1.412-1.397
					c0.002-0.33-0.023-0.684,0.084-0.983c0.197-0.539,0.643-0.822,1.223-0.822c5.09-0.002,10.18-0.005,15.271,0.004
					c0.78,0,1.282,0.544,1.305,1.338c0.035,1.11-0.228,1.614-0.969,1.815c-0.188,0.051-0.392,0.046-0.584,0.046
					C567.789,195.128,565.303,195.126,562.816,195.126z"/>
				<path fill="#C4C6C9" d="M557.846,195.469h-2.485c-0.566,0-1.005-0.157-1.312-0.464c-0.297-0.3-0.445-0.729-0.44-1.279
					c0.002-0.058,0-0.117,0-0.177c-0.005-0.289-0.007-0.618,0.104-0.919c0.244-0.666,0.805-1.046,1.543-1.046
					c5.09-0.004,10.181-0.005,15.271,0.004c0.955,0,1.614,0.669,1.646,1.667c0.027,0.895-0.096,1.853-1.221,2.156
					c-0.215,0.057-0.428,0.057-0.613,0.057h-0.061c-1.295,0.002-2.597,0.002-3.892,0.002h-3.567L557.846,195.469L557.846,195.469z
					 M562.922,192.261c-2.555,0-5.111,0.002-7.668,0.005c-0.312,0-0.725,0.103-0.906,0.597c-0.065,0.188-0.063,0.428-0.062,0.683
					c0,0.064,0.004,0.125,0,0.186c-0.002,0.36,0.084,0.627,0.248,0.797c0.17,0.173,0.447,0.258,0.826,0.258h2.485h4.972h3.567
					c1.295,0,2.597,0,3.892,0h0.043c0.17,0,0.328,0,0.453-0.033c0.5-0.138,0.752-0.403,0.719-1.479
					c-0.021-0.628-0.381-1.006-0.967-1.006C567.988,192.263,565.455,192.261,562.922,192.261z"/>
			</g>
			<g>
				<path fill="#C4C7C9" d="M562.887,199.636c-2.506,0-5.01-0.021-7.514,0.012c-0.914,0.013-1.381-0.538-1.432-1.183
					c-0.101-1.244,0.36-1.652,1.323-1.795c0.078-0.011,0.16,0,0.236,0c4.932,0,9.863-0.005,14.795,0
					c0.836,0,1.416,0.395,1.519,1.071c0.112,0.744-0.066,1.603-0.787,1.807c-0.203,0.056-0.416,0.086-0.625,0.086
					C567.898,199.64,565.391,199.636,562.887,199.636z"/>
				<path fill="#C4C6C9" d="M555.344,199.991c-0.985,0-1.672-0.59-1.742-1.502c-0.104-1.326,0.375-1.97,1.613-2.154
					c0.072-0.013,0.152-0.01,0.229-0.009l0.059,0.002l7.861-0.002c2.311,0,4.621,0.002,6.934,0.002c1.019,0,1.729,0.522,1.854,1.362
					c0.137,0.907-0.131,1.934-1.033,2.185c-0.228,0.063-0.478,0.097-0.715,0.097c-1.383,0.006-2.763,0.006-4.144,0.006h-3.373
					c-0.703,0-1.403-0.001-2.106-0.006c-0.705,0-1.406,0-2.107,0c-1.289,0-2.338,0.006-3.293,0.016L555.344,199.991z
					 M555.357,197.008c-0.015,0-0.025,0-0.041,0.001c-0.771,0.115-1.121,0.358-1.039,1.427c0.045,0.546,0.44,0.871,1.065,0.871
					h0.027c0.957-0.013,2.006-0.018,3.301-0.018c0.703,0,1.404,0.002,2.109,0.003c0.7,0.001,1.403,0.001,2.104,0.001l3.373,0.004
					c1.381,0,2.76-0.004,4.144-0.005c0.18,0,0.362-0.025,0.532-0.073c0.572-0.16,0.609-0.973,0.543-1.428
					c-0.104-0.703-0.86-0.778-1.182-0.778c-2.312-0.003-4.623-0.003-6.934-0.003H555.5c-0.027,0-0.057,0-0.084-0.001
					L555.357,197.008L555.357,197.008z"/>
			</g>
			<g>
				<path fill="#3EB29D" d="M594.098,194.81c0.009,0.724-0.586,1.363-1.281,1.383c-0.624,0.02-1.312-0.646-1.328-1.281
					c-0.013-0.726,0.575-1.311,1.324-1.328C593.501,193.567,594.088,194.131,594.098,194.81z"/>
				<path fill="#3BB29C" d="M592.789,196.535c-0.811,0-1.625-0.801-1.64-1.616c-0.019-0.919,0.71-1.656,1.653-1.677h0.035
					c0.87,0,1.586,0.702,1.599,1.564c0.012,0.909-0.73,1.7-1.61,1.729H592.789z M592.839,193.926
					c-0.584,0.011-1.018,0.442-1.008,0.979c0.008,0.435,0.528,0.947,0.958,0.947h0.015c0.515-0.017,0.957-0.5,0.953-1.039
					C593.752,194.331,593.331,193.926,592.839,193.926z"/>
			</g>
			<g>
				<path fill="#9ECDC7" d="M581.188,194.888c0,0.749-0.443,1.191-1.195,1.188c-0.7-0.002-1.273-0.542-1.293-1.22
					c-0.018-0.598,0.633-1.246,1.274-1.27C580.595,193.563,581.185,194.195,581.188,194.888z"/>
				<path fill="#9ECDC6" d="M579.997,196.418h-0.006c-0.891-0.002-1.607-0.684-1.632-1.55c-0.021-0.789,0.77-1.593,1.603-1.624
					l0.048-0.002c0.79,0,1.517,0.784,1.52,1.646c0.001,0.456-0.146,0.842-0.413,1.115
					C580.844,196.273,580.456,196.418,579.997,196.418z M580.01,193.926c-0.479,0.018-0.985,0.509-0.973,0.921
					c0.017,0.497,0.435,0.887,0.955,0.888l0.005,0.34v-0.34c0.281,0,0.492-0.072,0.636-0.214s0.214-0.356,0.211-0.633
					C580.844,194.403,580.431,193.926,580.01,193.926z"/>
			</g>
			<g>
				<path fill="#3DB29D" d="M586.344,196.076c-0.667,0.003-1.248-0.546-1.25-1.182c-0.002-0.68,0.574-1.298,1.23-1.31
					c0.583-0.01,1.272,0.646,1.253,1.237C587.548,195.534,587.055,196.105,586.344,196.076z"/>
				<path fill="#3BB19D" d="M586.396,196.419c-0.021,0-0.045-0.001-0.065-0.001c-0.003,0-0.003,0-0.003,0
					c-0.845,0-1.573-0.698-1.573-1.522c-0.004-0.864,0.727-1.637,1.563-1.654l0,0c0.399,0,0.816,0.2,1.143,0.539
					c0.304,0.317,0.469,0.698,0.453,1.051C587.882,195.735,587.229,196.419,586.396,196.419z M586.337,193.926
					c-0.479,0.006-0.903,0.469-0.903,0.968c0.001,0.448,0.424,0.842,0.907,0.842h0.058c0.525,0,0.821-0.467,0.836-0.929
					c0.008-0.165-0.09-0.372-0.265-0.555C586.778,194.054,586.529,193.926,586.337,193.926z"/>
			</g>
			<g>
				<path fill="#D8DDDF" d="M613.521,198.602c0,4.305,0,8.879,0,13.454c0,0.218-0.031,0.438,0.005,0.651
					c0.262,1.56-0.558,2.705-1.449,3.83c-1.817,2.292-4.213,3.614-7.05,4.164c-0.796,0.154-1.623,0.237-2.437,0.24
					c-17.78,0.012-35.565,0.02-53.352-0.003c-2.765-0.003-5.308-0.831-7.498-2.549c-1.349-1.053-2.387-2.383-3.172-3.901
					c-0.086-0.166-0.138-0.371-0.138-0.555c-0.008-5.104-0.006-10.213-0.006-15.328c0-0.046,0.021-0.095,0.054-0.22
					c0.694,1.718,1.713,3.132,3.049,4.286c1.498,1.299,3.203,2.25,5.19,2.525c1.213,0.167,2.449,0.241,3.679,0.241
					c16.36,0.016,32.724,0.019,49.087,0c2.384-0.002,4.681-0.556,6.857-1.546c1.776-0.807,3.383-1.865,4.802-3.219
					C611.944,199.912,612.808,199.219,613.521,198.602z M562.809,212.785c2.566,0,5.132,0.003,7.695-0.001
					c0.973,0,1.551-0.576,1.563-1.535c0-0.236,0.008-0.475-0.005-0.708c-0.032-0.824-0.61-1.417-1.438-1.417
					c-5.15-0.008-10.303-0.012-15.453,0.012c-0.328,0-0.686,0.208-0.979,0.4c-0.664,0.433-0.47,1.144-0.479,1.772
					c-0.01,0.857,0.611,1.476,1.459,1.477C557.717,212.788,560.26,212.785,562.809,212.785z M562.879,217.279
					c2.564,0,5.131,0.003,7.695-0.002c0.19,0,0.389-0.025,0.57-0.082c0.942-0.306,1.012-1.306,0.901-2.16
					c-0.092-0.694-0.779-1.182-1.588-1.182c-5.055-0.006-10.104,0-15.154-0.004c-0.563,0-1.078,0.175-1.34,0.666
					c-0.186,0.354-0.231,0.808-0.244,1.22c-0.035,1.025,0.5,1.544,1.521,1.544C557.787,217.282,560.336,217.279,562.879,217.279z
					 M592.841,210.774c-0.933,0.003-1.587,0.643-1.586,1.543c0.001,0.845,0.716,1.564,1.56,1.527
					c0.926-0.036,1.566-0.737,1.525-1.625C594.302,211.392,593.694,210.774,592.841,210.774z M580.023,213.73
					c0.73,0.154,1.443-0.549,1.489-1.439c0.039-0.768-0.768-1.518-1.514-1.517c-0.854,0.002-1.531,0.673-1.543,1.492
					C578.446,212.986,579.139,213.896,580.023,213.73z M586.354,213.73c0.895,0,1.474-0.591,1.466-1.496
					c-0.006-0.789-0.706-1.47-1.503-1.461c-0.814,0.011-1.459,0.699-1.456,1.553C584.862,213.168,585.458,213.733,586.354,213.73z"
					/>
				<path fill="#D8DDDF" d="M573.723,221.294c-8.162,0-16.319-0.005-24.481-0.014c-2.896-0.003-5.492-0.887-7.709-2.625
					c-1.326-1.043-2.424-2.39-3.265-4.012c-0.11-0.217-0.174-0.475-0.174-0.711c-0.008-4.984-0.006-9.97-0.002-14.96v-0.367
					c0-0.072,0.013-0.131,0.027-0.193c0.01-0.026,0.016-0.061,0.029-0.103l0.237-1.053l0.408,0.999
					c0.674,1.664,1.644,3.024,2.957,4.162c1.619,1.4,3.258,2.196,5.012,2.44c1.146,0.16,2.369,0.239,3.636,0.239
					c16.36,0.015,32.724,0.022,49.085,0c2.253-0.003,4.514-0.512,6.721-1.513c1.776-0.811,3.358-1.87,4.709-3.156
					c0.562-0.54,1.146-1.033,1.711-1.507c0.232-0.198,0.461-0.391,0.676-0.577l0.563-0.485v14.198c0,0.071-0.004,0.146-0.01,0.222
					c-0.004,0.136-0.01,0.263,0.01,0.372c0.278,1.665-0.561,2.888-1.52,4.099c-1.794,2.262-4.23,3.703-7.252,4.285
					c-0.836,0.163-1.678,0.247-2.5,0.249C592.971,221.289,583.346,221.294,573.723,221.294z M538.77,199.793
					c0,4.715-0.004,9.43,0.003,14.14c0,0.131,0.038,0.281,0.104,0.398c0.789,1.537,1.826,2.809,3.076,3.789
					c2.096,1.642,4.549,2.477,7.291,2.479c17.785,0.02,35.567,0.014,53.35,0c0.779,0,1.577-0.081,2.371-0.23
					c2.856-0.552,5.158-1.913,6.849-4.045c0.894-1.125,1.613-2.172,1.382-3.564c-0.031-0.179-0.024-0.357-0.021-0.513
					c0.003-0.065,0.008-0.131,0.008-0.191V199.34c-0.041,0.034-0.079,0.068-0.117,0.102c-0.558,0.47-1.132,0.954-1.683,1.48
					c-1.404,1.335-3.049,2.441-4.896,3.28c-2.293,1.039-4.648,1.572-6.998,1.576c-16.363,0.021-32.727,0.016-49.089,0
					c-1.295,0-2.552-0.082-3.726-0.244c-1.889-0.264-3.645-1.115-5.367-2.604C540.264,202.029,539.424,200.996,538.77,199.793z
					 M565.711,217.62h-4.742h-1.908h-3.817c-0.613,0-1.088-0.169-1.41-0.499c-0.32-0.33-0.473-0.8-0.453-1.399
					c0.01-0.375,0.055-0.923,0.285-1.367c0.293-0.554,0.859-0.845,1.641-0.845h7.574c2.527,0,5.053,0,7.58,0.002
					c1.006,0.002,1.813,0.623,1.924,1.476c0.222,1.716-0.496,2.322-1.135,2.527c-0.201,0.065-0.435,0.103-0.674,0.103
					C568.953,217.62,567.332,217.62,565.711,217.62z M562.879,216.941h2.832c1.621,0,3.242-0.002,4.863-0.006
					c0.168,0,0.328-0.021,0.465-0.066c0.211-0.068,0.863-0.279,0.67-1.794c-0.064-0.501-0.602-0.88-1.25-0.884
					c-2.527,0-5.055,0-7.58,0h-7.574c-0.518,0-0.869,0.159-1.039,0.484c-0.164,0.312-0.196,0.758-0.209,1.068
					c-0.01,0.406,0.078,0.71,0.263,0.904c0.19,0.194,0.5,0.292,0.924,0.292l3.817,0.002H562.879z M592.752,214.185
					c-0.993,0-1.836-0.854-1.839-1.868c0-0.527,0.195-1.009,0.545-1.353c0.354-0.338,0.843-0.532,1.383-0.532h0.007
					c1.018,0,1.786,0.748,1.832,1.771c0.021,0.519-0.148,1.005-0.482,1.368c-0.344,0.373-0.828,0.593-1.369,0.613
					C592.802,214.183,592.778,214.185,592.752,214.185z M592.848,210.774l-0.007,0.338c-0.362,0.003-0.678,0.119-0.906,0.34
					c-0.225,0.217-0.341,0.517-0.341,0.865c0.002,0.646,0.534,1.189,1.158,1.193l0.048-0.004c0.357-0.016,0.676-0.154,0.896-0.394
					c0.21-0.231,0.317-0.543,0.306-0.878c-0.033-0.659-0.505-1.122-1.154-1.122V210.774z M580.226,214.091
					c-0.066,0-0.136-0.005-0.203-0.016c-0.482,0.066-0.969-0.113-1.34-0.489c-0.355-0.36-0.57-0.867-0.563-1.328
					c0.015-1.002,0.856-1.825,1.879-1.827c0.475,0,0.975,0.233,1.346,0.625c0.346,0.363,0.531,0.819,0.512,1.251
					C581.802,213.29,581.073,214.091,580.226,214.091z M580.028,213.384l0.064,0.016c0.041,0.009,0.086,0.013,0.132,0.013
					c0.482,0,0.916-0.521,0.948-1.138c0.011-0.247-0.106-0.518-0.324-0.75c-0.239-0.253-0.565-0.408-0.848-0.408
					c-0.656,0-1.193,0.517-1.204,1.156c-0.006,0.279,0.141,0.608,0.368,0.838c0.136,0.139,0.358,0.301,0.649,0.301
					c0.05,0,0.098-0.003,0.147-0.011L580.028,213.384z M586.354,214.07c-1.077,0-1.83-0.715-1.837-1.739
					c-0.004-1.052,0.785-1.884,1.794-1.898h0.021c0.984,0,1.819,0.825,1.829,1.799c0.002,0.543-0.17,1.002-0.498,1.335
					C587.335,213.896,586.881,214.07,586.354,214.07z M586.331,210.774l-0.013,0.338c-0.631,0.01-1.125,0.541-1.12,1.21
					c0.001,0.66,0.443,1.068,1.147,1.068c0.351,0,0.637-0.105,0.83-0.302c0.199-0.203,0.307-0.495,0.301-0.85
					c-0.007-0.599-0.541-1.126-1.146-1.126V210.774L586.331,210.774z M567.148,213.125h-4.341h-4.354c-1.094,0-2.188,0-3.283,0
					c-0.504-0.004-0.965-0.188-1.297-0.524c-0.328-0.333-0.506-0.793-0.504-1.299c0.002-0.109-0.002-0.224-0.01-0.342
					c-0.025-0.557-0.058-1.251,0.645-1.71c0.344-0.223,0.752-0.451,1.164-0.454c2.693-0.015,5.525-0.021,8.914-0.021
					c2.182,0,4.361,0.006,6.541,0.006c0.99,0.003,1.74,0.734,1.781,1.741c0.006,0.215,0.004,0.423,0.002,0.625l-0.002,0.104
					c-0.013,1.15-0.742,1.866-1.9,1.868C569.385,213.125,568.268,213.125,567.148,213.125z M562.809,212.444l4.341,0.003
					c1.118,0,2.235-0.003,3.354-0.005c0.777,0,1.213-0.428,1.221-1.201l0.005-0.101c0-0.205,0.004-0.397-0.005-0.59
					c-0.024-0.652-0.469-1.089-1.104-1.09c-2.176,0-4.355-0.005-6.537-0.005c-3.389,0-6.221,0.006-8.91,0.021
					c-0.266,0-0.639,0.24-0.795,0.344c-0.358,0.235-0.362,0.556-0.334,1.106c0.004,0.131,0.01,0.259,0.01,0.386
					c-0.006,0.319,0.104,0.609,0.308,0.812c0.201,0.206,0.49,0.319,0.811,0.319c1.097,0,2.189,0.003,3.283,0.003L562.809,212.444z"
					/>
			</g>
			<g>
				<path fill="#C4C7C9" d="M562.816,212.55c-2.486,0-4.972,0-7.457,0c-0.937-0.002-1.418-0.474-1.412-1.396
					c0.002-0.333-0.023-0.683,0.084-0.98c0.197-0.537,0.643-0.821,1.223-0.821c5.09-0.002,10.18-0.004,15.271,0.004
					c0.78,0.002,1.282,0.541,1.305,1.334c0.035,1.108-0.228,1.609-0.969,1.811c-0.188,0.05-0.392,0.046-0.584,0.046
					C567.789,212.55,565.303,212.55,562.816,212.55z"/>
				<path fill="#C4C6C9" d="M565.529,212.891l-10.17-0.002c-0.566,0-1.009-0.156-1.312-0.463c-0.299-0.299-0.444-0.728-0.44-1.277
					c0.002-0.057,0-0.113,0-0.174c-0.004-0.289-0.006-0.617,0.104-0.917c0.244-0.663,0.805-1.041,1.543-1.041
					c5.09-0.007,10.18-0.008,15.271,0c0.955,0.003,1.614,0.671,1.646,1.664c0.027,0.894-0.096,1.847-1.221,2.149
					c-0.197,0.051-0.396,0.056-0.584,0.056h-0.09C568.693,212.889,567.111,212.891,565.529,212.891z M562.816,212.208h2.713
					c1.582,0,3.164,0,4.746,0h0.09c0.145,0,0.291-0.002,0.406-0.034c0.5-0.136,0.752-0.399,0.719-1.471
					c-0.021-0.629-0.381-1.004-0.967-1.004c-5.091-0.01-10.181-0.005-15.271-0.001c-0.312,0-0.725,0.104-0.906,0.594
					c-0.065,0.186-0.063,0.425-0.062,0.678c0,0.063,0.004,0.124,0,0.188c-0.002,0.356,0.084,0.624,0.248,0.792
					c0.17,0.173,0.446,0.258,0.826,0.258H562.816z"/>
			</g>
			<g>
				<path fill="#C4C7C9" d="M562.887,217.047c-2.506,0-5.01-0.023-7.514,0.012c-0.914,0.01-1.381-0.541-1.432-1.184
					c-0.101-1.239,0.36-1.644,1.323-1.787c0.078-0.013,0.16-0.002,0.236-0.002c4.932,0,9.863-0.001,14.795,0.002
					c0.836,0,1.416,0.396,1.519,1.065c0.112,0.74-0.066,1.603-0.787,1.801c-0.203,0.058-0.416,0.087-0.625,0.087
					C567.898,217.049,565.391,217.047,562.887,217.047z"/>
				<path fill="#C4C6C9" d="M555.344,217.398c-0.985,0-1.672-0.589-1.742-1.498c-0.104-1.323,0.375-1.963,1.613-2.148
					c0.076-0.01,0.152-0.01,0.229-0.006h0.059h7.894c2.301,0,4.602,0,6.901,0c1.019,0.004,1.729,0.521,1.854,1.358
					c0.137,0.902-0.131,1.929-1.033,2.178c-0.226,0.064-0.474,0.099-0.713,0.099c-1.459,0.004-2.914,0.004-4.371,0.004h-3.146
					c-0.711,0-1.426-0.001-2.137-0.004c-0.715,0-1.426-0.002-2.139-0.002c-1.263,0-2.289,0.005-3.232,0.02L555.344,217.398
					L555.344,217.398z M555.357,214.421c-0.015,0-0.025,0-0.041,0.002c-0.771,0.117-1.121,0.358-1.039,1.424
					c0.045,0.545,0.44,0.868,1.065,0.868h0.027c0.944-0.01,1.975-0.019,3.24-0.019c0.713,0,1.426,0.005,2.139,0.005
					c0.713,0.002,1.426,0.004,2.137,0.004h3.146c1.457,0,2.909,0,4.369-0.004c0.18,0,0.362-0.025,0.532-0.074
					c0.572-0.155,0.609-0.968,0.543-1.421c-0.104-0.703-0.86-0.779-1.182-0.779c-2.301-0.004-4.602-0.004-6.902-0.004l-7.893,0.004
					c-0.027,0-0.057-0.004-0.082-0.004L555.357,214.421z"/>
			</g>
			<g>
				<path fill="#3EB29D" d="M594.098,212.231c0.009,0.72-0.586,1.36-1.281,1.381c-0.624,0.021-1.312-0.646-1.328-1.276
					c-0.013-0.726,0.575-1.311,1.324-1.327C593.501,210.997,594.088,211.555,594.098,212.231z"/>
				<path fill="#3BB29C" d="M592.789,213.953c-0.811,0-1.625-0.797-1.64-1.614c-0.019-0.916,0.71-1.646,1.653-1.667h0.035
					c0.87,0,1.586,0.697,1.599,1.558c0.012,0.908-0.73,1.696-1.61,1.722L592.789,213.953z M592.839,211.349
					c-0.584,0.014-1.018,0.441-1.008,0.978c0.008,0.434,0.528,0.945,0.958,0.945h0.015c0.515-0.017,0.957-0.498,0.953-1.037
					C593.752,211.756,593.331,211.349,592.839,211.349z"/>
			</g>
			<g>
				<path fill="#9ECDC7" d="M581.188,212.311c0,0.742-0.443,1.187-1.195,1.184c-0.7-0.003-1.273-0.544-1.293-1.217
					c-0.018-0.597,0.633-1.242,1.274-1.265C580.595,210.987,581.185,211.62,581.188,212.311z"/>
				<path fill="#9ECDC6" d="M579.997,213.837h-0.006c-0.891-0.005-1.607-0.682-1.632-1.547c-0.021-0.786,0.77-1.587,1.604-1.617
					h0.047c0.79,0,1.517,0.78,1.52,1.639c0.001,0.456-0.146,0.839-0.413,1.109C580.844,213.694,580.456,213.837,579.997,213.837z
					 M580.01,211.352c-0.479,0.017-0.985,0.506-0.973,0.917c0.017,0.495,0.435,0.886,0.955,0.886l0.005,0.34v-0.34
					c0.281,0,0.492-0.073,0.636-0.214c0.142-0.142,0.214-0.356,0.211-0.63C580.844,211.825,580.431,211.352,580.01,211.352z"/>
			</g>
			<g>
				<path fill="#3DB29D" d="M586.344,213.495c-0.667,0.003-1.248-0.546-1.25-1.178c-0.002-0.68,0.574-1.294,1.23-1.304
					c0.583-0.014,1.272,0.641,1.253,1.23C587.548,212.951,587.055,213.527,586.344,213.495z"/>
				<path fill="#3BB19D" d="M586.395,213.837c-0.019,0-0.041,0-0.062-0.001h-0.003c-0.845,0-1.573-0.696-1.573-1.519
					c-0.004-0.864,0.727-1.632,1.563-1.645l0,0c0.399,0,0.816,0.196,1.143,0.534c0.304,0.313,0.469,0.697,0.453,1.048
					C587.882,213.155,587.229,213.837,586.395,213.837z M586.338,211.35c-0.48,0.011-0.904,0.469-0.904,0.967
					c0.001,0.447,0.424,0.838,0.907,0.838l0.054,0.003c0.528,0,0.825-0.468,0.84-0.929c0.008-0.17-0.09-0.372-0.265-0.552
					C586.778,211.479,586.529,211.35,586.338,211.35z"/>
			</g>
			<g>
				<path fill="#D8DDDF" d="M613.521,216.006c0,4.299,0,8.877,0,13.451c0,0.218-0.031,0.436,0.005,0.65
					c0.262,1.56-0.558,2.705-1.449,3.831c-1.817,2.291-4.213,3.617-7.05,4.161c-0.796,0.157-1.623,0.24-2.437,0.242
					c-17.78,0.01-35.565,0.02-53.352-0.002c-2.765-0.006-5.308-0.832-7.498-2.551c-1.349-1.054-2.387-2.38-3.172-3.898
					c-0.086-0.166-0.138-0.373-0.138-0.557c-0.008-5.107-0.006-10.214-0.006-15.321c0-0.047,0.021-0.096,0.054-0.222
					c0.694,1.717,1.713,3.129,3.049,4.285c1.498,1.292,3.203,2.247,5.19,2.522c1.213,0.166,2.449,0.24,3.679,0.24
					c16.36,0.018,32.724,0.02,49.087,0c2.384-0.002,4.681-0.558,6.857-1.543c1.776-0.809,3.383-1.867,4.802-3.221
					C611.944,217.314,612.808,216.625,613.521,216.006z M562.809,230.182c2.566,0,5.132,0.006,7.695,0
					c0.973,0,1.551-0.574,1.563-1.535c0-0.234,0.008-0.473-0.005-0.709c-0.032-0.819-0.61-1.415-1.438-1.417
					c-5.15-0.008-10.303-0.011-15.453,0.015c-0.328,0-0.686,0.208-0.979,0.399c-0.664,0.436-0.47,1.142-0.479,1.775
					c-0.01,0.855,0.611,1.473,1.459,1.473C557.717,230.187,560.26,230.182,562.809,230.182z M562.879,234.679
					c2.564,0,5.131,0.004,7.695-0.002c0.19,0,0.389-0.023,0.57-0.086c0.942-0.303,1.012-1.302,0.901-2.157
					c-0.092-0.693-0.779-1.18-1.588-1.18c-5.055-0.005-10.104-0.003-15.154-0.004c-0.563,0-1.078,0.175-1.34,0.663
					c-0.186,0.355-0.231,0.809-0.244,1.218c-0.035,1.03,0.5,1.548,1.521,1.548C557.787,234.683,560.336,234.679,562.879,234.679z
					 M592.841,228.174c-0.933,0-1.587,0.64-1.586,1.542c0.001,0.845,0.716,1.562,1.56,1.53c0.926-0.039,1.566-0.741,1.525-1.628
					C594.302,228.792,593.694,228.174,592.841,228.174z M580.023,231.131c0.73,0.153,1.443-0.547,1.489-1.439
					c0.039-0.768-0.768-1.517-1.514-1.517c-0.854,0.003-1.531,0.676-1.543,1.492C578.446,230.388,579.139,231.295,580.023,231.131z
					 M586.354,231.131c0.895-0.003,1.474-0.589,1.466-1.494c-0.006-0.791-0.706-1.474-1.503-1.462
					c-0.814,0.009-1.459,0.699-1.456,1.552C584.862,230.571,585.458,231.131,586.354,231.131z"/>
				<path fill="#D8DDDF" d="M573.564,238.693c-8.105,0-16.216-0.006-24.324-0.016c-2.896,0-5.492-0.883-7.709-2.621
					c-1.326-1.04-2.424-2.39-3.264-4.011c-0.111-0.217-0.175-0.476-0.175-0.712c-0.008-4.986-0.006-9.97-0.002-14.958v-0.363
					c0-0.074,0.015-0.135,0.027-0.193c0.01-0.029,0.016-0.063,0.029-0.104l0.237-1.049l0.408,0.998
					c0.674,1.654,1.643,3.014,2.957,4.154c1.619,1.399,3.258,2.2,5.012,2.44c1.146,0.16,2.369,0.242,3.636,0.242
					c16.36,0.014,32.724,0.018,49.085,0c2.253-0.006,4.514-0.515,6.721-1.517c1.773-0.809,3.357-1.868,4.709-3.154
					c0.564-0.539,1.148-1.033,1.717-1.507c0.232-0.197,0.458-0.387,0.67-0.569l0.563-0.486v14.191c0,0.072-0.004,0.146-0.011,0.221
					c-0.003,0.136-0.009,0.262,0.011,0.373c0.278,1.664-0.561,2.889-1.52,4.099c-1.794,2.261-4.23,3.707-7.252,4.286
					c-0.836,0.16-1.678,0.242-2.5,0.242C592.917,238.687,583.241,238.693,573.564,238.693z M538.77,217.195
					c0,4.714-0.004,9.426,0.003,14.138c0,0.133,0.038,0.28,0.104,0.401c0.789,1.535,1.826,2.808,3.076,3.784
					c2.096,1.643,4.549,2.478,7.291,2.479c17.783,0.024,35.567,0.018,53.35,0.004c0.779-0.004,1.577-0.079,2.371-0.232
					c2.856-0.553,5.158-1.911,6.849-4.044c0.894-1.127,1.613-2.171,1.382-3.563c-0.031-0.181-0.024-0.361-0.021-0.515
					c0.003-0.063,0.008-0.128,0.008-0.19v-12.714c-0.036,0.031-0.074,0.064-0.113,0.099c-0.557,0.468-1.134,0.952-1.687,1.479
					c-1.404,1.341-3.049,2.442-4.896,3.281c-2.293,1.042-4.648,1.572-6.998,1.575c-16.363,0.022-32.727,0.017-49.089,0
					c-1.295,0-2.552-0.081-3.726-0.245c-1.889-0.261-3.645-1.111-5.367-2.598C540.264,219.427,539.424,218.396,538.77,217.195z
					 M566.266,235.02h-3.387h-4.377h-3.26c-0.613,0-1.088-0.168-1.41-0.5c-0.32-0.329-0.473-0.797-0.453-1.399
					c0.01-0.375,0.055-0.922,0.285-1.366c0.293-0.553,0.859-0.845,1.635-0.845h7.824c2.447,0,4.889,0,7.336,0.003
					c1.006,0.001,1.812,0.622,1.924,1.479c0.221,1.712-0.496,2.319-1.135,2.526c-0.199,0.064-0.432,0.099-0.672,0.1
					C569.141,235.02,567.701,235.02,566.266,235.02z M562.879,234.341h3.387c1.437,0,2.875,0,4.31-0.004
					c0.17-0.001,0.328-0.022,0.465-0.066c0.211-0.069,0.863-0.279,0.67-1.796c-0.063-0.501-0.602-0.879-1.25-0.879
					c-2.447-0.007-4.889-0.007-7.336-0.007h-7.818c-0.52,0-0.868,0.162-1.038,0.482c-0.164,0.32-0.197,0.765-0.209,1.074
					c-0.011,0.404,0.077,0.708,0.262,0.904c0.19,0.191,0.5,0.293,0.924,0.293h5.447L562.879,234.341L562.879,234.341z
					 M592.752,231.583c-0.993,0-1.836-0.853-1.839-1.866c-0.002-1.085,0.809-1.881,1.928-1.883h0.004
					c1.021,0,1.789,0.743,1.835,1.77c0.021,0.517-0.148,1.005-0.482,1.367c-0.343,0.373-0.828,0.593-1.369,0.612
					C592.802,231.583,592.778,231.583,592.752,231.583z M592.845,228.174l-0.004,0.339c-0.748,0.002-1.248,0.487-1.247,1.204
					c0.002,0.646,0.534,1.191,1.158,1.191h0.048c0.357-0.018,0.676-0.158,0.896-0.395c0.21-0.232,0.317-0.543,0.306-0.878
					c-0.033-0.662-0.506-1.122-1.157-1.122V228.174z M580.226,231.491c-0.066,0-0.136-0.005-0.204-0.014
					c-0.066,0.009-0.137,0.013-0.204,0.013l0,0c-0.413,0-0.818-0.178-1.135-0.503c-0.355-0.361-0.57-0.87-0.563-1.327
					c0.015-1.003,0.856-1.824,1.879-1.826c0.473,0,0.975,0.233,1.346,0.624c0.346,0.363,0.531,0.822,0.512,1.25
					C581.802,230.693,581.073,231.491,580.226,231.491z M580.028,230.785l0.064,0.014c0.52,0.109,1.044-0.453,1.08-1.124
					c0.011-0.247-0.106-0.52-0.326-0.748c-0.237-0.254-0.563-0.414-0.848-0.414c-0.654,0.002-1.191,0.52-1.202,1.162
					c-0.006,0.275,0.141,0.606,0.368,0.836c0.136,0.136,0.358,0.299,0.65,0.299l0,0c0.049,0,0.097-0.004,0.146-0.013
					L580.028,230.785z M586.354,231.472c-1.077,0-1.83-0.717-1.837-1.741c-0.004-1.051,0.785-1.882,1.794-1.896h0.021
					c0.984,0,1.819,0.823,1.829,1.801c0.002,0.535-0.17,1-0.498,1.33C587.335,231.295,586.881,231.472,586.354,231.472z
					 M586.331,228.174l-0.013,0.339c-0.631,0.009-1.125,0.541-1.12,1.213c0.001,0.656,0.443,1.064,1.147,1.064
					c0.351,0,0.637-0.105,0.83-0.305c0.199-0.199,0.307-0.492,0.301-0.845c-0.007-0.603-0.538-1.127-1.146-1.127V228.174
					L586.331,228.174z M567.148,230.524l-4.341-0.001l-3.989,0.001c-1.218,0-2.433-0.001-3.648-0.001
					c-0.504,0-0.965-0.186-1.297-0.521c-0.328-0.333-0.506-0.793-0.504-1.299c0.002-0.11-0.002-0.228-0.01-0.341
					c-0.025-0.558-0.058-1.253,0.646-1.71c0.342-0.223,0.75-0.457,1.162-0.458c2.656-0.013,5.562-0.019,8.871-0.019
					c2.194,0,4.391,0.002,6.584,0.006c0.992,0.004,1.74,0.734,1.781,1.741c0.006,0.212,0.004,0.423,0.002,0.627l-0.002,0.102
					c-0.013,1.151-0.742,1.868-1.9,1.872C569.385,230.524,568.268,230.524,567.148,230.524z M562.809,229.846l4.341,0.001
					c1.118,0,2.235-0.001,3.354-0.003c0.777,0,1.213-0.428,1.221-1.203l0.005-0.101c0-0.204,0.004-0.397-0.005-0.591
					c-0.024-0.652-0.469-1.089-1.104-1.089c-2.191,0-4.385-0.004-6.58-0.004c-3.309,0-6.209,0.004-8.867,0.019
					c-0.266,0-0.639,0.244-0.795,0.344c-0.358,0.233-0.363,0.559-0.334,1.107c0.004,0.131,0.01,0.259,0.01,0.385
					c-0.006,0.32,0.104,0.611,0.308,0.814c0.201,0.205,0.49,0.318,0.811,0.318c1.217,0.002,2.433,0.002,3.648,0.002h3.988V229.846z"
					/>
			</g>
			<g>
				<path fill="#C4C7C9" d="M562.816,229.95c-2.486,0-4.972,0-7.457,0c-0.937-0.003-1.418-0.472-1.412-1.396
					c0.002-0.33-0.023-0.682,0.084-0.978c0.197-0.54,0.643-0.822,1.223-0.822c5.09,0,10.18-0.005,15.271,0.004
					c0.78,0.002,1.282,0.541,1.305,1.335c0.035,1.107-0.228,1.61-0.969,1.81c-0.188,0.049-0.392,0.043-0.584,0.044
					C567.789,229.95,565.303,229.95,562.816,229.95z"/>
				<path fill="#C4C6C9" d="M557.846,230.291l-2.485-0.003c-0.566,0-1.005-0.155-1.312-0.461c-0.299-0.299-0.445-0.728-0.44-1.275
					c0.002-0.058,0-0.115,0-0.176c-0.005-0.29-0.007-0.617,0.104-0.917c0.244-0.662,0.805-1.042,1.543-1.042
					c5.09-0.005,10.181-0.008,15.271,0c0.955,0.004,1.614,0.672,1.646,1.661c0.027,0.895-0.096,1.851-1.221,2.152
					c-0.197,0.051-0.394,0.057-0.588,0.057h-0.074c-1.461,0.001-2.912,0.004-4.363,0.004l-5.594-0.003L557.846,230.291z
					 M563.23,227.091c-2.66,0-5.316,0.004-7.978,0.006c-0.312,0-0.725,0.104-0.906,0.596c-0.065,0.186-0.063,0.423-0.062,0.681
					c0,0.059,0.004,0.12,0,0.184c-0.002,0.36,0.084,0.624,0.248,0.792c0.17,0.174,0.446,0.259,0.826,0.259h2.485h6.523h1.555
					c1.451,0,2.902,0,4.353,0h0.086c0.155,0,0.295-0.003,0.407-0.035c0.502-0.138,0.755-0.397,0.722-1.471
					c-0.021-0.628-0.381-1.004-0.967-1.004C568.094,227.095,565.66,227.091,563.23,227.091z"/>
			</g>
			<g>
				<path fill="#C4C7C9" d="M562.887,234.445c-2.506,0-5.01-0.022-7.514,0.014c-0.914,0.01-1.381-0.539-1.432-1.183
					c-0.101-1.24,0.36-1.644,1.323-1.785c0.078-0.013,0.16-0.004,0.236-0.004c4.932,0,9.863-0.003,14.795,0.003
					c0.836,0,1.416,0.393,1.519,1.064c0.112,0.742-0.066,1.601-0.787,1.804c-0.203,0.057-0.416,0.082-0.625,0.084
					C567.898,234.448,565.391,234.445,562.887,234.445z"/>
				<path fill="#C4C6C9" d="M555.344,234.796c-0.985,0-1.672-0.586-1.742-1.493c-0.104-1.327,0.375-1.968,1.613-2.152
					c0.072-0.008,0.152-0.008,0.229-0.006h0.059h6.83c2.654,0,5.309,0,7.965,0.003c1.019,0,1.729,0.519,1.854,1.356
					c0.137,0.904-0.131,1.929-1.033,2.179c-0.225,0.063-0.473,0.099-0.713,0.099c-1.459,0.003-2.914,0.003-4.371,0.003h-3.146
					c-0.711,0-1.424-0.003-2.135-0.003c-0.709,0-1.424-0.001-2.133-0.001c-1.266,0-2.297,0.004-3.24,0.016L555.344,234.796
					L555.344,234.796z M555.357,231.823c-0.015,0-0.025,0-0.041,0.002c-0.771,0.114-1.121,0.357-1.039,1.423
					c0.045,0.544,0.44,0.871,1.065,0.871l0.027-0.004c0.944-0.011,1.979-0.019,3.248-0.019c0.709,0,1.424,0.003,2.135,0.007
					c0.711,0,1.424,0.001,2.133,0.001l3.146,0.005c1.457,0,2.909-0.005,4.369-0.006c0.18,0,0.362-0.027,0.532-0.074
					c0.572-0.161,0.609-0.971,0.543-1.424c-0.104-0.701-0.86-0.777-1.182-0.777c-2.656-0.001-5.311-0.001-7.965-0.001h-6.83
					c-0.027,0-0.057,0-0.084-0.002L555.357,231.823z"/>
			</g>
			<g>
				<path fill="#3EB29D" d="M594.098,229.633c0.009,0.721-0.586,1.357-1.281,1.382c-0.624,0.017-1.312-0.65-1.328-1.28
					c-0.013-0.725,0.575-1.308,1.324-1.324C593.501,228.394,594.088,228.954,594.098,229.633z"/>
				<path fill="#3BB29C" d="M592.789,231.354c-0.811,0-1.625-0.799-1.64-1.613c-0.019-0.916,0.71-1.648,1.653-1.67h0.035
					c0.87,0,1.586,0.697,1.599,1.561c0.012,0.904-0.73,1.693-1.61,1.723L592.789,231.354L592.789,231.354z M592.839,228.749
					c-0.584,0.016-1.018,0.445-1.008,0.978c0.008,0.431,0.528,0.945,0.958,0.945h0.015c0.515-0.017,0.957-0.502,0.953-1.035
					C593.752,229.155,593.331,228.749,592.839,228.749z"/>
			</g>
			<g>
				<path fill="#9ECDC7" d="M581.188,229.709c0,0.748-0.443,1.189-1.195,1.187c-0.7-0.002-1.273-0.542-1.293-1.218
					c-0.018-0.597,0.633-1.242,1.274-1.265C580.595,228.387,581.185,229.018,581.188,229.709z"/>
				<path fill="#9ECDC6" d="M579.997,231.235h-0.006c-0.891-0.002-1.607-0.681-1.632-1.546c-0.021-0.784,0.77-1.584,1.604-1.62
					h0.047c0.79,0,1.517,0.78,1.52,1.639c0.001,0.458-0.146,0.843-0.413,1.112C580.844,231.093,580.456,231.235,579.997,231.235z
					 M580.01,228.749c-0.479,0.019-0.985,0.509-0.973,0.919c0.017,0.497,0.435,0.886,0.955,0.887l0.005,0.341v-0.341
					c0.281,0,0.492-0.073,0.636-0.214c0.144-0.143,0.214-0.355,0.211-0.632C580.844,229.225,580.428,228.749,580.01,228.749z"/>
			</g>
			<g>
				<path fill="#3DB29D" d="M586.344,230.896c-0.667,0.002-1.248-0.547-1.25-1.179c-0.002-0.682,0.574-1.297,1.23-1.304
					c0.583-0.015,1.272,0.641,1.253,1.228C587.548,230.354,587.055,230.925,586.344,230.896z"/>
				<path fill="#3BB19D" d="M586.395,231.235c-0.019,0-0.041,0-0.062-0.002h-0.003c-0.845,0-1.573-0.692-1.573-1.517
					c-0.004-0.86,0.727-1.631,1.563-1.647l0,0c0.399,0,0.818,0.202,1.143,0.538c0.304,0.311,0.469,0.695,0.453,1.046
					C587.882,230.555,587.229,231.235,586.395,231.235z M586.338,228.749c-0.48,0.011-0.904,0.47-0.904,0.966
					c0.001,0.448,0.424,0.84,0.907,0.84h0.054c0.528,0,0.825-0.468,0.84-0.926c0.008-0.168-0.09-0.372-0.265-0.555
					C586.778,228.877,586.529,228.749,586.338,228.749z"/>
			</g>
			<g>
				<path fill="#E9E9EA" d="M538.426,197.56c0.59,0.757,1.15,1.458,1.695,2.176c0.865,1.139,2.016,1.933,3.246,2.6
					c1.488,0.806,3.088,1.313,4.815,1.331c1.117,0.017,2.234,0.108,3.353,0.108c17.014,0.006,34.025,0.011,51.04,0
					c2.364-0.004,4.625-0.521,6.653-1.779c1.244-0.767,2.365-1.71,3.22-2.93c0.341-0.484,0.678-0.969,1.07-1.531
					c0,0.731,0.121,1.41-0.036,2.009c-0.14,0.532-0.545,1.02-0.92,1.449c-1.425,1.623-3.15,2.825-5.213,3.504
					c-1.145,0.375-2.32,0.592-3.54,0.592c-18.713-0.012-37.42,0.012-56.131-0.027c-2.526-0.007-4.812-0.946-6.729-2.625
					c-0.74-0.651-1.357-1.436-2.054-2.143c-0.389-0.393-0.521-0.837-0.479-1.376C538.455,198.477,538.426,198.03,538.426,197.56z"/>
				<path fill="#E9E9EA" d="M603.812,205.432h-0.003c-4.056-0.004-8.112-0.004-12.17-0.004h-12.082
					c-11.879,0-21.848-0.005-31.881-0.027c-2.528-0.006-4.936-0.941-6.95-2.709c-0.478-0.416-0.9-0.887-1.313-1.341
					c-0.244-0.271-0.502-0.554-0.76-0.817c-0.439-0.445-0.627-0.984-0.576-1.642c0.025-0.288,0.021-0.581,0.014-0.893
					c0-0.143-0.004-0.291-0.004-0.438v-0.992l0.609,0.781c0.188,0.24,0.369,0.473,0.549,0.703c0.393,0.503,0.771,0.985,1.145,1.476
					c0.722,0.952,1.688,1.725,3.14,2.507c1.569,0.852,3.092,1.277,4.66,1.292c0.524,0.008,1.053,0.031,1.565,0.053
					c0.588,0.027,1.188,0.056,1.779,0.056c17.014,0.009,34.025,0.009,51.04,0c2.447-0.003,4.626-0.586,6.476-1.724
					c1.345-0.833,2.364-1.764,3.119-2.842l1.69-2.419v1.083c0,0.219,0.011,0.438,0.021,0.649c0.026,0.506,0.054,0.982-0.072,1.449
					c-0.156,0.597-0.574,1.109-0.99,1.584c-1.506,1.718-3.308,2.929-5.361,3.602C606.2,205.229,605.011,205.432,603.812,205.432z
					 M591.641,204.748c4.058,0,8.114,0,12.17,0.001l0.004,0.34v-0.34c1.121,0,2.243-0.189,3.429-0.578
					c1.937-0.633,3.641-1.78,5.064-3.4c0.362-0.417,0.729-0.858,0.85-1.314c0.065-0.269,0.075-0.575,0.062-0.896l-0.489,0.701
					c-0.812,1.155-1.896,2.15-3.319,3.028c-1.958,1.208-4.256,1.824-6.834,1.827c-17.014,0.01-34.026,0.004-51.04,0
					c-0.605,0-1.219-0.029-1.807-0.057c-0.513-0.024-1.037-0.047-1.55-0.053c-1.676-0.019-3.303-0.468-4.975-1.372
					c-0.955-0.517-2.344-1.359-3.354-2.692c-0.349-0.46-0.705-0.917-1.072-1.382c-0.004,0.125-0.008,0.255-0.019,0.388
					c-0.037,0.46,0.078,0.804,0.379,1.108c0.269,0.274,0.531,0.563,0.781,0.839c0.398,0.44,0.812,0.896,1.254,1.285
					c1.92,1.681,4.109,2.538,6.506,2.543c10.031,0.022,20,0.025,31.88,0.025L591.641,204.748L591.641,204.748z"/>
			</g>
			<g>
				<path fill="#E9E9EA" d="M538.426,214.974c0.59,0.754,1.15,1.457,1.695,2.169c0.865,1.136,2.016,1.933,3.246,2.599
					c1.488,0.806,3.088,1.312,4.815,1.331c1.117,0.014,2.234,0.108,3.353,0.11c17.014,0.007,34.025,0.007,51.04-0.002
					c2.364,0,4.625-0.522,6.653-1.775c1.244-0.769,2.365-1.715,3.22-2.931c0.341-0.483,0.678-0.964,1.07-1.526
					c0,0.729,0.121,1.406-0.036,2.005c-0.14,0.529-0.545,1.017-0.92,1.447c-1.425,1.62-3.15,2.825-5.213,3.5
					c-1.145,0.376-2.32,0.595-3.54,0.593c-18.713-0.006-37.42,0.014-56.131-0.025c-2.526-0.007-4.812-0.951-6.729-2.625
					c-0.74-0.65-1.357-1.436-2.054-2.142c-0.389-0.392-0.521-0.834-0.479-1.373C538.455,215.89,538.426,215.44,538.426,214.974z"/>
				<path fill="#E9E9EA" d="M603.812,222.835h-0.003c-3.893-0.002-7.793-0.002-11.687-0.002h-12.936
					c-11.69,0-21.524-0.004-31.512-0.025c-2.529-0.006-4.936-0.945-6.951-2.711c-0.477-0.417-0.899-0.887-1.312-1.343
					c-0.244-0.272-0.502-0.552-0.76-0.815c-0.439-0.445-0.627-0.982-0.576-1.642c0.024-0.283,0.021-0.576,0.014-0.885
					c0-0.144-0.004-0.291-0.004-0.438v-0.988l0.609,0.779c0.178,0.228,0.354,0.455,0.528,0.675c0.406,0.513,0.787,1,1.164,1.495
					c0.722,0.949,1.688,1.722,3.14,2.506c1.569,0.852,3.092,1.274,4.659,1.292c0.525,0.006,1.06,0.029,1.574,0.053
					c0.582,0.029,1.187,0.057,1.771,0.057c17.014,0.005,34.025,0.008,51.04,0c2.445-0.002,4.625-0.582,6.476-1.728
					c1.345-0.831,2.364-1.756,3.119-2.836l1.689-2.407v1.077c0,0.219,0.012,0.437,0.021,0.646c0.026,0.505,0.054,0.98-0.072,1.445
					c-0.157,0.595-0.593,1.127-0.991,1.581c-1.505,1.72-3.312,2.931-5.36,3.603C606.206,222.634,605.014,222.835,603.812,222.835z
					 M592.124,222.154c3.894,0,7.794,0,11.687,0.002l0.004,0.338v-0.338c1.127,0,2.246-0.189,3.429-0.577
					c1.937-0.636,3.641-1.78,5.064-3.406c0.347-0.394,0.726-0.856,0.85-1.31c0.065-0.27,0.075-0.57,0.062-0.896l-0.489,0.699
					c-0.809,1.155-1.896,2.146-3.319,3.024c-1.958,1.213-4.259,1.823-6.834,1.825c-17.014,0.014-34.026,0.009-51.04,0
					c-0.602,0-1.213-0.023-1.803-0.053c-0.51-0.021-1.039-0.047-1.553-0.053c-1.679-0.02-3.308-0.467-4.976-1.371
					c-0.955-0.519-2.34-1.364-3.354-2.692c-0.349-0.46-0.701-0.908-1.072-1.38c-0.004,0.127-0.008,0.258-0.019,0.385
					c-0.036,0.463,0.078,0.804,0.38,1.109c0.268,0.273,0.53,0.559,0.78,0.835c0.398,0.443,0.812,0.898,1.254,1.289
					c1.921,1.679,4.109,2.534,6.507,2.54c9.985,0.023,19.817,0.027,31.51,0.027h12.933V222.154z"/>
			</g>
		</g>
	</g>
	<g>
		<g>
			<g>
				<path fill="#4D7F99" d="M529.809,294.068c-23.354-5.996-46.03-11.208-68.33-17.637c-22.418-6.469-43.58-16.174-61.426-30.881
					c-38.206,31.007-83.602,38.772-129.51,47.398c-0.427,1.77-0.932,3.544-1.146,5.354c-3.217,25.312-3.173,50.709,1.441,75.816
					c14.597,79.51,56.65,139.374,125.525,179.557c1.91,1.121,5.459,1.001,7.45-0.131c23.184-12.716,43.713-29.01,61.6-48.662
					c39.428-43.364,61.729-94.621,66.51-153.533C533.484,331.814,533.236,312.183,529.809,294.068z"/>
			</g>
			<path fill="#C9CCCD" d="M544.121,285.03c-0.42-3.322-2.068-4.186-4.943-4.807c-20.481-4.449-41.125-8.366-61.342-13.903
				c-27.92-7.701-54.769-18.278-78.068-37.694c-14.983,14.155-32.814,22.983-51.585,30.088
				c-28.137,10.643-57.218,17.287-86.843,21.577c-2.845,0.393-4.974,0.846-5.465,4.774c-3.229,25.559-3.513,51.086-0.051,76.639
				c4.939,36.814,16.474,71.295,34.848,103.354c25.752,44.899,61.128,79.793,105.651,105.176c2.777,1.579,4.81,1.474,7.458-0.036
				c40.699-23.145,74.02-54.39,99.114-94.401C539.5,417.425,552.748,353.665,544.121,285.03z M527.838,358.507
				c-5.69,44.271-21.463,84.429-47.104,120.541c-20.8,29.232-46.582,53.003-76.922,71.633c-2.716,1.64-4.615,1.839-7.4,0.063
				c-66.186-41.678-107.157-101.187-122.182-179.06c-4.456-23.159-5.264-46.53-3.483-70.024c0.284-3.856,1.127-5.852,5.651-6.653
				c34.016-5.967,67.459-14.322,98.729-29.803c8.66-4.278,16.864-9.521,25.522-14.457c37.734,24.508,80.604,35.805,124.384,44.358
				c2.613,0.503,3.578,1.349,3.875,4.031C530.939,318.957,530.361,338.756,527.838,358.507z"/>
		</g>
		<g>
			<path fill="#DDE1E1" d="M441.455,348.074c-0.828-7.549,0.432-15.16-0.799-22.717c-3.035-18.675-16.472-31.592-35.138-32.888
				c-16.889-1.174-31.824,2.713-41.351,18.742c-3.892,6.542-5.285,13.75-5.364,21.237c-0.124,11.676,0.131,23.349-0.124,35.017
				c-0.098,4.345,1.137,5.713,5.527,5.693c31.8-0.183,63.608-0.111,95.403-0.083c6.858,0.008,8.653,1.684,9.039,8.02
				c-1.73,1.688-3.933,1.77-6.113,1.77c-20.465-0.003-40.936,0.218-61.404-0.087c-21.21,0.29-42.425,0.092-63.64,0.092
				c-2.168,0-4.384-0.031-6.123-1.727c0.351-6.163,2.161-7.872,8.463-8.013c7.729-0.18,7.734-0.18,7.737-8.051
				c0.002-11.472-0.067-22.94,0.024-34.409c0.22-28.356,21.194-49.254,49.119-49.792c14.055-0.274,26.99,2.089,38.242,11.29
				c4.312,3.528,7.313,8.13,10.771,12.371c7.813,13.648,7.199,28.595,6.464,43.56C448.609,349.968,445.035,349.9,441.455,348.074z"
				/>
			<path fill="#DDE1E1" d="M358.559,348.074c0.833-7.549-0.427-15.16,0.804-22.717c3.03-18.675,16.472-31.592,35.129-32.888
				c16.891-1.174,31.828,2.713,41.362,18.742c3.884,6.542,5.283,13.75,5.361,21.237c0.123,11.676-0.135,23.349,0.123,35.017
				c0.098,4.345-1.141,5.713-5.525,5.693c-31.808-0.183-63.607-0.111-95.407-0.083c-6.861,0.008-8.653,1.684-9.034,8.02
				c1.725,1.688,3.929,1.77,6.104,1.77c20.472-0.003,40.938,0.218,61.412-0.087c21.206,0.29,42.426,0.092,63.636,0.092
				c2.172,0,4.387-0.031,6.129-1.727c-0.354-6.163-2.166-7.872-8.466-8.013c-7.729-0.18-7.733-0.18-7.733-8.051
				c-0.002-11.472,0.063-22.94-0.027-34.409c-0.223-28.356-21.197-49.254-49.125-49.792c-14.057-0.274-26.987,2.089-38.238,11.29
				c-4.312,3.528-7.314,8.13-10.771,12.371c-7.817,13.648-7.194,28.595-6.466,43.56C351.408,349.968,354.984,349.9,358.559,348.074z
				"/>
			<path fill="#F3D766" d="M331.386,456.354c0-16.959,0-33.916,0-50.869c1.924-1.797,4.343-1.64,6.672-1.647
				c18.785-0.053,37.569-0.045,56.355,0c2.16,0,4.354-0.013,6.308,1.19c2.929,3.944,2.593,7.895-0.021,11.834
				c-0.281,0.215-0.577,0.42-0.885,0.594c-2.322,1.305-6.444,0.046-6.698,4.207c-0.266,4.42-1.746,9.26,2.26,12.915
				c2.045,1.861,2.852,4.168,2.838,6.843c-0.021,4.939,0.312,9.87,0.078,14.824c-0.283,0.66-0.747,1.134-1.394,1.432
				c-1.896,0.801-3.898,0.801-5.885,0.801c-17.542,0.036-35.084,0.054-52.632-0.016
				C335.894,458.453,333.237,458.719,331.386,456.354z"/>
			<path fill="#FFFFFF" d="M401.008,405.589c-23.206-0.037-46.412-0.075-69.622-0.104c-0.004-8.116-0.011-16.229-0.016-24.34
				c23.222-0.008,46.447-0.014,69.669-0.015c3.068,7.812,1.946,15.761,0.705,23.708
				C401.502,405.087,401.254,405.339,401.008,405.589z"/>
			<path fill="#FFFFFF" d="M331.386,456.354c22.126-0.058,44.25-0.118,66.372-0.171c1.474-0.656,2.784-0.479,3.883,0.783
				c1.61,7.134,2.274,14.242-0.477,21.275c-1.898,1.35-4.095,1.35-6.261,1.354c-18.079,0.063-36.167,0.023-54.248,0.039
				c-2.585,0-5.035-0.44-7.305-1.737C329.22,471.047,331.831,463.556,331.386,456.354z"/>
			<path fill="#DCE0E1" d="M333.351,477.897c22.562-0.022,45.122-0.046,67.682-0.067c2.095-1.852,4.671-1.77,7.188-1.782
				c17.156-0.032,34.312-0.045,51.455,0.022c2.486,0.008,5.121-0.274,7.133,1.812c-2.479,5.158-6.893,6.621-12.102,6.621
				c-37.854-0.021-75.693-0.03-113.54-0.046C338.147,482.776,334.879,481.421,333.351,477.897z"/>
			<path fill="#DDC55B" d="M400.616,456.73c-0.952-0.185-1.901-0.365-2.854-0.543c-0.005-0.006,0.104-0.327,0.104-0.327
				c2.707-2.126,4.133-4.694,3.939-8.42c-0.273-5.259-0.642-10.454,4.222-14.631c2.468-2.116,0.911-6.318,1.123-9.578
				c0.287-4.436-3.018-4.81-5.967-5.647c-0.529-0.153-0.885-0.601-1.208-1.045c2.008-3.496,0.811-7.291,1.033-10.95l-0.062-0.327
				c2.06-1.455,4.428-1.447,6.784-1.447c18.086-0.03,36.168-0.046,54.252,0.01c2.336,0.013,4.743-0.104,6.69,1.63
				c0.398,17.038,0.519,34.062-0.063,51.102c-1.998,2.059-4.593,1.928-7.105,1.944c-17.885,0.045-35.77,0.036-53.658,0.013
				C405.291,458.506,402.772,458.384,400.616,456.73z"/>
			<path fill="#C9CCCD" d="M468.672,405.453c-22.576-0.062-45.147-0.13-67.727-0.191c0.03-8.053,0.062-16.089,0.094-24.133
				c22.543-0.015,45.076-0.023,67.611-0.033C468.658,389.214,468.67,397.338,468.672,405.453z"/>
			<path fill="#CACDCF" d="M400.616,456.73c22.662-0.062,45.332-0.122,67.992-0.177c-0.361,7.134,2.051,14.5-1.8,21.329
				c-21.926-0.017-43.855-0.038-65.775-0.054C400.829,470.796,401.596,463.741,400.616,456.73z"/>
			<path fill="#3C3C3C" d="M399.975,416.539c1.617,0.047,3.237,0.205,4.846,0.137c3.002-0.128,4.27,1.275,4.192,4.284
				c-0.079,3.308,0.033,6.614,0.007,9.922c-0.007,1.257,0.271,3.102-1.021,3.468c-6.021,1.753-4.316,6.651-4.479,10.79
				c-0.074,1.836-0.195,3.695,0.024,5.512c0.546,4.608-1.599,5.958-5.683,5.21c-2.756-4.595-0.916-9.632-1.327-14.455
				c-0.229-2.745,0.369-5.585-3.46-6.355c-1.908-0.388-2.076-2.286-2.042-4.031c0.038-1.658,0.006-3.312,0.006-4.961
				C391.033,417.013,391.033,417.013,399.975,416.539z"/>
		</g>
	</g>
	<g>
		<path fill="#E9F2E3" d="M281.233,199.902c0,31.658-25.663,57.322-57.322,57.322c-31.672,0-57.348-25.664-57.348-57.322
			c0-31.673,25.676-57.35,57.348-57.35C255.57,142.553,281.233,168.229,281.233,199.902z"/>
		<g>
			<g opacity="0.8">
				<g>
					<path fill="#5BAE34" d="M204.844,169.348c-0.033,2.451-1.308,4.074-2.088,4.837l0.555,0.508c0,0,2.632-1.811,2.678-5.345
						c0.049-3.649-3.077-4.994-3.077-4.994l-0.391,0.448C203.443,165.454,204.878,166.866,204.844,169.348z"/>
					<path fill="#5BAE34" d="M209.305,169.046c0.017,4.203-2.622,6.695-4.001,7.71l0.538,0.534c0,0,4.837-2.784,4.815-8.473
						c-0.019-5.381-5.105-7.576-5.105-7.576l-0.447,0.535C206.566,162.754,209.29,165.106,209.305,169.046z"/>
				</g>
				<g>
					<path fill="#5BAE34" d="M191.963,169.348c0.031,2.451,1.306,4.074,2.085,4.837l-0.554,0.508c0,0-2.63-1.811-2.678-5.345
						c-0.048-3.649,3.079-4.994,3.079-4.994l0.388,0.448C193.362,165.454,191.929,166.866,191.963,169.348z"/>
					<path fill="#5BAE34" d="M187.498,169.046c-0.015,4.203,2.625,6.695,4.002,7.71l-0.537,0.534c0,0-4.839-2.784-4.816-8.473
						c0.021-5.381,5.104-7.576,5.104-7.576l0.45,0.535C190.239,162.754,187.513,165.106,187.498,169.046z"/>
				</g>
			</g>
			<path fill="#5E5E5E" d="M194.669,211.122c0.253-0.763,0-25.655,0-25.655s2.284-2.286,2.284-7.366
				c0-5.084,0.255-10.418,0.255-10.418s-0.156-1.758,1.066-1.758c1.522,0,1.33,1.81,1.33,1.81l0.199,10.49
				c0,0,0.181,5.52,1.846,7.396c0.055,1.862-0.105,25.347,0,25.24C201.757,210.751,194.669,211.122,194.669,211.122z"/>
			<path fill="#5E5E5E" d="M190.647,210.481v14.652c0,0,0.36,3.616,4.701,3.616c4.342,0,62.388,0,62.388,0s5.786,1.085,5.786-3.796
				s0-14.471,0-14.471L190.647,210.481L190.647,210.481z"/>
			<rect x="195.349" y="228.749" fill="#5E5E5E" width="5.247" height="2.35"/>
			<rect x="253.217" y="228.749" fill="#5E5E5E" width="5.243" height="2.35"/>
			<rect x="222.5" y="218.62" fill="#5BAE34" width="3.798" height="3.803"/>
			<rect x="228.629" y="218.62" fill="#FFFFFF" width="3.797" height="3.803"/>
			<rect x="235.502" y="218.62" fill="#5BAE34" width="3.796" height="3.803"/>
			<rect x="242.371" y="218.62" fill="#FFFFFF" width="3.796" height="3.803"/>
			<path fill="#5E5E5E" d="M191.321,210.946h71.783c0,0-0.299,1.089-6.632,1.089c-6.337,0-62.973,0-62.973,0
				S191.618,211.938,191.321,210.946z"/>
			<path fill="#5E5E5E" d="M191.223,224.614c0,0,0,2.77,5.249,2.77c5.842,0,61.881,0,61.881,0s3.958,0.396,4.554-2.77
				c0.451-2.407,1.385,3.365-4.554,3.365c-3.959,0-62.674-0.099-62.674-0.099S191.618,227.78,191.223,224.614z"/>
		</g>
	</g>
</g>
</svg>
