<?xml version="1.0" encoding="utf-8"?>
<!-- Generator: Adobe Illustrator 16.0.0, SVG Export Plug-In . SVG Version: 6.00 Build 0)  -->
<!DOCTYPE svg PUBLIC "-//W3C//DTD SVG 1.1//EN" "http://www.w3.org/Graphics/SVG/1.1/DTD/svg11.dtd">
<svg version="1.1" id="Capa_1" xmlns="http://www.w3.org/2000/svg" xmlns:xlink="http://www.w3.org/1999/xlink" x="0px" y="0px"
	 width="197.641px" height="248px" viewBox="51.179 26.26 197.641 248" enable-background="new 51.179 26.26 197.641 248"
	 xml:space="preserve">
<g>
	<path fill="#5BB033" stroke="#000000" stroke-width="0.75" stroke-miterlimit="10" d="M117.714,186.729l-0.021,0.674
		 M170.396,111.019c0-0.806-0.652-1.457-1.437-1.457h-6.199l-4.434-12.176c1.805-2.045,2.914-4.696,2.914-7.609
		c0-5.501-3.895-10.111-9.068-11.219v-6.632c0-1.326-1.062-2.393-2.392-2.393c-1.325,0-2.391,1.065-2.391,2.393v6.632
		c-5.176,1.107-9.065,5.718-9.065,11.219c0,2.913,1.106,5.564,2.911,7.609l-4.436,12.176h-5.783c-0.783,0-1.414,0.65-1.414,1.457
		c0,0.783,0.631,1.436,1.414,1.436h4.74l-5.654,15.481c-0.326,0.892-0.086,1.848,0.566,2.478l-0.74,1.85
		c-0.195,0.498,0.043,1.042,0.523,1.237c0.129,0.044,0.235,0.087,0.368,0.087c0.369,0,0.718-0.237,0.867-0.606l0.742-1.826
		c0.955-0.045,1.826-0.654,2.174-1.589l6.238-17.133h7.502v2.631c0,0.805,0.631,1.436,1.436,1.436c0.782,0,1.437-0.631,1.437-1.436
		v-2.631h7.504l6.238,17.133c0.324,0.935,1.217,1.544,2.174,1.589l0.738,1.826c0.131,0.369,0.5,0.606,0.868,0.606
		c0.132,0,0.238-0.042,0.349-0.087c0.502-0.195,0.738-0.738,0.545-1.237l-0.738-1.85c0.631-0.63,0.871-1.586,0.545-2.478
		l-5.631-15.481h5.15C169.743,112.455,170.396,111.802,170.396,111.019z M149.784,83.102c3.676,0,6.676,2.979,6.676,6.676
		c0,3.673-3,6.676-6.676,6.676c-3.697,0-6.677-3.003-6.677-6.676C143.108,86.081,146.087,83.102,149.784,83.102z M151.221,109.563
		v-2.609c0-0.803-0.652-1.434-1.437-1.434c-0.806,0-1.437,0.631-1.437,1.434v2.609h-6.457l3.348-9.263
		c1.414,0.587,2.937,0.936,4.546,0.936c1.607,0,3.133-0.348,4.521-0.936l3.368,9.263H151.221z M170.396,111.019
		c0-0.806-0.652-1.457-1.437-1.457h-6.199l-4.434-12.176c1.805-2.045,2.914-4.696,2.914-7.609c0-5.501-3.895-10.111-9.068-11.219
		v-6.632c0-1.326-1.062-2.393-2.392-2.393c-1.325,0-2.391,1.065-2.391,2.393v6.632c-5.176,1.107-9.065,5.718-9.065,11.219
		c0,2.913,1.106,5.564,2.911,7.609l-4.436,12.176h-5.783c-0.783,0-1.414,0.65-1.414,1.457c0,0.783,0.631,1.436,1.414,1.436h4.74
		l-5.654,15.481c-0.326,0.892-0.086,1.848,0.566,2.478l-0.74,1.85c-0.195,0.498,0.043,1.042,0.523,1.237
		c0.129,0.044,0.235,0.087,0.368,0.087c0.369,0,0.718-0.237,0.867-0.606l0.742-1.826c0.955-0.045,1.826-0.654,2.174-1.589
		l6.238-17.133h7.502v2.631c0,0.805,0.631,1.436,1.436,1.436c0.782,0,1.437-0.631,1.437-1.436v-2.631h7.504l6.238,17.133
		c0.324,0.935,1.217,1.544,2.174,1.589l0.738,1.826c0.131,0.369,0.5,0.606,0.868,0.606c0.132,0,0.238-0.042,0.349-0.087
		c0.502-0.195,0.738-0.738,0.545-1.237l-0.738-1.85c0.631-0.63,0.871-1.586,0.545-2.478l-5.631-15.481h5.15
		C169.743,112.455,170.396,111.802,170.396,111.019z M149.784,83.102c3.676,0,6.676,2.979,6.676,6.676c0,3.673-3,6.676-6.676,6.676
		c-3.697,0-6.677-3.003-6.677-6.676C143.108,86.081,146.087,83.102,149.784,83.102z M151.221,109.563v-2.609
		c0-0.803-0.652-1.434-1.437-1.434c-0.806,0-1.437,0.631-1.437,1.434v2.609h-6.457l3.348-9.263c1.414,0.587,2.937,0.936,4.546,0.936
		c1.607,0,3.133-0.348,4.521-0.936l3.368,9.263H151.221z M170.396,111.019c0-0.806-0.652-1.457-1.437-1.457h-6.199l-4.434-12.176
		c1.805-2.045,2.914-4.696,2.914-7.609c0-5.501-3.895-10.111-9.068-11.219v-6.632c0-1.326-1.062-2.393-2.392-2.393
		c-1.325,0-2.391,1.065-2.391,2.393v6.632c-5.176,1.107-9.065,5.718-9.065,11.219c0,2.913,1.106,5.564,2.911,7.609l-4.436,12.176
		h-5.783c-0.783,0-1.414,0.65-1.414,1.457c0,0.783,0.631,1.436,1.414,1.436h4.74l-5.654,15.481
		c-0.326,0.892-0.086,1.848,0.566,2.478l-0.74,1.85c-0.195,0.498,0.043,1.042,0.523,1.237c0.129,0.044,0.235,0.087,0.368,0.087
		c0.369,0,0.718-0.237,0.867-0.606l0.742-1.826c0.955-0.045,1.826-0.654,2.174-1.589l6.238-17.133h7.502v2.631
		c0,0.805,0.631,1.436,1.436,1.436c0.782,0,1.437-0.631,1.437-1.436v-2.631h7.504l6.238,17.133c0.324,0.935,1.217,1.544,2.174,1.589
		l0.738,1.826c0.131,0.369,0.5,0.606,0.868,0.606c0.132,0,0.238-0.042,0.349-0.087c0.502-0.195,0.738-0.738,0.545-1.237l-0.738-1.85
		c0.631-0.63,0.871-1.586,0.545-2.478l-5.631-15.481h5.15C169.743,112.455,170.396,111.802,170.396,111.019z M149.784,83.102
		c3.676,0,6.676,2.979,6.676,6.676c0,3.673-3,6.676-6.676,6.676c-3.697,0-6.677-3.003-6.677-6.676
		C143.108,86.081,146.087,83.102,149.784,83.102z M151.221,109.563v-2.609c0-0.803-0.652-1.434-1.437-1.434
		c-0.806,0-1.437,0.631-1.437,1.434v2.609h-6.457l3.348-9.263c1.414,0.587,2.937,0.936,4.546,0.936c1.607,0,3.133-0.348,4.521-0.936
		l3.368,9.263H151.221z M170.396,111.019c0-0.806-0.652-1.457-1.437-1.457h-6.199l-4.434-12.176
		c1.805-2.045,2.914-4.696,2.914-7.609c0-5.501-3.895-10.111-9.068-11.219v-6.632c0-1.326-1.062-2.393-2.392-2.393
		c-1.325,0-2.391,1.065-2.391,2.393v6.632c-5.176,1.107-9.065,5.718-9.065,11.219c0,2.913,1.106,5.564,2.911,7.609l-4.436,12.176
		h-5.783c-0.783,0-1.414,0.65-1.414,1.457c0,0.783,0.631,1.436,1.414,1.436h4.74l-5.654,15.481
		c-0.326,0.892-0.086,1.848,0.566,2.478l-0.74,1.85c-0.195,0.498,0.043,1.042,0.523,1.237c0.129,0.044,0.235,0.087,0.368,0.087
		c0.369,0,0.718-0.237,0.867-0.606l0.742-1.826c0.955-0.045,1.826-0.654,2.174-1.589l6.238-17.133h7.502v2.631
		c0,0.805,0.631,1.436,1.436,1.436c0.782,0,1.437-0.631,1.437-1.436v-2.631h7.504l6.238,17.133c0.324,0.935,1.217,1.544,2.174,1.589
		l0.738,1.826c0.131,0.369,0.5,0.606,0.868,0.606c0.132,0,0.238-0.042,0.349-0.087c0.502-0.195,0.738-0.738,0.545-1.237l-0.738-1.85
		c0.631-0.63,0.871-1.586,0.545-2.478l-5.631-15.481h5.15C169.743,112.455,170.396,111.802,170.396,111.019z M149.784,83.102
		c3.676,0,6.676,2.979,6.676,6.676c0,3.673-3,6.676-6.676,6.676c-3.697,0-6.677-3.003-6.677-6.676
		C143.108,86.081,146.087,83.102,149.784,83.102z M151.221,109.563v-2.609c0-0.803-0.652-1.434-1.437-1.434
		c-0.806,0-1.437,0.631-1.437,1.434v2.609h-6.457l3.348-9.263c1.414,0.587,2.937,0.936,4.546,0.936c1.607,0,3.133-0.348,4.521-0.936
		l3.368,9.263H151.221z M215.971,197.926c-19.767,2.457-32.05-2.349-34.746-14.155h-8.24c1.588,0.065,3.852,2.197,4.479,3.894
		c2.89,7.696,8.586,11.872,16.308,13.11c6.35,1.045,12.871,1.479,19.328,1.545c3.305,0.043,5.522,1,6.914,3.395L215.971,197.926z
		 M224.773,216.361c2.065,5.35,0.563,6.914-6.26,10.199c-19.396,9.369-53.882,2.562-68.122-13.654l-4.543-7.48
		c-6.979-4.692-14.613-9.61-21.918-14.979c-0.543-0.391-0.85-1.088-1.066-1.913l0.328,5.694c3.478,2.002,6.806,3.307,9.349,5.522
		c3.412,2.937,6.5,6.351,9.219,9.958c15.176,20.176,36.094,26.047,60.076,24.112c9.457-0.764,19.022-1.479,26.979-9.396
		L224.773,216.361z M113.038,190.924c-7.523,1.894-14.652,5.394-21.785,8.567c-3.24,1.456-6.109,3.761-9.154,5.675
		c-0.436-0.371-0.85-0.762-1.281-1.131l-2.284,5.892c13.916-2.304,22.725-17.893,38.985-14.979l0.174-7.546
		C117.497,189.206,116.104,190.143,113.038,190.924z M170.396,111.019c0-0.806-0.652-1.457-1.437-1.457h-6.199l-4.434-12.176
		c1.805-2.045,2.914-4.696,2.914-7.609c0-5.501-3.895-10.111-9.068-11.219v-6.632c0-1.326-1.062-2.393-2.392-2.393
		c-1.325,0-2.391,1.065-2.391,2.393v6.632c-5.176,1.107-9.065,5.718-9.065,11.219c0,2.913,1.106,5.564,2.911,7.609l-4.436,12.176
		h-5.783c-0.783,0-1.414,0.65-1.414,1.457c0,0.783,0.631,1.436,1.414,1.436h4.74l-5.654,15.481
		c-0.326,0.892-0.086,1.848,0.566,2.478l-0.74,1.85c-0.195,0.498,0.043,1.042,0.523,1.237c0.129,0.044,0.235,0.087,0.368,0.087
		c0.369,0,0.718-0.237,0.867-0.606l0.742-1.826c0.955-0.045,1.826-0.654,2.174-1.589l6.238-17.133h7.502v2.631
		c0,0.805,0.631,1.436,1.436,1.436c0.782,0,1.437-0.631,1.437-1.436v-2.631h7.504l6.238,17.133c0.324,0.935,1.217,1.544,2.174,1.589
		l0.738,1.826c0.131,0.369,0.5,0.606,0.868,0.606c0.132,0,0.238-0.042,0.349-0.087c0.502-0.195,0.738-0.738,0.545-1.237l-0.738-1.85
		c0.631-0.63,0.871-1.586,0.545-2.478l-5.631-15.481h5.15C169.743,112.455,170.396,111.802,170.396,111.019z M149.784,83.102
		c3.676,0,6.676,2.979,6.676,6.676c0,3.673-3,6.676-6.676,6.676c-3.697,0-6.677-3.003-6.677-6.676
		C143.108,86.081,146.087,83.102,149.784,83.102z M151.221,109.563v-2.609c0-0.803-0.652-1.434-1.437-1.434
		c-0.806,0-1.437,0.631-1.437,1.434v2.609h-6.457l3.348-9.263c1.414,0.587,2.937,0.936,4.546,0.936c1.607,0,3.133-0.348,4.521-0.936
		l3.368,9.263H151.221z M170.396,111.019c0-0.806-0.652-1.457-1.437-1.457h-6.199l-4.434-12.176
		c1.805-2.045,2.914-4.696,2.914-7.609c0-5.501-3.895-10.111-9.068-11.219v-6.632c0-1.326-1.062-2.393-2.392-2.393
		c-1.325,0-2.391,1.065-2.391,2.393v6.632c-5.176,1.107-9.065,5.718-9.065,11.219c0,2.913,1.106,5.564,2.911,7.609l-4.436,12.176
		h-5.783c-0.783,0-1.414,0.65-1.414,1.457c0,0.783,0.631,1.436,1.414,1.436h4.74l-5.654,15.481
		c-0.326,0.892-0.086,1.848,0.566,2.478l-0.74,1.85c-0.195,0.498,0.043,1.042,0.523,1.237c0.129,0.044,0.235,0.087,0.368,0.087
		c0.369,0,0.718-0.237,0.867-0.606l0.742-1.826c0.955-0.045,1.826-0.654,2.174-1.589l6.238-17.133h7.502v2.631
		c0,0.805,0.631,1.436,1.436,1.436c0.782,0,1.437-0.631,1.437-1.436v-2.631h7.504l6.238,17.133c0.324,0.935,1.217,1.544,2.174,1.589
		l0.738,1.826c0.131,0.369,0.5,0.606,0.868,0.606c0.132,0,0.238-0.042,0.349-0.087c0.502-0.195,0.738-0.738,0.545-1.237l-0.738-1.85
		c0.631-0.63,0.871-1.586,0.545-2.478l-5.631-15.481h5.15C169.743,112.455,170.396,111.802,170.396,111.019z M149.784,83.102
		c3.676,0,6.676,2.979,6.676,6.676c0,3.673-3,6.676-6.676,6.676c-3.697,0-6.677-3.003-6.677-6.676
		C143.108,86.081,146.087,83.102,149.784,83.102z M151.221,109.563v-2.609c0-0.803-0.652-1.434-1.437-1.434
		c-0.806,0-1.437,0.631-1.437,1.434v2.609h-6.457l3.348-9.263c1.414,0.587,2.937,0.936,4.546,0.936c1.607,0,3.133-0.348,4.521-0.936
		l3.368,9.263H151.221z M170.396,111.019c0-0.806-0.652-1.457-1.437-1.457h-6.199l-4.434-12.176
		c1.805-2.045,2.914-4.696,2.914-7.609c0-5.501-3.895-10.111-9.068-11.219v-6.632c0-1.326-1.062-2.393-2.392-2.393
		c-1.325,0-2.391,1.065-2.391,2.393v6.632c-5.176,1.107-9.065,5.718-9.065,11.219c0,2.913,1.106,5.564,2.911,7.609l-4.436,12.176
		h-5.783c-0.783,0-1.414,0.65-1.414,1.457c0,0.783,0.631,1.436,1.414,1.436h4.74l-5.654,15.481
		c-0.326,0.892-0.086,1.848,0.566,2.478l-0.74,1.85c-0.195,0.498,0.043,1.042,0.523,1.237c0.129,0.044,0.235,0.087,0.368,0.087
		c0.369,0,0.718-0.237,0.867-0.606l0.742-1.826c0.955-0.045,1.826-0.654,2.174-1.589l6.238-17.133h7.502v2.631
		c0,0.805,0.631,1.436,1.436,1.436c0.782,0,1.437-0.631,1.437-1.436v-2.631h7.504l6.238,17.133c0.324,0.935,1.217,1.544,2.174,1.589
		l0.738,1.826c0.131,0.369,0.5,0.606,0.868,0.606c0.132,0,0.238-0.042,0.349-0.087c0.502-0.195,0.738-0.738,0.545-1.237l-0.738-1.85
		c0.631-0.63,0.871-1.586,0.545-2.478l-5.631-15.481h5.15C169.743,112.455,170.396,111.802,170.396,111.019z M149.784,83.102
		c3.676,0,6.676,2.979,6.676,6.676c0,3.673-3,6.676-6.676,6.676c-3.697,0-6.677-3.003-6.677-6.676
		C143.108,86.081,146.087,83.102,149.784,83.102z M151.221,109.563v-2.609c0-0.803-0.652-1.434-1.437-1.434
		c-0.806,0-1.437,0.631-1.437,1.434v2.609h-6.457l3.348-9.263c1.414,0.587,2.937,0.936,4.546,0.936c1.607,0,3.133-0.348,4.521-0.936
		l3.368,9.263H151.221z"/>
	<path fill="#5BB033" stroke="#000000" stroke-miterlimit="10" d="M123.194,194.229v47.029h-5.676v-46.312l0.174-7.547
		c0.129-0.979-0.108-2.217-0.608-3.825l4.979,0.957c0.349,1.217,0.479,2.761,0.806,4L123.194,194.229z"/>
	<path d="M248.82,248.76H51.179c3.088-6.523,5.98-12.678,8.896-18.81c7.782-16.35,15.678-32.613,23.243-49.051
		c1.718-3.762,3.869-4.938,7.849-4.869c12.938,0.238,25.896,0.087,39.963,0.087l4.35,9.065c-2.436-2.651-5.391-2.222-13.416-0.651
		l-4.979-0.957c-7.697,0-15.373-0.196-23.047,0.131c-1.72,0.088-4.066,1.651-4.892,3.196c-3.065,5.562-5.59,11.414-8.328,17.133
		l-2.284,5.892c-5.197,10.285-10.369,20.549-15.785,31.332H236.8c-2.807-5.914-5.264-11.088-7.981-16.828l-4.043-8.065v-0.021
		c-0.435-1.15-1.045-2.477-1.805-4.045c-0.763-1.542-1.589-3.062-2.132-4.693c-0.237-0.694-0.5-1.324-0.805-1.869l-0.021-0.021
		l-4.043-7.784c-1.326-3.021-2.438-6.003-3.938-8.74c-1.091-1.955-2.636-5.107-4.091-5.174c-8.823-0.502-17.694-0.24-26.723-0.24
		h-8.24c-3.28-0.15-7.237-1.693-9.631,2.108l4.826-9.763c14.373,0,27.525-0.134,40.658,0.129c2.194,0.045,5.565,1.133,6.371,2.763
		C226.516,201.948,237.473,225.061,248.82,248.76z"/>
	<path d="M198.878,93.147c-4.131-20.179-15.721-34.527-36.049-39.941c-19.634-5.241-36.854,0.021-50.248,15.438
		c-14,16.133-16.021,34.266-6.871,53.552c7.613,15.938,15.352,31.81,22.981,47.723c0.851,1.807,1.457,3.696,2.437,6.199l4.35,9.065
		l0.021,0.021c1.237,1.369,2.371,3.565,3.957,6.806c2.328,4.784,4.588,9.609,6.395,13.415l4.543,7.48
		c4.109-8.591,8.415-17.242,12.437-26.05c0.151-0.349,0.328-0.65,0.502-0.937l0.021-0.042l4.826-9.763
		c8.805-18.241,16.896-35.333,25.283-52.292C198.29,114.064,201.055,103.844,198.878,93.147z M150.001,140.459
		c-21.482,0-38.898-17.416-38.898-38.896c0-21.481,17.416-38.896,38.898-38.896c21.48,0,38.896,17.415,38.896,38.896
		C188.898,123.043,171.482,140.459,150.001,140.459z"/>
</g>
</svg>
