<?xml version="1.0" encoding="utf-8"?>
<!-- Generator: Adobe Illustrator 16.0.0, SVG Export Plug-In . SVG Version: 6.00 Build 0)  -->
<!DOCTYPE svg PUBLIC "-//W3C//DTD SVG 1.1//EN" "http://www.w3.org/Graphics/SVG/1.1/DTD/svg11.dtd">
<svg version="1.1" id="Capa_1" xmlns="http://www.w3.org/2000/svg" xmlns:xlink="http://www.w3.org/1999/xlink" x="0px" y="0px"
	 width="181.865px" height="204.182px" viewBox="81.339 47.91 181.865 204.182"
	 enable-background="new 81.339 47.91 181.865 204.182" xml:space="preserve">
<g>
	<g>
		<path d="M194.686,150.061c0,24.585,0.006,49.173,0,73.76c-0.006,16.184-11.564,28.049-27.752,28.163
			c-19.301,0.138-38.601,0.148-57.899-0.004c-16.189-0.129-27.689-11.994-27.691-28.215c-0.004-49.342-0.007-98.684,0.002-148.027
			c0.005-13.585,8.689-24.431,21.876-27.22c2.194-0.464,4.497-0.569,6.75-0.573c18.712-0.044,37.426-0.042,56.138-0.02
			c16.947,0.02,28.578,11.688,28.578,28.624C194.688,101.051,194.686,125.555,194.686,150.061z M183.118,217.834
			c0-49.072,0-97.958,0-146.947c-30.155,0-60.141,0-90.218,0c0,49.07,0,97.951,0,146.947
			C122.995,217.834,152.928,217.834,183.118,217.834z M149.252,229.564c-7.624,0-15.012,0-22.4,0c0,3.768,0,7.321,0,10.871
			c7.556,0,14.953,0,22.4,0C149.252,236.76,149.252,233.266,149.252,229.564z"/>
		<path fill="#5BB033" stroke="#000000" stroke-miterlimit="10" d="M235.307,61.753c2.434-2.429,5.025-5.018,7.623-7.61
			c25.784,24.998,26.943,68.893-0.007,95.555c-2.528-2.623-5.062-5.249-7.524-7.805C256.92,115.373,256.959,88.593,235.307,61.753z"
			/>
		<path fill="#5BB033" stroke="#000000" stroke-miterlimit="10" d="M218.818,77.89c2.695-2.599,5.279-5.094,7.877-7.6
			c16.039,13.729,19.431,44.899,0.087,63.382c-2.591-2.606-5.181-5.209-7.774-7.815C233.07,110.904,230.525,89.719,218.818,77.89z"
			/>
		<path fill="#5BB033" stroke="#000000" stroke-miterlimit="10" d="M202.797,93.87c2.667-2.658,5.215-5.199,7.76-7.741
			c7.768,6.118,10.155,22.011,0.25,31.508c-2.498-2.652-5-5.306-7.649-8.114C206.943,104.708,207.127,99.352,202.797,93.87z"/>
	</g>
	<path fill="#5BB033" stroke="#000000" stroke-miterlimit="10" d="M170.389,159.896c0-1.258-1.02-2.275-2.273-2.275h-9.831
		l-7.046-19.368c2.861-3.214,4.619-7.432,4.619-12.066c0-8.727-6.185-16.032-14.393-17.779V97.849c0-2.096-1.697-3.792-3.793-3.792
		c-2.097,0-3.792,1.695-3.792,3.792v10.559c-8.214,1.747-14.396,9.051-14.396,17.779c0,4.634,1.759,8.853,4.624,12.071
		l-7.049,19.363h-9.146c-1.258,0-2.275,1.018-2.275,2.275c0,1.256,1.018,2.272,2.275,2.272h7.488l-8.95,24.599
		c-0.517,1.42-0.125,2.94,0.869,3.948l-1.166,2.923c-0.312,0.78,0.067,1.659,0.848,1.973c0.184,0.072,0.373,0.104,0.561,0.104
		c0.604,0,1.174-0.36,1.409-0.952l1.163-2.916c1.504-0.052,2.896-0.988,3.443-2.486l9.896-27.191h11.922v4.17
		c0,1.258,1.016,2.277,2.275,2.277c1.255,0,2.274-1.02,2.274-2.277v-4.17h11.921l9.896,27.191c0.545,1.496,1.938,2.436,3.44,2.486
		l1.168,2.916c0.233,0.592,0.808,0.952,1.407,0.952c0.188,0,0.38-0.032,0.562-0.104c0.778-0.313,1.159-1.191,0.848-1.973
		l-1.168-2.923c0.996-1.008,1.389-2.528,0.875-3.948l-8.955-24.599h8.175C169.369,162.17,170.389,161.152,170.389,159.896z
		 M137.669,115.588c5.847,0,10.596,4.754,10.596,10.598s-4.754,10.598-10.596,10.598c-5.843,0-10.6-4.754-10.6-10.598
		S131.826,115.588,137.669,115.588z M139.944,157.621v-4.176c0-1.256-1.018-2.277-2.275-2.277s-2.276,1.021-2.276,2.277v4.176
		h-10.265l5.362-14.734c2.205,0.953,4.63,1.48,7.179,1.48c2.552,0,4.975-0.527,7.18-1.48l5.36,14.734H139.944z"/>
</g>
</svg>
