<?xml version="1.0" encoding="utf-8"?>
<!-- Generator: Adobe Illustrator 16.0.0, SVG Export Plug-In . SVG Version: 6.00 Build 0)  -->
<!DOCTYPE svg PUBLIC "-//W3C//DTD SVG 1.1//EN" "http://www.w3.org/Graphics/SVG/1.1/DTD/svg11.dtd">
<svg version="1.1" id="Capa_1" xmlns="http://www.w3.org/2000/svg" xmlns:xlink="http://www.w3.org/1999/xlink" x="0px" y="0px"
	 width="201.586px" height="162.287px" viewBox="46.207 70.21 201.586 162.287"
	 enable-background="new 46.207 70.21 201.586 162.287" xml:space="preserve">
<g>
	<path d="M247.793,91.51v107.383c0,11.77-9.531,21.299-21.299,21.299h-92.421c1.898-4.223,3.338-8.678,4.277-13.312h74.832
		c11.769,0,21.299-9.529,21.299-21.299v-80.759c0-11.768-9.53-21.299-21.299-21.299H95.148c-11.767,0-21.299,9.531-21.299,21.299
		v24.245c-4.243,0-8.413,0.392-12.425,1.154V91.51c0-11.769,9.532-21.3,21.299-21.3h143.771
		C238.262,70.21,247.793,79.741,247.793,91.51z"/>
	<path fill="#FFFFFF" d="M234.688,104.821v80.759c0,11.77-9.531,21.299-21.299,21.299H95.354c-11.768,0-21.299-9.529-21.299-21.299
		v-80.759c0-11.768,9.531-21.299,21.299-21.299h118.035C225.154,83.522,234.688,93.054,234.688,104.821z"/>
	<path fill="#5BB033" stroke="#010202" stroke-miterlimit="10" d="M223.831,187.354c0,4.901-3.972,8.875-8.875,8.875l0,0
		c-4.901,0-8.873-3.974-8.873-8.875v-84.308c0-4.902,3.972-8.875,8.873-8.875l0,0c4.903,0,8.875,3.973,8.875,8.875V187.354z"/>
	<path fill="#5BB033" stroke="#010202" stroke-miterlimit="10" d="M193.627,191.792c0,2.451-3.977,4.438-8.875,4.438l0,0
		c-4.9,0-8.875-1.986-8.875-4.438v-42.154c0-2.451,3.975-4.438,8.875-4.438l0,0c4.898,0,8.875,1.987,8.875,4.438V191.792z"/>
	<g>
		<path stroke="#FFFFFF" stroke-width="12" stroke-miterlimit="10" d="M94.986,226.497c-23.727-0.003-42.904-19.254-42.779-43.164
			c0.128-23.813,19.684-42.941,43.653-42.515c23.045,0.413,42.394,19.25,42.021,43.569
			C137.527,207.836,118.402,226.514,94.986,226.497z M131.22,181.95c-0.86-19.628-17.826-35.964-38.973-34.413
			c-18.902,1.387-34.198,17.695-33.401,37.762c0.782,19.643,17.715,35.378,37.638,34.562
			C116.534,219.04,132.135,202.13,131.22,181.95z"/>
		<path stroke="#FFFFFF" stroke-width="12" stroke-miterlimit="10" d="M101.642,134.378c0,1.153,0,2.35,0,3.358
			c-4.416,0-8.719,0-13.124,0c0-0.972,0-2.163,0-3.32c-2.912-0.996-3.359-1.637-3.359-4.709c0-1.754-0.028-3.511,0.017-5.265
			c0.053-2.104,1.383-3.389,3.499-3.396c4.253-0.016,8.503-0.016,12.755,0c2.105,0.008,3.438,1.307,3.488,3.407
			c0.044,1.832,0.015,3.666,0.015,5.501C104.932,132.737,104.356,133.527,101.642,134.378z"/>
		<path stroke="#FFFFFF" stroke-width="12" stroke-miterlimit="10" d="M77.803,140.565c-3.863,2.247-7.586,4.409-11.442,6.652
			c-1.137-2.021-2.472-4.204-3.613-6.489c-0.685-1.366-0.056-3.026,1.307-3.855c1.961-1.192,3.951-2.348,5.976-3.426
			c1.581-0.842,3.282-0.422,4.201,1.044C75.51,136.534,76.678,138.646,77.803,140.565z"/>
		<path stroke="#FFFFFF" stroke-width="12" stroke-miterlimit="10" d="M123.729,147.21c-3.859-2.238-7.579-4.402-11.455-6.648
			c1.194-2.004,2.439-4.277,3.87-6.428c0.779-1.171,2.475-1.447,3.801-0.741c2.123,1.133,4.217,2.337,6.257,3.618
			c1.354,0.854,1.777,2.573,1.013,4.026C126.094,143.165,124.854,145.231,123.729,147.21z"/>
		<path fill="#FFFFFF" stroke="#FFFFFF" stroke-width="12" stroke-miterlimit="10" d="M131.22,181.95
			c0.915,20.18-14.686,37.09-34.736,37.911c-19.923,0.814-36.855-14.922-37.638-34.563c-0.797-20.065,14.499-36.375,33.401-37.762
			C113.394,145.986,130.359,162.322,131.22,181.95z M95.189,154.633c-0.083,0-0.167,0-0.248,0c-0.045,0.139-0.105,0.273-0.134,0.412
			c-2.037,9.16-4.047,18.321-6.117,27.475c-0.586,2.592,0.305,4.592,2.203,6.239c2.048,1.775,5.16,1.958,7.542,0.552
			c2.468-1.455,3.543-4.594,2.996-6.791c-1.336-5.404-2.44-10.86-3.645-16.297C96.927,162.355,96.054,158.494,95.189,154.633z"/>
		<path stroke="#FFFFFF" stroke-width="12" stroke-miterlimit="10" d="M95.189,154.633c0.864,3.861,1.737,7.725,2.598,11.59
			c1.204,5.437,2.309,10.893,3.645,16.297c0.547,2.197-0.528,5.336-2.996,6.791c-2.382,1.406-5.494,1.225-7.542-0.552
			c-1.898-1.647-2.789-3.647-2.203-6.239c2.07-9.152,4.08-18.313,6.117-27.475c0.028-0.139,0.089-0.273,0.134-0.412
			C95.022,154.633,95.106,154.633,95.189,154.633z"/>
	</g>
	<g>
		<path stroke="#010202" stroke-width="2" stroke-miterlimit="10" d="M94.986,229.79c-23.727-0.007-42.904-19.257-42.779-43.167
			c0.128-23.812,19.684-42.941,43.653-42.512c23.045,0.41,42.394,19.25,42.021,43.566
			C137.527,211.126,118.402,229.809,94.986,229.79z M131.22,185.243c-0.86-19.632-17.826-35.967-38.973-34.416
			c-18.902,1.386-34.198,17.696-33.401,37.765c0.782,19.645,17.715,35.375,37.638,34.563
			C116.534,222.333,132.135,205.423,131.22,185.243z"/>
		<path stroke="#010202" stroke-width="2" stroke-miterlimit="10" d="M101.642,137.67c0,1.155,0,2.348,0,3.356
			c-4.416,0-8.719,0-13.124,0c0-0.967,0-2.16,0-3.321c-2.912-0.996-3.359-1.637-3.359-4.704c0-1.758-0.028-3.512,0.017-5.266
			c0.053-2.105,1.383-3.39,3.499-3.398c4.253-0.016,8.503-0.016,12.755,0c2.105,0.009,3.438,1.307,3.488,3.408
			c0.044,1.831,0.015,3.664,0.015,5.499C104.932,136.031,104.356,136.82,101.642,137.67z"/>
		<path stroke="#010202" stroke-width="2" stroke-miterlimit="10" d="M77.803,143.858c-3.863,2.243-7.586,4.41-11.442,6.649
			c-1.137-2.021-2.472-4.205-3.613-6.487c-0.685-1.369-0.056-3.025,1.307-3.854c1.961-1.191,3.951-2.347,5.976-3.425
			c1.581-0.846,3.282-0.423,4.201,1.044C75.51,139.826,76.678,141.936,77.803,143.858z"/>
		<path stroke="#010202" stroke-width="2" stroke-miterlimit="10" d="M123.729,150.5c-3.859-2.238-7.579-4.398-11.455-6.648
			c1.194-2.004,2.439-4.278,3.87-6.424c0.779-1.175,2.475-1.452,3.801-0.745c2.123,1.137,4.217,2.337,6.257,3.619
			c1.354,0.854,1.777,2.575,1.013,4.024C126.094,146.455,124.854,148.521,123.729,150.5z"/>
		<path fill="#FFFFFF" d="M131.22,185.243c0.915,20.18-14.686,37.09-34.736,37.911c-19.923,0.812-36.855-14.92-37.638-34.563
			c-0.797-20.067,14.499-36.379,33.401-37.765C113.394,149.276,130.359,165.611,131.22,185.243z M95.189,157.922
			c-0.083,0-0.167,0-0.248,0.005c-0.045,0.136-0.105,0.271-0.134,0.413c-2.037,9.158-4.047,18.32-6.117,27.473
			c-0.586,2.594,0.305,4.595,2.203,6.236c2.048,1.775,5.16,1.958,7.542,0.555c2.468-1.455,3.543-4.594,2.996-6.793
			c-1.336-5.401-2.44-10.861-3.645-16.299C96.927,165.65,96.054,161.788,95.189,157.922z"/>
		<path fill="#5BB033" stroke="#010202" stroke-miterlimit="10" d="M95.189,160.925c0.864,3.866,1.737,7.729,2.598,11.591
			c1.204,5.437,2.309,10.896,3.645,16.297c0.547,2.201-0.528,5.338-2.996,6.795c-2.382,1.402-5.494,1.221-7.542-0.556
			c-1.898-1.643-2.789-3.644-2.203-6.235c2.07-9.152,4.08-18.314,6.117-27.474c0.028-0.144,0.089-0.278,0.134-0.413
			C95.022,160.925,95.106,160.925,95.189,160.925z"/>
	</g>
	<path fill="#5BB033" stroke="#010202" stroke-miterlimit="10" d="M165.23,189.979c0,3.453-3.975,6.25-8.875,6.25l0,0
		c-4.901,0-8.875-2.797-8.875-6.25v-59.385c0-3.451,3.973-6.249,8.875-6.249l0,0c4.9,0,8.875,2.798,8.875,6.249V189.979z"/>
</g>
</svg>
