<?xml version="1.0" encoding="utf-8"?>
<!-- Generator: Adobe Illustrator 16.0.0, SVG Export Plug-In . SVG Version: 6.00 Build 0)  -->
<!DOCTYPE svg PUBLIC "-//W3C//DTD SVG 1.1//EN" "http://www.w3.org/Graphics/SVG/1.1/DTD/svg11.dtd">
<svg version="1.1" id="Capa_1" xmlns="http://www.w3.org/2000/svg" xmlns:xlink="http://www.w3.org/1999/xlink" x="0px" y="0px"
	 width="289.738px" height="195.354px" viewBox="6.131 52.324 289.738 195.354"
	 enable-background="new 6.131 52.324 289.738 195.354" xml:space="preserve">
<g>
	<path fill="#010203" d="M186.743,137.918c-0.202,1.424-0.451,2.656-0.521,3.896c-0.05,0.822-0.369,0.946-1.101,0.942
		c-10.821-0.021-21.639-0.025-32.456,0.005c-0.89,0.002-1.056-0.302-1.051-1.104c0.036-4.182-0.005-8.362,0.036-12.543
		c0.009-0.885-0.104-1.253-1.154-1.253c-30.171,0.033-60.342,0.032-90.515,0.006c-0.897,0-1.13,0.203-1.128,1.116
		c0.034,11.166,0.039,22.331-0.005,33.489c-0.002,0.997,0.268,1.18,1.208,1.18c30.128-0.024,60.258-0.024,90.387,0
		c0.971,0,1.226-0.232,1.213-1.209c-0.057-4.137-0.012-8.272-0.039-12.411c-0.003-0.727,0.097-1.062,0.965-1.06
		c10.902,0.031,21.81,0.025,32.715,0.002c0.661,0,0.912,0.222,0.979,0.841c0.111,1.026,0.279,2.046,0.396,3.07
		c0.067,0.575,0.238,0.764,0.826,0.467c4.95-2.494,9.91-4.971,15.045-7.54C197.188,143.137,192.027,140.558,186.743,137.918z
		 M147.37,158.75c0.005,0.979-0.252,1.192-1.211,1.192c-13.79-0.033-27.58-0.022-41.372-0.022c-13.659,0-27.323-0.017-40.983,0.028
		c-1.086,0.002-1.335-0.274-1.329-1.342c0.05-8.573,0.046-17.15,0-25.728c-0.006-1.043,0.304-1.238,1.276-1.238
		c27.453,0.025,54.903,0.025,82.356-0.003c1.001,0,1.268,0.238,1.263,1.255C147.325,141.513,147.325,150.131,147.37,158.75z"/>
	<path fill="#010203" d="M151.512,53.558c0.006-1.068-0.34-1.22-1.285-1.22c-30.007,0.022-60.014,0.026-90.021-0.014
		c-1.204-0.002-1.354,0.364-1.35,1.426c0.037,11.079,0.049,22.157-0.012,33.235c-0.01,1.314,0.317,1.595,1.602,1.589
		c13.409-0.053,26.814-0.031,40.225-0.031c0.665,0,1.295-0.188,1.286,0.962c-0.065,5.861-0.038,11.725-0.021,17.587
		c0,0.603-0.068,0.94-0.811,0.943c-1.075,0.005-2.146,0.176-3.218,0.232c-0.746,0.039-0.849,0.262-0.501,0.939
		c2.551,5.011,5.064,10.036,7.683,15.241c2.641-5.359,5.213-10.577,7.871-15.977c-1.374-0.153-2.61-0.388-3.849-0.398
		c-1.047-0.008-1.106-0.494-1.104-1.333c0.032-5.693,0.047-11.384-0.009-17.07c-0.011-1.08,0.172-1.427,1.362-1.42
		c13.624,0.052,27.249,0.021,40.872,0.055c0.992,0.003,1.279-0.213,1.273-1.25C151.469,75.892,151.465,64.726,151.512,53.558z
		 M146.025,84.411c-13.704-0.034-27.41-0.023-41.114-0.023c-13.664,0-27.323-0.016-40.984,0.029
		c-1.156,0.005-1.415-0.287-1.408-1.42c0.051-8.446,0.046-16.896,0.005-25.341c-0.005-1.006,0.24-1.295,1.271-1.29
		c27.453,0.027,54.908,0.029,82.356-0.005c1.048,0,1.247,0.309,1.241,1.281c-0.035,8.491-0.044,16.979,0.01,25.47
		C147.409,84.245,147.046,84.414,146.025,84.411z"/>
	<path fill="#010203" d="M271.782,144.309c-3.986-1.994-7.981-3.979-11.955-5.996c-0.695-0.353-0.964-0.301-0.985,0.545
		c-0.021,0.986-0.237,1.972-0.222,2.957c0.018,0.918-0.312,1.134-1.198,1.124c-5.301-0.047-10.604-0.204-15.899,0.022
		c-2.771,0.119-4.807-0.84-6.621-2.699c-0.334-0.338-0.684-0.658-1.006-1.005c-2.267-2.419-4.315-5.034-6.752-7.292
		c-0.664-0.617-0.897-1.391-0.871-2.325c0.141-5.249,0.039-10.504,0.084-15.757c0.088-9.91-0.058-19.821-0.039-29.733
		c0-1.123-0.327-1.295-1.354-1.295c-17.586,0.034-35.17,0.025-52.756,0.025c-0.302,0-0.604-0.021-0.903,0.003
		c-0.521,0.05-0.654-0.215-0.686-0.681c-0.062-1.032-0.22-2.055-0.245-3.088c-0.021-0.952-0.146-1.284-1.205-0.742
		c-4.539,2.33-9.129,4.562-13.69,6.845c-0.321,0.161-0.768,0.194-0.885,0.656c5.209,2.599,10.411,5.193,15.7,7.836
		c0.119-1.286,0.347-2.401,0.292-3.5c-0.06-1.244,0.449-1.433,1.561-1.431c15.558,0.034,31.119,0.035,46.677-0.002
		c1.155-0.003,1.509,0.25,1.502,1.465c-0.091,13.181,0.08,26.362-0.16,39.546c-0.021,0.939-0.328,1.622-0.972,2.268
		c-4.114,4.113-8.189,8.261-12.316,12.359c-0.631,0.63-0.787,0.941-0.048,1.672c5.465,5.383,10.891,10.807,16.274,16.272
		c0.766,0.774,1.125,0.604,1.771-0.062c4.022-4.139,8.102-8.229,12.126-12.366c0.839-0.859,1.722-1.234,2.95-1.224
		c5.854,0.059,11.714,0.044,17.565,0.007c0.818-0.005,1.118,0.187,1.106,1.042c-0.011,1.03,0.167,2.06,0.23,3.088
		c0.041,0.647,0.246,0.896,0.871,0.503c0.217-0.139,0.461-0.228,0.689-0.341c4.735-2.368,9.477-4.737,14.393-7.193
		C273.684,145.254,272.729,144.782,271.782,144.309z M234.18,146.129c-3.504,3.438-6.99,6.891-10.455,10.369
		c-0.519,0.52-0.781,0.397-1.223-0.058c-3.291-3.404-6.599-6.792-9.915-10.168c-0.371-0.379-0.479-0.648-0.026-1.041
		c0.354-0.306,0.635-0.7,0.967-1.036c3.029-3.057,6.065-6.107,9.091-9.171c0.241-0.243,0.395-0.569,0.44-0.641
		c0.652-0.059,0.772,0.215,0.941,0.386c3.405,3.412,6.795,6.839,10.214,10.241C234.668,145.466,234.604,145.713,234.18,146.129z"/>
	<path fill="#010203" d="M122.931,237.643c-0.092-4.136-0.137-8.27-0.153-12.4c-0.025-5.344,0.045-10.688-0.021-16.026
		c-0.049-3.551-1.282-5.152-4.617-6.299c-2.974-1.023-6.06-1.568-9.148-2.076c-0.701-0.113-1.018-0.337-1.013-1.131
		c0.039-5.261,0.044-10.519-0.005-15.773c-0.008-0.812,0.31-1.024,0.985-1.127c1.247-0.189,2.489-0.423,3.827-0.65
		c-2.624-5.27-5.169-10.391-7.705-15.491c-0.462,0.106-0.489,0.473-0.609,0.718c-2.202,4.415-4.38,8.843-6.565,13.267
		c-0.808,1.634-0.812,1.628,0.934,1.853c0.643,0.08,1.279,0.208,1.919,0.251c0.881,0.062,1.206,0.401,1.195,1.369
		c-0.059,5.082-0.053,10.168-0.001,15.254c0.009,0.974-0.277,1.312-1.233,1.494c-2.864,0.548-5.727,1.116-8.516,1.989
		c-3.622,1.132-5.141,3.151-5.125,6.903c0.019,4.178,0.103,8.354,0.096,12.529c-0.004,5.6-0.08,11.198-0.093,16.797
		c-0.005,3.021,1.521,5.213,4.33,6.202c8.549,3.007,17.164,3.189,25.812,0.441C121.648,244.324,123.031,242.277,122.931,237.643z
		 M97.37,205.417c5.854-1.229,11.677-1.157,17.434,0.593c1.354,0.411,2.63,0.989,3.717,1.94c-4.947,4.501-21.442,4.688-27.07,0.273
		C93.076,206.527,95.193,205.877,97.37,205.417z M118.99,214.421c-0.014,7.924-0.042,15.851-0.074,23.773
		c-0.007,2.211-0.701,3.109-2.882,3.815c-7.479,2.421-14.951,2.368-22.412-0.089c-1.583-0.523-2.604-1.798-2.612-3.435
		c-0.036-8.355-0.038-16.715-0.05-25.069c0-0.074,0.053-0.148,0.056-0.154c9.293,3.983,18.559,4.288,27.917,0.03
		C119.136,213.573,118.99,214.014,118.99,214.421z"/>
	<path fill="#010203" d="M247.832,203.251c-6.771,0.042-13.537,0.013-20.307,0.032c-0.705,0.003-1.058-0.048-1.053-0.938
		c0.049-6.162,0.047-12.328,0-18.492c-0.005-0.826,0.354-1.016,1.022-1.11c1.144-0.169,2.279-0.382,3.555-0.595
		c-2.562-5.229-5.079-10.369-7.708-15.722c-2.337,4.706-4.559,9.181-6.781,13.652c-1.022,2.058-1.029,2.058,1.164,2.471
		c0.381,0.072,0.764,0.159,1.146,0.181c0.871,0.055,1.201,0.375,1.189,1.354c-0.06,5.991-0.06,11.982,0,17.976
		c0.012,1.056-0.324,1.236-1.285,1.231c-5.086-0.013-10.168,0.044-15.254,0.09c-2.234,0.019-3.188,0.729-3.812,2.858
		c-3.054,10.409-6.097,20.821-9.142,31.233c-0.502,1.717-0.373,1.875,1.51,1.875h43.969c1.872,0,2.622-0.549,3.158-2.369
		c3.188-10.816,6.347-21.645,9.564-32.455C249.085,203.477,248.934,203.242,247.832,203.251z M243.618,208.305
		c-2.539,8.726-5.042,17.456-7.558,26.188c-0.156,0.535-0.242,0.982-1.045,0.979c-13.226-0.027-26.447-0.02-39.83-0.02
		c2.146-7.433,4.246-14.716,6.352-21.995c0.51-1.771,1.036-3.536,1.517-5.317c0.174-0.658,0.428-0.97,1.204-0.965
		c12.882,0.027,25.759,0.03,38.638,0C243.952,207.171,243.846,207.52,243.618,208.305z"/>
	<path fill="#010203" d="M40.033,62.235c4.797,2.634,9.525,5.229,14.291,7.846c-0.119,0.171-0.164,0.31-0.258,0.362
		c-4.392,2.43-8.803,4.817-13.162,7.305c-1.079,0.614-1.17,0.278-1.161-0.701c0.007-0.857-0.173-1.718-0.157-2.576
		c0.018-0.921-0.276-1.204-1.254-1.189c-4.351,0.065-8.706,0.051-13.059,0.009c-0.834-0.009-1.258,0.228-1.686,0.979
		c-2.729,4.801-7.96,6.521-12.537,4.205c-3.848-1.948-5.812-6.726-4.526-11.007c1.254-4.179,5.374-6.858,9.729-6.379
		c3.195,0.351,5.601,1.827,6.974,4.784c0.479,1.031,1.16,1.389,2.316,1.368c4.31-0.071,8.621-0.047,12.93-0.011
		c0.751,0.005,0.981-0.161,1.085-0.961C39.729,64.957,39.586,63.602,40.033,62.235z"/>
	<path fill="#010203" d="M295.869,145.714c0.016,5.162-4.063,9.279-9.221,9.31c-5.104,0.027-9.127-4.013-9.164-9.198
		c-0.036-5.146,3.961-9.17,9.121-9.185C291.764,136.625,295.852,140.632,295.869,145.714z"/>
	<path fill="#5BAF36" d="M197.883,145.8c-3.022,1.526-5.864,2.935-8.68,4.397c-0.704,0.362-0.805,0.011-0.893-0.521
		c-0.147-0.879,0.129-2.142-0.555-2.531c-0.757-0.431-1.917-0.178-2.9-0.178c-10.301-0.007-20.601-0.026-30.897,0.025
		c-1.209,0.007-1.503-0.396-1.388-1.48c0.06-0.553,0.262-0.775,0.798-0.743c0.301,0.019,0.604,0.001,0.905,0.001
		c10.688,0,21.375-0.021,32.062,0.03c1.214,0.005,1.703-0.249,1.831-1.537c0.215-2.165,0.317-2.159,2.317-1.165
		C192.9,143.302,195.312,144.514,197.883,145.8z"/>
	<path fill="#5AB035" d="M105.064,119.788c-1.573-3.128-3.014-6.01-4.475-8.88c-0.345-0.678-0.024-0.768,0.565-0.831
		c2.804-0.302,2.802-0.315,2.802-3.137c0-5.258-0.01-10.515,0.016-15.772c0.003-0.702-0.446-1.679,1.029-1.667
		c1.416,0.013,0.938,0.95,0.941,1.589c0.026,5.776,0.047,11.55-0.015,17.324c-0.011,1.082,0.254,1.475,1.354,1.588
		c2.478,0.258,2.467,0.317,1.312,2.645C107.448,114.951,106.313,117.26,105.064,119.788z"/>
	<path fill="#5AB035" d="M168.454,90.48c-3.164-1.582-6.161-3.078-9.414-4.704c3.229-1.616,6.27-3.138,9.395-4.702
		c0.115,1.001,0.334,1.854,0.291,2.688c-0.062,1.121,0.481,1.203,1.385,1.203c17.504-0.021,35.008,0.001,52.509-0.051
		c1.396-0.004,1.651,0.406,1.651,1.702c-0.021,8.749,0.148,17.497,0.051,26.244c-0.062,5.339,0.029,10.678-0.069,16.016
		c-0.011,0.726-0.029,1.181-0.999,1.188c-1.022,0.01-0.965-0.538-0.965-1.22c0.029-12.838,0.052-25.678,0.07-38.518
		c0.008-3.594,0-3.594-3.562-3.594c-16.166,0-32.332,0.01-48.501-0.021c-1.073-0.001-1.682,0.141-1.58,1.411
		C168.771,88.833,168.564,89.562,168.454,90.48z"/>
	<path fill="#5AB035" d="M270.105,145.796c-3,1.519-5.769,2.91-8.521,4.328c-0.634,0.323-0.869,0.29-0.935-0.517
		c-0.25-3.037-0.275-2.941-3.33-2.9c-5.644,0.077-11.289,0.024-16.936,0.052c-0.667,0.003-0.891-0.2-0.904-0.879
		c-0.021-0.757,0.258-0.936,0.972-0.932c6.163,0.033,12.327,0.016,18.485,0.057c0.98,0.008,1.5-0.053,1.582-1.306
		c0.17-2.564,0.28-2.559,2.582-1.407C265.366,143.423,267.627,144.556,270.105,145.796z"/>
	<path fill="#5AB035" d="M104.952,171.102c1.555,3.111,2.965,5.961,4.406,8.793c0.271,0.53,0.21,0.779-0.4,0.832
		c-0.128,0.01-0.251,0.063-0.377,0.088c-2.649,0.53-2.649,0.528-2.649,3.271c0,4.736-0.006,9.472,0.007,14.212
		c0.001,0.688,0.046,1.244-0.968,1.207c-0.929-0.036-1.026-0.468-1.022-1.223c0.021-5.252-0.036-10.509,0.046-15.761
		c0.021-1.15-0.389-1.51-1.402-1.588c-0.724-0.055-1.443-0.192-2.346-0.318C101.8,177.473,103.306,174.427,104.952,171.102z"/>
	<path fill="#5AB035" d="M223.35,171.148c1.594,3.262,3.071,6.289,4.582,9.375c-0.399,0.101-0.646,0.168-0.896,0.223
		c-0.832,0.18-1.985,0.084-2.424,0.598c-0.557,0.653-0.172,1.813-0.174,2.757c-0.019,5.688-0.033,11.377,0.017,17.064
		c0.008,0.994-0.304,1.221-1.245,1.229c-0.934,0.013-1.131-0.293-1.127-1.174c0.035-6.207-0.018-12.412,0.054-18.617
		c0.014-1.151-0.359-1.543-1.424-1.686c-2.104-0.279-2.099-0.32-1.148-2.214C220.773,176.277,221.988,173.855,223.35,171.148z"/>
	<path fill="#5AB035" d="M41.659,74.913c-0.06-1.023-0.158-1.827-0.142-2.629c0.016-0.857-0.35-1.065-1.167-1.063
		c-5.381,0.036-10.763,0.007-16.142,0.032c-0.726,0.004-1.065-0.092-1.062-0.958c0.001-0.877,0.286-1.078,1.107-1.071
		c3.959,0.037,7.919,0.017,11.882,0.017c1.419,0,2.841-0.04,4.26,0.016c0.717,0.029,1.01-0.233,1.049-0.918
		c0.05-0.859,0.137-1.715,0.228-2.812c2.814,1.537,5.536,3.021,8.457,4.616C47.291,71.74,44.583,73.266,41.659,74.913z"/>
</g>
</svg>
