<?xml version="1.0" encoding="utf-8"?>
<!-- Generator: Adobe Illustrator 16.0.0, SVG Export Plug-In . SVG Version: 6.00 Build 0)  -->
<!DOCTYPE svg PUBLIC "-//W3C//DTD SVG 1.1//EN" "http://www.w3.org/Graphics/SVG/1.1/DTD/svg11.dtd" [
	<!ENTITY ns_flows "http://ns.adobe.com/Flows/1.0/">
	<!ENTITY ns_extend "http://ns.adobe.com/Extensibility/1.0/">
	<!ENTITY ns_ai "http://ns.adobe.com/AdobeIllustrator/10.0/">
	<!ENTITY ns_graphs "http://ns.adobe.com/Graphs/1.0/">
]>
<svg version="1.1" id="Capa_1" xmlns:x="&ns_extend;" xmlns:i="&ns_ai;" xmlns:graph="&ns_graphs;"
	 xmlns="http://www.w3.org/2000/svg" xmlns:xlink="http://www.w3.org/1999/xlink" xmlns:a="http://ns.adobe.com/AdobeSVGViewerExtensions/3.0/"
	 x="0px" y="0px" width="100px" height="100px" viewBox="0 0 100 100" style="enable-background:new 0 0 100 100;"
	 xml:space="preserve">
<style type="text/css">
<![CDATA[
	.st0{fill-rule:evenodd;clip-rule:evenodd;fill:#E5E5E4;}
]]>
</style>
<g>
	<path class="st0" d="M45.657,71.532c-0.945,0.426-1.811,0.896-2.719,1.207c-1.233,0.42-0.927,1.549-1.053,2.502
		c-0.229,1.727-0.451,3.453-0.717,5.172c-0.168,1.086-0.755,1.666-1.783,1.66c-2.471-0.016-4.942-0.021-7.413,0.004
		c-1.139,0.01-1.618-0.684-1.774-1.836c-0.271-2.006-0.512-4.02-0.857-6.008c-0.301-1.736-3.295-2.98-4.553-1.943
		c-1.38,1.137-2.752,2.287-4.108,3.459c-0.801,0.693-1.571,0.752-2.298-0.063c-1.779-1.996-3.545-4.008-5.302-6.027
		c-0.921-1.059-0.972-2.119-0.022-3.246c0.586-0.693,0.992-1.584,1.603-2.242c1.604-1.727,1.977-3.469,0.769-5.758
		c-0.538-1.02-1.056-1.512-2.021-1.66c-1.645-0.25-3.281-0.576-4.927-0.816c-0.983-0.141-1.429-0.744-1.432-1.799
		c-0.008-2.822-0.009-5.643,0.001-8.464c0.003-1.133,0.483-1.727,1.542-1.867c1.749-0.231,3.505-0.487,5.214-0.942
		c0.599-0.16,1.168-0.85,1.575-1.446c1.369-2.013,0.826-3.773-0.652-5.431c-0.744-0.834-1.347-1.826-2.012-2.747
		c-0.668-0.926-0.704-1.863,0.054-2.729c1.762-2.012,3.533-4.014,5.329-5.989c1.004-1.104,2.009-0.98,3.059,0.038
		c1.104,1.069,2.316,1.998,3.427,3.06c0.693,0.663,1.281,0.602,2.164,0.376c2.288-0.584,2.722-2.289,2.878-4.535
		c0.384-5.538,0.438-5.533,5.28-5.533c1.462,0,2.927,0.051,4.387-0.014c1.222-0.054,1.735,0.637,1.886,1.875
		c0.236,1.953,0.423,3.918,0.777,5.845c0.108,0.592,0.606,1.226,1.081,1.578c1.771,1.313,3.388,1.086,4.902-0.688
		c0.756-0.885,1.77-1.487,2.634-2.265c0.844-0.759,1.66-0.808,2.423,0.06c1.803,2.047,3.583,4.119,5.36,6.195
		c0.792,0.926,0.762,1.85,0.026,2.852c-0.99,1.351-1.86,2.814-2.87,4.146c-0.584,0.77-0.636,1.458-0.216,2.288
		c0.149,0.292,0.3,0.608,0.351,0.933c0.296,1.909,1.503,2.418,3.008,2.584c1.253,0.139,2.493,0.406,3.743,0.577
		c1.238,0.169,1.89,0.794,1.851,2.312c-0.066,2.538-0.08,5.079,0.006,7.616c0.054,1.6-0.635,2.242-1.914,2.445
		c-1.644,0.26-3.303,0.459-4.917,0.875c-0.561,0.145-1.117,0.762-1.481,1.322c-1.304,2.002-0.894,3.785,0.627,5.461
		c0.749,0.826,1.313,1.854,1.996,2.76c0.696,0.924,0.76,1.822-0.013,2.703c-1.8,2.047-3.605,4.09-5.431,6.111
		c-0.903,0.998-1.817,0.963-2.8,0.02c-1.185-1.137-2.444-2.18-3.679-3.25C46.332,71.997,45.986,71.774,45.657,71.532z
		 M35.665,62.993c6.405,0.002,11.672-5.836,11.702-12.969c0.029-7.038-5.319-13.098-11.621-13.168
		c-6.37-0.07-11.746,5.957-11.737,13.161C24.017,57.178,29.237,62.991,35.665,62.993z"/>
	<path class="st0" d="M81.395,57.315c1.707,1.084,3.168,2.078,4.688,2.947c0.925,0.531,1.064,1.26,0.74,2.217
		c-0.5,1.475-1.042,2.932-1.543,4.406c-0.597,1.756,0.511,3.85,2.133,4.117c1.392,0.229,2.776,0.525,4.17,0.75
		c0.935,0.152,1.43,0.582,1.367,1.762c-0.081,1.518-0.055,3.047-0.006,4.568c0.029,0.941-0.216,1.494-1.114,1.631
		c-1.444,0.221-2.877,0.533-4.322,0.752c-1.614,0.244-2.842,2.402-2.27,4.1c0.497,1.477,1.026,2.938,1.544,4.404
		c0.366,1.035,0.232,1.807-0.754,2.359c-1.213,0.684-2.391,1.455-3.54,2.268c-0.812,0.574-1.379,0.393-1.93-0.414
		c-0.764-1.123-1.575-2.201-2.35-3.313c-1.412-2.02-3.466-2.018-4.839-0.012c-0.795,1.164-1.654,2.273-2.46,3.428
		c-0.537,0.77-1.103,0.813-1.825,0.309c-1.196-0.836-2.404-1.656-3.651-2.393c-0.791-0.465-0.935-1.039-0.625-1.92
		c0.443-1.254,0.808-2.545,1.255-3.797c1.027-2.869,0.038-4.754-2.688-5.066c-4.552-0.521-4.549-0.521-4.551-5.648
		c-0.001-3.23-0.164-2.572,2.301-3.25c0.778-0.213,1.593-0.248,2.386-0.4c2.762-0.533,3.586-2.258,2.495-5.189
		c-1.789-4.813-1.789-4.813,2.301-7.412c1.887-1.199,1.892-1.203,3.258,0.641c0.58,0.779,1.146,1.574,1.699,2.379
		c1.59,2.316,3.391,2.332,4.982,0.07C79.24,60.194,80.283,58.827,81.395,57.315z M75.833,82.403
		c3.171-0.033,5.843-3.064,5.843-6.631c-0.001-3.545-2.708-6.6-5.869-6.621c-3.227-0.021-5.899,3.043-5.873,6.73
		C69.961,79.461,72.648,82.434,75.833,82.403z"/>
	<path class="st0" d="M92.932,24.189c0,3.825,0,3.829-3.382,4.437c-0.596,0.107-1.201,0.144-1.8,0.236
		c-2.088,0.321-3.125,2.312-2.359,4.502c0.458,1.31,0.892,2.631,1.364,3.934c0.401,1.104,0.27,1.901-0.782,2.482
		c-1.216,0.671-2.392,1.447-3.541,2.254c-0.752,0.528-1.289,0.396-1.811-0.357c-0.739-1.069-1.53-2.094-2.262-3.169
		c-1.698-2.495-3.415-2.492-5.148,0.01c-0.771,1.113-1.521,2.26-2.413,3.243c-0.309,0.342-1.126,0.494-1.519,0.283
		c-1.357-0.728-2.67-1.588-3.91-2.543c-0.358-0.275-0.66-1.109-0.559-1.57c0.295-1.359,0.77-2.674,1.238-3.977
		c1.079-3.001,0.117-4.827-2.769-5.183c-4.455-0.55-4.455-0.55-4.455-5.534c0-2.717-0.001-2.725,2.396-3.286
		c0.638-0.149,1.285-0.268,1.934-0.336c2.988-0.313,4.013-2.16,2.878-5.218c-1.823-4.915-1.776-4.826,2.322-7.559
		c1.472-0.982,2.336-0.767,3.223,0.709c0.504,0.84,1.128,1.586,1.683,2.389c1.624,2.357,3.408,2.3,5.076-0.032
		c3.749-5.242,2.235-4.409,7.133-1.661c1.562,0.876,1.748,1.901,1.097,3.48c-0.379,0.919-0.578,1.955-1.058,2.795
		c-1.252,2.192,0.403,5.228,2.696,5.069c0.398-0.028,0.807,0.028,1.205,0.089C92.932,20.21,92.932,20.213,92.932,24.189z
		 M75.737,30.742c3.243,0.017,5.884-2.855,5.937-6.455c0.054-3.627-2.662-6.679-5.924-6.658c-3.257,0.021-5.816,2.906-5.816,6.56
		C69.935,27.856,72.475,30.725,75.737,30.742z"/>
</g>
</svg>
