<?xml version="1.0" encoding="utf-8"?>
<!-- Generator: Adobe Illustrator 16.0.0, SVG Export Plug-In . SVG Version: 6.00 Build 0)  -->
<!DOCTYPE svg PUBLIC "-//W3C//DTD SVG 1.1//EN" "http://www.w3.org/Graphics/SVG/1.1/DTD/svg11.dtd" [
	<!ENTITY ns_flows "http://ns.adobe.com/Flows/1.0/">
	<!ENTITY ns_extend "http://ns.adobe.com/Extensibility/1.0/">
	<!ENTITY ns_ai "http://ns.adobe.com/AdobeIllustrator/10.0/">
	<!ENTITY ns_graphs "http://ns.adobe.com/Graphs/1.0/">
]>
<svg version="1.1" id="Capa_1" xmlns:x="&ns_extend;" xmlns:i="&ns_ai;" xmlns:graph="&ns_graphs;"
	 xmlns="http://www.w3.org/2000/svg" xmlns:xlink="http://www.w3.org/1999/xlink" xmlns:a="http://ns.adobe.com/AdobeSVGViewerExtensions/3.0/"
	 x="0px" y="0px" width="243.333px" height="164.409px" viewBox="0 0 243.333 164.409"
	 style="enable-background:new 0 0 243.333 164.409;" xml:space="preserve">
<style type="text/css">
<![CDATA[
	.st0{fill:#468933;}
	.st1{fill-rule:evenodd;clip-rule:evenodd;fill:#0A0A0A;}
	.st2{fill:#1D1D1B;}
	.st3{fill:#5AAF33;}
	.st4{fill-rule:evenodd;clip-rule:evenodd;stroke:#FFFFFF;stroke-miterlimit:10;}
	.st5{fill-rule:evenodd;clip-rule:evenodd;}
	.st6{fill-rule:evenodd;clip-rule:evenodd;fill:#5AAF33;}
	.st7{fill-rule:evenodd;clip-rule:evenodd;fill:#FFFFFF;}
	.st8{fill:#0A0A0A;}
	.st9{fill:#0D0E0D;}
]]>
</style>
<g>
	<g>
		<path class="st5" d="M188.534,117.169c-0.6,4.101-1.146,7.917-1.719,11.73c-1.793,11.943-8.425,20.1-19.843,23.752
			c-11.491,3.677-21.735,0.86-30.173-7.83c-3.751-3.864-7.253-7.97-11.094-12.215c-0.646,0.938-1.208,1.733-1.75,2.542
			c-3.489,5.197-6.542,10.757-10.536,15.531c-14.729,17.614-42.698,16.03-55.754-2.838c-3.582-5.176-5.105-11.045-6.501-17.012
			c-1.153-4.93-1.177-4.988-6.249-4.586c-11.792,0.934-22.116-2.281-30.304-11.022C-3.073,96.339,5.312,65.746,30.167,58.474
			c3.681-1.077,7.563-1.464,11.353-2.168c1.28-0.238,2.561-0.471,3.883-0.713c0.226-3.779,0.499-7.406,0.651-11.037
			C46.935,23.525,63.46,5.18,84.279,2.051c15.896-2.39,29.737,1.96,40.823,13.451c4.584,4.751,7.76,10.863,11.563,16.365
			c0.697,1.011,1.331,2.066,2.15,3.344c3.227-2.037,6.4-3.908,9.435-5.986c5.071-3.473,10.479-5.918,16.683-6.532
			c16.13-1.595,30.973,8.793,34.936,24.541c0.498,1.976,1.177,3.918,1.508,5.919c0.27,1.636,1.191,2.026,2.612,2.328
			c5.107,1.082,10.443,1.659,15.225,3.587c12.561,5.066,20.228,18.588,18.735,31.831c-1.559,13.828-11.906,25.033-25.331,27.781
			c-6.413,1.312-12.612,0.033-18.879-0.792C192.091,117.671,190.446,117.433,188.534,117.169z"/>
	</g>
	<g>
		<path class="st3" d="M82.846,48.765l-4.982,3.275c-2.145,1.413-2.748,4.309-1.335,6.459l2,3.044
			c0.544,0.823,0.433,2.27-0.245,3.166c-0.624,0.832-1.215,1.704-1.752,2.602c-0.576,0.962-1.87,1.6-2.839,1.402l-3.593-0.745
			c-2.515-0.518-4.986,1.11-5.509,3.625l-1.207,5.834c-0.25,1.22-0.014,2.465,0.671,3.505c0.682,1.037,1.732,1.747,2.95,2.003
			l3.594,0.743c0.581,0.114,1.168,0.562,1.579,1.186c0.254,0.383,0.42,0.821,0.476,1.219c0.136,1.039,0.336,2.08,0.586,3.094
			c0.264,1.083-0.208,2.46-1.036,3.005l-3.038,2.001c-2.149,1.411-2.744,4.306-1.328,6.457l3.266,4.972
			c1.414,2.147,4.31,2.743,6.455,1.334l3.042-2.002c0.826-0.543,2.28-0.432,3.174,0.249c0.831,0.627,1.701,1.218,2.604,1.752
			c0.355,0.211,0.672,0.532,0.928,0.918c0.408,0.625,0.586,1.337,0.465,1.923l-0.741,3.591c-0.252,1.217-0.012,2.462,0.669,3.506
			c0.685,1.039,1.735,1.75,2.951,1.999l5.841,1.206c2.52,0.522,4.992-1.105,5.509-3.624l0.744-3.593
			c0.197-0.968,1.3-1.901,2.402-2.053c1.046-0.142,2.081-0.33,3.086-0.58c1.093-0.266,2.469,0.209,3.01,1.03l2.005,3.048
			c1.412,2.147,4.309,2.743,6.461,1.326l4.977-3.271c2.145-1.413,2.744-4.309,1.334-6.456l-2.006-3.048
			c-0.539-0.82-0.43-2.268,0.244-3.167c0.631-0.826,1.217-1.703,1.76-2.601c0.568-0.954,1.869-1.591,2.838-1.395l3.592,0.737
			c1.219,0.254,2.461,0.02,3.504-0.667c1.037-0.683,1.752-1.734,2.002-2.95l1.201-5.84c0.256-1.217,0.018-2.46-0.668-3.501
			c-0.688-1.043-1.73-1.754-2.953-2.006l-3.588-0.745c-0.574-0.115-1.166-0.558-1.578-1.182c-0.25-0.384-0.422-0.813-0.475-1.223
			c-0.133-1.036-0.326-2.075-0.58-3.086c-0.264-1.091,0.205-2.467,1.027-3.01l3.045-2.003c2.152-1.416,2.748-4.31,1.336-6.457
			l-3.27-4.971c-1.414-2.146-4.309-2.746-6.457-1.33l-3.047,2.002c-0.824,0.54-2.275,0.424-3.168-0.246
			c-0.832-0.635-1.711-1.225-2.612-1.767c-0.356-0.204-0.679-0.53-0.935-0.918c-0.41-0.623-0.584-1.335-0.462-1.912l0.741-3.593
			c0.252-1.225,0.014-2.465-0.672-3.503c-0.68-1.038-1.729-1.754-2.954-2.006l-5.83-1.21c-2.522-0.514-4.991,1.111-5.509,3.624
			l-0.741,3.594c-0.201,0.968-1.303,1.907-2.405,2.058c-1.043,0.137-2.081,0.329-3.093,0.582c-1.09,0.261-2.463-0.212-3.003-1.034
			l-2.005-3.043C87.889,47.953,84.988,47.354,82.846,48.765z M112.689,74.706c4.137,6.288,2.378,14.774-3.909,18.909
			c-6.297,4.141-14.779,2.39-18.915-3.9c-4.143-6.292-2.396-14.778,3.901-18.918C100.057,66.659,108.551,68.411,112.689,74.706z"/>
		<path class="st0" d="M147.241,86.545c-0.129,0.217-0.461,0.361-0.594,0.332l-1.793-0.366c-1.682-0.347-3.332,0.736-3.676,2.415
			l-0.605,2.915c-0.168,0.813-0.012,1.645,0.445,2.337c0.459,0.698,1.156,1.161,1.971,1.337l1.799,0.367
			c0.055,0.016,0.184,0.096,0.293,0.263c0.063,0.097,0.102,0.196,0.121,0.285c0.07,0.545,0.166,1.093,0.305,1.628
			c0.057,0.253-0.074,0.589-0.191,0.668l-1.523,1.001c-1.432,0.945-1.832,2.87-0.885,4.304l1.635,2.49
			c0.939,1.429,2.873,1.83,4.305,0.887l1.523-1c0.119-0.077,0.479-0.067,0.691,0.093c0.438,0.329,0.902,0.641,1.375,0.922
			c0.076,0.048,0.152,0.129,0.215,0.225c0.111,0.163,0.127,0.314,0.121,0.372l-0.375,1.795c-0.166,0.815-0.01,1.646,0.447,2.336
			c0.457,0.698,1.158,1.168,1.971,1.339l2.918,0.599c0.813,0.171,1.643,0.009,2.336-0.443c0.697-0.46,1.168-1.158,1.336-1.97
			l0.371-1.798c0.025-0.133,0.291-0.379,0.543-0.411c0.547-0.073,1.096-0.176,1.627-0.304c0.256-0.063,0.596,0.069,0.672,0.185
			l1.002,1.526c0.943,1.43,2.869,1.829,4.305,0.884l2.486-1.634c1.43-0.941,1.83-2.87,0.889-4.301l-1.002-1.525
			c-0.078-0.116-0.064-0.479,0.098-0.689c0.33-0.441,0.639-0.897,0.924-1.373c0.129-0.226,0.461-0.365,0.592-0.335l1.793,0.372
			c1.678,0.345,3.332-0.743,3.674-2.418l0.602-2.912c0.168-0.816,0.016-1.646-0.443-2.341c-0.453-0.694-1.158-1.166-1.977-1.334
			l-1.787-0.369c-0.059-0.017-0.188-0.096-0.295-0.262c-0.064-0.096-0.105-0.197-0.115-0.283c-0.074-0.548-0.182-1.096-0.309-1.629
			c-0.064-0.257,0.066-0.592,0.184-0.671l1.525-1.001c1.432-0.942,1.826-2.875,0.891-4.304l-1.641-2.49
			c-0.941-1.434-2.871-1.832-4.305-0.888l-1.523,0.998c-0.117,0.079-0.479,0.064-0.689-0.096c-0.439-0.327-0.896-0.642-1.369-0.919
			c-0.078-0.048-0.152-0.126-0.219-0.222c-0.107-0.167-0.133-0.32-0.121-0.376l0.371-1.79c0.168-0.817,0.014-1.647-0.441-2.343
			c-0.459-0.694-1.16-1.164-1.971-1.335l-2.916-0.599c-1.678-0.35-3.324,0.732-3.672,2.415l-0.373,1.793
			c-0.023,0.135-0.287,0.379-0.541,0.415c-0.549,0.068-1.096,0.173-1.629,0.303c-0.26,0.062-0.596-0.069-0.67-0.183l-1.002-1.522
			c-0.943-1.433-2.877-1.837-4.307-0.894l-2.488,1.635c-1.432,0.943-1.824,2.871-0.881,4.306l0.998,1.524
			c0.08,0.112,0.059,0.478-0.1,0.689C147.835,85.608,147.526,86.068,147.241,86.545z M165.337,91.061
			c1.836,2.79,1.059,6.55-1.732,8.384c-2.787,1.836-6.547,1.061-8.383-1.731c-1.832-2.789-1.057-6.55,1.729-8.385
			C159.743,87.493,163.503,88.273,165.337,91.061z"/>
	</g>
</g>
</svg>
