<?xml version="1.0" encoding="utf-8"?>
<!-- Generator: Adobe Illustrator 16.0.0, SVG Export Plug-In . SVG Version: 6.00 Build 0)  -->
<!DOCTYPE svg PUBLIC "-//W3C//DTD SVG 1.1//EN" "http://www.w3.org/Graphics/SVG/1.1/DTD/svg11.dtd" [
	<!ENTITY ns_flows "http://ns.adobe.com/Flows/1.0/">
	<!ENTITY ns_extend "http://ns.adobe.com/Extensibility/1.0/">
	<!ENTITY ns_ai "http://ns.adobe.com/AdobeIllustrator/10.0/">
	<!ENTITY ns_graphs "http://ns.adobe.com/Graphs/1.0/">
]>
<svg version="1.1" id="Capa_1" xmlns:x="&ns_extend;" xmlns:i="&ns_ai;" xmlns:graph="&ns_graphs;"
	 xmlns="http://www.w3.org/2000/svg" xmlns:xlink="http://www.w3.org/1999/xlink" xmlns:a="http://ns.adobe.com/AdobeSVGViewerExtensions/3.0/"
	 x="0px" y="0px" width="213px" height="164.41px" viewBox="0 0 213 164.41" style="enable-background:new 0 0 213 164.41;"
	 xml:space="preserve">
<style type="text/css">
<![CDATA[
	.st0{fill:#468933;}
	.st1{fill-rule:evenodd;clip-rule:evenodd;fill:#0A0A0A;}
	.st2{fill:#1D1D1B;}
	.st3{fill:#5AAF33;}
	.st4{fill-rule:evenodd;clip-rule:evenodd;stroke:#FFFFFF;stroke-miterlimit:10;}
	.st5{fill-rule:evenodd;clip-rule:evenodd;}
	.st6{fill-rule:evenodd;clip-rule:evenodd;fill:#5AAF33;}
	.st7{fill-rule:evenodd;clip-rule:evenodd;fill:#FFFFFF;}
	.st8{fill:#0A0A0A;}
	.st9{fill:#0D0E0D;}
]]>
</style>
<g>
	<path class="st2" d="M60.248,97.229v36.168c0,1.401-1.563,2.203-4.291,2.203H37.402c-2.611,0-4.205-0.823-4.205-2.16
		c-0.011-6.047,0-12.081,0-18.127V97.261c0-1.423,1.541-2.215,4.334-2.215H56C58.674,95.046,60.248,95.859,60.248,97.229z"/>
	<path class="st2" d="M100.406,47.408v83.142c0,3.21-1.563,5.04-4.303,5.05H77.561c-2.621-0.01-4.215-1.883-4.215-4.954V47.504
		c0-3.273,1.551-5.093,4.333-5.093c6.152,0,12.315-0.011,18.468,0C98.822,42.411,100.406,44.262,100.406,47.408z"/>
	<path class="st2" d="M140.521,72.757v59.237c0,2.289-1.563,3.605-4.291,3.605h-18.555c-2.621,0-4.205-1.337-4.205-3.53
		c-0.01-9.897-0.01-19.796-0.01-29.693V72.821c0-2.332,1.551-3.627,4.344-3.627h18.469
		C138.949,69.194,140.521,70.521,140.521,72.757z"/>
	<path class="st2" d="M180.775,34.439v95.479c0,3.68-1.563,5.788-4.301,5.788c-6.186,0.011-12.359,0.011-18.543,0
		c-2.623,0-4.217-2.15-4.217-5.682V34.546c0-3.766,1.551-5.853,4.334-5.853h18.469C179.193,28.703,180.775,30.833,180.775,34.439z"
		/>
	<path class="st2" d="M193.734,1.418H19.266c-7.095,0-12.84,5.746-12.84,12.84v135.895c0,7.095,5.745,12.84,12.84,12.84h174.469
		c7.094,0,12.84-5.745,12.84-12.84V14.258C206.574,7.164,200.828,1.418,193.734,1.418z M193.787,136.767
		c0,7.094-5.756,12.84-12.84,12.84H32.962c-7.084,0-12.841-5.746-12.841-12.84V28.501c0-7.095,5.757-12.841,12.841-12.841h147.985
		c7.084,0,12.84,5.746,12.84,12.841V136.767z"/>
	<path class="st7" d="M60.248,97.229v36.168c0,1.401-1.563,2.203-4.291,2.203H37.402c-2.611,0-4.205-0.823-4.205-2.16
		c-0.011-6.047,0-12.081,0-18.127V97.261c0-1.423,1.541-2.215,4.334-2.215H56C58.674,95.046,60.248,95.859,60.248,97.229z"/>
	<path class="st7" d="M100.406,47.408v83.142c0,3.21-1.563,5.04-4.303,5.05H77.561c-2.621-0.01-4.215-1.883-4.215-4.954V47.504
		c0-3.273,1.551-5.093,4.333-5.093c6.152,0,12.315-0.011,18.468,0C98.822,42.411,100.406,44.262,100.406,47.408z"/>
	<path class="st7" d="M140.521,72.757v59.237c0,2.289-1.563,3.605-4.291,3.605h-18.555c-2.621,0-4.205-1.337-4.205-3.53
		c-0.01-9.897-0.01-19.796-0.01-29.693V72.821c0-2.332,1.551-3.627,4.344-3.627h18.469
		C138.949,69.194,140.521,70.521,140.521,72.757z"/>
	<path class="st7" d="M180.775,34.439v95.479c0,3.68-1.563,5.788-4.301,5.788c-6.186,0.011-12.359,0.011-18.543,0
		c-2.623,0-4.217-2.15-4.217-5.682V34.546c0-3.766,1.551-5.853,4.334-5.853h18.469C179.193,28.703,180.775,30.833,180.775,34.439z"
		/>
	<g>
		<path class="st6" d="M180.775,34.439v95.479c0,3.68-1.563,5.788-4.301,5.788c-6.186,0.011-12.359,0.011-18.543,0
			c-2.623,0-4.217-2.15-4.217-5.682V34.546c0-3.766,1.551-5.853,4.334-5.853h18.469C179.193,28.703,180.775,30.833,180.775,34.439z"
			/>
	</g>
	<g>
		<path class="st6" d="M140.521,72.757v59.237c0,2.289-1.563,3.605-4.291,3.605h-18.555c-2.621,0-4.205-1.337-4.205-3.53
			c-0.01-9.897-0.01-19.796-0.01-29.693V72.821c0-2.332,1.551-3.627,4.344-3.627h18.469
			C138.949,69.194,140.521,70.521,140.521,72.757z"/>
	</g>
	<g>
		<path class="st6" d="M100.406,47.408v83.142c0,3.21-1.563,5.04-4.303,5.05H77.561c-2.621-0.01-4.215-1.883-4.215-4.954V47.504
			c0-3.273,1.551-5.093,4.333-5.093c6.152,0,12.315-0.011,18.468,0C98.822,42.411,100.406,44.262,100.406,47.408z"/>
	</g>
	<g>
		<path class="st6" d="M60.248,97.229v36.168c0,1.401-1.563,2.203-4.291,2.203H37.402c-2.611,0-4.205-0.823-4.205-2.16
			c-0.011-6.047,0-12.081,0-18.127V97.261c0-1.423,1.541-2.215,4.334-2.215H56C58.674,95.046,60.248,95.859,60.248,97.229z"/>
	</g>
</g>
</svg>
