<?xml version="1.0" encoding="utf-8"?>
<!-- Generator: Adobe Illustrator 16.0.0, SVG Export Plug-In . SVG Version: 6.00 Build 0)  -->
<!DOCTYPE svg PUBLIC "-//W3C//DTD SVG 1.1//EN" "http://www.w3.org/Graphics/SVG/1.1/DTD/svg11.dtd" [
	<!ENTITY ns_flows "http://ns.adobe.com/Flows/1.0/">
	<!ENTITY ns_extend "http://ns.adobe.com/Extensibility/1.0/">
	<!ENTITY ns_ai "http://ns.adobe.com/AdobeIllustrator/10.0/">
	<!ENTITY ns_graphs "http://ns.adobe.com/Graphs/1.0/">
]>
<svg version="1.1" id="Capa_1" xmlns:x="&ns_extend;" xmlns:i="&ns_ai;" xmlns:graph="&ns_graphs;"
	 xmlns="http://www.w3.org/2000/svg" xmlns:xlink="http://www.w3.org/1999/xlink" xmlns:a="http://ns.adobe.com/AdobeSVGViewerExtensions/3.0/"
	 x="0px" y="0px" width="213px" height="164.41px" viewBox="0 0 213 164.41" style="enable-background:new 0 0 213 164.41;"
	 xml:space="preserve">
<style type="text/css">
<![CDATA[
	.st0{fill:#468933;}
	.st1{fill-rule:evenodd;clip-rule:evenodd;fill:#0A0A0A;}
	.st2{fill:#1D1D1B;}
	.st3{fill:#5AAF33;}
	.st4{fill-rule:evenodd;clip-rule:evenodd;stroke:#FFFFFF;stroke-miterlimit:10;}
	.st5{fill-rule:evenodd;clip-rule:evenodd;}
	.st6{fill-rule:evenodd;clip-rule:evenodd;fill:#5AAF33;}
	.st7{fill-rule:evenodd;clip-rule:evenodd;fill:#FFFFFF;}
	.st8{fill:#0A0A0A;}
	.st9{fill:#0D0E0D;}
]]>
</style>
<g>
	<g>
		<g>
			<g>
				<path class="st5" d="M82.525,58.116c-5.297-5.298-10.566-10.566-15.938-15.938C61.225,47.541,55.92,52.846,50.6,58.167
					c-0.928-0.725-1.551-1.356-1.629-2.558c-0.219-3.342-2.781-6.19-6.098-7.026c-3.352-0.844-6.896,0.513-8.795,3.365
					c-1.955,2.937-1.887,6.666,0.137,9.403c1.531,2.075,3.578,3.114,6.127,3.418c0.746,0.089,1.424,0.755,2.318,1.263
					c-5.523,5.524-10.83,10.83-16.174,16.175c5.412,5.413,10.723,10.725,16.078,16.079c1.047-0.9,1.961-1.676,2.109-3.26
					c0.34-3.598,3.301-6.418,6.904-6.922c3.564-0.496,7.049,1.4,8.549,4.654c1.543,3.352,0.713,7.199-2.02,9.594
					c-1.211,1.063-2.59,1.861-4.166,1.9c-1.625,0.041-2.332,1.127-3.277,2.131c5.281,5.281,10.527,10.527,15.832,15.832
					c5.252-5.25,10.512-10.512,15.832-15.83c-0.779-0.867-1.426-1.742-2.863-1.893c-4.398-0.457-7.428-4.305-7.111-8.777
					c0.293-4.104,3.982-7.496,8.133-7.48c4.393,0.02,7.859,3.365,8.24,7.721c0.074,0.844,0.928,1.619,1.494,2.543
					c5.551-5.551,10.902-10.902,16.328-16.328c-5.307-5.307-10.596-10.595-15.92-15.92c0.68-0.807,1.242-1.4,2.375-1.483
					c3.422-0.251,6.244-2.748,7.082-6.038c0.871-3.42-0.414-6.836-3.346-8.895c-2.621-1.843-6.494-1.877-9.18-0.009
					c-1.996,1.388-3.316,3.293-3.498,5.742C83.975,56.759,83.387,57.41,82.525,58.116z"/>
				<path class="st2" d="M66.496,123.014l-16.619-16.619l0.375-0.4c0.133-0.141,0.262-0.283,0.389-0.426
					c0.813-0.904,1.652-1.84,3.287-1.879c1.246-0.031,2.492-0.607,3.809-1.762c2.553-2.238,3.307-5.828,1.877-8.934
					c-1.232-2.676-3.943-4.404-6.904-4.404c-0.35,0-0.703,0.025-1.053,0.072c-3.414,0.477-6.115,3.176-6.42,6.416
					c-0.168,1.797-1.193,2.68-2.277,3.613l-0.424,0.365l-16.848-16.85L41.76,66.134c-0.082-0.055-0.162-0.109-0.242-0.163
					c-0.471-0.321-0.879-0.598-1.242-0.642c-2.822-0.337-4.953-1.528-6.516-3.644c-2.186-2.959-2.246-6.905-0.152-10.051
					c1.611-2.42,4.328-3.865,7.266-3.865c0.721,0,1.439,0.09,2.139,0.266c3.609,0.909,6.291,4.009,6.521,7.536
					c0.053,0.792,0.377,1.274,1.027,1.835l16.027-16.028l15.967,15.966c0.578-0.533,0.887-1.026,0.945-1.818
					c0.182-2.459,1.473-4.59,3.738-6.164c1.379-0.96,3.123-1.489,4.908-1.489c1.797,0,3.543,0.532,4.918,1.499
					c3.133,2.2,4.5,5.839,3.568,9.496c-0.916,3.599-3.965,6.195-7.586,6.462c-0.719,0.053-1.131,0.332-1.646,0.894l15.947,15.946
					L90.113,99.404l-0.375-0.611c-0.17-0.277-0.377-0.551-0.576-0.816c-0.459-0.611-0.934-1.242-0.998-1.973
					c-0.357-4.09-3.658-7.188-7.68-7.205h-0.029c-3.816,0-7.27,3.186-7.537,6.957c-0.303,4.238,2.539,7.752,6.605,8.176
					c1.527,0.158,2.287,1.018,3.023,1.848l0.559,0.625L66.496,123.014z M51.443,106.365l15.053,15.051l15.057-15.055
					c-0.605-0.68-1.137-1.201-2.146-1.307c-4.686-0.488-7.961-4.52-7.615-9.379c0.314-4.414,4.201-8.006,8.664-8.006h0.033
					c4.609,0.02,8.393,3.561,8.801,8.236c0.037,0.408,0.396,0.885,0.775,1.391c0.08,0.105,0.16,0.211,0.238,0.32L105.75,82.17
					L89.863,66.283l0.334-0.396c0.754-0.894,1.436-1.584,2.766-1.682c3.137-0.23,5.779-2.487,6.576-5.615
					c0.813-3.191-0.385-6.369-3.123-8.293c-1.188-0.834-2.703-1.294-4.27-1.294c-1.557,0-3.07,0.457-4.264,1.287
					c-2.004,1.393-3.1,3.183-3.258,5.32c-0.109,1.486-0.92,2.269-1.74,2.942l-0.396,0.324l-15.9-15.901L50.645,58.919l-0.395-0.309
					c-0.916-0.717-1.746-1.483-1.844-2.966c-0.199-3.044-2.531-5.724-5.672-6.515c-0.607-0.153-1.234-0.231-1.861-0.231
					c-2.561,0-4.924,1.257-6.324,3.361c-1.828,2.746-1.781,6.183,0.119,8.755c1.367,1.852,3.244,2.896,5.74,3.193
					c0.637,0.076,1.176,0.441,1.744,0.829c0.252,0.17,0.512,0.347,0.787,0.503l0.645,0.365L27.283,82.207l15.309,15.309
					c0.805-0.713,1.41-1.373,1.521-2.543c0.354-3.756,3.459-6.881,7.387-7.428c0.4-0.057,0.807-0.084,1.209-0.084
					c3.4,0,6.514,1.986,7.93,5.061c1.643,3.563,0.775,7.684-2.158,10.254c-1.523,1.336-3.004,2.004-4.525,2.041
					c-1.146,0.029-1.732,0.682-2.475,1.508C51.469,106.338,51.457,106.352,51.443,106.365z"/>
			</g>
		</g>
		<g>
			<g>
				<path class="st5" d="M130.473,106.314c5.299,5.299,10.566,10.566,15.939,15.939c5.363-5.363,10.668-10.67,15.988-15.99
					c0.928,0.725,1.551,1.357,1.629,2.559c0.219,3.342,2.781,6.189,6.098,7.025c3.352,0.844,6.896-0.512,8.795-3.365
					c1.955-2.936,1.887-6.666-0.137-9.402c-1.531-2.076-3.578-3.115-6.127-3.418c-0.746-0.09-1.424-0.756-2.318-1.262
					c5.523-5.525,10.83-10.832,16.174-16.176c-5.412-5.413-10.725-10.725-16.078-16.079c-1.047,0.9-1.961,1.677-2.111,3.261
					c-0.338,3.597-3.299,6.418-6.904,6.921c-3.563,0.498-7.047-1.4-8.547-4.654c-1.543-3.35-0.715-7.198,2.018-9.593
					c1.213-1.063,2.592-1.862,4.168-1.901c1.625-0.041,2.332-1.127,3.277-2.13c-5.281-5.282-10.527-10.527-15.832-15.833
					c-5.252,5.251-10.512,10.512-15.832,15.832c0.779,0.866,1.426,1.741,2.861,1.891c4.4,0.457,7.43,4.305,7.111,8.777
					c-0.291,4.104-3.98,7.497-8.131,7.48c-4.393-0.018-7.861-3.364-8.24-7.72c-0.074-0.844-0.928-1.619-1.494-2.544
					c-5.551,5.552-10.902,10.903-16.328,16.328c5.307,5.306,10.596,10.595,15.92,15.921c-0.68,0.805-1.242,1.398-2.375,1.482
					c-3.424,0.252-6.244,2.748-7.082,6.037c-0.871,3.42,0.414,6.836,3.346,8.896c2.621,1.842,6.492,1.877,9.18,0.008
					c1.994-1.389,3.316-3.293,3.498-5.742C129.025,107.672,129.613,107.021,130.473,106.314z"/>
				<path class="st2" d="M146.412,123.053l-15.967-15.967c-0.578,0.533-0.887,1.025-0.945,1.818
					c-0.182,2.457-1.475,4.59-3.738,6.164c-1.381,0.961-3.123,1.488-4.908,1.488l0,0c-1.797,0-3.543-0.531-4.918-1.498
					c-3.133-2.201-4.5-5.84-3.568-9.496c0.916-3.6,3.965-6.195,7.588-6.463c0.715-0.051,1.129-0.332,1.645-0.893L105.652,82.26
					l17.234-17.234l0.375,0.611c0.17,0.277,0.375,0.552,0.574,0.817c0.459,0.61,0.936,1.242,0.998,1.973
					c0.359,4.091,3.66,7.188,7.682,7.204c3.846,0,7.299-3.186,7.566-6.956c0.301-4.238-2.539-7.753-6.607-8.176
					c-1.527-0.159-2.287-1.019-3.021-1.849l-0.559-0.625l16.609-16.609l16.619,16.621l-0.375,0.398
					c-0.135,0.142-0.262,0.284-0.389,0.426c-0.813,0.904-1.652,1.84-3.287,1.88c-1.246,0.031-2.492,0.607-3.809,1.762
					c-2.555,2.238-3.309,5.828-1.877,8.933c1.232,2.676,3.943,4.405,6.902,4.405c0.352,0,0.705-0.025,1.053-0.073
					c3.416-0.477,6.117-3.175,6.422-6.415c0.168-1.799,1.193-2.681,2.279-3.615l0.422-0.362l16.848,16.849L171.24,98.297
					c0.082,0.055,0.162,0.109,0.242,0.162c0.471,0.322,0.879,0.598,1.242,0.643c2.822,0.336,4.953,1.527,6.516,3.643
					c2.186,2.959,2.246,6.906,0.15,10.053c-1.609,2.42-4.326,3.863-7.264,3.863c-0.721,0-1.439-0.09-2.139-0.266
					c-3.609-0.908-6.291-4.008-6.521-7.535c-0.053-0.793-0.377-1.275-1.027-1.836L146.412,123.053z M130.51,105.555l15.902,15.9
					l15.943-15.943l0.393,0.309c0.918,0.717,1.748,1.482,1.844,2.965c0.199,3.045,2.533,5.725,5.674,6.516
					c0.607,0.152,1.234,0.23,1.861,0.23c2.559,0,4.924-1.256,6.324-3.361c1.828-2.746,1.781-6.182-0.119-8.754
					c-1.367-1.852-3.244-2.896-5.74-3.193c-0.637-0.076-1.176-0.441-1.744-0.83c-0.252-0.17-0.512-0.346-0.787-0.502l-0.645-0.365
					l16.301-16.301l-15.309-15.309c-0.807,0.712-1.412,1.372-1.521,2.543c-0.354,3.756-3.461,6.879-7.389,7.428
					c-0.398,0.056-0.805,0.084-1.209,0.084c-3.398,0-6.512-1.987-7.928-5.063c-1.643-3.562-0.775-7.683,2.158-10.253
					c1.523-1.336,3.004-2.004,4.525-2.041c1.146-0.028,1.732-0.681,2.473-1.507c0.014-0.014,0.025-0.027,0.037-0.041l-15.051-15.052
					L131.447,58.07c0.605,0.68,1.137,1.201,2.145,1.307c4.688,0.487,7.963,4.52,7.617,9.379c-0.314,4.413-4.201,8.005-8.666,8.005
					h-0.031c-4.609-0.019-8.393-3.559-8.801-8.234c-0.037-0.409-0.396-0.887-0.777-1.394c-0.078-0.104-0.158-0.21-0.238-0.318
					L107.25,82.26l15.887,15.888l-0.334,0.396c-0.754,0.893-1.436,1.584-2.766,1.682c-3.137,0.23-5.779,2.486-6.576,5.615
					c-0.813,3.189,0.385,6.369,3.123,8.293c1.186,0.834,2.703,1.293,4.27,1.293c1.557,0,3.07-0.457,4.264-1.287
					c2.004-1.393,3.1-3.184,3.256-5.32c0.109-1.486,0.922-2.268,1.742-2.941L130.51,105.555z"/>
			</g>
		</g>
		<g>
			<g>
				<path class="st1" d="M130.641,58.257c5.297-5.299,10.566-10.567,15.938-15.939c-5.363-5.363-10.668-10.668-15.988-15.989
					c0.725-0.927,1.355-1.55,2.559-1.628c3.342-0.219,6.189-2.78,7.025-6.098c0.844-3.351-0.514-6.896-3.365-8.794
					c-2.938-1.955-6.666-1.886-9.404,0.136c-2.074,1.532-3.113,3.579-3.418,6.128c-0.088,0.746-0.754,1.423-1.262,2.319
					c-5.523-5.525-10.83-10.831-16.176-16.175c-5.412,5.413-10.723,10.724-16.078,16.08c0.9,1.046,1.676,1.96,3.262,2.11
					c3.596,0.338,6.416,3.299,6.92,6.904c0.498,3.563-1.4,7.047-4.654,8.547c-3.352,1.544-7.197,0.714-9.594-2.018
					c-1.063-1.211-1.861-2.59-1.9-4.168c-0.041-1.624-1.127-2.332-2.129-3.277c-5.283,5.282-10.527,10.527-15.834,15.833
					c5.252,5.251,10.512,10.512,15.832,15.831c0.865-0.778,1.74-1.426,1.891-2.862c0.457-4.398,4.305-7.429,8.777-7.111
					c4.104,0.292,7.496,3.981,7.48,8.133c-0.018,4.392-3.363,7.859-7.721,8.24c-0.842,0.074-1.619,0.928-2.543,1.493
					c5.551,5.552,10.902,10.902,16.328,16.328c5.307-5.307,10.594-10.595,15.92-15.92c0.807,0.681,1.4,1.243,1.482,2.376
					c0.252,3.422,2.748,6.243,6.039,7.081c3.42,0.871,6.836-0.414,8.895-3.345c1.842-2.622,1.877-6.493,0.008-9.181
					c-1.387-1.995-3.293-3.316-5.742-3.497C131.996,59.706,131.348,59.118,130.641,58.257z"/>
				<path class="st8" d="M106.586,83.078L89.352,65.843l0.611-0.374c0.277-0.17,0.553-0.376,0.816-0.576
					c0.611-0.459,1.242-0.934,1.973-0.998c4.092-0.357,7.188-3.659,7.205-7.681c0.014-3.832-3.17-7.297-6.955-7.566
					c-0.201-0.015-0.404-0.021-0.604-0.021c-3.988,0-7.174,2.787-7.574,6.628c-0.158,1.528-1.018,2.288-1.848,3.023l-0.625,0.559
					L65.742,42.227l16.621-16.621l0.398,0.376c0.143,0.134,0.285,0.262,0.426,0.389c0.904,0.813,1.84,1.652,1.881,3.285
					c0.029,1.247,0.605,2.493,1.762,3.81c1.445,1.649,3.52,2.596,5.691,2.595c1.115,0,2.205-0.242,3.24-0.718
					c3.01-1.388,4.791-4.66,4.332-7.957c-0.477-3.415-3.174-6.115-6.414-6.42c-1.799-0.169-2.682-1.194-3.615-2.279l-0.363-0.421
					l16.848-16.849l16.074,16.072c0.053-0.082,0.107-0.162,0.162-0.241c0.32-0.472,0.598-0.88,0.641-1.244
					c0.338-2.822,1.529-4.954,3.645-6.515c1.479-1.093,3.238-1.67,5.088-1.67c1.754,0,3.471,0.525,4.963,1.519
					c3.057,2.035,4.504,5.813,3.6,9.402c-0.91,3.61-4.008,6.292-7.537,6.522c-0.791,0.052-1.273,0.377-1.834,1.027l16.027,16.028
					L131.41,58.285c0.533,0.578,1.027,0.888,1.82,0.945c2.457,0.182,4.588,1.474,6.162,3.738c1.988,2.857,1.984,6.99-0.008,9.827
					c-1.723,2.449-4.363,3.854-7.246,3.854l0,0c-0.75,0-1.506-0.097-2.25-0.286c-3.6-0.917-6.197-3.966-6.463-7.587
					c-0.053-0.717-0.332-1.13-0.895-1.646L106.586,83.078z M91.139,66.034l15.447,15.446l15.887-15.887l0.396,0.334
					c0.895,0.754,1.586,1.436,1.684,2.766c0.229,3.137,2.486,5.779,5.613,6.576c0.654,0.166,1.316,0.251,1.973,0.251l0,0
					c2.512,0,4.814-1.229,6.32-3.374c1.732-2.463,1.734-6.051,0.008-8.533c-1.393-2.004-3.184-3.1-5.32-3.257
					c-1.486-0.109-2.27-0.92-2.943-1.741l-0.324-0.396l15.902-15.901l-15.943-15.943l0.307-0.394
					c0.717-0.917,1.482-1.747,2.967-1.844c3.045-0.199,5.723-2.531,6.514-5.672c0.789-3.126-0.469-6.417-3.129-8.187
					c-1.307-0.87-2.807-1.33-4.338-1.33c-1.605,0-3.133,0.501-4.418,1.45c-1.85,1.367-2.895,3.244-3.193,5.741
					c-0.076,0.637-0.441,1.175-0.828,1.745c-0.17,0.251-0.348,0.51-0.502,0.786l-0.367,0.646L106.549,3.014L91.242,18.323
					c0.711,0.805,1.371,1.41,2.543,1.521c3.754,0.354,6.879,3.46,7.426,7.388c0.529,3.786-1.518,7.543-4.977,9.138
					c-1.184,0.545-2.434,0.822-3.713,0.822c-2.496,0-4.881-1.086-6.541-2.98c-1.336-1.523-2.004-3.004-2.041-4.526
					c-0.029-1.146-0.682-1.731-1.506-2.473c-0.014-0.013-0.027-0.025-0.041-0.038L67.34,42.227l15.055,15.056
					c0.68-0.606,1.201-1.136,1.307-2.146c0.461-4.427,4.119-7.64,8.697-7.64c0.227,0,0.455,0.008,0.682,0.024
					c4.432,0.315,8.023,4.217,8.006,8.697c-0.02,4.608-3.559,8.392-8.234,8.801c-0.408,0.036-0.887,0.396-1.393,0.775
					C91.354,65.875,91.248,65.955,91.139,66.034z"/>
			</g>
		</g>
		<g>
			<g>
				<path class="st1" d="M82.451,138.172c-5.299-5.299-10.566-10.566-15.939-15.939c5.363-5.363,10.67-10.668,15.99-15.988
					c-0.725-0.928-1.357-1.551-2.559-1.629c-3.342-0.219-6.189-2.779-7.025-6.098c-0.844-3.35,0.512-6.895,3.365-8.793
					c2.936-1.955,6.666-1.887,9.402,0.135c2.076,1.533,3.115,3.58,3.418,6.127c0.09,0.748,0.756,1.424,1.262,2.32
					c5.525-5.525,10.832-10.832,16.176-16.176c5.414,5.415,10.725,10.725,16.08,16.079c-0.9,1.047-1.678,1.963-3.262,2.111
					c-3.596,0.338-6.418,3.299-6.92,6.904c-0.498,3.563,1.4,7.047,4.654,8.547c3.35,1.543,7.197,0.715,9.592-2.018
					c1.063-1.211,1.863-2.59,1.902-4.168c0.041-1.625,1.127-2.332,2.129-3.277c5.281,5.281,10.527,10.527,15.834,15.834
					c-5.252,5.25-10.512,10.512-15.832,15.83c-0.867-0.777-1.742-1.426-1.891-2.861c-0.457-4.398-4.305-7.43-8.777-7.111
					c-4.104,0.291-7.498,3.98-7.48,8.131c0.018,4.393,3.363,7.861,7.719,8.242c0.844,0.072,1.619,0.926,2.545,1.492
					c-5.553,5.553-10.904,10.902-16.328,16.328c-5.307-5.307-10.596-10.596-15.92-15.92c-0.807,0.682-1.4,1.244-1.484,2.377
					c-0.25,3.422-2.748,6.242-6.037,7.08c-3.42,0.871-6.836-0.414-8.896-3.344c-1.842-2.623-1.877-6.494-0.008-9.182
					c1.389-1.994,3.293-3.316,5.742-3.496C81.094,139.621,81.744,139.033,82.451,138.172z"/>
				<path class="st9" d="M106.506,162.992l-15.947-15.947c-0.563,0.516-0.842,0.93-0.893,1.646c-0.268,3.621-2.863,6.67-6.463,7.586
					c-0.744,0.189-1.502,0.287-2.252,0.287c-2.883,0-5.523-1.404-7.244-3.854c-1.994-2.836-1.998-6.971-0.01-9.828
					c1.574-2.264,3.705-3.557,6.164-3.738c0.793-0.059,1.285-0.367,1.818-0.945l-15.967-15.967l16.029-16.027
					c-0.561-0.648-1.043-0.975-1.836-1.025c-3.527-0.23-6.627-2.914-7.535-6.523c-0.904-3.59,0.541-7.367,3.598-9.402
					c1.494-0.994,3.211-1.52,4.965-1.52c1.848,0,3.607,0.578,5.088,1.672c2.115,1.561,3.307,3.691,3.643,6.514
					c0.043,0.363,0.32,0.771,0.643,1.244c0.053,0.08,0.107,0.16,0.162,0.24l16.072-16.072l16.85,16.849l-0.363,0.42
					c-0.934,1.086-1.816,2.111-3.615,2.281c-3.24,0.305-5.938,3.004-6.414,6.42c-0.461,3.297,1.32,6.568,4.332,7.957
					c1.033,0.477,2.125,0.717,3.24,0.717c2.17,0,4.246-0.945,5.691-2.596c1.154-1.316,1.73-2.563,1.762-3.809
					c0.041-1.633,0.977-2.473,1.881-3.285c0.141-0.127,0.283-0.256,0.426-0.389l0.398-0.377l16.619,16.621l-16.609,16.609
					l-0.623-0.561c-0.832-0.734-1.689-1.494-1.85-3.021c-0.398-3.842-3.584-6.629-7.574-6.629c-0.199,0-0.4,0.008-0.602,0.021
					c-3.785,0.27-6.971,3.734-6.955,7.566c0.016,4.021,3.113,7.324,7.203,7.682c0.73,0.063,1.363,0.539,1.973,0.998
					c0.266,0.199,0.541,0.406,0.818,0.576l0.611,0.373L106.506,162.992z M90.617,145.508l15.889,15.887l15.445-15.445
					c-0.107-0.08-0.215-0.16-0.318-0.238c-0.506-0.381-0.984-0.74-1.393-0.775c-4.676-0.41-8.217-4.193-8.234-8.801
					c-0.02-4.48,3.572-8.383,8.004-8.697c0.227-0.018,0.457-0.025,0.682-0.025c4.58,0,8.238,3.213,8.697,7.641
					c0.105,1.01,0.627,1.539,1.307,2.145l15.057-15.055l-15.053-15.053c-0.014,0.012-0.027,0.025-0.041,0.037
					c-0.826,0.74-1.479,1.326-1.506,2.473c-0.039,1.521-0.705,3.002-2.041,4.525c-1.662,1.895-4.045,2.98-6.541,2.98
					c-1.281,0-2.529-0.275-3.713-0.82c-3.459-1.596-5.506-5.354-4.979-9.139c0.549-3.928,3.672-7.035,7.428-7.389
					c1.172-0.109,1.832-0.715,2.543-1.521l-15.309-15.307L90.24,99.23l-0.365-0.646c-0.156-0.275-0.332-0.535-0.502-0.785
					c-0.389-0.57-0.754-1.107-0.83-1.744c-0.297-2.496-1.342-4.375-3.193-5.742c-1.283-0.947-2.811-1.449-4.416-1.449
					c-1.531,0-3.031,0.461-4.338,1.33c-2.66,1.771-3.918,5.061-3.131,8.188c0.791,3.141,3.471,5.473,6.516,5.672
					c1.482,0.096,2.248,0.928,2.965,1.844l0.309,0.393l-15.943,15.943l15.9,15.902l-0.324,0.395
					c-0.674,0.822-1.455,1.633-2.941,1.742c-2.139,0.156-3.928,1.252-5.32,3.256c-1.727,2.482-1.725,6.072,0.006,8.533
					c1.506,2.145,3.811,3.375,6.32,3.375c0.656,0,1.32-0.086,1.973-0.252c3.129-0.797,5.385-3.438,5.615-6.576
					c0.098-1.328,0.789-2.012,1.682-2.766L90.617,145.508z"/>
			</g>
		</g>
	</g>
	<path class="st3" d="M91.037,54.14l-4.18,2.749c-1.801,1.187-2.307,3.616-1.121,5.421l1.678,2.556
		c0.457,0.689,0.363,1.904-0.205,2.657c-0.523,0.698-1.02,1.429-1.471,2.183c-0.484,0.809-1.57,1.344-2.383,1.177l-3.016-0.624
		c-2.109-0.435-4.184,0.932-4.623,3.041l-1.012,4.896c-0.211,1.023-0.012,2.068,0.563,2.941c0.572,0.87,1.453,1.466,2.475,1.681
		l3.018,0.624c0.486,0.096,0.98,0.472,1.324,0.995c0.215,0.321,0.354,0.689,0.398,1.022c0.115,0.872,0.283,1.746,0.492,2.597
		c0.223,0.908-0.174,2.064-0.869,2.521l-2.551,1.68c-1.803,1.184-2.301,3.613-1.113,5.418l2.742,4.174
		c1.186,1.801,3.615,2.301,5.416,1.119l2.553-1.682c0.693-0.455,1.914-0.361,2.664,0.209c0.697,0.527,1.428,1.023,2.186,1.471
		c0.297,0.178,0.563,0.447,0.777,0.771c0.344,0.523,0.492,1.121,0.391,1.613l-0.621,3.014c-0.211,1.021-0.01,2.066,0.561,2.941
		c0.574,0.873,1.457,1.469,2.477,1.678l4.902,1.012c2.115,0.439,4.189-0.928,4.625-3.041l0.623-3.014
		c0.166-0.813,1.092-1.598,2.018-1.725c0.877-0.117,1.744-0.275,2.59-0.486c0.916-0.223,2.07,0.176,2.525,0.865l1.682,2.559
		c1.186,1.801,3.617,2.301,5.424,1.111l4.176-2.744c1.799-1.186,2.303-3.615,1.119-5.418l-1.684-2.559
		c-0.451-0.688-0.359-1.902,0.205-2.656c0.529-0.693,1.021-1.43,1.479-2.184c0.475-0.801,1.566-1.334,2.381-1.17l3.014,0.619
		c1.023,0.213,2.064,0.016,2.941-0.561c0.869-0.572,1.469-1.455,1.68-2.475l1.008-4.903c0.215-1.021,0.014-2.064-0.561-2.938
		c-0.576-0.875-1.453-1.472-2.479-1.684l-3.012-0.625c-0.48-0.097-0.979-0.468-1.324-0.992c-0.209-0.322-0.354-0.682-0.396-1.025
		c-0.113-0.87-0.275-1.741-0.488-2.591c-0.221-0.915,0.172-2.069,0.861-2.525l2.557-1.681c1.807-1.188,2.307-3.617,1.121-5.419
		l-2.744-4.173c-1.188-1.801-3.615-2.304-5.42-1.115l-2.557,1.681c-0.691,0.453-1.908,0.356-2.658-0.206
		c-0.697-0.533-1.436-1.028-2.191-1.483c-0.299-0.172-0.57-0.444-0.785-0.771c-0.344-0.523-0.49-1.121-0.387-1.604l0.621-3.016
		c0.211-1.028,0.012-2.068-0.564-2.939c-0.57-0.872-1.449-1.473-2.479-1.684l-4.893-1.016c-2.117-0.432-4.188,0.932-4.623,3.041
		l-0.621,3.017c-0.168,0.812-1.094,1.6-2.02,1.727c-0.875,0.116-1.746,0.276-2.596,0.487c-0.914,0.221-2.066-0.177-2.52-0.866
		l-1.684-2.554C95.27,53.459,92.836,52.958,91.037,54.14z M116.084,75.912c3.471,5.277,1.996,12.399-3.281,15.87
		c-5.285,3.475-12.402,2.006-15.875-3.273c-3.477-5.281-2.01-12.403,3.275-15.876C105.482,69.159,112.609,70.628,116.084,75.912z"/>
</g>
</svg>
