<?xml version="1.0" encoding="utf-8"?>
<!-- Generator: Adobe Illustrator 16.0.0, SVG Export Plug-In . SVG Version: 6.00 Build 0)  -->
<!DOCTYPE svg PUBLIC "-//W3C//DTD SVG 1.1//EN" "http://www.w3.org/Graphics/SVG/1.1/DTD/svg11.dtd" [
	<!ENTITY ns_flows "http://ns.adobe.com/Flows/1.0/">
	<!ENTITY ns_extend "http://ns.adobe.com/Extensibility/1.0/">
	<!ENTITY ns_ai "http://ns.adobe.com/AdobeIllustrator/10.0/">
	<!ENTITY ns_graphs "http://ns.adobe.com/Graphs/1.0/">
]>
<svg version="1.1" id="Capa_1" xmlns:x="&ns_extend;" xmlns:i="&ns_ai;" xmlns:graph="&ns_graphs;"
	 xmlns="http://www.w3.org/2000/svg" xmlns:xlink="http://www.w3.org/1999/xlink" xmlns:a="http://ns.adobe.com/AdobeSVGViewerExtensions/3.0/"
	 x="0px" y="0px" width="213px" height="164.409px" viewBox="0 0 213 164.409" style="enable-background:new 0 0 213 164.409;"
	 xml:space="preserve">
<style type="text/css">
<![CDATA[
	.st0{fill:#468933;}
	.st1{fill-rule:evenodd;clip-rule:evenodd;fill:#0A0A0A;}
	.st2{fill:#1D1D1B;}
	.st3{fill:#5AAF33;}
	.st4{fill-rule:evenodd;clip-rule:evenodd;stroke:#FFFFFF;stroke-miterlimit:10;}
	.st5{fill-rule:evenodd;clip-rule:evenodd;}
	.st6{fill-rule:evenodd;clip-rule:evenodd;fill:#5AAF33;}
	.st7{fill-rule:evenodd;clip-rule:evenodd;fill:#FFFFFF;}
	.st8{fill:#0A0A0A;}
	.st9{fill:#0D0E0D;}
]]>
</style>
<g>
	<path class="st5" d="M35.339,79.603c0-13.243,0.062-26.486-0.044-39.727c-0.024-3.076,1.199-4.897,3.908-6.19
		c21.062-10.048,42.111-20.12,63.104-30.305c2.906-1.409,5.34-1.506,8.294-0.072c21.055,10.23,42.174,20.328,63.298,30.417
		c2.62,1.251,3.825,3.01,3.817,6.009c-0.073,26.706-0.066,53.412-0.007,80.117c0.006,2.705-1.092,4.387-3.373,5.648
		c-21.338,11.791-42.673,23.586-63.956,35.475c-2.673,1.494-4.938,1.563-7.612,0.07c-21.156-11.807-42.344-23.559-63.567-35.246
		c-2.771-1.525-3.952-3.469-3.918-6.691C35.42,105.942,35.339,92.771,35.339,79.603z M51.188,39.096
		c5.393,3,10.459,5.822,15.528,8.636c5.2,2.885,10.403,5.763,15.608,8.64c2.009,1.111,3.006,2.821,2.771,5.089
		c-0.214,2.086-1.418,3.786-3.438,4.104c-1.523,0.239-3.403-0.095-4.77-0.832c-9.826-5.297-19.561-10.763-29.328-16.17
		c-0.677-0.375-1.381-0.703-2.257-1.146c-0.035,0.733-0.074,1.158-0.074,1.583c-0.003,22.295,0.022,44.59-0.054,66.885
		c-0.006,1.727,0.918,2.271,2.095,2.922c19.212,10.635,38.43,21.26,57.606,31.957c1.306,0.73,2.186,0.6,3.393-0.07
		c19.187-10.678,38.39-21.322,57.616-31.926c1.388-0.766,1.948-1.607,1.943-3.244c-0.059-22.002-0.038-44.004-0.045-66.004
		c0-0.617-0.081-1.233-0.142-2.063c-0.813,0.405-1.4,0.673-1.965,0.984c-9.509,5.268-19.014,10.54-28.521,15.811
		c-0.577,0.32-1.155,0.642-1.746,0.935c-2.759,1.36-5.501,0.622-6.857-1.836c-1.377-2.493-0.636-5.33,1.981-6.818
		c6.191-3.521,12.437-6.951,18.663-10.412c4.115-2.289,8.238-4.569,12.558-6.965c-0.742-0.414-1.178-0.686-1.635-0.906
		c-17.27-8.291-34.547-16.562-51.794-24.896c-1.328-0.642-2.349-0.627-3.661,0.012c-10.887,5.297-21.808,10.524-32.722,15.769
		C65.135,32.405,58.325,35.67,51.188,39.096z"/>
	<g>
		<path class="st6" d="M124.524,129.499c-5.444,4.941-11.009,9.754-16.453,14.674c-1.196,1.078-1.977,1.068-3.143,0
			c-5.455-4.92-11.009-9.742-16.423-14.703c-0.573-0.523-0.909-1.857-0.683-2.6c4.339-14.131,8.766-28.25,13.232-42.342
			c0,0,0,0,0-0.01c0.068-0.603,0.336-1.146,0.751-1.551c0.464-0.475,1.116-0.761,1.827-0.761h5.732c1.343,0,2.44,1.018,2.578,2.322
			c4.536,14.17,9.003,28.35,13.38,42.561C125.532,127.771,125.077,128.995,124.524,129.499z"/>
	</g>
	<g>
		<path class="st6" d="M116.002,58.945c-2.961-0.926-6.112-1.249-9.396-1.854c-0.037,0.001-0.068,0.011-0.106,0.011
			c-0.025,0-0.045-0.006-0.069-0.007c-0.023,0.002-0.045,0.007-0.069,0.007c-0.055,0-0.103-0.009-0.152-0.016
			c-0.047,0.008-0.098,0.009-0.146,0.015c-3.206,0.633-6.553,1.013-9.678,2.061c-3.289,1.104-3.862,3.487-2.144,6.443
			c2.024,3.486,4.061,6.965,6.092,10.448c1.615,2.769,4.123,3.909,7.327,3.446c2.321-0.334,3.972-1.287,5.053-3.572
			c1.688-3.572,3.745-6.97,5.635-10.448C120.04,62.36,119.373,59.999,116.002,58.945z"/>
	</g>
</g>
</svg>
