<?xml version="1.0" encoding="utf-8"?>
<!-- Generator: Adobe Illustrator 16.0.0, SVG Export Plug-In . SVG Version: 6.00 Build 0)  -->
<!DOCTYPE svg PUBLIC "-//W3C//DTD SVG 1.1//EN" "http://www.w3.org/Graphics/SVG/1.1/DTD/svg11.dtd" [
	<!ENTITY ns_flows "http://ns.adobe.com/Flows/1.0/">
	<!ENTITY ns_extend "http://ns.adobe.com/Extensibility/1.0/">
	<!ENTITY ns_ai "http://ns.adobe.com/AdobeIllustrator/10.0/">
	<!ENTITY ns_graphs "http://ns.adobe.com/Graphs/1.0/">
]>
<svg version="1.1" id="Capa_1" xmlns:x="&ns_extend;" xmlns:i="&ns_ai;" xmlns:graph="&ns_graphs;"
	 xmlns="http://www.w3.org/2000/svg" xmlns:xlink="http://www.w3.org/1999/xlink" xmlns:a="http://ns.adobe.com/AdobeSVGViewerExtensions/3.0/"
	 x="0px" y="0px" width="213px" height="164.409px" viewBox="0 0 213 164.409" style="enable-background:new 0 0 213 164.409;"
	 xml:space="preserve">
<style type="text/css">
<![CDATA[
	.st0{fill:#468933;}
	.st1{fill-rule:evenodd;clip-rule:evenodd;fill:#0A0A0A;}
	.st2{fill:#1D1D1B;}
	.st3{fill:#5AAF33;}
	.st4{fill-rule:evenodd;clip-rule:evenodd;stroke:#FFFFFF;stroke-miterlimit:10;}
	.st5{fill-rule:evenodd;clip-rule:evenodd;}
	.st6{fill-rule:evenodd;clip-rule:evenodd;fill:#5AAF33;}
	.st7{fill-rule:evenodd;clip-rule:evenodd;fill:#FFFFFF;}
	.st8{fill:#0A0A0A;}
	.st9{fill:#0D0E0D;}
]]>
</style>
<g>
	<path class="st5" d="M17.654,158.704c-3.746,0-3.744-0.001-5.186-3.538c-4.373-10.74-8.07-21.636-9.154-33.312
		C2.27,110.576,2.494,99.39,4.871,88.311c4.85-22.601,15.752-41.837,33.375-56.798C66.918,7.173,99.783-0.078,135.914,10.2
		c27.926,7.944,48.594,25.529,62.387,51.054c7.352,13.603,11.176,28.244,11.859,43.683c0.34,7.706-0.031,15.383-1.318,23.007
		c-1.689,9.986-5.246,19.414-8.523,28.932c-0.514,1.493-1.213,1.867-2.709,1.864c-30.297-0.043-60.594-0.033-90.891-0.035
		C77.031,158.704,47.342,158.704,17.654,158.704z M168.881,63.464c-2.807,4.997-5.539,9.866-8.27,14.736
		c-7.311,13.033-14.605,26.074-21.957,39.083c-0.582,1.029-0.416,1.581,0.332,2.396c5.221,5.696,8.83,12.289,10.664,19.808
		c0.266,1.088,0.75,1.383,1.816,1.379c11.021-0.034,22.043-0.042,33.066,0.01c1.273,0.006,1.82-0.425,2.248-1.599
		c4.109-11.287,5.91-22.918,5.088-34.903c-1.561-22.793-10.699-42.065-27.412-57.618c-12.307-11.449-26.816-18.69-43.439-21.406
		C95.373,21.16,72.27,27.173,52.145,43.572C35.123,57.44,25.08,75.529,21.813,97.232c-2.164,14.385-0.662,28.478,4.4,42.165
		c0.422,1.139,0.969,1.472,2.148,1.466c9.748-0.045,19.496-0.051,29.244,0.016c1.418,0.01,1.971-0.41,2.32-1.8
		c5.744-22.753,28.586-37.716,51.797-33.993c0.328,0.053,0.693,0.005,0.982,0.137c3.098,1.401,4.941-0.232,7.016-2.37
		c14.002-14.426,28.131-28.731,42.219-43.072c0.307-0.312,0.641-0.596,1.119-1.039C165.053,60.359,166.932,61.883,168.881,63.464z"
		/>
	<path class="st6" d="M102.258,52.334c0,1.276,0.004,2.311,0,3.344c-0.018,2.794,0.043,2.844,3.162,2.312c0-1.791,0-3.632,0-5.704
		c15.434,0.187,28.621,5.355,40.377,15.685c-1.762,1.413-3.385,2.718-5.119,4.112c1.16,1.022,1.857,1.637,2.467,2.175
		c4.201-4.25,8.461-8.559,12.738-12.886c-0.434-0.411-1.139-1.081-2.127-2.02c-1.008,1.249-2.115,2.622-3.148,3.905
		c-3.314-2.446-6.154-4.747-9.191-6.742c-9.344-6.137-19.623-9.616-30.783-10.452c-0.662-0.05-1.322-0.138-1.984-0.191
		c-3.186-0.255-3.186-0.254-3.205-3.493c-0.006-0.764-0.002-1.529-0.002-2.362c-0.516-0.083-0.883-0.145-1.252-0.204
		c-1.486-0.241-2.098,0.289-1.959,1.878c0.113,1.304,0.4,3.064-0.281,3.831c-0.66,0.745-2.453,0.503-3.754,0.662
		C84.514,47.845,72.41,53.08,61.99,62.141c-0.492,0.427-0.988,0.848-1.686,1.444c-1.422-1.625-2.764-3.162-4.139-4.735
		c-0.904,0.991-1.555,1.703-2.494,2.732c1.412,1.146,3.031,2.458,4.748,3.85c-11.693,12.334-17.957,26.516-19.016,43.046
		c-2.023,0-3.893,0-5.895,0c0,1.092,0,2.053,0,3.253c1.385,0,2.809,0.069,4.223-0.021c1.205-0.076,1.578,0.298,1.66,1.56
		c0.223,3.474,0.686,6.932,0.992,10.402c0.098,1.119,0.561,1.53,1.684,1.477c1.643-0.078,3.291-0.02,4.92-0.02
		c-0.482-4.502-0.945-8.815-1.432-13.351c2.238,0,4.094,0,6.08,0c0-1.141,0-2.101,0-3.252c-1.82,0-3.627,0-5.701,0
		c0.979-14.857,6.58-27.39,17.152-38.61c0.604,0.902,1.076,1.653,1.596,2.368c0.486,0.672,1.027,1.305,1.656,2.097
		c0.99-0.943,1.682-1.601,2.693-2.563c-1.469-1.165-2.807-2.225-4.334-3.437C75.592,58.527,87.828,53.341,102.258,52.334z"/>
	<path class="st6" d="M164.848,107.868c-1.307,0-2.398-0.003-3.492,0.001c-2.83,0.009-2.83,0.011-2.408,3.169
		c1.477,0,3.006,0.063,4.527-0.02c1.217-0.065,1.721,0.332,1.604,1.596c-0.373,4.062-0.693,8.128-1.049,12.346
		c1.914,0,4.018,0,6.51,0c0.342-4.06,0.764-8.119,0.98-12.188c0.074-1.357,0.391-1.925,1.783-1.737
		c0.652,0.087,1.326,0.007,1.992,0.001c1.922-0.019,2.115-0.185,1.824-2.096c-0.059-0.396-0.648-0.946-1.057-1.01
		c-0.975-0.15-1.99-0.12-2.979-0.036c-1.271,0.105-1.721-0.368-1.816-1.664c-0.637-8.66-3.07-16.821-7.025-24.541
		c-0.146-0.283-0.332-0.547-0.629-1.036c-1.299,2.113-2.551,4.037-3.654,6.045c-0.213,0.388,0.061,1.146,0.283,1.656
		c2.557,5.887,4.096,12.021,4.604,18.416C164.865,107.037,164.848,107.308,164.848,107.868z"/>
</g>
</svg>
