<?xml version="1.0" encoding="utf-8"?>
<!-- Generator: Adobe Illustrator 16.0.0, SVG Export Plug-In . SVG Version: 6.00 Build 0)  -->
<!DOCTYPE svg PUBLIC "-//W3C//DTD SVG 1.1//EN" "http://www.w3.org/Graphics/SVG/1.1/DTD/svg11.dtd" [
	<!ENTITY ns_flows "http://ns.adobe.com/Flows/1.0/">
	<!ENTITY ns_extend "http://ns.adobe.com/Extensibility/1.0/">
	<!ENTITY ns_ai "http://ns.adobe.com/AdobeIllustrator/10.0/">
	<!ENTITY ns_graphs "http://ns.adobe.com/Graphs/1.0/">
]>
<svg version="1.1" id="Capa_1" xmlns:x="&ns_extend;" xmlns:i="&ns_ai;" xmlns:graph="&ns_graphs;"
	 xmlns="http://www.w3.org/2000/svg" xmlns:xlink="http://www.w3.org/1999/xlink" xmlns:a="http://ns.adobe.com/AdobeSVGViewerExtensions/3.0/"
	 x="0px" y="0px" width="213px" height="164.41px" viewBox="0 0 213 164.41" style="enable-background:new 0 0 213 164.41;"
	 xml:space="preserve">
<style type="text/css">
<![CDATA[
	.st0{fill:#468933;}
	.st1{fill-rule:evenodd;clip-rule:evenodd;fill:#0A0A0A;}
	.st2{fill:#1D1D1B;}
	.st3{fill:#5AAF33;}
	.st4{fill-rule:evenodd;clip-rule:evenodd;stroke:#FFFFFF;stroke-miterlimit:10;}
	.st5{fill-rule:evenodd;clip-rule:evenodd;}
	.st6{fill-rule:evenodd;clip-rule:evenodd;fill:#5AAF33;}
	.st7{fill-rule:evenodd;clip-rule:evenodd;fill:#FFFFFF;}
	.st8{fill:#0A0A0A;}
	.st9{fill:#0D0E0D;}
]]>
</style>
<g>
	<g>
		<path class="st5" d="M124.435,82.253c0,19.455,0.005,38.913,0,58.368c-0.005,12.807-9.151,22.196-21.961,22.287
			c-15.273,0.108-30.545,0.117-45.818-0.003c-12.811-0.103-21.911-9.491-21.913-22.327c-0.003-39.046-0.004-78.092,0.002-117.141
			C34.749,12.688,41.62,4.105,52.056,1.898c1.736-0.367,3.559-0.451,5.342-0.454C72.204,1.41,87.014,1.412,101.82,1.429
			c13.41,0.016,22.614,9.249,22.614,22.65C124.437,43.47,124.435,62.86,124.435,82.253z M115.282,135.884
			c0-38.832,0-77.517,0-116.283c-23.864,0-47.592,0-71.394,0c0,38.83,0,77.512,0,116.283
			C67.705,135.884,91.391,135.884,115.282,135.884z M88.481,145.167c-6.032,0-11.879,0-17.726,0c0,2.981,0,5.794,0,8.603
			c5.979,0,11.833,0,17.726,0C88.481,150.86,88.481,148.096,88.481,145.167z"/>
		<path class="st6" d="M156.579,12.372c1.926-1.922,3.977-3.97,6.032-6.021c20.405,19.781,21.321,54.517-0.004,75.615
			c-2.002-2.076-4.007-4.153-5.955-6.177C173.683,54.804,173.714,33.611,156.579,12.372z"/>
		<path class="st6" d="M143.532,25.142c2.133-2.056,4.177-4.031,6.232-6.014c12.694,10.864,15.377,35.53,0.07,50.156
			c-2.052-2.062-4.1-4.122-6.153-6.184C154.81,51.268,152.796,34.503,143.532,25.142z"/>
		<path class="st6" d="M130.854,37.787c2.111-2.104,4.127-4.114,6.141-6.126c6.146,4.842,8.037,17.418,0.197,24.934
			c-1.977-2.099-3.956-4.199-6.054-6.422C134.135,46.363,134.28,42.125,130.854,37.787z"/>
	</g>
	<path class="st3" d="M105.208,90.036c0-0.995-0.807-1.801-1.799-1.801h-7.78l-5.575-15.327c2.265-2.542,3.655-5.881,3.655-9.548
		c0-6.906-4.894-12.687-11.39-14.069v-8.355c0-1.658-1.343-3-3.001-3s-3,1.342-3,3v8.355c-6.501,1.383-11.393,7.162-11.393,14.069
		c0,3.667,1.393,7.006,3.66,9.553l-5.578,15.322H55.77c-0.995,0-1.8,0.806-1.8,1.801c0,0.994,0.805,1.799,1.8,1.799h5.926
		L54.612,111.3c-0.408,1.124-0.099,2.328,0.688,3.126l-0.923,2.312c-0.245,0.618,0.055,1.314,0.671,1.562
		c0.146,0.057,0.296,0.083,0.443,0.083c0.479,0,0.93-0.286,1.116-0.754l0.92-2.308c1.19-0.04,2.292-0.782,2.725-1.968l7.831-21.518
		h9.435v3.3c0,0.996,0.804,1.803,1.801,1.803c0.993,0,1.801-0.807,1.801-1.803v-3.3h9.433l7.831,21.518
		c0.431,1.185,1.533,1.928,2.722,1.968l0.924,2.308c0.186,0.468,0.639,0.754,1.114,0.754c0.148,0,0.3-0.026,0.445-0.083
		c0.615-0.247,0.917-0.943,0.671-1.562l-0.924-2.312c0.788-0.798,1.097-2.002,0.69-3.126l-7.086-19.465h6.47
		C104.401,91.835,105.208,91.03,105.208,90.036z M79.316,54.974c4.626,0,8.385,3.762,8.385,8.387c0,4.624-3.762,8.386-8.385,8.386
		c-4.624,0-8.388-3.762-8.388-8.386C70.929,58.735,74.692,54.974,79.316,54.974z M81.117,88.235v-3.304
		c0-0.994-0.806-1.803-1.801-1.803s-1.802,0.809-1.802,1.803v3.304h-8.122l4.242-11.659c1.745,0.754,3.665,1.172,5.682,1.172
		c2.019,0,3.937-0.418,5.682-1.172l4.241,11.659H81.117z"/>
</g>
</svg>
