<?xml version="1.0" encoding="utf-8"?>
<!-- Generator: Adobe Illustrator 16.0.0, SVG Export Plug-In . SVG Version: 6.00 Build 0)  -->
<!DOCTYPE svg PUBLIC "-//W3C//DTD SVG 1.1//EN" "http://www.w3.org/Graphics/SVG/1.1/DTD/svg11.dtd" [
	<!ENTITY ns_flows "http://ns.adobe.com/Flows/1.0/">
	<!ENTITY ns_extend "http://ns.adobe.com/Extensibility/1.0/">
	<!ENTITY ns_ai "http://ns.adobe.com/AdobeIllustrator/10.0/">
	<!ENTITY ns_graphs "http://ns.adobe.com/Graphs/1.0/">
]>
<svg version="1.1" id="Capa_1" xmlns:x="&ns_extend;" xmlns:i="&ns_ai;" xmlns:graph="&ns_graphs;"
	 xmlns="http://www.w3.org/2000/svg" xmlns:xlink="http://www.w3.org/1999/xlink" xmlns:a="http://ns.adobe.com/AdobeSVGViewerExtensions/3.0/"
	 x="0px" y="0px" width="213px" height="164.409px" viewBox="0 0 213 164.409" style="enable-background:new 0 0 213 164.409;"
	 xml:space="preserve">
<style type="text/css">
<![CDATA[
	.st0{fill:#468933;}
	.st1{fill-rule:evenodd;clip-rule:evenodd;fill:#0A0A0A;}
	.st2{fill:#1D1D1B;}
	.st3{fill:#5AAF33;}
	.st4{fill-rule:evenodd;clip-rule:evenodd;stroke:#FFFFFF;stroke-miterlimit:10;}
	.st5{fill-rule:evenodd;clip-rule:evenodd;}
	.st6{fill-rule:evenodd;clip-rule:evenodd;fill:#5AAF33;}
	.st7{fill-rule:evenodd;clip-rule:evenodd;fill:#FFFFFF;}
	.st8{fill:#0A0A0A;}
	.st9{fill:#0D0E0D;}
]]>
</style>
<g>
	<path d="M204.793,23.214v107.382c0,11.77-9.531,21.301-21.299,21.301h-92.42c1.898-4.223,3.338-8.678,4.277-13.313h74.831
		c11.768,0,21.299-9.529,21.299-21.299V36.525c0-11.768-9.531-21.299-21.299-21.299H52.148c-11.766,0-21.299,9.531-21.299,21.299
		v24.246c-4.242,0-8.412,0.391-12.424,1.154V23.214c0-11.77,9.531-21.301,21.299-21.301h143.77
		C195.262,1.914,204.793,11.445,204.793,23.214z"/>
	<g>
		<path class="st3" d="M180.831,119.06c0,4.902-3.972,8.875-8.875,8.875l0,0c-4.901,0-8.873-3.973-8.873-8.875V34.751
			c0-4.902,3.972-8.875,8.873-8.875l0,0c4.903,0,8.875,3.973,8.875,8.875V119.06z"/>
	</g>
	<g>
		<path class="st3" d="M150.627,123.497c0,2.451-3.976,4.438-8.875,4.438l0,0c-4.901,0-8.875-1.986-8.875-4.438V81.341
			c0-2.451,3.974-4.438,8.875-4.438l0,0c4.899,0,8.875,1.986,8.875,4.438V123.497z"/>
	</g>
	<g>
		<g>
			<path class="st5" d="M51.986,161.495c-23.727-0.006-42.904-19.256-42.779-43.166c0.129-23.813,19.684-42.943,43.654-42.513
				c23.045,0.41,42.393,19.251,42.021,43.568C94.527,142.831,75.402,161.515,51.986,161.495z M88.221,116.948
				C87.359,97.317,70.395,80.98,49.248,82.531c-18.902,1.387-34.199,17.699-33.402,37.767c0.783,19.643,17.715,35.375,37.639,34.563
				C73.535,154.038,89.135,137.128,88.221,116.948z"/>
			<path d="M52.021,162.495h-0.035c-11.739-0.002-22.754-4.578-31.014-12.885c-8.294-8.34-12.827-19.451-12.766-31.287
				c0.131-24.262,20.207-43.958,44.672-43.507c24.082,0.428,43.373,20.429,43.004,44.583
				C95.523,143.163,75.848,162.495,52.021,162.495z M52.069,76.808c-22.96,0-41.739,18.63-41.862,41.527
				c-0.059,11.299,4.268,21.906,12.184,29.865c7.883,7.926,18.393,12.293,29.597,12.295l0.034,1v-1
				c22.739,0,41.518-18.449,41.861-41.127c0.353-23.055-18.058-42.144-41.039-42.552C52.584,76.81,52.327,76.808,52.069,76.808z
				 M52.011,155.89c-0.001,0-0.002,0-0.003,0c-19.71-0.002-36.381-15.949-37.16-35.553c-0.807-20.287,14.271-37.333,34.326-38.802
				c0.948-0.07,1.906-0.105,2.849-0.105c19.986,0,36.325,15.583,37.196,35.476c0.454,10.006-3.01,19.568-9.755,26.922
				c-6.743,7.35-15.954,11.623-25.938,12.031C53.018,155.88,52.514,155.89,52.011,155.89z M52.022,83.429
				c-0.894,0-1.803,0.033-2.702,0.1c-18.973,1.391-33.237,17.525-32.475,36.73c0.738,18.543,16.512,33.629,35.162,33.631
				c0.001,0,0.002,0,0.003,0c0.477,0,0.952-0.01,1.433-0.029c9.449-0.387,18.166-4.43,24.547-11.387
				c6.383-6.957,9.66-16.006,9.23-25.479C86.396,98.173,70.936,83.429,52.022,83.429z"/>
		</g>
		<g>
			<path class="st5" d="M58.643,69.375c0,1.154,0,2.348,0,3.355c-4.416,0-8.719,0-13.125,0c0-0.967,0-2.16,0-3.32
				c-2.912-0.996-3.359-1.637-3.359-4.705c0-1.758-0.027-3.512,0.018-5.266c0.053-2.105,1.383-3.389,3.498-3.398
				c4.254-0.016,8.504-0.016,12.756,0c2.105,0.01,3.438,1.307,3.488,3.408c0.043,1.832,0.014,3.664,0.014,5.5
				C61.932,67.736,61.357,68.525,58.643,69.375z"/>
			<path d="M46.518,71.73h11.125v-3.09l0.701-0.221c2.298-0.719,2.588-1.107,2.588-3.471l0.006-1.578
				c0.006-1.299,0.012-2.6-0.02-3.896c-0.038-1.563-0.924-2.426-2.493-2.434c-4.249-0.016-8.497-0.016-12.747,0
				c-1.574,0.008-2.464,0.867-2.503,2.424c-0.032,1.256-0.026,2.51-0.021,3.766l0.004,1.475c0,2.654,0.176,2.9,2.684,3.758
				l0.676,0.232V71.73z"/>
		</g>
		<g>
			<path class="st5" d="M34.803,75.562c-3.863,2.244-7.586,4.41-11.441,6.65c-1.137-2.021-2.473-4.205-3.613-6.488
				c-0.686-1.369-0.057-3.025,1.307-3.854c1.961-1.191,3.951-2.348,5.975-3.426c1.582-0.846,3.283-0.422,4.201,1.045
				C32.51,71.531,33.678,73.64,34.803,75.562z"/>
			<path d="M28.666,69.013c-0.384,0-0.775,0.105-1.164,0.314c-1.832,0.975-3.77,2.086-5.929,3.396
				c-0.964,0.588-1.365,1.686-0.931,2.553c0.793,1.588,1.684,3.129,2.544,4.619c0.184,0.318,0.366,0.633,0.544,0.945l9.706-5.641
				c-0.173-0.299-0.348-0.604-0.522-0.908c-0.809-1.404-1.645-2.857-2.53-4.271C29.977,69.371,29.367,69.013,28.666,69.013z"/>
		</g>
		<g>
			<path class="st5" d="M80.729,82.205c-3.859-2.238-7.578-4.398-11.455-6.648c1.195-2.004,2.439-4.279,3.871-6.424
				c0.779-1.176,2.475-1.453,3.801-0.746c2.123,1.137,4.217,2.338,6.256,3.619c1.354,0.854,1.777,2.576,1.014,4.025
				C83.094,78.16,81.854,80.226,80.729,82.205z"/>
			<path d="M70.646,75.197l9.715,5.639c0.168-0.295,0.34-0.59,0.511-0.887c0.823-1.422,1.673-2.895,2.458-4.385
				c0.526-0.998,0.248-2.139-0.661-2.711c-1.925-1.211-3.952-2.383-6.196-3.584c-0.867-0.463-2.04-0.271-2.495,0.416
				c-1.001,1.5-1.907,3.061-2.784,4.572C71.01,74.574,70.827,74.888,70.646,75.197z"/>
		</g>
		<g>
			<path class="st6" d="M52.189,92.63c0.865,3.867,1.738,7.729,2.598,11.59c1.205,5.438,2.309,10.896,3.645,16.299
				c0.547,2.199-0.527,5.338-2.996,6.793c-2.381,1.404-5.494,1.221-7.541-0.555c-1.898-1.643-2.789-3.643-2.203-6.236
				c2.07-9.152,4.08-18.314,6.117-27.473c0.027-0.143,0.088-0.277,0.133-0.412C52.023,92.63,52.107,92.63,52.189,92.63z"/>
		</g>
	</g>
	<g>
		<path class="st3" d="M122.231,121.685c0,3.453-3.975,6.25-8.875,6.25l0,0c-4.902,0-8.874-2.797-8.874-6.25V62.298
			c0-3.451,3.972-6.248,8.874-6.248l0,0c4.9,0,8.875,2.797,8.875,6.248V121.685z"/>
	</g>
</g>
</svg>
