<?xml version="1.0" encoding="utf-8"?>
<!-- Generator: Adobe Illustrator 16.0.0, SVG Export Plug-In . SVG Version: 6.00 Build 0)  -->
<!DOCTYPE svg PUBLIC "-//W3C//DTD SVG 1.1//EN" "http://www.w3.org/Graphics/SVG/1.1/DTD/svg11.dtd" [
	<!ENTITY ns_flows "http://ns.adobe.com/Flows/1.0/">
	<!ENTITY ns_extend "http://ns.adobe.com/Extensibility/1.0/">
	<!ENTITY ns_ai "http://ns.adobe.com/AdobeIllustrator/10.0/">
	<!ENTITY ns_graphs "http://ns.adobe.com/Graphs/1.0/">
]>
<svg version="1.1" id="Capa_1" xmlns:x="&ns_extend;" xmlns:i="&ns_ai;" xmlns:graph="&ns_graphs;"
	 xmlns="http://www.w3.org/2000/svg" xmlns:xlink="http://www.w3.org/1999/xlink" xmlns:a="http://ns.adobe.com/AdobeSVGViewerExtensions/3.0/"
	 x="0px" y="0px" width="213px" height="164.41px" viewBox="0 0 213 164.41" style="enable-background:new 0 0 213 164.41;"
	 xml:space="preserve">
<style type="text/css">
<![CDATA[
	.st0{fill:#468933;}
	.st1{fill-rule:evenodd;clip-rule:evenodd;fill:#0A0A0A;}
	.st2{fill:#1D1D1B;}
	.st3{fill:#5AAF33;}
	.st4{fill-rule:evenodd;clip-rule:evenodd;stroke:#FFFFFF;stroke-miterlimit:10;}
	.st5{fill-rule:evenodd;clip-rule:evenodd;}
	.st6{fill-rule:evenodd;clip-rule:evenodd;fill:#5AAF33;}
	.st7{fill-rule:evenodd;clip-rule:evenodd;fill:#FFFFFF;}
	.st8{fill:#0A0A0A;}
	.st9{fill:#0D0E0D;}
]]>
</style>
<g>
	<path class="st5" d="M106.818,162.984c-23.572,0-47.145,0.029-70.717-0.02c-6.387-0.013-12.172-1.855-16.205-7.104
		c-5.128-6.673-4.425-13.881-0.693-20.794c4.971-9.208,10.352-18.193,15.585-27.259c18.003-31.187,35.985-62.385,54.079-93.518
		c1.746-3.003,3.84-6.009,6.414-8.286c7.827-6.924,18.127-5.914,25.076,2.384c2.449,2.924,4.346,6.346,6.27,9.671
		c21.886,37.839,43.729,75.702,65.58,113.561c2.183,3.783,4.231,7.615,4.519,12.11c0.617,9.682-4.898,16.875-14.457,18.704
		c-1.88,0.359-3.824,0.524-5.74,0.527C153.292,162.996,130.056,162.984,106.818,162.984z M106.543,148.36
		c23.066,0,46.134,0.024,69.201-0.015c6.79-0.012,7.923-1.997,4.574-7.799c-23.066-39.954-46.139-79.905-69.226-119.848
		c-3.394-5.871-5.586-5.86-8.997,0.045c-23.029,39.88-46.041,79.771-69.051,119.662c-0.542,0.94-1.076,1.904-1.449,2.917
		c-1.075,2.917-0.5,4.037,2.515,4.655c1.461,0.299,2.991,0.366,4.489,0.367C61.247,148.368,83.896,148.361,106.543,148.36z"/>
	<g>
		<path class="st6" d="M95.291,59.387c0.189-1.957,0.125-4.521,0.726-6.92c1.786-7.137,9.934-10.644,16.41-7.17
			c4.084,2.19,5.013,6.266,5.111,10.29c0.149,6.087-0.127,12.203-0.563,18.281c-0.629,8.764-1.502,17.511-2.407,26.251
			c-0.222,2.134-0.789,4.281-1.528,6.302c-1.137,3.104-3.6,4.653-6.761,4.648c-3.227-0.006-5.563-1.522-6.67-4.727
			c-0.731-2.116-1.358-4.349-1.526-6.567C97.083,86.506,96.231,73.225,95.291,59.387z"/>
	</g>
	<g>
		<path class="st6" d="M95.457,128.601c0.016-6.273,4.873-11.197,11.064-11.22c6.264-0.022,11.339,5.032,11.338,11.292
			c-0.001,6.208-4.973,11.077-11.26,11.023C100.146,139.643,95.439,134.957,95.457,128.601z"/>
	</g>
</g>
</svg>
