<?xml version="1.0" encoding="utf-8"?>
<!-- Generator: Adobe Illustrator 16.0.0, SVG Export Plug-In . SVG Version: 6.00 Build 0)  -->
<!DOCTYPE svg PUBLIC "-//W3C//DTD SVG 1.1//EN" "http://www.w3.org/Graphics/SVG/1.1/DTD/svg11.dtd" [
	<!ENTITY ns_flows "http://ns.adobe.com/Flows/1.0/">
	<!ENTITY ns_extend "http://ns.adobe.com/Extensibility/1.0/">
	<!ENTITY ns_ai "http://ns.adobe.com/AdobeIllustrator/10.0/">
	<!ENTITY ns_graphs "http://ns.adobe.com/Graphs/1.0/">
]>
<svg version="1.1" id="Capa_1" xmlns:x="&ns_extend;" xmlns:i="&ns_ai;" xmlns:graph="&ns_graphs;"
	 xmlns="http://www.w3.org/2000/svg" xmlns:xlink="http://www.w3.org/1999/xlink" xmlns:a="http://ns.adobe.com/AdobeSVGViewerExtensions/3.0/"
	 x="0px" y="0px" width="213px" height="164.41px" viewBox="0 0 213 164.41" style="enable-background:new 0 0 213 164.41;"
	 xml:space="preserve">
<style type="text/css">
<![CDATA[
	.st0{fill:#468933;}
	.st1{fill-rule:evenodd;clip-rule:evenodd;fill:#0A0A0A;}
	.st2{fill:#1D1D1B;}
	.st3{fill:#5AAF33;}
	.st4{fill-rule:evenodd;clip-rule:evenodd;stroke:#FFFFFF;stroke-miterlimit:10;}
	.st5{fill-rule:evenodd;clip-rule:evenodd;}
	.st6{fill-rule:evenodd;clip-rule:evenodd;fill:#5AAF33;}
	.st7{fill-rule:evenodd;clip-rule:evenodd;fill:#FFFFFF;}
	.st8{fill:#0A0A0A;}
	.st9{fill:#0D0E0D;}
]]>
</style>
<g>
	<g>
		<path class="st5" d="M175.742,28.008c-0.199-1.57-0.991-1.974-2.376-2.269c-9.841-2.095-19.76-3.941-29.477-6.551
			c-13.408-3.632-26.308-8.612-37.5-17.771C99.19,8.092,90.62,12.253,81.604,15.604c-13.52,5.012-27.489,8.149-41.724,10.165
			c-1.364,0.188-2.388,0.403-2.62,2.253c-1.554,12.044-1.692,24.073-0.031,36.118c2.374,17.353,7.915,33.604,16.747,48.72
			c12.371,21.172,29.365,37.624,50.756,49.594c1.334,0.745,2.31,0.696,3.584-0.017c19.556-10.912,35.56-25.645,47.619-44.515
			C173.521,90.402,179.887,60.35,175.742,28.008z M167.918,62.634c-2.731,20.86-10.308,39.797-22.632,56.823
			c-9.994,13.785-22.381,24.991-36.957,33.777c-1.303,0.775-2.219,0.867-3.552,0.03c-31.804-19.651-51.484-47.714-58.703-84.422
			c-2.14-10.911-2.528-21.931-1.677-33c0.14-1.815,0.544-2.761,2.718-3.134c16.342-2.811,32.41-6.751,47.433-14.048
			c4.159-2.015,8.102-4.485,12.264-6.813c18.127,11.548,38.726,16.871,59.759,20.905c1.254,0.233,1.72,0.637,1.86,1.895
			C169.41,43.992,169.128,53.32,167.918,62.634z"/>
		<path class="st6" d="M154.122,44.071c-8.567-2.158-16.889-4.035-25.068-6.349c-8.226-2.327-15.986-5.82-22.536-11.113
			c-14.015,11.159-30.67,13.955-47.511,17.059c-0.157,0.637-0.342,1.273-0.421,1.925c-1.181,9.11-1.164,18.25,0.528,27.284
			c5.355,28.624,20.782,50.181,46.05,64.648c0.702,0.402,2.005,0.357,2.735-0.047c8.503-4.58,16.034-10.446,22.597-17.523
			c14.467-15.614,22.646-34.068,24.401-55.272C155.47,57.652,155.38,50.589,154.122,44.071z M128.466,110.938
			c0,1.567-0.716,2.186-2.452,2.202c-4.054,0.017-8.104,0-12.154,0H87.563c-2.312,0-2.777-0.405-3.01-2.7
			c-0.029-0.372-0.029-0.745-0.029-1.119V81.323c0-0.204-0.016-0.407,0-0.622c0.108-2.501,0.587-2.965,3.104-2.965h2.344
			c1.473-0.015,1.771-0.294,1.771-1.815c0.015-3.602,0.185-7.219-0.034-10.805c-0.479-8.04,5.993-12.757,12.108-13.626
			c5.635-0.807,10.631,0.558,14.621,4.825c1.939,2.08,2.919,4.597,2.919,7.467v12.153c0,1.507,0.278,1.786,1.783,1.801
			c1.073,0,2.142-0.029,3.197,0.017c1.478,0.043,2.129,0.666,2.129,2.109C128.496,90.214,128.496,100.583,128.466,110.938z"/>
		<path class="st6" d="M111.768,104.278c0.264,1.412-0.016,1.736-1.478,1.736c-1.272,0.02-2.542,0-3.8,0c-1.305,0-2.622,0.02-3.93,0
			c-1.284,0-1.613-0.402-1.379-1.657c0.434-2.329,0.87-4.643,1.333-6.97c0.171-0.855,0.171-1.523-0.557-2.283
			c-2.254-2.359-2.066-6.146,0.248-8.413c2.343-2.263,6.054-2.313,8.429-0.094c2.421,2.269,2.716,5.886,0.481,8.352
			c-0.795,0.872-0.826,1.613-0.622,2.592C110.943,99.791,111.346,102.028,111.768,104.278z"/>
		<path class="st6" d="M116.519,64.092c0,3.975,0,7.948-0.016,11.905c0,1.461-0.278,1.739-1.706,1.739H98.344
			c-1.617,0-1.864-0.249-1.864-1.831c0-3.929,0.015-7.854,0-11.78c-0.015-2.144,0.824-3.881,2.393-5.278
			c4.096-3.681,11.113-3.665,15.212-0.015C115.682,60.227,116.519,61.967,116.519,64.092z"/>
	</g>
	<path class="st5" d="M159.372,40.818c-0.153-1.197-0.758-1.507-1.813-1.731c-7.515-1.601-15.088-3.01-22.506-5.003
		c-10.24-2.772-20.091-6.577-28.639-13.567c-5.496,5.096-12.039,8.272-18.925,10.831c-10.323,3.829-20.991,6.221-31.858,7.764
		c-1.043,0.143-1.825,0.307-2.005,1.72c-1.185,9.197-1.288,18.383-0.021,27.578c1.813,13.25,6.044,25.664,12.786,37.209
		c9.446,16.163,22.425,28.727,38.759,37.867c1.019,0.57,1.764,0.53,2.736-0.013c14.931-8.333,27.154-19.58,36.36-33.99
		C157.678,88.465,162.537,65.516,159.372,40.818z M153.399,67.26c-2.088,15.933-7.874,30.392-17.281,43.394
		c-7.632,10.525-17.091,19.084-28.219,25.792c-0.997,0.592-1.695,0.661-2.717,0.021c-24.28-15.003-39.312-36.433-44.824-64.466
		c-1.634-8.334-1.93-16.746-1.278-25.198c0.105-1.389,0.415-2.107,2.074-2.395c12.479-2.146,24.749-5.154,36.22-10.727
		c3.177-1.539,6.187-3.426,9.363-5.201c13.844,8.818,29.571,12.884,45.633,15.964c0.957,0.179,1.312,0.485,1.421,1.449
		C154.537,53.027,154.324,60.15,153.399,67.26z"/>
</g>
</svg>
