<?xml version="1.0" encoding="utf-8"?>
<!-- Generator: Adobe Illustrator 16.0.0, SVG Export Plug-In . SVG Version: 6.00 Build 0)  -->
<!DOCTYPE svg PUBLIC "-//W3C//DTD SVG 1.1//EN" "http://www.w3.org/Graphics/SVG/1.1/DTD/svg11.dtd" [
	<!ENTITY ns_flows "http://ns.adobe.com/Flows/1.0/">
	<!ENTITY ns_extend "http://ns.adobe.com/Extensibility/1.0/">
	<!ENTITY ns_ai "http://ns.adobe.com/AdobeIllustrator/10.0/">
	<!ENTITY ns_graphs "http://ns.adobe.com/Graphs/1.0/">
]>
<svg version="1.1" id="Capa_1" xmlns:x="&ns_extend;" xmlns:i="&ns_ai;" xmlns:graph="&ns_graphs;"
	 xmlns="http://www.w3.org/2000/svg" xmlns:xlink="http://www.w3.org/1999/xlink" xmlns:a="http://ns.adobe.com/AdobeSVGViewerExtensions/3.0/"
	 x="0px" y="0px" width="213px" height="164.41px" viewBox="0 0 213 164.41" style="enable-background:new 0 0 213 164.41;"
	 xml:space="preserve">
<style type="text/css">
<![CDATA[
	.st0{fill:#468933;}
	.st1{fill-rule:evenodd;clip-rule:evenodd;fill:#0A0A0A;}
	.st2{fill:#1D1D1B;}
	.st3{fill:#5AAF33;}
	.st4{fill-rule:evenodd;clip-rule:evenodd;stroke:#FFFFFF;stroke-miterlimit:10;}
	.st5{fill-rule:evenodd;clip-rule:evenodd;}
	.st6{fill-rule:evenodd;clip-rule:evenodd;fill:#5AAF33;}
	.st7{fill-rule:evenodd;clip-rule:evenodd;fill:#FFFFFF;}
	.st8{fill:#0A0A0A;}
	.st9{fill:#0D0E0D;}
]]>
</style>
<g>
	<path class="st5" d="M208.363,30.415c0-2.714-0.7-3.464-3.438-3.464c-32.813,0.101-65.626,0.063-98.451,0.063H8.621
		c-3.887,0-3.898,0-3.898,3.763v124.178c0,6.263,1.774,8.025,8.111,8.025c62.677,0.013,125.353,0.013,188.028,0.013
		c5.427,0,7.438-2.038,7.438-7.513C208.301,113.79,208.276,72.103,208.363,30.415z M199.713,152.566
		c0.014,1.274-0.213,2.012-1.749,2c-17.427-0.125-34.839-0.187-52.251-0.274c-0.663,0.024-1.238,0.037-1.751,0.05
		c0.275,0.038,0.563,0.038,0.876,0.024c-0.676,0.075-1.362,0.138-2.051,0.138c-42.188,0.038-84.363,0.063-126.552,0.05
		c-0.901,0-1.976,0.525-2.713-0.5c-0.05-0.975-0.15-1.962-0.15-2.938c-0.013-37.463,0.013-74.927-0.063-112.39
		c-0.012-2.399,0.488-3.1,3.013-3.1c60.14,0.075,120.266,0.063,180.404,0.051c1.787,0,3.013-0.139,3.013,2.486
		c-0.112,30.651-0.075,61.314-0.088,91.977c0,0.488-0.05,0.987-0.074,1.476C199.612,138.604,199.639,145.592,199.713,152.566z"/>
	<path class="st5" d="M208.29,8.01c-0.05-4.27-2.34-6.58-6.58-6.58C138.36,1.41,75,1.41,11.65,1.43c-4.841,0-6.9,2.2-6.931,7.13
		c-0.01,4.24,0.19,8.49-0.06,12.7c-0.18,2.94,0.6,3.83,3.689,3.82C40.96,24.95,73.59,25,106.2,25h65.91
		c11.14,0,22.27-0.05,33.399,0.05c2.23,0.03,2.9-0.64,2.84-2.85C208.19,17.48,208.35,12.74,208.29,8.01z M18.89,18.59
		C15.98,18.63,13.4,16.1,13.36,13.19C13.32,10.39,15.97,7.76,18.87,7.76c2.79-0.01,5.28,2.45,5.34,5.25
		C24.27,15.95,21.77,18.56,18.89,18.59z M36.25,18.6c-2.88-0.05-5.26-2.6-5.23-5.569c0.04-3.021,2.49-5.351,5.5-5.271
		c2.75,0.08,5.141,2.58,5.16,5.42C41.72,16.06,39.15,18.64,36.25,18.6z M54,18.6c-2.93,0.051-5.63-2.47-5.65-5.27
		c-0.02-2.99,2.44-5.54,5.37-5.58c2.99-0.04,5.391,2.39,5.38,5.44C59.08,16.05,56.72,18.55,54,18.6z M193.62,18.59
		c-16.84,0.021-33.7,0.01-50.55,0.01h-4.73c-18.33,0-36.649,0.011-54.99-0.01c-5.01,0-7.75-3.939-5.609-7.99
		c1.02-1.939,2.76-2.72,4.85-2.84c1.47-0.069,2.95-0.01,4.42-0.01h104.95c0.89,0,1.79-0.07,2.67,0.04c2.92,0.36,5.18,2.91,5.03,5.6
		C199.49,16.39,197.03,18.59,193.62,18.59z"/>
	<path class="st6" d="M59.1,13.19C59.08,16.05,56.72,18.55,54,18.6c-2.93,0.051-5.63-2.47-5.65-5.27c-0.02-2.99,2.44-5.54,5.37-5.58
		C56.71,7.71,59.11,10.14,59.1,13.19z"/>
	<path class="st6" d="M41.68,13.18c0.04,2.88-2.529,5.46-5.43,5.42c-2.88-0.05-5.26-2.6-5.23-5.569c0.04-3.021,2.49-5.351,5.5-5.271
		C39.27,7.84,41.66,10.34,41.68,13.18z"/>
	<path class="st6" d="M24.21,13.01c0.06,2.94-2.44,5.55-5.32,5.58C15.98,18.63,13.4,16.1,13.36,13.19
		C13.32,10.39,15.97,7.76,18.87,7.76C21.66,7.75,24.15,10.21,24.21,13.01z"/>
	<path class="st4" d="M135.286,130.815c-0.137,1.063-0.274,2.238-0.812,3.113c-2.138,3.45-3.225,7.075-2.712,11.162
		c0.236,1.839-1.176,1.688-2.364,1.688c-6.824,0.024-13.649,0.05-20.475,0.087h-0.787l-0.013,0.025
		c-1.075-2.5,0.125-5.2-0.663-7.725c-0.05-3.076-1.612-5.613-3.024-8.176c-3.176-5.738-7.688-10.388-12.389-14.875
		c-1.763-1.701-3.487-3.45-5.2-5.213c-2.324-2.4-2.5-4.8-0.524-6.675c1.987-1.875,4.351-1.675,6.7,0.637
		c1.751,1.726,3.45,3.5,5.6,5.688c0.126,0.138,0.25,0.263,0.389,0.4v-10.1c-0.112-0.288-0.213-0.588-0.301-0.876
		c-1.074-3.562-0.3-7.237-0.449-10.85v-0.675c-0.075-5.638-0.063-11.276-0.014-16.901c0.026-2.212,0.737-4.125,2.988-4.899
		c2.225-0.762,4.013,0.037,5.3,1.975c0.05,0.101,0.088,0.2,0.126,0.301c0.1,0.262,0.174,0.524,0.225,0.787v0.012
		c0.262,1.164,0.188,2.351,0.2,3.538c0.012,6.987-0.013,13.963,0.024,20.95c0,1.237-0.275,2.55,0.625,3.851
		c0.825-1.112,0.513-2.301,0.55-3.388c0.075-2.749-0.149-5.512,0.125-8.25c0.288-2.851,2.025-4.537,4.475-4.6
		c2.563-0.063,4.476,1.687,4.738,4.638c0.3,3.424,0.062,6.875,0.112,10.313c0.025,1.262-0.063,2.537,0.313,3.787
		c0.426-2.112,0.263-4.237,0.3-6.351c0.038-1.475-0.05-2.949,0.2-4.412c0.513-2.975,1.575-4.124,4.013-3.95
		c0.575,0.038,1.226,0.15,1.963,0.325c1.475,1.226,1.925,2.788,1.875,4.699c-0.126,4.238-0.075,8.464-0.012,12.701
		c0.012,1.149-0.539,3.05,1.387,2.95c1.738-0.076,1.275-1.9,1.338-3.101c0.062-1.375-0.076-2.763,0.05-4.137
		c0.175-1.888,1.225-3.113,3.212-3.176c2.101-0.063,3.537,1.1,3.501,3.163C135.649,109.791,136.675,120.328,135.286,130.815z"/>
	<path class="st6" d="M127.262,77.141c-0.612,1.749-1.438,3.424-2.162,5.137c-0.601,0.463-1.288,0.7-1.987,0.875
		c-0.488,0.138-0.976,0.238-1.45,0.375c-1.513,0.425-2.95,0.2-3.399-1.699c0-0.276,0.036-0.525,0.086-0.775
		c0.013-0.038,0.026-0.075,0.038-0.112c0.2-0.751,0.638-1.426,1.025-2.113c7.35-13.075-1.551-29-16.538-29.075
		c-7.338-0.037-14.251,3.851-17.639,11.375c-3.249,7.264-1.911,14.963,3.188,20.625c2.174,2.414,5.199,3.676,7.338,6.038
		c0.099,0.112,0.199,0.225,0.299,0.338c0,0.013,0,0.037,0.014,0.051v0.012c0.325,1.962,1.15,4.363-0.738,5.563
		c-1.024,0.662-1.987,0.325-2.925-0.275c-0.013-0.013-0.013-0.013-0.024-0.024c-0.726-0.475-1.438-1.1-2.138-1.524
		c-6.226-4.227-10.964-9.525-12.551-17.138c-2.513-11.976,3.025-23.552,13.801-28.827c10.726-5.25,23.25-2.512,31.213,6.852
		c1.012,1.187,1.887,2.5,2.824,3.75c0.101,0.225,0.2,0.449,0.301,0.687C128.624,63.677,129.661,70.277,127.262,77.141z"/>
</g>
</svg>
