<?xml version="1.0" encoding="utf-8"?>
<!-- Generator: Adobe Illustrator 16.0.0, SVG Export Plug-In . SVG Version: 6.00 Build 0)  -->
<!DOCTYPE svg PUBLIC "-//W3C//DTD SVG 1.1//EN" "http://www.w3.org/Graphics/SVG/1.1/DTD/svg11.dtd">
<svg version="1.1" id="Layer_6" xmlns="http://www.w3.org/2000/svg" xmlns:xlink="http://www.w3.org/1999/xlink" x="0px" y="0px"
	 width="88.354px" height="93.997px" viewBox="5.823 3.001 88.354 93.997" enable-background="new 5.823 3.001 88.354 93.997"
	 xml:space="preserve">
<path fill="#999999" d="M86.851,80.484v4.021H13.149v-69.01h4.02v64.99L86.851,80.484L86.851,80.484z M42.231,56.277l6.107-12.564
	l7.685,10.231l9.875-7.547l6.779,6.269l13.735-18.489V21.525l-13.87,18.592l-6.793-6.281l-10.19,7.789l-6.792-9.045l-6.227,12.814
	L30.934,34.59l-12.171,4.774v12.517l12.66-5.199L42.231,56.277z M86.851,37.771l-13.96,18.592l-6.838-6.281l-10.256,7.789
	l-6.837-9.045L42.692,61.64L31.012,49.831l-12.25,4.773v23.452h68.089V37.771z"/>
</svg>
