<?xml version="1.0" encoding="utf-8"?>
<!-- Generator: Adobe Illustrator 16.0.0, SVG Export Plug-In . SVG Version: 6.00 Build 0)  -->
<!DOCTYPE svg PUBLIC "-//W3C//DTD SVG 1.1//EN" "http://www.w3.org/Graphics/SVG/1.1/DTD/svg11.dtd">
<svg version="1.1" id="Layer_1" xmlns="http://www.w3.org/2000/svg" xmlns:xlink="http://www.w3.org/1999/xlink" x="0px" y="0px"
	 width="94px" height="93.997px" viewBox="0 0 94 93.997" enable-background="new 0 0 94 93.997" xml:space="preserve">
<path fill="#9A9999" d="M83.852,79.484v4.02H10.15v-69.01h4.021v64.991L83.852,79.484L83.852,79.484z M35.606,59.333
	c-6.294,0-11.396-5.102-11.396-11.395c0-6.293,5.102-11.395,11.396-11.395c6.293,0,11.395,5.102,11.395,11.395
	C47.001,54.232,41.9,59.333,35.606,59.333z M59.711,28.736c-3.934,0-7.122-3.188-7.122-7.121s3.188-7.122,7.122-7.122
	c3.935,0,7.122,3.188,7.122,7.122S63.646,28.736,59.711,28.736z M27.216,68.208c-1.573,0-2.848-1.276-2.848-2.85
	s1.275-2.849,2.848-2.849c1.573,0,2.849,1.275,2.849,2.849S28.789,68.208,27.216,68.208z M41.287,33.367
	c-1.573,0-2.849-1.276-2.849-2.849c0-1.573,1.276-2.849,2.849-2.849s2.849,1.275,2.849,2.849
	C44.135,32.091,42.86,33.367,41.287,33.367z M43.791,69.212c-1.573,0-2.849-1.275-2.849-2.848c0-1.573,1.275-2.85,2.849-2.85
	s2.849,1.276,2.849,2.85C46.64,67.937,45.364,69.212,43.791,69.212z M75.122,59.752c-3.935,0-7.123-3.188-7.123-7.122
	c0-3.934,3.188-7.122,7.123-7.122s7.122,3.188,7.122,7.122C82.244,56.564,79.057,59.752,75.122,59.752z M59.2,42.412
	c-1.572,0-2.848-1.276-2.848-2.848c0-1.573,1.275-2.85,2.848-2.85c1.573,0,2.849,1.276,2.849,2.85
	C62.049,41.136,60.773,42.412,59.2,42.412z M63.418,72.033c-0.787,0-1.425-0.639-1.425-1.425c0-0.787,0.638-1.425,1.425-1.425
	s1.423,0.638,1.423,1.425C64.841,71.394,64.205,72.033,63.418,72.033z M24.807,30.658c-0.787,0-1.424-0.638-1.424-1.424
	c0-0.787,0.637-1.425,1.424-1.425c0.788,0,1.424,0.638,1.424,1.425C26.231,30.02,25.595,30.658,24.807,30.658z M76.23,33.673
	c-0.787,0-1.424-0.639-1.424-1.424c0-0.787,0.637-1.425,1.424-1.425s1.424,0.638,1.424,1.425
	C77.654,33.034,77.018,33.673,76.23,33.673z M46.64,21.362c-0.787,0-1.424-0.638-1.424-1.424c0-0.787,0.637-1.425,1.424-1.425
	s1.423,0.638,1.423,1.425C48.062,20.724,47.427,21.362,46.64,21.362z M55.377,55.699c-0.787,0-1.425-0.638-1.425-1.424
	c0-0.787,0.638-1.425,1.425-1.425s1.424,0.638,1.424,1.425C56.801,55.061,56.164,55.699,55.377,55.699z"/>
</svg>
