<?xml version="1.0" encoding="utf-8"?>
<!-- Generator: Adobe Illustrator 16.0.0, SVG Export Plug-In . SVG Version: 6.00 Build 0)  -->
<!DOCTYPE svg PUBLIC "-//W3C//DTD SVG 1.1//EN" "http://www.w3.org/Graphics/SVG/1.1/DTD/svg11.dtd">
<svg version="1.1" id="Layer_1" xmlns="http://www.w3.org/2000/svg" xmlns:xlink="http://www.w3.org/1999/xlink" x="0px" y="0px"
	 width="164.409px" height="164.408px" viewBox="0 0 164.409 164.408" enable-background="new 0 0 164.409 164.408"
	 xml:space="preserve">
<g>
	<path fill="#999999" d="M25.487,32.023v109.009c0,1.173,0.951,2.123,2.124,2.123c1.173,0,2.124-0.951,2.124-2.123V32.023
		c0-1.173-0.951-2.124-2.124-2.124C26.438,29.899,25.487,30.85,25.487,32.023"/>
	<path fill="#999999" d="M11.331,129.707H120.34c1.172,0,2.123-0.951,2.123-2.124s-0.951-2.123-2.123-2.123H11.331
		c-1.173,0-2.124,0.95-2.124,2.123S10.157,129.707,11.331,129.707"/>
	<path fill="#8EC044" d="M39.784,116.963l15.385-36.491l14.525,35.335c0.501,1.22,1.547,2.142,2.821,2.485
		c1.273,0.344,2.641,0.074,3.688-0.729l29.514-22.582l11.144,15.924c0.798,1.14,2.088,1.812,3.479,1.812h29.729
		c2.347,0,4.248-1.901,4.248-4.247c0-2.345-1.901-4.247-4.248-4.247h-27.519l-12.416-17.741c-0.658-0.943-1.692-1.587-2.829-1.763
		c-1.138-0.176-2.316,0.125-3.229,0.823l-28.633,21.908L59.146,67.806c-0.653-1.588-2.192-2.624-3.909-2.632
		c-1.718-0.008-3.266,1.015-3.933,2.597l-19.348,45.894c-0.912,2.161,0.102,4.651,2.263,5.562
		C36.38,120.138,38.873,119.125,39.784,116.963z"/>
	<path fill="#8EC044" d="M127.853,66.2c0.293,0.248,0.729,0.213,0.979-0.079l3.59-4.221c0.248-0.293,0.213-0.729-0.078-0.978
		l-2.637-2.245c-0.295-0.247-0.73-0.212-0.978,0.079l-3.595,4.222c-0.246,0.292-0.211,0.729,0.08,0.977L127.853,66.2z"/>
	<path fill="#999999" d="M139.172,77.268c0.988,0.841,2.029,1.512,2.16,1.358l4.906-5.747c0.131-0.153-0.809-0.939-1.799-1.781
		l-10.6-6.17c-0.986-0.841-1.782-1.532-1.912-1.378l-1.887,2.216c-0.129,0.153,0.566,0.959,1.555,1.8L139.172,77.268z"/>
	<path fill="#999999" d="M125.883,37.652l-3.432,1.447c0.946,2.245,1.389,4.554,1.391,6.821c0,3.333-0.965,6.575-2.723,9.306
		c-1.76,2.733-4.291,4.951-7.486,6.301c-2.104,0.887-4.268,1.302-6.414,1.303c-3.301,0.001-6.557-0.994-9.332-2.822
		c-2.776-1.831-5.065-4.478-6.475-7.812c-0.945-2.245-1.389-4.554-1.39-6.821c0-3.332,0.964-6.574,2.722-9.307
		c1.762-2.732,4.293-4.95,7.488-6.301c2.102-0.886,4.268-1.301,6.412-1.302c3.299-0.001,6.555,0.994,9.332,2.823
		c2.777,1.83,5.066,4.477,6.475,7.812L125.883,37.652l3.431-1.447c-1.987-4.716-5.271-8.525-9.24-11.137
		c-3.969-2.614-8.634-4.05-13.428-4.051c-3.113-0.001-6.279,0.609-9.308,1.888c-4.614,1.945-8.326,5.196-10.855,9.135
		c-2.533,3.938-3.904,8.567-3.906,13.334c0,3.241,0.639,6.547,1.977,9.716c1.988,4.715,5.27,8.524,9.238,11.137
		c3.971,2.614,8.635,4.05,13.43,4.051c3.111,0,6.279-0.609,9.309-1.889c4.613-1.944,8.326-5.195,10.855-9.133
		c2.531-3.939,3.904-8.568,3.906-13.335c0-3.241-0.64-6.548-1.978-9.716L125.883,37.652z"/>
	<rect x="35.397" y="32.023" fill="#8EC044" width="9.91" height="5.663"/>
	<rect x="35.397" y="39.101" fill="#999999" width="9.91" height="5.663"/>
	<rect x="35.397" y="46.18" fill="#8EC044" width="9.91" height="5.662"/>
</g>
</svg>
