<?xml version="1.0" encoding="utf-8"?>
<!-- Generator: Adobe Illustrator 16.0.0, SVG Export Plug-In . SVG Version: 6.00 Build 0)  -->
<!DOCTYPE svg PUBLIC "-//W3C//DTD SVG 1.1//EN" "http://www.w3.org/Graphics/SVG/1.1/DTD/svg11.dtd">
<svg version="1.1" id="Layer_1" xmlns="http://www.w3.org/2000/svg" xmlns:xlink="http://www.w3.org/1999/xlink" x="0px" y="0px"
	 width="147.402px" height="147.401px" viewBox="0 0 147.402 147.401" enable-background="new 0 0 147.402 147.401"
	 xml:space="preserve">
<g>
	<path fill="#91BE59" d="M103.256,35.891c0,3.898-2.131,7.711-5.317,7.711s-6.215-3.813-6.215-7.711
		c0-2.539-0.175-5.595,1.474-6.837c0.881-0.666,3.184-0.993,4.293-0.993c1.166,0,3.436,0.221,4.541,1.213
		C103.741,30.811,103.256,33.42,103.256,35.891z"/>
	<path fill="#FFFFFF" d="M102.519,35.891c-0.117,2.852-1.168,6.661-4.58,6.975c-3.871,0.357-5.471-4.999-5.481-7.837
		c-0.006-1.371,0.022-2.674,0.336-4.019c0.471-2.025,3.172-2.147,4.697-2.212c2.012-0.086,4.288,0.437,4.969,2.79
		C102.833,32.871,102.543,34.563,102.519,35.891c-0.017,0.95,1.457,0.948,1.476,0c0.09-4.878-0.336-8.034-5.841-8.546
		c-5.022-0.466-7.063,2.131-7.17,6.802c-0.086,3.85,1.464,9.696,6.226,10.125c4.678,0.422,6.621-4.461,6.785-8.381
		C104.034,34.941,102.56,34.945,102.519,35.891z"/>
	<path fill="#91BE59" d="M55.123,35.891c0,3.898-2.131,7.711-5.316,7.711c-3.188,0-6.217-3.813-6.217-7.711
		c0-2.539-0.172-5.595,1.473-6.837c0.881-0.666,3.184-0.993,4.295-0.993c1.166,0,3.436,0.221,4.539,1.213
		C55.605,30.811,55.123,33.42,55.123,35.891z"/>
	<path fill="#FFFFFF" d="M54.386,35.891c-0.117,2.852-1.17,6.661-4.58,6.975c-3.873,0.357-5.471-4.999-5.482-7.837
		c-0.006-1.371,0.023-2.674,0.336-4.019c0.471-2.025,3.17-2.147,4.697-2.212c2.01-0.086,4.289,0.437,4.969,2.79
		C54.697,32.871,54.412,34.563,54.386,35.891c-0.018,0.95,1.455,0.948,1.475,0c0.09-4.878-0.336-8.034-5.84-8.546
		c-5.025-0.466-7.066,2.131-7.17,6.802c-0.088,3.85,1.463,9.696,6.223,10.125c4.678,0.422,6.621-4.461,6.787-8.381
		C55.898,34.941,54.425,34.945,54.386,35.891z"/>
	<path fill="#888888" d="M104.909,105.219c0,0,18.819,0.693,21.651-7.214V79.833c0,0-1.397-9.294-21.375-9.294
		s-21.099,9.433-21.099,9.433v17.064C84.086,97.035,87.982,105.219,104.909,105.219z"/>
	<path fill="#FFFFFF" d="M104.909,106.051c6.12,0.183,12.647-0.478,18.207-3.161c5.827-2.812,4.403-8.574,4.403-13.972
		c0-3.634,0.951-8.097-0.922-11.417c-3.187-5.644-11.021-7-16.793-7.614C98.734,68.713,83.127,70.594,83.127,84
		c0,3.744-1.629,11.08,0.668,14.305C88.372,104.728,97.722,105.877,104.909,106.051c1.073,0.026,1.071-1.638,0-1.665
		c-6.824-0.166-15.586-1.183-19.927-7.275c-1.037-1.453-0.188-8.076-0.188-10.612c0-2.679-0.609-5.675,0.639-8.048
		c3.779-7.171,15.424-7.167,22.156-7.034c6.078,0.119,14.514,1.509,17.83,7.384c1.436,2.544,0.438,7.232,0.438,10.119
		c0,6.398,1.268,10.736-5.832,13.52c-4.646,1.819-10.158,2.097-15.115,1.948C103.833,104.355,103.834,106.021,104.909,106.051z"/>
	<path fill="#888888" d="M116.206,59.943c0,6.711-3.67,13.274-9.152,13.274c-5.484,0-10.701-6.563-10.701-13.274
		c0-4.371-0.295-9.63,2.535-11.769c1.516-1.146,5.48-1.708,7.393-1.708c2.006,0,5.914,0.379,7.814,2.088
		C117.036,51.197,116.206,55.689,116.206,59.943z"/>
	<path fill="#888888" d="M114.937,59.943c-0.203,4.908-2.015,11.466-7.885,12.008c-6.666,0.614-9.421-8.607-9.438-13.492
		c-0.011-2.359,0.041-4.603,0.579-6.917c0.812-3.487,5.459-3.697,8.087-3.809c3.461-0.146,7.381,0.751,8.553,4.802
		C115.472,54.745,114.98,57.657,114.937,59.943c-0.03,1.635,2.504,1.632,2.535,0c0.155-8.396-0.576-13.828-10.05-14.709
		C98.773,44.43,95.261,48.9,95.077,56.941c-0.149,6.628,2.521,16.69,10.717,17.43c8.05,0.727,11.396-7.683,11.679-14.428
		C117.54,58.307,115.002,58.315,114.937,59.943z"/>
	<path fill="#888888" d="M38.371,105.219c0,0,18.818,0.693,21.65-7.214V79.833c0,0-1.396-9.294-21.373-9.294
		S17.55,79.971,17.55,79.971v17.064C17.55,97.035,21.445,105.219,38.371,105.219z"/>
	<path fill="#FFFFFF" d="M38.371,106.051c6.119,0.183,12.648-0.478,18.205-3.161c5.828-2.812,4.404-8.574,4.404-13.972
		c0-3.634,0.951-8.097-0.922-11.417c-3.186-5.644-11.018-7-16.791-7.614C32.197,68.713,16.591,70.594,16.591,84
		c0,3.744-1.631,11.08,0.668,14.305C21.833,104.728,31.185,105.877,38.371,106.051c1.074,0.026,1.07-1.638,0-1.665
		c-6.824-0.166-15.586-1.183-19.928-7.275c-1.035-1.453-0.188-8.076-0.188-10.612c0-2.679-0.611-5.675,0.639-8.048
		c3.779-7.171,15.424-7.167,22.156-7.034c6.078,0.119,14.514,1.509,17.828,7.384c1.438,2.544,0.438,7.232,0.438,10.119
		c0,6.398,1.268,10.736-5.832,13.52c-4.646,1.819-10.158,2.097-15.113,1.948C37.296,104.355,37.298,106.021,38.371,106.051z"/>
	<path fill="#888888" d="M49.665,59.943c0,6.711-3.668,13.274-9.152,13.274c-5.482,0-10.699-6.563-10.699-13.274
		c0-4.371-0.297-9.63,2.533-11.769c1.518-1.146,5.482-1.708,7.395-1.708c2.006,0,5.914,0.379,7.812,2.088
		C50.498,51.197,49.665,55.689,49.665,59.943z"/>
	<path fill="#FFFFFF" d="M48.398,59.943c-0.203,4.908-2.012,11.466-7.885,12.008c-6.664,0.614-9.418-8.607-9.439-13.492
		c-0.01-2.359,0.041-4.603,0.58-6.917c0.811-3.487,5.461-3.697,8.088-3.809c3.459-0.146,7.381,0.751,8.551,4.802
		C48.933,54.745,48.441,57.657,48.398,59.943c-0.029,1.635,2.504,1.632,2.535,0c0.156-8.396-0.576-13.828-10.049-14.709
		C32.236,44.43,28.722,48.9,28.54,56.941c-0.15,6.628,2.52,16.69,10.715,17.43c8.051,0.727,11.396-7.683,11.678-14.428
		C51.001,58.307,48.466,58.315,48.398,59.943z"/>
	<path fill="#888888" d="M73.808,64.874c0,0,17.358,0.618,18.772-6.432V42.238c0,0-0.715-8.288-18.524-8.288
		c-17.812,0-18.281,8.411-18.281,8.411v15.214C55.775,57.575,58.718,64.874,73.808,64.874z"/>
	<path fill="#FFFFFF" d="M73.808,65.615c5.308,0.155,10.813-0.448,15.715-2.554c5.287-2.273,4.445-6.552,4.445-11.376
		c0-3.377,0.924-7.82-0.537-11.006c-2.427-5.29-9.67-6.637-14.722-7.258c-7.19-0.884-16.78-0.33-22.263,5.106
		c-2.441,2.42-2.059,5-2.059,8.183c0,3.311-1.393,9.318,0.721,12.162C59.267,64.468,67.417,65.443,73.808,65.615
		c0.957,0.025,0.955-1.458,0-1.485c-6.094-0.165-13.736-1.053-17.701-6.389c-1.1-1.481-0.232-7.418-0.232-9.766
		c0-2.246-0.516-4.848,0.535-6.907c3.34-6.561,14-6.458,20.081-6.321c5.383,0.121,12.799,1.448,15.659,6.68
		c1.242,2.271,0.332,6.44,0.332,8.913c0,6.175,0.978,9.918-6.021,12.325c-3.953,1.36-8.49,1.587-12.652,1.465
		C72.849,64.104,72.853,65.587,73.808,65.615z"/>
	<path fill="#888888" d="M83.879,24.505c0,5.983-3.271,11.835-8.161,11.835c-4.889,0-9.539-5.852-9.539-11.835
		c0-3.897-0.264-8.586,2.26-10.494c1.352-1.021,4.887-1.523,6.593-1.523c1.788,0,5.271,0.339,6.965,1.862
		C84.622,16.708,83.879,20.713,83.879,24.505z"/>
	<path fill="#FFFFFF" d="M82.749,24.505c-0.182,4.377-1.795,10.224-7.03,10.706c-5.941,0.547-8.396-7.674-8.416-12.029
		c-0.008-2.104,0.039-4.104,0.518-6.167c0.723-3.11,4.867-3.297,7.212-3.397c3.084-0.13,6.579,0.671,7.625,4.282
		C83.226,19.871,82.788,22.467,82.749,24.505c-0.026,1.458,2.232,1.455,2.261,0c0.141-7.485-0.515-12.33-8.96-13.115
		c-7.71-0.718-10.843,3.269-11.005,10.438c-0.135,5.909,2.244,14.881,9.551,15.541c7.178,0.646,10.164-6.849,10.414-12.864
		C85.07,23.047,82.81,23.053,82.749,24.505z"/>
	<path fill="#91BE59" d="M73.697,114.419c0,0,21.717,0.802,24.549-8.344v-21.02c0,0-1.123-10.75-24.229-10.75
		c-23.102,0-23.906,10.91-23.906,10.91v19.734C50.111,104.953,54.123,114.419,73.697,114.419z"/>
	<path fill="#FFFFFF" d="M73.697,115.382c6.396,0.198,13.959-0.225,19.797-3.042c7.571-3.653,6.354-8.692,6.354-16.089
		c0-4.314,1.192-9.844-1.021-13.811c-3.787-6.785-13.266-8.319-20.18-8.939c-8.959-0.804-20.723-0.098-27.475,6.74
		c-3.027,3.068-2.668,6.072-2.668,10.093c0,4.317-1.938,12.713,0.98,16.36C55.16,113.785,65.214,115.21,73.697,115.382
		c1.244,0.025,1.24-1.9,0-1.926c-7.838-0.158-17.902-1.37-22.961-8.288c-1.379-1.886-0.305-10.19-0.305-13.541
		c0-3.554-0.629-6.192,1.344-9.104c5.311-7.846,18.736-7.521,26.875-7.097c6.609,0.345,15.728,2.229,18.972,8.849
		c1.389,2.838,0.305,8.616,0.305,11.978c0,7.778,1.059,12.282-7.686,15.263c-5.179,1.766-11.093,2.11-16.543,1.942
		C72.455,113.418,72.458,115.343,73.697,115.382z"/>
	<path fill="#91BE59" d="M86.761,62.053c0,7.763-4.242,15.354-10.584,15.354c-6.342,0-12.377-7.591-12.377-15.354
		c0-5.055-0.342-11.138,2.932-13.612c1.754-1.325,6.34-1.976,8.552-1.976c2.319,0,6.842,0.438,9.036,2.415
		C87.722,51.938,86.761,57.133,86.761,62.053z"/>
	<path fill="#FFFFFF" d="M85.295,62.053c-0.235,5.676-2.327,13.263-9.118,13.888c-7.709,0.711-10.895-9.955-10.918-15.604
		c-0.012-2.729,0.049-5.322,0.67-8c0.938-4.033,6.316-4.276,9.354-4.406c4.002-0.17,8.536,0.87,9.893,5.554
		C85.915,56.041,85.347,59.409,85.295,62.053c-0.034,1.891,2.896,1.888,2.933,0c0.181-9.71-0.666-15.994-11.621-17.012
		c-10.004-0.93-14.068,4.241-14.277,13.541c-0.176,7.666,2.914,19.303,12.393,20.159c9.311,0.841,13.18-8.886,13.506-16.688
		C88.306,60.163,85.374,60.17,85.295,62.053z"/>
	<path fill="#91BE59" d="M113.32,17.097c15.857,11.979,26.099,30.972,26.099,52.373c0,18.119-7.34,34.505-19.213,46.381
		c-11.875,11.873-28.263,19.211-46.381,19.211c-18.119,0-34.504-7.338-46.381-19.211C15.57,103.975,8.232,87.589,8.23,69.47
		c0-23.976,12.857-44.937,32.061-56.385l-2.053-3.446C17.867,21.775,4.218,44.036,4.218,69.47
		c0.002,38.443,31.164,69.605,69.605,69.605c38.443,0,69.605-31.163,69.605-69.605c0.002-22.701-10.873-42.877-27.689-55.575
		L113.32,17.097z"/>
	<polygon fill="#91BE59" points="111.564,25.759 102.179,8.088 122.174,8.793 	"/>
</g>
</svg>
