<?xml version="1.0" encoding="utf-8"?>
<!-- Generator: Adobe Illustrator 16.0.0, SVG Export Plug-In . SVG Version: 6.00 Build 0)  -->
<!DOCTYPE svg PUBLIC "-//W3C//DTD SVG 1.1//EN" "http://www.w3.org/Graphics/SVG/1.1/DTD/svg11.dtd">
<svg version="1.1" id="Layer_1" xmlns="http://www.w3.org/2000/svg" xmlns:xlink="http://www.w3.org/1999/xlink" x="0px" y="0px"
	 width="93.997px" height="93.997px" viewBox="0 0 93.997 93.997" enable-background="new 0 0 93.997 93.997" xml:space="preserve">
<path fill="#9A9999" d="M84.57,77.591v4.02H10.869v-69.01h4.021v64.99H84.57L84.57,77.591z M31.386,22.218h-8.333v29.349h8.333
	V22.218z M28.358,15.054h-2.54v52.211h2.54V15.054z M44.386,33.72h-8.333v7.324h8.333V33.72z M41.358,25.72h-2.54v27h2.54V25.72z
	 M57.386,37.72h-8.333v20h8.333V37.72z M54.358,33.054h-2.539v37.667h2.539V33.054z M69.053,50.402H60.72V64.94h8.333V50.402z
	 M66.025,41.387h-2.54v25.877h2.54V41.387z M81.386,28.773h-8.334v27.281h8.334V28.773z M78.358,22.439h-2.539v46.158h2.539V22.439z
	"/>
</svg>
