<?xml version="1.0" encoding="utf-8"?>
<!-- Generator: Adobe Illustrator 16.0.0, SVG Export Plug-In . SVG Version: 6.00 Build 0)  -->
<!DOCTYPE svg PUBLIC "-//W3C//DTD SVG 1.1//EN" "http://www.w3.org/Graphics/SVG/1.1/DTD/svg11.dtd">
<svg version="1.1" id="Layer_2" xmlns="http://www.w3.org/2000/svg" xmlns:xlink="http://www.w3.org/1999/xlink" x="0px" y="0px"
	 width="141.732px" height="141.732px" viewBox="38.634 21.634 141.732 141.732"
	 enable-background="new 38.634 21.634 141.732 141.732" xml:space="preserve">
<g>
	<path fill="#888888" d="M172.916,133.963c0,1.215-0.984,2.2-2.198,2.2H47.629c-1.213,0-2.197-0.983-2.197-2.2V32.858
		c0-1.215,0.984-2.2,2.197-2.2h123.089c1.214,0,2.198,0.985,2.198,2.2V133.963z"/>
	<path fill="#FFFFFF" d="M168.521,121.087c0,1.214-0.834,1.888-2.051,1.888H52.117c-1.215,0-2.29-0.674-2.29-1.888V39.719
		c0-1.214,1.075-1.734,2.29-1.734h114.354c1.217,0,2.051,0.521,2.051,1.734V121.087z"/>
	<circle fill="#FFFFFF" cx="111.493" cy="129.884" r="3.848"/>
	<rect x="83.53" y="139.094" fill="#888888" width="54.218" height="5.861"/>
	<rect x="70.342" y="147.886" fill="#888888" width="80.596" height="5.862"/>
	<circle fill="#8CC63F" cx="72.184" cy="82.877" r="5.223"/>
	<circle fill="#8CC63F" cx="74.658" cy="98.546" r="4.399"/>
	<circle fill="#8CC63F" cx="60.914" cy="95.247" r="4.948"/>
	<circle fill="#8CC63F" cx="100.498" cy="79.853" r="5.498"/>
	<circle fill="#8CC63F" cx="84.279" cy="74.631" r="3.024"/>
	<circle fill="#8CC63F" cx="117.541" cy="74.356" r="6.047"/>
	<circle fill="#8CC63F" cx="128.811" cy="65.834" r="4.673"/>
	<circle fill="#8CC63F" cx="142.281" cy="68.858" r="2.749"/>
	<circle fill="#8CC63F" cx="161.249" cy="51.54" r="3.574"/>
	<circle fill="#8CC63F" cx="159.6" cy="65.284" r="4.673"/>
	<circle fill="#8CC63F" cx="151.902" cy="80.678" r="3.573"/>
	<circle fill="#8CC63F" cx="150.253" cy="61.436" r="1.924"/>
	<circle fill="#8CC63F" cx="127.986" cy="80.953" r="2.199"/>
	<circle fill="#8CC63F" cx="109.019" cy="89.475" r="2.474"/>
	<circle fill="#8CC63F" cx="87.028" cy="82.877" r="2.474"/>
</g>
</svg>
