<?xml version="1.0" encoding="utf-8"?>
<!-- Generator: Adobe Illustrator 16.0.0, SVG Export Plug-In . SVG Version: 6.00 Build 0)  -->
<!DOCTYPE svg PUBLIC "-//W3C//DTD SVG 1.1//EN" "http://www.w3.org/Graphics/SVG/1.1/DTD/svg11.dtd">
<svg version="1.1" id="Layer_1" xmlns="http://www.w3.org/2000/svg" xmlns:xlink="http://www.w3.org/1999/xlink" x="0px" y="0px"
	 width="93.997px" height="93.997px" viewBox="0 0 93.997 93.997" enable-background="new 0 0 93.997 93.997" xml:space="preserve">
<path fill-rule="evenodd" clip-rule="evenodd" fill="#999999" d="M6.393,80.604c0-21.919,17.767-39.687,39.686-39.687
	c21.917,0,39.684,17.768,39.684,39.687"/>
<path fill-rule="evenodd" clip-rule="evenodd" fill="#484848" d="M12.721,80.604c0-18.425,14.934-33.36,33.358-33.36
	c18.424,0,33.358,14.936,33.358,33.36"/>
<path fill-rule="evenodd" clip-rule="evenodd" fill="#999999" d="M18.3,80.604c0-15.344,12.437-27.781,27.78-27.781
	c15.343,0,27.779,12.438,27.779,27.781"/>
<path fill-rule="evenodd" clip-rule="evenodd" fill="#484848" d="M24.253,81.012c0-12.056,9.771-21.828,21.827-21.828
	s21.826,9.772,21.826,21.828"/>
<path fill-rule="evenodd" clip-rule="evenodd" fill="#999999" d="M30.206,80.73c0-8.77,7.107-15.876,15.875-15.876
	s15.875,7.106,15.875,15.876"/>
<path fill-rule="evenodd" clip-rule="evenodd" fill="#484848" d="M34.969,80.917c0-6.137,4.974-11.112,11.11-11.112
	s11.108,4.976,11.108,11.112"/>
</svg>
