<?xml version="1.0" encoding="utf-8"?>
<!-- Generator: Adobe Illustrator 16.0.0, SVG Export Plug-In . SVG Version: 6.00 Build 0)  -->
<!DOCTYPE svg PUBLIC "-//W3C//DTD SVG 1.1//EN" "http://www.w3.org/Graphics/SVG/1.1/DTD/svg11.dtd">
<svg version="1.1" id="Layer_1" xmlns="http://www.w3.org/2000/svg" xmlns:xlink="http://www.w3.org/1999/xlink" x="0px" y="0px"
	 width="260.788px" height="260.786px" viewBox="0 0 260.788 260.786" enable-background="new 0 0 260.788 260.786"
	 xml:space="preserve">
<g>
	<path fill="#888888" d="M170.253,227.356c-26.549,0-52.452,0-79.465,0c-2.113-15.018-3.858-30.235-4.69-45.042
		c1.957-1.759,3.562-1.502,5.077-1.502c26.262-0.009,52.524,0.005,78.786,0.016c2.099,0.001,4.357-0.298,5.021,2.198
		C173.407,197.773,171.866,212.236,170.253,227.356z"/>
	<path fill="#91BE59" d="M147.681,78.591c8.266,3.748,16.818,24.448,13.61,32.634c-20.434,0-40.994,0-61.532,0
		c-1.606-1.938-1.537-4.367-0.843-6.103c3.224-8.069,3.786-17.331,10.4-23.911c1.152-1.145,2.054-2.76,4.273-2.526
		c3.157,6.706,1.467,15.122,6.202,21.655c2.728-1.82,2.155-3.762,1.887-5.482c-0.913-5.82-1.892-11.633-2.975-17.425
		c-0.864-4.617,0.257-6.905,4.781-7.556c6.213-0.894,12.549-1.71,18.443,1.852c1.598,5.113-0.922,9.789-1.055,14.604
		c-0.123,4.477-3.647,9.089,0.287,14.403C146.193,93.681,144.235,85.27,147.681,78.591z"/>
	<path fill="#888888" d="M106.056,116.639c16.508,0,32.869,0,49.487,0c-0.148,10.701-2.188,20.059-11.739,25.323
		c-8.854,4.881-18.051,5.021-26.93-0.692C109.34,136.422,104.649,126.285,106.056,116.639z"/>
	<path fill="#888888" d="M170.403,233.09c-1.324,2.608-3.553,2.857-5.824,2.86c-22.847,0.033-45.692,0.048-68.538,0.047
		c-2.318,0-4.473-0.442-5.497-2.968c0.4-2.458,2.025-3.155,4.222-3.153c23.686,0.02,47.372,0.022,71.058,0.05
		C167.901,229.928,169.698,230.491,170.403,233.09z"/>
	<path fill="#888888" d="M216.753,207.891c0-1.209,0-2.426,0-3.717v-4.727h-16.592c1.224-7-2.113-11.221-5.979-15.848
		c-5.094-6.096-8.4-13.449-13.921-19.342c-2.741-2.926-4.745-6.562-8.53-8.361c-3.791-1.805-7.76-3.248-11.506-5.135
		c-7.729-3.896-15.281-5.092-22.869,0.351c-1.613,1.157-3.79,1.353-5.684,0.993c-3.976-0.751-7.853-2.014-11.824-2.787
		c-3.229-0.631-6.021-2.812-9.711-1.947c-7.57,1.773-14.064,6.046-21.248,8.7c-2.176,0.804-3.645,2.916-5.344,4.597
		c-4.322,4.274-7.271,9.576-10.448,14.562c-4.86,7.623-13.53,13.217-12.293,24.217H42.753v11h22.086
		c2.396,5,4.461,9.668,6.854,13.98c2.711,4.889,6.979,6.297,12.619,4.305c0.898-1.495,0.557-3.128,0.398-4.776
		c-1.272-13.259-2.638-26.478-3.833-39.745c-0.579-6.428,2.043-9.543,8.352-9.127c7.46,0.49,14.867-0.219,22.3-0.132
		c15.98,0.185,31.962,0.333,47.945,0.411c4.627,0.023,9.262-0.434,13.881-0.295c4.371,0.129,7.391,3.566,6.981,7.808
		c-0.604,6.274-1.558,12.515-2.204,18.785c-0.539,5.22-0.854,10.463-1.273,15.787c2.979,0.216,4.478-1.683,5.939-3.04
		c1.721-1.596,3.522-2.961,5.492-3.961h28.463V207.891z"/>
	<g>
		<path fill="#999999" d="M253.296,168.129c-27.476-6.125-54.947-12.252-82.42-18.377c0-16.095,0-32.188,0-48.284
			c27.473,0.445,54.944,0.892,82.42,1.337C253.296,124.58,253.296,146.354,253.296,168.129z"/>
		<path fill="#FFFFFF" d="M246.612,154.1c-22.274-4.062-44.551-8.127-66.825-12.19c0-11.467,0-22.934,0-34.399
			c22.274,0.903,44.551,1.806,66.825,2.709C246.612,124.846,246.612,139.473,246.612,154.1z"/>
		<path fill="#999999" d="M215.427,121.356c-11.138-0.948-22.275-1.897-33.413-2.845c0-1.322,0-2.645,0-3.967
			c11.138,0.768,22.275,1.535,33.413,2.303C215.427,118.35,215.427,119.853,215.427,121.356z"/>
		<path fill="#8EC044" d="M232.134,132.338c-16.707-1.964-33.414-3.929-50.12-5.893c0-1.323,0-2.646,0-3.968
			c16.706,1.693,33.413,3.387,50.12,5.08C232.134,129.152,232.134,130.746,232.134,132.338z"/>
		<path fill="#999999" d="M219.882,140.061c-12.623-1.895-25.245-3.787-37.868-5.68c0-1.322,0-2.646,0-3.969
			c12.623,1.688,25.245,3.377,37.868,5.066C219.882,137.008,219.882,138.535,219.882,140.061z"/>
		<path fill="#8EC044" d="M238.815,123.347c1.486,0.126,2.972,0.252,4.456,0.379c0-1.653,0-3.307,0-4.961
			c-1.484-0.102-2.97-0.204-4.456-0.307C238.815,120.088,238.815,121.718,238.815,123.347z"/>
		<path fill="#8EC044" d="M238.815,133.125c1.486,0.175,2.972,0.349,4.456,0.523c0-1.653,0-3.307,0-4.961
			c-1.484-0.15-2.97-0.301-4.456-0.451C238.815,129.865,238.815,131.495,238.815,133.125z"/>
		<path fill="#8EC044" d="M238.815,142.902c1.486,0.223,2.972,0.444,4.456,0.668c0-1.653,0-3.308,0-4.961
			c-1.484-0.199-2.97-0.397-4.456-0.597C238.815,139.641,238.815,141.272,238.815,142.902z"/>
		<path fill="#999999" d="M253.296,92.558c-27.476,0.445-54.947,0.892-82.42,1.336c0-16.094,0-32.188,0-48.281
			c27.473-6.127,54.944-12.252,82.42-18.378C253.296,49.01,253.296,70.784,253.296,92.558z"/>
		<path fill="#FFFFFF" d="M246.612,82.636c-22.274,1.084-44.551,2.168-66.825,3.251c0-11.466,0-22.933,0-34.399
			c22.274-4.244,44.551-8.488,66.825-12.732C246.612,53.383,246.612,68.01,246.612,82.636z"/>
		<path fill="#999999" d="M231.021,78.635c-16.336,1.059-32.671,2.118-49.007,3.178c0-0.992,0-1.984,0-2.977
			c16.336-1.258,32.671-2.516,49.007-3.774C231.021,76.252,231.021,77.443,231.021,78.635z"/>
		<path fill="#999999" d="M198.722,74.371c-2.6,0.231-5.199,0.463-7.798,0.695c0-5.826,0-11.65,0-17.477
			c2.6-0.41,5.198-0.821,7.798-1.231C198.722,62.361,198.722,68.367,198.722,74.371z"/>
		<path fill="#999999" d="M212.086,73.178c-2.601,0.231-5.198,0.464-7.797,0.695c0-7.575,0-15.149,0-22.726
			c2.599-0.453,5.196-0.906,7.797-1.359C212.086,57.586,212.086,65.383,212.086,73.178z"/>
		<path fill="#999999" d="M226.565,71.887c-2.6,0.231-5.195,0.464-7.796,0.695c0-7.986,0-15.972,0-23.958
			c2.598-0.453,5.197-0.906,7.796-1.359C226.565,55.472,226.565,63.68,226.565,71.887z"/>
		<path fill="#8EC044" d="M194.265,74.768c-2.598,0.231-5.195,0.464-7.795,0.694c0-3.029,0-6.059,0-9.09
			c2.6-0.326,5.195-0.652,7.795-0.979C194.265,68.519,194.265,71.643,194.265,74.768z"/>
		<path fill="#8EC044" d="M207.63,73.576c-2.599,0.232-5.196,0.464-7.795,0.695c0-3.902,0-7.803,0-11.705
			c2.599-0.348,5.194-0.695,7.795-1.043C207.63,65.541,207.63,69.558,207.63,73.576z"/>
		<path fill="#8EC044" d="M222.11,72.285c-2.599,0.231-5.197,0.464-7.798,0.695c0-4.117,0-8.234,0-12.352
			c2.601-0.348,5.199-0.695,7.798-1.043C222.11,63.818,222.11,68.052,222.11,72.285z"/>
		<path fill="#999999" d="M243.272,46.833c-4.083,0.679-8.169,1.358-12.251,2.036c0-1.587,0-3.174,0-4.762
			c4.082-0.745,8.168-1.49,12.251-2.235C243.272,43.525,243.272,45.179,243.272,46.833z"/>
		<path fill="#999999" d="M243.272,54.275c-4.083,0.579-8.169,1.158-12.251,1.738c0-1.588,0-3.175,0-4.763
			c4.082-0.646,8.168-1.292,12.251-1.937C243.272,50.968,243.272,52.621,243.272,54.275z"/>
		<path fill="#999999" d="M237.703,62.371c-2.228,0.262-4.455,0.523-6.683,0.785c0-1.588,0-3.175,0-4.762
			c2.228-0.299,4.455-0.596,6.683-0.895C237.703,59.124,237.703,60.747,237.703,62.371z"/>
	</g>
	<g>
		<path fill="#888888" d="M91.934,149.66c-27.474,6.188-54.947,12.373-82.421,18.562c0-21.774,0-43.549,0-65.323
			c27.474-0.507,54.947-1.013,82.421-1.521C91.934,117.471,91.934,133.565,91.934,149.66z"/>
		<path fill="#FFFFFF" d="M84.137,141.633c-22.276,4.112-44.551,8.227-66.827,12.34c0-14.574,0-29.149,0-43.726
			c22.276-0.952,44.551-1.904,66.827-2.857C84.137,118.804,84.137,130.219,84.137,141.633z"/>
		<path fill="#888888" d="M59.634,118.138c7.053-0.56,14.106-1.119,21.162-1.678c0-1.653,0-3.307,0-4.96
			c-7.056,0.417-14.109,0.833-21.162,1.249C59.634,114.546,59.634,116.342,59.634,118.138z"/>
		<path fill="#888888" d="M59.634,125.681c7.053-0.76,14.106-1.518,21.162-2.277c0-1.653,0-3.307,0-4.96
			c-7.056,0.616-14.109,1.232-21.162,1.849C59.634,122.09,59.634,123.886,59.634,125.681z"/>
		<path fill="#888888" d="M69.658,131.861c3.713-0.505,7.426-1.01,11.139-1.514c0-1.653,0-3.307,0-4.959
			c-3.712,0.43-7.425,0.858-11.139,1.289C69.658,128.405,69.658,130.134,69.658,131.861z"/>
		<path fill="#91BE59" d="M31.511,142.115c-0.002,2.788-2.119,5.416-4.733,5.871c-2.613,0.454-4.734-1.524-4.732-4.421
			c-0.002-2.896,2.117-5.524,4.732-5.872C29.392,137.344,31.509,139.326,31.511,142.115z"/>
		<path fill="#91BE59" d="M48.218,139.553c0.002,2.631-2.119,5.131-4.734,5.584c-2.614,0.453-4.734-1.396-4.733-4.133
			c-0.001-2.735,2.121-5.235,4.733-5.584C46.1,135.075,48.217,136.926,48.218,139.553z"/>
		<path fill="#91BE59" d="M63.81,137.166c-0.002,2.481-2.119,4.86-4.731,5.314c-2.615,0.454-4.733-1.275-4.733-3.865
			c0.001-2.587,2.118-4.967,4.733-5.313C61.691,132.953,63.81,134.682,63.81,137.166z"/>
		<path fill="#888888" d="M50.511,130.564c0.173,0.044,0.347,0.088,0.521,0.132c0.842-2.351,1.338-4.245,1.335-6.392
			c-0.001-7.67-6.312-13.789-14.117-13.496c-7.809,0.303-14.115,7.765-14.116,16.389c-0.003,2.369,0.493,4.282,1.332,6.632
			c0.082,0.227,0.291,0.359,0.522,0.33c8.175-1.013,16.351-2.023,24.523-3.037c0.229-0.028,0.438-0.198,0.521-0.426
			C50.857,130.652,50.684,130.608,50.511,130.564c0-0.186,0-0.371,0-0.557c-8.174,0.979-16.35,1.958-24.523,2.938
			c0,0.202,0,0.403,0,0.606c0.174-0.093,0.348-0.184,0.521-0.275c-0.825-2.306-1.263-4.022-1.262-6.19
			c0-3.931,1.456-7.67,3.812-10.418c2.358-2.757,5.605-4.512,9.19-4.694c3.593-0.183,6.837,1.187,9.191,3.444
			c2.359,2.267,3.812,5.417,3.812,8.998c0,1.981-0.44,3.707-1.264,6.017C50.164,130.476,50.337,130.521,50.511,130.564
			c0-0.186,0-0.371,0-0.557C50.511,130.193,50.511,130.379,50.511,130.564z"/>
		<path fill="#888888" d="M30.653,127.549c0,0.822-0.621,1.556-1.387,1.639c-0.769,0.084-1.386-0.521-1.387-1.352
			c-0.002-0.831,0.621-1.564,1.387-1.639S30.653,126.726,30.653,127.549z"/>
		<path fill="#888888" d="M32.319,121.455c-0.002,0.818-0.621,1.535-1.389,1.603c-0.767,0.067-1.389-0.545-1.388-1.372
			c-0.003-0.825,0.622-1.542,1.388-1.602C31.696,120.025,32.316,120.638,32.319,121.455z"/>
		<path fill="#888888" d="M35.649,117.666c0,0.809-0.624,1.51-1.389,1.569c-0.767,0.059-1.387-0.554-1.388-1.371
			c0.001-0.816,0.619-1.519,1.388-1.569C35.026,116.244,35.649,116.859,35.649,117.666z"/>
		<path fill="#888888" d="M39.532,115.658c0.005,0.797-0.624,1.486-1.387,1.54c-0.766,0.054-1.39-0.554-1.389-1.359
			c0-0.806,0.623-1.495,1.389-1.541C38.913,114.252,39.532,114.861,39.532,115.658z"/>
		<path fill="#888888" d="M46.746,120.255c0,0.776-0.621,1.462-1.388,1.53c-0.768,0.068-1.389-0.512-1.387-1.299
			c-0.003-0.785,0.621-1.471,1.387-1.529C46.128,118.898,46.745,119.478,46.746,120.255z"/>
		<path fill="#888888" d="M48.412,124.594c0,0.771-0.621,1.463-1.39,1.544c-0.767,0.081-1.384-0.487-1.387-1.269
			c0-0.781,0.623-1.473,1.387-1.544C47.791,123.254,48.409,123.821,48.412,124.594z"/>
		<path fill="#010202" d="M39.671,126.183c0,0.558-0.437,1.055-0.972,1.111c-0.535,0.059-0.973-0.352-0.971-0.914
			c0-0.562,0.437-1.06,0.971-1.112C39.237,125.217,39.669,125.625,39.671,126.183z"/>
		<path fill="#888888" d="M43.417,115.619c-2.267,2.736-4.533,5.534-6.799,8.395c-0.002-0.012-2.644,3.486-0.068,4.968
			c2.356,1.336,3.746-0.784,4.508-2.437C41.845,122.873,42.631,119.23,43.417,115.619z"/>
		<path fill="#999999" d="M91.934,93.803C64.46,93.417,36.987,93.034,9.513,92.65c0-21.774,0-43.549,0-65.323
			c27.474,6.064,54.947,12.13,82.421,18.194C91.934,61.615,91.934,77.708,91.934,93.803z"/>
		<path fill="#FFFFFF" d="M83.023,84.833c-22.273-1.125-44.55-2.249-66.826-3.373c0-14.627,0-29.255,0-43.883
			c22.276,4.285,44.553,8.57,66.826,12.855C83.023,61.9,83.023,73.367,83.023,84.833z"/>
		<path fill="#999999" d="M59.634,79.343c7.053,0.47,14.106,0.94,21.162,1.411c0-0.992,0-1.984,0-2.977
			c-7.056-0.556-14.109-1.112-21.162-1.668C59.634,77.186,59.634,78.264,59.634,79.343z"/>
		<path fill="#999999" d="M69.658,55.122c3.713,0.608,7.426,1.218,11.139,1.827c0-0.992,0-1.984,0-2.977
			c-3.712-0.653-7.425-1.308-11.139-1.961C69.658,53.049,69.658,54.085,69.658,55.122z"/>
		<path fill="#999999" d="M69.658,58.233c3.713,0.564,7.426,1.127,11.139,1.691c0-0.661,0-1.323,0-1.984
			c-3.712-0.594-7.425-1.188-11.139-1.781C69.658,56.85,69.658,57.542,69.658,58.233z"/>
		<path fill="#999999" d="M75.228,63.136c1.855,0.252,3.711,0.504,5.568,0.755c0-0.992,0-1.983,0-2.976
			c-1.857-0.274-3.713-0.549-5.568-0.823C75.228,61.107,75.228,62.122,75.228,63.136z"/>
		<g>
			<g>
				<defs>
					<path id="SVGID_1_" d="M83.023,84.833c-22.273-1.125-44.55-2.249-66.826-3.373c0-14.627,0-29.255,0-43.883
						c22.276,4.285,44.553,8.57,66.826,12.855C83.023,61.9,83.023,73.367,83.023,84.833z"/>
				</defs>
				<clipPath id="SVGID_2_">
					<use xlink:href="#SVGID_1_"  overflow="visible"/>
				</clipPath>
				<path clip-path="url(#SVGID_2_)" fill="#91BE59" d="M48.1,48.308c-0.688-2.037-1.378-4.09-2.067-6.154
					c-0.967,0.166-1.933,0.336-2.897,0.51c-0.812-1.508-1.939-3.034-3.215-4.291c0.479-0.997,0.955-1.988,1.433-2.975
					c-1.532-1.102-3.064-2.217-4.6-3.343c-0.497,1.028-0.993,2.062-1.491,3.102c-1.494-0.703-3.854-0.995-4.68-1.233
					c-0.348-1.102-0.693-2.205-1.041-3.314c-1.422,0.237-2.847,0.482-4.271,0.735c0.341,1.097,0.682,2.19,1.021,3.28
					c-2.035,0.729-2.771,1.581-3.728,2.759c-1.039-0.734-2.078-1.474-3.117-2.22c-0.713,1.596-1.429,3.205-2.142,4.825
					c0.946,0.688,1.892,1.369,2.837,2.047c-0.411,1.729-0.481,3.795-0.283,5.538c-1.002,0.242-2.004,0.488-3.008,0.739
					c0.688,2.241,1.376,4.468,2.066,6.68c1.021-0.273,2.047-0.543,3.069-0.809c0.603,0.735,1.953,2.785,3.304,3.985
					c-0.482,0.988-0.961,1.982-1.441,2.98c1.522,0.968,3.045,1.924,4.568,2.867c0.547-1.165,1.096-2.324,1.643-3.478
					c1.476,0.509,2.476,0.825,4.705,0.569c0.537,1.631,1.074,3.254,1.611,4.868c1.424-0.391,2.848-0.773,4.271-1.147
					c-0.545-1.616-1.09-3.242-1.635-4.877c0.604-0.509,2.428-1.604,3.324-2.682c1.141,0.727,2.282,1.448,3.424,2.162
					c0.702-1.492,1.403-2.973,2.104-4.439c-1.042-0.572-2.085-1.148-3.127-1.729c0.382-1.492,0.336-3.547,0.401-4.383
					C46.128,48.687,47.114,48.496,48.1,48.308z M34.965,55.133c-3.526,0.855-7.46-1.732-8.783-5.93
					c-1.325-4.193,0.472-8.264,3.993-8.944c3.531-0.685,7.465,2.134,8.783,6.15C40.284,50.431,38.494,54.273,34.965,55.133z"/>
			</g>
			<g>
				<defs>
					<path id="SVGID_3_" d="M83.023,84.833c-22.273-1.125-44.55-2.249-66.826-3.373c0-14.627,0-29.255,0-43.883
						c22.276,4.285,44.553,8.57,66.826,12.855C83.023,61.9,83.023,73.367,83.023,84.833z"/>
				</defs>
				<clipPath id="SVGID_4_">
					<use xlink:href="#SVGID_3_"  overflow="visible"/>
				</clipPath>
				<path clip-path="url(#SVGID_4_)" fill="#8EC044" d="M63.944,66.76c0.013-1.152,0.023-2.306,0.037-3.458
					c-0.619-0.086-1.235-0.172-1.854-0.258c-0.18-0.897-0.55-1.854-1.063-2.701c0.49-0.406,0.981-0.81,1.473-1.21
					c-0.706-0.812-1.411-1.628-2.116-2.451c-0.509,0.41-1.019,0.824-1.525,1.239c-0.764-0.615-2.133-1.195-2.586-1.467
					c0.006-0.598,0.012-1.196,0.02-1.794c-0.909-0.152-1.819-0.304-2.729-0.456c-0.006,0.59-0.012,1.181-0.016,1.771
					c-1.368-0.041-1.973,0.224-2.772,0.602c-0.481-0.561-0.966-1.123-1.45-1.689c-0.73,0.621-1.462,1.248-2.192,1.881
					c0.436,0.524,0.871,1.048,1.307,1.568c-0.574,0.752-1.004,1.738-1.216,2.632c-0.643-0.091-1.282-0.181-1.923-0.271
					c-0.015,1.236-0.024,2.471-0.037,3.707c0.654,0.082,1.308,0.166,1.963,0.249c0.213,0.487,0.617,1.785,1.178,2.666
					c-0.473,0.393-0.946,0.787-1.419,1.185c0.706,0.807,1.411,1.606,2.117,2.401c0.548-0.475,1.095-0.945,1.642-1.413
					c0.769,0.558,1.287,0.923,2.65,1.24c-0.01,0.936-0.018,1.871-0.027,2.807c0.909,0.088,1.818,0.176,2.729,0.263
					c0.011-0.938,0.021-1.878,0.03-2.815c0.455-0.143,1.756-0.348,2.506-0.729c0.526,0.588,1.053,1.171,1.58,1.752
					c0.721-0.635,1.443-1.265,2.167-1.889c-0.5-0.48-1-0.966-1.5-1.453c0.531-0.688,0.934-1.736,1.146-2.146
					C62.685,66.603,63.315,66.681,63.944,66.76z M54.733,67.756c-2.251-0.261-4.062-2.363-4.038-4.695
					c0.022-2.334,1.871-3.945,4.124-3.604c2.259,0.344,4.066,2.444,4.041,4.694C58.837,66.402,56.988,68.017,54.733,67.756z"/>
			</g>
		</g>
	</g>
</g>
</svg>
