<?xml version="1.0" encoding="utf-8"?>
<!-- Generator: Adobe Illustrator 19.0.0, SVG Export Plug-In . SVG Version: 6.00 Build 0)  -->
<svg version="1.1" id="Capa_1" xmlns="http://www.w3.org/2000/svg" xmlns:xlink="http://www.w3.org/1999/xlink" x="0px" y="0px"
	 viewBox="-47 337.4 499.1 166.5" style="enable-background:new -47 337.4 499.1 166.5;" xml:space="preserve">
<style type="text/css">
	.st0{fill:#5BB033;}
	.st1{fill:#FFFFFF;}
</style>
<g>
	<g>
		<rect x="-47" y="337.4" class="st0" width="167.1" height="166.5"/>
		<path class="st1" d="M88.9,442.6c0-1.8-1.5-3.3-3.3-3.3H71.2L60.9,411c4.2-4.7,6.8-10.9,6.8-17.6c0-12.8-9-23.4-21-26v-15.4
			c0-3.1-2.5-5.5-5.5-5.5c-3.1,0-5.5,2.5-5.5,5.5v15.4c-12,2.6-21,13.2-21,26c0,6.8,2.6,12.9,6.8,17.6l-10.3,28.3H-2.5
			c-1.8,0-3.3,1.5-3.3,3.3c0,1.8,1.5,3.3,3.3,3.3h11l-13.1,36c-0.8,2.1-0.2,4.3,1.3,5.8l-1.7,4.3c-0.5,1.1,0.1,2.4,1.2,2.9
			c0.3,0.1,0.5,0.2,0.8,0.2c0.9,0,1.7-0.5,2.1-1.4l1.7-4.3c2.2-0.1,4.2-1.4,5-3.6l14.5-39.8h17.4v6.1c0,1.8,1.5,3.3,3.3,3.3
			c1.8,0,3.3-1.5,3.3-3.3v-6.1h17.4l14.5,39.8c0.8,2.2,2.8,3.6,5,3.6l1.7,4.3c0.3,0.9,1.2,1.4,2.1,1.4c0.3,0,0.6-0.1,0.8-0.2
			c1.1-0.5,1.7-1.7,1.2-2.9l-1.7-4.3c1.5-1.5,2-3.7,1.3-5.8l-13.1-36h12C87.4,445.9,88.9,444.4,88.9,442.6z M41,377.8
			c8.5,0,15.5,7,15.5,15.5c0,8.5-7,15.5-15.5,15.5c-8.5,0-15.5-7-15.5-15.5C25.5,384.8,32.5,377.8,41,377.8z M44.3,439.3v-6.1
			c0-1.8-1.5-3.3-3.3-3.3c-1.8,0-3.3,1.5-3.3,3.3v6.1h-15l7.8-21.5c3.2,1.4,6.8,2.2,10.5,2.2c3.7,0,7.3-0.8,10.5-2.2l7.8,21.5H44.3z
			"/>
	</g>
	<g>
		<g>
			<path class="st0" d="M154.7,416.1l-19.2-24.4h11.4l13.5,17.8l13.5-17.8h11.4l-19.2,24.4l19.2,24.4h-11.4l-13.5-17.8l-13.5,17.8
				h-11.4L154.7,416.1z"/>
			<path class="st0" d="M187.8,422.6c0-12,5.9-18,17.8-18s17.8,6,17.8,18c0,12-5.9,18-17.8,18C193.8,440.6,187.8,434.6,187.8,422.6z
				 M205.6,433.7c5.8,0,8.7-3.7,8.7-11.2c0-7.3-2.9-11-8.7-11s-8.7,3.7-8.7,11C196.9,430,199.8,433.7,205.6,433.7z"/>
			<path class="st0" d="M229.5,440.5v-35.9h7l1.1,5.2c3.2-3.5,7.1-5.2,11.6-5.2s7.6,1.6,9.3,4.9c3.7-3.3,7.5-4.9,11.5-4.9
				c8.2,0,12.4,4.5,12.4,13.6v22.3h-9.1v-22.6c0-4-1.8-6-5.4-6c-2.7,0-5.3,1.2-7.8,3.6v25H251V418c0-4.1-1.7-6.1-5-6.1
				c-2.6,0-5.1,1.2-7.5,3.6v25L229.5,440.5L229.5,440.5z"/>
			<path class="st1" d="M290.1,406.1c4.8-1,9.8-1.5,15.1-1.5c12.2,0,18.3,5.7,18.3,17.1c0,12.6-5.7,18.8-17,18.8
				c-2.4,0-4.9-0.6-7.3-1.7v14.7h-9.1V406.1z M299.2,431.2c2.3,1.2,4.7,1.8,7.3,1.8c5.4,0,8.1-3.8,8.1-11.4c0-6.4-3-9.7-9-9.7
				c-2.6,0-4.7,0.2-6.4,0.5L299.2,431.2L299.2,431.2z"/>
			<path class="st1" d="M328,429.4c0-7.1,5.2-10.7,15.6-10.7c2.4,0,4.9,0.2,7.3,0.7v-2.7c0-3.2-2.3-4.8-6.9-4.8
				c-3.9,0-8.3,0.6-13.1,1.7v-7.2c4.8-1.1,9.1-1.7,13.1-1.7c10.7,0,16,3.9,16,11.8v24.1h-5.3l-3.2-3.2c-3.1,2.1-6.6,3.2-10.3,3.2
				C332.3,440.5,328,436.8,328,429.4z M343.5,424.8c-4.4,0-6.5,1.5-6.5,4.4c0,3.2,1.8,4.8,5.5,4.8c3,0,5.8-0.9,8.4-2.8v-5.7
				C348.6,425,346.1,424.8,343.5,424.8z"/>
			<path class="st1" d="M367.8,438.8v-7.5c4,1.6,8.6,2.4,13.8,2.4c3.9,0,5.8-1.3,5.8-3.8c0-2.4-1.3-3.6-3.9-3.6H377
				c-7.3,0-10.9-3.6-10.9-10.8c0-7.5,5.3-11.3,16-11.3c4.5,0,8.8,0.7,12.7,2.1v7.5c-4-1.6-8.3-2.4-13-2.4c-4.9,0-7.3,1.3-7.3,3.8
				c0,2.4,1.4,3.6,4.3,3.6h5.8c8,0,12,3.6,12,10.8c0,7.5-5.1,11.3-15.2,11.3C376.2,440.9,371.8,440.2,367.8,438.8z"/>
			<path class="st1" d="M402.1,438.8v-7.5c4,1.6,8.6,2.4,13.8,2.4c3.9,0,5.8-1.3,5.8-3.8c0-2.4-1.3-3.6-3.9-3.6h-6.5
				c-7.3,0-10.9-3.6-10.9-10.8c0-7.5,5.3-11.3,16-11.3c4.5,0,8.8,0.7,12.7,2.1v7.5c-4-1.6-8.3-2.4-13-2.4c-4.9,0-7.3,1.3-7.3,3.8
				c0,2.4,1.4,3.6,4.3,3.6h5.8c8,0,12,3.6,12,10.8c0,7.5-5.1,11.3-15.2,11.3C410.6,440.9,406.1,440.2,402.1,438.8z"/>
		</g>
	</g>
</g>
</svg>
