<?xml version="1.0" encoding="utf-8"?>
<!-- Generator: Adobe Illustrator 16.0.0, SVG Export Plug-In . SVG Version: 6.00 Build 0)  -->
<!DOCTYPE svg PUBLIC "-//W3C//DTD SVG 1.1//EN" "http://www.w3.org/Graphics/SVG/1.1/DTD/svg11.dtd">
<svg version="1.1" id="Capa_1" xmlns="http://www.w3.org/2000/svg" xmlns:xlink="http://www.w3.org/1999/xlink" x="0px" y="0px"
	 width="499.064px" height="166.467px" viewBox="0 0 499.064 166.467" enable-background="new 0 0 499.064 166.467"
	 xml:space="preserve">
<g>
	<g>
		<rect fill="#5BB033" width="167.12" height="166.467"/>
		<path fill="#FFFFFF" d="M135.857,105.177c0-1.836-1.491-3.326-3.326-3.326H118.16l-10.307-28.316
			c4.19-4.699,6.753-10.871,6.753-17.645c0-12.758-9.036-23.439-21.042-26V14.455c0-3.063-2.482-5.545-5.544-5.545
			c-3.064,0-5.544,2.482-5.544,5.545V29.89c-12.01,2.559-21.046,13.239-21.046,26c0,6.775,2.568,12.947,6.758,17.649l-10.307,28.311
			H44.507c-1.838,0-3.326,1.49-3.326,3.326c0,1.838,1.488,3.328,3.326,3.328H55.46l-13.089,35.961
			c-0.757,2.08-0.18,4.303,1.273,5.779l-1.705,4.273c-0.456,1.139,0.1,2.424,1.236,2.879c0.271,0.109,0.548,0.16,0.821,0.16
			c0.88,0,1.714-0.527,2.06-1.395l1.7-4.264c2.197-0.072,4.236-1.447,5.034-3.637l14.472-39.762h17.431v6.104
			c0,1.836,1.486,3.326,3.327,3.326c1.833,0,3.328-1.49,3.328-3.326v-6.104h17.428l14.469,39.762
			c0.797,2.188,2.833,3.561,5.03,3.637l1.707,4.264c0.343,0.867,1.179,1.395,2.059,1.395c0.277,0,0.554-0.051,0.823-0.16
			c1.139-0.455,1.694-1.74,1.239-2.879l-1.707-4.273c1.456-1.477,2.033-3.699,1.279-5.779l-13.092-35.961h11.952
			C134.366,108.505,135.857,107.015,135.857,105.177z M88.016,40.392c8.548,0,15.497,6.951,15.497,15.498
			c0,8.545-6.953,15.496-15.497,15.496c-8.545,0-15.496-6.951-15.496-15.496C72.521,47.343,79.471,40.392,88.016,40.392z
			 M91.343,101.851v-6.104c0-1.838-1.49-3.326-3.327-3.326c-1.836,0-3.326,1.488-3.326,3.326v6.104H69.68l7.842-21.541
			c3.221,1.392,6.768,2.167,10.494,2.167c3.73,0,7.274-0.775,10.497-2.167l7.837,21.541H91.343z"/>
	</g>
	<g>
		<rect x="167.139" fill="#010202" width="331.925" height="166.467"/>
		<g>
			<path fill="#5BB033" d="M201.699,78.673l-19.243-24.438h11.45l13.501,17.842l13.501-17.842h11.45l-19.209,24.438l19.209,24.439
				h-11.45l-13.501-17.842l-13.501,17.842h-11.45L201.699,78.673z"/>
			<path fill="#5BB033" d="M234.803,85.167c0-12.031,5.924-18.046,17.773-18.046s17.774,6.016,17.774,18.046
				c0,12.01-5.925,18.014-17.774,18.014C240.772,103.181,234.848,97.177,234.803,85.167z M252.576,96.276
				c5.811,0,8.716-3.748,8.716-11.246c0-7.314-2.905-10.971-8.716-10.971c-5.811,0-8.716,3.657-8.716,10.971
				C243.86,92.528,246.766,96.276,252.576,96.276z"/>
			<path fill="#5BB033" d="M276.486,103.112V67.223h7.007l1.06,5.195c3.213-3.463,7.075-5.195,11.587-5.195s7.6,1.641,9.263,4.922
				c3.669-3.281,7.508-4.922,11.519-4.922c8.249,0,12.373,4.546,12.373,13.638v22.251h-9.058V80.519c0-3.987-1.8-5.981-5.4-5.981
				c-2.688,0-5.275,1.208-7.759,3.623v24.952h-9.058V80.622c0-4.056-1.663-6.084-4.99-6.084c-2.644,0-5.139,1.208-7.485,3.623
				v24.952H276.486z"/>
			<path fill="#FFFFFF" d="M337.138,68.693c4.763-0.979,9.798-1.47,15.107-1.47c12.19,0,18.286,5.686,18.286,17.055
				c0,12.557-5.674,18.834-17.021,18.834c-2.415,0-4.854-0.57-7.314-1.709v14.697h-9.058V68.693z M346.196,93.747
				c2.256,1.23,4.683,1.846,7.28,1.846c5.4,0,8.101-3.795,8.101-11.382c0-6.448-2.985-9.673-8.955-9.673
				c-2.575,0-4.717,0.16-6.426,0.479V93.747z"/>
			<path fill="#FFFFFF" d="M374.959,91.935c0-7.131,5.195-10.698,15.586-10.698c2.438,0,4.876,0.228,7.314,0.684v-2.7
				c0-3.213-2.313-4.819-6.938-4.819c-3.92,0-8.271,0.57-13.057,1.709v-7.178c4.785-1.139,9.137-1.709,13.057-1.709
				c10.664,0,15.996,3.942,15.996,11.826v24.063h-5.264l-3.213-3.213c-3.122,2.142-6.563,3.213-10.322,3.213
				C379.345,103.112,374.959,99.386,374.959,91.935z M390.545,87.39c-4.353,0-6.528,1.48-6.528,4.443
				c0,3.189,1.822,4.785,5.469,4.785c3.008,0,5.799-0.935,8.374-2.803v-5.742C395.581,87.617,393.143,87.39,390.545,87.39z"/>
			<path fill="#FFFFFF" d="M414.762,101.403v-7.52c3.987,1.595,8.59,2.393,13.809,2.393c3.896,0,5.845-1.254,5.845-3.76
				c0-2.393-1.311-3.59-3.931-3.59h-6.494c-7.292,0-10.938-3.588-10.938-10.766c0-7.52,5.32-11.279,15.962-11.279
				c4.512,0,8.761,0.684,12.749,2.051v7.52c-3.988-1.595-8.317-2.393-12.988-2.393c-4.899,0-7.349,1.253-7.349,3.76
				c0,2.393,1.424,3.589,4.272,3.589h5.811c7.975,0,11.963,3.589,11.963,10.767c0,7.52-5.082,11.279-15.244,11.279
				C423.239,103.454,418.75,102.771,414.762,101.403z"/>
			<path fill="#FFFFFF" d="M449.096,101.403v-7.52c3.987,1.595,8.59,2.393,13.809,2.393c3.896,0,5.845-1.254,5.845-3.76
				c0-2.393-1.311-3.59-3.931-3.59h-6.494c-7.292,0-10.938-3.588-10.938-10.766c0-7.52,5.32-11.279,15.962-11.279
				c4.512,0,8.761,0.684,12.749,2.051v7.52c-3.988-1.595-8.317-2.393-12.988-2.393c-4.899,0-7.349,1.253-7.349,3.76
				c0,2.393,1.424,3.589,4.272,3.589h5.811c7.975,0,11.963,3.589,11.963,10.767c0,7.52-5.082,11.279-15.244,11.279
				C457.573,103.454,453.083,102.771,449.096,101.403z"/>
		</g>
	</g>
</g>
</svg>
